<svg xmlns="http://www.w3.org/2000/svg" width="14" height="14" viewBox="0 0 14 14">
  <g fill="none" fill-rule="evenodd" transform="translate(1 1)">
    <path fill="#706F75" fill-rule="nonzero" d="M6.16817566,11.6636487 C9.38900331,11.6636487 12,9.05265199 12,5.83182434 C12,2.61099669 9.38900331,0 6.16817566,0 C2.94734801,0 0.336351315,2.61099669 0.336351315,5.83182434 C0.336351315,9.05265199 2.94734801,11.6636487 6.16817566,11.6636487 Z M6.16817566,12.6636487 C2.39506326,12.6636487 -0.663648685,9.60493674 -0.663648685,5.83182434 C-0.663648685,2.05871194 2.39506326,-1 6.16817566,-1 C9.94128806,-1 13,2.05871194 13,5.83182434 C13,9.60493674 9.94128806,12.6636487 6.16817566,12.6636487 Z"/>
    <circle cx="6.168" cy="5.832" r="5.832" fill="#919196"/>
    <g fill="#000" opacity=".5" transform="translate(1.954 1.421)">
      <path d="M3.09844073,0.473684211 L3.09844073,4.15385474 C3.09844073,5.26065547 4.00175,6.15789474 5.09537452,6.15789474 L8.15107231,6.15789474 L3.09844073,0.473684211 Z" transform="rotate(180 5.625 3.316)" style="mix-blend-mode:multiply"/>
      <path d="M0.572124944,2.36842105 L0.572124944,6.04859159 C0.572124944,7.15539231 1.47543421,8.05263158 2.56905873,8.05263158 L5.62475652,8.05263158 L0.572124944,2.36842105 Z" style="mix-blend-mode:multiply"/>
    </g>
  </g>
</svg>
