<svg width="350" height="270" viewBox="0 0 350 270" fill="none" xmlns="http://www.w3.org/2000/svg">
<path d="M0 24C0 19.0294 4.02944 15 9 15H350V246C350 250.971 345.971 255 341 255H0V24Z" fill="#090E19"/>
<path d="M350 16V9C350 4.02944 345.971 0 341 0H269.32C263.83 0 258.722 2.81537 255.791 7.45806L250.398 16H350Z" fill="#090E19"/>
<path d="M4.57764e-05 254V261C4.57764e-05 265.971 4.02948 270 9.00005 270H80.6798C86.1704 270 91.2776 267.185 94.2089 262.542L99.602 254H4.57764e-05Z" fill="#090E19"/>
</svg>
