<?xml version="1.0" encoding="UTF-8"?>
<svg width="24px" height="24px" viewBox="0 0 24 24" version="1.1" xmlns="http://www.w3.org/2000/svg" xmlns:xlink="http://www.w3.org/1999/xlink">
    <!-- Generator: Sketch 48.1 (47250) - http://www.bohemiancoding.com/sketch -->
    <title>Combined Shape</title>
    <desc>Created with Sketch.</desc>
    <defs></defs>
    <g id="Artboard-Copy-2" stroke="none" stroke-width="1" fill="none" fill-rule="evenodd" transform="translate(-287.000000, -642.000000)">
        <g id="Group-7" transform="translate(287.000000, 642.000000)" fill="#FFFFFF" fill-rule="nonzero">
            <path d="M20,10.9682713 L20,7.87308538 L24,12 L20,16.1269146 L20,13.0317287 L17.9760403,13.0317287 C17.7732643,17.3790339 16.300596,21.0894785 14.215624,23 L12.5745164,21.7301167 C14.4415507,20.3351803 16,16.5929167 16,12 C16,7.40708327 14.4415507,3.66481967 12.5745164,2.26988333 L14.215624,1 C16.300596,2.91052152 17.7732643,6.62096608 17.9760403,10.9682713 L20,10.9682713 Z M2.05530563,10.9682713 C2.37269102,8.04052118 4.01800247,5.80962807 6,5.80962807 C8.209139,5.80962807 10,8.58115199 10,12 C10,15.418848 8.209139,18.1903719 6,18.1903719 C4.51943529,18.1903719 3.22674762,16.9454924 2.53512878,15.095186 L4.73524766,15.095186 C5.11250302,15.7478896 5.57990551,16.1269146 6,16.1269146 C6.75964694,16.1269146 7.67398458,14.8875545 7.93026594,13.0317287 L0,13.0317287 L0,10.9682713 L2.05530563,10.9682713 Z M4.06973406,10.9682713 L7.93026594,10.9682713 C7.67398458,9.11244551 6.75964694,7.87308538 6,7.87308538 C5.24035306,7.87308538 4.32601542,9.11244551 4.06973406,10.9682713 Z M10.8512756,3.603321 C12.7126109,5.09157544 14,8.2919663 14,12 C14,15.7080337 12.7126109,18.9084246 10.8512756,20.396679 L9.14376314,19.0754118 C10.6086746,18.4168578 12,15.6073702 12,12 C12,8.39262977 10.6086746,5.58314221 9.14376314,4.92458817 L10.8512756,3.603321 Z" id="Combined-Shape"></path>
        </g>
    </g>
</svg>