<svg xmlns="http://www.w3.org/2000/svg" xmlns:xlink="http://www.w3.org/1999/xlink" width="24" height="24" viewBox="0 0 24 24">
    <defs>
        <path id="b" d="M137 137h350v352H137z"/>
        <filter id="a" width="128.6%" height="128.4%" x="-14.3%" y="-11.4%" filterUnits="objectBoundingBox">
            <feOffset dy="10" in="SourceAlpha" result="shadowOffsetOuter1"/>
            <feGaussianBlur in="shadowOffsetOuter1" result="shadowBlurOuter1" stdDeviation="15"/>
            <feColorMatrix in="shadowBlurOuter1" values="0 0 0 0 0 0 0 0 0 0 0 0 0 0 0 0 0 0 0.3 0"/>
        </filter>
        <path id="c" d="M0 0h350v72H0z"/>
    </defs>
    <g fill="none" fill-rule="evenodd">
        <g transform="translate(-447 -153)">
            <use fill="#000" filter="url(#a)" xlink:href="#b"/>
            <use fill="#FFF" xlink:href="#b"/>
        </g>
        <path fill="#020D1C" d="M-310-16H40v72h-350z"/>
        <path fill="#020D1C" d="M-310-16H40v352h-350z" opacity=".963"/>
        <g fill="#FFF" fill-rule="nonzero">
            <path d="M12 22c5.523 0 10-4.477 10-10S17.523 2 12 2 2 6.477 2 12s4.477 10 10 10zm0 2C5.373 24 0 18.627 0 12S5.373 0 12 0s12 5.373 12 12-5.373 12-12 12z" opacity=".302"/>
            <path d="M12 12.707l-3.646 3.647-.708-.708L11.293 12 7.646 8.354l.708-.708L12 11.293l3.646-3.647.708.708L12.707 12l3.647 3.646-.708.708L12 12.707z"/>
        </g>
    </g>
</svg>
