<svg id="vector" xmlns="http://www.w3.org/2000/svg" width="32" height="16" viewBox="0 0 32 16"><path fill="#072B5F" fill-rule="evenodd" d="M0,0.063h32v15.873h-32z" id="path_0"/><path fill="#FFF" fill-rule="nonzero" d="M16.064,15.746C20.3762,15.746 23.872,12.278 23.872,8C23.872,3.722 20.3762,0.254 16.064,0.254C11.7518,0.254 8.256,3.722 8.256,8C8.256,12.278 11.7518,15.746 16.064,15.746ZM16.064,15.873C11.6811,15.873 8.128,12.3481 8.128,8C8.128,3.6519 11.6811,0.127 16.064,0.127C20.4469,0.127 24,3.6519 24,8C24,12.3481 20.4469,15.873 16.064,15.873Z" id="path_1"/><path fill="#FFF" fill-rule="nonzero" d="M16.064,13.2698C18.9977,13.2698 21.376,10.9105 21.376,8C21.376,5.0895 18.9977,2.7302 16.064,2.7302C13.1303,2.7302 10.752,5.0895 10.752,8C10.752,10.9105 13.1303,13.2698 16.064,13.2698ZM16.064,13.3968C13.0596,13.3968 10.624,10.9806 10.624,8C10.624,5.0194 13.0596,2.6032 16.064,2.6032C19.0684,2.6032 21.504,5.0194 21.504,8C21.504,10.9806 19.0684,13.3968 16.064,13.3968Z" id="path_2"/><path fill="#FFF" fill-rule="evenodd" d="M15.794,7.727l-3.766,-7.659l0.144,0.005l3.764,7.652l0,-7.662l0.128,0l0,7.657l3.761,-7.647l0.145,-0.005l-3.784,7.693l10.29,-7.703l0.201,0.008l-10.509,7.868l15.832,0l0,0.127l-15.76,0l10.501,7.86l-0.204,0.007l-10.394,-7.781l3.827,7.78l-0.144,-0.002l-3.762,-7.65l0,7.656l-0.128,0l0,-7.661l-3.765,7.655l-0.143,0.002l3.809,-7.746l-10.348,7.747l-0.204,-0.007l10.501,-7.86l-15.786,0l0,-0.127l15.858,0l-10.509,-7.868l0.201,-0.008z" id="path_3"/><path fill="#FFF" fill-rule="nonzero" d="M17.422,13.408l-0.143,-0.084l-0.424,0.105l-0.372,-0.231l0,0.089l-0.09,-0.121l0.106,-0.105l-0.016,-0.315l0.122,0l0.075,-0.211l0.084,-0.037l-0.068,-0.105l0.106,-0.036l-0.016,-0.158l-0.106,-0.053l0.138,-0.016l-0.085,-0.383l-0.212,-0.211l-0.128,0.053l0.053,0.173l-0.44,0l-0.371,-0.157l-0.143,-0.069l-0.706,-0.157l-0.053,0.084l-0.249,0.021l-0.069,0l-0.106,0.173l-0.302,-0.21l-0.159,0.053l0.021,0.141l-0.393,-0.21l-0.016,0.137l-0.387,-0.174l-0.021,0.016l-0.191,0.074l-0.037,-0.142l-0.461,-0.226l-0.494,-0.158l-0.09,-0.405l0,-0.089l-0.191,-0.347l0.085,-0.421l-0.159,-0.052l-0.053,-0.179l0.265,-0.032l-0.122,0l0.016,-0.263l-0.387,0.121l-0.016,-0.105l-0.053,0.195l-0.212,0.084l-0.143,-0.137l-0.053,-0.142l-0.053,-0.279l0.122,-0.089l0.053,0.068l0.037,-0.084l-0.09,-0.631l0.143,0.032l0.069,-0.662l0.021,-0.022l0.138,-0.084l-0.175,0.016l-0.069,-0.158l0.318,-0.352l-0.286,-0.052l-0.212,0.21l-0.085,-0.242l-0.127,0.174l-0.032,-0.121l-0.159,0.052l-0.106,0.053l0.084,-0.316l-0.069,-0.037l0.038,-0.089l-0.091,0.021l-0.015,-0.179l0.334,0l-0.016,-0.084l-0.106,0l-0.197,-0.336l-0.106,0.037l-0.069,-0.121l-0.037,0.105l-0.106,-0.074l0.106,-0.068l-0.159,-0.053l0.037,-0.089l-0.127,-0.068l-0.032,-0.279l-0.127,-0.037l0.074,-0.053l-0.143,-0.368l0.016,-0.12l0.053,-0.369l0.106,0l-0.032,0.227l0.265,0.368l0.191,0.247l0.393,0.105l0,0.016l0.053,-0.09l0.212,0.247l0.106,0.121l0.053,0.053l0.599,0.284l0.106,0.052l0.037,0.032l0.282,0.336l0.159,-0.073l1.166,-0.263l0.038,-0.21l0.084,0.036l-0.016,-0.068l0.053,-0.037l0.25,-0.089l0,-0.242l0.085,-0.089l0.106,-0.405l-0.053,-0.158l0.249,-0.594l0,-0.089l0,-0.279l0.122,0l0.143,-0.21l0.175,-0.053l0.021,-0.194l0.244,-0.295l0.106,0.053l0.499,-0.179l0.053,-0.053l0.106,-0.105l-0.037,-0.173l0.106,0l0.053,0.278l0.546,0.127l0.09,-0.09l0.037,0.016l0.478,0.105l0.016,-0.016l0.249,-0.142l0.016,0.158l0.212,0.021l0.175,0.137l0.037,0.037l0.265,0.226l0.318,0.021l0.197,0.031l0.244,-0.084l0.021,0.158l0.106,0.068l0.085,-0.158l0.106,0l0.074,0.405l0.085,0.016l-0.016,0.142l-0.016,0.016l0.032,0l0.212,-0.105l0.196,-0.069l0.547,0.19l0.106,-0.032l0.037,0.189l0.143,0.021l-0.037,-0.089l0.122,0l0.037,0.194l0.143,-0.157l0.334,0.21l0.09,0.384l-0.143,0.037l0.037,0.294l0.053,0.089l0.372,0.931l-0.197,0.174l-0.016,0.21l-0.159,0.194l0.175,0.121l-0.069,0.053l0.159,0.158l0.244,0.036l0.075,0.106l0.069,0.136l0.175,0.074l0.212,-0.142l0.143,0.016l-0.175,0.247l0.175,0.457l-0.212,0.174l0.09,0.278l-0.053,0.248l0.106,0.141l0.281,0.053l-0.281,0.384l0.053,0.068l0.069,0.074l-0.122,0.189l0.122,0.074l-0.621,0.504l0.144,0.353l-0.037,0.21l-0.213,0.068l-0.053,0.179l-0.244,0.105l-0.074,0.226l-0.053,0.121l0.249,0.126l-0.371,0.032l0.09,0.195l-0.18,0.173l-0.281,0.053l-0.09,0.157l0.212,0.106l-0.403,0.368l0.122,0.194l-0.318,-0.068l-0.356,0.21l-0.477,0.226l-0.106,0.158l-0.069,-0.053l0.069,-0.157l-0.318,0.12l-0.069,-0.12l-0.477,0.278l-0.213,-0.068l-0.387,0.068l-0.106,-0.052z" id="path_4"/><path fill="#072B5F" fill-rule="evenodd" d="M15.794,7.729l-3.766,-7.661l0.144,0.005l3.764,7.655l0,-7.665l0.128,0l0,7.66l3.761,-7.65l0.145,-0.005l-3.784,7.696l10.29,-7.706l0.201,0.008l-10.509,7.871l15.832,0l0,0.126l-15.76,0l10.501,7.864l-0.204,0.006l-10.394,-7.783l3.827,7.783l-0.144,-0.002l-3.762,-7.653l0,7.659l-0.128,0l0,-7.664l-3.765,7.658l-0.143,0.002l3.809,-7.749l-10.348,7.749l-0.204,-0.006l10.501,-7.864l-15.786,0l0,-0.126l15.858,0l-10.509,-7.871l0.201,-0.008z" id="path_5"/><path fill="#072B5F" fill-rule="nonzero" d="M16.096,10.9206C17.7043,10.9206 19.008,9.6272 19.008,8.0317C19.008,6.4363 17.7043,5.1429 16.096,5.1429C14.4877,5.1429 13.184,6.4363 13.184,8.0317C13.184,9.6272 14.4877,10.9206 16.096,10.9206ZM16.096,11.0476C14.4171,11.0476 13.056,9.6974 13.056,8.0317C13.056,6.3661 14.4171,5.0159 16.096,5.0159C17.7749,5.0159 19.136,6.3661 19.136,8.0317C19.136,9.6974 17.7749,11.0476 16.096,11.0476Z" id="path_6"/><path fill="#072B5F" fill-rule="nonzero" d="M16.064,13.2698C18.9977,13.2698 21.376,10.9105 21.376,8C21.376,5.0895 18.9977,2.7302 16.064,2.7302C13.1303,2.7302 10.752,5.0895 10.752,8C10.752,10.9105 13.1303,13.2698 16.064,13.2698ZM16.064,13.3968C13.0596,13.3968 10.624,10.9806 10.624,8C10.624,5.0194 13.0596,2.6032 16.064,2.6032C19.0684,2.6032 21.504,5.0194 21.504,8C21.504,10.9806 19.0684,13.3968 16.064,13.3968Z" id="path_7"/></svg>