<svg id="vector" xmlns="http://www.w3.org/2000/svg" width="32" height="16" viewBox="0 0 500.0 250.0"><path fill="#74ACDF" d="M0 0h500v250H0z" id="path_0"/><path fill="#FFF" d="M0 83h500v84H0z" id="path_1"/><path fill="#F6B40E" fill-rule="evenodd" d="M286.97 125.02l-21.68-0.81-0.01-0.25c3.54-0.65 6.07-2.65 9.74-2.32 4.51 0.4 7.06-2.07 8.81-2.65 1.76-0.57 2.8 0.63 3.06 0.11 0.24-0.52-1.14-1.64-3.63-1.28-2.5 0.37-3.23 2.26-8.74 1.82-4.67-0.38-6.3 1.5-9.76 1.68l-0.1-0.34 19.71-9.04s0.64-0.27 0.46-0.69c-0.17-0.42-0.8-0.16-0.8-0.16l-20.35 7.54-0.11-0.22c3.03-1.95 4.6-4.77 8.12-5.87 4.32-1.35 5.72-4.62 7.12-5.82 1.4-1.2 2.83-0.5 2.86-1.07 0.04-0.57-1.68-1.08-3.84 0.21-2.16 1.3-2.12 3.33-7.38 5.02-4.46 1.44-5.25 3.8-8.37 5.3a18.3 18.3 0 0 0-0.22-0.28L276.6 100s0.48-0.49 0.16-0.81c-0.32-0.33-0.8 0.16-0.8 0.16l-15.91 14.75-0.2-0.15c2.06-2.97 2.43-6.18 5.26-8.54 3.47-2.9 3.53-6.46 4.36-8.1 0.83-1.65 2.42-1.54 2.23-2.08-0.19-0.55-1.96-0.36-3.47 1.66-1.5 2.02-0.68 3.88-4.89 7.46-3.57 3.04-3.4 5.52-5.71 8.1l-0.31-0.17 7.54-20.34s0.26-0.64-0.16-0.81c-0.42-0.18-0.69 0.46-0.69 0.46l-9.04 19.71-0.24-0.07c0.76-3.53-0.13-6.63 1.58-9.9 2.1-4 0.8-7.3 0.93-9.15 0.14-1.84 1.65-2.35 1.27-2.78-0.38-0.42-1.96 0.42-2.57 2.87-0.61 2.44 0.85 3.85-1.67 8.76-2.13 4.17-1.02 6.4-2.18 9.67l-0.35-0.04-0.81-21.68s0-0.68-0.46-0.68-0.46 0.68-0.46 0.68l-0.81 21.68-0.25 0.02c-0.65-3.54-2.65-6.07-2.32-9.75 0.4-4.5-2.07-7.05-2.65-8.8-0.57-1.76 0.63-2.8 0.11-3.06-0.52-0.25-1.64 1.14-1.28 3.63 0.37 2.5 2.26 3.23 1.82 8.74-0.38 4.67 1.5 6.3 1.68 9.76l-0.34 0.1-9.04-19.71s-0.27-0.64-0.69-0.46c-0.42 0.17-0.16 0.8-0.16 0.8l7.54 20.35-0.22 0.11c-1.95-3.03-4.77-4.6-5.87-8.12-1.35-4.32-4.62-5.73-5.82-7.13-1.2-1.4-0.5-2.82-1.07-2.85-0.57-0.04-1.08 1.67 0.21 3.83 1.3 2.17 3.33 2.13 5.02 7.38 1.44 4.46 3.8 5.26 5.3 8.38l-0.28 0.22L225 99.35s-0.49-0.49-0.81-0.16c-0.33 0.32 0.16 0.8 0.16 0.8l14.75 15.91-0.15 0.2c-2.97-2.06-6.18-2.43-8.54-5.26-2.9-3.48-6.46-3.53-8.1-4.36-1.65-0.83-1.54-2.42-2.08-2.23-0.55 0.18-0.36 1.96 1.66 3.46s3.88 0.7 7.46 4.9c3.04 3.57 5.52 3.4 8.1 5.7l-0.17 0.32-20.34-7.54s-0.64-0.26-0.81 0.16c-0.18 0.42 0.46 0.68 0.46 0.68l19.71 9.05-0.07 0.24c-3.53-0.76-6.63 0.13-9.9-1.59-4-2.1-7.3-0.78-9.15-0.92-1.84-0.14-2.35-1.65-2.78-1.27-0.42 0.38 0.42 1.95 2.87 2.57 2.44 0.61 3.85-0.85 8.76 1.66 4.17 2.14 6.4 1.03 9.67 2.19l-0.04 0.34-21.68 0.82s-0.68 0-0.68 0.46 0.68 0.46 0.68 0.46l21.68 0.81 0.02 0.25c-3.54 0.65-6.07 2.65-9.75 2.32-4.5-0.4-7.05 2.07-8.8 2.64-1.76 0.58-2.8-0.62-3.06-0.1-0.25 0.51 1.14 1.64 3.63 1.27 2.5-0.36 3.23-2.26 8.74-1.81 4.67 0.38 6.3-1.5 9.76-1.68l0.1 0.33-19.71 9.05s-0.64 0.26-0.46 0.69c0.17 0.42 0.8 0.16 0.8 0.16l20.35-7.55 0.11 0.22c-3.03 1.96-4.6 4.78-8.12 5.88-4.32 1.35-5.73 4.61-7.13 5.81-1.4 1.2-2.82 0.5-2.85 1.07-0.04 0.58 1.67 1.09 3.84-0.2 2.16-1.3 2.12-3.33 7.37-5.03 4.46-1.44 5.26-3.8 8.38-5.28l0.22 0.26-14.75 15.91s-0.49 0.49-0.16 0.81c0.32 0.32 0.8-0.16 0.8-0.16l15.91-14.76 0.2 0.16c-2.06 2.97-2.43 6.17-5.26 8.54-3.48 2.9-3.53 6.45-4.36 8.1-0.83 1.65-2.42 1.54-2.23 2.08 0.18 0.54 1.96 0.36 3.46-1.66s0.7-3.88 4.9-7.46c3.57-3.04 3.4-5.53 5.7-8.1l0.32 0.17-7.54 20.34s-0.26 0.63 0.16 0.81c0.42 0.18 0.68-0.46 0.68-0.46l9.05-19.71 0.24 0.07c-0.76 3.52 0.13 6.62-1.59 9.9-2.1 4-0.78 7.3-0.92 9.15-0.14 1.84-1.65 2.35-1.27 2.77 0.38 0.43 1.95-0.42 2.57-2.86 0.61-2.44-0.85-3.85 1.66-8.77 2.14-4.17 1.03-6.4 2.19-9.66l0.35 0.03 0.81 21.68s0 0.7 0.46 0.7 0.46-0.7 0.46-0.7l0.81-21.68c0.08 0 0.17 0 0.25-0.02 0.65 3.55 2.65 6.08 2.32 9.75-0.4 4.51 2.07 7.06 2.64 8.81 0.58 1.76-0.62 2.8-0.1 3.06 0.51 0.24 1.64-1.14 1.27-3.63-0.36-2.5-2.26-3.23-1.81-8.74 0.38-4.67-1.5-6.3-1.68-9.76l0.33-0.1 9.05 19.71s0.26 0.64 0.69 0.46c0.42-0.17 0.16-0.8 0.16-0.8l-7.55-20.35 0.22-0.11c1.96 3.03 4.78 4.6 5.88 8.12 1.35 4.32 4.61 5.72 5.81 7.12 1.2 1.4 0.5 2.83 1.07 2.86 0.58 0.04 1.09-1.68-0.2-3.84-1.3-2.16-3.33-2.12-5.03-7.38-1.44-4.46-3.8-5.25-5.28-8.37l0.26-0.22 15.91 14.75s0.49 0.48 0.81 0.16c0.32-0.32-0.16-0.8-0.16-0.8l-14.76-15.91 0.16-0.2c2.97 2.06 6.17 2.42 8.54 5.26 2.9 3.47 6.45 3.53 8.1 4.36 1.65 0.83 1.54 2.42 2.08 2.23 0.54-0.19 0.36-1.96-1.66-3.47-2.02-1.5-3.88-0.68-7.46-4.9-3.04-3.56-5.52-3.38-8.1-5.7l0.17-0.31 20.34 7.54s0.63 0.26 0.81-0.16c0.18-0.42-0.46-0.69-0.46-0.69l-19.71-9.04 0.07-0.24c3.52 0.76 6.63-0.13 9.9 1.58 4 2.1 7.3 0.8 9.15 0.93 1.84 0.14 2.35 1.65 2.78 1.27 0.42-0.38-0.42-1.96-2.87-2.57-2.44-0.61-3.85 0.85-8.77-1.67-4.17-2.13-6.4-1.03-9.66-2.18l0.03-0.35 21.68-0.81s0.7 0 0.7-0.46-0.7-0.46-0.7-0.46" id="path_2"/><path fill="#85340A" fill-rule="evenodd" d="M286.96 125.64l-21.24 0.8 0.02-0.58 9.84-0.36-9.83-0.36-0.03-0.62 21.26 0.8s0.12 0 0.24 0.04c0.14 0.05 0.14 0.1 0.14 0.12 0 0.13-0.33 0.16-0.4 0.16zm-17.99 2.43c1.69 0.12 3.43 0.26 5.82 1.48 3.32 1.7 5.07 1.62 6.6 1.56a7.2 7.2 0 0 1 2.23 0.13c1.74 0.44 2.51 1.33 2.7 1.8 0.04 0.1 0.05 0.17 0.04 0.21l-0.28-0.23a3.63 3.63 0 0 0-2.28-1.06c-0.52-0.04-1.14 0.03-1.85 0.1-1.83 0.21-4.34 0.5-7.19-1-2.06-1.08-4.02-1.15-6.1-1.23a23.86 23.86 0 0 1-3.45-0.3l0.16-0.66c3.55 0.68 6.25-0.28 9.55 1.58-2.44-2.13-5.5-1.16-9.4-2.33l0.1-0.58c1.18 0.36 2.25 0.44 3.35 0.53zm15.29 11.23c0.08 0.03 0.26 0.14 0.3 0.24v0.06c-0.05 0.11-0.37 0.02-0.44 0l-19.93-7.4c0.09-0.17 0.16-0.35 0.24-0.53l9.23 3.43-8.95-4.1 0.22-0.57 19.33 8.87zm-17.68-4.34c1.5 0.76 3.06 1.55 4.8 3.6 2.42 2.83 4.06 3.43 5.51 3.96 0.73 0.26 1.35 0.5 2 0.97 1.44 1.07 1.81 2.2 1.8 2.69 0 0.12-0.01 0.19-0.03 0.23l-0.17-0.33a3.67 3.67 0 0 0-1.7-1.85c-0.47-0.24-1.07-0.41-1.75-0.61-1.77-0.51-4.2-1.21-6.26-3.68-1.5-1.8-3.28-2.6-5.16-3.47a23.85 23.85 0 0 1-3.1-1.61c0.15-0.18 0.28-0.36 0.41-0.54 3.03 1.99 5.89 2.13 8.23 5.12-1.44-2.9-4.65-3.18-7.8-5.75l0.3-0.51c0.97 0.8 1.93 1.28 2.92 1.78zm9.82 16.2c0.04 0.05 0.25 0.3 0.16 0.4-0.1 0.08-0.35-0.13-0.4-0.18l-15.59-14.45 0.43-0.4 7.21 6.71-6.7-7.21 0.42-0.46 14.47 15.6zm-14.67-10.77c1.1 1.28 2.24 2.6 3.06 5.16 1.15 3.55 2.44 4.73 3.57 5.77a7.2 7.2 0 0 1 1.48 1.67c0.92 1.54 0.83 2.71 0.64 3.17l-0.12 0.2-0.04-0.37c-0.04-0.59-0.1-1.48-0.86-2.37-0.34-0.4-0.82-0.78-1.38-1.23-1.44-1.15-3.42-2.72-4.38-5.79-0.7-2.23-2.03-3.67-3.44-5.18a23.88 23.88 0 0 1-2.23-2.67l0.58-0.35c2.03 3 4.62 4.22 5.63 7.88-0.2-3.24-3.07-4.72-5-8.3l0.48-0.35c0.59 1.1 1.29 1.91 2 2.76zm2.86 18.75c0.04 0.08 0.09 0.28 0.05 0.38-0.01 0.01-0.02 0.03-0.05 0.04-0.11 0.04-0.27-0.25-0.3-0.31l-8.87-19.32 0.55-0.2 4.1 8.95-3.43-9.23 0.56-0.26 7.4 19.95zm-9.42-15.58a13.5 13.5 0 0 1 0.85 5.94c-0.3 3.71 0.44 5.3 1.1 6.7 0.32 0.7 0.6 1.3 0.72 2.1 0.26 1.78-0.27 2.83-0.62 3.18a0.58 0.58 0 0 1-0.2 0.13l0.12-0.35c0.19-0.56 0.47-1.4 0.1-2.52a10.4 10.4 0 0 0-0.8-1.66c-0.9-1.61-2.11-3.82-1.82-7.03 0.2-2.32-0.48-4.16-1.2-6.1a23.8 23.8 0 0 1-1.04-3.32l0.67-0.1c0.73 3.55 2.65 5.67 2.19 9.43 1.04-3.06-1.03-5.53-1.45-9.57l0.58-0.14c0.12 1.24 0.45 2.26 0.8 3.3zm-4.53 18.42s0 0.12-0.04 0.25c-0.05 0.13-0.1 0.13-0.12 0.13-0.13 0-0.16-0.33-0.16-0.4l-0.8-21.24 0.58 0.03 0.36 9.83 0.36-9.83 0.62-0.03-0.8 21.26zm-2.75-18a13.52 13.52 0 0 1-1.48 5.81c-1.7 3.32-1.62 5.07-1.56 6.61a7.2 7.2 0 0 1-0.13 2.22c-0.44 1.74-1.33 2.51-1.8 2.7-0.1 0.04-0.17 0.06-0.21 0.05 0.05-0.08 0.15-0.2 0.23-0.29 0.39-0.44 0.97-1.1 1.06-2.28 0.04-0.52-0.03-1.14-0.1-1.85-0.21-1.83-0.5-4.34 1-7.18 1.08-2.07 1.15-4.03 1.23-6.1 0.04-1.13 0.09-2.27 0.3-3.46l0.66 0.16c-0.68 3.55 0.28 6.25-1.58 9.55 2.13-2.44 1.16-5.5 2.33-9.4l0.58 0.1a14.8 14.8 0 0 0-0.52 3.34zm-11.23 15.28c-0.02 0.05-0.18 0.35-0.3 0.3-0.11-0.05-0.02-0.37 0-0.43l7.4-19.94 0.53 0.25-3.43 9.22 4.1-8.95 0.57 0.22-8.87 19.33zm4.35-17.68a13.5 13.5 0 0 1-3.6 4.8c-2.83 2.42-3.43 4.06-3.96 5.51a7.4 7.4 0 0 1-0.97 2c-1.06 1.43-2.18 1.8-2.68 1.8h-0.01a0.58 0.58 0 0 1-0.23-0.03l0.33-0.17a3.69 3.69 0 0 0 1.85-1.7c0.24-0.47 0.41-1.07 0.61-1.75 0.51-1.77 1.21-4.2 3.68-6.26 1.8-1.5 2.6-3.28 3.47-5.16a23.4 23.4 0 0 1 1.61-3.09l0.54 0.4c-1.99 3.03-2.13 5.89-5.12 8.23 2.9-1.44 3.18-4.65 5.76-7.8l0.5 0.31c-0.8 0.96-1.28 1.92-1.78 2.9zm-16.21 9.82c-0.05 0.04-0.3 0.25-0.4 0.16-0.08-0.09 0.13-0.35 0.18-0.4l14.46-15.59c0.13 0.15 0.26 0.3 0.4 0.43l-6.71 7.21 7.21-6.7 0.46 0.42-15.6 14.47zm10.78-14.67c-1.28 1.1-2.6 2.24-5.16 3.06-3.55 1.15-4.73 2.44-5.77 3.58-0.52 0.56-0.97 1.05-1.67 1.47-1.54 0.92-2.71 0.84-3.17 0.64a0.58 0.58 0 0 1-0.2-0.12l0.37-0.04c0.59-0.04 1.48-0.1 2.37-0.86 0.4-0.34 0.78-0.82 1.23-1.38 1.15-1.44 2.72-3.41 5.79-4.37 2.23-0.7 3.67-2.04 5.18-3.45 0.83-0.76 1.67-1.54 2.67-2.23l0.35 0.58c-3 2.03-4.22 4.62-7.88 5.64 3.24-0.22 4.72-3.08 8.3-5l0.35 0.47c-1.1 0.6-1.91 1.29-2.76 2.01zm-18.76 2.86s-0.12 0.05-0.24 0.06c-0.15 0.01-0.17-0.03-0.18-0.06-0.05-0.11 0.25-0.27 0.31-0.3l19.32-8.86 0.2 0.54-8.95 4.1 9.23-3.43 0.26 0.56-19.95 7.4zm15.58-9.42c-1.6 0.53-3.26 1.07-5.94 0.85-3.72-0.3-5.3 0.44-6.7 1.1-0.7 0.32-1.3 0.6-2.1 0.72-1.77 0.26-2.83-0.27-3.18-0.62a0.56 0.56 0 0 1-0.13-0.19l0.35 0.1c0.56 0.2 1.4 0.48 2.52 0.12 0.5-0.17 1.04-0.46 1.66-0.8 1.62-0.9 3.82-2.12 7.03-1.83 2.32 0.2 4.16-0.48 6.1-1.2 1.06-0.4 2.14-0.79 3.32-1.04l0.1 0.67c-3.55 0.73-5.67 2.65-9.43 2.19 3.06 1.04 5.53-1.03 9.57-1.45l0.14 0.58c-1.24 0.12-2.25 0.46-3.3 0.8zm-18.42-4.53s-0.12 0-0.25-0.04c-0.13-0.05-0.13-0.1-0.13-0.12 0-0.13 0.33-0.16 0.4-0.16l21.24-0.8a14 14 0 0 0-0.02 0.58l-9.84 0.36 9.83 0.36 0.03 0.62-21.26-0.8zm18-2.74c-1.68-0.13-3.42-0.26-5.81-1.49-3.32-1.7-5.07-1.62-6.6-1.55-0.78 0.03-1.44 0.06-2.23-0.14-1.74-0.44-2.51-1.33-2.7-1.79a0.58 0.58 0 0 1-0.05-0.22c0.08 0.05 0.2 0.15 0.29 0.23 0.44 0.39 1.1 0.97 2.28 1.06 0.52 0.04 1.14-0.03 1.85-0.1 1.83-0.21 4.34-0.5 7.18 1 2.07 1.08 4.03 1.15 6.1 1.23 1.13 0.04 2.27 0.09 3.46 0.3l-0.16 0.66c-3.55-0.68-6.25 0.28-9.55-1.58 2.44 2.13 5.5 1.16 9.4 2.33l-0.1 0.58a14.8 14.8 0 0 0-3.35-0.52zm-15.28-11.24c-0.05-0.02-0.35-0.18-0.3-0.3 0.05-0.11 0.37-0.02 0.43 0.01l19.94 7.4-0.25 0.52-9.22-3.43 8.95 4.1-0.22 0.57-19.33-8.87zm17.68 4.35a13.5 13.5 0 0 1-4.8-3.6c-2.42-2.83-4.06-3.43-5.51-3.96a7.12 7.12 0 0 1-2-0.97c-1.44-1.07-1.81-2.2-1.8-2.69 0-0.11 0.01-0.19 0.03-0.22 0.05 0.07 0.12 0.21 0.17 0.32 0.26 0.53 0.66 1.32 1.7 1.86 0.47 0.23 1.07 0.4 1.75 0.6 1.77 0.51 4.2 1.21 6.26 3.68 1.5 1.8 3.28 2.6 5.16 3.47 1.03 0.47 2.07 0.95 3.09 1.61l-0.4 0.54c-3.03-1.99-5.89-2.13-8.23-5.11 1.44 2.9 4.65 3.17 7.8 5.75l-0.31 0.5c-0.96-0.79-1.92-1.27-2.9-1.78zm-9.82-16.22s-0.09-0.1-0.15-0.2c-0.06-0.14-0.03-0.18-0.01-0.2 0.1-0.08 0.35 0.13 0.4 0.18l15.59 14.46a16 16 0 0 0-0.43 0.4l-7.21-6.71 6.7 7.21-0.42 0.46-14.47-15.6zm14.67 10.79c-1.1-1.29-2.24-2.61-3.06-5.17-1.15-3.54-2.44-4.73-3.58-5.77-0.56-0.52-1.05-0.97-1.47-1.67-0.92-1.53-0.84-2.71-0.64-3.17a0.6 0.6 0 0 1 0.12-0.2l0.04 0.37c0.04 0.59 0.1 1.48 0.86 2.37 0.34 0.4 0.82 0.78 1.38 1.23 1.44 1.15 3.42 2.72 4.37 5.8 0.7 2.22 2.04 3.66 3.45 5.18 0.76 0.82 1.54 1.67 2.23 2.66l-0.58 0.35c-2.03-3-4.62-4.22-5.64-7.88 0.22 3.24 3.08 4.72 5 8.3l-0.47 0.35a14.78 14.78 0 0 0-2.01-2.75zm-2.86-18.76s-0.05-0.12-0.06-0.24c-0.01-0.15 0.03-0.17 0.06-0.18 0.12-0.05 0.27 0.25 0.3 0.31l8.86 19.32-0.54 0.2-4.1-8.95 3.43 9.23-0.56 0.26-7.4-19.95zm9.42 15.58a13.38 13.38 0 0 1-0.85-5.94c0.3-3.71-0.44-5.3-1.1-6.7-0.32-0.7-0.6-1.3-0.72-2.1-0.26-1.77 0.27-2.83 0.62-3.18a0.58 0.58 0 0 1 0.19-0.13l-0.1 0.35c-0.2 0.56-0.48 1.4-0.12 2.52 0.17 0.5 0.46 1.04 0.8 1.66 0.9 1.62 2.12 3.83 1.83 7.03-0.2 2.32 0.48 4.16 1.2 6.1 0.4 1.06 0.79 2.14 1.04 3.32l-0.67 0.1c-0.73-3.55-2.65-5.67-2.19-9.43-1.04 3.07 1.03 5.53 1.45 9.57l-0.58 0.14c-0.12-1.24-0.46-2.25-0.8-3.3zm4.53-18.41s0-0.13 0.04-0.25c0.05-0.14 0.1-0.12 0.12-0.14 0.13 0 0.16 0.33 0.16 0.4l0.8 21.24-0.58-0.02-0.36-9.84-0.36 9.84c-0.2 0-0.41 0-0.62 0.02l0.8-21.25zm2.74 18c0.13-1.69 0.27-3.43 1.49-5.82 1.7-3.32 1.62-5.07 1.56-6.6a7.23 7.23 0 0 1 0.13-2.23c0.44-1.74 1.33-2.51 1.79-2.7 0.1-0.04 0.18-0.04 0.22-0.04l-0.23 0.28c-0.39 0.44-0.97 1.1-1.06 2.28-0.04 0.52 0.03 1.14 0.1 1.85 0.21 1.83 0.5 4.34-1 7.19-1.08 2.06-1.15 4.02-1.23 6.1a23.85 23.85 0 0 1-0.3 3.45l-0.66-0.16c0.68-3.55-0.28-6.25 1.58-9.55-2.13 2.44-1.16 5.5-2.33 9.4l-0.58-0.1c0.36-1.18 0.44-2.25 0.52-3.35zM264.3 91.7c0.02-0.05 0.18-0.35 0.3-0.3 0.11 0.05 0.02 0.37-0.01 0.44l-7.4 19.93c-0.16-0.09-0.34-0.17-0.52-0.25l3.43-9.22-4.1 8.95-0.57-0.22 8.87-19.33zm-4.35 17.68c0.76-1.5 1.55-3.06 3.6-4.8 2.83-2.42 3.43-4.06 3.96-5.51 0.26-0.73 0.49-1.35 0.97-2 1.07-1.44 2.2-1.8 2.69-1.8 0.11 0 0.19 0.01 0.22 0.03-0.07 0.05-0.2 0.12-0.32 0.17-0.53 0.26-1.32 0.66-1.86 1.7-0.23 0.47-0.4 1.07-0.6 1.75-0.51 1.77-1.21 4.2-3.68 6.26-1.8 1.5-2.6 3.28-3.47 5.16a23.92 23.92 0 0 1-1.61 3.1c-0.18-0.15-0.36-0.28-0.54-0.41 1.99-3.03 2.13-5.89 5.12-8.23-2.91 1.44-3.18 4.65-5.76 7.8l-0.5-0.3c0.79-0.97 1.27-1.93 1.78-2.92zm16.22-9.82c0.07-0.06 0.23-0.18 0.34-0.18 0.02 0 0.03 0 0.05 0.02 0.1 0.1-0.12 0.35-0.17 0.4l-14.46 15.59-0.4-0.43 6.71-7.21-7.21 6.7-0.46-0.42 15.6-14.47zm-10.77 14.67c1.28-1.1 2.6-2.24 5.16-3.06 3.54-1.15 4.73-2.44 5.77-3.57a7.2 7.2 0 0 1 1.67-1.48c1.53-0.92 2.71-0.84 3.17-0.64 0.1 0.05 0.16 0.1 0.19 0.12l-0.36 0.04c-0.59 0.04-1.48 0.1-2.37 0.86-0.4 0.34-0.78 0.82-1.23 1.38-1.15 1.44-2.72 3.42-5.8 4.38-2.22 0.7-3.66 2.03-5.18 3.44-0.82 0.76-1.67 1.54-2.66 2.23l-0.35-0.58c3-2.03 4.22-4.62 7.88-5.63-3.24 0.2-4.72 3.07-8.3 5a15.1 15.1 0 0 0-0.35-0.48c1.1-0.59 1.91-1.29 2.76-2zm18.75-2.86c0.08-0.04 0.28-0.09 0.38-0.05l0.04 0.05c0.05 0.11-0.25 0.27-0.31 0.3l-19.32 8.87a14.9 14.9 0 0 0-0.2-0.55l8.95-4.1-9.23 3.43-0.26-0.56 19.95-7.4zm-15.58 9.42a13.5 13.5 0 0 1 5.94-0.85c3.7 0.3 5.3-0.44 6.7-1.1 0.7-0.32 1.3-0.6 2.1-0.72 1.78-0.26 2.83 0.27 3.18 0.62 0.08 0.09 0.11 0.15 0.13 0.2a3.43 3.43 0 0 1-0.35-0.12 3.67 3.67 0 0 0-2.52-0.1c-0.5 0.16-1.04 0.45-1.66 0.8-1.62 0.9-3.83 2.11-7.03 1.82-2.33-0.2-4.16 0.48-6.1 1.2-1.06 0.4-2.14 0.79-3.32 1.04l-0.1-0.67c3.55-0.73 5.67-2.65 9.43-2.19-3.07-1.04-5.53 1.03-9.57 1.45l-0.14-0.58c1.24-0.12 2.25-0.45 3.3-0.8zm18.85 4a1.36 1.36 0 0 0-0.42-0.06l-20.41-0.77c0.9-0.25 1.74-0.55 2.56-0.86 1.88-0.7 3.65-1.36 5.85-1.16 3.38 0.3 5.68-0.97 7.37-1.9 0.6-0.33 1.11-0.62 1.56-0.76 0.93-0.3 1.63-0.07 2.14 0.1 0.38 0.14 0.86 0.3 1.08-0.15 0.07-0.13 0.14-0.4-0.12-0.75-0.48-0.66-1.88-1.23-3.82-0.95-0.88 0.13-1.55 0.45-2.26 0.78-1.34 0.62-2.85 1.32-6.4 1.03-2.8-0.22-4.52 0.34-6.18 0.89-0.95 0.3-1.87 0.61-2.97 0.74l19.09-8.76c0.02 0 0.2-0.09 0.37-0.23 0.28-0.24 0.37-0.55 0.25-0.84a0.66 0.66 0 0 0-0.36-0.37c-0.36-0.14-0.8 0.03-0.83 0.04l-19.13 7.1c0.73-0.57 1.38-1.18 2.03-1.78 1.47-1.36 2.86-2.65 4.96-3.3 3.24-1.02 4.88-3.08 6.08-4.58 0.42-0.53 0.8-1 1.15-1.3 0.74-0.64 1.48-0.68 2.02-0.72 0.4-0.02 0.91-0.06 0.94-0.56 0-0.14-0.03-0.42-0.4-0.65-0.7-0.42-2.21-0.41-3.89 0.59-0.77 0.46-1.27 1-1.8 1.58-1 1.09-2.12 2.32-5.52 3.41a14 14 0 0 0-5.36 3.18c-0.76 0.65-1.5 1.28-2.46 1.83l14.28-15.4c0.33-0.34 0.53-0.86 0.16-1.23a0.66 0.66 0 0 0-0.47-0.2c-0.39 0-0.72 0.32-0.75 0.35l-14.96 13.88c0.46-0.8 0.83-1.62 1.2-2.42 0.83-1.82 1.62-3.54 3.31-4.95 2.6-2.18 3.34-4.7 3.87-6.55 0.19-0.66 0.35-1.23 0.57-1.65 0.44-0.87 1.1-1.2 1.59-1.43 0.36-0.18 0.82-0.4 0.65-0.88-0.04-0.14-0.19-0.38-0.62-0.45-0.8-0.12-2.2 0.46-3.36 2.03-0.54 0.72-0.8 1.42-1.06 2.15-0.5 1.39-1.07 2.95-3.8 5.27-2.13 1.81-2.95 3.43-3.74 4.98-0.45 0.9-0.89 1.76-1.57 2.63l7.3-19.69c0.19-0.43 0.16-1-0.32-1.2a0.66 0.66 0 0 0-0.51 0c-0.36 0.15-0.54 0.58-0.56 0.61l-8.5 18.55c0.1-0.92 0.14-1.81 0.17-2.7 0.08-2 0.15-3.89 1.17-5.84 1.57-3 1.28-5.62 1.07-7.53-0.08-0.68-0.15-1.27-0.11-1.73a3.1 3.1 0 0 1 0.92-1.94c0.27-0.3 0.6-0.69 0.27-1.06-0.1-0.11-0.32-0.28-0.74-0.18-0.8 0.2-1.86 1.27-2.34 3.17-0.22 0.87-0.18 1.6-0.15 2.39 0.06 1.47 0.14 3.13-1.5 6.31-1.27 2.5-1.4 4.3-1.54 6.04-0.07 1-0.15 1.97-0.44 3.03l-0.8-20.98c0-0.48-0.23-0.99-0.75-0.99-0.32 0-0.57 0.2-0.68 0.55-0.07 0.21-0.07 0.41-0.07 0.42l-0.77 20.4c-0.25-0.9-0.56-1.74-0.86-2.56-0.7-1.88-1.36-3.66-1.16-5.85 0.3-3.38-0.97-5.68-1.9-7.37-0.33-0.6-0.62-1.11-0.76-1.56-0.3-0.92-0.07-1.63 0.1-2.14 0.14-0.38 0.3-0.86-0.15-1.08-0.13-0.07-0.4-0.14-0.75 0.12-0.66 0.48-1.23 1.88-0.95 3.82 0.13 0.88 0.44 1.55 0.78 2.26 0.62 1.34 1.32 2.85 1.03 6.4-0.22 2.8 0.34 4.52 0.88 6.18 0.32 0.95 0.62 1.87 0.75 2.97l-8.76-19.1c-0.18-0.43-0.6-0.81-1.07-0.62-0.3 0.13-0.45 0.4-0.42 0.77 0.01 0.22 0.09 0.41 0.1 0.42l7.09 19.13a31.2 31.2 0 0 0-1.78-2.03c-1.36-1.47-2.65-2.86-3.3-4.96-1.02-3.24-3.08-4.88-4.58-6.08-0.53-0.42-1-0.8-1.3-1.15a3.11 3.11 0 0 1-0.72-2.02c-0.02-0.4-0.06-0.91-0.56-0.94-0.14-0.01-0.42 0.03-0.65 0.4-0.42 0.7-0.42 2.21 0.59 3.89 0.46 0.77 1 1.27 1.58 1.8 1.09 1 2.31 2.12 3.41 5.52a14.01 14.01 0 0 0 3.18 5.37c0.65 0.76 1.28 1.5 1.82 2.46l-15.4-14.28c-0.33-0.33-0.85-0.53-1.22-0.16-0.23 0.22-0.26 0.54-0.1 0.87 0.1 0.2 0.24 0.34 0.25 0.35l13.88 14.96c-0.8-0.46-1.62-0.83-2.42-1.2-1.82-0.83-3.54-1.62-4.95-3.31-2.18-2.6-4.7-3.34-6.55-3.87-0.66-0.19-1.23-0.35-1.65-0.57a3.1 3.1 0 0 1-1.43-1.59c-0.18-0.36-0.4-0.82-0.88-0.65-0.14 0.04-0.38 0.19-0.45 0.62-0.12 0.8 0.46 2.2 2.03 3.36 0.72 0.54 1.42 0.8 2.15 1.06 1.38 0.5 2.95 1.07 5.26 3.8a14.01 14.01 0 0 0 5 3.74c0.89 0.45 1.75 0.89 2.62 1.57l-19.69-7.3c-0.44-0.19-1-0.16-1.2 0.32a0.66 0.66 0 0 0 0 0.51c0.15 0.36 0.58 0.54 0.61 0.56l18.55 8.5a35.9 35.9 0 0 0-2.7-0.17c-2-0.08-3.89-0.15-5.84-1.17-3-1.58-5.62-1.28-7.53-1.07-0.68 0.08-1.27 0.15-1.74 0.11-0.97-0.07-1.52-0.56-1.93-0.92-0.3-0.27-0.69-0.6-1.06-0.27-0.11 0.1-0.28 0.32-0.18 0.74 0.2 0.8 1.27 1.86 3.16 2.34a7.8 7.8 0 0 0 2.4 0.15c1.47-0.06 3.13-0.14 6.3 1.5a14 14 0 0 0 6.05 1.54c1 0.07 1.97 0.15 3.03 0.44l-20.98 0.8c-0.48 0-0.99 0.23-0.99 0.75 0 0.32 0.2 0.57 0.55 0.68 0.21 0.07 0.42 0.07 0.42 0.07l20.4 0.77c-0.9 0.25-1.74 0.56-2.56 0.86-1.88 0.7-3.66 1.36-5.85 1.16-3.39-0.3-5.69 0.97-7.37 1.9-0.6 0.33-1.11 0.62-1.56 0.76-0.93 0.3-1.63 0.07-2.14-0.1-0.38-0.14-0.87-0.3-1.08 0.15-0.07 0.13-0.14 0.4 0.12 0.75 0.48 0.66 1.88 1.24 3.81 0.95 0.9-0.13 1.56-0.44 2.27-0.77 1.34-0.63 2.85-1.33 6.4-1.04 2.8 0.22 4.52-0.34 6.18-0.88 0.95-0.32 1.87-0.62 2.97-0.75l-19.09 8.76c-0.43 0.18-0.82 0.6-0.62 1.07 0.12 0.27 0.36 0.43 0.69 0.43h0.08c0.22-0.02 0.41-0.1 0.42-0.1l19.13-7.1c-0.73 0.57-1.39 1.18-2.03 1.78-1.47 1.36-2.86 2.65-4.96 3.3-3.24 1.02-4.88 3.08-6.08 4.58-0.42 0.53-0.8 1-1.15 1.3-0.74 0.64-1.48 0.68-2.02 0.72-0.4 0.02-0.91 0.06-0.94 0.56-0.01 0.14 0.03 0.42 0.4 0.65 0.7 0.42 2.21 0.42 3.89-0.59 0.77-0.46 1.27-1 1.8-1.58 1-1.09 2.12-2.31 5.52-3.41a13.9 13.9 0 0 0 5.36-3.18c0.76-0.65 1.5-1.28 2.46-1.82l-14.28 15.4c-0.34 0.33-0.53 0.85-0.16 1.22 0.13 0.13 0.29 0.2 0.47 0.2a0.9 0.9 0 0 0 0.4-0.1c0.2-0.1 0.34-0.24 0.35-0.25l14.96-13.88c-0.46 0.8-0.83 1.62-1.2 2.42-0.83 1.82-1.62 3.54-3.31 4.95-2.61 2.18-3.34 4.7-3.87 6.55-0.2 0.66-0.35 1.23-0.57 1.65-0.44 0.87-1.1 1.2-1.59 1.43-0.36 0.18-0.82 0.4-0.65 0.88 0.04 0.14 0.19 0.38 0.62 0.45 0.8 0.12 2.2-0.46 3.36-2.03 0.54-0.72 0.8-1.42 1.06-2.15 0.5-1.38 1.07-2.95 3.8-5.26a13.88 13.88 0 0 0 3.73-5c0.46-0.89 0.9-1.75 1.58-2.62l-7.3 19.69c-0.19 0.44-0.16 1 0.32 1.2a0.67 0.67 0 0 0 0.5 0c0.36-0.15 0.55-0.58 0.57-0.61l8.5-18.55c-0.1 0.92-0.14 1.81-0.18 2.7-0.07 2-0.14 3.89-1.16 5.84-1.58 3.01-1.28 5.62-1.07 7.53 0.08 0.68 0.15 1.27 0.1 1.74-0.06 0.97-0.55 1.52-0.91 1.93-0.27 0.3-0.6 0.69-0.27 1.06 0.1 0.11 0.32 0.28 0.74 0.18 0.8-0.2 1.86-1.27 2.34-3.16a7.8 7.8 0 0 0 0.15-2.4c-0.07-1.47-0.14-3.13 1.49-6.3 1.28-2.5 1.42-4.3 1.55-6.05 0.07-1 0.15-1.97 0.44-3.03l0.8 20.99c0 0.47 0.23 0.98 0.75 0.98 0.32 0 0.57-0.2 0.68-0.55 0.07-0.2 0.07-0.41 0.07-0.42l0.77-20.4c0.25 0.9 0.56 1.74 0.86 2.56 0.7 1.88 1.36 3.66 1.16 5.85-0.3 3.38 0.97 5.69 1.9 7.37 0.33 0.6 0.62 1.11 0.76 1.56 0.3 0.93 0.07 1.63-0.1 2.14-0.14 0.38-0.3 0.87 0.15 1.08a0.6 0.6 0 0 0 0.26 0.06c0.14 0 0.3-0.04 0.5-0.18 0.65-0.48 1.22-1.88 0.94-3.81-0.13-0.9-0.45-1.56-0.78-2.27-0.62-1.34-1.32-2.85-1.03-6.4 0.22-2.8-0.34-4.52-0.89-6.18-0.3-0.95-0.61-1.87-0.74-2.97l8.76 19.09c0 0.02 0.08 0.2 0.23 0.37 0.24 0.28 0.55 0.37 0.84 0.25 0.17-0.07 0.3-0.2 0.37-0.36 0.14-0.36-0.03-0.8-0.04-0.83l-7.1-19.13c0.57 0.73 1.18 1.39 1.78 2.03 1.36 1.47 2.65 2.86 3.3 4.96 1.02 3.24 3.08 4.88 4.58 6.08 0.53 0.42 1 0.8 1.3 1.15 0.63 0.74 0.68 1.48 0.72 2.02 0.02 0.4 0.06 0.91 0.56 0.94h0.03c0.15 0 0.4-0.06 0.62-0.4 0.42-0.7 0.42-2.2-0.59-3.89-0.46-0.77-1-1.27-1.58-1.8-1.09-1-2.32-2.12-3.41-5.52a13.9 13.9 0 0 0-3.18-5.36c-0.65-0.76-1.28-1.5-1.82-2.46l15.39 14.28c0.34 0.34 0.86 0.53 1.23 0.16 0.23-0.22 0.26-0.54 0.1-0.87-0.1-0.2-0.25-0.34-0.25-0.35l-13.88-14.96c0.8 0.46 1.62 0.83 2.42 1.2 1.82 0.83 3.54 1.62 4.95 3.31 2.18 2.61 4.7 3.34 6.55 3.87 0.66 0.2 1.23 0.35 1.65 0.57 0.87 0.44 1.2 1.1 1.43 1.59 0.16 0.31 0.34 0.69 0.69 0.69a0.6 0.6 0 0 0 0.19-0.04c0.14-0.04 0.38-0.19 0.45-0.62 0.12-0.8-0.46-2.2-2.03-3.36a7.53 7.53 0 0 0-2.15-1.06c-1.39-0.5-2.95-1.07-5.26-3.8a13.97 13.97 0 0 0-5-3.73c-0.89-0.46-1.75-0.9-2.62-1.58l19.69 7.3c0.44 0.19 1 0.16 1.2-0.32a0.66 0.66 0 0 0 0-0.5c-0.15-0.37-0.58-0.55-0.61-0.57l-18.55-8.5c0.92 0.1 1.81 0.14 2.7 0.18 2 0.07 3.89 0.14 5.84 1.16 3 1.58 5.62 1.28 7.53 1.07 0.68-0.08 1.27-0.15 1.73-0.1 0.98 0.06 1.53 0.55 1.94 0.91 0.22 0.19 0.47 0.41 0.73 0.41a0.5 0.5 0 0 0 0.33-0.14c0.11-0.1 0.28-0.32 0.18-0.74-0.2-0.8-1.27-1.86-3.17-2.34-0.87-0.22-1.6-0.18-2.39-0.15-1.47 0.07-3.13 0.14-6.31-1.49a14 14 0 0 0-6.04-1.55c-1-0.07-1.97-0.15-3.03-0.44l20.98-0.8c0.48 0 0.99-0.23 0.99-0.75 0-0.32-0.2-0.57-0.55-0.68z" id="path_3"/><path fill="#F6B40E" fill-rule="evenodd" d="M255.99 123.64a2.8 2.8 0 0 0 1.52-0.87c-0.1-0.36-0.72-0.72-1.47-0.84a1.03 1.03 0 0 1-0.05 1.7m-5.58 8.26h-0.02c-0.9 0-1.36-0.68-3.36-0.25h0.04c2-0.03 1.4 1.27 3.33 1.27h0.01c1.93 0 1.36-1.3 3.33-1.28-1.97-0.41-2.43 0.26-3.33 0.26m-6.09-9.13c0-0.34 0.17-0.65 0.44-0.84-0.63 0.11-1.23 0.43-1.64 1.08 0.5 0.4 1.14 0.65 1.79 0.7a1.03 1.03 0 0 1-0.6-0.94m10.11 0c0-0.31 0.15-0.6 0.37-0.78a2.3 2.3 0 0 0-1.4 1.02c0.45 0.36 1 0.6 1.57 0.67a1.02 1.02 0 0 1-0.54-0.9" id="path_4"/><path fill="#F6B40E" fill-rule="evenodd" d="M252.01 120.71a4.6 4.6 0 0 0-0.85 1.91c-0.23 1.3 0.18 2.71 1.2 4.15a0.85 0.85 0 0 0-0.46 0.23 8.14 8.14 0 0 1-0.93-5.22c0.08-0.44 0.2-0.88 0.36-1.3 2.51-2.06 5.94-2.29 8.46 1.14-2.63-2.28-5.95-2.63-7.78-0.91m7.1 2.17c-0.23 0.12-1.37-1.6-3.43-1.6-0.7 0-1.38 0-2.06 0.57-0.69 0.58-1.15 0.8-1.38 0.92-0.22 0.11-0.34-0.23-0.22-0.34 0.11-0.12 0.45 0 1.14-0.58 0.69-0.57 1.03-0.91 2.52-0.91 2.28 0 3.66 1.83 3.43 1.94m-6.19 0.12a2.94 2.94 0 0 1 2.56-1.35c1.02 0 2.09 0.43 2.83 1.23-1.71 1.26-4.24 1.15-5.39 0.12m0.47 1.14c-1.14-0.68-1.14-0.91-0.92-0.91 0.23 0 0.46 0.23 1.38 0.68 0.91 0.46 2.28 0.46 4.57-0.45-1.94 1.48-3.89 1.37-5.03 0.68m-2.98 9.12h-0.01c-2.52 0-1.36-1.38-3.77-1.6 0.14-0.02 0.26-0.02 0.38-0.02a7.84 7.84 0 0 1 1.86-0.36c0.75-0.03 1.1 0.14 1.52 0.14h0.02c0.68 0 1.13-0.44 3.36 0.21 0.13 0 0.27 0 0.42 0.02-2.4 0.23-1.26 1.61-3.78 1.61m0 0.46c-0.97 0-1.83 0.68-2.05 1.63a2.06 2.06 0 0 1 4.11 0 2.11 2.11 0 0 0-2.05-1.63m-1.16-3.8c0.23 0 0.68 0.13 1.13 0.36h0.02c0.46-0.23 0.91-0.35 1.14-0.35 1.14 0 1.61 1.04 2.64 1.72-0.57-0.23-1.04-0.68-1.84-1.14-0.8-0.45-1.48 0.1-1.94 0.1h-0.02c-0.45 0-1.13-0.55-1.94-0.1-0.8 0.46-1.25 0.91-1.82 1.14 1.03-0.68 1.48-1.72 2.63-1.72m-6.72-6.47c2.29 0.91 3.66 0.91 4.57 0.45 0.92-0.45 1.15-0.68 1.38-0.68 0.23 0 0.23 0.23-0.92 0.91-1.14 0.69-3.09 0.8-5.03-0.68m5.5-0.58c-0.79 0.58-1.74 0.87-2.66 0.91h-0.04a3.85 3.85 0 0 1-2.69-0.79 2.94 2.94 0 0 1 2.56-1.35c1.02 0 2.09 0.43 2.83 1.23m-2.75-1.94c1.48 0 1.82 0.34 2.51 0.91 0.69 0.58 1.03 0.46 1.15 0.58 0.1 0.11 0 0.45-0.23 0.34-0.23-0.12-0.7-0.34-1.38-0.92-0.68-0.57-1.37-0.57-2.05-0.57-2.06 0-3.2 1.72-3.44 1.6-0.22-0.11 1.15-1.94 3.44-1.94m4.34-0.46c0.16 0.42 0.28 0.86 0.36 1.3 0.3 1.7-0.02 3.48-0.93 5.22a0.85 0.85 0 0 0-0.46-0.23c1.02-1.44 1.43-2.85 1.2-4.15a4.49 4.49 0 0 0-0.85-1.91c-1.83-1.72-5.15-1.37-7.78 0.91 2.52-3.43 5.95-3.2 8.46-1.14m0.85 8a1.7 1.7 0 0 0 1.42-0.91 0.69 0.69 0 1 0 1.37-0.03 0.69 0.69 0 0 0-0.45-0.66 1.03 1.03 0 1 1-1.03 1.6c-0.4 0.3-0.95 0.34-1.24 0.34h-0.14c-0.29 0-0.84-0.03-1.23-0.33-0.2 0.27-0.5 0.43-0.84 0.43a1.03 1.03 0 0 1-0.2-2.04 0.69 0.69 0 0 0-0.45 0.65 0.69 0.69 0 0 0 1.37 0.04c0.11 0.22 0.55 0.88 1.42 0.92m0-17.4a14.38 14.38 0 1 0 0 28.77 14.38 14.38 0 0 0 0-28.76" id="path_5"/><path fill="#F6B40E" fill-rule="evenodd" d="M245.98 123.57c0.46-0.14 0.9-0.4 1.26-0.8-0.1-0.33-0.6-0.65-1.25-0.8a1.02 1.02 0 0 1 0 1.6" id="path_6"/></svg>