<svg id="vector" xmlns="http://www.w3.org/2000/svg" width="24" height="24" viewBox="0 0 512 512"><path fill="#EEEEEE" d="M477.752 384C499.534 346.346 512 302.629 512 256C512 209.371 499.534 165.654 477.752 128L34.2483 128C12.4665 165.654 0 209.371 0 256C0 302.629 12.4665 346.346 34.2482 384L477.752 384Z" id="path_0"/><path fill="#338AF3" d="M255.911 512C154.729 511.965 67.2685 453.23 25.7354 368L486.264 368C444.731 453.23 357.271 511.965 256.089 512C256.059 512 256.03 512 256 512C255.97 512 255.94 512 255.911 512Z" id="path_1"/><path fill="#338AF3" d="M256 0C154.78 0 67.2808 58.7445 25.7354 144L486.264 144C444.719 58.7445 357.22 0 256 0Z" id="path_2"/><path fill="#FFC635" d="M332.515 256L301.25 270.707L317.899 300.986L283.949 294.491L279.647 328.787L256 303.563L232.352 328.787L228.051 294.491L194.101 300.985L210.749 270.706L179.485 256L210.75 241.293L194.101 211.015L228.05 217.509L232.353 183.213L256 208.437L279.648 183.213L283.949 217.509L317.9 211.015L301.251 241.294L332.515 256Z" id="path_3"/></svg>