<svg width="32" height="16" viewBox="0 0 1304 652" fill="none" xmlns="http://www.w3.org/2000/svg">
<g clip-path="url(#clip0_838_1016)">
<path d="M0 0H1304V652H0V0Z" fill="#009440"/>
<path d="M237 326L652 591L1067 326L652 61L237 326Z" fill="#FFCB00"/>
<path d="M652 501C748.65 501 827 422.65 827 326C827 229.35 748.65 151 652 151C555.35 151 477 229.35 477 326C477 422.65 555.35 501 652 501Z" fill="#302681"/>
<mask id="mask0_838_1016" style="mask-type:luminance" maskUnits="userSpaceOnUse" x="477" y="151" width="350" height="350">
<path d="M652 501C748.65 501 827 422.65 827 326C827 229.35 748.65 151 652 151C555.35 151 477 229.35 477 326C477 422.65 555.35 501 652 501Z" fill="white"/>
</mask>
<g mask="url(#mask0_838_1016)">
<path d="M127 676C127 563.283 171.777 455.183 251.48 375.48C331.183 295.777 439.283 251 552 251C664.717 251 772.817 295.777 852.52 375.48C932.223 455.183 977 563.283 977 676H952C952 569.913 909.857 468.172 834.843 393.157C759.828 318.143 658.087 276 552 276C445.913 276 344.172 318.143 269.157 393.157C194.143 468.172 152 569.913 152 676H127Z" fill="white"/>
</g>
<path fill-rule="evenodd" clip-rule="evenodd" d="M502.745 274.846C504.719 274.604 506.506 273.5 507.711 271.777C508.917 270.055 509.443 267.855 509.173 265.661C508.904 263.467 507.861 261.46 506.275 260.08C504.688 258.7 502.688 258.061 500.714 258.304C498.739 258.546 496.953 259.65 495.747 261.373C494.542 263.095 494.016 265.295 494.285 267.489C494.554 269.683 495.597 271.69 497.184 273.07C498.77 274.45 500.77 275.089 502.745 274.846M502.368 271.774C503.527 271.632 504.572 270.947 505.272 269.872C505.972 268.796 506.27 267.417 506.101 266.038C505.932 264.659 505.309 263.393 504.369 262.519C503.43 261.645 502.25 261.234 501.091 261.376C499.931 261.518 498.887 262.203 498.186 263.278C497.486 264.354 497.188 265.733 497.357 267.112C497.527 268.491 498.15 269.756 499.089 270.631C500.029 271.505 501.208 271.916 502.368 271.774" fill="#009440"/>
<path fill-rule="evenodd" clip-rule="evenodd" d="M516.744 273.342L519.745 273.184L519.158 266.904L525.623 266.564C526.97 266.493 528.209 265.865 529.069 264.819C529.928 263.772 530.337 262.392 530.205 260.983C530.073 259.574 529.412 258.25 528.366 257.304C527.32 256.357 525.976 255.866 524.629 255.936L515.394 256.422L516.744 273.342ZM518.865 263.764L525.098 263.436C525.649 263.407 526.156 263.15 526.508 262.722C526.86 262.294 527.027 261.73 526.973 261.153C526.919 260.577 526.648 260.035 526.221 259.648C525.793 259.261 525.243 259.059 524.692 259.088L518.458 259.416L518.865 263.764Z" fill="#009440"/>
<path d="M530.458 272.504C530.231 270.082 529.732 264.753 526.255 264.935L521.851 265.167C526.95 264.899 527.449 270.228 527.676 272.65" fill="#009440"/>
<path fill-rule="evenodd" clip-rule="evenodd" d="M537.448 272.026L545.304 271.889C546.242 271.872 547.167 271.672 548.028 271.297C548.888 270.923 549.666 270.384 550.318 269.709C550.969 269.034 551.481 268.238 551.825 267.365C552.169 266.492 552.338 265.56 552.321 264.622L552.28 262.242C552.263 261.304 552.062 260.378 551.688 259.518C551.314 258.658 550.774 257.88 550.1 257.228C549.425 256.577 548.628 256.064 547.756 255.721C546.883 255.377 545.951 255.208 545.013 255.225L537.157 255.362L537.448 272.026ZM540.489 268.877L545.012 268.798C546.212 268.777 547.354 268.281 548.187 267.418C549.021 266.555 549.477 265.396 549.456 264.196L549.431 262.768C549.41 261.568 548.914 260.426 548.051 259.593C547.188 258.759 546.029 258.303 544.829 258.324L540.306 258.403L540.489 268.877Z" fill="#009440"/>
<path d="M558.61 271.818L573.601 272.342L573.709 269.248L561.573 268.824L561.723 264.541L571.241 264.874L571.34 262.018L561.822 261.686L561.939 258.355L573.36 258.754L573.468 255.66L559.191 255.162L558.61 271.818Z" fill="#009440"/>
<path d="M579.754 272.718L582.601 272.967L583.597 261.582L585.921 273.258L588.53 273.486L592.847 262.391L591.851 273.776L594.697 274.025L596.15 257.422L591.999 257.059L587.682 268.153L585.358 256.478L581.207 256.115L579.754 272.718Z" fill="#009440"/>
<path d="M614.286 276.613L626.605 278.73L627.089 275.914L617.586 274.281L618.231 270.526L625.974 271.857L626.458 269.041L618.715 267.711L619.158 265.129L628.368 266.712L628.852 263.896L616.826 261.83L614.286 276.613Z" fill="#009440"/>
<path fill-rule="evenodd" clip-rule="evenodd" d="M645.934 282.829L648.931 283.604L650.481 277.611L656.935 279.28C658.28 279.628 659.708 279.427 660.905 278.722C662.102 278.017 662.97 276.865 663.318 275.52C663.666 274.175 663.465 272.747 662.76 271.55C662.055 270.353 660.903 269.485 659.558 269.138L650.338 266.753L645.934 282.829ZM651.256 274.614L657.48 276.224C658.03 276.366 658.614 276.284 659.104 275.996C659.594 275.707 659.949 275.236 660.091 274.686C660.233 274.135 660.151 273.551 659.863 273.062C659.574 272.572 659.103 272.217 658.553 272.075L652.329 270.465L651.256 274.614Z" fill="#009440"/>
<path fill-rule="evenodd" clip-rule="evenodd" d="M666.382 289.143L669.105 289.897L671.38 283.674L677.243 285.297C678.465 285.635 679.84 285.405 681.065 284.656C682.29 283.908 683.265 282.703 683.775 281.306C684.286 279.91 684.29 278.436 683.787 277.21C683.284 275.983 682.315 275.104 681.093 274.766L672.716 272.447L666.382 289.143ZM672.517 280.562L678.171 282.127C678.671 282.266 679.233 282.171 679.734 281.865C680.236 281.559 680.634 281.066 680.843 280.495C681.052 279.924 681.054 279.321 680.848 278.819C680.642 278.317 680.246 277.957 679.746 277.819L674.092 276.254L672.517 280.562Z" fill="#009440"/>
<path d="M679.359 292.544C680.242 290.133 682.184 284.829 679.014 283.953L674.998 282.844C679.648 284.128 677.705 289.433 676.822 291.844" fill="#009440"/>
<path fill-rule="evenodd" clip-rule="evenodd" d="M693.543 297.429C695.406 298.125 697.5 297.971 699.365 297C701.23 296.028 702.712 294.32 703.486 292.25C704.26 290.179 704.262 287.917 703.492 285.961C702.722 284.005 701.243 282.514 699.38 281.817C697.516 281.121 695.422 281.275 693.557 282.246C691.693 283.218 690.21 284.926 689.436 286.997C688.662 289.067 688.66 291.329 689.43 293.285C690.2 295.242 691.68 296.732 693.543 297.429M694.627 294.529C695.721 294.939 696.964 294.814 698.081 294.183C699.199 293.552 700.1 292.467 700.587 291.166C701.073 289.864 701.105 288.454 700.676 287.245C700.246 286.035 699.39 285.126 698.296 284.717C697.201 284.308 695.959 284.432 694.841 285.063C693.723 285.694 692.822 286.779 692.335 288.08C691.849 289.382 691.817 290.792 692.247 292.002C692.676 293.211 693.532 294.12 694.627 294.529" fill="#009440"/>
<mask id="mask1_838_1016" style="mask-type:luminance" maskUnits="userSpaceOnUse" x="706" y="287" width="21" height="22">
<path d="M706.283 303.525L714.398 287.08L726.685 291.9L718.57 308.346L706.283 303.525ZM717.875 294.894L716.484 297.713L722.627 300.123L724.019 297.304L717.875 294.894Z" fill="white"/>
</mask>
<g mask="url(#mask1_838_1016)">
<path fill-rule="evenodd" clip-rule="evenodd" d="M712.466 305.907C714.106 306.554 716.102 306.311 718.015 305.231C719.928 304.152 721.601 302.325 722.667 300.151C723.733 297.978 724.103 295.637 723.697 293.643C723.291 291.649 722.142 290.165 720.502 289.519C718.862 288.872 716.866 289.115 714.953 290.194C713.04 291.274 711.367 293.101 710.301 295.274C709.236 297.448 708.865 299.789 709.271 301.783C709.677 303.777 710.826 305.26 712.466 305.907M713.958 302.864C714.922 303.243 716.111 303.065 717.266 302.368C718.42 301.67 719.445 300.511 720.115 299.145C720.785 297.779 721.045 296.318 720.838 295.083C720.63 293.849 719.973 292.942 719.01 292.562C718.047 292.182 716.857 292.361 715.702 293.058C714.548 293.755 713.523 294.915 712.853 296.281C712.183 297.647 711.923 299.108 712.131 300.342C712.338 301.577 712.995 302.484 713.958 302.864" fill="#009440"/>
</g>
<path d="M717.785 298.188L723.363 300.45L722.205 302.887L716.627 300.625L717.785 298.188Z" fill="#009440"/>
<path d="M721.481 299.754L723.363 300.536L719.738 308.345L717.856 307.564L721.481 299.754Z" fill="#009440"/>
<path fill-rule="evenodd" clip-rule="evenodd" d="M725.627 311.795L728.187 313.002L731.327 307.149L736.841 309.748C737.99 310.29 739.371 310.288 740.682 309.742C741.993 309.196 743.125 308.151 743.83 306.838C744.535 305.524 744.754 304.049 744.44 302.737C744.126 301.425 743.304 300.384 742.155 299.842L734.279 296.128L725.627 311.795ZM732.897 304.222L738.214 306.729C738.684 306.95 739.249 306.949 739.786 306.726C740.322 306.503 740.785 306.075 741.073 305.538C741.362 305 741.451 304.397 741.323 303.86C741.194 303.324 740.858 302.898 740.388 302.676L735.072 300.169L732.897 304.222Z" fill="#009440"/>
<path d="M737.808 317.272C739.026 315.006 741.704 310.02 738.727 308.618L734.956 306.842C739.323 308.898 736.644 313.884 735.427 316.151" fill="#009440"/>
<path d="M744.494 320.538L757.549 327.925L759.074 325.231L748.505 319.251L750.615 315.521L758.905 320.211L760.311 317.724L752.022 313.034L753.664 310.133L763.611 315.761L765.135 313.067L752.701 306.032L744.494 320.538Z" fill="#009440"/>
<path d="M768.81 328.697C767.915 330.103 768.823 331.669 770.831 332.948C772.839 334.228 774.206 334.181 774.784 333.279C776.607 330.418 766.068 326.244 769.316 321.256C772.117 316.971 776.909 320.306 778.716 321.457C780.523 322.608 783.425 325.586 781.168 329.018L778.106 327.067C779.065 325.561 778.012 324.114 776.405 323.09C774.849 322.099 773.585 321.646 772.657 323.102C771.104 325.43 781.433 329.822 778.266 334.792C775.932 338.457 771.869 336.857 769.159 335.13C766.849 333.659 763.399 330.19 765.648 326.682L768.81 328.697Z" fill="#009440"/>
<path d="M786.69 340.52C785.722 341.877 786.546 343.488 788.485 344.871C790.423 346.254 791.791 346.279 792.415 345.408C794.386 342.646 784.079 337.927 787.584 333.115C790.606 328.982 795.216 332.564 796.961 333.808C798.705 335.052 801.448 338.178 799.014 341.487L796.058 339.379C797.095 337.925 796.118 336.424 794.568 335.318C793.065 334.247 791.826 333.728 790.824 335.134C789.151 337.377 799.236 342.304 795.814 347.101C793.291 350.639 789.318 348.828 786.701 346.962C784.472 345.372 781.208 341.727 783.637 338.342L786.69 340.52Z" fill="#009440"/>
<path fill-rule="evenodd" clip-rule="evenodd" d="M803.6 359.696C805.156 360.934 807.196 361.435 809.27 361.087C811.343 360.74 813.281 359.573 814.657 357.843C816.033 356.114 816.734 353.963 816.606 351.864C816.478 349.766 815.532 347.891 813.975 346.653C812.418 345.414 810.379 344.914 808.305 345.262C806.232 345.609 804.294 346.776 802.918 348.506C801.542 350.235 800.841 352.386 800.969 354.485C801.097 356.583 802.043 358.458 803.6 359.696M805.527 357.274C806.441 358.001 807.661 358.267 808.919 358.012C810.177 357.758 811.37 357.004 812.235 355.917C813.099 354.829 813.566 353.498 813.531 352.215C813.496 350.932 812.962 349.802 812.048 349.075C811.134 348.348 809.914 348.082 808.656 348.337C807.398 348.591 806.205 349.345 805.34 350.432C804.475 351.52 804.009 352.851 804.044 354.134C804.079 355.417 804.612 356.547 805.527 357.274" fill="#009440"/>
<path d="M509.143 287.071L506.825 294.204L510.391 295.363" fill="white"/>
<path d="M509.143 287.071L511.46 294.204L507.894 295.363" fill="white"/>
<path d="M515.959 292.718L508.776 292.254L509.094 295.54" fill="white"/>
<path d="M516.276 292.526L510.521 296.662L508.005 293.356" fill="white"/>
<path d="M502.01 292.525L507.765 296.662L510.282 293.356" fill="white"/>
<path d="M502.327 292.717L509.51 292.253L509.192 295.539" fill="white"/>
<path d="M513.552 300.792L510.999 293.506L507.668 294.512" fill="white"/>
<path d="M513.724 300.639L507.484 296.064L509.516 293.196" fill="white"/>
<path d="M504.562 300.639L510.802 296.064L508.77 293.196" fill="white"/>
<path d="M504.735 300.792L507.288 293.506L510.619 294.512" fill="white"/>
<path d="M524.618 360.643L522.301 367.776L525.867 368.935" fill="white"/>
<path d="M524.618 360.643L526.936 367.776L523.369 368.935" fill="white"/>
<path d="M531.435 366.29L524.252 365.826L524.569 369.112" fill="white"/>
<path d="M531.752 366.098L525.996 370.234L523.48 366.928" fill="white"/>
<path d="M517.485 366.097L523.241 370.233L525.757 366.928" fill="white"/>
<path d="M517.803 366.289L524.985 365.825L524.668 369.111" fill="white"/>
<path d="M529.027 374.363L526.474 367.078L523.143 368.084" fill="white"/>
<path d="M529.199 374.21L522.959 369.635L524.991 366.768" fill="white"/>
<path d="M520.038 374.21L526.278 369.635L524.246 366.768" fill="white"/>
<path d="M520.211 374.363L522.764 367.078L526.095 368.084" fill="white"/>
<path d="M503.189 377.607L501.258 383.551L504.23 384.517" fill="white"/>
<path d="M503.189 377.607L505.121 383.551L502.149 384.517" fill="white"/>
<path d="M508.87 382.312L502.885 381.925L503.149 384.664" fill="white"/>
<path d="M509.135 382.152L504.338 385.599L502.242 382.844" fill="white"/>
<path d="M497.246 382.152L502.043 385.599L504.139 382.844" fill="white"/>
<path d="M497.511 382.312L503.496 381.926L503.232 384.664" fill="white"/>
<path d="M506.863 389.041L504.736 382.969L501.96 383.808" fill="white"/>
<path d="M507.007 388.914L501.807 385.101L503.5 382.712" fill="white"/>
<path d="M499.373 388.913L504.573 385.101L502.88 382.711" fill="white"/>
<path d="M499.517 389.041L501.644 382.969L504.42 383.808" fill="white"/>
<path d="M541.763 353.857L540.659 357.254L542.357 357.805" fill="white"/>
<path d="M541.763 353.857L542.866 357.254L541.168 357.805" fill="white"/>
<path d="M545.008 356.545L541.588 356.324L541.739 357.889" fill="white"/>
<path d="M545.159 356.454L542.419 358.423L541.222 356.85" fill="white"/>
<path d="M538.366 356.454L541.106 358.423L542.304 356.85" fill="white"/>
<path d="M538.518 356.545L541.938 356.324L541.787 357.889" fill="white"/>
<path d="M543.862 360.391L542.647 356.921L541.06 357.4" fill="white"/>
<path d="M543.944 360.318L540.974 358.14L541.94 356.776" fill="white"/>
<path d="M539.581 360.318L542.552 358.14L541.585 356.776" fill="white"/>
<path d="M539.663 360.391L540.879 356.921L542.465 357.4" fill="white"/>
<path d="M561.047 379.274L559.116 385.218L562.088 386.184" fill="white"/>
<path d="M561.047 379.274L562.978 385.218L560.006 386.184" fill="white"/>
<path d="M566.728 383.979L560.742 383.592L561.006 386.331" fill="white"/>
<path d="M566.992 383.819L562.196 387.266L560.099 384.511" fill="white"/>
<path d="M555.104 383.819L559.9 387.266L561.997 384.511" fill="white"/>
<path d="M555.368 383.979L561.354 383.593L561.089 386.331" fill="white"/>
<path d="M564.721 390.708L562.593 384.636L559.817 385.475" fill="white"/>
<path d="M564.864 390.581L559.664 386.768L561.358 384.379" fill="white"/>
<path d="M557.23 390.58L562.43 386.768L560.737 384.378" fill="white"/>
<path d="M557.374 390.708L559.502 384.636L562.277 385.475" fill="white"/>
<path d="M555.81 397.905L554.264 402.66L556.642 403.433" fill="white"/>
<path d="M555.81 397.905L557.355 402.66L554.977 403.433" fill="white"/>
<path d="M560.353 401.669L555.564 401.36L555.776 403.55" fill="white"/>
<path d="M560.564 401.541L556.728 404.298L555.052 402.095" fill="white"/>
<path d="M551.054 401.541L554.89 404.298L556.566 402.095" fill="white"/>
<path d="M551.266 401.669L556.054 401.36L555.842 403.55" fill="white"/>
<path d="M558.748 407.052L557.046 402.195L554.825 402.865" fill="white"/>
<path d="M558.862 406.95L554.702 403.9L556.057 401.988" fill="white"/>
<path d="M552.755 406.95L556.915 403.9L555.56 401.988" fill="white"/>
<path d="M552.869 407.052L554.571 402.195L556.792 402.865" fill="white"/>
<path d="M706.285 264.214L703.968 271.347L707.534 272.506" fill="white"/>
<path d="M706.285 264.214L708.603 271.347L705.036 272.506" fill="white"/>
<path d="M713.102 269.861L705.919 269.397L706.236 272.683" fill="white"/>
<path d="M713.419 269.669L707.663 273.805L705.147 270.499" fill="white"/>
<path d="M699.152 269.668L704.908 273.805L707.424 270.499" fill="white"/>
<path d="M699.47 269.86L706.652 269.396L706.335 272.683" fill="white"/>
<path d="M710.694 277.935L708.141 270.649L704.81 271.655" fill="white"/>
<path d="M710.866 277.782L704.626 273.207L706.658 270.34" fill="white"/>
<path d="M701.705 277.782L707.945 273.207L705.913 270.34" fill="white"/>
<path d="M701.878 277.935L704.431 270.649L707.762 271.655" fill="white"/>
<path d="M774.618 379.929L772.301 387.062L775.867 388.22" fill="white"/>
<path d="M774.618 379.929L776.936 387.062L773.369 388.22" fill="white"/>
<path d="M781.435 385.575L774.252 385.111L774.569 388.397" fill="white"/>
<path d="M781.752 385.383L775.996 389.52L773.48 386.214" fill="white"/>
<path d="M767.485 385.383L773.241 389.519L775.757 386.213" fill="white"/>
<path d="M767.803 385.575L774.985 385.111L774.668 388.397" fill="white"/>
<path d="M779.027 393.649L776.474 386.363L773.143 387.369" fill="white"/>
<path d="M779.199 393.496L772.959 388.921L774.991 386.054" fill="white"/>
<path d="M770.038 393.496L776.278 388.921L774.246 386.054" fill="white"/>
<path d="M770.211 393.649L772.764 386.363L776.095 387.369" fill="white"/>
<path d="M798.906 384.095L797.361 388.85L799.739 389.623" fill="white"/>
<path d="M798.906 384.095L800.451 388.85L798.074 389.623" fill="white"/>
<path d="M803.449 387.859L798.661 387.55L798.872 389.741" fill="white"/>
<path d="M803.661 387.731L799.825 390.488L798.148 388.286" fill="white"/>
<path d="M794.15 387.731L797.987 390.488L799.663 388.286" fill="white"/>
<path d="M794.362 387.859L799.151 387.55L798.939 389.741" fill="white"/>
<path d="M801.845 393.242L800.143 388.385L797.922 389.056" fill="white"/>
<path d="M801.959 393.14L797.799 390.09L799.154 388.179" fill="white"/>
<path d="M795.852 393.14L800.011 390.09L798.657 388.179" fill="white"/>
<path d="M795.966 393.242L797.668 388.385L799.889 389.056" fill="white"/>
<path d="M781.761 396.655L779.829 402.599L782.801 403.565" fill="white"/>
<path d="M781.761 396.655L783.692 402.599L780.72 403.565" fill="white"/>
<path d="M787.441 401.36L781.456 400.973L781.72 403.712" fill="white"/>
<path d="M787.706 401.2L782.91 404.647L780.813 401.892" fill="white"/>
<path d="M775.817 401.2L780.614 404.647L782.711 401.892" fill="white"/>
<path d="M776.082 401.36L782.068 400.974L781.803 403.712" fill="white"/>
<path d="M785.435 408.088L783.307 402.017L780.531 402.855" fill="white"/>
<path d="M785.578 407.961L780.378 404.149L782.072 401.76" fill="white"/>
<path d="M777.944 407.961L783.144 404.148L781.451 401.759" fill="white"/>
<path d="M778.088 408.088L780.215 402.017L782.991 402.855" fill="white"/>
<path d="M739.618 433.321L737.687 439.265L740.659 440.231" fill="white"/>
<path d="M739.618 433.321L741.55 439.265L738.577 440.231" fill="white"/>
<path d="M745.299 438.026L739.313 437.64L739.578 440.378" fill="white"/>
<path d="M745.563 437.867L740.767 441.314L738.67 438.559" fill="white"/>
<path d="M733.675 437.867L738.471 441.314L740.568 438.559" fill="white"/>
<path d="M733.939 438.027L739.925 437.64L739.661 440.379" fill="white"/>
<path d="M743.292 444.755L741.165 438.684L738.389 439.522" fill="white"/>
<path d="M743.436 444.628L738.236 440.815L739.929 438.426" fill="white"/>
<path d="M735.802 444.627L741.002 440.815L739.308 438.426" fill="white"/>
<path d="M735.945 444.755L738.073 438.684L740.849 439.522" fill="white"/>
<path d="M739.381 452.19L737.836 456.946L740.213 457.718" fill="white"/>
<path d="M739.381 452.19L740.926 456.946L738.548 457.718" fill="white"/>
<path d="M743.924 455.955L739.135 455.645L739.347 457.836" fill="white"/>
<path d="M744.136 455.827L740.299 458.584L738.623 456.381" fill="white"/>
<path d="M734.625 455.827L738.461 458.584L740.138 456.381" fill="white"/>
<path d="M734.837 455.955L739.625 455.645L739.414 457.836" fill="white"/>
<path d="M742.319 461.337L740.617 456.48L738.397 457.151" fill="white"/>
<path d="M742.434 461.235L738.274 458.185L739.628 456.274" fill="white"/>
<path d="M736.326 461.235L740.486 458.185L739.131 456.274" fill="white"/>
<path d="M736.44 461.337L738.142 456.48L740.363 457.151" fill="white"/>
<path d="M757.001 420.762L755.456 425.517L757.834 426.29" fill="white"/>
<path d="M757.001 420.762L758.546 425.517L756.168 426.29" fill="white"/>
<path d="M761.544 424.526L756.756 424.217L756.967 426.407" fill="white"/>
<path d="M761.756 424.398L757.92 427.155L756.243 424.952" fill="white"/>
<path d="M752.245 424.398L756.081 427.155L757.758 424.952" fill="white"/>
<path d="M752.457 424.526L757.245 424.217L757.034 426.407" fill="white"/>
<path d="M759.939 429.909L758.237 425.052L756.017 425.722" fill="white"/>
<path d="M760.054 429.807L755.894 426.757L757.248 424.845" fill="white"/>
<path d="M753.946 429.807L758.106 426.757L756.752 424.845" fill="white"/>
<path d="M754.061 429.909L755.763 425.052L757.983 425.722" fill="white"/>
<path d="M771.047 410.702L769.116 416.646L772.088 417.612" fill="white"/>
<path d="M771.047 410.702L772.978 416.646L770.006 417.612" fill="white"/>
<path d="M776.728 415.407L770.742 415.021L771.006 417.759" fill="white"/>
<path d="M776.992 415.248L772.196 418.694L770.099 415.94" fill="white"/>
<path d="M765.104 415.248L769.9 418.694L771.997 415.94" fill="white"/>
<path d="M765.368 415.408L771.354 415.021L771.089 417.76" fill="white"/>
<path d="M774.721 422.136L772.593 416.064L769.817 416.903" fill="white"/>
<path d="M774.864 422.009L769.664 418.196L771.358 415.807" fill="white"/>
<path d="M767.23 422.008L772.43 418.196L770.737 415.806" fill="white"/>
<path d="M767.374 422.136L769.502 416.064L772.277 416.903" fill="white"/>
<path d="M738.905 417.429L737.36 422.184L739.738 422.957" fill="white"/>
<path d="M738.905 417.429L740.45 422.184L738.073 422.957" fill="white"/>
<path d="M743.448 421.193L738.66 420.884L738.871 423.074" fill="white"/>
<path d="M743.66 421.065L739.824 423.822L738.148 421.619" fill="white"/>
<path d="M734.149 421.065L737.986 423.822L739.662 421.619" fill="white"/>
<path d="M734.361 421.193L739.15 420.884L738.938 423.074" fill="white"/>
<path d="M741.844 426.576L740.142 421.719L737.921 422.389" fill="white"/>
<path d="M741.958 426.474L737.798 423.424L739.153 421.512" fill="white"/>
<path d="M735.851 426.474L740.011 423.424L738.656 421.512" fill="white"/>
<path d="M735.965 426.576L737.667 421.719L739.888 422.389" fill="white"/>
<path d="M585.332 326.893L583.401 332.837L586.373 333.803" fill="white"/>
<path d="M585.332 326.893L587.263 332.837L584.291 333.803" fill="white"/>
<path d="M591.013 331.598L585.027 331.212L585.292 333.95" fill="white"/>
<path d="M591.277 331.438L586.481 334.885L584.384 332.13" fill="white"/>
<path d="M579.389 331.438L584.185 334.885L586.282 332.13" fill="white"/>
<path d="M579.653 331.599L585.639 331.212L585.374 333.95" fill="white"/>
<path d="M589.006 338.327L586.878 332.255L584.102 333.094" fill="white"/>
<path d="M589.149 338.2L583.95 334.387L585.643 331.998" fill="white"/>
<path d="M581.516 338.199L586.716 334.387L585.022 331.997" fill="white"/>
<path d="M581.659 338.327L583.787 332.255L586.563 333.094" fill="white"/>
<path d="M699.619 312.19L698.074 316.946L700.452 317.718" fill="white"/>
<path d="M699.619 312.19L701.164 316.946L698.787 317.718" fill="white"/>
<path d="M704.162 315.955L699.374 315.645L699.585 317.836" fill="white"/>
<path d="M704.374 315.827L700.538 318.584L698.861 316.381" fill="white"/>
<path d="M694.863 315.827L698.7 318.584L700.376 316.381" fill="white"/>
<path d="M695.075 315.955L699.864 315.645L699.652 317.836" fill="white"/>
<path d="M702.558 321.337L700.856 316.48L698.635 317.151" fill="white"/>
<path d="M702.672 321.235L698.512 318.185L699.867 316.274" fill="white"/>
<path d="M696.564 321.235L700.724 318.185L699.37 316.274" fill="white"/>
<path d="M696.679 321.337L698.381 316.48L700.601 317.151" fill="white"/>
<path d="M651.999 397.071L649.681 404.204L653.248 405.363" fill="white"/>
<path d="M651.999 397.071L654.317 404.204L650.75 405.363" fill="white"/>
<path d="M658.815 402.718L651.633 402.254L651.95 405.54" fill="white"/>
<path d="M659.133 402.526L653.377 406.662L650.861 403.356" fill="white"/>
<path d="M644.866 402.525L650.622 406.662L653.138 403.356" fill="white"/>
<path d="M645.184 402.717L652.366 402.253L652.049 405.539" fill="white"/>
<path d="M656.408 410.792L653.855 403.506L650.524 404.512" fill="white"/>
<path d="M656.58 410.639L650.34 406.064L652.372 403.196" fill="white"/>
<path d="M647.419 410.639L653.659 406.064L651.627 403.196" fill="white"/>
<path d="M647.592 410.792L650.145 403.506L653.476 404.512" fill="white"/>
<path d="M672.237 363.56L670.306 369.504L673.278 370.469" fill="white"/>
<path d="M672.237 363.56L674.169 369.504L671.197 370.469" fill="white"/>
<path d="M677.918 368.265L671.932 367.878L672.197 370.616" fill="white"/>
<path d="M678.183 368.105L673.386 371.552L671.289 368.797" fill="white"/>
<path d="M666.294 368.105L671.09 371.552L673.187 368.797" fill="white"/>
<path d="M666.559 368.265L672.544 367.879L672.28 370.617" fill="white"/>
<path d="M675.911 374.993L673.784 368.922L671.008 369.76" fill="white"/>
<path d="M676.055 374.866L670.855 371.054L672.548 368.664" fill="white"/>
<path d="M668.421 374.866L673.621 371.053L671.928 368.664" fill="white"/>
<path d="M668.564 374.993L670.692 368.922L673.468 369.76" fill="white"/>
<path d="M651.999 347.845L650.068 353.789L653.04 354.755" fill="white"/>
<path d="M651.999 347.845L653.93 353.789L650.958 354.755" fill="white"/>
<path d="M657.68 352.55L651.694 352.164L651.959 354.902" fill="white"/>
<path d="M657.944 352.391L653.148 355.838L651.051 353.083" fill="white"/>
<path d="M646.056 352.391L650.852 355.838L652.949 353.083" fill="white"/>
<path d="M646.32 352.551L652.306 352.164L652.041 354.903" fill="white"/>
<path d="M655.673 359.279L653.545 353.207L650.769 354.046" fill="white"/>
<path d="M655.816 359.152L650.617 355.339L652.31 352.95" fill="white"/>
<path d="M648.183 359.151L653.383 355.339L651.689 352.95" fill="white"/>
<path d="M648.326 359.279L650.454 353.207L653.23 354.046" fill="white"/>
<path d="M634.381 364.81L632.836 369.565L635.213 370.337" fill="white"/>
<path d="M634.381 364.81L635.926 369.565L633.548 370.337" fill="white"/>
<path d="M638.924 368.574L634.135 368.264L634.347 370.455" fill="white"/>
<path d="M639.136 368.446L635.299 371.203L633.623 369" fill="white"/>
<path d="M629.625 368.446L633.461 371.203L635.138 369" fill="white"/>
<path d="M629.837 368.574L634.625 368.264L634.414 370.455" fill="white"/>
<path d="M637.319 373.957L635.617 369.099L633.397 369.77" fill="white"/>
<path d="M637.434 373.854L633.274 370.804L634.628 368.893" fill="white"/>
<path d="M631.326 373.854L635.486 370.804L634.131 368.893" fill="white"/>
<path d="M631.44 373.957L633.142 369.099L635.363 369.77" fill="white"/>
<path d="M643.191 378.381L642.088 381.777L643.786 382.329" fill="white"/>
<path d="M643.191 378.381L644.295 381.777L642.597 382.329" fill="white"/>
<path d="M646.437 381.069L643.016 380.848L643.167 382.413" fill="white"/>
<path d="M646.588 380.978L643.848 382.947L642.65 381.374" fill="white"/>
<path d="M639.795 380.978L642.535 382.947L643.733 381.374" fill="white"/>
<path d="M639.946 381.069L643.367 380.848L643.215 382.413" fill="white"/>
<path d="M645.291 384.915L644.075 381.445L642.489 381.924" fill="white"/>
<path d="M645.373 384.842L642.403 382.664L643.369 381.3" fill="white"/>
<path d="M641.01 384.842L643.98 382.664L643.014 381.3" fill="white"/>
<path d="M641.092 384.915L642.308 381.445L643.894 381.924" fill="white"/>
<path d="M704.38 437.607L702.449 443.551L705.421 444.517" fill="white"/>
<path d="M704.38 437.607L706.311 443.551L703.339 444.517" fill="white"/>
<path d="M710.061 442.312L704.075 441.925L704.339 444.664" fill="white"/>
<path d="M710.325 442.152L705.529 445.599L703.432 442.844" fill="white"/>
<path d="M698.437 442.152L703.233 445.599L705.33 442.844" fill="white"/>
<path d="M698.701 442.312L704.687 441.926L704.422 444.664" fill="white"/>
<path d="M708.054 449.041L705.926 442.969L703.15 443.808" fill="white"/>
<path d="M708.197 448.914L702.997 445.101L704.691 442.712" fill="white"/>
<path d="M700.563 448.913L705.763 445.101L704.07 442.711" fill="white"/>
<path d="M700.707 449.041L702.835 442.969L705.61 443.808" fill="white"/>
<path d="M719.381 423.381L717.836 428.136L720.213 428.909" fill="white"/>
<path d="M719.381 423.381L720.926 428.136L718.548 428.909" fill="white"/>
<path d="M723.924 427.145L719.135 426.836L719.347 429.026" fill="white"/>
<path d="M724.136 427.017L720.299 429.774L718.623 427.571" fill="white"/>
<path d="M714.625 427.017L718.461 429.774L720.138 427.571" fill="white"/>
<path d="M714.837 427.145L719.625 426.836L719.414 429.026" fill="white"/>
<path d="M722.319 432.528L720.617 427.671L718.397 428.342" fill="white"/>
<path d="M722.434 432.426L718.274 429.376L719.628 427.464" fill="white"/>
<path d="M716.326 432.426L720.486 429.376L719.131 427.464" fill="white"/>
<path d="M716.44 432.528L718.142 427.671L720.363 428.342" fill="white"/>
<path d="M690.571 419.095L689.026 423.85L691.404 424.623" fill="white"/>
<path d="M690.571 419.095L692.116 423.85L689.739 424.623" fill="white"/>
<path d="M695.114 422.859L690.326 422.55L690.537 424.741" fill="white"/>
<path d="M695.326 422.731L691.49 425.488L689.814 423.286" fill="white"/>
<path d="M685.815 422.731L689.652 425.488L691.328 423.286" fill="white"/>
<path d="M686.027 422.859L690.816 422.55L690.604 424.741" fill="white"/>
<path d="M693.51 428.242L691.808 423.385L689.587 424.056" fill="white"/>
<path d="M693.624 428.14L689.464 425.09L690.819 423.179" fill="white"/>
<path d="M687.517 428.14L691.677 425.09L690.322 423.179" fill="white"/>
<path d="M687.631 428.242L689.333 423.385L691.554 424.056" fill="white"/>
<path d="M581.762 411.357L579.444 418.49L583.011 419.649" fill="white"/>
<path d="M581.762 411.357L584.079 418.49L580.513 419.649" fill="white"/>
<path d="M588.578 417.003L581.395 416.54L581.713 419.826" fill="white"/>
<path d="M588.896 416.812L583.14 420.948L580.624 417.642" fill="white"/>
<path d="M574.629 416.811L580.385 420.947L582.901 417.641" fill="white"/>
<path d="M574.946 417.003L582.129 416.539L581.812 419.825" fill="white"/>
<path d="M586.171 425.077L583.618 417.792L580.287 418.798" fill="white"/>
<path d="M586.343 424.924L580.103 420.349L582.135 417.482" fill="white"/>
<path d="M577.182 424.924L583.422 420.349L581.39 417.482" fill="white"/>
<path d="M577.354 425.077L579.907 417.792L583.239 418.798" fill="white"/>
<path d="M652 460.405L651.227 462.782L652.416 463.169" fill="white"/>
<path d="M652 460.405L652.773 462.782L651.584 463.169" fill="white"/>
<path d="M654.272 462.287L651.876 462.132L651.982 463.227" fill="white"/>
<path d="M654.378 462.223L652.46 463.601L651.622 462.5" fill="white"/>
<path d="M649.623 462.223L651.541 463.602L652.379 462.5" fill="white"/>
<path d="M649.729 462.287L652.125 462.132L652.019 463.228" fill="white"/>
<path d="M653.47 464.978L652.619 462.549L651.508 462.885" fill="white"/>
<path d="M653.527 464.927L651.448 463.403L652.125 462.448" fill="white"/>
<path d="M650.473 464.927L652.552 463.403L651.875 462.448" fill="white"/>
<path d="M650.53 464.978L651.381 462.549L652.492 462.885" fill="white"/>
</g>
<defs>
<clipPath id="clip0_838_1016">
<rect width="1304" height="652" fill="white"/>
</clipPath>
</defs>
</svg>
