<svg id="vector" xmlns="http://www.w3.org/2000/svg" width="32" height="16" viewBox="0 0 32 16"><defs><clipPath id="clip_path_0"><path d="M0,0h32v16h-32z"/></clipPath></defs><g id="g_0"><g clip-path="url(#clip_path_0)"><path fill="#B20000" d="M-0.552,-0.182H49.109V10.688H-0.552V-0.182Z" fill-rule="evenodd"/><path fill="#429F00" d="M-0.552,10.688H49.109V16.182H-0.552V10.688Z" fill-rule="evenodd"/><path fill="#ffffff" d="M-0.552,-0.182H4.948V16.182H-0.552V-0.182Z" fill-rule="evenodd"/><path fill="#B20000" d="M-0.29,0.096H-0.028V0.374H-0.29V0.096ZM0.496,0.096H1.281V0.374H0.496V0.096ZM0.757,-0.182H1.019V0.096H0.757V-0.182ZM2.067,-0.182H2.329V0.096H2.067V-0.182ZM3.114,0.096H3.9V0.374H3.114V0.096ZM3.376,-0.182H3.638V0.096H3.376V-0.182ZM0.234,0.374H0.757V0.649H0.234V0.374ZM1.019,0.374H1.543V0.649H1.019V0.374ZM2.853,0.374H3.376V0.649H2.853V0.374ZM3.638,0.374H4.162V0.649H3.638V0.374ZM-0.028,0.649H0.496V0.927H-0.028V0.649ZM1.281,0.649H1.805V0.927H1.281V0.649ZM2.591,0.649H3.114V0.927H2.591V0.649ZM3.9,0.649H4.424V0.927H3.9V0.649ZM4.424,0.096H4.686V0.374H4.424V0.096ZM-0.29,0.927H0.234V1.205H-0.29V0.927ZM1.543,0.927H2.067V1.205H1.543V0.927ZM4.162,0.927H4.686V1.205H4.162V0.927ZM-0.028,1.758H0.496V2.036H-0.028V1.758ZM0.234,2.036H0.757V2.314H0.234V2.036ZM1.281,1.761H1.805V2.036H1.281V1.761ZM1.019,2.036H1.543V2.314H1.019V2.036ZM0.496,2.314H1.281V2.592H0.496V2.314Z" fill-rule="evenodd"/><path fill="#B20000" d="M0.758,2.592H1.02V2.87H0.758V2.592ZM2.591,1.761H3.115V2.036H2.591V1.761ZM2.853,2.036H3.376V2.314H2.853V2.036ZM3.9,1.761H4.424V2.036H3.9V1.761ZM3.638,2.036H4.162V2.314H3.638V2.036ZM3.115,2.314H3.9V2.592H3.115V2.314ZM3.376,2.592H3.638V2.87H3.376V2.592ZM2.067,2.311H2.329V2.589H2.067V2.311ZM-0.552,2.311H-0.29V2.589H-0.552V2.311ZM4.686,2.311H4.948V2.589H4.686V2.311ZM0.758,3.698H1.02V3.976H0.758V3.698ZM0.496,3.98H1.281V4.254H0.496V3.98ZM0.234,4.254H1.543V4.532H0.234V4.254ZM3.376,3.701H3.638V3.98H3.376V3.701ZM3.115,3.98H3.9V4.254H3.115V3.98ZM2.853,4.254H4.162V4.532H2.853V4.254ZM3.115,5.641H4.424V5.919H3.115V5.641ZM2.591,4.532H4.424V4.81H2.591V4.532ZM-0.028,4.532H1.805V4.81H-0.028V4.532ZM0.234,5.919H1.02V6.198H0.234V5.919ZM-0.028,5.641H1.281V5.919H-0.028V5.641ZM3.638,5.092H4.948V5.37H3.638V5.092ZM3.376,5.923H4.162V6.201H3.376V5.923Z" fill-rule="evenodd"/><path fill="#B20000" d="M0.496,6.197H0.758V6.476H0.496V6.197ZM3.638,6.197H3.9V6.476H3.638V6.197ZM-0.552,5.088H0.758V5.367H-0.552V5.088ZM1.805,5.641H2.591V5.919H1.805V5.641ZM2.067,5.923H2.329V6.201H2.067V5.923ZM1.281,5.092H3.115V5.37H1.281V5.092ZM2.329,0.927H2.853V1.205H2.329V0.927ZM1.805,1.205H2.591V1.483H1.805V1.205ZM1.543,1.483H2.067V1.758H1.543V1.483ZM2.329,1.483H2.853V1.758H2.329V1.483ZM-0.552,1.205H-0.028V1.483H-0.552V1.205ZM-0.29,1.483H0.234V1.758H-0.29V1.483ZM4.424,1.205H4.948V1.48H4.424V1.205ZM4.162,1.48H4.686V1.755H4.162V1.48ZM-0.552,3.973H-0.29V4.251H-0.552V3.973ZM4.686,3.973H4.948V4.251H4.686V3.973ZM1.805,6.194H2.591V6.472H1.805V6.194ZM1.543,6.472H2.067V6.747H1.543V6.472ZM2.329,6.472H2.853V6.747H2.329V6.472ZM1.281,6.747H1.805V7.025H1.281V6.747ZM2.591,6.747H3.115V7.025H2.591V6.747ZM1.02,7.025H1.543V7.303H1.02V7.025ZM2.853,7.025H3.376V7.303H2.853V7.025ZM0.758,7.307H1.281V7.585H0.758V7.307ZM3.115,7.307H3.638V7.585H3.115V7.307ZM0.234,7.585H1.02V7.863H0.234V7.585ZM3.376,7.585H4.162V7.863H3.376V7.585ZM3.9,7.307H4.424V7.585H3.9V7.307ZM4.162,7.028H4.686V7.307H4.162V7.028ZM4.424,6.75H4.948V7.028H4.424V6.75ZM-0.028,7.307H0.496V7.585H-0.028V7.307ZM-0.29,7.028H0.234V7.307H-0.29V7.028ZM-0.552,6.754H-0.028V7.032H-0.552V6.754ZM0.496,7.866H0.758V8.141H0.496V7.866ZM3.638,7.866H3.9V8.141H3.638V7.866ZM2.067,7.035H2.329V7.31H2.067V7.035ZM1.281,7.866H1.543V8.141H1.281V7.866ZM2.853,7.866H3.115V8.141H2.853V7.866ZM2.067,7.866H2.329V8.141H2.067V7.866ZM-0.552,7.866H-0.29V8.141H-0.552L-0.552,7.866ZM4.686,7.866H4.948V8.141H4.686V7.866ZM2.067,3.979H2.329V4.254H2.067V3.979ZM0.758,1.205H1.02V1.483H0.758V1.205ZM3.376,1.205H3.638V1.483H3.376V1.205ZM1.805,3.145H2.591V3.423H1.805V3.145ZM1.281,3.423H2.067V3.701H1.281V3.423ZM1.543,3.701H1.805V3.979H1.543V3.701ZM1.02,3.145H1.543V3.423H1.02V3.145ZM1.281,2.87H2.067V3.145H1.281V2.87ZM1.543,2.592H1.805V2.87H1.543V2.592ZM2.329,2.87H3.115V3.145H2.329V2.87ZM2.591,2.592H2.853V2.87H2.591V2.592ZM2.853,3.145H3.376V3.423H2.853V3.145ZM2.329,3.423H3.115V3.701H2.329V3.423ZM2.591,3.701H2.853V3.979H2.591V3.701ZM3.638,3.145H4.162V3.423H3.638V3.145ZM3.9,2.87H4.686V3.145H3.9V2.87ZM4.424,3.145H4.948V3.423H4.424V3.145ZM3.9,3.423H4.686V3.701H3.9V3.423ZM4.162,3.701H4.424V3.979H4.162V3.701ZM4.162,2.592H4.424V2.87H4.162V2.592ZM-0.552,3.142H-0.028V3.42H-0.552V3.142ZM-0.29,2.867H0.496V3.142H-0.29V2.867ZM0.234,3.142H0.758V3.42H0.234V3.142ZM-0.29,3.42H0.496V3.698H-0.29V3.42Z" fill-rule="evenodd"/><path fill="#B20000" d="M-0.028,3.701H0.234V3.979H-0.028V3.701ZM-0.028,2.592H0.234V2.87H-0.028V2.592ZM-0.29,4.81H0.758V5.089H-0.29V4.81ZM1.02,4.81H2.067V5.089H1.02V4.81ZM2.329,4.81H3.376V5.089H2.329V4.81ZM3.638,4.81H4.686V5.089H3.638V4.81ZM1.543,5.367H2.853V5.641H1.543V5.367ZM-0.29,5.367H1.02V5.641H-0.29V5.367ZM3.376,5.367H4.686V5.641H3.376V5.367ZM4.686,6.476H4.948V6.75H4.686V6.476ZM-0.552,6.476H-0.29V6.75H-0.552V6.476ZM-0.29,15.904H-0.028V15.629H-0.29V15.904ZM0.496,15.904H1.281V15.629H0.496V15.904ZM0.758,16.182H1.02V15.904H0.758V16.182ZM2.067,16.182H2.329V15.904H2.067V16.182ZM3.115,15.904H3.9V15.626H3.115V15.904ZM3.376,16.182H3.638V15.904H3.376V16.182ZM0.234,15.626H0.758V15.351H0.234V15.626ZM1.02,15.626H1.543V15.351H1.02V15.626ZM2.853,15.626H3.376V15.351H2.853V15.626ZM3.638,15.626H4.162V15.351H3.638V15.626ZM1.281,15.351H1.805V15.073H1.281V15.351ZM2.591,15.351H3.115V15.073H2.591V15.351ZM3.9,15.351H4.424V15.073H3.9V15.351ZM4.424,15.904H4.686V15.626H4.424V15.904ZM-0.29,15.073H0.234V14.795H-0.29V15.073ZM1.543,15.073H2.067V14.795H1.543V15.073ZM4.162,15.073H4.686V14.795H4.162V15.073ZM-0.028,14.242H0.496V13.964H-0.028V14.242ZM0.234,13.964H0.758V13.686H0.234V13.964ZM1.281,14.242H1.805V13.964H1.281V14.242ZM1.02,13.964H1.543V13.686H1.02V13.964ZM0.496,13.686H1.281V13.408H0.496V13.686ZM0.758,13.408H1.02V13.133H0.758V13.408ZM2.591,14.239H3.115V13.964H2.591V14.239ZM2.853,13.964H3.376V13.686H2.853V13.964ZM3.9,14.242H4.424V13.964H3.9V14.242ZM3.638,13.964H4.162V13.686H3.638V13.964ZM3.115,13.686H3.9V13.408H3.115V13.686ZM3.376,13.408H3.638V13.133H3.376V13.408ZM2.067,13.689H2.329V13.411H2.067V13.689ZM-0.552,13.689H-0.29V13.411H-0.552V13.689ZM4.686,13.689H4.948V13.411H4.686V13.689ZM0.758,12.302H1.02V12.024H0.758V12.302ZM0.496,12.021H1.281V11.746H0.496V12.021ZM0.234,11.746H1.543V11.468H0.234V11.746ZM3.376,12.299H3.638V12.021H3.376V12.299Z" fill-rule="evenodd"/><path fill="#B20000" d="M3.115,12.021H3.9V11.746H3.115V12.021ZM2.853,11.746H4.162V11.468H2.853V11.746ZM3.115,10.359H4.424V10.077H3.115V10.359ZM2.591,11.468H4.424V11.19H2.591V11.468ZM-0.028,11.468H1.805V11.19H-0.028V11.468ZM0.234,10.081H1.02V9.803H0.234V10.081ZM-0.028,10.359H1.281V10.077H-0.028V10.359ZM3.638,10.908H4.948V10.63H3.638V10.908ZM3.376,10.077H4.162V9.799H3.376V10.077ZM-0.552,10.908H0.758V10.63H-0.552V10.908ZM1.805,10.356H2.591V10.077H1.805V10.356ZM2.067,10.077H2.329V9.799H2.067V10.077ZM1.281,10.908H3.115V10.63H1.281V10.908ZM2.329,15.07H2.853V14.792H2.329V15.07ZM1.805,14.792H2.591V14.52H1.805V14.792ZM1.543,14.514H2.067V14.235H1.543V14.514ZM2.329,14.514H2.853V14.235H2.329V14.514ZM-0.552,14.795H-0.028V14.52H-0.552V14.795ZM-0.29,14.517H0.234V14.242H-0.29V14.517ZM4.424,14.795H4.948V14.52H4.424V14.795ZM4.162,14.517H4.686V14.242H4.162V14.517ZM-0.552,12.027H-0.29V11.749H-0.552V12.027ZM4.686,12.027H4.948V11.749H4.686V12.027ZM1.543,9.528H2.067V9.253H1.543V9.528ZM2.329,9.528H2.853V9.253H2.329V9.528ZM1.281,9.253H1.805V8.975H1.281V9.253ZM2.591,9.253H3.115V8.975H2.591V9.253ZM1.02,8.975H1.543V8.697H1.02V8.975ZM2.853,8.975H3.376V8.697H2.853V8.975ZM0.758,8.694H1.281V8.415H0.758V8.694ZM3.115,8.694H3.638V8.415H3.115V8.694ZM0.234,8.415H1.02V8.137H0.234V8.415ZM3.376,8.415H4.162V8.137H3.376V8.415ZM3.9,8.694H4.424V8.415H3.9V8.694ZM4.162,8.972H4.686V8.694H4.162V8.972ZM4.424,9.25H4.948V8.972H4.424V9.25ZM-0.028,8.694H0.496V8.415H-0.028V8.694ZM-0.29,8.972H0.234V8.694H-0.29V8.972ZM-0.552,9.246H-0.028V8.968H-0.552V9.246ZM0.496,8.134H0.758V7.859H0.496V8.134ZM2.067,8.965H2.329V8.69H2.067V8.965ZM2.067,12.017H2.329V11.743H2.067V12.017ZM0.758,14.792H1.02V14.52H0.758V14.792ZM3.376,14.792H3.638V14.52H3.376V14.792ZM1.805,12.858H2.591V12.58H1.805V12.858ZM1.281,12.58H2.067V12.302H1.281V12.58ZM1.543,12.302H1.805V12.024H1.543V12.302ZM1.02,12.858H1.543V12.58H1.02V12.858ZM1.281,13.13H2.067V12.858H1.281V13.13ZM1.543,13.408H1.805V13.133H1.543V13.408ZM2.329,13.13H3.115V12.858H2.329V13.13ZM2.591,13.408H2.853V13.133H2.591V13.408ZM2.853,12.855H3.376V12.577H2.853V12.855ZM2.329,12.577H3.115V12.299H2.329V12.577ZM2.591,12.299H2.853V12.021H2.591V12.299ZM3.638,12.858H4.162V12.58H3.638V12.858ZM3.9,13.13H4.686V12.858H3.9V13.13ZM4.424,12.855H4.948V12.577H4.424V12.855ZM3.9,12.577H4.686V12.299H3.9V12.577ZM4.162,12.299H4.424V12.021H4.162V12.299ZM4.162,13.408H4.424V13.133H4.162V13.408ZM-0.552,12.858H-0.028V12.58H-0.552V12.858ZM-0.29,13.13H0.496V12.858H-0.29V13.13Z" fill-rule="evenodd"/><path fill="#B20000" d="M0.234,12.855H0.758V12.577H0.234V12.855ZM-0.29,12.577H0.496V12.299H-0.29V12.577ZM-0.028,12.299H0.234V12.021H-0.028V12.299ZM-0.028,13.408H0.234V13.133H-0.028V13.408ZM-0.29,11.19H0.758V10.912H-0.29V11.19ZM1.02,11.19H2.067V10.912H1.02V11.19ZM2.329,11.19H3.376V10.912H2.329V11.19ZM3.638,11.19H4.686V10.912H3.638V11.19ZM1.543,10.634H2.853V10.359H1.543V10.634ZM-0.29,10.634H1.02V10.359H-0.29V10.634ZM3.376,10.634H4.686V10.359H3.376V10.634ZM4.686,9.528H4.948V9.247H4.686V9.528ZM-0.552,9.528H-0.29V9.247H-0.552V9.528ZM1.805,8.138H2.067V8.416H1.805V8.138ZM2.329,8.138H2.591V8.416H2.329V8.138ZM2.329,7.585H2.591V7.863H2.329V7.585ZM1.805,7.585H2.067V7.863H1.805V7.585ZM-0.028,15.073H0.496V15.351H-0.028V15.073ZM3.638,9.803H3.9V9.525H3.638V9.803ZM0.496,9.803H0.758V9.525H0.496V9.803ZM1.805,9.525H2.591V9.803H1.805V9.525Z" fill-rule="evenodd"/></g></g></svg>