<svg id="vector" xmlns="http://www.w3.org/2000/svg" width="24" height="24" viewBox="0 0 512 512"><path fill="#D80027" d="M256 512C397.217 512 511.727 397.658 512 256.505V256L256 224L0.000488281 256C0.000488281 397.385 114.616 512 256 512Z" id="path_0"/><path fill="#EEEEEE" d="M512 255.495V256H0.000488281C0.000488281 114.615 114.616 0 256 0C397.217 0 511.727 114.342 512 255.495Z" id="path_1"/><path fill="#0052B4" d="M0 245.585C5.46421 109.029 117.896 0 255.792 0C255.861 0 255.931 0.0000275698 256 0.000082699V256H0V245.585Z" id="path_2"/><path fill="#EEEEEE" d="M144 70.0801L160.596 121.158H214.302L170.853 152.725L187.449 203.803L144 172.235L100.551 203.803L117.147 152.725L73.698 121.158H127.404L144 70.0801Z" id="path_3"/></svg>