<svg id="vector" xmlns="http://www.w3.org/2000/svg" width="24" height="24" viewBox="0 0 512 512"><path fill="#0052B4" d="M512 256A256 256 0 0 1 0 256A256 256 0 0 1 512 256Z" id="path_0"/><path fill="#EEEEEE" d="M441.904 432C485.352 386.123 512 324.173 512 256C512 187.827 485.352 125.877 441.904 80H70.096C26.648 125.877 0 187.827 0 256C0 324.173 26.648 386.123 70.096 432H441.904Z" fill-rule="evenodd" id="path_1"/><path fill="#D80027" d="M496.474 344C506.518 316.56 512 286.92 512 256C512 225.08 506.518 195.44 496.474 168H15.5262C5.48166 195.44 0 225.08 0 256C0 286.92 5.48166 316.56 15.5262 344H496.474Z" fill-rule="evenodd" id="path_2"/></svg>