<svg id="vector" xmlns="http://www.w3.org/2000/svg" width="24" height="24" viewBox="0 0 512 512"><path fill="#496E2D" d="M-0.0000111901 256C-0.0000173629 397.217 114.342 511.727 255.495 512L256 512L288 256L256 0.000486882C114.615 0.000480702 -0.00000500999 114.616 -0.0000111901 256Z" id="path_0"/><path fill="#EEEEEE" d="M256.505 512L256 512L256 0.000477091C397.385 0.000483271 512 114.616 512 256C512 397.217 397.658 511.727 256.505 512Z" id="path_1"/><path fill="#D80027" d="M311.003 206.896L289.999 235.841L255.982 224.809L277.02 253.729L256.018 282.674L290.022 271.603L311.06 300.522L311.038 264.761L345.043 253.689L311.027 242.659L311.003 206.896Z" id="path_2"/><path fill="#D80027" d="M277.237 328.348C237.281 328.348 204.889 295.956 204.889 256C204.889 216.044 237.281 183.652 277.237 183.652C289.695 183.652 301.418 186.802 311.652 192.348C295.596 176.647 273.64 166.956 249.411 166.956C200.233 166.956 160.368 206.822 160.368 255.999C160.368 305.176 200.234 345.042 249.411 345.042C273.641 345.042 295.597 335.351 311.652 319.65C301.418 325.198 289.695 328.348 277.237 328.348Z" id="path_3"/></svg>