<svg id="vector" xmlns="http://www.w3.org/2000/svg" width="24" height="24" viewBox="0 0 512 512"><path fill="#0052B4" d="M437.983 436.05C483.743 389.802 512 326.201 512 256C512 216.346 502.984 178.798 486.891 145.294H25.1094C9.01582 178.798 0 216.346 0 256C0 326.201 28.2566 389.802 74.0167 436.05H437.983Z" fill-rule="evenodd" id="path_0"/><path fill="#D80027" d="M477.752 384C433.488 460.519 350.756 512 256 512C161.244 512 78.5117 460.519 34.248 384H477.752Z" fill-rule="evenodd" id="path_1"/><path fill="#FFDA44" d="M512 256C512 114.615 397.385 0 256 0C114.615 0 0 114.615 0 256H512Z" fill-rule="evenodd" id="path_2"/><path fill="#FFDA44" d="M256 345.043C305.177 345.043 345.043 305.177 345.043 256C345.043 206.823 305.177 166.957 256 166.957C206.823 166.957 166.957 206.823 166.957 256C166.957 305.177 206.823 345.043 256 345.043Z" id="path_3"/><path fill="#338AF3" d="M256 311.652C225.313 311.652 200.348 286.686 200.348 256V222.609C200.348 191.922 225.314 166.957 256 166.957C286.686 166.957 311.652 191.923 311.652 222.609V256C311.652 286.687 286.687 311.652 256 311.652Z" id="path_4"/><path fill="#584528" d="M345.043 122.435H278.26C278.26 110.141 268.293 100.174 255.999 100.174C243.705 100.174 233.738 110.141 233.738 122.435H166.955C166.955 134.73 177.664 144.696 189.957 144.696H189.216C189.216 156.991 199.182 166.957 211.477 166.957C211.477 179.252 221.443 189.218 233.738 189.218H278.26C290.555 189.218 300.521 179.252 300.521 166.957C312.816 166.957 322.782 156.991 322.782 144.696H322.041C334.335 144.696 345.043 134.729 345.043 122.435Z" id="path_5"/></svg>