<svg id="vector" xmlns="http://www.w3.org/2000/svg" width="24" height="24" viewBox="0 0 512 512"><path fill="#FFDA44" d="M29.8097 136C10.7814 171.792 0.0000142816 212.637 0.0000104907 256C0.00000669983 299.363 10.7813 340.208 29.8097 376L482.19 376C501.219 340.208 512 299.363 512 256C512 212.637 501.219 171.792 482.19 136L29.8097 136Z" id="path_0"/><path fill="#6DA544" d="M15.526 168C51.4112 69.9657 145.535 -0.00003068 256 -0.0000210229C366.465 -0.0000113657 460.588 69.9657 496.474 168L15.526 168Z" id="path_1"/><path fill="#D80027" d="M15.526 344L496.474 344C460.588 442.034 366.465 512 256 512C145.535 512 51.4112 442.034 15.526 344Z" id="path_2"/><path fill="#0052B4" d="M327.966 156.947C273.261 117.201 196.694 129.328 156.949 184.033C117.204 238.738 129.331 315.304 184.035 355.05C238.74 394.795 315.307 382.668 355.052 327.963C394.797 273.259 382.67 196.692 327.966 156.947Z" id="path_3"/><path fill="#FFDA44" d="M275.354 229.361L256 169.793L251.38 184.009L255.997 198.217L256 198.208L266.124 229.367H255.115L252.262 238.148H256.003H268.972H278.205L278.203 238.142H296.01L308.096 229.361H275.354ZM251.38 212.424L246.764 198.217L236.645 229.361H174.012L186.105 238.147H201.043L201.035 238.142H233.798L230.397 248.609L237.866 254.036L243.028 238.148H243.03L245.883 229.367H245.875L251.38 212.424ZM224.683 266.176L198.19 246.928H213.129L227.541 257.399L227.544 257.39L235.013 262.816L235.011 262.821L248.528 272.641L241.059 278.068L232.154 271.598L222.03 302.756L222.042 302.747L217.425 316.955L205.328 325.744L224.683 266.176ZM248.528 283.495L255.998 278.068L255.999 278.069L269.518 268.246L272.371 277.027L263.464 283.499L289.969 302.756L289.964 302.74L302.05 311.521L306.671 325.744L256 288.929L229.511 308.174L234.127 293.967L248.535 283.499L248.528 283.495ZM279.84 271.6L276.987 262.82L276.989 262.819L271.825 246.928H281.058L284.46 257.398L310.964 238.142H310.949L323.034 229.361H337.987L287.316 266.176L297.433 297.314L285.348 288.533L279.845 271.597L279.84 271.6ZM304.066 182.383L285.062 208.539L292.157 213.694L311.161 187.538L304.066 182.383ZM219.845 213.695L200.842 187.54L207.937 182.385L226.94 208.54L219.845 213.695ZM310.121 268.972L340.869 278.963L338.159 287.303L307.411 277.313L310.121 268.972ZM260.388 311.477V343.807H251.618L251.618 311.477H260.388ZM173.847 287.305L204.595 277.314L201.884 268.973L171.137 278.964L173.847 287.305Z" fill-rule="evenodd" id="path_4"/></svg>