<svg id="vector" xmlns="http://www.w3.org/2000/svg" width="32" height="16" viewBox="0 0 500 250"><path fill="#FFFFFF" fill-rule="evenodd" d="M0 0h500v250H0z" stroke-width="1" id="path_0"/><path fill="#FF0000" fill-rule="evenodd" d="M104.667 76h16.667l-2.564-19.231 19.231 2.564V42.666L118.77 45.23l2.564-19.231h-16.667l2.564 19.231L88 42.666v16.667l19.231-2.564zm274 0h16.667l-2.564-19.231 19.231 2.564V42.666L392.77 45.23l2.564-19.231h-16.667l2.564 19.231L362 42.666v16.667l19.231-2.564zm-274 148h16.667l-2.564-19.231 19.231 2.564v-16.667l-19.231 2.564 2.564-19.231h-16.667l2.564 19.231L88 190.666v16.667l19.231-2.564zm274 0h16.667l-2.564-19.231 19.231 2.564v-16.667l-19.231 2.564 2.564-19.231h-16.667l2.564 19.231L362 190.666v16.667l19.231-2.564zM227 0h46v250h-46z" stroke-width="1" id="path_1"/><path fill="#FF0000" fill-rule="evenodd" d="M0 102h500v46H0z" stroke-width="1" id="path_2"/></svg>