<svg id="vector" xmlns="http://www.w3.org/2000/svg" width="24" height="24" viewBox="0 0 512 512"><path fill="#EEEEEE" d="M512 256A256 256 0 0 1 0 256A256 256 0 0 1 512 256Z" id="path_0"/><path fill="#D80027" d="M288 1.98009C277.68 0.693195 267.169 0.0205877 256.505 -0.0000112122L255.495 -0.000011168C244.831 0.0205887 234.32 0.693197 224 1.98009L224 224L1.98053 224C0.673354 234.483 -0.0000116638 245.163 -0.0000111901 256C-0.0000107164 266.837 0.673397 277.517 1.98065 288L224 288L224 510.019C234.483 511.326 245.163 512 256 512C266.837 512 277.517 511.326 288 510.019L288 288L510.019 288C511.327 277.517 512 266.837 512 255.999C512 245.163 511.327 234.483 510.019 224L288 224L288 1.98009Z" id="path_1"/><path fill="#D80027" d="M128 96V128H96V160H128V192H160V160H192V128H160V96H128ZM352 96V128H320V160H352V192H384V160H416V128H384V96H352ZM128 320V352H96V384H128V416H160V384H192V352H160V320H128ZM352 320V352H320V384H352V416H384V384H416V352H384V320H352Z" id="path_2"/></svg>