<svg id="vector" xmlns="http://www.w3.org/2000/svg" width="32" height="16" viewBox="0 0 500.0 250.0"><path fill="#DE2910" d="M0 0h500v250H0z" id="path_0"/><path fill="#FFF" d="M251.1 125.34c-44.2-18.45-24.6-75.33 17.65-72.47-8.55 4.34-9.79 12.45-4.9 19.95 5.46 8.4-0.5 21.93-7.9 25.21-12.14 5.4-14.58 19.81-4.86 27.31z" id="path_1"/><path fill="#DE2910" d="M248.7 84.27l-2.48 3.86-0.9-4.49-4.48-1.14 4.04-2.24-0.29-4.56 3.4 3.1 4.3-1.67-1.93 4.15 2.94 3.53zm2.64 40.59c-5.34-2.7-9.65-8.36-11.53-15.11a28.44 28.44 0 0 1 3.4-22.83l-0.93-0.58a29.52 29.52 0 0 0-3.52 23.7c1.98 7.14 6.38 12.9 12.08 15.79l0.5-0.97z" id="path_2"/><path fill="#FFF" d="M251.28 125.73c3.96-47.74 64.3-46.75 74.63-5.68-6.79-6.78-14.9-5.45-20.56 1.52-6.33 7.8-21.08 6.32-26.5 0.31-8.91-9.87-23.42-7.72-27.57 3.85z" id="path_3"/><path fill="#DE2910" d="M289.74 110.72l-4.45-1.16 4-2.25-0.29-4.62 3.39 3.15 4.26-1.68-1.91 4.19 2.93 3.57-4.56-0.55-2.46 3.89zm-37.93 15.1c0.94-5.92 5-11.77 10.87-15.65a28.63 28.63 0 0 1 22.84-3.86l0.26-1.06a29.72 29.72 0 0 0-23.7 4c-6.2 4.1-10.34 10.08-11.34 16.4l1.07 0.17z" id="path_4"/><path fill="#FFF" d="M251.4 124.77c46.6-11.04 64.18 46.49 28.31 69.01 4.36-8.54 0.6-15.82-7.76-19.02-9.36-3.59-12.48-18.04-8.43-25.04 6.65-11.5 0.15-24.6-12.12-24.95z" id="path_5"/><path fill="#DE2910" d="M277.47 156.6l-0.26-4.59 3.37 3.1 4.3-1.7-1.96 4.18 2.91 3.52-4.57-0.52-2.5 3.9-0.87-4.5-4.45-1.13zm-25.99-31.3c5.91-0.94 12.72 1.1 18.2 5.46a28.44 28.44 0 0 1 10.68 20.46l1.1-0.08a29.52 29.52 0 0 0-11.09-21.23c-5.8-4.62-12.75-6.69-19.05-5.68l0.16 1.07z" id="path_6"/><path fill="#FFF" d="M251.9 125.7c24.9 40.9-24.38 75.4-56.89 48.25 9.47 1.51 15.23-4.32 15.7-13.26 0.51-10.01 13.3-17.44 21.2-15.75 13 2.76 23.44-7.46 19.99-19.24z" id="path_7"/><path fill="#DE2910" d="M229.69 160.33l4.28-1.66-1.91 4.16 2.95 3.56-4.58-0.57-2.46 3.86-0.92-4.51-4.47-1.17 4.01-2.23-0.3-4.58zm21.72-34.39c2.73 5.33 2.9 12.43 0.45 19a28.44 28.44 0 0 1-16.17 16.48l0.4 1.01a29.52 29.52 0 0 0 16.79-17.1c2.59-6.95 2.41-14.2-0.5-19.88l-0.97 0.49z" id="path_8"/><path fill="#FFF" d="M251.1 125.15c-31.27 36.3-79.5 0.03-63.72-39.27 1.5 9.48 8.85 13.17 17.53 10.85 9.7-2.59 20.77 7.28 21.62 15.33 1.4 13.23 14.4 20 24.57 13.1z" id="path_9"/><path fill="#DE2910" d="M211.16 114.69l2.91 3.56-4.56-0.54-2.48 3.9-0.88-4.53-4.44-1.15 4.01-2.26-0.27-4.61 3.37 3.12 4.27-1.7zm39.56 10.07c-4.24 4.25-10.96 6.6-17.99 6.28a28.63 28.63 0 0 1-20.75-10.3l-0.83 0.7a29.72 29.72 0 0 0 21.53 10.7c7.43 0.32 14.28-2.08 18.8-6.6l-0.76-0.78z" id="path_10"/></svg>