<svg id="vector" xmlns="http://www.w3.org/2000/svg" width="24" height="24" viewBox="0 0 512 512"><path fill="#EEEEEE" d="M482.19 376C501.219 340.208 512 299.363 512 256C512 212.637 501.219 171.792 482.19 136H29.8097C10.7813 171.792 0 212.637 0 256C0 299.363 10.7813 340.208 29.8097 376H482.19Z" id="path_0"/><path fill="#0052B4" d="M496.474 344C460.589 442.034 366.465 512 256 512C145.535 512 51.4113 442.034 15.5261 344H496.474Z" id="path_1"/><path fill="#D80027" d="M496.474 168H15.5264C51.4116 69.9657 145.535 0 256 0C366.465 0 460.589 69.9657 496.474 168Z" id="path_2"/><path fill="#338AF3" d="M338.493 181.744H283.497L292.664 112.998L329.327 85.5L365.99 112.998V167.995L338.493 181.744Z" id="path_3"/><path fill="#338AF3" d="M173.505 181.744H228.501L219.334 112.998L182.67 85.5L146.008 112.998V167.995L173.505 181.744Z" id="path_4"/><path fill="#0052B4" d="M292.664 181.744H219.334V112.998L255.999 85.5L292.664 112.998V181.744Z" id="path_5"/><path fill="#EEEEEE" d="M146 168V278C146 338.751 195.249 388 256 388C316.751 388 366 338.751 366 278V168H146Z" id="path_6"/><path fill="#EEEEEE" d="M146 168V278C146 338.751 195.249 388 256 388C316.751 388 366 338.751 366 278V168H146Z" id="path_7"/><path fill="#D80027" d="M146 212L189.999 212V256H233.999V212L190 212V168H146V212ZM234 168V212H278V256H322V212H366V168H322V212H278V168H234ZM366 256.001H322V300H278V256.001H234V300.001H278V344H234V385.8C241.077 387.236 248.4 387.993 255.899 388H256.101C263.6 387.993 270.923 387.236 278 385.8V344H322V366.008C330.333 359.749 337.749 352.333 344.008 344H322V300.001H363.799C365.242 292.892 366 285.535 366 278V256.001ZM190 366.008V344H233.999V300H190V256.001H146V278C146 285.535 146.758 292.892 148.201 300.001H189.999V344H167.992C174.251 352.333 181.667 359.749 190 366.008Z" fill-rule="evenodd" id="path_8"/></svg>