<svg id="vector" xmlns="http://www.w3.org/2000/svg" width="24" height="24" viewBox="0 0 512 512"><path fill="#EEEEEE" d="M376 29.8097C340.208 10.7813 299.363 0.00000194808 256 0.00000143099C212.637 0.000000913888 171.792 10.7813 136 29.8097L136 482.19C171.792 501.219 212.637 512 256 512C299.363 512 340.208 501.219 376 482.19L376 29.8097Z" id="path_0"/><path fill="#FF9811" d="M344 15.5262C442.034 51.4115 512 145.535 512 256C512 366.465 442.034 460.589 344 496.474L344 15.5262Z" id="path_1"/><path fill="#6DA544" d="M168 15.526L168 496.474C69.9657 460.588 0.00000155034 366.465 0.00000286762 256C0.0000041849 145.535 69.9657 51.4112 168 15.526Z" id="path_2"/></svg>