<svg id="vector" xmlns="http://www.w3.org/2000/svg" width="32" height="16" viewBox="0 0 500.0 250.0"><path fill="#F93" d="M0 0h500v250H0z" id="path_0"/><path fill="#FFF" d="M0 83h500v84H0z" id="path_1"/><path fill="#128807" d="M0 166h500v84H0z" id="path_2"/><path fill="#008" fill-rule="evenodd" d="M278.84 128.8c-0.1 0.82 0.47 1.58 1.29 1.7-0.15 0.82-0.33 1.62-0.54 2.41l-17.37-5.73-6.17-0.89c0.06-0.31 0.1-0.64 0.12-0.97l6.2 0.74 18.25-1.04c0 0.83-0.03 1.65-0.1 2.46-0.82-0.09-1.57 0.5-1.68 1.32m-1.96 7.33c-0.32 0.77 0.04 1.65 0.8 1.99a30.2 30.2 0 0 1-1.15 2.18l-15.3-10.04-5.73-2.45c0.15-0.29 0.28-0.6 0.38-0.9l5.79 2.31 17.91 3.72c-0.21 0.8-0.46 1.59-0.73 2.36-0.77-0.3-1.65 0.06-1.97 0.83m-3.8 6.58c-0.5 0.66-0.39 1.6 0.26 2.12-0.54 0.63-1.1 1.23-1.67 1.81L259.49 133l-4.9-3.85c0.21-0.25 0.42-0.5 0.6-0.78l4.99 3.74 16.34 8.23c-0.42 0.71-0.86 1.4-1.32 2.08a1.53 1.53 0 0 0-2.12 0.3m-5.37 5.37c-0.66 0.5-0.79 1.45-0.3 2.12-0.68 0.46-1.37 0.9-2.08 1.32l-8.23-16.34-3.74-5c0.28-0.17 0.53-0.38 0.78-0.6l3.85 4.91 13.65 12.18c-0.58 0.58-1.18 1.13-1.8 1.67a1.53 1.53 0 0 0-2.13-0.26m-6.58 3.8a1.53 1.53 0 0 0-0.83 1.97c-0.77 0.27-1.56 0.52-2.36 0.73l-3.72-17.91-2.32-5.79c0.32-0.1 0.62-0.23 0.91-0.38l2.45 5.74 10.04 15.3c-0.71 0.4-1.44 0.79-2.18 1.14a1.53 1.53 0 0 0-1.99-0.8m-7.33 1.96c-0.83 0.11-1.41 0.86-1.32 1.68-0.81 0.07-1.63 0.1-2.46 0.1l1.04-18.26-0.74-6.2c0.33-0.01 0.66-0.05 0.97-0.11l0.89 6.17 5.73 17.37c-0.79 0.21-1.59 0.4-2.4 0.54a1.53 1.53 0 0 0-1.71-1.29m-7.6 0c-0.82-0.1-1.58 0.47-1.7 1.29a30.2 30.2 0 0 1-2.41-0.54l5.73-17.37 0.89-6.17c0.31 0.06 0.64 0.1 0.97 0.12l-0.74 6.2 1.04 18.25c-0.82 0-1.65-0.03-2.46-0.1 0.09-0.82-0.5-1.57-1.32-1.68m-7.33-1.96a1.53 1.53 0 0 0-1.99 0.8 30.5 30.5 0 0 1-2.18-1.15l10.04-15.3 2.45-5.73c0.29 0.15 0.6 0.28 0.9 0.38l-2.31 5.79-3.72 17.91c-0.8-0.21-1.59-0.46-2.36-0.73 0.3-0.77-0.06-1.65-0.83-1.97m-6.58-3.8c-0.66-0.5-1.6-0.39-2.12 0.26a30.85 30.85 0 0 1-1.81-1.67L242 134.49l3.85-4.9c0.25 0.21 0.5 0.42 0.78 0.6l-3.74 4.99-8.23 16.34a40.6 40.6 0 0 1-2.08-1.32c0.49-0.67 0.36-1.61-0.3-2.12m-5.37-5.37a1.53 1.53 0 0 0-2.12-0.3 30.8 30.8 0 0 1-1.32-2.08l16.34-8.23 5-3.74c0.17 0.28 0.38 0.53 0.6 0.78l-4.91 3.85-12.18 13.65a30.84 30.84 0 0 1-1.67-1.8c0.65-0.53 0.77-1.47 0.26-2.13m-3.8-6.58a1.53 1.53 0 0 0-1.97-0.83c-0.27-0.77-0.52-1.56-0.73-2.36l17.91-3.72 5.79-2.32c0.1 0.32 0.23 0.62 0.38 0.91l-5.74 2.45-15.3 10.04a30.4 30.4 0 0 1-1.14-2.18 1.53 1.53 0 0 0 0.8-1.99m-1.96-7.33a1.53 1.53 0 0 0-1.68-1.32c-0.07-0.81-0.1-1.63-0.1-2.46l18.26 1.04 6.2-0.74c0.01 0.33 0.05 0.66 0.12 0.97l-6.18 0.89-17.37 5.73c-0.21-0.79-0.4-1.59-0.54-2.4 0.82-0.13 1.4-0.89 1.29-1.71m0-7.6c0.1-0.82-0.47-1.58-1.29-1.7 0.15-0.82 0.33-1.62 0.54-2.41l17.37 5.73 6.18 0.89c-0.07 0.31-0.1 0.64-0.13 0.97l-6.2-0.74-18.25 1.04c0-0.83 0.03-1.65 0.1-2.46 0.82 0.09 1.57-0.5 1.68-1.32m1.96-7.33a1.53 1.53 0 0 0-0.8-1.99c0.35-0.74 0.74-1.47 1.15-2.18l15.3 10.04 5.73 2.45c-0.15 0.29-0.28 0.6-0.38 0.9l-5.79-2.31-17.91-3.72c0.21-0.8 0.46-1.59 0.73-2.36 0.78 0.3 1.65-0.06 1.97-0.83m3.8-6.58c0.5-0.66 0.39-1.6-0.26-2.12 0.54-0.63 1.1-1.23 1.67-1.81L240.51 117l4.9 3.85c-0.21 0.25-0.42 0.5-0.6 0.78l-4.99-3.74-16.34-8.23c0.42-0.71 0.86-1.4 1.32-2.08 0.67 0.49 1.61 0.36 2.12-0.3m5.37-5.37c0.66-0.5 0.79-1.45 0.3-2.12 0.68-0.46 1.37-0.9 2.08-1.32l8.23 16.34 3.74 5c-0.28 0.17-0.53 0.38-0.78 0.6l-3.85-4.91-13.65-12.18c0.58-0.58 1.18-1.13 1.8-1.67 0.53 0.65 1.47 0.77 2.13 0.26m6.58-3.8c0.77-0.32 1.14-1.2 0.83-1.97 0.77-0.27 1.56-0.52 2.36-0.73l3.72 17.91 2.32 5.79c-0.32 0.1-0.62 0.23-0.91 0.38l-2.45-5.74-10.04-15.3c0.71-0.4 1.44-0.79 2.18-1.14a1.53 1.53 0 0 0 1.99 0.8m7.33-1.96a1.53 1.53 0 0 0 1.32-1.68c0.81-0.07 1.64-0.1 2.46-0.1l-1.04 18.26 0.74 6.2a6.2 6.2 0 0 0-0.97 0.11l-0.89-6.17-5.73-17.37c0.79-0.21 1.59-0.4 2.4-0.54 0.13 0.82 0.89 1.4 1.71 1.29m7.6 0c0.82 0.1 1.58-0.47 1.7-1.29 0.82 0.15 1.62 0.33 2.41 0.54l-5.73 17.37-0.89 6.17a6.2 6.2 0 0 0-0.97-0.12l0.74-6.2-1.04-18.25c0.83 0 1.65 0.03 2.46 0.1-0.09 0.82 0.5 1.57 1.32 1.68m7.33 1.96c0.77 0.32 1.65-0.04 1.99-0.8 0.74 0.35 1.47 0.74 2.18 1.15l-10.04 15.3-2.45 5.73c-0.29-0.15-0.6-0.28-0.9-0.38l2.31-5.79 3.72-17.91c0.8 0.21 1.59 0.46 2.36 0.73-0.3 0.78 0.06 1.65 0.83 1.97m6.58 3.8c0.66 0.5 1.6 0.39 2.12-0.26 0.63 0.54 1.23 1.1 1.81 1.67L258 115.51l-3.85 4.9c-0.25-0.21-0.5-0.42-0.78-0.6l3.74-4.99 8.23-16.34c0.71 0.42 1.4 0.86 2.08 1.32-0.49 0.67-0.36 1.61 0.3 2.12m5.37 5.37c0.5 0.66 1.45 0.79 2.12 0.3 0.46 0.68 0.9 1.37 1.32 2.08l-16.34 8.23-5 3.74a6.23 6.23 0 0 0-0.6-0.78l4.91-3.85 12.18-13.65c0.58 0.58 1.13 1.18 1.67 1.8a1.53 1.53 0 0 0-0.26 2.13m3.8 6.58c0.32 0.77 1.2 1.14 1.97 0.83 0.27 0.77 0.52 1.56 0.73 2.36l-17.91 3.72-5.79 2.32c-0.1-0.32-0.23-0.62-0.38-0.91l5.74-2.45 15.3-10.04c0.4 0.71 0.79 1.44 1.14 2.18a1.53 1.53 0 0 0-0.8 1.99m1.96 7.33c0.11 0.83 0.86 1.4 1.68 1.32 0.07 0.81 0.1 1.63 0.1 2.46l-18.26-1.04-6.2 0.74a6.17 6.17 0 0 0-0.11-0.97l6.17-0.89 17.37-5.73c0.21 0.79 0.4 1.59 0.54 2.4-0.82 0.13-1.4 0.89-1.29 1.71M250 90a35 35 0 1 0 0 70 35 35 0 0 0 0-70" id="path_3"/></svg>