<svg id="vector" xmlns="http://www.w3.org/2000/svg" width="24" height="24" viewBox="0 0 512 512"><defs><clipPath id="clip_path_0"><path d="M0 0H512V512H0V0Z"/></clipPath></defs><g id="g_0"><path fill="#EEEEEE" d="M256 512C397.385 512 512 397.385 512 256C512 114.615 397.385 0 256 0C114.615 0 0 114.615 0 256C0 397.385 114.615 512 256 512Z" fill-rule="evenodd" clip-path="url(#clip_path_0)"/><path fill="#D80027" d="M499.479 335.305C466.094 437.871 369.704 512 256 512C142.296 512 45.9053 437.871 12.5205 335.305L499.479 335.305Z" fill-rule="evenodd"/><path fill="#496E2D" d="M12.519 176.7C45.9024 74.1314 142.294 0 256 0C369.706 0 466.098 74.1314 499.481 176.7H12.519Z" fill-rule="evenodd"/><path fill="#D80027" d="M271.786 201H239.786V217H271.786V201Z"/><path fill="#D80027" d="M227.879 287.983C220.597 280.202 215.569 270.531 213.409 260.011C212.32 254.704 211.987 249.308 212.39 243.976C210.343 246.218 208.564 248.721 207.107 251.439C202.661 259.729 201.545 269.409 203.982 278.503L188.527 282.644C185.039 269.626 186.634 255.761 193.006 243.878C199.376 231.997 210.034 222.991 222.81 218.691L232.54 229.805C228.425 238.169 227.208 247.663 229.083 256.794C230.957 265.924 235.815 274.172 242.892 280.238C244.441 281.566 246.077 282.772 247.786 283.852V221H263.786V284.12C265.65 282.973 267.431 281.677 269.109 280.238C276.186 274.172 281.044 265.924 282.919 256.794C284.793 247.663 283.577 238.169 279.461 229.805L289.191 218.691C301.967 222.991 312.625 231.997 318.995 243.878C325.367 255.761 326.962 269.626 323.474 282.644L308.019 278.503C310.456 269.409 309.34 259.729 304.895 251.439C303.437 248.721 301.658 246.218 299.611 243.976C300.015 249.308 299.681 254.704 298.592 260.011C296.432 270.531 291.405 280.202 284.122 287.983C287.719 286.722 291.151 284.968 294.315 282.753L303.492 295.859C292.948 303.242 280.248 306.908 267.391 306.279C266.184 306.22 264.982 306.124 263.786 305.99V311H247.786V306.037C246.732 306.146 245.673 306.227 244.61 306.279C231.753 306.908 219.053 303.242 208.509 295.859L217.686 282.753C220.85 284.968 224.282 286.722 227.879 287.983Z"/><path fill="#EEEEEE" d="M493.673 160.7C497.827 171.05 501.324 181.733 504.114 192.7H423.648V160.7H493.673ZM456.411 96.7001C460.529 101.874 464.451 107.211 468.165 112.7H439.648V144.7H423.648V96.7001H456.411ZM426.123 64.7002C431.839 69.787 437.325 75.1261 442.564 80.7001H423.648V64.7002L426.123 64.7002ZM71.649 78.3742C76.2144 73.637 80.9608 69.0753 85.877 64.7002H87.6489V144.7H25.3955C28.0276 139.256 30.8468 133.92 33.8446 128.7H39.6491V119.087C44.5841 111.305 49.9275 103.807 55.649 96.6243V128.7H71.649V78.3742ZM7.88578 192.7C10.6751 181.734 14.1724 171.05 18.3261 160.7H87.6489V192.7H7.88578ZM493.674 351.3C497.827 340.95 501.324 330.266 504.114 319.3H423.65V351.3H493.674ZM486.604 367.3H423.65V383.3H478.155C481.153 378.079 483.972 372.743 486.604 367.3ZM468.166 399.3H423.65V447.299H426.123C430.788 443.148 435.3 438.828 439.65 434.35V415.3H456.411C460.529 410.126 464.451 404.789 468.166 399.3ZM85.8768 447.3H87.6508V367.3H71.6509V431.3H69.4351C74.6745 436.874 80.1609 442.213 85.8768 447.3ZM55.651 415.378V367.3H39.651V392.916C44.5861 400.698 49.9295 408.195 55.651 415.378ZM7.88574 319.3C10.6751 330.266 14.1724 340.95 18.3261 351.3H87.6508V319.3H7.88574ZM103.65 80.7001H311.649V64.7002H103.65V80.7001ZM279.649 112.7H327.649V144.7H407.649V64.7002H391.649V128.7H375.649V64.7002H359.649V128.7H343.649V64.7002H327.649V96.7001H263.65V144.7H311.649V128.7H279.649V112.7ZM183.65 96.7001H103.65V144.7H119.65V112.7H167.65V144.7H247.65V96.7001H199.65V112.7H231.65V128.7H183.65V96.7001ZM135.65 144.7H151.65V128.7H135.65V144.7ZM103.65 192.7H247.65V160.7H103.65V192.7ZM263.65 192.7H407.649V160.7H263.65V192.7ZM103.65 351.3H247.65V319.3H103.65V351.3ZM263.65 351.3H407.649V319.3H263.65V351.3ZM103.65 383.3H311.649V367.3H103.65V383.3ZM279.649 415.3H327.649V447.3H407.649V367.3H391.649V431.3H375.649V367.3H359.649V431.3H343.649V367.3H327.649V399.3H263.649V447.3H311.649V431.3H279.649V415.3ZM183.65 399.3H103.65V447.3H119.65V415.3H167.65V447.3H247.65V399.3H199.65V415.3H231.65V431.3H183.65V399.3ZM135.65 447.3H151.65V431.3H135.65V447.3ZM455.648 144.7H471.648V128.7H455.648V144.7Z" fill-rule="evenodd"/></g></svg>