<svg id="vector" xmlns="http://www.w3.org/2000/svg" width="32" height="16" viewBox="0 0 500 250"><path fill="#FFFFFF" d="M0 0h500v250H0z" stroke-width="1" id="path_0"/><path fill="#000000" d="M0 0h500v75H0z" stroke-width="1" id="path_1"/><path fill="#BB0000" d="M0 88h500v75H0z" stroke-width="1" id="path_2"/><path fill="#006600" d="M0 175h500v75H0z" stroke-width="1" id="path_3"/><path fill="#000000" d="M205.033 198.844l2.706 1.562 72.989-126.42c4.269-1.144 6.613-5.203 8.957-9.263 1.562-2.706 7.812-13.531 10.521-27.598-10.828 9.379-17.078 20.204-18.64 22.911-2.344 4.059-4.688 8.119-3.544 12.387l-72.989 126.421z" stroke-width="1" id="path_4"/><path fill="#FFFFFF" d="M205.033 198.844l2.706 1.562 72.989-126.42c4.269-1.144 6.613-5.203 8.957-9.263 1.562-2.706 7.812-13.531 10.521-27.598-10.828 9.379-17.078 20.204-18.64 22.911-2.344 4.059-4.688 8.119-3.544 12.387l-72.989 126.421z" stroke-width="1" id="path_5"/><path fill="#000000" d="M294.342 198.844l-2.706 1.562-72.989-126.42c-4.269-1.144-6.613-5.203-8.956-9.263-1.563-2.706-7.813-13.531-10.522-27.598 10.828 9.379 17.078 20.204 18.64 22.911 2.344 4.059 4.688 8.119 3.544 12.387l72.989 126.421z" stroke-width="1" id="path_6"/><path fill="#FFFFFF" d="M294.342 198.844l-2.706 1.562-72.989-126.42c-4.269-1.144-6.613-5.203-8.956-9.263-1.563-2.706-7.813-13.531-10.522-27.598 10.828 9.379 17.078 20.204 18.64 22.911 2.344 4.059 4.688 8.119 3.544 12.387l72.989 126.421z" stroke-width="1" id="path_7"/><path fill="#BB0000" d="M220 162.125c4.688 12.5 20.313 37.5 29.688 37.5s25-25 29.687-37.5v-75c-4.687-12.5-20.312-37.5-29.687-37.5s-25 25-29.688 37.5v75z" stroke-width="1" id="path_8"/><path fill="#000000" d="M279.375 162.125c4.688-12.5 7.813-25 7.813-37.5s-3.125-25-7.813-37.5c-4.687 12.5-7.812 25-7.812 37.5s3.125 25 7.812 37.5zm-59.375 0c-4.687-12.5-7.812-25-7.812-37.5s3.125-25 7.812-37.5c4.688 12.5 7.813 25 7.813 37.5s-3.125 25-7.813 37.5z" stroke-width="1" id="path_9"/><path fill="#FFFFFF" d="M243.438 124.625a6.25 9.375 0 1 0 12.5 0 6.25 9.375 0 1 0-12.5 0z" stroke-width="1" id="path_10"/><path fill="#FFFFFF" d="M251.25 133.766s6.25 12.5 6.25 32.812c0 20.313-6.25 32.813-6.25 32.813v-65.625zm-3.125-18.282s-6.25-12.5-6.25-32.812c0-20.313 6.25-32.813 6.25-32.813v65.625zm0 18.282s-6.25 12.5-6.25 32.812c0 20.313 6.25 32.813 6.25 32.813v-65.625zm3.125-18.282s6.25-12.5 6.25-32.812c0-20.313-6.25-32.813-6.25-32.813v65.625z" stroke-width="1" id="path_11"/></svg>