<svg id="vector" xmlns="http://www.w3.org/2000/svg" width="32" height="16" viewBox="0 0 500.0 250.0"><path fill="#FFF" fill-rule="evenodd" d="M0 250h500V0H0z" id="path_0"/><path fill="#C60C30" fill-rule="evenodd" d="M198.23 90.46a62.35 62.35 0 0 1 86.57-17.34 62.6 62.6 0 0 1 17.32 86.72 62.36 62.36 0 0 1-86.57 17.34 62.6 62.6 0 0 1-17.32-86.72" id="path_1"/><path fill="#003478" fill-rule="evenodd" d="M198.23 90.46a31.3 31.3 0 0 0 8.66 43.36 31.18 31.18 0 0 0 43.28-8.67 31.18 31.18 0 0 1 43.3-8.67 31.3 31.3 0 0 1 8.65 43.36 62.36 62.36 0 0 1-86.57 17.34 62.6 62.6 0 0 1-17.32-86.72" id="path_2"/><path fill="#000" fill-rule="evenodd" d="M146.38 93.4l8.49 5.67 34.63-52.03-8.5-5.67zm-4.5-3l34.63-52.03-8.5-5.67-34.62 52.03zm21.65-60.7l-8.5-5.67-34.62 52.03 8.49 5.67zm174.55 151.08l15.9-23.9-8.5-5.66-15.9 23.89zm-11.32-1.42l-15.9 23.9 8.49 5.66 15.9-23.89zm40.2-13.8l-8.5-5.67-15.87 23.87 8.49 5.67zm-27.21 22.45l-15.9 23.92 8.48 5.67 15.92-23.92zm-2.92 32.59l8.49 5.67 15.9-23.9-8.49-5.67zm18.73-28.16l8.5 5.67 15.89-23.88-8.5-5.67zM120.4 174.23l34.63 52.04 8.5-5.67-34.63-52.04zm25.98-17.34L181 208.93l8.5-5.68-34.63-52.03zm2.91 32.56l8.5-5.67-15.9-23.9-8.5 5.68zm2.83 4.25l15.9 23.9 8.49-5.68-15.9-23.89zM366.96 84.73L332.33 32.7l-8.49 5.67 34.63 52.03zm-31.71-19.47l-15.9-23.89-8.5 5.67 15.9 23.9zm18.73 28.14l-15.9-23.89-8.5 5.68 15.9 23.88zm7.24-45.48l-15.9-23.89-8.5 5.67 15.9 23.89zm10.24 33.81l8.49-5.67-15.9-23.89-8.5 5.67z" id="path_3"/></svg>