<svg id="vector" xmlns="http://www.w3.org/2000/svg" width="24" height="24" viewBox="0 0 512 512"><path fill="#EEEEEE" d="M512 256A256 256 0 0 1 0 256A256 256 0 0 1 512 256Z" id="path_0"/><path fill="#333333" d="M90.7478 153.677L153.701 90.7234L137.963 74.9849L75.0093 137.938L90.7478 153.677Z" id="path_1"/><path fill="#333333" d="M358.335 90.7722L381.943 114.38L397.681 98.6411L374.074 75.0337L358.335 90.7722Z" id="path_2"/><path fill="#333333" d="M397.698 177.336L334.744 114.382L350.483 98.644L413.436 161.597L397.698 177.336Z" id="path_3"/><path fill="#333333" d="M373.982 311.1L350.375 334.708L366.113 350.446L389.721 326.839L373.982 311.1Z" id="path_4"/><path fill="#333333" d="M334.625 350.447L311.017 374.055L326.756 389.793L350.363 366.186L334.625 350.447Z" id="path_5"/><path fill="#333333" d="M397.594 381.92L421.201 358.313L436.94 374.051L413.332 397.659L397.594 381.92Z" id="path_6"/><path fill="#333333" d="M381.845 397.668L358.237 421.275L373.976 437.013L397.583 413.406L381.845 397.668Z" id="path_7"/><path fill="#333333" d="M373.983 358.316L397.59 334.708L413.329 350.447L389.721 374.054L373.983 358.316Z" id="path_8"/><path fill="#333333" d="M358.244 374.055L334.636 397.662L350.375 413.401L373.982 389.794L358.244 374.055Z" id="path_9"/><path fill="#333333" d="M311.125 137.996L334.732 161.603L350.47 145.865L326.863 122.258L311.125 137.996Z" id="path_10"/><path fill="#333333" d="M374.078 200.959L350.471 177.352L366.209 161.614L389.816 185.222L374.078 200.959Z" id="path_11"/><path fill="#333333" d="M421.31 153.741L397.703 130.133L413.441 114.395L437.049 138.002L421.31 153.741Z" id="path_12"/><path fill="#333333" d="M153.708 421.225L90.7545 358.272L75.016 374.01L137.969 436.964L153.708 421.225Z" id="path_13"/><path fill="#333333" d="M153.705 373.998L177.312 397.606L161.574 413.344L137.967 389.736L153.705 373.998Z" id="path_14"/><path fill="#333333" d="M137.963 358.267L114.355 334.659L98.6166 350.398L122.224 374.005L137.963 358.267Z" id="path_15"/><path fill="#333333" d="M137.965 311.045L200.919 373.999L185.18 389.737L122.227 326.784L137.965 311.045Z" id="path_16"/><path fill="#333333" d="M177.309 114.328L114.355 177.281L98.6169 161.543L161.57 98.5896L177.309 114.328Z" id="path_17"/><path fill="#333333" d="M137.985 200.903L200.939 137.95L185.201 122.212L122.247 185.166L137.985 200.903Z" id="path_18"/><g transform="translate(391.765, 256) rotate(45) scale(-1, 1)" id="g_0"><path fill="#D80027" d="M192 96A96 96 0 0 1 0 96A96 96 0 0 1 192 96Z"/></g><path fill="#0052B4" d="M188.102 188.133C150.629 225.607 150.603 286.365 188.063 323.825C225.523 361.286 286.393 361.372 323.867 323.898C342.628 305.136 342.684 274.691 323.918 255.925C305.138 237.145 274.742 237.25 255.98 256.011C237.216 274.775 206.814 274.817 188.028 256.031C169.279 237.277 169.338 206.898 188.102 188.133Z" id="path_19"/></svg>