<svg id="vector" xmlns="http://www.w3.org/2000/svg" width="24" height="24" viewBox="0 0 512 512"><path fill="#0052B4" d="M477.752 384C499.534 346.346 512 302.629 512 256C512 209.371 499.534 165.654 477.752 128L34.2483 128C12.4665 165.654 0 209.371 0 256C0 302.629 12.4665 346.346 34.2482 384L477.752 384Z" id="path_0"/><path fill="#D80027" d="M255.911 512C154.729 511.965 67.2685 453.23 25.7354 368L486.264 368C444.731 453.23 357.271 511.965 256.089 512C256.059 512 256.03 512 256 512C255.97 512 255.94 512 255.911 512Z" id="path_1"/><path fill="#D80027" d="M256 0C154.78 0 67.2808 58.7445 25.7354 144L486.264 144C444.719 58.7445 357.22 0 256 0Z" id="path_2"/><path fill="#EEEEEE" d="M256 345.044C305.177 345.044 345.043 305.178 345.043 256.001C345.043 206.824 305.177 166.958 256 166.958C206.823 166.958 166.957 206.824 166.957 256.001C166.957 305.178 206.823 345.044 256 345.044Z" id="path_3"/></svg>