<svg id="vector" xmlns="http://www.w3.org/2000/svg" width="32" height="16" viewBox="0 0 500.0 250.0"><path fill="#CC092F" d="M0 0h500v250H0z" id="path_0"/><path fill="#FFD200" d="M0 0h333v250H0z" id="path_1"/><path fill="#000" d="M235.34 54.07c-0.9 0-1.68 0.22-2.14 0.58 0.73 0.21 1.26 0.88 1.26 1.7v2.05h-2.07c-0.8 0-1.48-0.52-1.7-1.23a3.6 3.6 0 0 0-0.57 2.13c0 0.9 0.22 1.67 0.58 2.13 0.21-0.73 0.88-1.25 1.7-1.25h2.06v9.9c0 0.78-0.5 1.43-1.17 1.67 0.98 0.13 1.83 1.45 2.06 2.17 0.24-0.72 1.08-2.04 2.07-2.17a1.74 1.74 0 0 1-1.19-1.67v-9.9h2.07c0.8 0 1.48 0.52 1.7 1.23a3.6 3.6 0 0 0 0.58-2.13c0-0.9-0.23-1.67-0.59-2.13a1.75 1.75 0 0 1-1.7 1.25h-2.06v-2.06c0-0.8 0.52-1.48 1.24-1.7a3.61 3.61 0 0 0-2.12-0.56z" id="path_2"/><path fill="#F5D402" d="M235.34 54.5c-0.47 0-0.88 0.08-1.23 0.2 0.47 0.4 0.77 0.98 0.77 1.64v2.06l-0.01 0.09v0.32h-0.33l-0.08 0.02h-2.07c-0.66 0-1.23-0.3-1.63-0.75a3.8 3.8 0 0 0-0.02 2.44c0.4-0.46 0.99-0.77 1.65-0.77h2.5l-0.02 0.13v0.21l0.01 0.09v9.9a2.1 2.1 0 0 1-0.77 1.55c0.32 0.2 0.59 0.44 0.82 0.71 0.2 0.25 0.28 0.5 0.42 0.74 0.14-0.25 0.22-0.49 0.43-0.74 0.23-0.27 0.5-0.5 0.8-0.7a2.1 2.1 0 0 1-0.77-1.55V59.77h0.34l0.08-0.02h2.07c0.66 0 1.23 0.3 1.64 0.76a3.8 3.8 0 0 0 0-2.45c-0.4 0.46-0.98 0.77-1.64 0.77h-2.07l-0.08-0.02h-0.33V58.5l-0.01-0.09v-2.07c0-0.66 0.3-1.23 0.75-1.63a3.83 3.83 0 0 0-1.21-0.22" id="path_3"/><path fill="#000" d="M261.17 90.36a10.8 10.8 0 0 1-3.03-3.08c-1.77-2.84-2.52-6.32-2.52-9.86 0-1.5 1.68-3.18 1.68-4.4 0-1.82-0.17-2.92-0.17-2.92 0.6 0.08 1.64 1.13 1.64 1.13s-0.04-3.03-1-3.56c0 0 0.39-0.4 1.8-0.44-0.4-1-2.35-2.22-2.35-2.22 0.1-0.17 0.27-0.33 0.5-0.45 0.5-0.28 1.19-0.45 1.71-0.56-0.56-0.12-1.2-0.3-1.92-0.53a45.37 45.37 0 0 1-5.32-2.16 15.71 15.71 0 0 0-7.12-1.66c-0.99 0-2.45 0.03-3.31 0.6-0.79 0.52-0.72 1.2-1 1.43-0.65 0.56-1.76 0.54-2.29 0.54-3.46 0-3.59 3.7-3.59 3.7s0.89-1.34 2.45-1.34c2.6 0 4.57 1.42 4.57 1.95 0 0.22-0.27 0.26-0.28 0.26-1.7 0-4.27-0.98-5.63-1.03v0.67c3.04 1.06 6.12 2.55 6.12 9.14 0 4.15-0.5 8.38-2.57 11.71a11.04 11.04 0 0 1-3.05 3.08l12.34 2.23 12.34-2.23z" id="path_4"/><path fill="#000" d="M248.83 87.59l-12.34 2.77c-0.56-0.16-3.2-0.98-5.05-2.01-3.26-1.82-4.95-3.62-8.83-3.8v-2.94c0-1.57 0.57-2.99 0.57-4.5-1.63-0.43-6.16-5.96-10.34-8.42-6.16 3.98-10.92 10.51-10.92 13.52 0 0 0.19 64.55 0 87.03 0 1.3-0.78 3.13-0.78 3.13 2.24-0.95 6.36-6.58 7.23-8.71v1.02c3.39-1.54 5.87-5.6 6.99-7.7l0.07 1.06c3.03-2.65 6.89-18.33 6.89-18.33l6.43 6.3s-2.33 4.72-3.24 5.57c0 0 0.61 0.07 1.3 0.07-0.42 0.6-3.66 5.25-4.67 7-0.95 1.64-1.62 0.91-3.07 0.91-1.21 0-3.95 1.93-4.4 2.7a5.68 5.68 0 0 0-0.83 2.63c0 0.9 0.96 2.13 0.96 2.13 0.1-0.43 0.28-0.58 0.28-0.58s2.5 3.12 2.88 3.53c0.28 0.31 1.57 0.52 2.02 0.11 1.13-1.03 2.22-1.74 3.23-3.23 0.52-0.76 0.56-1.64 1.15-2.46 2-2.74 5.96-8 6.86-9.2l0.17 0.96c1.03-2.07 5.97-6.02 5.97-6.02l5.16 2.37s-9.64 22.14-18.2 25.54a132.82 132.82 0 0 0 10.34 5.04 45.8 45.8 0 0 0 1.78-2.26c2.74-3.65 5.41-7.88 5.41-7.88 0.19 1.1-1.26 4.5-3.7 8.68-0.48 0.82-0.98 1.68-1.54 2.56 0.62 0.35 1.24 0.7 1.85 1.08 4.54 2.72 8.79 5.85 10.37 8.72l1.1-2.77-1.1-2.78V91.27l0.55-1.38-0.55-2.3z" id="path_5"/><path fill="#B07F55" d="M248.83 188.43c-1.6-1.73-4.94-3.85-8.7-5.8 4.54-8.14 6.8-21 5.74-23.56 0 0-1.87 6.67-4.15 10.47a80.85 80.85 0 0 1-7.21 10.42 57.24 57.24 0 0 0-5.78-2.13c7.52-5.8 15.21-24.92 15.21-24.92l-7.95-3.68s-2.98 3.46-3.94 4.1c0 0-0.42-1.72-0.66-2.32 0 0-1.14 0.86-1.76 0.88l-0.33-1.93c-0.78 0.52-2.1 0.4-2.1 0.4 1.16-0.54 2.51-3.86 2.51-3.86l-7.6-10.09s-2.66 12.8-5.7 15.44V96.72l2.4 2.23 3.65-3.4v-2.58l-3.23 3v-7.8c0.48-0.73 0.8-1.28 1.05-1.71 0.52 0.9 2.21 3.7 4.2 5.41 0.33-1.33 2.48-2.59 2.48-2.59s0.77 2.09 1.95 2.6c0.41-0.72 2.89-2.34 2.89-2.34s-2.12 0.32-2.98 1.12c-0.74-0.16-0.92-3.07-0.92-3.07s-3.12 1.52-3.66 2.6c-0.6-0.16-1.52-2.5-1.88-3.45 0.54-0.06 1.31-0.13 2.32-0.13 0.89 0 2.02 0.42 3.22 0.98 1.3 0.62 2.67 1.4 3.9 1.95 1.56 0.7 3.93 0.85 4.62 0.88-0.79 0.56-1.66 1.06-2.6 1.54 0 0 3.72-0.04 6.34-1.34 0.94-0.6 1.9-1.2 2.74-1.9a10 10 0 0 1-1.8 3.18 8.59 8.59 0 0 0 6.3-3.26c0.26 0.66 0.72 1.72 1.43 2.63h1.4v94.4l-1.4 2.76zM220.48 77.4l0.07 1.76v5.2c-1.4-0.49-3.15-2.78-4-3.99v-0.7c0-0.68 0.4-1.16 0.69-1.43l-0.84-0.3c-0.32 0.37-0.67 0.9-0.67 1.6v0.42l-2.5 2.69-2.47-3.73v-0.9c0-0.62 0.47-1.3 0.87-1.77l-0.83-0.3c-0.41 0.55-0.85 1.27-0.85 1.95v0.74l-2.83 2.91-1.44-3.08a34.42 34.42 0 0 1 7.16-6.98s5.71 5.25 7.64 5.91zm-14.49 5.03v4.28l-2 1.85V82.2c0-0.61 0.26-1.34 0.69-2.15l1.31 2.37z" id="path_6"/><path fill="#B07F55" d="M212.2 84.08v2.65l-2.3 2.14V80.6zm-3.11 4.78l-2.29-2.13v-3.1l2.3-2.4zm10.46-3.21c-0.53 0.75-1.92 2.58-3.43 3.4v-7.27c0.35 0.57 1.93 3.13 3.43 3.87zm-4.24-3.5v6.7l-2.29-2.12v-2.38zm-9.32 7.15V96l-2-1.87v-2.97zm3.1 2.14v2.4l-2.3 2.14V89.3zm3.1-2.13v6.67l-2.29-2.15v-2.37zm3.12 2.15v2.37l-2.3 2.15V89.3zm3.1 4.54l-2.29-2.15v-2.23a9.3 9.3 0 0 0 2.3-2.3v6.67zm-5.8 2.95l2.42-2.25v55.15l0.28 4.51-5.12 5.18V96.69l2.42 2.26zm-3.81 60.53c0 1.77-3.24 5.9-4.8 6.85V96.72l2.39 2.23 2.41-2.25v62.78z" id="path_7"/><path fill="#D10429" d="M228.9 153.5l1.77-1.21 0.27 1.37c-0.76 1.04-5.1 6.95-7.25 9.84-0.53 0.72-0.98 2.54-0.98 2.54s-0.78-0.37-0.78-1.03 0.08-1.44 0.08-1.44-0.58 0.67-1.6 0.67c0-0.8 1.57-1.68 1.63-2.83-1.19 0.88-2.22 0.43-3.6 0.85-1.5 0.46-1.92 1.1-2.38 1.07-0.27-0.02-0.51-0.48-0.41-0.77 0.18-0.5 2.03-1.87 3.33-2.12 0.31-0.05 2.75 0.54 3.25-0.22l5.63-8.69c0.21-0.05 0.4-0.1 0.56-0.2 0 0-0.02 1.6 0.48 2.16z" id="path_8"/><path fill="#D10429" d="M217.55 163.23c0.1 0.11 0.1 0.28-0.01 0.37l-0.8 0.7c-0.1 0.08-0.27 0.06-0.37-0.05a0.26 0.26 0 0 1 0.02-0.37l0.8-0.7a0.24 0.24 0 0 1 0.18-0.05 0.3 0.3 0 0 1 0.18 0.1zm1.21 0.84c0.24 0.27 0.23 0.66-0.03 0.88l-1.93 1.69c-0.25 0.22-0.66 0.17-0.9-0.1s-0.22-0.68 0.03-0.9l1.94-1.67a0.6 0.6 0 0 1 0.34-0.14c0.2-0.02 0.4 0.07 0.55 0.24zm1.11 1.3c0.24 0.28 0.23 0.67-0.03 0.89l-1.95 1.69c-0.25 0.22-0.64 0.17-0.88-0.1-0.24-0.28-0.22-0.68 0.03-0.9l1.94-1.67a0.5 0.5 0 0 1 0.32-0.15 0.7 0.7 0 0 1 0.57 0.24zm0.68 1.04c0.19-0.01 0.4 0.06 0.55 0.23 0.23 0.27 0.22 0.68-0.03 0.9l-1.94 1.67c-0.25 0.22-0.64 0.18-0.88-0.1-0.24-0.27-0.24-0.66 0.01-0.88l1.95-1.69a0.6 0.6 0 0 1 0.33-0.13z" id="path_9"/><path fill="#000" d="M248.82 87.59l12.34 2.77c0.56-0.16 3.2-0.98 5.05-2.01 3.26-1.82 4.95-3.62 8.83-3.8v-2.94c0-1.57-0.57-2.99-0.57-4.5 1.63-0.43 6.16-5.96 10.34-8.42 6.16 3.98 10.92 10.51 10.92 13.52 0 0-0.18 64.55 0 87.03 0 1.3 0.78 3.13 0.78 3.13-2.24-0.95-6.36-6.58-7.23-8.71v1.02c-3.39-1.54-5.87-5.6-6.98-7.7l-0.08 1.06c-3.03-2.65-6.88-18.33-6.88-18.33l-6.43 6.3s2.32 4.72 3.23 5.57c0 0-0.61 0.07-1.3 0.07 0.43 0.6 3.66 5.25 4.67 7 0.95 1.64 1.62 0.91 3.08 0.91 1.2 0 3.94 1.93 4.4 2.7 0.47 0.82 0.82 1.81 0.82 2.63 0 0.9-0.96 2.13-0.96 2.13-0.1-0.43-0.28-0.58-0.28-0.58s-2.5 3.12-2.88 3.53c-0.28 0.31-1.56 0.52-2.02 0.11-1.13-1.03-2.22-1.74-3.23-3.23-0.52-0.76-0.55-1.64-1.15-2.46-2-2.74-5.95-8-6.86-9.2l-0.17 0.96c-1.03-2.07-5.96-6.02-5.96-6.02l-5.17 2.37s9.64 22.14 18.2 25.54c0 0-3.72 1.58-8.3 3.95l-2.04 1.1c-0.58-0.7-1.18-1.47-1.78-2.27a137.65 137.65 0 0 1-5.41-7.88c-0.19 1.1 1.26 4.5 3.7 8.68 0.48 0.82 0.98 1.68 1.54 2.56-0.62 0.35-1.24 0.7-1.85 1.08-4.53 2.72-8.79 5.85-10.36 8.72l-1.12-2.77 1.12-2.78V91.27l-0.56-1.38 0.55-2.3z" id="path_10"/><path fill="#B07F55" d="M248.83 188.43c1.6-1.73 4.94-3.85 8.7-5.8-4.55-8.14-6.8-21-5.74-23.56 0 0 1.86 6.67 4.14 10.47 2.1 3.52 4.7 7.48 7.21 10.42a57.24 57.24 0 0 1 5.78-2.13c-7.52-5.8-15.21-24.92-15.21-24.92l7.95-3.68s2.98 3.46 3.94 4.1c0 0 0.42-1.72 0.66-2.32 0 0 1.14 0.86 1.76 0.88l0.33-1.93c0.79 0.52 2.1 0.4 2.1 0.4-1.15-0.54-2.51-3.86-2.51-3.86l7.6-10.09s2.66 12.8 5.7 15.44V96.72l-2.4 2.23-3.65-3.4v-2.58l3.23 3v-7.8a26.2 26.2 0 0 1-1.05-1.71c-0.52 0.9-2.21 3.7-4.2 5.41-0.32-1.33-2.47-2.59-2.47-2.59s-0.77 2.09-1.95 2.6c-0.42-0.72-2.9-2.34-2.9-2.34s2.12 0.32 2.98 1.12c0.74-0.16 0.93-3.07 0.93-3.07s3.11 1.52 3.65 2.6c0.6-0.16 1.52-2.5 1.88-3.45-0.54-0.06-1.3-0.13-2.32-0.13-0.89 0-2.02 0.42-3.21 0.98-1.31 0.62-2.68 1.4-3.9 1.95-1.57 0.7-3.94 0.85-4.63 0.88 0.8 0.56 1.66 1.06 2.6 1.54 0 0-3.72-0.04-6.34-1.34-0.94-0.6-1.9-1.2-2.74-1.9a10 10 0 0 0 1.8 3.18 8.59 8.59 0 0 1-6.3-3.26c-0.26 0.66-0.72 1.72-1.43 2.63h-1.39v94.4l1.4 2.76zM277.17 77.4l-0.07 1.76v5.2c1.4-0.49 3.15-2.78 4-3.99v-0.7a2 2 0 0 0-0.68-1.43l0.84-0.3c0.32 0.37 0.67 0.9 0.67 1.6v0.42l2.5 2.69 2.46-3.73v-0.9c0-0.62-0.47-1.3-0.87-1.77l0.83-0.3c0.42 0.54 0.85 1.27 0.85 1.95v0.74l2.84 2.91 1.43-3.08a34.42 34.42 0 0 0-7.16-6.98s-5.71 5.25-7.64 5.91zm14.49 5.03v4.28l2 1.85V82.2c0-0.61-0.26-1.34-0.69-2.15l-1.3 2.37z" id="path_11"/><path fill="#B07F55" d="M285.45 84.08v2.65l2.3 2.14V80.6zm3.11 4.78l2.3-2.13v-3.1l-2.3-2.4zm-10.46-3.21c0.53 0.75 1.92 2.58 3.43 3.4v-7.27c-0.35 0.57-1.93 3.13-3.43 3.87zm4.24-3.5v6.7l2.3-2.12v-2.38zm9.32 7.15V96l2-1.87v-2.97zm-3.1 2.14v2.4l2.3 2.14V89.3zm-3.11-2.13v6.67l2.3-2.15v-2.37zm-3.1 2.15v2.37l2.28 2.15V89.3zM279.24 96l2.3-2.15v-2.23a9.3 9.3 0 0 1-2.3-2.3v6.67zm5.81 2.95l-2.42-2.25v55.15l-0.29 4.51 5.13 5.18V96.69l-2.42 2.26zm3.8 60.53c0 1.77 3.24 5.9 4.8 6.85V96.72l-2.38 2.23-2.42-2.25v62.78z" id="path_12"/><path fill="#D10429" d="M268.75 153.5l-1.76-1.21-0.27 1.37c0.75 1.04 5.1 6.95 7.24 9.84 0.53 0.72 0.98 2.54 0.98 2.54s0.79-0.37 0.79-1.03-0.1-1.44-0.1-1.44 0.6 0.67 1.6 0.67c0-0.8-1.56-1.68-1.62-2.83 1.2 0.88 2.23 0.43 3.6 0.85 1.5 0.46 1.92 1.1 2.38 1.07 0.27-0.02 0.51-0.48 0.41-0.77-0.18-0.5-2.03-1.87-3.33-2.12-0.3-0.05-2.75 0.54-3.24-0.22l-5.64-8.69c-0.2-0.05-0.4-0.1-0.55-0.2 0 0 0.01 1.6-0.49 2.16z" id="path_13"/><path fill="#D10429" d="M280.1 163.23c-0.1 0.11-0.1 0.28 0.01 0.37l0.8 0.7c0.1 0.08 0.27 0.06 0.37-0.05a0.27 0.27 0 0 0-0.01-0.37l-0.8-0.7a0.24 0.24 0 0 0-0.19-0.05 0.3 0.3 0 0 0-0.18 0.1zm-1.21 0.84a0.62 0.62 0 0 0 0.03 0.88l1.93 1.69c0.25 0.22 0.66 0.17 0.9-0.1s0.22-0.68-0.03-0.9l-1.93-1.67a0.61 0.61 0 0 0-0.35-0.14 0.67 0.67 0 0 0-0.55 0.24zm-1.11 1.3c-0.24 0.28-0.22 0.67 0.03 0.89l1.95 1.69c0.25 0.22 0.64 0.17 0.88-0.1 0.24-0.28 0.22-0.68-0.03-0.9l-1.93-1.67a0.58 0.58 0 0 0-0.33-0.15 0.7 0.7 0 0 0-0.57 0.24zm-0.67 1.04a0.66 0.66 0 0 0-0.55 0.23c-0.24 0.27-0.23 0.68 0.02 0.9l1.94 1.67c0.25 0.22 0.64 0.18 0.88-0.1 0.24-0.27 0.24-0.66-0.01-0.88l-1.95-1.69a0.55 0.55 0 0 0-0.33-0.13z" id="path_14"/><path fill="#B07F55" d="M245.97 60.56c3.19 0 5.43 1.45 8.44 2.79 0.8 0.35 1.52 0.63 2.16 0.85-0.4 0.36-0.72 0.72-0.8 1.02 0 0 1.34 0.25 1.96 1.38 0 0-1.29 0.15-1.5 0.9 0.72 0.05 1.44 0.96 1.44 1.83l-1.82-0.57s0.44 2.04 0.44 4.27c0 1.13-1.64 2.46-1.64 4.39 0 6.03 1.53 8.35 2.6 10.22 0.43 0.73 0.78 1.57 1.49 2.2-3.12-1.66-5.44-3.73-5.44-5.66V76.9h-0.81v7.3c0 1.39 0.34 2.04 0.34 2.04a27.37 27.37 0 0 0 2.1 4.89c-2.88-1.55-4.33-3.49-4.33-4.2V76.88h-0.81v10.16l0.15 0.7c-0.35 0.52-0.8 1.14-1.1 1.35a5.57 5.57 0 0 1-1.1-1.35l0.15-0.7V76.9h-0.8v10.02c0 0.72-1.47 2.66-4.34 4.2 0.62-0.95 1.6-3.34 2.1-4.88 0 0 0.34-0.65 0.34-2.05V76.9h-0.81v7.3c0 1.92-2.31 4-5.43 5.65 0.7-0.64 1.05-1.48 1.47-2.2 1.18-2.04 2.65-4.64 2.65-12.01 0-2.77-0.41-4.65-1.13-5.97-0.21-0.44-0.5-1.6 1.16-1.6 0.86 0 2.83 1.53 2.83 1.53s-0.08-1.22-1.08-1.9c-0.17-0.12-0.45-0.48-0.45-0.82 0-0.25 0.44-0.87 0.77-1.02 0.23-0.1-3.38-0.74-3.38-2.37 0-0.35 0.21-0.57 0.96-0.57 0.99 0 2.6 1.18 4.02 1.18 1.05 0 1.47-0.26 2.54-0.26 1.32 0 4.07 2.5 5.01 2.4-1.05-0.66-2.75-3.15-5.32-3.15-0.9 0-1.7 0.2-2.53 0.2-1.07 0-2.12-0.99-3.28-0.99-0.77 0-1.63 0.05-1.76-0.15-0.22-0.35-0.02-0.55 0.18-0.84 0.4-0.54 1.5-0.7 2.58-0.74 0.33-0.01 0.65-0.02 0.96-0.01l0.82 0.01z" id="path_15"/><path fill="#CC092F" d="M235.63 64.46s0.67-1.27 2.37-1.27a261 261 0 0 0 3.06-0.05c0.3 0.81 1.73 2.17 1.73 3.58 0 0-1.44-2.6-5.48-2.6-1.01 0-1.68 0.34-1.68 0.34z" id="path_16"/><path fill="#D10429" d="M242.19 67.21s-0.86 0.9-1.05 1.4c-0.85-0.33-2.33-1.86-2.33-1.86s1.26 0.74 3.38 0.46z" id="path_17"/><path fill="#000" d="M240.83 64.82s-1-0.32-1-0.65c0-0.43 0.49-0.43 0.78-0.1 0.2 0.23 0.22 0.75 0.22 0.75zm2.85 0.02a1.42 1.12 0 1 0 2.84 0 1.42 1.12 0 1 0-2.84 0z" id="path_18"/><path fill="#F5D402" d="M244.1 64.84a1 1 0 1 0 2 0 1 1 0 1 0-2 0z" id="path_19"/><path fill="#000" d="M244.1 64.84a1 1 0 1 0 2 0 1 1 0 1 0-2 0zm-21.82 103.32l4.98 1.21-1.2 4.98-4.99-1.21z" id="path_20"/><path fill="#000" d="M201.48 119.44l-1.62 0.74 18.33 40.1h1.95l-18.66-40.84zm21.62 47.29l-1.33 1.36 0.83 1.82 1.6-0.74-1.1-2.44z" id="path_21"/><path fill="#000" d="M207.18 151.05s1.54 3.19 2.71 3.63c-0.6-0.17-2.57 0.55-2.57 0.55s3.47 3.1 6.42 3.3c2.5 0.18 3.71-1.07 3.71-1.07l-0.5-2.64s-1.53-1.85-3.98-2.7a26.07 26.07 0 0 0-5.8-1.06zm11.64-5.7s-2.14 1.82-2.72 3.93c-0.58 2.11 0.38 4.51 0.38 4.51l1.8 3.34s2.48-1.32 3.53-3.3c1.06-1.97 0.67-4.63 0.67-4.63s-1.97 0.73-2.22 1.06c0.42-2.2-1.44-4.91-1.44-4.91zm-6.86-0.85s-2.42 0.82-4.78 0.67c-2.24-0.13-4.1-2.01-4.1-2.01s1.85-1.26 2.77-1.1c-1-0.36-2.47-2.88-2.47-2.88s2.08-0.63 3.92 0.06c1.85 0.7 3.46 2.71 3.46 2.71l1.2 2.55zm0.84-11.83s1.21 2.5 0.92 3.38c0.38-0.58 1.8-1.48 1.8-1.48s0.86 4.06 0.04 6.56a6.07 6.07 0 0 1-3.33 3.46l-2.76-5.36s-0.42-2 0.45-3.57c0.86-1.57 2.88-2.99 2.88-2.99zm-15.78-6.64s2.62-0.27 5.02 0.72c2 0.83 2.62 2.34 2.62 2.34l0.98 2.64s-2.85 1.07-5.1 0.26c-2.26-0.82-3.91-3.52-3.91-3.52s1.57-0.6 2.17-0.38c-0.87-0.38-1.78-2.06-1.78-2.06zm8.24-4.9s1.15 1.47 1.19 3.17c0.3-0.9 1.74-1.9 1.74-1.9s1.48 3.57 1.15 6.1c-0.32 2.54-2.45 4.04-2.45 4.04l-2.65-5.03s-0.86-2.06-0.6-3.65c0.25-1.6 1.62-2.73 1.62-2.73zm-9.07-9.61s-0.48 2.74 0.33 4.31c0.72 1.41 1.18 1.72 1.18 1.72-1.38-0.91-3.46-0.99-3.46-0.99s0.74 2.98 2.51 4.34c1.77 1.35 4.5 1.04 4.5 1.04s1.8-2.4 1.68-4.96c-0.13-2.57-2.17-5.33-2.17-5.33s-0.81 1.67-0.88 2.92c-0.52-1.29-3.7-3.05-3.7-3.05zm21.41 45.83l0.07 0.98c1.63 0.02 1.87-0.15 2.3 0.37 0.27 0.34 0.93 0.64 1.6 0.33 0.67-0.3 0.97-1.1 0.66-1.77-0.3-0.66-0.92-0.8-1.52-0.69-0.37 0.07-0.6 0.37-0.92 0.53-0.59 0.3-2.2 0.25-2.2 0.25z" id="path_22"/><path fill="#000" d="M217.45 156.6l0.8 0.58c-0.86 1.4-1.12 1.51-0.9 2.14 0.14 0.42 0.04 1.14-0.57 1.54-0.62 0.4-1.45 0.23-1.86-0.38-0.4-0.6-0.2-1.2 0.22-1.65 0.26-0.27 0.63-0.32 0.93-0.5 0.58-0.34 1.38-1.73 1.38-1.73zm-5.53-11.66l0.07 0.98c1.64 0.02 1.88-0.15 2.3 0.37 0.28 0.34 0.94 0.64 1.6 0.33 0.67-0.3 0.97-1.1 0.67-1.77-0.3-0.66-0.93-0.8-1.52-0.69-0.37 0.07-0.61 0.37-0.92 0.53-0.6 0.3-2.2 0.25-2.2 0.25z" id="path_23"/><path fill="#000" d="M212.25 145.29l0.7 0.7c-1.06 1.24-1.35 1.31-1.23 1.97 0.07 0.43-0.13 1.13-0.8 1.43-0.67 0.3-1.47 0-1.77-0.66-0.3-0.66-0.01-1.23 0.47-1.6 0.3-0.23 0.67-0.22 1-0.35 0.62-0.25 1.63-1.5 1.63-1.5zm-5.83-11.97l0.07 0.98c1.64 0.02 1.88-0.14 2.3 0.37 0.28 0.34 0.94 0.64 1.6 0.34 0.67-0.3 0.97-1.1 0.67-1.77-0.3-0.67-0.93-0.81-1.52-0.7-0.37 0.08-0.61 0.37-0.92 0.53-0.6 0.3-2.2 0.25-2.2 0.25z" id="path_24"/><path fill="#000" d="M206.87 133.12l0.7 0.7c-1.06 1.24-1.34 1.31-1.23 1.97 0.08 0.43-0.13 1.13-0.8 1.43-0.66 0.3-1.47 0-1.77-0.66-0.3-0.67 0-1.23 0.47-1.6 0.3-0.23 0.68-0.22 1-0.35 0.62-0.25 1.63-1.5 1.63-1.5zm-6.31-12.06l0.07 0.98c1.64 0.01 1.88-0.15 2.3 0.36 0.28 0.35 0.94 0.65 1.6 0.34 0.68-0.3 0.98-1.1 0.67-1.77-0.3-0.67-0.92-0.81-1.52-0.7-0.37 0.08-0.6 0.37-0.92 0.53-0.6 0.3-2.2 0.26-2.2 0.26z" id="path_25"/><path fill="#000" d="M201.01 120.85l0.7 0.7c-1.06 1.24-1.34 1.32-1.23 1.97a1.36 1.36 0 0 1-2.57 0.78c-0.3-0.67 0-1.23 0.47-1.6 0.3-0.24 0.68-0.23 1-0.36 0.62-0.24 1.63-1.49 1.63-1.49z" id="path_26"/><path fill="#F5D402" d="M223 169.35l3.08 0.74-0.75 3.1-3.09-0.75zm-12.12-27.32c-0.58 0.24-1.45-2.3-2.09-3.7-0.65-1.43-1.98-3.63-1.6-3.8 0.4-0.2 0.95 0.96 1.62 2.43 0.67 1.46 2.62 4.84 2.07 5.07zm-6.01-13.41c-0.59 0.25-1.23-1.42-1.87-2.81-0.65-1.44-1.29-2.45-0.91-2.62 0.41-0.19 1.03 1.07 1.56 2.24 0.52 1.13 1.77 2.97 1.22 3.2zm13.91 30.4c-0.46 0.12-2.47-4.07-4.09-7.62-1.62-3.55-2.83-6.42-2.45-6.59 0.41-0.19 1.73 3.16 3.35 6.71s3.53 7.4 3.19 7.5z" id="path_27"/><path fill="#097754" d="M197 113.18s-0.08 2 0.58 3.14a4.17 4.17 0 0 0 2.14 1.58s0.08-2-0.59-3.13c-0.66-1.13-2.14-1.59-2.14-1.59zm-1.4 4.52s1.75 0.1 2.75 0.88c1 0.77 1.4 2.37 1.4 2.37s-1.16 0.11-2.16-0.65c-1-0.77-1.98-2.6-1.98-2.6zm5.46-4.03s-0.57 1.33-0.5 2.75c0.06 1.43 0.9 3.04 0.9 3.04s0.75-1.72 0.68-3.14c-0.06-1.43-0.87-2.25-1.08-2.65zm-2.92 12.87s0.85 1.2 2.17 1.84c1.31 0.65 3.27 0.67 3.27 0.67s-0.98-1.26-2.3-1.91c-1.3-0.65-3.14-0.6-3.14-0.6zm0.42 2.76s0.63 1.23 1.77 1.76c1.15 0.53 3.5 0.48 3.5 0.48s-0.9-1.14-2.05-1.67-3.22-0.56-3.22-0.56zm6.61-6.54s-0.7 1.14-0.63 2.4c0.07 1.27 0.9 2.65 0.9 2.65s0.58-1.58 0.51-2.85c-0.06-1.26-0.78-2.2-0.78-2.2zm2.55 1.62s-1.18 1.59-1.35 3.22a6.92 6.92 0 0 0 0.67 3.32s1.43-1.44 1.6-3.07c0.18-1.64-0.92-3.47-0.92-3.47zm-3.27 15.1s0.14 0.59 0.64 1.21c0.5 0.63 1.34 1.29 1.34 1.29s0.82-0.26 1.84-0.04a8.93 8.93 0 0 1 2.38 1.12s-1.46-2.17-2.98-3.02c-1.51-0.84-3.22-0.56-3.22-0.56zm-0.15 3.74s1.89-0.8 3.44-0.6a6.6 6.6 0 0 1 2.96 1.44s-2.1 0.72-3.65 0.51a5.47 5.47 0 0 1-2.75-1.35zm7.98-8.77s-1.67 1.77-1.8 3.3c-0.15 1.53 1.35 2.96 1.35 2.96s-0.08-0.98 0.18-1.63c0.26-0.65 0.8-1.34 0.8-1.34s0.24-0.79 0.15-1.42c-0.13-0.88-0.68-1.87-0.68-1.87zm2.4 2.05s-1.57 1.59-2 3.29c-0.4 1.7 0.33 3.52 0.33 3.52s1.44-1.13 1.85-2.83c0.42-1.7-0.18-3.98-0.18-3.98zm3.94 10.26s0.71 1.49 0.9 2.73c0.18 1.25 0 1.68 0 1.68s-0.73 0.72-1.06 1.14c-0.42 0.55-0.49 1.55-0.49 1.55s-1.48-2.2-1.25-3.8c0.23-1.6 1.9-3.3 1.9-3.3zm3.12 3.44s-1.9 1.25-2.65 2.53c-0.75 1.29-0.36 2.6-0.36 2.6s1.35-0.12 2.1-1.4c0.76-1.28 0.91-3.73 0.91-3.73zm-12.45 5.28s2.73-0.07 4.4 0.34c1.67 0.4 2.27 1.3 2.27 1.3s-1.87 0.88-3.54 0.47c-1.67-0.41-3.13-2.1-3.13-2.1zm-0.47-3.23s1.24 1.9 2.83 2.6c2.2 0.95 4.74 0.49 4.74 0.49s-1.38-1.7-3.28-2.44c-1.9-0.75-4.29-0.65-4.29-0.65z" id="path_28"/><path fill="#000" d="M302.36 114.78l0.35 0.76s-0.58 0.2-0.84 0.7c-0.26 0.52 0.17 1.24 0.17 1.24s-3-0.26-3.47 0.05c-0.42 0.27 0.18 2.35-0.1 4.1-0.39 2.45-1.35 2.24-1.4 2.72-0.03 0.46 0.38 1.18 0.38 1.18s-0.57 0.17-0.69 0.4c-0.2 0.39 0.14 1.08-0.1 1.54l-4.5 8.84c-0.19 0.35-0.67 0.49-0.9 0.96-0.23 0.43-0.05 1.06-0.05 1.06s-0.84 0.05-1.14 0.63c-0.3 0.6-0.13 1.43-0.13 1.43s-0.53 0.07-0.8 0.58c-0.27 0.55 0.2 0.84 0.08 1.09l-4.97 9.73c-0.45 0.89-2.04 1.07-2.96 2.87-0.9 1.75 0.39 3.04 0.39 3.04s-1.33 0.12-1.68 0.81c-0.36 0.7-0.08 1.78 0.88 2.26 0.96 0.49 2 0.1 2.36-0.6 0.35-0.7-0.35-1.84-0.35-1.84s1.8 0.26 2.69-1.5c0.92-1.8 0.14-3.17 0.6-4.06l4.96-9.73c0.12-0.25 0.63-0.04 0.91-0.59 0.26-0.51 0-0.98 0-0.98s0.79-0.34 1.1-0.95c0.3-0.57-0.16-1.3-0.16-1.3s0.62-0.21 0.84-0.65c0.24-0.47 0.06-0.93 0.24-1.28l4.51-8.84c0.24-0.46 1-0.61 1.19-1 0.12-0.23-0.08-0.79-0.08-0.79s0.84-0.08 1.19-0.38c0.36-0.31-0.38-0.98 1.38-2.73 1.25-1.26 3.28-2 3.26-2.5-0.03-0.56-2.01-2.83-2.01-2.83s0.83-0.07 1.1-0.58c0.26-0.51 0.08-1.11 0.08-1.11l0.83-0.14v-3.91l-3.16 2.3zm-27.29 54.44a0.97 0.97 0 0 0 0 0.86s-1-0.3-1.34-0.14c-0.32 0.16 0 4.85 0 4.85s3.98-2.5 3.92-2.86c-0.07-0.38-0.9-1-0.9-1a0.95 0.95 0 0 0 0.7-0.5c0.13-0.26 0.15-1-0.76-1.46a1.6 1.6 0 0 0-0.88-0.2 0.94 0.94 0 0 0-0.74 0.45z" id="path_29"/><path fill="#F5D402" d="M303.08 114.94l1.88 0.95-0.03-2.26zm-0.73 1.36c-0.24 0.48 0 1.08 0.53 1.35 0.53 0.28 1.15 0.1 1.4-0.37 0.24-0.47 0-1.07-0.53-1.35-0.2-0.1-0.41-0.14-0.61-0.12a0.93 0.93 0 0 0-0.79 0.5zm-3.23 1.72c-0.2 0.13 0.07 1.82 0.02 3.26-0.06 1.35-0.5 1.74-0.73 2.2-0.22 0.43-1 0.94-1 0.94l0.65 0.65s0.42-0.66 1.1-1.97c0.78-1.55 0.76-4.36 0.99-4.5 0.2-0.14 1.85-0.55 1.85-0.55s-1.51-0.08-2.35-0.07c-0.28 0-0.48 0.01-0.53 0.04z" id="path_30"/><path fill="#F5D402" d="M299.3 125.83s0.21-0.61 0.98-2.1c0.92-1.81 2.88-3.12 2.93-3.45 0.05-0.33-0.68-1.92-0.68-1.92s-1.74 0.34-1.98 0.57c-0.24 0.23-0.14 2.58-1.06 4.38-0.76 1.5-1.13 2.05-1.13 2.05l0.94 0.47z" id="path_31"/><path fill="#F5D402" d="M303.72 120.41c0.02 0.28-2.27 1.9-3.06 3.45a24.43 24.43 0 0 0-0.95 2.05l0.9 0.14s-0.05-0.93 0.17-1.36c0.23-0.47 0.3-1.04 1.36-1.88 1.13-0.89 2.66-1.67 2.65-1.9-0.01-0.22-1.7-2.32-1.7-2.32s0.62 1.58 0.63 1.82zm-6.69 10.13c1.37-2.69 1.8-2.87 1.97-3.2 0.18-0.37 0.14-0.86-0.47-1.17a1.05 1.05 0 0 0-0.6-0.13 0.78 0.78 0 0 0-0.61 0.44c-0.18 0.34-0.08 0.8-1.46 3.48l-3.11 6.1s-0.33 0.6 0.28 0.9c0.61 0.32 0.88-0.3 0.88-0.3l3.12-6.12zm-5.51 7c-0.17 0.33 0.13 0.82 0.66 1.1 0.53 0.26 1.11 0.21 1.28-0.12 0.17-0.34-0.14-0.83-0.67-1.1a1.52 1.52 0 0 0-0.77-0.17c-0.23 0.02-0.41 0.12-0.5 0.29zm-1.15 1.73c-0.22 0.43 0.12 1.05 0.77 1.38 0.64 0.33 1.35 0.25 1.56-0.19 0.23-0.43-0.12-1.05-0.76-1.37a1.76 1.76 0 0 0-0.72-0.2c-0.38-0.02-0.71 0.11-0.85 0.38zm-0.72 1.93c-0.17 0.34 0.12 0.83 0.65 1.1 0.53 0.27 1.11 0.22 1.28-0.12 0.17-0.33-0.12-0.82-0.65-1.09a1.5 1.5 0 0 0-0.79-0.17c-0.23 0.02-0.41 0.12-0.5 0.28zm-0.47 1.85l-4.69 9.2c-0.39 0.76-2.03 1.24-2.67 2.5-0.65 1.27-0.2 2.45 0.65 2.88 0.85 0.43 2.09 0.12 2.73-1.15 0.65-1.26 0.07-2.87 0.46-3.64l4.68-9.2s0.34-0.59-0.27-0.9a0.66 0.66 0 0 0-0.4-0.07c-0.33 0.04-0.5 0.38-0.5 0.38zm-8.76 15.79c-0.26 0.5 0.04 1.19 0.67 1.5 0.63 0.33 1.36 0.17 1.62-0.33 0.26-0.51-0.05-1.19-0.68-1.51a1.47 1.47 0 0 0-0.71-0.17c-0.4 0.01-0.74 0.2-0.9 0.51zm-4.61 10.39c-0.2 0-0.36 0.07-0.43 0.2-0.13 0.26 0.14 0.67 0.61 0.9 0.48 0.25 0.97 0.23 1.1-0.03 0.13-0.26-0.14-0.67-0.61-0.91a1.39 1.39 0 0 0-0.67-0.16zm-1.62 1.27v3.36l2.73-1.96s-0.37-0.65-1.18-1.06c-0.81-0.42-1.55-0.33-1.55-0.33zm1.73-74.7c0-1.83 2.42-3.64 2.42-3.64h-59.01s2.42 1.8 2.42 3.65v43.86c0 1.15 0.35 1.9 0.92 2.64 0.57 0.8 1.78 1.89 3.03 2.7 3.88 2.51 10.36 5.16 15.26 7.4 4.09 1.85 5.75 2.6 7.87 5.22 2.13-2.62 3.8-3.37 7.89-5.23 4.9-2.23 11.38-4.88 15.25-7.39a12.2 12.2 0 0 0 3.04-2.7 4 4 0 0 0 0.9-2.64V95.8z" id="path_32"/><path fill="#D10429" d="M223.14 120.62V95.81c0-1.4-0.71-2.26-0.71-2.26h52.8s-0.7 0.85-0.7 2.26v24.81l-25.69 7.78-25.7-7.78z" id="path_33"/><path fill="#0B45BB" d="M274.54 120.62l-15.91-0.3h-19.58l-15.9 0.3v19.05c0 0.95 0.99 3.2 6.72 6.05 9.49 4.72 16.78 6.92 18.96 9.6 2.19-2.68 9.48-4.88 18.96-9.6 5.74-2.85 6.73-5.1 6.73-6.05l0.02-19.05z" id="path_34"/><path fill="#000" d="M258.24 119.63s9.18-2.31 9.18-12.11c0-7.65-9.2-11.45-9.46-13.27-0.9 3.16 3.07 7.52 3.07 12.69 0 6.68-4.94 7-4.94 7-1.15 0-1.62 0.83-2.08 0.83-0.97-0.1-1.43-1.34-2.39-1.34-0.9 0-1.6 1.4-2.79 1.4-1.2 0-1.87-1.4-2.77-1.4-0.96 0-1.42 1.24-2.4 1.34-0.45 0-0.92-0.83-2.07-0.83 0 0-4.94-0.32-4.94-7 0-5.17 3.97-9.54 3.07-12.7-0.26 1.83-9.46 5.63-9.46 13.28 0 9.8 9.18 12.1 9.18 12.1l-2.62 4.77s3.8 0.19 5.8 1.9c2.44 2.07 2.2 6.45 2.2 9.64 0 2.51-0.32 5.16-1.6 6.25-1.74 1.47-2.91 1.58-2.91 3.3 0 1.44 1.1 1.72 2.9 2.67 2.3 1.22 2.2 2.84 5.62 2.84 3.43 0 3.33-1.62 5.64-2.84 1.8-0.95 2.9-1.23 2.9-2.67 0-1.72-1.17-1.83-2.9-3.3-1.3-1.09-1.6-3.74-1.6-6.25 0-3.19-0.25-7.57 2.18-9.64 2.02-1.71 5.8-1.9 5.8-1.9l-2.6-4.76z" id="path_35"/><path fill="#000" d="M248.83 94.93l-1.6 4.52-4.33-2.07 2.06 4.34-4.53 1.6 4.53 1.61-2.06 4.32 4.34-2.06 1.6 4.52 1.6-4.52 4.34 2.06-2.06-4.32 4.52-1.6-4.52-1.61 2.06-4.34-4.34 2.07zm-9.78 25.4s-5.66-1.39-7.78-4.18c-3.7 3.32-8.13 4.47-8.13 4.47s4.62 2.09 8.13 4.74c1.62-2.32 7.78-5.03 7.78-5.03zm19.57 0s6.17 2.71 7.79 5.03c3.5-2.65 8.13-4.74 8.13-4.74s-4.43-1.15-8.13-4.47c-2.12 2.8-7.79 4.18-7.79 4.18zm-17.25 6.02l-2.2 2.2 2.2 2.2 2.21-2.2zm14.93 0l-2.2 2.2 2.2 2.2 2.21-2.2zm-15.48 12.86c0 2.78-0.27 4.25-0.27 4.25s3.1-0.91 3.73-4.06c0.29-1.48 0.61-6.92-0.88-7.85l-4.06-0.8a24.8 24.8 0 0 1 1.48 8.46zm13.46-7.66c-1.5 0.93-1.17 6.37-0.88 7.85 0.62 3.15 3.73 4.06 3.73 4.06s-0.27-1.47-0.27-4.25a24.7 24.7 0 0 1 1.48-8.45l-4.06 0.8zm-23.02 0.15a2.61 2.61 0 0 0-1.65 3.78 2.58 2.58 0 0 0-0.92-0.13 2.6 2.6 0 1 0 0.54 5.17 2.63 2.63 0 0 0 1.14 3.97 2.63 2.63 0 0 0 3.56-2.08 2.62 2.62 0 0 0 4.13 0.14 2.6 2.6 0 0 0-0.87-4 2.62 2.62 0 0 0 1.4-3.88 2.6 2.6 0 0 0-3.6-0.81 2.6 2.6 0 0 0-0.49 0.4 2.62 2.62 0 0 0-3.25-2.54zm27.74 7.6a6.68 6.68 0 0 0 5.13 5.53 5.9 5.9 0 0 1-0.85-2.46c-0.34-3.16 2.1-5.72 5.45-5.72 0.53 0 1.04 0.07 1.54 0.19a6.9 6.9 0 0 0-5.81-3.27c-3.34 0-5.79 2.57-5.45 5.73z" id="path_36"/><path fill="#FFD200" d="M235.32 106.93c0 5.04 2.68 8 6.27 8 0.69 0 1.44 0.93 2.08 0.93 1.05 0 1.75-1.17 2.4-1.17 0.8 0 1.36 1.28 2.77 1.28s1.97-1.28 2.79-1.28c0.64 0 1.34 1.17 2.39 1.17 0.64 0 1.4-0.92 2.08-0.92 3.59 0 6.27-2.97 6.27-8 0-4.11-3.45-9.11-3.07-9.93 0 0 6.73 4.83 6.73 10.5 0 9.16-9.3 11.42-9.3 11.42l2.1 4.7s-2.88 0.43-4.64 1.85c-2.35 1.89-2.38 7-2.38 10.45 0 4.06 0.15 5.79 1.63 6.89 1.55 1.16 2.71 1.41 2.71 2.6 0 1.03-1.2 1.46-2.77 2.15-1.78 0.78-1.96 2.14-4.54 2.14s-2.74-1.36-4.53-2.14c-1.56-0.7-2.77-1.12-2.77-2.15 0-1.19 1.16-1.44 2.72-2.6 1.47-1.1 1.62-2.83 1.62-6.9 0-3.45-0.03-8.55-2.38-10.44-1.76-1.42-4.64-1.85-4.64-1.85l2.1-4.7s-9.3-2.26-9.3-11.41c0-5.68 6.73-10.5 6.73-10.5 0.38 0.8-3.07 5.81-3.07 9.91zm10 37.8c-1.82 0-2.99 0.38-2.99 0.93 0 0.56 1.17 0.93 3 0.93 0.48 0 1.03-0.29 1.03-0.93 0-0.64-0.55-0.94-1.04-0.94zm7.05 0c-0.49 0-1.04 0.3-1.04 0.93 0 0.64 0.55 0.93 1.04 0.93 1.82 0 2.99-0.37 2.99-0.93 0-0.55-1.17-0.94-3-0.94z" id="path_37"/><path fill="#FFD200" d="M248.85 97.97l1.03 2.88 2.76-1.32-1.31 2.77 2.88 1.02-2.88 1.03 1.3 2.75-2.75-1.3-1.04 2.87-1.03-2.87-2.76 1.3 1.31-2.75-2.87-1.03 2.87-1.02-1.3-2.77 2.74 1.32 1.04-2.88zm-12.82 22.52l-4.76 3.53-0.05 0.07-0.1-0.09-5.27-3.3s3.36-1.15 5.35-3.15a11.2 11.2 0 0 0 4.84 2.95zm35.81 0.22s-3.5 1.74-5.27 3.3l-0.1 0.08-0.06-0.07c-1.66-1.9-4.75-3.53-4.75-3.53s2.97-0.81 4.84-2.95c1.98 2.01 5.34 3.17 5.34 3.17zm-30.46 6.69l1.15 1.15-1.15 1.17-1.17-1.17zm14.93 0l1.17 1.15-1.17 1.17-1.15-1.17zm-13.36 5.03c0.8 1.1 0.67 2.9 0.67 5.4a3.9 3.9 0 0 1-1.9 3.48c0-6.05-0.62-7.5-0.95-9.34l2.18 0.46zm13.97-0.46c-0.33 1.84-0.95 3.3-0.95 9.34 0 0-1.9-0.96-1.9-3.48 0-2.5-0.13-4.3 0.67-5.4l2.18-0.46zM234 134.26a1.97 1.97 0 0 1-0.1 1.18 2.94 2.94 0 0 0-3.22 0.82 2.03 2.03 0 0 1-0.63-1.02 2.03 2.03 0 0 1 3.94-0.98zm3.03 3.79a1.97 1.97 0 0 1-1.15 0.3 2.94 2.94 0 0 0-1.78-2.8 2.03 2.03 0 0 1 0.78-0.94 2.03 2.03 0 0 1 2.15 3.45zm-2.68 4.06a1.97 1.97 0 0 1-0.62-1 2.94 2.94 0 0 0 2.12-2.56 2.03 2.03 0 0 1 1.12 0.45 2.03 2.03 0 0 1-2.62 3.11zm-4.68-1.29a1.97 1.97 0 0 1 0.76-0.9 2.94 2.94 0 0 0 3.09 1.22 2.03 2.03 0 0 1-0.09 1.2 2.03 2.03 0 0 1-3.76-1.52zm-0.22-4.85a1.97 1.97 0 0 1 1.1 0.45 2.94 2.94 0 0 0-0.21 3.31 2.03 2.03 0 0 1-1.18 0.3 2.03 2.03 0 0 1 0.29-4.06zm1.49 2.27a1.96 1.96 0 1 0 3.92 0 1.96 1.96 0 1 0-3.92 0zm36.44-2.64a6.37 6.37 0 0 0-5.26 6.86 5.1 5.1 0 0 1-1.94-3.3c-0.26-2.49 1.55-4.41 4.28-4.41a5.6 5.6 0 0 1 2.92 0.85z" id="path_38"/><path fill="#0046AE" d="M0 0h167v250H0z" id="path_39"/></svg>