<svg id="vector" xmlns="http://www.w3.org/2000/svg" width="24" height="24" viewBox="0 0 512 512"><path fill="#002266" d="M512 256C512 397.385 397.385 512 256 512C114.615 512 0 397.385 0 256L256 0C397.385 0 512 114.615 512 256Z" id="path_0"/><path fill="#002266" d="M256 0V256H0C0 114.615 114.615 0 256 0Z" id="path_1"/><path fill="#EEEEEE" d="M217.562 256H256V217.562L140.688 102.25H256V0C114.615 0 0 114.615 0 256H102.25V140.688L217.562 256Z" id="path_2"/><path fill="#D80027" d="M256 76.625V25.375H144.743C92.7292 50.5133 50.5133 92.7292 25.375 144.743V256H76.625V76.625H256Z" id="path_3"/><path fill="#D80027" d="M256 230.375V256L102.25 102.25H127.875L256 230.375Z" id="path_4"/><path fill="#D80027" d="M451.356 200.349L456.881 217.355H474.762L460.296 227.865L465.822 244.87L451.356 234.361L436.889 244.87L442.415 227.865L427.948 217.355H445.829L451.356 200.349Z" id="path_5"/><path fill="#EEEEEE" d="M451.356 189.994L459.206 214.155H484.611L464.058 229.087L471.909 253.247L451.356 238.316L430.802 253.247L438.653 229.087L418.099 214.155H443.504L451.356 189.994ZM451.355 210.704L448.154 220.555H437.797L446.177 226.643L442.976 236.493L451.356 230.406L459.735 236.493L456.534 226.643L464.913 220.555H454.556L451.355 210.704Z" fill-rule="evenodd" id="path_6"/><path fill="#D80027" d="M387.437 322.783L395.726 348.293H422.547L400.847 364.057L409.137 389.566L387.437 373.801L365.737 389.566L374.027 364.057L352.327 348.293H379.148L387.437 322.783Z" id="path_7"/><path fill="#EEEEEE" d="M387.437 312.428L398.051 345.093H432.396L404.609 365.279L415.224 397.944L387.437 377.756L359.649 397.944L370.265 365.279L342.477 345.093H376.823L387.437 312.428ZM387.437 333.138L381.473 351.493H362.176L377.789 362.834L371.824 381.188L387.437 369.845L403.049 381.188L397.085 362.834L412.697 351.493H393.401L387.437 333.138Z" fill-rule="evenodd" id="path_8"/><path fill="#D80027" d="M389.851 122.436L396.759 143.695H419.11L401.026 156.83L407.934 178.088L389.851 164.949L371.769 178.088L378.676 156.83L360.594 143.695H382.944L389.851 122.436Z" id="path_9"/><path fill="#EEEEEE" d="M389.85 112.081L399.084 140.495H428.961L404.788 158.052L414.021 186.467L389.851 168.904L365.682 186.467L374.914 158.052L350.744 140.495H380.619L389.85 112.081ZM389.851 132.791L385.269 146.895H370.444L382.438 155.607L377.856 169.709L389.851 160.993L401.846 169.709L397.264 155.607L409.259 146.895H394.434L389.851 132.791Z" fill-rule="evenodd" id="path_10"/><path fill="#D80027" d="M328.348 199.607L336.636 225.117H363.458L341.758 240.881L350.048 266.39L328.348 250.625L306.648 266.39L314.938 240.881L293.238 225.117H320.059L328.348 199.607Z" id="path_11"/><path fill="#EEEEEE" d="M328.348 189.251L338.961 221.917H373.307L345.52 242.103L356.135 274.768L328.348 254.58L300.56 274.768L311.176 242.103L283.388 221.917H317.734L328.348 189.251ZM328.348 209.963L322.384 228.317H303.087L318.7 239.659L312.735 258.012L328.348 246.67L343.96 258.012L337.996 239.659L353.608 228.317H334.311L328.348 209.963Z" fill-rule="evenodd" id="path_12"/></svg>