<svg id="vector" xmlns="http://www.w3.org/2000/svg" width="24" height="24" viewBox="0 0 512 512"><path fill="#EEEEEE" d="M512 256A256 256 0 0 1 0 256A256 256 0 0 1 512 256Z" id="path_0"/><path fill="#0052B4" d="M245.585 512C109.029 506.536 -0.00000515338 394.104 -0.000011181 256.208C-0.0000111841 256.139 0.0000163827 256.069 0.0000715089 256L256 256L256 512L245.585 512Z" id="path_1"/><path fill="#D80027" d="M266.415 -0.0000107349C402.971 5.4642 512 117.896 512 255.792C512 255.861 512 255.931 512 256L256 256L256 -0.0000111901L266.415 -0.0000107349Z" id="path_2"/><path fill="#0052B4" d="M150.08 76.1599L166.676 127.237H220.382L176.933 158.805L193.529 209.882L150.08 178.315L106.631 209.882L123.227 158.805L79.7779 127.237H133.484L150.08 76.1599Z" id="path_3"/><path fill="#D80027" d="M361.92 288L378.516 339.077H432.222L388.773 370.645L405.369 421.723L361.92 390.155L318.471 421.723L335.067 370.645L291.618 339.077H345.324L361.92 288Z" id="path_4"/></svg>