<svg id="vector" xmlns="http://www.w3.org/2000/svg" width="24" height="24" viewBox="0 0 512 512"><path fill="#EEEEEE" d="M136 482.19C171.792 501.219 212.637 512 256 512C299.363 512 340.208 501.219 376 482.19L376 29.8097C340.208 10.7813 299.363 -0.00000334991 256 -0.00000524537C212.637 -0.00000714082 171.792 10.7813 136 29.8096L136 482.19Z" id="path_0"/><path fill="#D80027" d="M168 496.474C69.9657 460.589 -0.00001534 366.465 -0.0000105114 256C-0.00000568287 145.535 69.9657 51.4113 168 15.5261L168 496.474Z" id="path_1"/><path fill="#D80027" d="M344 496.474L344 15.5264C442.034 51.4116 512 145.535 512 256C512 366.465 442.034 460.589 344 496.474Z" id="path_2"/></svg>