<svg id="vector" xmlns="http://www.w3.org/2000/svg" width="32" height="16" viewBox="0 0 500 250"><path fill="#0038A8" d="M0 0h500v250H0z" stroke-width="1" id="path_0"/><path fill="#CE1126" d="M0 125h500v125H0z" stroke-width="1" id="path_1"/><path fill="#FFFFFF" d="M216.506 125L0 250V0" stroke-width="1" id="path_2"/><path fill="#FCD116" d="M12.5 21.651l7.525 6.503 8.713-4.796-3.859 9.166 7.254 6.804-9.91-0.838-4.23 9.002-2.266-9.684-9.868-1.241 8.51-5.147zm169.409 90.14l0.203 9.944 9.394 3.265-9.394 3.265-0.203 9.944-6.009-7.925-9.52 2.88 5.681-8.164-5.681-8.164 9.52 2.88zM17.993 202.508l4.23 9.002 9.91-0.838-7.254 6.804 3.859 9.166-8.713-4.796-7.525 6.503 1.869-9.768-8.51-5.147 9.868-1.241zM77.778 72.222l-3.246 3.246 1.61 24.585c-0.548 0.035-1.089 0.088-1.627 0.158L71.56 77.777l-2.649 2.649 3.988 20.052c-3.28 0.649-6.329 1.938-9.012 3.734L52.53 87.214h-3.747l13.775 17.955c-0.432 0.332-0.851 0.68-1.26 1.039L45.049 87.679h-4.592v4.592l18.529 16.249c-0.36 0.41-0.707 0.831-1.039 1.264L39.992 96.005v3.747l17.001 11.361c-1.796 2.682-3.088 5.729-3.737 9.008l-20.052-3.988-2.649 2.649 22.434 2.956c-0.07 0.537-0.123 1.079-0.159 1.626l-24.584-1.61L25 125l3.246 3.246 24.584-1.61c0.036 0.548 0.089 1.092 0.159 1.63l-22.434 2.952 2.649 2.649 20.052-3.988c0.649 3.28 1.937 6.329 3.734 9.011l-16.998 11.358v3.747l17.955-13.775c0.332 0.432 0.679 0.85 1.039 1.26l-18.529 16.249v4.591h4.592l16.249-18.528c0.41 0.36 0.83 0.706 1.263 1.039l-13.778 17.955h3.747l11.361-17.001c2.681 1.797 5.728 3.091 9.008 3.74l-3.988 20.049 2.649 2.649 2.955-22.434c0.537 0.07 1.079 0.123 1.627 0.158l-1.61 24.585 3.246 3.246 3.246-3.246-1.61-24.585c0.547-0.035 1.089-0.088 1.626-0.158l2.956 22.434 2.648-2.649-3.988-20.052c3.281-0.649 6.33-1.938 9.012-3.734l11.357 16.998h3.748l-13.775-17.955c0.432-0.332 0.85-0.68 1.26-1.039l16.249 18.528h4.591v-4.591L96.57 141.48c0.36-0.41 0.706-0.831 1.039-1.263l17.954 13.778v-3.747l-17.001-11.361c1.796-2.682 3.089-5.729 3.738-9.008l20.052 3.988 2.649-2.649-22.434-2.956c0.07-0.537 0.123-1.079 0.158-1.626l24.585 1.61 3.246-3.246-3.246-3.246-24.585 1.61c-0.035-0.547-0.088-1.089-0.158-1.626l22.434-2.956-2.649-2.649-20.052 3.988c-0.649-3.28-1.938-6.329-3.734-9.011l16.997-11.358v-3.747L97.609 109.78c-0.332-0.432-0.68-0.851-1.039-1.26l18.528-16.249v-4.592h-4.591l-16.249 18.529c-0.41-0.36-0.831-0.707-1.264-1.039l13.779-17.955h-3.748l-11.36 17.001c-2.682-1.795-5.729-3.088-9.009-3.737l3.988-20.052-2.648-2.649-2.956 22.434c-0.537-0.07-1.079-0.123-1.626-0.158l1.61-24.585-3.246-3.246z" stroke-width="1" id="path_3"/></svg>