<svg id="vector" xmlns="http://www.w3.org/2000/svg" width="24" height="24" viewBox="0 0 512 512"><path fill="#D80027" d="M376 29.8097C340.208 10.7813 299.363 -0.00000714082 256 -0.00000524537C212.637 -0.00000334991 171.792 10.7813 136 29.8097L136 482.19C171.792 501.219 212.637 512 256 512C299.363 512 340.208 501.219 376 482.19L376 29.8097Z" id="path_0"/><path fill="#D80027" d="M344 15.526C442.034 51.4112 512 145.535 512 256C512 366.465 442.034 460.588 344 496.474L344 15.526Z" id="path_1"/><path fill="#496E2D" d="M168 15.526L168 496.474C69.9657 460.588 -0.00000568287 366.465 -0.0000105114 256C-0.00001534 145.535 69.9657 51.4112 168 15.526Z" id="path_2"/><path fill="#FFDA44" d="M167 345C216.153 345 256 305.153 256 256C256 206.847 216.153 167 167 167C117.847 167 78 206.847 78 256C78 305.153 117.847 345 167 345Z" id="path_3"/><path fill="#D80027" d="M108.5 202.6V267.5C108.5 288.4 119.6 307.6 137.7 318.1C155.8 328.5 178.1 328.5 196.2 318.1C214.3 307.6 225.4 288.4 225.4 267.5V202.5H108.6L108.5 202.6Z" id="path_4"/><path fill="#EEEEEE" d="M167 304.2C148.1 304.2 132.7 288.8 132.7 269.9V224.6H201.3V269.7C201.3 288.6 185.9 304 167 304V304.2Z" id="path_5"/><path fill="#0052B4" d="M167 249.6C163.3 249.6 160.2 246.6 160.2 242.9V233.9H173.8V242.8C173.8 246.6 170.7 249.6 167 249.6ZM167 292.8C163.3 292.8 160.2 289.7 160.2 286V277.1H173.8V286C173.8 289.7 170.7 292.7 167 292.7V292.8ZM160.2 264.4C160.2 268.2 163.3 271.2 167 271.2C170.7 271.2 173.8 268.1 173.8 264.4V255.5H160.2V264.4ZM147.2 271.2C143.5 271.2 140.5 268.2 140.5 264.4V255.5H154V264.4C154 268.1 151 271.2 147.2 271.2ZM180 264.4C180 268.2 183 271.2 186.8 271.2C190.5 271.2 193.5 268.1 193.5 264.4V255.5H180V264.4Z" fill-rule="evenodd" id="path_6"/></svg>