<svg id="vector" xmlns="http://www.w3.org/2000/svg" width="24" height="24" viewBox="0 0 512 512"><path fill="#0052B4" d="M29.8097 136C10.7814 171.792 0.0000142816 212.637 0.0000104907 256C0.00000669983 299.363 10.7813 340.208 29.8097 376L482.19 376C501.219 340.208 512 299.363 512 256C512 212.637 501.219 171.792 482.19 136L29.8097 136Z" id="path_0"/><path fill="#D80027" d="M15.5262 168C51.4115 69.9657 145.535 -0.00003068 256 -0.0000210229C366.465 -0.0000113657 460.589 69.9657 496.474 168L15.5262 168Z" id="path_1"/><path fill="#EEEEEE" d="M15.526 344L496.474 344C460.588 442.034 366.465 512 256 512C145.535 512 51.4112 442.034 15.526 344Z" id="path_2"/><path fill="#D80027" d="M66.1976 144.696V272.402C66.1976 345.046 161.099 367.305 161.099 367.305C161.099 367.305 255.999 345.046 255.999 272.402V144.696H66.1976Z" id="path_3"/><path fill="#FFC635" d="M105.446 166.956H216.751V122.434L194.49 133.564L161.099 100.173L127.707 133.564L105.446 122.434V166.956Z" id="path_4"/><path fill="#FFC635" d="M233.739 290.182L161.391 217.834L89.043 290.182L112.654 313.793L161.391 265.056L210.128 313.793L233.739 290.182Z" id="path_5"/><path fill="#EEEEEE" d="M233.739 222.609H199.983C201.881 219.333 202.985 215.539 202.985 211.481C202.985 199.185 193.018 189.22 180.724 189.22C172.229 189.22 164.852 193.978 161.099 200.973C157.346 193.979 149.969 189.22 141.474 189.22C129.18 189.22 119.213 199.185 119.213 211.481C119.213 215.539 120.317 219.334 122.215 222.609H89.043C89.043 234.904 99.752 244.87 112.045 244.87H111.304C111.304 257.165 121.27 267.131 133.565 267.131C133.565 278.017 141.383 287.061 151.708 288.997L134.168 328.599C142.574 332.016 151.76 333.914 161.392 333.914C171.024 333.914 180.21 332.016 188.616 328.599L171.076 288.997C181.401 287.063 189.219 278.018 189.219 267.131C201.514 267.131 211.48 257.165 211.48 244.87H210.739C223.031 244.87 233.739 234.903 233.739 222.609Z" id="path_6"/></svg>