<svg id="vector" xmlns="http://www.w3.org/2000/svg" width="24" height="24" viewBox="0 0 512 512"><path fill="#EEEEEE" d="M256 512C397.217 512 511.727 397.658 512 256.505V256L256 224L0.000488281 256C0.000488281 397.385 114.616 512 256 512Z" id="path_0"/><path fill="#D80027" d="M512 255.495V256H0.000488281C0.000488281 114.615 114.616 0 256 0C397.217 0 511.727 114.342 512 255.495Z" id="path_1"/><path fill="#EEEEEE" d="M154.862 127.999C154.862 90.7009 181.075 59.5429 216.079 51.8979C210.699 50.7239 205.118 50.0869 199.383 50.0869C156.352 50.0869 121.47 84.9689 121.47 128C121.47 171.031 156.352 205.913 199.383 205.913C205.116 205.913 210.698 205.276 216.079 204.101C181.075 196.456 154.862 165.298 154.862 127.999Z" id="path_2"/><path fill="#EEEEEE" d="M255.036 55.6523L260.562 72.6573H278.443L263.976 83.1683L269.502 100.173L255.036 89.6643L240.57 100.173L246.096 83.1683L231.63 72.6573H249.51L255.036 55.6523Z" id="path_3"/><path fill="#EEEEEE" d="M211.661 89.043L217.186 106.049H235.067L220.601 116.559L226.127 133.564L211.661 123.055L197.193 133.564L202.72 116.559L188.253 106.049H206.134L211.661 89.043Z" id="path_4"/><path fill="#EEEEEE" d="M298.412 89.043L303.939 106.049H321.819L307.352 116.559L312.879 133.564L298.412 123.055L283.946 133.564L289.472 116.559L275.006 106.049H292.886L298.412 89.043Z" id="path_5"/><path fill="#EEEEEE" d="M281.717 139.13L287.243 156.136H305.123L290.657 166.646L296.183 183.651L281.717 173.142L267.251 183.651L272.777 166.646L258.311 156.136H276.19L281.717 139.13Z" id="path_6"/><path fill="#EEEEEE" d="M228.356 139.13L233.881 156.136H251.763L237.296 166.646L242.823 183.651L228.356 173.142L213.889 183.651L219.415 166.646L204.949 156.136H222.83L228.356 139.13Z" id="path_7"/></svg>