<svg id="vector" xmlns="http://www.w3.org/2000/svg" width="32" height="16" viewBox="0 0 500 250"><path fill="#EE1C25" d="M0 0h500v250H0z" stroke-width="1" id="path_0"/><path fill="#0B4EA2" d="M0 0h500v171.371H0z" stroke-width="1" id="path_1"/><path fill="#FFFFFF" d="M0 0h500v78.629H0z" stroke-width="1" id="path_2"/><path fill="#FFFFFF" d="M136.542 199.644c-22.929-10.948-55.727-32.679-55.727-75.664 0-42.986 2.073-62.535 2.073-62.535h107.309s2.073 19.549 2.073 62.535c0 42.985-32.797 64.716-55.728 75.664z" stroke-width="1" id="path_3"/><path fill="#EE1C25" d="M136.542 193.938c-21.036-10.044-51.125-29.98-51.125-69.416 0-39.437 1.902-57.372 1.902-57.372h98.448s1.902 17.935 1.902 57.372c0 39.436-30.09 59.372-51.127 69.416z" stroke-width="1" id="path_4"/><path fill="#FFFFFF" d="M141.041 114.182c5.696 0.091 16.809 0.312 26.704-2.97 0 0-0.262 3.51-0.262 7.599 0 4.09 0.262 7.6 0.262 7.6-9.076-3.011-20.285-3.074-26.704-2.993V145.2h-8.997v-21.782c-6.418-0.081-17.627-0.018-26.704 2.993 0 0 0.262-3.51 0.262-7.6 0-4.089-0.262-7.599-0.262-7.599 9.896 3.282 21.008 3.061 26.704 2.97v-13.68c-5.191-0.045-12.672 0.2-21.131 3.006 0 0 0.262-3.51 0.262-7.599 0-4.09-0.262-7.6-0.262-7.6 8.446 2.802 15.918 3.051 21.108 3.007-0.267-8.663-2.813-19.581-2.813-19.581s5.24 0.405 7.334 0.405c2.097 0 7.334-0.405 7.334-0.405s-2.545 10.918-2.812 19.58c5.19 0.045 12.662-0.205 21.107-3.007 0 0-0.261 3.511-0.261 7.6 0 4.089 0.261 7.599 0.261 7.599-8.458-2.805-15.939-3.051-21.13-3.005v13.68z" stroke-width="1" id="path_5"/><path fill="#0B4EA2" d="M136.54 142.84c-10.593 0-16.268 14.568-16.268 14.568s-3.148-6.908-11.791-6.908c-5.847 0-10.157 5.157-12.896 9.932 10.639 16.78 27.613 27.136 40.955 33.506 13.344-6.371 30.329-16.723 40.968-33.506-2.739-4.775-7.049-9.932-12.897-9.932-8.643 0-11.804 6.908-11.804 6.908s-5.673-14.568-16.267-14.568z" stroke-width="1" id="path_6"/></svg>