<svg id="vector" xmlns="http://www.w3.org/2000/svg" width="24" height="24" viewBox="0 0 512 512"><path fill="#0052B4" d="M482.19 376C501.219 340.208 512 299.363 512 256C512 212.637 501.219 171.792 482.19 136H29.8097C10.7813 171.792 0 212.637 0 256C0 299.363 10.7813 340.208 29.8097 376H482.19Z" id="path_0"/><path fill="#D80027" d="M496.474 344C460.589 442.034 366.465 512 256 512C145.535 512 51.4116 442.034 15.5264 344H496.474Z" id="path_1"/><path fill="#EEEEEE" d="M496.474 168H15.5264C51.4116 69.9657 145.535 0 256 0C366.465 0 460.589 69.9657 496.474 168Z" id="path_2"/><path fill="#EEEEEE" d="M66.1982 144.695V272.401C66.1982 345.045 161.099 367.304 161.099 367.304C161.099 367.304 255.999 345.045 255.999 272.401V144.695H66.1982Z" id="path_3"/><path fill="#D80027" d="M88.459 144.695V272.401C88.459 280.929 90.353 288.983 94.105 296.534H228.092C231.844 288.984 233.738 280.929 233.738 272.401V144.695H88.459Z" id="path_4"/><path fill="#EEEEEE" d="M205.62 233.738H172.23V211.477H194.491V189.216H172.23V166.956H149.969V189.216H127.709V211.477H149.969V233.738H116.577V255.999H149.969V278.26H172.23V255.999H205.62V233.738Z" id="path_5"/><path fill="#0052B4" d="M124.471 327.61C138.816 336.625 153.554 341.859 161.099 344.187C168.644 341.86 183.382 336.625 197.727 327.61C212.193 318.518 222.334 308.12 228.092 296.535C221.741 292.042 213.992 289.392 205.621 289.392C202.573 289.392 199.612 289.753 196.765 290.416C190.732 276.708 177.037 267.131 161.1 267.131C145.163 267.131 131.467 276.708 125.435 290.416C122.588 289.753 119.626 289.392 116.579 289.392C108.208 289.392 100.459 292.042 94.1079 296.535C99.8629 308.119 110.004 318.517 124.471 327.61Z" id="path_6"/></svg>