<svg id="vector" xmlns="http://www.w3.org/2000/svg" width="24" height="24" viewBox="0 0 512 512"><path fill="#EEEEEE" d="M477.752 384C499.534 346.346 512 302.629 512 256C512 209.371 499.534 165.654 477.752 128L34.2483 128C12.4665 165.654 0 209.371 0 256C0 302.629 12.4665 346.346 34.2482 384L477.752 384Z" id="path_0"/><path fill="#0052B4" d="M255.911 512C154.729 511.965 67.2685 453.23 25.7354 368L486.264 368C444.731 453.23 357.271 511.965 256.089 512C256.059 512 256.03 512 256 512C255.97 512 255.94 512 255.911 512Z" id="path_1"/><path fill="#0052B4" d="M256 0C154.78 0 67.2808 58.7445 25.7354 144L486.264 144C444.719 58.7445 357.22 0 256 0Z" id="path_2"/><path fill="#FFC635" d="M204.59 267.13L256 178.087L307.41 267.13H204.59Z" id="path_3"/><path fill="#6DA544" d="M322.783 296.53L256 329.922L189.217 296.53V252.009H322.783V296.53Z" id="path_4"/><path fill="#FFC635" d="M318.963 181.906L295.352 205.517C305.423 215.588 311.653 229.501 311.653 244.869C311.653 275.605 286.736 300.521 256.001 300.521C225.266 300.521 200.349 275.604 200.349 244.869C200.349 229.501 206.579 215.588 216.65 205.517L193.039 181.906C176.924 198.018 166.958 220.279 166.958 244.869C166.958 294.047 206.824 333.912 256.001 333.912C305.178 333.912 345.044 294.046 345.044 244.869C345.043 220.279 335.077 198.018 318.963 181.906Z" id="path_5"/></svg>