<svg id="vector" xmlns="http://www.w3.org/2000/svg" width="24" height="24" viewBox="0 0 512 512"><path fill="#EEEEEE" d="M512 256A256 256 0 0 1 0 256A256 256 0 0 1 512 256Z" id="path_0"/><path fill="#D80027" d="M65.1856 85.3333C112.061 32.9601 180.181 0 256 0C331.819 0 399.939 32.9601 446.814 85.3333H65.1856ZM256.579 511.999C332.166 511.832 400.059 478.906 446.815 426.666H65.1851C111.941 478.906 179.834 511.832 255.421 511.999H256.579Z" fill-rule="evenodd" id="path_1"/><path fill="#002266" d="M497.433 341.335C506.867 314.644 512 285.921 512 256C512 226.08 506.867 197.358 497.434 170.668H14.5664C5.13299 197.358 0 226.08 0 256C0 285.921 5.13333 314.644 14.5674 341.335H497.433Z" fill-rule="evenodd" id="path_2"/></svg>