<svg id="vector" xmlns="http://www.w3.org/2000/svg" width="32" height="16" viewBox="0 0 500 250"><path fill="#E70013" d="M0 0h500v250H0z" stroke-width="1" id="path_0"/><path fill="#FFFFFF" d="M188 125.5a62.5 62.5 0 1 1 125 0 62.5 62.5 0 1 1-125 0" stroke-width="1" id="path_1"/><path fill="#E70013" d="M254.875 78C228.987 78 208 98.987 208 124.875s20.987 46.875 46.875 46.875c14.958-0.019 29.009-7.177 37.82-19.265-6.906 6.347-15.94 9.876-25.32 9.89-20.711 0-37.5-16.789-37.5-37.5s16.789-37.5 37.5-37.5c9.38 0.017 18.413 3.549 25.317 9.898-8.809-12.09-22.858-19.251-37.817-19.273z" stroke-width="1" id="path_2"/><path fill="#E70013" d="M235.309 125.439l50.879-16.532-31.445 43.28V98.69l31.445 43.28z" stroke-width="1" id="path_3"/></svg>