<svg id="vector" xmlns="http://www.w3.org/2000/svg" width="24" height="24" viewBox="0 0 512 512"><path fill="#D80027" d="M512 256A256 256 0 0 1 0 256A256 256 0 0 1 512 256Z" id="path_0"/><path fill="#EEEEEE" d="M378.434 256C378.434 323.619 323.618 378.435 255.999 378.435C188.38 378.435 133.564 323.619 133.564 256C133.564 188.381 188.38 133.565 255.999 133.565C323.618 133.565 378.434 188.381 378.434 256ZM283.826 328.348C243.87 328.348 211.478 295.956 211.478 256C211.478 216.044 243.87 183.652 283.826 183.652C296.284 183.652 308.007 186.802 318.241 192.348C302.186 176.647 280.231 166.956 256 166.956C206.824 166.956 166.957 206.822 166.957 255.999C166.957 305.176 206.824 345.042 256 345.042C280.231 345.042 302.187 335.351 318.241 319.65C308.007 325.198 296.284 328.348 283.826 328.348ZM271.083 209.186L292.087 238.131L326.104 227.101L305.067 256.021L326.069 284.965L292.063 273.893L271.026 302.813L271.048 267.052L237.043 255.98L271.061 244.95L271.083 209.186Z" fill-rule="evenodd" id="path_1"/></svg>