<svg id="vector" xmlns="http://www.w3.org/2000/svg" width="24" height="24" viewBox="0 0 512 512"><path fill="#D80027" d="M512 256A256 256 0 0 1 0 256A256 256 0 0 1 512 256Z" id="path_0"/><path fill="#0052B4" d="M0 245.585C5.46421 109.029 117.896 0 255.792 0C255.861 0 255.931 0.0000275698 256 0.000082699V256H0V245.585Z" id="path_1"/><path fill="#EEEEEE" d="M217.03 136.786L185.874 151.443C187.366 146.824 188.172 141.896 188.172 136.781C188.172 131.672 187.368 126.75 185.879 122.136L217.03 136.786ZM168.581 175.299C176.574 169.466 182.683 161.204 185.823 151.6L202.413 181.773L168.581 175.299ZM140.594 184.434C150.998 184.418 160.62 181.068 168.449 175.395L164.161 209.574L140.594 184.434ZM112.58 175.388C120.409 181.064 130.032 184.416 140.436 184.434L116.867 209.574L112.58 175.388ZM95.2114 151.588C98.3497 161.197 104.46 169.462 112.456 175.298L78.616 181.771L95.2114 151.588ZM92.8662 136.781C92.8662 141.898 93.6726 146.826 95.1652 151.446L64 136.786L95.1608 122.13C93.671 126.746 92.8662 131.669 92.8662 136.781ZM112.444 98.2728C104.452 104.109 98.3456 112.373 95.2095 121.98L78.616 91.801L112.444 98.2728ZM140.425 89.128C130.025 89.1481 120.406 92.5 112.58 98.1732L116.868 64L140.425 89.128ZM168.448 98.1657C160.621 92.4955 151.004 89.1463 140.605 89.128L164.162 64L168.448 98.1657ZM202.414 91.801L168.593 98.2713C176.583 104.106 182.689 112.367 185.826 121.971L202.414 91.801ZM115.125 136.786C115.125 150.787 126.515 162.178 140.516 162.178C154.515 162.178 165.907 150.787 165.908 136.786C165.908 122.785 154.517 111.394 140.516 111.394C126.516 111.394 115.125 122.785 115.125 136.786Z" fill-rule="evenodd" id="path_2"/></svg>