<svg id="vector" xmlns="http://www.w3.org/2000/svg" width="24" height="24" viewBox="0 0 512 512"><path fill="#EEEEEE" d="M503.202 322.783C508.939 301.492 512 279.104 512 256L503.202 189.218C496.784 165.404 487.018 142.965 474.438 122.435L415.379 55.652C371.675 20.8387 316.323 0.0256442 256.111 0H255.889C195.677 0.0256336 140.325 20.8387 96.6209 55.652L37.5621 122.435C24.9824 142.965 15.2155 165.404 8.79798 189.218L0 256L0.0000241187 256.112C0.00992806 279.176 3.0698 301.527 8.7982 322.783L37.5622 389.565C53.2303 415.135 73.262 437.741 96.621 456.348L256 512L415.379 456.348C438.738 437.741 458.77 415.135 474.438 389.565L503.202 322.783Z" id="path_0"/><path fill="#D80027" d="M503.202 189.217C508.939 210.508 512 232.896 512 256H0C0 232.896 3.06051 210.508 8.79822 189.217H503.202Z" id="path_1"/><path fill="#D80027" d="M415.379 55.6519C438.738 74.2588 458.77 96.8653 474.438 122.435H37.5622C53.2303 96.8653 73.262 74.2588 96.621 55.6519H415.379Z" id="path_2"/><path fill="#D80027" d="M474.438 389.565C487.018 369.035 496.784 346.596 503.202 322.782H8.79796C15.2155 346.596 24.9823 369.035 37.5621 389.565H474.438Z" id="path_3"/><path fill="#D80027" d="M415.379 456.348H96.6208C140.299 491.141 195.611 511.95 255.781 512H256.219C316.389 511.95 371.701 491.141 415.379 456.348Z" id="path_4"/><path fill="#0052B4" d="M0 245.585C5.46421 109.029 117.896 0 255.792 0C255.861 0 255.931 0.0000275698 256 0.000082699V256H0V245.585Z" id="path_5"/><path fill="#EEEEEE" d="M109.506 46.0312C117.873 40.1825 126.606 34.8212 135.664 29.9885L136.621 32.9341H164.521L141.95 49.3329L150.571 75.8666L128 59.4679L105.429 75.8666L114.05 49.3329L109.506 46.0312ZM29.5876 136.419C35.4945 125.258 42.2025 114.586 49.635 104.48L53.4214 116.133H81.3206L58.7496 132.532L67.371 159.066L44.8 142.667L22.2291 159.066L29.5876 136.419ZM211.2 6.40039L219.821 32.9341H247.721L225.15 49.3329L233.771 75.8666L211.2 59.4679L188.629 75.8666L197.25 49.3329L174.679 32.9341H202.579L211.2 6.40039ZM128 89.5996L136.621 116.133H164.521L141.95 132.532L150.571 159.066L128 142.667L105.429 159.066L114.05 132.532L91.4794 116.133H119.379L128 89.5996ZM219.821 116.133L211.2 89.5996L202.579 116.133H174.679L197.25 132.532L188.629 159.066L211.2 142.667L233.771 159.066L225.15 132.532L247.721 116.133H219.821ZM44.8 172.8L53.4214 199.334H81.3206L58.7496 215.732L67.371 242.266L44.8 225.867L22.2291 242.266L30.8504 215.732L8.27945 199.334H36.1787L44.8 172.8ZM136.621 199.334L128 172.8L119.379 199.334H91.4794L114.05 215.732L105.429 242.266L128 225.867L150.571 242.266L141.95 215.732L164.521 199.334H136.621ZM211.2 172.8L219.821 199.334H247.721L225.15 215.732L233.771 242.266L211.2 225.867L188.629 242.266L197.25 215.732L174.679 199.334H202.579L211.2 172.8Z" fill-rule="evenodd" id="path_6"/></svg>