<svg xmlns="http://www.w3.org/2000/svg" width="32" height="16" viewBox="0 0 324 162"><path d="M0 0h324v162H0z" fill="#fff"/><path d="M90 18h234v18H90zm0 36h234v18H90zM0 90h324v18H0zm0 36h324v18H0z" fill="#0038a8"/><path d="m42.958 53.801 2.984 4.451c-12.246 8.864-4.772 14.102-13.441 16.93 5.394-5.267-.709-6.074 3.829-17.056" fill="#fcd116"/><path d="m42.958 53.801 2.984 4.451c-12.246 8.864-4.772 14.102-13.441 16.93 5.394-5.267-.709-6.074 3.829-17.056" fill="none" stroke="#7b3f00" stroke-width="2.306" stroke-linecap="square" stroke-miterlimit="20"/><path d="m37.337 49.78-1.04 5.252c-14.921-2.39-13.341 6.598-21.48 2.47 7.539.091 3.964-4.867 14.94-9.414" fill="#fcd116"/><path d="m37.337 49.78-1.04 5.252c-14.921-2.39-13.341 6.598-21.48 2.47 7.539.091 3.964-4.867 14.94-9.414" fill="none" stroke="#7b3f00" stroke-width="2.31" stroke-linecap="square" stroke-miterlimit="20"/><path d="m37.337 49.78-2.349-.42.019.099c-6.274 1.538-9.677 4.137-12.343 6.109-1.336.992-2.487 1.834-3.736 2.287a5.6 5.6 0 0 1-2.592.313c6.481 2.297 6.05-5.366 19.961-3.137z" fill="#fcd116" stroke="#7b3f00" stroke-width="1.039" stroke-miterlimit="20"/><path d="M34.939 49.166C22.291 52.262 21.095 59.722 14.817 57.5" fill="none" stroke="#7b3f00" stroke-width="2.31" stroke-miterlimit="20"/><path d="m44.999 44.996-4.198-4.198-18.903 27.3 27.3-18.903zL21.898 68.098Z" fill="#fcd116"/><path d="m44.999 44.996-4.198-4.198-18.903 27.3m23.101-23.101 4.199 4.198-27.3 18.903m23.101-23.101-23.101 23.1" fill="none" stroke="#7b3f00" stroke-width="2.306" stroke-miterlimit="20"/><path d="m36.201 42.961-4.449 2.98c-8.859-12.243-14.098-4.768-16.933-13.445 5.266 5.396 6.133-.707 17.108 3.84" fill="#fcd116"/><path d="m36.201 42.961-4.449 2.98c-8.859-12.243-14.098-4.768-16.933-13.445 5.266 5.396 6.133-.707 17.108 3.84" fill="none" stroke="#7b3f00" stroke-width="2.31" stroke-linecap="square" stroke-miterlimit="20"/><path d="m36.201 42.961-1.364-1.958-.056.084c-5.524-3.349-9.768-3.918-13.047-4.408-1.646-.242-3.055-.462-4.258-1.025a5.6 5.6 0 0 1-2.054-1.612c2.958 6.208 8.072.483 16.331 11.898z" fill="#fcd116" stroke="#7b3f00" stroke-width="1.04" stroke-miterlimit="20"/><path d="M34.94 40.831c-11.132-6.755-17.253-2.325-20.121-8.335" fill="none" stroke="#7b3f00" stroke-width="2.31" stroke-miterlimit="20"/><path d="M45 44.999v-5.94l-32.668 5.94L45 50.939zH12.332Z" fill="#fcd116"/><path d="M45 44.999v-5.94l-32.668 5.94L45 50.939zm0 0H12.332" fill="none" stroke="#7b3f00" stroke-width="2.31" stroke-miterlimit="20"/><path d="M45 44.999v5.94zH12.332L45 50.939m-4.782-13.603-5.252-1.039c2.392-14.921-6.598-13.341-2.468-21.481-.092 7.539 5.126 4.563 9.673 15.539" fill="#fcd116"/><path d="m40.218 37.336-5.252-1.039c2.392-14.921-6.598-13.341-2.468-21.481-.092 7.539 5.126 4.563 9.673 15.539" fill="none" stroke="#7b3f00" stroke-width="2.31" stroke-linecap="square" stroke-miterlimit="20"/><path d="m40.218 37.335.42-2.349-.099.02c-1.538-6.274-4.137-9.677-6.109-12.343-.993-1.335-1.834-2.487-2.287-3.736a5.6 5.6 0 0 1-.313-2.592c-2.298 6.481 5.367 6.049 3.135 19.961z" fill="#fcd116" stroke="#7b3f00" stroke-width="1.04" stroke-miterlimit="20"/><path d="M40.833 34.938c-3.096-12.648-10.557-13.844-8.335-20.122" fill="none" stroke="#7b3f00" stroke-width="2.31" stroke-miterlimit="20"/><path d="m45 44.999 4.2-4.2-27.301-18.901L40.8 49.199zL21.899 21.898Z" fill="#fcd116"/><path d="m45 44.999 4.2-4.2-27.301-18.901L40.8 49.199zm0 0L21.899 21.898" fill="none" stroke="#7b3f00" stroke-width="2.31" stroke-miterlimit="20"/><path d="m45 44.999-4.2 4.2zL21.899 21.898 40.8 49.199m6.239-13-2.98-4.449c12.242-8.858 4.767-14.097 13.443-16.932-5.396 5.265.685 6.134-3.86 17.109" fill="#fcd116"/><path d="m47.039 36.199-2.98-4.449c12.242-8.858 4.767-14.097 13.443-16.932-5.396 5.265.685 6.134-3.86 17.109" fill="none" stroke="#7b3f00" stroke-width="2.31" stroke-linecap="square" stroke-miterlimit="20"/><path d="m47.039 36.199 1.958-1.364-.084-.056c3.349-5.524 3.917-9.767 4.407-13.047.242-1.646.462-3.055 1.024-4.258a5.6 5.6 0 0 1 1.612-2.054c-6.208 2.957-.482 8.072-11.897 16.33z" fill="#fcd116" stroke="#7b3f00" stroke-width="1.039" stroke-miterlimit="20"/><path d="M49.167 34.939c6.754-11.132 2.325-17.253 8.334-20.121" fill="none" stroke="#7b3f00" stroke-width="2.31" stroke-miterlimit="20"/><path d="M45 44.999h5.94L45 12.331l-5.94 32.668zV12.331Z" fill="#fcd116"/><path d="M45 44.999h5.94L45 12.331l-5.94 32.668zm0 0V12.331" fill="none" stroke="#7b3f00" stroke-width="2.31" stroke-miterlimit="20"/><path d="M45 44.999h-5.94zV12.331l-5.94 32.668m13.603-4.781 1.039-5.252c14.92 2.392 13.34-6.597 21.479-2.468-7.539-.092-4.178 4.892-15.153 9.438" fill="#fcd116"/><path d="m52.663 40.218 1.039-5.252c14.92 2.392 13.34-6.597 21.479-2.468-7.539-.092-4.178 4.892-15.153 9.438" fill="none" stroke="#7b3f00" stroke-width="2.31" stroke-linecap="square" stroke-miterlimit="20"/><path d="m52.663 40.218 2.349.42-.02-.099C61.267 39 64.67 36.402 67.335 34.43c1.335-.992 2.487-1.834 3.735-2.287a5.6 5.6 0 0 1 2.592-.313c-6.481-2.298-6.049 5.367-19.96 3.135z" fill="#fcd116" stroke="#7b3f00" stroke-width="1.039" stroke-miterlimit="20"/><path d="M55.061 40.832c12.647-3.096 13.843-10.556 20.121-8.334" fill="none" stroke="#7b3f00" stroke-width="2.31" stroke-miterlimit="20"/><path d="m45 44.999 4.2 4.2 18.9-27.3-27.3 18.9zl23.1-23.1Z" fill="#fcd116"/><path d="m45 44.999 4.2 4.2 18.9-27.3-27.3 18.9zm0 0 23.1-23.1" fill="none" stroke="#7b3f00" stroke-width="2.31" stroke-miterlimit="20"/><path d="m45 44.999-4.2-4.2zl23.1-23.1-27.3 18.9m13.001 6.237 4.449-2.979c8.86 12.242 14.099 4.768 16.935 13.444-5.266-5.396-6.257.644-17.233-3.902" fill="#fcd116"/><path d="m53.801 47.036 4.449-2.979c8.86 12.242 14.099 4.768 16.935 13.444-5.266-5.396-6.257.644-17.233-3.902" fill="none" stroke="#7b3f00" stroke-width="2.31" stroke-linecap="square" stroke-miterlimit="20"/><path d="m53.8 47.036 1.364 1.958.056-.084c5.525 3.349 9.769 3.917 13.048 4.408 1.646.243 3.056.462 4.259 1.025.802.368 1.506.92 2.054 1.612-2.958-6.208-8.073-.483-16.333-11.897z" fill="#fcd116" stroke="#7b3f00" stroke-width="1.04" stroke-miterlimit="20"/><path d="M55.062 49.166c11.133 6.754 17.255 2.325 20.123 8.334" fill="none" stroke="#7b3f00" stroke-width="2.31" stroke-miterlimit="20"/><path d="M45 44.999v5.94l32.671-5.94L45 39.059zh32.671Z" fill="#fcd116"/><path d="M45 44.999v5.94l32.671-5.94L45 39.059zm0 0h32.671" fill="none" stroke="#7b3f00" stroke-width="2.31" stroke-miterlimit="20"/><path d="M45 44.999v-5.94zh32.671L45 39.059m4.782 13.604 5.252 1.039c-2.392 14.921 6.598 13.341 2.468 21.481.092-7.539-4.87-4.048-9.416-15.024" fill="#fcd116"/><path d="m49.782 52.663 5.252 1.039c-2.392 14.921 6.598 13.341 2.468 21.481.092-7.539-4.87-4.048-9.416-15.024" fill="none" stroke="#7b3f00" stroke-width="2.31" stroke-linecap="square" stroke-miterlimit="20"/><path d="m49.782 52.663-.42 2.349.099-.02c1.538 6.275 4.137 9.677 6.109 12.343.993 1.335 1.834 2.487 2.287 3.736.307.827.414 1.715.313 2.592 2.298-6.481-5.367-6.049-3.135-19.961z" fill="#fcd116" stroke="#7b3f00" stroke-width="1.04" stroke-miterlimit="20"/><path d="M49.168 55.06c3.096 12.648 10.557 13.844 8.335 20.122" fill="none" stroke="#7b3f00" stroke-width="2.31" stroke-miterlimit="20"/><path d="m45 44.999-4.2 4.2L68.101 68.1 49.2 40.799zL68.101 68.1Z" fill="#fcd116"/><path d="m45 44.999-4.2 4.2L68.101 68.1 49.2 40.799zm0 0L68.101 68.1" fill="none" stroke="#7b3f00" stroke-width="2.31" stroke-miterlimit="20"/><path d="m45 44.999 4.2-4.2zL68.101 68.1 49.2 40.799" fill="#fcd116"/><path d="m42.968 53.801-1.963 1.361.087.049c-3.343 5.52-3.917 9.767-4.403 13.052-.243 1.642-.466 3.052-1.03 4.257a5.6 5.6 0 0 1-1.613 2.051c6.2-2.955.486-8.067 11.896-16.327l-2.974-4.441Z" fill="#7b3f00" stroke="#7b3f00" stroke-width="1.058" stroke-miterlimit="20"/><path d="M40.83 55.065c-6.754 11.128-2.323 17.251-8.339 20.118" fill="none" stroke="#7b3f00" stroke-width="2.306" stroke-miterlimit="20"/><path d="M44.999 44.996h-5.938l5.938 32.674 5.938-32.674zV77.67Z" fill="#fcd116"/><path d="M44.999 44.996h-5.938l5.938 32.674m0-32.674h5.938L44.999 77.67m0-32.674V77.67" fill="none" stroke="#7b3f00" stroke-width="2.306" stroke-miterlimit="20"/><path d="M44.999 44.996V77.67l5.938-32.674" fill="#7b3f00"/><path d="M44.999 44.996 21.898 68.097l27.3-18.903" fill="#7b3f00"/><path d="M44.999 55.89c6.017 0 10.895-4.878 10.895-10.895S51.016 34.1 44.999 34.1s-10.895 4.878-10.895 10.895S38.982 55.89 44.999 55.89Z" fill="#fcd116" stroke="#7b3f00" stroke-width="2.306"/><path d="M53.017 40.642c-.69.787-1.088-.593-3.567-.593s-2.867 1.487-3.265 1.186 2.08-2.08 2.867-2.177a7 7 0 0 1 3.956 1.584m-2.867.894a1.162 1.162 0 0 1-.592 1.885c-.69 0-1.983-1.186-1.39-1.983" fill="#7b3f00"/><path d="M46.884 42.42c.097-1.186 1.088-1.39 2.673-1.39s2.274 1.186 2.867 1.487c-.69 0-1.283-.991-2.867-.991s-1.584 0-2.673.991m.301.194c.399-.593.894.593 1.983.593.859.03 1.7-.25 2.371-.787.69-.496-.991 1.186-2.08 1.186s-2.575-.593-2.274-.991Zm-7.726-1.283c-.496.194-1.283 1.186 0 1.885-.991-.69-.194-1.681 0-1.885" fill="#7b3f00"/><path d="M50.548 41.439c.194.194.991 1.186 0 1.886 1.283-.69.496-1.681 0-1.886m-7.124 4.257c-.894.194-.593 1.487-1.39 1.584s-1.186.991-1.089.894c.496-.398 1.584-.69 2.371-.69s.991.496 1.681.496.894-.496 1.681-.496 1.885.301 2.371.69c.097.097-.301-.787-1.089-.894s-.496-1.39-1.39-1.584c0 .398.301.301.398.894 0 .496-.894.496-1.089 0 .194.787-.398.787-.894.787s-1.088 0-.894-.787c-.194.496-1.089.496-1.089 0 .097-.593.398-.496.398-.894h.019Zm-3.071 3.363c-.787.593-.991.894-1.089 1.584q.239-.431.535-.826l-.136-.058.165.02.525-.719Z" fill="#7b3f00"/><path d="m39.819 49.777-.01.019q.192.042.389.039zm.379.058q.787.144 1.545.398c.554-.039 1.322-.185 3.256-.185s2.702.136 3.256.185q.758-.255 1.545-.398c-1.089 0-2.546-.777-3.217-.777-.787 0-.991.194-1.584.194s-.787-.194-1.584-.194c-.671 0-2.128.777-3.217.777m9.602 0c.136 0 .272-.01.389-.039l-.01-.019z" fill="#7b3f00"/><path d="m50.179 49.777.165-.019-.136.058q.295.395.535.826c-.097-.69-.301-.991-1.089-1.584z" fill="#7b3f00"/><path d="M50.208 49.807c-1.04.389-1.4.457-1.953.418-.943.301-1.711.612-3.256.612s-2.313-.311-3.256-.612c-.554.039-.914-.029-1.944-.428 3.1 1.341 2.77 1.827 5.2 1.827s2.099-.486 5.209-1.817m-10.409-.01c-.039-.029-.097-.039-.146-.049zm10.409 0 .146-.049a1 1 0 0 1-.156.039zm-13.23-9.155c.693.792 1.089-.594 3.565-.594s2.872 1.486 3.268 1.188-2.08-2.08-2.872-2.179-3.07.693-3.961 1.584Zm2.872.891c-.693.594-.099 1.882.594 1.882s1.981-1.188 1.387-1.981" fill="#7b3f00"/><path d="M43.118 42.424c-.099-1.188-1.089-1.387-2.674-1.387s-2.278 1.188-2.872 1.486c.693 0 1.288-.99 2.872-.99s1.585 0 2.674.99m-.297.198c-.396-.594-.891.594-1.981.594s-1.684-.297-2.377-.792.99 1.188 2.08 1.188 2.575-.594 2.278-.99m2.178 9.807c-.496 0-1.779.301 0 .301s.496-.301 0-.301" fill="#7b3f00"/></svg>