<svg id="vector" xmlns="http://www.w3.org/2000/svg" width="24" height="24" viewBox="0 0 512 512"><path fill="#0052B4" d="M477.752 384C499.534 346.346 512 302.629 512 256C512 209.371 499.534 165.654 477.752 128L34.2483 128C12.4665 165.654 0 209.371 0 256C0 302.629 12.4665 346.346 34.2482 384L477.752 384Z" id="path_0"/><path fill="#D80027" d="M255.911 512C154.729 511.965 67.2685 453.23 25.7354 368L486.264 368C444.731 453.23 357.271 511.965 256.089 512C256.059 512 256.03 512 256 512C255.97 512 255.94 512 255.911 512Z" id="path_1"/><path fill="#FFDA44" d="M256 0C154.78 0 67.2808 58.7445 25.7354 144L486.264 144C444.719 58.7445 357.22 0 256 0Z" id="path_2"/><path fill="#EEEEEE" d="M443.367 306.251L429.846 316.817L435.714 332.938L421.487 323.345L407.965 333.909L412.693 317.414L398.468 307.818L415.617 307.22L420.349 290.725L426.219 306.849L443.367 306.251Z" id="path_3"/><path fill="#EEEEEE" d="M408.741 246.281L399.65 260.834L410.681 273.976L394.03 269.83L384.936 284.379L383.737 267.262L367.088 263.109L383 256.68L381.804 239.562L392.833 252.709L408.741 246.281Z" id="path_4"/><path fill="#EEEEEE" d="M355.694 201.768L352.128 218.553L366.988 227.133L349.923 228.932L346.355 245.712L339.375 230.038L322.308 231.829L335.062 220.347L328.083 204.673L342.943 213.251L355.694 201.768Z" id="path_5"/><path fill="#EEEEEE" d="M290.622 178.086L293.013 195.079L309.91 198.057L294.488 205.583L296.877 222.575L284.957 210.231L269.531 217.753L277.589 202.6L265.668 190.258L282.568 193.237L290.622 178.086Z" id="path_6"/><path fill="#EEEEEE" d="M221.377 178.086L229.434 193.237L246.33 190.256L234.413 202.603L242.466 217.755L227.044 210.231L215.122 222.572L217.513 205.583L202.09 198.061L218.989 195.079L221.377 178.086Z" id="path_7"/><path fill="#EEEEEE" d="M156.305 201.768L169.059 213.251L183.916 204.673L176.939 220.353L189.69 231.833L172.625 230.038L165.643 245.712L162.08 228.929L145.014 227.137L159.874 218.555L156.305 201.768Z" id="path_8"/><path fill="#EEEEEE" d="M103.258 246.28L119.171 252.708L130.197 239.564L129.004 256.685L144.912 263.114L128.263 267.263L127.064 284.378L117.974 269.829L101.323 273.978L112.353 260.833L103.258 246.28Z" id="path_9"/><path fill="#EEEEEE" d="M68.6338 306.251L85.7858 306.849L91.6518 290.727L96.3868 307.223L113.534 307.822L99.3078 317.418L104.036 333.912L90.5158 323.348L76.2888 332.941L82.1578 316.817L68.6338 306.251Z" id="path_10"/></svg>