<svg id="vector" xmlns="http://www.w3.org/2000/svg" width="24" height="24" viewBox="0 0 512 512"><defs><clipPath id="clip_path_0"><path d="M0 0H512V512H0V0Z"/></clipPath></defs><g id="g_0"><path fill="#0052B4" d="M256 512C397.217 512 511.727 397.658 512 256.505V256L256 224L0.000488281 256C0.000488281 397.385 114.616 512 256 512Z" clip-path="url(#clip_path_0)"/><path fill="#D80027" d="M512 255.495V256H0.000488281C0.000488281 114.615 114.616 0 256 0C397.217 0 511.727 114.342 512 255.495Z"/><path fill="#6DA544" d="M511.999 255.331V256.669C511.971 267.756 511.238 278.678 509.842 289.392L267.865 289.391L99.0195 458.236C38.7664 411.398 0 338.226 0 256C0 173.774 38.7664 100.602 99.0193 53.7646L267.862 222.608L509.842 222.609C511.238 233.322 511.971 244.244 511.999 255.331Z" fill-rule="evenodd"/><path fill="#EEEEEE" d="M503.573 321.391L281.119 321.391L125.954 476.555C116.575 471.013 107.58 464.89 99.0195 458.235L269.255 288L510.019 288C508.6 299.379 506.435 310.527 503.573 321.391ZM125.954 35.4443L281.117 190.607L503.573 190.608C506.435 201.473 508.6 212.621 510.019 224H269.255L99.0193 53.7645C107.58 47.1096 116.575 40.9864 125.954 35.4443Z" fill-rule="evenodd"/><path fill="#333333" d="M53.9642 413.237C20.1459 369.845 0 315.275 0 256C0 196.725 20.1455 142.155 53.9633 98.7637L211.2 256.001L53.9642 413.237Z" fill-rule="evenodd"/><path fill="#FFDA44" d="M35.6132 125.668C41.166 116.299 47.2992 107.314 53.9633 98.7637L211.2 256.001L53.9642 413.237C47.3 404.686 41.1668 395.701 35.614 386.332L165.945 256.001L35.6132 125.668Z" fill-rule="evenodd"/></g></svg>