<svg width="25" height="24" viewBox="0 0 25 24" fill="none" xmlns="http://www.w3.org/2000/svg">
<path fill-rule="evenodd" clip-rule="evenodd" d="M8.33969 20.0381L9 24H16L16.6809 19.9145C16.8767 19.8081 17.0681 19.6948 17.2548 19.5747L21.1423 21.0311L24.6423 14.9689L21.3877 12.2896C21.3908 12.1935 21.3923 12.0969 21.3923 12C21.3923 11.9031 21.3908 11.8065 21.3877 11.7104L24.6423 9.03109L21.1423 2.96891L17.2548 4.42531C17.0681 4.30522 16.8767 4.19185 16.6809 4.08553L16 0H9L8.33969 3.96189C8.08942 4.08832 7.84585 4.22609 7.60967 4.37453L3.8577 2.96891L0.357697 9.03109L3.40392 11.5388C3.39621 11.6916 3.39231 11.8453 3.39231 12C3.39231 12.1547 3.39621 12.3084 3.40392 12.4612L0.357697 14.9689L3.8577 21.0311L7.60968 19.6255C7.84585 19.7739 8.08942 19.9117 8.33969 20.0381ZM4.74262 18.5638L6.90803 17.7526L7.83545 17.4051L8.67395 17.9322C8.85768 18.0476 9.04704 18.1547 9.24149 18.253L10.1459 18.7098L10.3125 19.7093L10.6943 22H14.3057L14.7081 19.5857L14.8686 18.6227L15.7265 18.1569C15.8787 18.0742 16.0276 17.9861 16.1728 17.8926L17.0167 17.3498L17.9564 17.7018L20.2574 18.5638L22.0631 15.4362L20.1166 13.8337L19.3577 13.209L19.3887 12.2265C19.3911 12.1513 19.3923 12.0758 19.3923 12C19.3923 11.9242 19.3911 11.8487 19.3887 11.7735L19.3577 10.791L20.1166 10.1663L22.0631 8.56382L20.2574 5.43618L17.9564 6.29819L17.0167 6.65023L16.1728 6.10735C16.0276 6.01392 15.8787 5.92576 15.7265 5.84312L14.8686 5.37727L14.7081 4.41433L14.3057 2H10.6943L10.3125 4.29069L10.1459 5.29016L9.24149 5.74703C9.04704 5.84527 8.85768 5.95237 8.67395 6.06785L7.83545 6.59486L6.90803 6.24742L4.74262 5.43618L2.93687 8.56382L4.67506 9.99475L5.45211 10.6344L5.40138 11.6397C5.39536 11.7588 5.39231 11.879 5.39231 12C5.39231 12.121 5.39536 12.2412 5.40138 12.3603L5.45211 13.3656L4.67506 14.0052L2.93687 15.4362L4.74262 18.5638Z" fill="white"/>
<circle cx="12.5" cy="12" r="2" fill="white"/>
</svg>
