<svg width="24" height="24" viewBox="0 0 24 24" fill="none" xmlns="http://www.w3.org/2000/svg">
<path d="M12 2C17.5228 2 22 6.47715 22 12C22 17.5228 17.5228 22 12 22C6.47715 22 2 17.5228 2 12C2 6.47715 6.47715 2 12 2ZM15.1709 13.7783C14.923 13.7784 14.7214 13.8483 14.5654 13.9883C14.4095 14.1283 14.2695 14.3261 14.1455 14.582H14.1094L14.2529 13.8496H13.4131L12.543 18.2002H13.3828L13.7314 16.4541H13.7607C13.7807 16.6259 13.8612 16.7717 14.001 16.8916C14.1449 17.0115 14.327 17.0722 14.5469 17.0723C14.7469 17.0723 14.9353 17.02 15.1113 16.916C15.2913 16.812 15.4471 16.6637 15.5791 16.4717C15.711 16.2797 15.8156 16.0501 15.8916 15.7822C15.9716 15.5103 16.0107 15.2061 16.0107 14.8701C16.0107 14.7143 15.9948 14.5704 15.9629 14.4385C15.9309 14.3025 15.8815 14.1858 15.8135 14.0898C15.7455 13.9898 15.6568 13.9143 15.5488 13.8623C15.4449 13.8064 15.3188 13.7783 15.1709 13.7783ZM7.5498 12.7402C7.21788 12.7403 6.9155 12.8084 6.64355 12.9443C6.37582 13.0763 6.1441 13.2622 5.94824 13.502C5.75628 13.7379 5.60604 14.0179 5.49805 14.3418C5.39408 14.6657 5.34183 15.0158 5.3418 15.3916C5.3418 15.6716 5.37448 15.9179 5.43848 16.1299C5.50648 16.3379 5.59973 16.5124 5.71973 16.6523C5.83972 16.7923 5.98251 16.8977 6.14648 16.9697C6.3144 17.0376 6.49837 17.0723 6.69824 17.0723C6.98211 17.0722 7.21831 17.0004 7.40625 16.8564C7.59422 16.7125 7.73975 16.5379 7.84375 16.334H7.8916L7.75977 17H8.47363L8.93555 14.6836H7.35156L7.20801 15.416H7.96387L7.92188 15.6201C7.90188 15.716 7.86168 15.8057 7.80176 15.8896C7.74176 15.9696 7.66622 16.0424 7.57422 16.1064C7.48623 16.1664 7.38355 16.214 7.26758 16.25C7.15575 16.2819 7.03598 16.2978 6.9082 16.2979C6.8162 16.2979 6.72755 16.2839 6.64355 16.2559C6.55974 16.2279 6.48576 16.1839 6.42188 16.124C6.35804 16.0642 6.30843 15.9882 6.27246 15.8965C6.23646 15.8005 6.21777 15.6857 6.21777 15.5537C6.2178 15.4498 6.22993 15.3377 6.25391 15.2178L6.38574 14.5576C6.44976 14.2338 6.57015 13.9798 6.74609 13.7959C6.92608 13.608 7.17803 13.5137 7.50195 13.5137C7.71793 13.5137 7.898 13.5659 8.04199 13.6699C8.18999 13.7699 8.28794 13.9183 8.33594 14.1143L9.06152 13.7305C9.01352 13.5705 8.9417 13.4277 8.8457 13.3037C8.75375 13.1799 8.64165 13.0761 8.50977 12.9922C8.38183 12.9082 8.23616 12.8457 8.07227 12.8057C7.90827 12.7617 7.7338 12.7402 7.5498 12.7402ZM9.28516 17H10.125L10.2334 16.4541H10.2627C10.2827 16.6259 10.3632 16.7717 10.5029 16.8916C10.6469 17.0115 10.829 17.0722 11.0488 17.0723C11.2488 17.0723 11.4373 17.02 11.6133 16.916C11.7932 16.812 11.9491 16.6637 12.0811 16.4717C12.213 16.2797 12.3176 16.0501 12.3936 15.7822C12.4735 15.5103 12.5127 15.2061 12.5127 14.8701C12.5127 14.7143 12.4968 14.5704 12.4648 14.4385C12.4328 14.3025 12.3834 14.1858 12.3154 14.0898C12.2474 13.9898 12.1588 13.9143 12.0508 13.8623C11.9468 13.8064 11.8208 13.7783 11.6729 13.7783C11.425 13.7784 11.2233 13.8483 11.0674 13.9883C10.9114 14.1283 10.7714 14.3261 10.6475 14.582H10.6113L11.0127 12.5596H10.1729L9.28516 17ZM17.8896 13.7783C17.6658 13.7783 17.4716 13.8101 17.3076 13.874C17.1436 13.934 17.0074 14.0161 16.8994 14.1201C16.7914 14.2241 16.7112 14.3445 16.6592 14.4805C16.6073 14.6163 16.5811 14.7584 16.5811 14.9062C16.5811 15.1581 16.653 15.3542 16.7969 15.4941C16.9408 15.6301 17.1491 15.7159 17.4209 15.752L17.7393 15.7939C17.8509 15.8099 17.9267 15.8419 17.9668 15.8896C18.0107 15.9376 18.0331 15.9919 18.0332 16.0518C18.0332 16.1437 17.9912 16.2259 17.9072 16.2979C17.8272 16.3659 17.6892 16.4004 17.4932 16.4004C17.3132 16.4004 17.1629 16.3677 17.043 16.3037C16.9272 16.2358 16.8252 16.1441 16.7373 16.0283L16.209 16.5195C16.3489 16.7034 16.5292 16.8416 16.749 16.9336C16.969 17.0256 17.2116 17.0723 17.4756 17.0723C17.6994 17.0722 17.8974 17.0424 18.0693 16.9824C18.2411 16.9185 18.385 16.8343 18.501 16.7305C18.6168 16.6226 18.7028 16.4982 18.7588 16.3584C18.8188 16.2184 18.8496 16.0719 18.8496 15.9199C18.8496 15.672 18.7768 15.4797 18.6328 15.3438C18.4888 15.204 18.2806 15.116 18.0088 15.0801L17.6914 15.0381C17.5795 15.0221 17.501 14.9903 17.457 14.9424C17.4171 14.8945 17.3975 14.8402 17.3975 14.7803C17.3975 14.6843 17.4376 14.6059 17.5176 14.5459C17.6016 14.482 17.7137 14.4502 17.8535 14.4502C17.9934 14.4502 18.1214 14.4801 18.2373 14.54C18.3572 14.596 18.4553 14.6717 18.5312 14.7676L19.0596 14.2764C18.9196 14.1084 18.7488 13.9843 18.5488 13.9043C18.353 13.8204 18.1334 13.7784 17.8896 13.7783ZM11.2588 14.4678C11.3827 14.4678 11.4789 14.508 11.5469 14.5879C11.6189 14.6679 11.6553 14.778 11.6553 14.918C11.6553 14.9659 11.6515 15.0239 11.6436 15.0918C11.6356 15.1597 11.6271 15.2158 11.6191 15.2598L11.5352 15.6797C11.4392 16.1477 11.2087 16.3818 10.8447 16.3818C10.6691 16.3818 10.5353 16.336 10.4434 16.2441C10.3514 16.1482 10.3216 16.0202 10.3535 15.8604L10.4492 15.3799C10.4732 15.2639 10.5096 15.1519 10.5576 15.0439C10.6096 14.932 10.6693 14.8358 10.7373 14.7559C10.8012 14.676 10.877 14.6077 10.9648 14.5518C11.0527 14.4958 11.1509 14.4678 11.2588 14.4678ZM14.7568 14.4678C14.8807 14.4678 14.9769 14.508 15.0449 14.5879C15.1169 14.6679 15.1533 14.778 15.1533 14.918C15.1533 14.9659 15.1496 15.0239 15.1416 15.0918C15.1336 15.1597 15.1252 15.2158 15.1172 15.2598L15.0332 15.6797C14.9372 16.1477 14.7068 16.3818 14.3428 16.3818C14.1671 16.3818 14.0333 16.336 13.9414 16.2441C13.8495 16.1482 13.8197 16.0202 13.8516 15.8604L13.9473 15.3799C13.9713 15.2639 14.0077 15.1519 14.0557 15.0439C14.1076 14.932 14.1674 14.8358 14.2354 14.7559C14.2993 14.676 14.375 14.6077 14.4629 14.5518C14.5508 14.4958 14.649 14.4678 14.7568 14.4678ZM14.709 6.32031C14.2985 6.32031 13.9357 6.42646 13.6211 6.63965C13.3065 6.84758 13.0424 7.12517 12.8291 7.47168C12.6158 7.81835 12.4528 8.21606 12.3408 8.66406C12.2288 9.11199 12.1729 9.57326 12.1729 10.0479C12.1729 10.2825 12.1971 10.5198 12.2451 10.7598C12.2931 10.9997 12.3783 11.2212 12.501 11.4238C12.629 11.6212 12.8053 11.7841 13.0293 11.9121C13.2532 12.0346 13.5409 12.0957 13.8926 12.0957C14.2978 12.0957 14.658 11.9921 14.9727 11.7842C15.2925 11.5709 15.5592 11.2908 15.7725 10.9443C15.9858 10.5977 16.1487 10.2 16.2607 9.75195C16.3727 9.30401 16.4287 8.84277 16.4287 8.36816C16.4287 8.13883 16.4044 7.90406 16.3564 7.66406C16.3084 7.41874 16.2208 7.19733 16.0928 7C15.9701 6.7974 15.7971 6.63437 15.5732 6.51172C15.3493 6.38373 15.0609 6.32033 14.709 6.32031ZM7.67188 8.17578L8.35156 8.77637L9.75195 7.28809H9.82422L9.08008 11.0557H7.63965L7.45605 12H11.1758L11.3604 11.0557H10.208L11.1357 6.41602H9.32812L7.67188 8.17578ZM14.6045 7.26367C14.8605 7.26367 15.0393 7.34146 15.1406 7.49609C15.2473 7.65071 15.3007 7.86386 15.3008 8.13574C15.3008 8.2264 15.2958 8.32002 15.2852 8.41602C15.2745 8.50664 15.2586 8.60531 15.2373 8.71191L15.0371 9.7041C14.9944 9.91739 14.9434 10.1146 14.8848 10.2959C14.8314 10.4719 14.7646 10.624 14.6846 10.752C14.6046 10.8799 14.5085 10.9785 14.3965 11.0479C14.2846 11.1171 14.1516 11.1523 13.9971 11.1523C13.7411 11.1523 13.5598 11.0745 13.4531 10.9199C13.3518 10.7653 13.3008 10.5521 13.3008 10.2803C13.3008 10.1896 13.3057 10.0985 13.3164 10.0078C13.3271 9.91186 13.3439 9.81071 13.3652 9.7041L13.5645 8.71191C13.6071 8.49858 13.6557 8.30393 13.709 8.12793C13.7676 7.94664 13.837 7.79204 13.917 7.66406C13.997 7.53607 14.0931 7.4375 14.2051 7.36816C14.317 7.29892 14.45 7.26373 14.6045 7.26367Z" fill="white"/>
</svg>
