<svg width="16" height="16" viewBox="0 0 16 16" fill="none" xmlns="http://www.w3.org/2000/svg">
<path fill-rule="evenodd" clip-rule="evenodd" d="M9.6335 8.13999C9.10017 8.13999 8.63683 8.03332 8.2435 7.81999C7.85017 7.60665 7.54683 7.29999 7.3335 6.89999C7.12017 6.49999 7.0135 6.01332 7.0135 5.43999C7.0135 4.79999 7.1035 4.20332 7.2835 3.64999C7.4635 3.08999 7.72017 2.60332 8.0535 2.18999C8.38683 1.76999 8.78017 1.44332 9.2335 1.20999C9.68683 0.976652 10.1868 0.859985 10.7335 0.859985C11.2668 0.859985 11.7268 0.966652 12.1135 1.17999C12.5068 1.39332 12.8102 1.69999 13.0235 2.09999C13.2435 2.49999 13.3535 2.98665 13.3535 3.55999C13.3535 4.19999 13.2602 4.79999 13.0735 5.35999C12.8935 5.91332 12.6368 6.39999 12.3035 6.81999C11.9768 7.23332 11.5868 7.55665 11.1335 7.78999C10.6802 8.02332 10.1802 8.13999 9.6335 8.13999ZM9.8235 6.51999C10.0835 6.51999 10.3102 6.42332 10.5035 6.22999C10.6968 6.02998 10.8568 5.77999 10.9835 5.47999C11.1102 5.17999 11.2035 4.86332 11.2635 4.52999C11.3302 4.19665 11.3635 3.88999 11.3635 3.60999C11.3635 3.20332 11.2868 2.91332 11.1335 2.73999C10.9868 2.56665 10.7902 2.47999 10.5435 2.47999C10.2835 2.47999 10.0568 2.57999 9.8635 2.77999C9.67017 2.97332 9.51017 3.21999 9.3835 3.51999C9.25683 3.81999 9.16017 4.13665 9.0935 4.46999C9.0335 4.80332 9.0035 5.10999 9.0035 5.38999C9.0035 5.79665 9.07683 6.08665 9.2235 6.25999C9.37683 6.43332 9.57683 6.51999 9.8235 6.51999ZM6.26531 9.99724H6.90847L6.55234 11.7895H6.57892C6.69231 11.5626 6.81811 11.3906 6.95631 11.2736C7.09451 11.1531 7.26992 11.0928 7.48253 11.0928C7.6101 11.0928 7.72172 11.1176 7.8174 11.1673C7.91662 11.2169 7.99812 11.286 8.06191 11.3747C8.12569 11.4598 8.17353 11.5644 8.20542 11.6885C8.23731 11.809 8.25326 11.942 8.25326 12.0873C8.25326 12.3568 8.22137 12.6085 8.15758 12.8425C8.0938 13.073 8.00344 13.2751 7.8865 13.4488C7.7731 13.619 7.63491 13.7537 7.4719 13.853C7.31244 13.9487 7.13703 13.9966 6.94568 13.9966C6.75787 13.9966 6.60018 13.9469 6.47261 13.8477C6.34504 13.7484 6.26886 13.619 6.24405 13.4594H6.21747L6.1218 13.9328H5.47864L6.26531 9.99724ZM6.80216 13.4594C7.16715 13.4594 7.39571 13.2308 7.48785 12.7734L7.56226 12.3905C7.56935 12.3515 7.57644 12.3036 7.58352 12.2469C7.59061 12.1901 7.59415 12.1405 7.59415 12.098C7.59415 11.9561 7.55872 11.8427 7.48785 11.7576C7.42052 11.6725 7.3213 11.6299 7.19019 11.6299C7.08742 11.6299 6.99352 11.6565 6.90847 11.7097C6.82697 11.7594 6.7561 11.8196 6.69586 11.8905C6.62499 11.9685 6.56652 12.059 6.52045 12.1618C6.47438 12.2611 6.43895 12.3674 6.41414 12.4809L6.31847 12.9542C6.29012 13.096 6.32024 13.2166 6.40883 13.3158C6.50096 13.4116 6.63207 13.4594 6.80216 13.4594ZM9.76331 11.1566H9.12016L8.34943 14.9964H8.99259L9.30088 13.4594H9.32745C9.35226 13.619 9.42845 13.7484 9.55602 13.8477C9.68358 13.9469 9.84127 13.9966 10.0291 13.9966C10.2204 13.9966 10.3958 13.9487 10.5553 13.853C10.7183 13.7537 10.8565 13.619 10.9699 13.4488C11.0868 13.2751 11.1772 13.073 11.241 12.8425C11.3048 12.6085 11.3367 12.3568 11.3367 12.0873C11.3367 11.942 11.3207 11.809 11.2888 11.6884C11.2569 11.5644 11.2091 11.4598 11.1453 11.3747C11.0815 11.286 11 11.2169 10.9008 11.1673C10.8051 11.1176 10.6935 11.0928 10.5659 11.0928C10.3533 11.0928 10.1779 11.1531 10.0397 11.2736C9.90151 11.3906 9.77572 11.5626 9.66232 11.7895H9.63575L9.76331 11.1566ZM10.5713 12.7734C10.4791 13.2307 10.2506 13.4594 9.88557 13.4594C9.71548 13.4594 9.58436 13.4116 9.49223 13.3158C9.40364 13.2166 9.37352 13.096 9.40187 12.9542L9.49755 12.4809C9.52235 12.3674 9.55779 12.261 9.60385 12.1618C9.64992 12.059 9.70839 11.9685 9.77926 11.8905C9.8395 11.8196 9.91037 11.7594 9.99188 11.7097C10.0769 11.6565 10.1708 11.6299 10.2736 11.6299C10.4047 11.6299 10.5039 11.6725 10.5713 11.7576C10.6421 11.8427 10.6776 11.9561 10.6776 12.098C10.6776 12.1405 10.674 12.1901 10.6669 12.2469C10.6598 12.3036 10.6528 12.3515 10.6457 12.3905L10.5713 12.7734ZM12.028 13.8743C12.2229 13.9558 12.432 13.9966 12.6552 13.9966C12.8395 13.9966 13.0042 13.9718 13.1495 13.9221C13.2948 13.8689 13.4171 13.798 13.5163 13.7094C13.6155 13.6208 13.6899 13.5162 13.7395 13.3956C13.7927 13.2751 13.8193 13.1474 13.8193 13.0127C13.8193 12.7893 13.7537 12.6191 13.6226 12.5021C13.4915 12.3851 13.309 12.3089 13.0751 12.2735L12.8147 12.2362C12.7013 12.2185 12.6233 12.1848 12.5808 12.1352C12.5383 12.0855 12.517 12.027 12.517 11.9597C12.517 11.8569 12.5542 11.7753 12.6286 11.715C12.7066 11.6512 12.82 11.6193 12.9688 11.6193C13.1035 11.6193 13.2222 11.6459 13.3249 11.6991C13.4312 11.7487 13.5181 11.8161 13.5854 11.9012L14 11.5236C13.7661 11.2364 13.433 11.0928 13.0007 11.0928C12.8129 11.0928 12.6481 11.1194 12.5064 11.1726C12.3682 11.2258 12.253 11.2967 12.1609 11.3853C12.0687 11.4704 11.9996 11.5714 11.9536 11.6884C11.9111 11.8019 11.8898 11.9225 11.8898 12.0501C11.8898 12.2735 11.9553 12.4436 12.0865 12.5606C12.2176 12.6776 12.3983 12.7539 12.6286 12.7893L12.8891 12.8266C13.006 12.8443 13.0857 12.878 13.1283 12.9276C13.1708 12.9772 13.1921 13.0357 13.1921 13.1031C13.1921 13.2059 13.1478 13.2928 13.0592 13.3637C12.9741 13.4346 12.8448 13.4701 12.6711 13.4701C12.5117 13.4701 12.3753 13.4399 12.2619 13.3797C12.152 13.3194 12.0563 13.2343 11.9748 13.1244L11.5656 13.502C11.6825 13.6651 11.8366 13.7892 12.028 13.8743ZM4.23246 13.3584H4.26966L4.15272 13.9328H4.71615L5.12012 11.9225H3.77002L3.6584 12.4915H4.36534L4.32282 12.7042C4.30155 12.8071 4.2608 12.901 4.20056 12.9861C4.14387 13.0712 4.07299 13.1439 3.98795 13.2042C3.90645 13.2644 3.81254 13.3123 3.70623 13.3478C3.59993 13.3797 3.4883 13.3956 3.37137 13.3956C3.16938 13.3956 3.00283 13.3336 2.87172 13.2095C2.74415 13.0818 2.68037 12.8886 2.68037 12.6298C2.68037 12.527 2.691 12.4242 2.71226 12.3213L2.82388 11.7523C2.88412 11.4438 3.00106 11.2009 3.1747 11.0237C3.35188 10.8464 3.58752 10.7578 3.88164 10.7578C4.08717 10.7578 4.25726 10.8056 4.39192 10.9014C4.53012 10.9971 4.62402 11.1354 4.67363 11.3162L5.24237 11.0237C5.16087 10.7471 5.00318 10.5344 4.76931 10.3855C4.53543 10.233 4.25549 10.1568 3.92948 10.1568C3.63536 10.1568 3.36959 10.2188 3.13217 10.3429C2.89475 10.4635 2.691 10.6301 2.52091 10.8429C2.35436 11.0556 2.22502 11.3055 2.13288 11.5927C2.04429 11.8764 2 12.1831 2 12.5128C2 12.7574 2.02835 12.9719 2.08505 13.1563C2.14529 13.3407 2.22856 13.4967 2.33487 13.6243C2.44118 13.7484 2.56697 13.8424 2.71226 13.9062C2.86109 13.9665 3.02409 13.9966 3.20127 13.9966C3.32884 13.9966 3.44578 13.9789 3.55209 13.9434C3.66194 13.9115 3.75939 13.8672 3.84443 13.8105C3.92948 13.7502 4.00389 13.6828 4.06768 13.6084C4.13146 13.5304 4.18639 13.447 4.23246 13.3584ZM4.46302 2.52999L3.37077 7.99999H5.35077L6.75077 0.999985H3.47077L3.16077 2.52999H4.46302Z" fill="white"/>
</svg>
