<svg width="20" height="20" viewBox="0 0 20 20" fill="none" xmlns="http://www.w3.org/2000/svg">
<path d="M13.5531 11.5742C13.712 11.5742 13.8477 11.603 13.9594 11.6611C14.0752 11.7151 14.1696 11.7938 14.2426 11.8975C14.3156 11.9971 14.3693 12.1177 14.4037 12.2588C14.438 12.3957 14.4554 12.5452 14.4554 12.707C14.4554 13.0556 14.4124 13.3711 14.3265 13.6533C14.2449 13.9313 14.1333 14.17 13.9916 14.3691C13.8499 14.5683 13.6819 14.7222 13.4886 14.8301C13.2998 14.9379 13.0978 14.9912 12.8832 14.9912C12.647 14.9912 12.4518 14.9292 12.2972 14.8047C12.147 14.6802 12.0609 14.529 12.0394 14.3506H12.0072L11.6332 16.1621H10.7318L11.6654 11.6484H12.5677L12.4135 12.4082H12.4515C12.5847 12.1426 12.7352 11.9372 12.9027 11.792C13.0702 11.6468 13.2869 11.5743 13.5531 11.5742ZM5.37146 10.4971C5.56867 10.4971 5.75522 10.5199 5.93103 10.5654C6.10711 10.6069 6.2643 10.6716 6.40173 10.7588C6.54329 10.8458 6.66337 10.9536 6.76208 11.082C6.86516 11.2107 6.94297 11.3584 6.99451 11.5244L6.21521 11.9229C6.1637 11.7196 6.05856 11.5657 5.89978 11.4619C5.74521 11.354 5.55154 11.3008 5.3197 11.3008C4.97197 11.3008 4.70143 11.3979 4.50818 11.5928C4.31921 11.7837 4.19018 12.0476 4.12146 12.3838L3.97986 13.0684C3.95409 13.1929 3.9408 13.3091 3.9408 13.417C3.94081 13.5537 3.95986 13.672 3.99841 13.7715C4.03698 13.8667 4.09104 13.9456 4.15955 14.0078C4.22817 14.07 4.30778 14.1165 4.39783 14.1455C4.48802 14.1746 4.58323 14.1885 4.68201 14.1885C4.81934 14.1885 4.94855 14.1719 5.06873 14.1387C5.19306 14.1013 5.30249 14.0514 5.39685 13.9893C5.49555 13.9229 5.57758 13.8486 5.64197 13.7656C5.70636 13.6785 5.74941 13.5849 5.77087 13.4854L5.8158 13.2734H5.00427L5.15857 12.5146H6.85876L6.36267 14.917H5.59607L5.73865 14.2266H5.68689C5.57524 14.4381 5.41796 14.6182 5.21619 14.7676C5.01438 14.9169 4.76124 14.9922 4.45642 14.9922C4.24168 14.9922 4.04403 14.9563 3.86365 14.8857C3.68759 14.811 3.53544 14.7009 3.40662 14.5557C3.27785 14.4105 3.17688 14.2303 3.10388 14.0146C3.03518 13.7947 3.00038 13.5394 3.00037 13.249C3.00037 12.8589 3.05667 12.4953 3.16833 12.1592C3.28424 11.8233 3.44478 11.5328 3.65076 11.2881C3.8611 11.0392 4.11026 10.8459 4.39783 10.709C4.68987 10.5679 5.015 10.4971 5.37146 10.4971ZM8.65759 12.4082H8.69666C8.8297 12.1428 8.97949 11.9372 9.14685 11.792C9.31434 11.6467 9.53194 11.5742 9.79822 11.5742C9.95685 11.5743 10.092 11.6032 10.2035 11.6611C10.3194 11.7151 10.4147 11.7937 10.4877 11.8975C10.5606 11.997 10.6135 12.1178 10.6478 12.2588C10.6822 12.3957 10.6996 12.5452 10.6996 12.707C10.6996 13.0556 10.6566 13.3711 10.5707 13.6533C10.4891 13.9314 10.3774 14.1699 10.2357 14.3691C10.094 14.5683 9.92696 14.7222 9.73376 14.8301C9.5449 14.9379 9.3429 14.9921 9.1283 14.9922C8.89209 14.9922 8.69599 14.9292 8.54138 14.8047C8.3913 14.6802 8.30503 14.5289 8.28357 14.3506H8.25134L8.13611 14.917H7.23376L8.18787 10.3105H9.08923L8.65759 12.4082ZM16.472 11.5742C16.734 11.5742 16.9706 11.6179 17.181 11.7051C17.3956 11.7881 17.5777 11.9167 17.7279 12.0908L17.1615 12.6016C17.0799 12.502 16.9748 12.4224 16.8461 12.3643C16.7215 12.302 16.5833 12.2715 16.433 12.2715C16.2829 12.2716 16.1627 12.3048 16.0726 12.3711C15.987 12.4333 15.9438 12.5139 15.9437 12.6133C15.9437 12.6754 15.9654 12.7315 16.0082 12.7812C16.0554 12.831 16.1391 12.8642 16.2592 12.8809L16.601 12.9248C16.8928 12.9621 17.1163 13.0531 17.2709 13.1982C17.4254 13.3393 17.5032 13.5388 17.5033 13.7959C17.5033 13.9536 17.471 14.1057 17.4066 14.251C17.3465 14.3962 17.2538 14.5247 17.1293 14.6367C17.0047 14.7446 16.8501 14.832 16.6654 14.8984C16.4808 14.9607 16.2682 14.9912 16.0277 14.9912C15.7444 14.9912 15.4845 14.944 15.2484 14.8486C15.0122 14.7532 14.8186 14.6098 14.6683 14.4189L15.2357 13.9082C15.3301 14.0285 15.4394 14.1238 15.5638 14.1943C15.6927 14.2607 15.854 14.2939 16.0472 14.2939C16.2575 14.2939 16.4057 14.259 16.4916 14.1885C16.5816 14.1139 16.6263 14.0289 16.6263 13.9336C16.6263 13.8715 16.6031 13.8154 16.556 13.7656C16.5131 13.7158 16.4312 13.6826 16.3109 13.666L15.9701 13.6221C15.6781 13.5847 15.4538 13.4956 15.2992 13.3545C15.1447 13.2092 15.0677 13.0055 15.0677 12.7441C15.0678 12.5907 15.096 12.4437 15.1517 12.3027C15.2076 12.1616 15.2936 12.0366 15.4095 11.9287C15.5254 11.821 15.6712 11.736 15.847 11.6738C16.0231 11.6074 16.2316 11.5742 16.472 11.5742ZM9.35388 12.29C9.23792 12.29 9.13196 12.3189 9.03748 12.377C8.9431 12.435 8.862 12.506 8.79333 12.5889C8.72035 12.6718 8.6558 12.7715 8.59998 12.8877C8.54844 12.9997 8.50953 13.116 8.48376 13.2363L8.38025 13.7344C8.34595 13.9002 8.37829 14.0333 8.47693 14.1328C8.57565 14.2282 8.71977 14.2763 8.90857 14.2764C9.29931 14.2764 9.54667 14.0332 9.64978 13.5479L9.73962 13.1113C9.74819 13.0657 9.75743 13.0079 9.76599 12.9375C9.77458 12.867 9.77869 12.8066 9.77869 12.7568C9.77867 12.6117 9.73965 12.498 9.66248 12.415C9.58955 12.3321 9.48679 12.2901 9.35388 12.29ZM13.1088 12.29C12.9929 12.29 12.8878 12.3189 12.7933 12.377C12.6989 12.4351 12.6169 12.5059 12.5482 12.5889C12.4753 12.6718 12.4107 12.7716 12.3549 12.8877C12.3034 12.9997 12.2644 13.1161 12.2386 13.2363L12.1361 13.7344C12.1018 13.9003 12.1341 14.0333 12.2328 14.1328C12.3316 14.2281 12.4756 14.2754 12.6644 14.2754C13.0552 14.2753 13.3016 14.0324 13.4047 13.5469L13.4955 13.1113C13.504 13.0658 13.5123 13.0078 13.5209 12.9375C13.5295 12.867 13.5336 12.8066 13.5336 12.7568C13.5336 12.6116 13.4956 12.4971 13.4183 12.4141C13.3453 12.3311 13.2419 12.29 13.1088 12.29ZM13.057 3.83789C13.4349 3.83789 13.7442 3.9043 13.9847 4.03711C14.2252 4.16438 14.4116 4.3327 14.5433 4.54297C14.6807 4.74757 14.775 4.97711 14.8265 5.23145C14.878 5.4803 14.9037 5.72411 14.9037 5.96191C14.9037 6.4544 14.8443 6.93362 14.724 7.39844C14.6038 7.86317 14.4286 8.27513 14.1996 8.63477C13.9706 8.99437 13.6847 9.28551 13.3412 9.50684C13.0033 9.72264 12.6162 9.83008 12.181 9.83008C11.8031 9.83007 11.4938 9.76691 11.2533 9.63965C11.0128 9.50685 10.8243 9.33754 10.6869 9.13281C10.5552 8.92259 10.463 8.69327 10.4115 8.44434C10.36 8.19533 10.3344 7.94855 10.3344 7.70508C10.3344 7.21272 10.3948 6.73424 10.515 6.26953C10.6352 5.80492 10.8095 5.39277 11.0385 5.0332C11.2675 4.67361 11.5513 4.38571 11.889 4.16992C12.2268 3.94862 12.6162 3.83793 13.057 3.83789ZM8.22498 8.75098H9.4613L9.26404 9.73047H5.2699L5.46716 8.75098H7.01404L7.81287 4.8418H7.73572L6.23181 6.38574L5.50232 5.7627L7.27966 3.93652H9.22107L8.22498 8.75098ZM12.9457 4.81738C12.7796 4.81738 12.6362 4.85287 12.516 4.9248C12.396 4.99664 12.2932 5.09895 12.2074 5.23145C12.1216 5.36414 12.0467 5.52495 11.9838 5.71289C11.9265 5.8955 11.8743 6.09799 11.8285 6.31934L11.6146 7.34863C11.5917 7.45929 11.5743 7.56447 11.5629 7.66406C11.5514 7.75809 11.5453 7.85226 11.5453 7.94629C11.5453 8.22841 11.5996 8.44991 11.7084 8.61035C11.8228 8.77074 12.0177 8.8505 12.2924 8.85059C12.4583 8.85059 12.6018 8.815 12.722 8.74316C12.8423 8.67123 12.9457 8.56835 13.0316 8.43555C13.1174 8.30282 13.1892 8.14534 13.2465 7.96289C13.3094 7.77478 13.3637 7.56994 13.4095 7.34863L13.6244 6.31934C13.6473 6.20867 13.6647 6.10579 13.6761 6.01172C13.6876 5.9123 13.6927 5.81559 13.6927 5.72168C13.6927 5.43947 13.6354 5.21809 13.5209 5.05762C13.4121 4.89723 13.2204 4.8174 12.9457 4.81738Z" fill="white" fill-opacity="0.6"/>
</svg>
