<svg width="24" height="24" viewBox="0 0 24 24" fill="none" xmlns="http://www.w3.org/2000/svg">
<path fill-rule="evenodd" clip-rule="evenodd" d="M12 22C12.3375 22 12.6711 21.9833 13 21.9506V15H15V8H9V12H11V21.9506C11.3289 21.9833 11.6625 22 12 22ZM7 12V6H17V15H20V18.001C21.2558 16.3295 22 14.2516 22 12C22 6.47715 17.5228 2 12 2C6.47715 2 2 6.47715 2 12C2 14.2516 2.74418 16.3295 4 18.001V12H7ZM18 20.0007C17.1046 20.6733 16.0927 21.199 15 21.5422V17H18V20.0007ZM9 21.5422V14H6V20.0007C6.89535 20.6733 7.90726 21.199 9 21.5422Z" fill="white"/>
</svg>
