<?xml version="1.0" encoding="UTF-8"?>
<svg width="16px" height="16px" viewBox="0 0 16 16" version="1.1" xmlns="http://www.w3.org/2000/svg" xmlns:xlink="http://www.w3.org/1999/xlink">
    <!-- Generator: Sketch 48.1 (47250) - http://www.bohemiancoding.com/sketch -->
    <title>datacenter_ip</title>
    <desc>Created with Sketch.</desc>
    <defs></defs>
    <g id="Page-1" stroke="none" stroke-width="1" fill="none" fill-rule="evenodd">
        <path d="M2,7 L2,14 L14,14 L14,7 L2,7 Z M12,5 L14,5 C15.1045695,5 16,5.8954305 16,7 L16,14 C16,15.1045695 15.1045695,16 14,16 L2,16 C0.8954305,16 1.3527075e-16,15.1045695 0,14 L0,7 C-1.3527075e-16,5.8954305 0.8954305,5 2,5 L4,5 L4,1 C4,0.44771525 4.44771525,1.01453063e-16 5,0 C5.55228475,-1.01453063e-16 6,0.44771525 6,1 L6,5 L10,5 L10,1 C10,0.44771525 10.4477153,1.01453063e-16 11,0 C11.5522847,-1.01453063e-16 12,0.44771525 12,1 L12,5 Z M5.5,12 C4.67157288,12 4,11.3284271 4,10.5 C4,9.67157288 4.67157288,9 5.5,9 C6.32842712,9 7,9.67157288 7,10.5 C7,11.3284271 6.32842712,12 5.5,12 Z M10.5,12 C9.67157288,12 9,11.3284271 9,10.5 C9,9.67157288 9.67157288,9 10.5,9 C11.3284271,9 12,9.67157288 12,10.5 C12,11.3284271 11.3284271,12 10.5,12 Z" id="datacenter_ip" fill="#FFFFFF" fill-rule="nonzero"></path>
    </g>
</svg>