<svg xmlns="http://www.w3.org/2000/svg" width="16" height="14" viewBox="0 0 16 14">
    <path fill="#FFF" fill-rule="nonzero" d="M13.4 5.605a2.126 2.126 0 0 0-.012-2.972 2.191 2.191 0 0 0-3.038-.042L7.962 4.855 5.613 2.589a2.13 2.13 0 0 0-2.968.027l-.033.033a2.121 2.121 0 0 0-.024 2.958l5.424 5.531L13.4 5.605zM7.974 2.088l1-.948a4.191 4.191 0 0 1 5.83.081 4.126 4.126 0 0 1 .023 5.786L8.017 14 1.16 7.007a4.123 4.123 0 0 1 .035-5.77l.034-.033C2.806-.379 5.39-.403 7 1.15l.973.938z" opacity="1"/>
</svg>
