<?xml version="1.0" encoding="UTF-8"?>
<svg width="16px" height="16px" viewBox="0 0 16 16" version="1.1" xmlns="http://www.w3.org/2000/svg" xmlns:xlink="http://www.w3.org/1999/xlink">
    <!-- Generator: Sketch 48.1 (47250) - http://www.bohemiancoding.com/sketch -->
    <title>nop2p</title>
    <desc>Created with Sketch.</desc>
    <defs></defs>
    <g id="desktop_flow_03" stroke="none" stroke-width="1" fill="none" fill-rule="evenodd" transform="translate(-1274.000000, -547.000000)">
        <path d="M1289.25,549.25 L1276.25,562.25 C1275.83579,562.664214 1275.16421,562.664214 1274.75,562.25 C1274.33579,561.835786 1274.33579,561.164214 1274.75,560.75 L1277.5,558 L1274,558 L1274,557 C1274,555.275943 1274.87259,553.755689 1276.20022,552.856786 C1276.9217,553.56396 1277.90993,554 1279,554 C1280.09007,554 1281.0783,553.56396 1281.79978,552.856786 C1281.96619,552.969457 1282.12545,553.091889 1282.27674,553.223262 L1287.75,547.75 C1288.16421,547.335786 1288.83579,547.335786 1289.25,547.75 C1289.66421,548.164214 1289.66421,548.835786 1289.25,549.25 Z M1287.35663,553.143374 C1287.75955,553.654107 1288,554.298973 1288,555 C1288,556.656854 1286.65685,558 1285,558 C1284.29897,558 1283.65411,557.759551 1283.14337,557.356626 L1287.35663,553.143374 Z M1280.35567,560.144329 L1282.43258,558.067424 C1283.12731,558.649532 1284.02273,559 1285,559 C1286.09007,559 1287.0783,558.56396 1287.79978,557.856786 C1289.12741,558.755689 1290,560.275943 1290,562 L1290,563 L1280,563 L1280,562 C1280,561.344308 1280.12621,560.718094 1280.35567,560.144329 Z M1279,553 C1277.34315,553 1276,551.656854 1276,550 C1276,548.343146 1277.34315,547 1279,547 C1280.65685,547 1282,548.343146 1282,550 C1282,551.656854 1280.65685,553 1279,553 Z" id="nop2p" fill="#FFFFFF"></path>
    </g>
</svg>