<svg width="24" height="24" viewBox="0 0 24 24" fill="none" xmlns="http://www.w3.org/2000/svg">
<path d="M12 5C15.3137 5 18 7.68629 18 11C18 12.5715 16.9403 14.5913 15.4873 16.3027C14.78 17.1357 14.0253 17.8405 13.3516 18.3271C13.0147 18.5704 12.7142 18.7475 12.4639 18.8604C12.2024 18.9782 12.0528 19 12 19C11.9472 19 11.7976 18.9782 11.5361 18.8604C11.2858 18.7475 10.9853 18.5704 10.6484 18.3271C9.97469 17.8405 9.21995 17.1357 8.5127 16.3027C7.05965 14.5913 6 12.5715 6 11C6 7.68629 8.68629 5 12 5Z" stroke="white" stroke-width="2"/>
<circle cx="12" cy="11" r="2" fill="white"/>
</svg>
