<svg width="16" height="16" viewBox="0 0 16 16" fill="none" xmlns="http://www.w3.org/2000/svg">
<path d="M8 1C11.3137 1 14 3.68629 14 7C14 8.57148 12.9403 10.5913 11.4873 12.3027C10.78 13.1357 10.0253 13.8405 9.35156 14.3271C9.01473 14.5704 8.71421 14.7475 8.46387 14.8604C8.20245 14.9782 8.05277 15 8 15C7.94723 15 7.79755 14.9782 7.53613 14.8604C7.28579 14.7475 6.98527 14.5704 6.64844 14.3271C5.97469 13.8405 5.21995 13.1357 4.5127 12.3027C3.05965 10.5913 2 8.57148 2 7C2 3.68629 4.68629 1 8 1Z" stroke="white" stroke-width="2"/>
<circle cx="8" cy="7" r="2" fill="white"/>
</svg>
