<?xml version="1.0" encoding="UTF-8"?>
<svg width="16px" height="16px" viewBox="0 0 16 16" version="1.1" xmlns="http://www.w3.org/2000/svg" xmlns:xlink="http://www.w3.org/1999/xlink">
    <!-- Generator: Sketch 51.3 (57544) - http://www.bohemiancoding.com/sketch -->
    <title>uc_icon</title>
    <desc>Created with Sketch.</desc>
    <defs></defs>
    <g id="Page-1" stroke="none" stroke-width="1" fill="none" fill-rule="evenodd">
        <g id="connected_countrydown" transform="translate(-470.000000, -631.000000)" fill="#FFFFFF">
            <path d="M476.680449,637.058172 L476.035678,639.046538 L479.964322,639.046538 L479.319551,637.058172 L476.680449,637.058172 Z M477.325221,635.069807 L478,635.069807 L478.674779,635.069807 L478,632.988901 L477.325221,635.069807 Z M475.390907,641.034903 L474.746135,643.023269 L481.253865,643.023269 L480.609093,641.034903 L475.390907,641.034903 Z M472,645.011634 L476.096474,632.378802 C476.435395,631.333629 477.562381,630.7595 478.613669,631.096449 C479.226077,631.292732 479.706094,631.769957 479.903526,632.378802 L484,645.011634 L484.011634,645.011634 C485.109778,645.011634 486,645.901856 486,647 L470,647 C470,645.901856 470.890222,645.011634 471.988366,645.011634 L472,645.011634 Z" id="uc_icon"></path>
        </g>
    </g>
</svg>