<svg xmlns="http://www.w3.org/2000/svg" width="68" height="68" viewBox="0 0 68 68">
    <path fill="#FFF" fill-rule="evenodd" d="M34 0c18.778 0 34 15.222 34 34S52.778 68 34 68 0 52.778 0 34 15.222 0 34 0zm4 14.4v3.073C45.457 19.272 51 25.99 51 34c0 9.389-7.611 17-17 17s-17-7.611-17-17c0-7.649 5.052-14.118 12-16.253V14.63C20.375 16.85 14 24.68 14 34c0 11.046 8.954 20 20 20s20-8.954 20-20c0-9.676-6.871-17.747-16-19.6zm-6 19.1c0 .828.672 1.5 1.5 1.5s1.5-.672 1.5-1.5V9.479C34.989 8.66 34.32 8 33.5 8c-.828 0-1.5.672-1.5 1.5z"/>
</svg>
