<svg xmlns="http://www.w3.org/2000/svg" width="16" height="16" viewBox="0 0 16 16">
  <path fill="#FFF" d="M2.34314575,2.34314575 L0,0 L6,0 L6,6 L3.75735931,3.75735931 C2.67157288,4.84314575 2,6.34314575 2,8 C2,11.3137085 4.6862915,14 8,14 C11.3137085,14 14,11.3137085 14,8 C14,4.6862915 11.3137085,2 8,2 L8,-4.26325641e-13 C12.418278,-4.26325641e-13 16,3.581722 16,8 C16,12.418278 12.418278,16 8,16 C3.581722,16 0,12.418278 0,8 C0,5.790861 0.8954305,3.790861 2.34314575,2.34314575 Z" transform="rotate(90 8 8)"/>
</svg>
