<svg width="20" height="20" viewBox="0 0 20 20" fill="none" xmlns="http://www.w3.org/2000/svg">
<path d="M14.2764 12.6304C14.4912 12.6304 14.6742 12.67 14.8252 12.7485C14.9821 12.8215 15.1102 12.9285 15.209 13.0688C15.3077 13.2036 15.3803 13.3663 15.4268 13.5571C15.4732 13.7424 15.4971 13.9446 15.4971 14.1636C15.4971 14.6352 15.4384 15.062 15.3223 15.4438C15.2119 15.8201 15.0608 16.1431 14.8691 16.4126C14.6775 16.6821 14.4508 16.8896 14.1895 17.0356C13.9338 17.1817 13.6606 17.2554 13.3701 17.2554C13.0506 17.2554 12.7863 17.1709 12.5771 17.0024C12.3738 16.834 12.2576 16.6287 12.2285 16.3872H12.1846L11.6797 18.8384H10.459L11.7227 12.7319H12.9434L12.7344 13.7593H12.7861C12.9662 13.3999 13.1699 13.1218 13.3965 12.9253C13.623 12.7289 13.9163 12.6304 14.2764 12.6304ZM3.20703 11.1733C3.4743 11.1733 3.72761 11.2043 3.96582 11.2661C4.2039 11.3223 4.41573 11.41 4.60156 11.5278C4.79324 11.6457 4.95624 11.7913 5.08984 11.9653C5.22928 12.1394 5.3336 12.3393 5.40332 12.564L4.34863 13.103C4.27891 12.8279 4.13685 12.6194 3.92188 12.479C3.71278 12.3331 3.45129 12.2603 3.1377 12.2603C2.66711 12.2603 2.30051 12.3919 2.03906 12.6558C1.78342 12.9141 1.60956 13.2712 1.5166 13.7261L1.3252 14.6528C1.29036 14.8212 1.27246 14.9785 1.27246 15.1245C1.27248 15.3095 1.29844 15.4694 1.35059 15.604C1.40282 15.733 1.47555 15.8401 1.56836 15.9243C1.66132 16.0086 1.76959 16.0706 1.8916 16.1099C2.01343 16.1491 2.14101 16.1684 2.27441 16.1685C2.46034 16.1685 2.63517 16.146 2.79785 16.1011C2.9662 16.0505 3.11445 15.9831 3.24219 15.8989C3.37567 15.8091 3.48616 15.7084 3.57324 15.5962C3.6603 15.4784 3.71799 15.3519 3.74707 15.2173L3.80859 14.9302H2.70996L2.91992 13.9028H5.2207L4.5498 17.1548H3.5127L3.7041 16.2192H3.63379C3.48273 16.5056 3.27109 16.7505 2.99805 16.9526C2.72502 17.1547 2.38211 17.2554 1.96973 17.2554C1.67922 17.2554 1.41199 17.2073 1.16797 17.1118C0.929772 17.0107 0.723121 16.8621 0.548828 16.6655C0.374677 16.4691 0.238371 16.2249 0.139648 15.9331C0.0466958 15.6355 9.43595e-06 15.29 0 14.897C0 14.3691 0.0754992 13.8772 0.226562 13.4224C0.38338 12.9678 0.601184 12.5748 0.879883 12.2437C1.16458 11.9067 1.50232 11.6458 1.8916 11.4604C2.2866 11.2696 2.72492 11.1734 3.20703 11.1733ZM7.65332 13.7593H7.70605C7.88598 13.4004 8.08913 13.1227 8.31543 12.9263C8.54202 12.7297 8.83606 12.6313 9.19629 12.6313C9.41109 12.6314 9.59413 12.67 9.74512 12.7485C9.90199 12.8215 10.0301 12.9285 10.1289 13.0688C10.2276 13.2035 10.3002 13.3664 10.3467 13.5571C10.3932 13.7424 10.416 13.9455 10.416 14.1646C10.416 14.6361 10.3584 15.0631 10.2422 15.4448C10.1318 15.821 9.98075 16.1441 9.78906 16.4136C9.59741 16.683 9.37068 16.8906 9.10938 17.0366C8.85382 17.1826 8.58043 17.2553 8.29004 17.2554C7.97052 17.2554 7.70622 17.1709 7.49707 17.0024C7.29381 16.834 7.17756 16.6295 7.14844 16.3882H7.10449L6.94727 17.1548H5.72754L7.01758 10.9214H8.2373L7.65332 13.7593ZM18.2256 12.6304C18.5797 12.6304 18.8991 12.6894 19.1836 12.8071C19.4741 12.9194 19.7215 13.0938 19.9248 13.3296L19.1582 14.02C19.0478 13.8853 18.9047 13.7793 18.7305 13.7007C18.562 13.6165 18.3762 13.5737 18.1729 13.5737C17.9696 13.5738 17.8065 13.6187 17.6846 13.7085C17.5684 13.7927 17.5107 13.9029 17.5107 14.0376C17.5108 14.1217 17.5396 14.1978 17.5977 14.2651C17.6616 14.3324 17.775 14.3774 17.9375 14.3999L18.3994 14.4585C18.7945 14.509 19.0965 14.633 19.3057 14.8296C19.5148 15.0205 19.6201 15.29 19.6201 15.6382C19.6201 15.8513 19.5763 16.0561 19.4893 16.2524C19.4079 16.449 19.2827 16.6233 19.1143 16.7749C18.9458 16.9209 18.7362 17.0386 18.4863 17.1284C18.2366 17.2126 17.9492 17.2554 17.624 17.2554C17.2406 17.2554 16.8889 17.1902 16.5693 17.061C16.2499 16.9319 15.9885 16.7383 15.7852 16.48L16.5518 15.7896C16.6795 15.9524 16.8277 16.0818 16.9961 16.1772C17.1704 16.2671 17.3889 16.312 17.6504 16.312C17.9347 16.312 18.1348 16.2637 18.251 16.1685C18.373 16.0674 18.4346 15.9519 18.4346 15.8228C18.4345 15.7387 18.4027 15.6625 18.3389 15.5952C18.2808 15.5279 18.1702 15.4829 18.0078 15.4604L17.5459 15.4019C17.1508 15.3513 16.8478 15.2305 16.6387 15.0396C16.4298 14.843 16.3252 14.5679 16.3252 14.2144C16.3252 14.0066 16.3629 13.8067 16.4385 13.6157C16.514 13.425 16.6304 13.2567 16.7871 13.1108C16.944 12.9648 17.1417 12.8494 17.3799 12.7651C17.6181 12.6753 17.9002 12.6304 18.2256 12.6304ZM8.59473 13.6001C8.438 13.6001 8.2957 13.6388 8.16797 13.7173C8.04015 13.7959 7.92988 13.8921 7.83691 14.0044C7.73815 14.1167 7.65072 14.2515 7.5752 14.4087C7.50553 14.5602 7.45281 14.7176 7.41797 14.8804L7.27832 15.5542C7.23195 15.7786 7.27565 15.9586 7.40918 16.0933C7.54277 16.2224 7.73764 16.2866 7.99316 16.2866C8.52189 16.2866 8.85665 15.9583 8.99609 15.3013L9.11719 14.7114C9.12879 14.6497 9.14074 14.5713 9.15234 14.4761C9.16394 14.3808 9.16989 14.2992 9.16992 14.2319C9.16992 14.0354 9.11728 13.8804 9.0127 13.7681C8.91394 13.6559 8.77471 13.6001 8.59473 13.6001ZM13.6748 13.5991C13.5181 13.5992 13.3758 13.6387 13.248 13.7173C13.1203 13.7959 13.0099 13.8912 12.917 14.0034C12.8182 14.1157 12.7308 14.2505 12.6553 14.4077C12.5856 14.5592 12.5339 14.7167 12.499 14.8794L12.3594 15.5532C12.3129 15.7778 12.3566 15.9575 12.4902 16.0923C12.6239 16.2214 12.8186 16.2866 13.0742 16.2866C13.6026 16.2865 13.9367 15.9579 14.0762 15.3013L14.1982 14.7114C14.2099 14.6497 14.2218 14.5706 14.2334 14.4751C14.245 14.3798 14.25 14.2983 14.25 14.231C14.25 14.0346 14.1982 13.8803 14.0938 13.7681C13.995 13.6558 13.8549 13.5991 13.6748 13.5991ZM13.6055 2.16162C14.1166 2.16162 14.535 2.25157 14.8604 2.43115C15.1857 2.60337 15.438 2.83217 15.6162 3.1167C15.802 3.39356 15.9293 3.70418 15.999 4.04834C16.0687 4.38513 16.1045 4.71479 16.1045 5.03662C16.1045 5.70295 16.023 6.35108 15.8604 6.97998C15.6977 7.60894 15.4612 8.16711 15.1514 8.65381C14.8416 9.14038 14.4539 9.53305 13.9893 9.83252C13.5322 10.1245 13.0087 10.271 12.4199 10.271C11.9089 10.2709 11.4903 10.1844 11.165 10.0122C10.8399 9.83256 10.5843 9.60451 10.3984 9.32764C10.2203 9.04311 10.0961 8.73196 10.0264 8.39502C9.95671 8.05829 9.9219 7.72525 9.92188 7.396C9.92188 6.72961 10.0033 6.08159 10.166 5.45264C10.3287 4.82368 10.5651 4.2655 10.875 3.77881C11.1848 3.29224 11.5684 2.9028 12.0254 2.61084C12.4824 2.31144 13.0091 2.16166 13.6055 2.16162ZM7.06836 8.81104H8.74121L8.47363 10.1362H3.07031L3.33789 8.81104H5.42969L6.50977 3.521H6.40527L4.37207 5.60986L3.38477 4.76709L5.79004 2.29639H8.41602L7.06836 8.81104ZM13.4551 3.48682C13.2305 3.48682 13.0367 3.53606 12.874 3.6333C12.7114 3.73061 12.5713 3.86872 12.4551 4.04834C12.3389 4.22794 12.2385 4.44531 12.1533 4.69971C12.0759 4.94678 12.0063 5.22054 11.9443 5.52002L11.6533 6.9126C11.6223 7.06229 11.5995 7.20463 11.584 7.33936C11.5685 7.46659 11.5606 7.59396 11.5605 7.72119C11.5605 8.10294 11.6341 8.4025 11.7812 8.61963C11.9362 8.83673 12.1995 8.94577 12.5713 8.9458C12.7959 8.9458 12.9897 8.89666 13.1523 8.79932C13.315 8.70198 13.4551 8.56397 13.5713 8.38428C13.6875 8.20458 13.7839 7.99073 13.8613 7.74365C13.9465 7.48912 14.0201 7.21204 14.082 6.9126L14.373 5.52002C14.404 5.3703 14.4269 5.23127 14.4424 5.104C14.4578 4.96941 14.4658 4.83855 14.4658 4.71143C14.4658 4.32968 14.3882 4.03011 14.2334 3.81299C14.0863 3.59594 13.8267 3.48691 13.4551 3.48682Z" fill="white" />
</svg>
