<svg xmlns="http://www.w3.org/2000/svg" width="32" height="32" viewBox="0 0 32 32">
    <path fill="#FFF" d="M29.609 4.442c3.167 3.179 3.194 8.366.045 11.572L16.034 30 2.32 16.014C-.797 12.808-.772 7.65 2.39 4.476l.068-.068c3.155-3.167 8.325-3.215 11.546-.109L16 6l1.949-1.72c3.278-3.108 8.486-3.024 11.66.162zM4.06 5.64l-.186.18-.067.067c-2.328 2.336-2.409 6.108-.236 8.538l.176.189L16.03 27.138l12.198-12.526c2.317-2.358 2.36-6.153.145-8.57l-.18-.188c-2.352-2.36-6.184-2.475-8.726-.251l-.193.175L16 9l-.009-.009L14 11l4 4-5 5 3-5-4-4 2.646-3.307-1.94-1.871-.092-.083C10.242 3.45 6.458 3.427 4.06 5.64z"/>
</svg>
