<svg width="16" height="16" viewBox="0 0 16 16" fill="none" xmlns="http://www.w3.org/2000/svg">
<path fill-rule="evenodd" clip-rule="evenodd" d="M3 0C1.34315 0 0 1.34315 0 3V13C0 14.6569 1.34315 16 3 16H13C14.6569 16 16 14.6569 16 13V3C16 1.34315 14.6569 0 13 0H3ZM4.29289 4.29289C4.68342 3.90237 5.31658 3.90237 5.70711 4.29289L8.70711 7.29289L9.41421 8L8.70711 8.70711L5.70711 11.7071C5.31658 12.0976 4.68342 12.0976 4.29289 11.7071C3.90237 11.3166 3.90237 10.6834 4.29289 10.2929L6.58579 8L4.29289 5.70711C3.90237 5.31658 3.90237 4.68342 4.29289 4.29289ZM10 10C9.44771 10 9 10.4477 9 11C9 11.5523 9.44771 12 10 12H11C11.5523 12 12 11.5523 12 11C12 10.4477 11.5523 10 11 10H10Z" fill="white"/>
</svg>
