<svg width="24" height="24" viewBox="0 0 24 24" fill="none" xmlns="http://www.w3.org/2000/svg">
<g opacity="0.7">
<path fill-rule="evenodd" clip-rule="evenodd" d="M17 10C18.1046 10 19 10.8954 19 12C19 13.1046 18.1046 14 17 14H12.75V16.1465C13.251 16.3494 13.6506 16.749 13.8535 17.25H18.5C18.9142 17.25 19.25 17.5858 19.25 18C19.25 18.4142 18.9142 18.75 18.5 18.75H13.8535C13.5567 19.4828 12.8392 20 12 20C11.1608 20 10.4433 19.4828 10.1465 18.75H5.5C5.08579 18.75 4.75 18.4142 4.75 18C4.75 17.5858 5.08579 17.25 5.5 17.25H10.1465C10.3494 16.749 10.749 16.3494 11.25 16.1465V14H7C5.89543 14 5 13.1046 5 12C5 10.8954 5.89543 10 7 10H17ZM7 11.5C6.72386 11.5 6.5 11.7239 6.5 12C6.5 12.2761 6.72386 12.5 7 12.5H8C8.27614 12.5 8.5 12.2761 8.5 12C8.5 11.7239 8.27614 11.5 8 11.5H7ZM14 11.5C13.7239 11.5 13.5 11.7239 13.5 12C13.5 12.2761 13.7239 12.5 14 12.5H17C17.2761 12.5 17.5 12.2761 17.5 12C17.5 11.7239 17.2761 11.5 17 11.5H14Z" fill="white"/>
<path fill-rule="evenodd" clip-rule="evenodd" d="M17 5C18.1046 5 19 5.89543 19 7C19 8.10457 18.1046 9 17 9H7C5.89543 9 5 8.10457 5 7C5 5.89543 5.89543 5 7 5H17ZM7 6.5C6.72386 6.5 6.5 6.72386 6.5 7C6.5 7.27614 6.72386 7.5 7 7.5H8C8.27614 7.5 8.5 7.27614 8.5 7C8.5 6.72386 8.27614 6.5 8 6.5H7ZM14 6.5C13.7239 6.5 13.5 6.72386 13.5 7C13.5 7.27614 13.7239 7.5 14 7.5H17C17.2761 7.5 17.5 7.27614 17.5 7C17.5 6.72386 17.2761 6.5 17 6.5H14Z" fill="white"/>
</g>
</svg>
