<svg width="32" height="32" viewBox="0 0 32 32" fill="none" xmlns="http://www.w3.org/2000/svg">
<g opacity="0.7">
<path d="M16.6581 3.22203C20.3338 0.0876625 25.9118 0.284128 29.3467 3.71722C32.8479 7.21753 32.8904 12.8861 29.4366 16.4353L29.4385 16.4372L15.951 31L2.53582 16.4334C-0.883493 12.8865 -0.845244 7.24256 2.65301 3.74557L2.71161 3.68698C6.24847 0.152568 12.052 0.10025 15.66 3.56413L15.9647 3.85708L16.3085 3.53577L16.6581 3.22203ZM26.4715 6.40864C24.5884 4.52708 21.581 4.3635 19.5041 5.96259L19.1017 6.30658L15.9432 9.28718L12.8433 6.31225C10.8154 4.36507 7.57169 4.39564 5.58686 6.3784L5.52826 6.43699C3.63293 8.33133 3.49837 11.3665 5.13174 13.4207L5.48138 13.8176L5.50287 13.8384L5.52045 13.8592L15.9569 25.19L26.4578 13.8554L26.5008 13.8101C28.5129 11.7704 28.4973 8.43375 26.4715 6.40864Z" fill="white"/>
</g>
</svg>
