<svg width="32" height="32" viewBox="0 0 32 32" fill="none" xmlns="http://www.w3.org/2000/svg">
<path d="M26 14C26 8.47715 21.5228 4 16 4C10.4772 4 6 8.47715 6 14C6 16.4199 7.73678 19.9983 10.5488 23.3105C11.8779 24.876 13.2716 26.1679 14.4668 27.0312C15.0649 27.4632 15.549 27.7407 15.8945 27.8965C15.9326 27.9136 15.9692 27.9228 16 27.9355C16.0308 27.9228 16.0674 27.9136 16.1055 27.8965C16.451 27.7407 16.9351 27.4632 17.5332 27.0312C18.7284 26.1679 20.1221 24.876 21.4512 23.3105C24.2632 19.9983 26 16.4199 26 14ZM30 14C30 21.732 20 32 16 32C12 32 2 21.732 2 14C2 6.26801 8.26801 0 16 0C23.732 0 30 6.26801 30 14Z" fill="white"/>
<path d="M20 14C20 16.2091 18.2091 18 16 18C13.7909 18 12 16.2091 12 14C12 11.7909 13.7909 10 16 10C18.2091 10 20 11.7909 20 14Z" fill="white"/>
</svg>
