<svg width="32" height="32" viewBox="0 0 32 32" fill="none" xmlns="http://www.w3.org/2000/svg">
<path d="M26 28V32H6V28H26ZM28 26V6C28 4.89543 27.1046 4 26 4H6C4.89543 4 4 4.89543 4 6V26C4 27.1046 4.89543 28 6 28V32L5.69141 31.9922C2.52111 31.8316 0 29.2102 0 26V6C0 2.68629 2.68629 0 6 0H26C29.3137 0 32 2.68629 32 6V26C32 29.3137 29.3137 32 26 32V28C27.1046 28 28 27.1046 28 26Z" fill="white"/>
<path d="M8.58591 8.58591C9.36696 7.80486 10.633 7.80486 11.414 8.58591L18.8281 16L11.414 23.414C10.633 24.1951 9.36696 24.1951 8.58591 23.414C7.80486 22.633 7.80486 21.367 8.58591 20.5859L13.1718 16L8.58591 11.414C7.80486 10.633 7.80486 9.36696 8.58591 8.58591Z" fill="white"/>
<path d="M22 20C23.1046 20 24 20.8954 24 22C24 23.1046 23.1046 24 22 24H20C18.8954 24 18 23.1046 18 22C18 20.8954 18.8954 20 20 20H22Z" fill="white"/>
</svg>
