<svg width="16" height="16" viewBox="0 0 16 16" fill="none" xmlns="http://www.w3.org/2000/svg">
<path d="M7.97739 2.87981L7.27298 3.58961L7.97132 4.28264L8.67563 3.59567L7.97739 2.87981ZM8.85262 2.02612L9.55086 2.74199L8.85262 2.02612ZM13.9539 2.09941L14.6724 1.40385L13.9539 2.09941ZM13.9736 7.30927L13.2503 6.61879L13.2394 6.63017L13.2289 6.64187L13.9736 7.30927ZM7.97739 14L7.23083 14.6653L7.9753 15.5007L8.72208 14.6674L7.97739 14ZM2.01464 7.30927L2.76119 6.64395L2.75154 6.63312L2.74157 6.62257L2.01464 7.30927ZM2.04551 2.11463L1.32704 1.41906L1.32704 1.41906L2.04551 2.11463ZM2.07497 2.0842L2.79343 2.77976L2.79343 2.77976L2.07497 2.0842ZM7.12622 2.03512L7.83062 1.32531L7.83062 1.32531L7.12622 2.03512ZM8.67563 3.59567L9.55086 2.74199L8.15438 1.31026L7.27915 2.16395L8.67563 3.59567ZM9.55086 2.74199C10.5875 1.73083 12.2312 1.75764 13.2354 2.79497L14.6724 1.40385C12.8997 -0.427185 9.98585 -0.476125 8.15438 1.31026L9.55086 2.74199ZM13.2354 2.79497C14.2484 3.84131 14.2563 5.5649 13.2503 6.61879L14.697 7.99975C16.4461 6.16736 16.4307 3.22004 14.6724 1.40385L13.2354 2.79497ZM13.2289 6.64187L7.23269 13.3326L8.72208 14.6674L14.7183 7.97668L13.2289 6.64187ZM8.72394 13.3347L2.76119 6.64395L1.26809 7.9746L7.23083 14.6653L8.72394 13.3347ZM2.74157 6.62257C1.74488 5.56749 1.75339 3.85404 2.76397 2.81019L1.32704 1.41906C-0.429214 3.23314 -0.44217 6.16477 1.28771 7.99598L2.74157 6.62257ZM2.76397 2.81019L2.79343 2.77976L1.35651 1.38863L1.32704 1.41906L2.76397 2.81019ZM2.79343 2.77976C3.78579 1.75473 5.40783 1.73865 6.42182 2.74492L7.83062 1.32531C6.02668 -0.464902 3.12481 -0.437899 1.3565 1.38863L2.79343 2.77976ZM6.42182 2.74492L7.27298 3.58961L8.68179 2.17001L7.83062 1.32531L6.42182 2.74492Z" fill="white"/>
</svg>
