<?xml version="1.0" encoding="UTF-8"?>
<svg role="img" alt="" title="" class="css-1anbzow" width="16" height="16" viewBox="0 0 32 32" fill="none">
  <path fill-rule="evenodd" clip-rule="evenodd" d="M28.0607 6.06066C28.6464 5.47487 28.6464 4.52513 28.0607 3.93934C27.4749 3.35355 26.5251 3.35355 25.9393 3.93934L18.7396 11.1391C18.7068 11.1063 18.6732 11.0741 18.6388 11.0425C18.2901 10.7124 17.8652 10.4578 17.3704 10.275C16.8682 10.0895 16.3009 10 15.6732 10C15.0791 10 14.5365 10.0782 14.0489 10.2395C13.567 10.3989 13.1407 10.623 12.7736 10.9142C12.4209 11.1918 12.1244 11.5219 11.8851 11.9035C11.6505 12.267 11.4658 12.6538 11.3314 13.0633L11.2416 13.3369L13.8888 14.3634L13.9698 14.0342C14.0171 13.8421 14.0826 13.6671 14.1655 13.5081L14.1686 13.5018C14.2505 13.3354 14.3483 13.1966 14.4607 13.0824C14.5819 12.9593 14.7193 12.8631 14.8744 12.7927C15.0308 12.7263 15.2213 12.689 15.452 12.689C15.6016 12.689 15.7455 12.7113 15.8851 12.7556L15.8899 12.757C16.0367 12.8009 16.1612 12.865 16.2668 12.9476C16.3692 13.0276 16.4527 13.1278 16.5179 13.252C16.5303 13.2757 16.5416 13.3006 16.5518 13.3269L3.93934 25.9393C3.35355 26.5251 3.35355 27.4749 3.93934 28.0607C4.52513 28.6464 5.47487 28.6464 6.06066 28.0607L12.1213 22H19.9513V19.3753H15.2983L16.6778 18.2756L16.6815 18.2726C17.073 17.9501 17.4489 17.6327 17.809 17.3207C18.1806 16.9987 18.5053 16.658 18.7819 16.2983C19.0721 15.9241 19.3024 15.5252 19.4714 15.1017C19.5526 14.8981 19.6144 14.6855 19.6571 14.4642L21.3435 12.7778V22H24.3377V17.9545H26.854C27.4025 17.9545 27.9051 17.8635 28.3569 17.6752L28.3628 17.6726C28.8072 17.4758 29.1885 17.2071 29.5023 16.8653C29.8273 16.5227 30.0743 16.1119 30.245 15.6379C30.4165 15.1615 30.5 14.6389 30.5 14.0736C30.5 13.5186 30.4164 13.0019 30.2453 12.5264C30.075 12.0423 29.8283 11.6255 29.5023 11.2818C29.1879 10.9394 28.8055 10.6755 28.3598 10.4893C27.9072 10.2894 27.4035 10.1926 26.854 10.1926H23.9287L28.0607 6.06066ZM27.2091 13.1258L27.2033 13.1202C27.0731 12.9949 26.8754 12.9137 26.5696 12.9137H24.3377V15.2334H26.5696C26.8794 15.2334 27.0794 15.1554 27.2093 15.0374C27.3416 14.9162 27.4268 14.7291 27.4268 14.4268V13.7204C27.4268 13.4169 27.3412 13.2399 27.2151 13.131L27.2091 13.1258ZM7.0105 17.9545C7.55904 17.9545 8.06163 17.8635 8.51344 17.6752L8.51935 17.6726C8.96378 17.4758 9.34508 17.2071 9.65884 16.8653C9.98389 16.5226 10.2308 16.1119 10.4015 15.6379C10.573 15.1615 10.6565 14.6389 10.6565 14.0736C10.6565 13.5185 10.5729 13.0018 10.4018 12.5263C10.2315 12.0423 9.9848 11.6255 9.65883 11.2819C9.34444 10.9394 8.96208 10.6756 8.51636 10.4893C8.06372 10.2894 7.56005 10.1926 7.0105 10.1926H1.5V22H4.49424V17.9545H7.0105ZM7.35977 13.1202L7.36557 13.1258L7.37165 13.131C7.49768 13.2399 7.58328 13.4169 7.58328 13.7204V14.4268C7.58328 14.7291 7.49805 14.9163 7.36567 15.0375C7.2358 15.1554 7.03581 15.2334 6.72609 15.2334H4.49424V12.9137H6.72609C7.03188 12.9137 7.2296 12.9949 7.35977 13.1202Z" fill="white"/>
</svg>