<svg width="24" height="24" viewBox="0 0 24 24" fill="none" xmlns="http://www.w3.org/2000/svg">
<g opacity="0.7">
<path d="M8.5 7L11 9.5L8.5 12" stroke="white" stroke-width="2" stroke-linecap="round"/>
<path d="M13.5 12H15.5" stroke="white" stroke-width="2" stroke-linecap="round"/>
<path d="M19.7773 2C20.6623 2 21.4609 2.43753 22.0166 3C22.5731 3.56345 23 4.36663 23 5.25V18.75C23 19.6334 22.5731 20.4365 22.0166 21C21.4609 21.5625 20.6623 22 19.7773 22H4.22266C2.58112 22 1 20.5665 1 18.75V5.25C1 4.36663 1.4269 3.56345 1.9834 3C2.53911 2.43753 3.33768 2 4.22266 2H19.7773ZM4 20.5H7.5V16.5H4V20.5ZM8 18.6514L9.23242 20.5H10.2676L11.5 18.6514V16.5H10.5V18.3486L9.75 19.4736L9 18.3486V16.5H8V18.6514ZM12 20.5H13V19.5H15.5V16.5H12V20.5ZM16 16.5V20.5H17V17.9014L18.7324 20.5H20V16.5H19V19.0986L17.2676 16.5H16ZM6.5 19.5H5V17.5H6.5V19.5ZM14.5 18.5H13V17.5H14.5V18.5ZM4.22266 4C3.99675 4 3.68385 4.12518 3.40625 4.40625C3.12945 4.68654 3 5.00838 3 5.25V15H21V5.25C21 5.00838 20.8706 4.68654 20.5938 4.40625C20.3161 4.12518 20.0033 4 19.7773 4H4.22266Z" fill="white"/>
</g>
</svg>
