<svg xmlns="http://www.w3.org/2000/svg" width="24" height="12" viewBox="0 0 32 16">
    <g fill="none" fill-rule="evenodd">
        <g fill="#FFF" fill-rule="nonzero">
            <g>
                <path d="M13.5 11.001c.245 0 .45.177.492.41l.008.09v4c0 .245-.177.45-.41.492L13.5 16h-4c-.245 0-.45-.177-.492-.41L9 15.5v-4c0-.245.177-.45.41-.492l.09-.008h4zm12 0c.245 0 .45.177.492.41l.008.09v2c0 .245-.177.45-.41.492L25.5 14H22v1.5c0 .276-.224.5-.5.5-.245 0-.45-.177-.492-.41L21 15.5v-4c0-.245.177-.45.41-.492l.09-.008h4zm2.288.09l.066.056L31 14.294v-2.793c0-.245.177-.45.41-.492l.09-.008c.245 0 .45.177.492.41l.008.09v4c0 .416-.47.638-.788.41l-.066-.056L28 12.708v2.793c0 .245-.177.45-.41.492L27.5 16c-.245 0-.45-.177-.492-.41L27 15.5v-4c0-.416.47-.638.788-.41zM10 0l5 5v4h-2V6H9V2H2v12h5v2H0V0h10zm9.724 11.054c.22.11.323.36.256.587l-.033.084-2 4c-.17.34-.631.366-.846.078l-.048-.078-2-4c-.124-.247-.024-.548.223-.671.22-.11.482-.043.624.147l.047.076 1.553 3.105 1.553-3.105c.123-.247.424-.347.67-.223zM13 12h-3v3h3v-3zm12 0h-3v1h3v-1z" transform="translate(-176 -462) translate(176 462)"/>
            </g>
        </g>
    </g>
</svg>
