<svg width="24" height="24" viewBox="0 0 24 24" fill="none" xmlns="http://www.w3.org/2000/svg">
<g opacity="0.7">
<path d="M12.75 16.1468C13.251 16.3498 13.6506 16.7493 13.8535 17.2503H18.5C18.9142 17.2503 19.25 17.5861 19.25 18.0003C19.2498 18.4144 18.9141 18.7503 18.5 18.7503H13.8535C13.5567 19.4829 12.8391 20.0003 12 20.0003C11.1609 20.0003 10.4433 19.4829 10.1465 18.7503H5.5C5.0859 18.7503 4.75018 18.4144 4.75 18.0003C4.75 17.5861 5.08579 17.2503 5.5 17.2503H10.1465C10.3494 16.7493 10.749 16.3498 11.25 16.1468V14.0003H12.75V16.1468Z" fill="white"/>
<path d="M11.3965 4.45834C11.7536 4.1878 12.2464 4.1878 12.6035 4.45834L17.6035 8.24545C17.8529 8.4345 18 8.73033 18 9.0433V13.0003C17.9998 13.5524 17.5521 14.0003 17 14.0003H12.75V11.0003C12.75 10.5862 12.4142 10.2503 12 10.2503C11.5858 10.2503 11.25 10.5862 11.25 11.0003V14.0003H7C6.44786 14.0003 6.00023 13.5524 6 13.0003V9.0433C6 8.73033 6.14707 8.4345 6.39648 8.24545L11.3965 4.45834Z" fill="white"/>
</g>
</svg>
