<svg xmlns="http://www.w3.org/2000/svg" width="16" height="16" viewBox="0 0 16 16">
    <g fill="none" fill-rule="evenodd" opacity="1">
        <g fill="#FFF" fill-rule="nonzero">
            <g>
                <g>
                    <path d="M6 0c3.314 0 6 2.686 6 6 0 1.295-.41 2.495-1.109 3.476l4.816 4.817-1.414 1.414-4.817-4.816C8.495 11.59 7.296 12 6 12c-3.314 0-6-2.686-6-6s2.686-6 6-6zm0 2C3.79 2 2 3.79 2 6s1.79 4 4 4 4-1.79 4-4-1.79-4-4-4z" transform="translate(-261 -414) translate(261 414)"/>
                </g>
            </g>
        </g>
    </g>
</svg>
