<svg width="24" height="24" viewBox="0 0 24 24" fill="none" xmlns="http://www.w3.org/2000/svg">
<g opacity="0.7">
<path d="M8.5 7L11 9.5L8.5 12" stroke="white" stroke-width="2" stroke-linecap="round"/>
<path d="M13.5 12H15.5" stroke="white" stroke-width="2" stroke-linecap="round"/>
<path d="M19.7773 2C20.6623 2 21.4609 2.43753 22.0166 3C22.5731 3.56345 23 4.36663 23 5.25V18.75C23 19.6334 22.5731 20.4365 22.0166 21C21.4609 21.5625 20.6623 22 19.7773 22H4.22266C2.58112 22 1 20.5665 1 18.75V5.25C1 4.36663 1.4269 3.56345 1.9834 3C2.53911 2.43753 3.33768 2 4.22266 2H19.7773ZM7 20.5H8.26758L9.25 19.0264L10.2324 20.5H11.5V16.5H10.5V19.0986L9.76758 18H8.73242L8 19.0986V16.5H7V20.5ZM12 16.5V20.5H16.5V18H14.5V19H15.5V19.5H13V17.5H16.5V16.5H12ZM4.22266 4C3.99675 4 3.68385 4.12518 3.40625 4.40625C3.12945 4.68654 3 5.00838 3 5.25V15H21V5.25C21 5.00838 20.8706 4.68654 20.5938 4.40625C20.3161 4.12518 20.0033 4 19.7773 4H4.22266Z" fill="white"/>
</g>
</svg>
