<svg xmlns="http://www.w3.org/2000/svg" width="24" height="17" viewBox="0 0 22 16">
    <g fill="none" fill-rule="evenodd">
        <g fill="#FFF" fill-rule="nonzero">
            <g>
                <path d="M10 0l5 5v4h-2V6H9V2H2v12h5v2H0V0h10zm5.676 11.032c.23.086.359.323.316.557l-.024.087-1.5 4c-.135.361-.601.43-.842.157l-.055-.076-1.07-1.786-1.072 1.786c-.199.332-.67.316-.857.003l-.04-.084-1.5-4c-.097-.259.034-.547.293-.644.23-.086.483.008.604.211l.04.082 1.135 3.03.967-1.612c.178-.297.587-.322.804-.074l.054.074.966 1.611 1.137-3.03c.097-.258.385-.389.644-.292zM21.5 11c.276 0 .5.224.5.5 0 .246-.177.45-.41.492L21.5 12H18v3h3v-1h-1.5c-.245 0-.45-.177-.492-.41L19 13.5c0-.245.177-.45.41-.492L19.5 13h2c.246 0 .45.177.492.41l.008.09v2c0 .246-.177.45-.41.492L21.5 16h-4c-.245 0-.45-.177-.492-.41L17 15.5v-4c0-.245.177-.45.41-.492L17.5 11h4z" transform="translate(-176 -512) translate(176 512)"/>
            </g>
        </g>
    </g>
</svg>
