<svg xmlns="http://www.w3.org/2000/svg" viewBox="0 0 850.4 850.4"><path d="M303.6 829.6c-8.8-16-13.1-33.7-19.6-50.6-1.2-3.2-2.1-4.4-6.1-3.5-10 2.2-20.2.9-30.3 1.1h-29c-2.3 0-4.8.7-6.6-1.6 2 6 3.6 12.3 6.2 18.1 2.2 4.8-.5 6.8-3.6 8.1-18.2 7.4-36.5 14.5-54.8 21.7-3.5 1.4-7.2.7-10.8.9-12.7.9-25.5.8-38.2 2.1-6.6.6-13.2.1-19.7 1.3-3.6.6-6.1-3.2-7-5.5-8.6-23.2-16.7-46.7-25-70l-22.6-63-30.8-87c-1-2.8-2.2-5.6-3.1-8.4-1.4-4.4.3-7.8 4.8-9.6l49.9-20.6c3-1.2 3.3-2.6 2.3-5.5l-23.9-65.7a7.5 7.5 0 0 1 4.2-9.3c17.3-7.4 34.7-14.8 52.1-21.9 3.9-1.6 4.7-2.9 3.2-7-8.4-22.6-16.3-45.4-24.6-68-1.7-4.6.1-7 3.8-8.6 17.1-7.5 34.2-15.1 51.4-22.3 4.3-1.8 7-3.2 4.2-8.5-2-3.8-3-8-4.4-12.1-.9-2.8-2.5-3.4-4.9-1.8-2.3 1.6-4.6 1.3-7.1.3-22.5-8.8-45-17.4-67.4-26.4a12.2 12.2 0 0 1-6.8-7.1c-8.6-23.9-17.4-47.8-25.9-71.8-1.6-4.4 2.2-6.8 5.1-8.2 18-8.3 36.2-16.1 54.3-24.3 3.7-1.7 6.7-1.9 10.6.1 21 10.7 42.2 20.9 63.4 31.4 6.4 3.2 8.1 9.7 10.4 15.7 2.2 5.9 2.2 6.3 8 3.5 4.4-2.1 7.7-1.5 12 .6 18.2 9.2 36.6 17.9 55 26.7 4.9 2.4 8.4 5.9 10.2 11.2 1.4 4.1 3.2 8 4.2 12.2 1.1 4.5 3.3 5 7.2 3.2l47.7-20.8 84.3-36.3c3.2-1.4 4.3-2.7 2.7-6.7-5.8-14.4-10.9-29.1-16.2-43.6-3-8.1-5.9-16.2-9-24.2-2.4-6.3-1.9-8.3 4.5-11.2 11.4-5.2 23-10.2 34.5-15.2 7.3-3.2 14.5-6.4 21.8-9.4 2.1-.9 2.6-1.7 1.7-4l-16-42.7c-3.8-10.2-7.9-20.3-11.3-30.7-1.2-3.6 2.3-5.6 5.2-7 8.7-4.1 17.4-8.1 26.2-12 11.2-5 22.5-9.7 33.6-14.9 2.8-1.3 4.4-1.1 6.5 1 12.2 12.1 24.5 23.9 36.6 36 3.4 3.4 8.9 5 9.2 11 8 5 7.8 14.2 10.9 21.6 7 16.8 13.2 33.9 19.3 51 1.4 3.9-1.1 6.6-4.9 8.3-17.6 7.6-35.1 15.5-52.7 23-2.7 1.2-3.1 2.3-2.2 4.7 1.9 4.8 3.8 9.5 5.4 14.4 1.1 3.4 2.8 3.6 5.7 2.3l28.2-12.4c1.6-.7 2.7-.9 4.4.4 13.2 11 26.4 22 39.8 32.8 6.2 5 8.9 11.9 11.3 19 1.4 4.2 3.3 8.3 4.7 12.5.9 2.7 1.9 3.2 4.6 2 11.2-4.9 22.5-9.6 33.7-14.4 1.7-.7 2.9-1.5 4.8.2 11.2 10.1 22.3 20.2 33.8 30 6.9 5.9 9.3 13.9 12.4 21.8l2.6 7c3.2 8.8 3.2 8.8 11.9 5l31.5-13.5c1.7-.8 2.6-.5 3.8.7l29.6 28.1c6.7 6.4 8.9 15.2 12 23.4l27.4 71.8 26.2 69.5 19.8 51.3c2.1 5.5 4.6 11 6.3 16.7.9 3-2.1 4.9-4.3 5.8-19.7 8-39.6 15.8-59.4 23.7-1.5.6-3 .4-4.4-.2-8.7-3.7-17.5-7.1-25.9-11.3-4-2-6.8-5.8-8.4-10.4-12.6-33.9-25.4-67.7-38.1-101.6-2-5.3-4.2-10.4-6-15.8-.7-2.1-1.7-2.2-3.3-1.5-10.9 4.4-21.7 9-32.6 13.3-2.5 1-1.4 2.7-.9 4l10.5 27.3 18.9 50 23.7 63.1c2.2 5.8.8 8.9-5.3 11.4-16.1 6.5-32.1 13.3-48.4 19.2-5.4 2-4.8 4.3-3.3 8.2l23.4 61.6c2 5.3.8 7.5-4.5 9.6l-57.7 22.5-65.1 25.5c-1.6.6-3.1 1.3-4.8 1-11.4-1.8-22.9-.3-34.3-.9-3.8-.2-7.6-.1-11-2.9-2.9-2.4-3.1-5.7-4.2-8.6-8.2-21.8-16.2-43.7-24.2-65.5-1.8-4.8-.6-7.8 4.4-9.8 10.1-4.2 20.2-8.1 30.4-12.1l95.4-38c3.9-1.5 2.3-3.8 1.6-5.8-4-11-8.1-22-12.5-32.9-3.6-9.1-3.8-9-12.6-5.5l-100.7 40.5-137.4 55.5-28 11.4c-2.1.8-3.7 1.5-2.5 4.6 4.8 12.7 9.3 25.4 13.8 38.2 1.1 3 2 4.3 5.9 2.7 23.2-9.6 46.6-18.7 69.9-28 6.5-2.6 13.2-.7 19.8-.4 10.9.5 21.6 2.2 32.5 3.2 4.3.4 6.7 3.1 7.9 6.3 8.5 22.4 16.7 44.9 25 67.3 1.8 4.8-1.9 6-4.8 7.1l-49.3 19.6c-23.5 9.2-47 18.5-70.6 27.6-6.3 2.4-13.1 1.4-19.6 2.1-9.2 1-18.5 1-27.8 1.5-.7 0-1.3.2-1.5.9l-12.3.1zm134.1-266.9c-.8 0-1.8-.3-2.3.7-3 .2-5.5 1.6-8 3-1.1.3-2.3.4-3.4.8l-56.4 23.2-83.6 34.2-64.7 26.4c5.8 4.4 10.5 7.8 18.4 3.6 14.6-7.8 30-14.1 45-20.9 18.8-8.6 37.7-17 56.6-25.5l49.2-22.5 39.6-18.3c2.5-1.2 5.4-1.5 7.5-3.6.8-.1 1.7 0 1.9-1.2.6.4 1.2.1 1.6-.3l-.2-.4c-.6-.2-1.1 0-1.2.8zm204-278.2l-.5-1.4-13.8-37.1c-1.8 4.1-6 8-3.9 11.7 5 9.1 11.2 17.5 16.8 26.2l.7 1.3c.3.5.5 1.4 1.2.9.6-.5.3-1.3-.5-1.6zm-572.6-6.4c.5-.3 1.5-.3.9-1.1-.4-.5-1.2-.3-1.5.6l-1.4.5c-2 .8-3.9 1.8-5.9 2.4-6.6 1.8-10.8 5.6-11.1 13.3 6.2-4.9 12.5-9.2 17.8-14.8l1.2-.9zm372.6 300.6c-1.2-.2-2.3-.2-3.1.9l-1.9.5-94.3 38.2-82.8 33.6c-7.4 3-14.7 6.2-22.6 9.5 2.1 1.3 3.6 2 4.8 3.1 3.9 3.1 7.7 3.4 12.3.9 6.8-3.7 14-6.8 21.1-10l61.1-27.8 61.4-28.1 41.4-19.2c.8-.7 2.2-.4 2.6-1.6l1.6-.4-.4-.6c-.7 0-1.2.2-1.2 1zM60.6 273.6c2.9.5 5-1.1 7-2.7.6-.5-.6-1.3-1.4-1.6-3.6-1.2-3.5 2.7-5.3 3.9-.2.1-.2.3-.3.4.1.3-.9.3 0 .7v-.7zm548.2 386.9c-.3-.7-1-.9-1.4-.5-.6.6.3.9.7 1.3 2.7 2.2 3.7 6.1 7.5 7.6-2.1-9-2.5-9.5-6.8-8.4zM199.7 338.7c3.9-.8 6.9-3.3 10.7-4.9-8.1-5.4-9.7-4.7-10.9 4.2v.5l-.6.6.3.3.5-.7zm-50.2 141.1l.9.5-.3-1.1-3.4-10.5-1.5 1.8c-1.7 2.2-5 4.8-4.1 6.7 1.2 2.8 5.3 2.4 8.4 2.6zm278.2-294.2l-.1-.7-.6.3.7.4c2.9 6.2 6.9 11.8 10.7 18 .4-3.8-2-6.3-2.6-9.3-1-4.4-2.4-8.6-8.1-8.7zm-356 20.1a77.4 77.4 0 0 0-15 13l-.7.4.5.3.1-.8c9.7-1.4 13.6-4.8 15.1-12.9l.6-.6-.5-.2-.1.8zm430.8 92.1l.7.6c.6-.3.4-.8.1-1.2l-5.1-14.5c-2.1 2.4-2 5-3 7.2-.8 1.8-.8 3.3.9 4.3 2.2 1.2 3.8 3.2 6.4 3.6zm23.2-60.2l-.4-.3-.2.1.6.2c1.6 6.3 6.1 11 9.5 16.4.7.6 0 2.5 1.9 2.2-.2-1-.1-2.1-1.1-2.8l-7.4-20.7c-2.1 1.8.2 4.7-2.9 4.9zm-348.3 76.2l.9.4-.2-1.1c-1.6-4.5-3.3-9-4.7-13.6-1.3-4.1-4.2-5.5-8.5-5.9l12.5 20.2zM475.8 73.5c-.2-.4-.3-.9-.8-.6-.1.1.2.7.3 1.1 1.6 4.5 3.5 8.9 4.9 13.5 1.3 4.5 4.4 5.9 9.4 7.1-5.1-7.6-9.5-14.3-13.8-21.1zm-32.2-26.9c4-.1 7-2.5 10.4-4 4.5-2 6.1-4.8 5.8-10.9-5.4 5.4-11.5 9.4-16.2 14.9l-.7.4.5.3.2-.7zM112.4 800.4c-3.9 1.4-7.8 2.7-11.6 4.2-5 2-6.1 3.9-5.6 10.1 5.9-4.9 12.2-8.8 17.5-14.1l.7-.5c-.1-.1-.3-.3-.4-.2l-.6.5zm33.7-529.3l10.4-4.4c6.1-2.5 7.5-4.7 7.5-11.7-6.1 5.4-12.9 9.7-18.5 15.6l-1.5.8c.8.7 1.4.3 2.1-.3zM454.7 49.7c-6.4.9-11.6 4.1-18 7.6l4.6.9c11 2.7 10.9 2.7 13.4-8.5l.5-.7-.4-.1-.1.8zm-50.6 108.4c4.3-1.8 8.4-4 12.8-5.3 5.8-1.8 5.3-6.7 6.4-10.9-6.8 5.1-13.9 9.6-19.8 15.6-.4.2-.9.3-.6.9.1.1.8-.2 1.2-.3zM520 693.4c-.2-.6-.5-.6-1-.3l.6.6 2 6.6c.4 1.6 1.1 2.1 2.8 1.4l16.4-6.5a121 121 0 0 0-20.8-1.8zm244.7-145.8c1.2 5.6 3.7.6 5.5.6 3.1-1.1 6.3-.3 9.5-.6.6 2-1.3 3.3-1.7 5.4 19.5-1.6 38.2-6 57.5-5.8-5.7-3.8-11.6-7-17.4-10.4-1.4-.8-2.6-.2-3.8.2-3.3 1.2-6.4 2.8-9.6 3.9-8.2 2.8-15.8 8.1-25.1 6.8-.7-3.6 2.2-3.9 4.4-4.8l25.6-10.1c-3-2.8-6.6-3.5-9.3-5.5-2-1.5-3.3-1.4-5.1.1l-25.7 20.2h-4.8c-.2-2.1.9-3.5 2.6-4.9 3-2.5 6.7-4.4 9.7-8.2-4.5.4-7.5 2.9-11 3.6-7.3 1.4-9.3 6.5-9.9 13.5 2.7-2.3 5.1-4.5 8.6-4zM175.4 809.3c-13 1.5-25.5 5.1-38.3 7.9 13.6.9 26.7 0 38.6-7.5l2.3-.5-.5-.6c-.8-.1-1.6-.1-2.1.7zM171 464.2l1.2 2.1c.9-1.1.7-2-.3-2.9-1.4-7.9-5.5-14.8-7.5-22.6-1.1-4.5-3.5-6.8-8.7-4.5l15.3 27.9zm461.1 121.1l22.3-8.5a214.2 214.2 0 0 0-7.8-4.3c-4.7-2.9-6.6-1.8-7.2 3.9-.1.9.9 2.7-1 2.6-4.2-.3-5.5 2.6-7 5.6-.4.2-1 .4-.6.9.2.1.9-.2 1.3-.2zM513.9 343.4c-.3-1.5-.3-3.3-3-3.7l2.1 4.4a2245 2245 0 0 0 8.5 23.7c1.5 4.1 5.2 4.8 9.4 6.1-3.4-6.5-6.2-12.6-9.7-18.2-2.6-4-3.8-8.9-7.3-12.3zm-265 98.9l1.3 1.1c.6-.8.3-1.4-.5-1.9-1.9-7.9-5.5-15.2-7.8-22.9-1.4-4.7-4.5-6-9-6 1.1 2.2 1.9 4.1 3 6 4.4 7.9 8.1 16.2 13 23.7zm251-138.9l-.6-.6-.3.3.7.5c4.8 10.3 10.5 20.2 16.1 30.1l1.4-.6-11.9-32-.8 3.9-4.6-1.6zM43.6 494.7v-.7l-.5.2.5.5c2.8 11.2 7.5 21.7 11.7 32.3-.6-7.6-2.2-15.1-2.7-22.6-.4-6.2-3.6-8.8-9-9.7zm49.1 80.9l.3.4.3-.1-.6-.2c-2.5-11.3-7.3-21.8-11.2-32.6l-1.1.1c1.1 7 2.7 14 3 21 .2 6.7 3.5 9.8 9.3 11.4zm-32.1-70.9c.4-.3.4-.6-.1-.7l-.5.1c.3.1.5.3.6.6l11.7 33.6c-.2-8.6-1.6-16.8-2.8-25-.7-5.4-3.1-8-8.9-8.6zm351-343.1l-23.2 9.6 9 5.2c1.2.7 2.6.6 3.6-.6 3.6-4.6 8.2-8.4 10.9-13.8.5-.2 1.4-.3 1-1-.4-.5-1 0-1.3.6zM113.7 281.5l-.6-.6v1.1l11.6 32.7c1.6-1.5 1.1-2.7 1-3.7-.9-6-2.5-12-2.8-18-.3-6.3-3.2-9.9-9.2-11.5zm304 43c-.1-.4-.3-.9-.7-.5-.4.4.1.6.5.7 5.1 11 11.5 21.2 17.5 32 1.3-2.5-.1-4.1-.7-5.7-2.5-7-5.5-13.9-7.6-21-1.4-5-4.1-6.6-9-5.5zM283.6 759.6l-.1-.7-.4.1.5.6c3.1 11.9 8.1 23.1 12.4 34.5 1.3-6.4-1.3-12.4-1.1-18.5.4-8.3-5.7-12-11.3-16zM634 306.1c.3.5.5 1.4 1.2.9.6-.4.2-1.2-.5-1.5l-14.9-40.2c-1.1 3.5-1.4 5.5-2.3 7.1-2 3.6-1.1 5.9 2.4 7.9s5.8 4.7 4.4 9.3c-.4 1.3.5 2.6 1.2 3.7l8.5 12.8zM174.2 320c-.5-.3-.6-1.4-1.3-.8-.5.4-.2 1.2.5 1.6l12.8 36c1.5-4.9 5.2-8.6 2.5-13.2-4.6-8-9.6-15.8-14.5-23.6zm231.5-75.4l.5.6.1-.4-.7-.1c-3.1-12.4-8.5-23.9-13.4-35.7.7 8 2.6 15.9 3.2 23.8.5 7 4.2 10.1 10.3 11.8zm175 434.1c-10.2.9-20 4-30 6-4.7 1-9.6 1.3-14 3.6 7.6-.4 15 3.9 22.7-.3 6.7-3.7 14.7-5 21.3-9.3.8.4 1.5 0 2.4-.5-1.1-.7-1.9-.6-2.4.5zM421 98.2l1.2 4.2c.4-2 1.2-3.6-.3-5 .1-6-1.8-11.8-1.8-17.7 0-9.2-6.2-13.1-12.8-17.4L421 98.2zm64.8 581.3l-.5-1.2-.5.5.8 1c1.8 8.9 6 17 8.9 25.6 1.3 4 2.3 8.2 5.7 13-1-7.1-2.3-12.8-2.4-18.5-.1-9.4-3.7-16.2-12-20.4zm55.1-448.2l1.3 1.9c.7-1 .7-2-.4-2.7-3.7-12.5-8.9-24.4-13.6-37.3-1.1 2.8-1.9 4.8-2.5 6.8-.6 2.1-2.4 3.8-.7 6.4 5.4 8.2 10.6 16.6 15.9 24.9zM530.3 257c-.9-.9-.6-2.7-2.3-3.1a7 7 0 0 0 1.5 3.9l14.5 39.7c.9-2.2 1.2-3.3 1.8-4.3 2.9-5 1.8-9.4-1.4-14-5-7.2-9.5-14.8-14.1-22.2zm158.4 127.7c-1.5-.7-2.5.2-3.6.9l-29.4 19.2c-1.6 1-3.7 1.6-4.4 3.8 9.1-3.2 17.7-7.5 26.7-10.3 7.2-2.3 9.6-7.2 10.7-13.6.1-.2.9-.2.1-.7l-.1.7zM39.6 586.6c4.3.1 7.7-2.5 11.5-4 7.9-3.1 15.6-6.6 24.1-10.2l-8.8-5.2c-1.5-.9-2.9-.6-4.1.4l-22.7 19c0 .3-.9.3-.1.7l.1-.7zm67 226c3.7.2 6.5-2.1 9.7-3.3 8.6-3.1 17-6.7 26.6-10.5l-9.9-5.7c-1-.6-2-.5-2.8.2-7.6 6.7-16.3 12.1-23.6 19.3l-.3.3v.3l.3-.6zM61.7 206.7a503.4 503.4 0 0 0-36.5 16.2c7.8 2.8 14.7 6.3 21-1.4 4.5-5.6 11.2-9 15.5-14.8l.7-.2-.2-.4a1 1 0 0 0-.5.6zm131.1 193.1c11.3-3.7 21.9-9.1 32.9-13.7 5.5-2.3 7.7-6.3 7.3-12.7L192.2 399c-.4.4-1.4.5-.9 1.2.3.6 1.1.4 1.5-.4zM342.2 735l-45.1 11.5c-1.3.3-2.7.5-2.6 2.4 0 1.5.7 2.1 2.1 2.9 4.9 2.9 8.5-.4 12.5-2 11.3-4.5 23-8.3 33.9-13.9l1.5-.6c-.7-1.2-1.5-.6-2.3-.3zm110.4-616.4c1-.1 2-.1 2.9-.4 9.2-4 18.5-8 27.6-12.2 2.2-1 5.2-1.2 6.7-4.1-2.5-1.3-5.1-2.2-7.2-3.7-2.5-1.7-4.5-1.3-6.6.5l-23.7 19.4c-.6.1-1.5.4-1.1 1 .5.7 1.2.2 1.4-.5zm-289 465c-.5.1-1.1 0-1.4.2l-40.4 24.1c-.5.3-1.1.8-.5 1.6 1.5.4 2.9-.1 4.3-.7 9.3-3.9 18.4-8.4 27.9-11.4 7.2-2.3 9.7-6.8 10.4-13.5l.4-.6-.7.3zm24.8 93.2c.3.5-.1 1.8 1 1.3.7-.3.2-1.3-.3-1.9l-8.9-25.2c-3.3-9.3-6.8-18.6-10-28-1.3-3.7-5-3.5-6.8-2.8-3 1.1.2 3.1.9 4.6 3.8 8.8 7.5 17.6 11.8 26.2 4.1 8.5 7.2 17.7 12.3 25.8zm307.1-273.3c-.8.1-1.7.1-2.4.4-12 5.1-23.8 10.8-36.1 15.1-7.3 2.5-8.3 7.6-9.6 14.4l48.8-29.3 1.2-1.2c-.9-.4-1.4-.2-1.9.6zM64.6 629.7c-.1-.3-.1-1-.6-.3l.7.2c0 .8-.2 1.7.1 2.4L87 693.2l1.4 4.5c.2-2.7.9-4.1-.5-5.3-.2-1.5-.3-3-.7-4.4-4.1-15.6-8.7-31-12.3-46.7-1.4-6.3-4.5-9.9-10.3-11.6zm65.6-16.5l-48.4 19.6c2.5 1.5 4.5 2.3 6.1 3.7 3.4 3 6.3 2.5 9.6-.2 3-2.4 6.4-4.1 9.5-6.3 7.9-5.4 16.3-10.1 23.7-16.3.6-.1 1.7-.3 1.5-.8-.4-.8-1.3-.3-2 .3zm59.7 82.2c-.1-.8-.4-2-1.3-1.6-1.3.7.3 1.5.3 2.3l24.2 68c4.6-9.6 4.5-10 .6-18.1-4.3-9-8.2-18-12.4-27-3.7-7.9-7.6-15.7-11.4-23.6zm469.5-301c-10.8 3.5-21.1 8.5-31.7 12.7-6.8 2.7-13.6 5.7-21 8.8 3.9 2.2 7.1 3.9 10.2 5.8 1.4.8 2.3.5 3.5-.4l39.7-26 1.1-1.3c-.6-.7-1.3-.4-1.8.4zm-535 204l-59.8 24.4c4 2.4 7.2 6 10.5 6 3.4 0 6.8-3.4 10.3-5.3l5.5-3.3 34.4-20.8 1.1-1.3c-.8-.8-1.5-.5-2 .3zm499.2-110.7c-.1-.3-.1-1-.6-.2l.7.1c.1 1.1-.1 2.3.2 3.4 6 21.6 12.1 43.2 17.9 64.9 1.9 7.1 4.7 12.7 12.7 14 .4-.9-.1-1.6-.4-2.3l-20.8-55.2c-3.2-8.3-5.7-16.8-9.7-24.7zm-68.5 219.4l62-24.1c-2.5-3.3-6.1-3.6-8.5-5.7-2.1-1.9-3.8-1.2-5.8 0l-20 12c-9.4 5.8-19.4 10.6-28.3 17.2-.8.2-1.8-.2-2.4.8 1 .7 2 .6 3-.2zm163.8-238.7c-.3-.5.1-1.9-1-1.4-.8.3-.1 1.4.3 2l30.6 81.5c3.1-6.5 5.2-11.5 1.6-18-5.9-10.5-10.5-21.8-15.8-32.7l-15.7-31.4zm14.8-19.8c-.2 1.5.8 2.5 1.5 3.7.4-1.7 0-3-1.5-3.7.4-1.5-.4-2.8-1-4.2l-23.4-62.2-6.9-17.6c-4.7 9.8-4.9 9.9-1 18.1 7.1 15.1 14.4 30.2 21.9 45.2 3.4 6.9 5.7 14.4 10.4 20.7zm13.9-26.9l-.4-1.3-.4.5c.1.5.2.9.8.8l.3 1.8 31.1 82.7c2 5.4 6.4 6.8 12 9L775.4 481c-5.2-11.5-10.2-23-15.8-34.3-4-8.4-6.8-17.3-12-25zm19.7 8.4c-1.1-2.1-.8-5-3.9-6.6.7 3 1.1 5.4 3 7.4-.2 3 1.5 5.4 2.5 8 9.6 25.4 19.7 50.6 28.8 76.1 2.3 6.5 7 7.8 11.6 10.6.9-1.6.1-2.6-.4-3.6l-22.6-50.3-19-41.6zM634.7 246.5l-.5-.6v1.2l20.8 55.2c3-10.1 4.9-20.1 7-30 .4-1.9-.5-2.9-1.6-3.8-8.8-7.2-16.6-15.3-25.7-22zm-227.1-56.9l-.6-.6-.1.4.6.3c-.6 2.4.6 4.6 1.4 6.7l11.3 29.6 10.3 27.9 5-8.9c2.1-3.5 2.5-6.6.7-10.7-3.2-7-5-14.7-8.1-21.8-1.9-4.4-2.1-9.8-5.8-13a94.5 94.5 0 0 0-14.7-9.9zm68-155l-.5-.6-.1.4.6.2c-.6 1.2 0 2.3.4 3.3l9.3 24L498 96c3.9-7 7.6-13.3 11-19.7 3.5-6.6 3.5-6.6-2.1-12l-2.1-2.1c-9.8-9-18.2-19.6-29.2-27.6zm36.3 226.8l-.6-.6-.3.3.7.5c2.6 9.7 6.8 18.9 10.2 28.4 6.5 17.8 13.3 35.6 20 53.3l10.1 26.6c.4-6.9.2-13.6-.3-20.3-.9-11.4-1.3-22.8-1.8-34.1-.1-1.9-1.2-2.7-2.4-4-3.4-3.6-7.3-6.8-8.8-11.9-1.3-4.6-3.7-8.9-4.8-13.5-3-12.3-11.2-19.6-22-24.7zm220 37c-.2-.4-.4-1-.9-.5-.2.2 0 .8.1 1.3l7.5 20 22.6 59.4 19.8 52.5 8 20.2c.2-8.1-2.7-15.3-4.8-22.8-9.7-34.8-19.6-69.6-29.5-104.4-.8-2.7-1.2-5.5-3.4-7.6l-19.4-18.1zM591.1 500c-1.8.7-3.7 1.3-5.5 2.1a8099 8099 0 0 1-28.9 13.2l-20.3 9.2-20.3 9.2c-6.9 3.2-14.1 5.9-20.6 9.8-6.1 3.6-13 4.4-19.3 8.1-13.6 8-28.7 13.5-43.1 20.1L398 588c-2.5.7-5.1 1.2-7.1 3.8 3.3-.1 5.6-1.6 7.9-2.9 1.3-.3 2.6-.6 3.8-1.1 28.1-11.5 56.2-23.1 84.4-34.5 6.3-2.6 12.4-6.6 19.8-5.7.6.1 1.5 0 1.6-.8 0-3.3 2.8-3.3 4.8-4.1 22.9-9.4 45.7-19.2 68.9-27.9 7.3-2.8 8.2-8 9.7-13.9l.4-1-1.1.1zm-56.7-359.1l.7.2-.3-.6c-.6-.8-1-1.7-1.7-2.4l-33.5-30.4c-1.9-1.7-3.4-1.2-5.4-.3-13.6 6-27.3 11.8-40.9 17.9-3.2 1.4-6.8 2.2-10.2 5.2l91.3 10.4zm175.2 452.7l.3.1-.3-.1c-1.2-6.8-4.5-13-6.8-19.5a6162 6162 0 0 0-27-71.5l-8-21.1c-1.3.7-1.2 1.4-1.1 2l7.8 50.3 7.8 48.8c.2 1.2-.2 2.5 1.7 3.1 8.6 2.7 16.8 6.3 25.6 7.9zM626 433.2l-1.1-.3.4 1c.6 2.1 1.1 4.2 1.9 6.2l34 89.9 9.6 25.7a7 7 0 0 0 .5-3.7l-5.6-34c-3.4-21.9-6.8-43.9-10-65.9-.3-1.8-.6-3.2-2.3-4.1-8.9-5.1-17.9-10.4-27.4-14.8zm-73.3 114.4c-.6-2-.3-3.2 2.1-4.1 6.5-2.4 12.7-6.1 19.3-7.7 9-2.1 9.4-9 11.8-16.3-16.9 7.8-32.7 15.4-48.8 22.4-5.7 2.5-10.9 6.6-17.7 5.8-.6-.1-1.5.1-1.5 1 0 3.1-2.7 3.1-4.4 3.9l-36.6 16.8-62.3 28.4-25.9 12c.9.6 1.6.5 2.2.2l44-18.2c28.3-11.5 56.6-23.2 85.1-34.3 10.6-3.9 20.5-10.7 32.7-9.9-.3 2.2-1.2 3.5-3.7 4.4-23.5 9.4-46.9 19.1-70.3 28.6l-119.2 48.2c-6.4 2.6-12.8 5.4-19.1 8.1 5 .6 9.1-1.7 13.5-3.1 27.6-8.7 55.2-17.6 82.7-26.4l103.9-33.6 45.4-14.5c2.2-.7 3.6-1.2 2.4-4.4-1.4-3.7-3.2-7.3-4.1-11.2-1-4.6-2.8-4.9-7-3.2-8 3.1-15.3 8.4-24.5 7.1zm-271 .1c-.3-2.9 1.5-4 3.9-4.9l33.1-13.5c-1.5-1.4-2.6-.6-3.6-.5-21.7 3.8-43.4 7.8-65.2 11.4-19.2 3.1-38.1 8.6-57.9 7.5-.3 0-1.1-.2-.9.9.6 1.2 1.9.9 2.9 1.1l42.1 8.6c3.9.8 7.9 2.5 12 .4 3.7-1.9 7.5-3.5 11.4-4.9 7.3-2.8 14-7.2 22.2-6.1.7 2.7-1 3.6-3.3 4.5l-29.3 12.2c-2.3.9-4.5 2-7.5 1.3a5697 5697 0 0 0-59.5-12.5 9.6 9.6 0 0 1-7.4-6.5l-7.1-19.6c-3.4-9.7-3.4-9.7-12.7-6l-5.1 1.8c-2.3.7-2.5 2.1-1.7 4.2 5.2 13.9 10.4 27.8 15.3 41.9 1.3 3.6 2.1 6.4 6.8 4.1 1.1-.5 2.9.3 4.3.5 17.8 3.2 35.6 6.8 53.5 9.4 8 1.2 12.1 5 14.4 12.3 3.4 10.4 7.3 20.5 10.8 30.9 1 3.1 1.9 3.9 5.4 2.5 29.6-12.3 59.3-24.4 88.9-36.5 28.3-11.5 56.6-23.2 85-34.4 10-4 19.4-10.3 30.8-10.2.8 0 1.3-.4 1.3-1.2 0-2.6 2.2-2.6 3.7-3.3l13.8-5.6 112.4-45.9c2.6-1.1 4.6-1 7 .3 3.1 1.5 6.2 3.5 10.3 3.6l-4.7-12.6c-6.6-17.6-13.3-35.2-19.7-52.9-1.5-4.1-3-4.5-6.8-3l-86.1 35.7c-2.1.9-3.9.9-6.1 0-13.1-5.5-26.3-10.8-39.5-16.1-5.9-2.4-10.8-5.8-13.2-12-2.2-5.7-4.1-11.5-6.2-17.2l-30.4-82.3c-.7-2-1-3.8-4.3-2.4-27.1 11.8-54.4 23.3-81.6 35l-29.8 12.7c5.5 2.3 10 4.3 14.6 6a14 14 0 0 1 7.9 8.1c3.3 7.9 6.1 16 9.1 24.1l35.1 96.4c1.8 5.1 1.1 6.8-4.1 9-14.3 6-28.6 12.2-43.1 17.9-6.4 2.7-13.1 7.1-21.2 5.8zM146.5 783.4l1.1-.2 4.2-44.1 3.3-34.5c1.7-15.4 2.4-30.9 4.7-46.3 1-6.5-2.6-6.2-6.7-6.5-8.9-.5-17.7-1.8-26.5-2.9-9.5-1.2-19.1-1.7-29.2-2.5l49.1 137zm66.5 12.5l-47.2-131.2c-.9 8.8-2.2 17.3-3.1 25.7-1.2 12-1.7 24.1-3.3 36-1.7 12.6-2.2 25.3-3.7 37.9-1.1 8.9-1.2 17.8-2.7 26.6-.8 4.5.4 5 4.2 5H213zm17.6-445.7l.2 1.1c.6.1 1.3.4 1.9.2l101.4-25c17.1-4.2 34.2-8.8 51.4-12.7 4.5-1 6.1-1.8 3.9-6.5-2.3-5-.4-8.4 4.7-10.6 17.2-7.3 34.3-14.6 52-22.3l-14.7-9.3c-1.3-.9-2.5-.4-3.7.1-24.9 10.8-49.7 21.6-74.7 32.3l-91.2 39.1-31.2 13.6zm-31.8 16.1l-.1 1.1c3.7 1.4 7.5 2.5 11 4.4 3.5 1.8 6.4 1.5 9.8-.1 5.7-2.7 11.6-4.8 17.3-7.5a7 7 0 0 1 6.1-.2c9.9 4.1 19.9 8.1 29.8 12.3 1.9.8 3.5 1.4 5.6.5 8.6-3.8 17.3-7.4 26-11.1l88.1-37.6c1.8-.8 4.2-.9 2.5-3.9-1.3-2.3-.4-6.3-5.4-5-27.7 7-55.5 13.7-83.2 20.5l-82.8 20.4c-8.1 1.8-16.4 4-24.7 6.2zm459.1 4.1c-3-2.1-5.5-4-8.2-5.6a29.8 29.8 0 0 1-14.3-17.9c-2-6.9-5.3-13.5-7.7-20.4-1-2.8-1.9-3.3-4.6-2.1-9.5 4.2-19.3 7.9-28.7 12.2-4.1 1.9-7.3 2.4-11.1-.8-3.9-3.3-8.5-5.6-13.6-9l2 5.4c7.6 20.1 15.3 40.1 22.7 60.2 1.2 3.2 2.3 3.7 5.3 2.3 5.7-2.6 11.6-4.8 17.4-7.2l40.8-17.1zm-434 345.9c.5-3.6 1.6-6.9 1.7-10.3.2-3.6.7-7.6-.4-10.9-4.2-12.6-8.8-25-13.5-37.3-2.7-7-1.9-9.2 5.4-12.1l8.8-3.5c2.2-.9 3.6-1.9 3.9-4.8 1.7-14.6 1.6-29.4 2.8-44 .2-2.5-.8-3.3-3.4-3.7a2813 2813 0 0 1-50.6-8.9c-3.7-.7-3.5 1.2-2.7 3.6l7 19.6 29.8 82 11.2 30.3zm41-47.6c12.5 1.7 24.7 3.6 37 4.2 4.3.2 8.4.8 12.6-.9 17.3-7.1 34.7-14 52-21l139.9-56.5c7.3-3 15-5.3 21.5-10.4l-263 84.6zm22.7-180.6l1-.2c.4-4.4.6-8.9 1.1-13.3 1.5-13.7 3.3-27.5 4.6-41.2 1.1-11 2.2-22 3.8-32.9.7-4.7.6-8-5.2-10.1-15.8-5.8-31.2-12.4-48.2-19.3 14.7 39.7 28.8 78.4 42.9 117zm56.8 26.6l-40.1-109.3c-2.2 6.1-1.5 11.6-2.2 17-1.6 13.4-3 26.9-4.5 40.3-1.2 11-2.3 22-3.7 32.9-.5 3.8.1 5.8 4.1 6.8 9.3 2.4 18.4 5.5 27.7 7.6 6 1.5 11.7 4.3 18.7 4.7zM138.7 525l-1.7-.6-57.7-13.1c-3.8-.9-2.5 1.3-1.9 3l10.5 29.4 12.2 33.5 38.6-52.2zM83.8 201.5l3.6 9.7 19.9 55.1c1 3 2 2.9 3.9.9 11.3-11.8 23.5-22.6 34.5-35.3l-61.9-30.4zm221.4 478.2c-17.8-1.6-35.1-3.9-52.9-4.8l24 66.3 28.9-61.5zM169.3 437.3l23.9 66.1 10.5-15 20.7-29.7c1.5-2.2 2.4-3.4-1.5-4.6-17.5-5.2-34.9-10.9-53.6-16.8zm-26.8 91.1l-37 49.6c-1.8 2.4-.4 3 2 3.4 6.3.9 12.6 2.4 19 2.9 5.3.4 10.6 2.9 16.1.2 4.9-2.4 9.9-4.6 15-6.5 2.3-.9 2.2-1.7 1.5-3.6-1.7-4.3-3-8.7-4.6-13.1l-12-32.9zM201 320.1l10.6-13.3c6.4-8 12.9-15.9 19.2-24.1.8-1 3.8-2.6-.1-4.4-8.4-3.8-16.7-8.1-25-12.2L176.4 252l24.6 68.1zM470.7 431c.9 1 1.4 1.6 2.4 1.4l44.8-7c19.5-3 39-6 58.5-9.3 1.5-.3 5 1.5 4.9-2.1-.1-2-1.1-4.1-2.1-6-.5-.9-1.8-1.4-2.8-2l-10.7-6.2c-5.3-3.2-10.6-5.8-16.6-1.4-1.8 1.3-4.2 2-6.3 2.9L470.7 431zm-34.3 333.9l1.3-2.9c5.7-18.1 11.2-36.3 17.2-54.4 1.4-4.3-.3-4.8-3.7-5l-36-2.9c-1.9-.2-2.8.1-1.9 2.4 2.4 6 4.5 12.1 6.7 18.1l16.4 44.7zm-337.8 4c.2-9.8 2.6-17.7-.5-26.2-13.9-38-27.2-76.3-40.8-114.5-1.7-4.8-.3-7.7 4.2-10.2 1.5-.8 3.8-.8 4.8-3.2-8.1-.1-15.5-3-23.5-2.1a80142 80142 0 0 1 55.8 156.2zm470.5-343.2l-.3-1.7-114.6 17.4c11.4 5.7 22.9 10.2 34.3 15 2.4 1 4.2 1.1 6.5.1 10.9-4.7 22-9.2 32.9-13.7a4531 4531 0 0 1 41.2-17.1zm-13.4-103c1.9 6.6 1.1 13.8 1.7 20.9 1.3 14.8 1.7 29.7 2.4 44.6.1 1.1-.2 2.3 1.1 3.1 6.3 3.4 12.4 7.1 18.8 10.1 3.5 1.7 6.9-.9 9.6-2.8 1.8-1.3-.3-3.8-1-5.6l-22.4-59.9c-1.5-3.9-2.9-7.7-4.7-11.5-.8-1.7-2.7-3.1-4.3-3-1.9.1-.6 2.4-1.2 4.1zM333.8 519.3c-.8-.7-1.1-1.2-1.5-1.3-13.2-3.6-26.5-7.1-39.6-10.8a8 8 0 0 0-5.7.5l-62.8 26a864 864 0 0 0-14.1 6.2l.3 1 123.4-21.6zm105.9-382.8c11 8.8 21.5 16.3 30.9 24.9 7.4 6.8 14.2 9.1 22.6 2.6.4-.3 1-.2 1.4-.4l38.2-16.6-93.1-10.5zM461 711.3l-1.1.1-13.5 42.7c-1.5 4.7-3.2 9.4-4.5 14.2-.2.8-2 3.3 1 3.1 12.3-1 24.6-.2 36.9-.4 2.6-.1 3-.7 2-3.2-4.5-11.7-8.7-23.5-13-35.3-2.5-7.1-5.2-14.2-7.8-21.2zM836.8 541l.8-.9-55.2-144.7-1.2.5 11 39.1c8.3 29.6 16.5 59.1 25 88.6.8 2.8.7 6.5 3.8 8.3 5.1 3.1 10.5 6.1 15.8 9.1zM433.3 328.3l-.9.7 23.2 62.4c5.7-12.8 10.9-24.5 16.3-36.1 1.7-3.6 1.9-5.7-2.5-7.2-3.4-1.2-6.3-3.5-9.5-5.3l-26.6-14.5zm-124 356.1l-27.4 58.7c11-4.3 20.6-7.9 30.1-11.7 4-1.6 9.6-2.3 11.5-5.3 2.1-3.5-2.1-8.1-3.5-12.2-3.3-9.5-6.9-18.8-10.7-29.5zm128.6-543l-.8.6 23.9 63.7 16-31c.9-1.7-.1-2.5-1.1-3.3l-38-30zm180.3 477l23.1 61.3c3.3-16.8 5.7-33.2 8.2-49.6.4-2.9-.1-4.5-3.4-5.2-9-1.9-18-4.1-27.9-6.5zM423 261.2c-9.1-7-12-7.2-20.4-1.9l-2.5 1.5-106.4 53.9-10.5 5.3.5 1.1L423 261.2zm132.4 49.6l31.7 21.1c2.2 1.5 3.9-.2 5.5-.9 9.3-3.8 18.6-7.8 27.8-11.9 1.3-.6 4.3-.1 3.5-2.8-.7-2.3-1.3-4.5-5.1-4.9-11.4-1.1-22.9-.5-34.3-.6h-29.1zm196.1 166.5c.5-5.6-1.1-9.7-2-13.9-2.9-14.3-4.7-29-9.1-43-3.7-11.6-9.1-22.7-12.7-34.4a36.7 36.7 0 0 0-19.1-21.9l42.9 113.2zm-96.6 159.3l-1.8 10.6-5.7 39.5c-.4 2.8.6 4.5 3.5 4.8l20.6 2.2c4 .4 5-.7 3.3-4.7-3.7-9.2-7-18.5-10.5-27.8-2.9-7.6-6-15.4-9.4-24.6zM516.2 370.5l-9.5-25.7c-1-2.9-2.1-4-5.4-2.4-5.8 2.8-11.8 5-17.8 7.5-1.7.7-2.3 1.7-1.6 3.4 3.2 8.1 6.4 16.3 9.3 24.5.9 2.6 2.1 2.2 4 1.4l21-8.7zm-234.9-67.2l.5 1.2 123-53c-5.7-4.5-10.6-7.3-18.1-3.3-35 18.7-70.2 36.8-105.4 55.1zm158.9 22.5l35.9 19.8c1.6.8 3.3.1 4.8-.6l19.2-8.2c1.1-.5 2.2-.7 2.5-2 .8-3.6-3.7-9-7.5-9-9.2 0-18.4.6-27.5-.3-9.1-.9-18-.2-27.4.3zm118-69.7c3.7-11.3 7-21.5 10.5-31.7.8-2.2.6-3.4-1.4-4.9-7-5.5-13.6-11.6-20.7-17.1-3.7-2.9-6.7-6.9-11.9-8.6l23.5 62.3zM136 473c7.8-6.5 8.6-9.3 5.7-17.7-4.4-12.3-8.9-24.5-13.1-36.9-.7-1.9-4-4.3.4-6.3.9-.4-.2-1.4-.9-1.7l-16.6-5.4 24.5 68zm385.9-218c-3.1-8.3-5.9-15.6-8.4-22.9-.9-2.6-2-2.8-4.4-1.6-4.6 2.2-9.4 4-14.1 6.1l-34.3 14.9c7.7.7 14.3.8 20.9 1.4 7.4.7 14.5 1.2 21.2-2.5 1.9-1.1 3.3-.3 4.5.8 3.9 3.9 9.1 2.8 14.6 3.8zM171.8 367.3c4.1-5.6 9.5-8.9 6.4-16.6a354.9 354.9 0 0 1-13.9-38.1c-2.6-9.1-9.5-10.3-17.3-13.4l24.8 68.1zm364.4-232.7l.8-.4-21.7-57.7c-3.7 6.6-6.9 12.5-10.4 18.3-4.5 7.5-4.6 7.4 2 13.2l2.8 2.8 26.5 23.8zM192.3 360l121.6-61.8c-1.8-.6-2.5-.4-3.3 0-36.1 15.6-72.1 31.5-108.4 46.6-7.2 3-8.6 8-9.9 15.2zM561 302.7l.3 1.8h58.4l-8.7-22.9-50 21.1zm208.9 118.6l1-.5-47.2-124.1c-1.4 4.7-5.5 8.6-3.7 13.4 2 5.4 4.7 10.6 7.1 15.9l22.5 50.3 20.3 45zm-139 7.9c7.9 4.4 15.6 8.5 23.1 12.9a8.4 8.4 0 0 0 8.4.5c10.2-4.4 20.4-8.5 30.7-12.8 1.4-.6 3.2-.7 2.7-2.8-.4-1.7-2-1.4-3.3-1.5-4.7-.3-9.2.6-13.9.8-14.9.6-29.8.9-44.8 1.4-.9 0-1.9-.1-2.9 1.5zm-440.7-45.9l-3.1-1.4a31 31 0 0 0-32.2.6c-9.5 5.3-20.1 8.9-30.9 13.6 23.7 1.8 46 .6 66.2-12.8zM92.6 500.9a760 760 0 0 0 64-3.5l-2.3-7.7c-.4-1.3-1.3-2.6-2.6-2.7-8.5-1.2-16.3-6-25.6-.5-10.5 6-22.3 9.7-33.5 14.4zm108 .9l.5.7 35.5-14.8c1.8-.8 3.1-1.5 2.2-4-2.9-7.8-5.7-15.7-8.7-24.4l-29.5 42.5zm241.2-184l.1 1.7c17.1 0 34.2-.1 51.2.1 3.3 0 4.1-.7 2.7-3.9-2-4.5-3.7-9.2-5.2-13.9-.9-3-2-3.8-5.2-2.5-14.5 6.3-29.1 12.4-43.6 18.5zM62.6 306.4L89.7 317c8.3 3.2 16.6 6.4 24.9 9.8 2.8 1.1 5 .4 6.9-1.2 2-1.7-.4-3.2-.9-4.7-1.1-3.8-2.6-7.5-3.9-11.2-.7-1.9-1.7-3.1-3.9-3.1-16.8-.3-33.5.2-50.2-.2zm-3.3-8l.4 1.5h47.9c5.5 0 5.5 0 3.7-5.4-1.4-3.9-3.2-7.7-4.2-11.7-1.1-4.5-3.3-4.2-6.7-2.6-6.7 3.2-13.6 6.1-20.4 9.1l-20.7 9.1zM658 353.1h56.9c-2.3-6.1-4.8-12-6.9-18.1-1-2.9-2.5-1.7-4.2-1L658 353.1zM94.5 508c1 .6 1.6 1.1 2.4 1.3 12.4 2.7 24.7 5.6 37.2 8 3.9.8 7.8 3 12 1.2 4-1.7 8-3.2 11.9-5.1 1.6-.8 4.8-.7 3.4-4.2-1.1-2.6-1.1-6.1-5.6-5.5-2 .3-4-.1-6 .1-18.3 2-36.6 3.4-55.3 4.2zm621.7-191.3c-2.3 6.1-6.6 11.9 1.4 16.7 2.1 1.2 1.6 4.1.8 5.4-1.4 2.1-.3 3.4.4 5l18.5 40.7 18.9 40.9 1.1-.5-41.1-108.2zm-78.7 104.4c6 1.4 11.2-.3 16.5-.4 11.9-.3 23.9-.9 35.8-1.3 2.1-.1 3.2-.2 2.1-2.8a119 119 0 0 1-4.8-12.5c-.9-2.9-2.4-2.7-4.5-1.8l-45.1 18.8zm-34.1 78.4l22.9 61.1c.8-3.7 1.7-6.6 2.2-9.7.6-3.8 1.9-7.6.2-11.7-3.7-9-7.4-18.1-10.2-27.4-2.3-7.4-7.2-10.7-15.1-12.3zm33.1 193.7c-3.2-1.8-5.9-2.9-8-4.7-3.1-2.7-5.5-1.6-8.5 0l-49.2 26.8-13.8 7.6.5 1.1 79-30.8zM207.7 325.4c6 3.5 10.5 4.7 16.4 1.4 20.7-11.3 41.7-21.8 62.6-32.7 4.9-2.6 10.3-4.3 14.7-7.7l-.6-1.2-93.1 40.2zm222 449c-8.6-7.2-10.2-7.4-18.7-2.8l-19.2 10.3-36.8 20.3.5 1.3 74.2-29.1zM185.3 436.1c14.4 4.5 28.5 8.6 42.4 13.3 3.8 1.3 6.7-.2 9.1-1.9 2.4-1.6-.4-4.1-.8-6.2-.2-1.1-.8-2.2-1.1-3.3-.7-3.2-2.3-4.5-5.9-4.3-11.3.5-22.6.7-33.8.9-3.3.1-6.6.2-9.9 1.5zm348.9 212.8v.7c1.2 0 2.4.2 3.5 0l64.6-16.9c1.3-.3 2-.7 2.4-2l3.9-11.5-74.4 29.7zm-407.8-58c-6.6-2.5-13.3-2.2-19.6-3.5-3.3-.7-6.5-2.1-10.1-.6-7.5 3.2-15.1 5.9-22.5 9.4-4.1 1.9-8.7 2.7-13.1 6.3l49.2-5.1c.3 0 .7 0 1-.2 4.9-1.9 9.7-4 15.1-6.3zM87.4 814c2.3-5.8 4.2-9.5 1.9-14.8-10.6-24.3-20.5-48.8-30.8-73.2-2.1-4.8-3.2-10.2-7.4-14.1L87.4 814zm240.9-82.9l.2.6c1.3-.2 2.6-.2 3.9-.5 19.3-4.9 38.5-10.2 58-14.7 6.8-1.6 10.9-4.5 11.6-11.5.1-.9 1.1-1.8.2-2.7-.9-.9-1.9.1-2.7.5-23.8 9.3-47.5 18.8-71.2 28.3zM663.5 700c-1.7-2.6-4.6-1.2-6.9-1.6-7.3-1.2-14.5-2.1-21.8 1.6-6.1 3.2-12.9 5-19.3 7.6L577 722.8l.4 1.4 86.1-24.2zm-75.6-294.2c3.7 2 6.6 3.1 8.9 4.9 2.3 1.7 3.8 1.3 6.1 0 13.5-8.1 27.1-15.9 40.6-23.9 4.6-2.7 9.2-5.6 13.7-8.4l-.6-1.2-68.7 28.6zm-406.3 22.9l.2.5 49.1-1.9c-1.8-5-3.6-9.6-5.1-14.3-.9-2.7-2-2.6-4.4-1.5-6.4 2.9-13.1 5.4-19.6 8.2a1148 1148 0 0 1-20.2 9zm301.8-10.5l.6 1.2 66.4-27.7c-3.3-1.7-5.9-2.6-7.9-4.2-2.8-2.1-4.9-2-7.9-.1-8.3 5.4-17 10.2-25.5 15.3l-25.7 15.5zM756 529.3c4.8-8.5 4.9-10.9 1.2-18.7-6.3-12.8-12.4-25.7-18.8-38.5-3.6-7.2-6.2-14.9-11.9-21.1 9.7 26.1 19.6 52.1 29.5 78.3zM400.7 300.1v1.2c3.6.8 7.4 1.2 10.8 2.6 3.3 1.4 5.7.3 8.2-1.3 10.2-6.4 20.5-12.7 30.6-19.3 4.5-2.9 9.5-5.1 12.7-10-20.6 9-41.5 17.9-62.3 26.8zM63.5 704.6l-1.3.5 32 89.7c1-5.8 4.5-9.1 2.1-14.5-8.7-19.1-16.6-38.6-24.9-57.9-2.5-5.9-5.2-11.8-7.9-17.8zM210 316.9l.9.8 30.5-13.1c1.4-.6 1.7-1.6 1.2-2.8l-6.6-17.7-26 32.8zm11.3 210.2l.2 1.2c20.7-7.8 40.9-16.8 61.9-25.5-2.6-1.6-4.5-2.6-6.2-3.8-3.1-2.1-5.7-2.5-9.3-.2-15.4 9.7-31 18.9-46.6 28.3zm255.9-170l-16.3 36.5c8.4-3.5 15.6-6.7 23-9.4 2.6-1 2.7-2.1 1.8-4.3l-8.5-22.8zm128.6 65.2l30 80.1c.7-1 .8-1.9.6-2.6-6.2-22.1-12.6-44.1-18.3-66.3-1.8-6.8-6.1-9-12.3-11.2zm10.4 67.5c.8-2.2.3-3.6-.1-5-5.8-20.8-11.9-41.5-17.2-62.5-1.7-6.6-6.3-7.7-12-10.5l29.3 78zm-86.5 254.1l.1.9c5.6 0 11.3-.5 16.8.2 3.5.5 6.3.3 9.5-1l40.2-15.6 19.6-7.9-.3-.8-85.9 24.2zm-176.8 41l.6 1.5c19.5-7 38.6-14.9 58.3-22.8-11-6.7-11-6.7-21.5-.7l-.9.4-36.5 21.6zM139.7 412c3.7 2.5 7.5 2.8 11.1 3.9 2.2.7 4 .7 6-.6 10.7-6.9 21.6-13.5 32.3-20.5 3.5-2.3 7.7-3.9 10-8.2L139.7 412zm533.6 168.7c-2-11.1-25.4-70.6-28.1-71.6l3.6 13.7c4.2 14.9 9 29.7 12.3 44.7 1.7 7.4 5.8 10.8 12.2 13.2zm21.9-195.4l-1 2.2c-1.7 4.7-4.9 9.4 2.3 12.7 2.1 1 1.7 4.8.9 5.3-3.3 1.8-.8 3.6-.2 4.9 6 12.6 12.2 25.1 18.3 37.6 2.1 4.2 3.4 8.8 6.5 12.5a7 7 0 0 1 1.3-.5l-28.1-74.7zM381 799.8l.5 1.5 79.9-23a64.7 64.7 0 0 0-15.1-.8c-4.4.3-8.9-.1-13.2 1.7-8.7 3.6-17.5 6.9-26.3 10.4L381 799.8zM48.3 686.6l.9-.5-2-6.1c-9-25.4-18.2-50.7-27-76.1-1.7-4.9-5.5-6.4-10.2-8.6l38.3 91.3zM543.1 663c1.2.4 1.4.6 1.5.5l50.4-10.2c1.1-.2 2.2-.8 2.6-2.1l3.8-11.5-58.3 23.3zm-30.3 77.8l60.1-32.7c-2.5-.9-4-.1-5.5.5-14.3 5.7-28.4 11.9-42.9 16.9-7.8 2.6-11.2 7-11.7 15.3zm-7.6-478.4c-4.4 6.2-4.7 10-1.6 16.3l17.1 34.8 9.1 17.9 1.1-.5-25.7-68.5zM219.9 744c4.2-7 3.4-12.6.2-19-6.1-11.9-11-24.5-16.9-36.5-3-6.2-5.1-12.8-9.8-18.2l26.5 73.7zm120.3-.2c1.2.8 2.3.7 3.4.4 13.4-2.9 26.7-5.8 40.1-8.3 8.6-1.6 11.2-4.4 11.2-13.8l-54.7 21.7zm27 45.4c-2.4-1.1-3.7-.1-5 .4-14 5.5-27.8 11.6-42 16.3-7.7 2.5-8.7 8-10.6 14.8l57.6-31.5zm449.6-233.6v-1l-56.1 6.8c6.8 3 12.2 5.5 17.7 7.8 1.6.7 3.1.3 4.8-.4a5940 5940 0 0 1 33.6-13.2zM644 605l.3 1.3 56-8.2c-6.2-2.8-12.5-4.7-18.8-6.7-1.1-.3-2.1-.7-3.3-.2L644 605zM532.2 381.6c-3.4-1.7-6.1-2.4-8-4.1-3.2-2.7-5.5-1.5-8.3.4a652 652 0 0 1-17.3 11.6l-17.8 11.6.8 1.6 50.6-21.1zM143.4 792.1l-27.5-76.5c-.2 1.3-.2 2.4.1 3.5 4.9 18.6 9.7 37.2 14.9 55.8 1.9 7 2.3 15.4 12.5 17.2zM421.1 377c1.2-2.4.6-4 .2-5.6-3.5-14.1-7.6-28-10.5-42.2-1.7-8.3-6.8-12.9-14.2-18.1l24.5 65.9zM170.2 584.7c-1.6 6.2-4.7 10.9-1.2 17.2 5.2 9.3 9.1 19.2 13.6 28.8l10.5 22.6 1.5-.6-24.4-68zm95-91.6c-2.7-3-6.2-3.7-8.8-5.7-1.3-1.1-2.6-.4-4 .5l-36.3 24.2.5 1.2 48.6-20.2zm379.6-100.9c1.8.7 3.1.4 4.5-.2 12.2-5.1 24.3-10.6 36.7-15 7.2-2.6 8.3-8.2 10.7-15.5l-51.9 30.7zM339.2 819.8c7.4 1 14.8 1.5 21.9-.3 13.8-3.5 26.6-9.9 39.8-14.9 3.5-1.3 7.6-1.8 10.1-5.5l-71.8 20.7zm-99.1-444.6c-2.3 5.9-4.6 10.5-1.5 16.5 7.6 14.7 14.5 29.7 21.8 44.6.8 1.6 1.3 3.5 3.9 5.2l-24.2-66.3zM59.2 679.7c.9-2.2.2-3.6-.3-4.9l-21.8-60.6c-1.8-5-3.3-6.2-9.7-8.1l31.8 73.6zm89.9-442.8l-28.2 28.2c9.7-4.3 18.9-8.5 28.3-12.4 4.1-1.7 5.1-3.6 2.9-7.5-1.4-2.5-2-5.5-3-8.3zM81.2 639.4l23.9 66.7c.8-2.2.6-3.3.3-4.4-4.6-17-9.4-34-13.4-51.2-1.4-5.8-4.4-9-10.8-11.1zm21 76.2l-1.4.4c1.3 4.9 1.6 10.4 4.2 14.5 2.3 3.6 2.3 6.7 2.4 10.4 0 .8.3 1.6.5 2.4 2.5 9.4 5.5 18.7 7.3 28.2 1.2 6 5 8.3 10.6 10.6-7.9-22.7-15.7-44.6-23.6-66.5zm449-62l-.4-1.3-60.9 15.9c7.5 2.7 13.8 6.2 21 1.4 3.1-2 7.1-2.7 10.6-4.1l29.7-11.9zM158.9 485.7c1-1.6.8-2.7.5-3.8l-9.3-38c-3-12.1-5.6-16-13.8-20.7l22.6 62.5zm470.4 129.1c5.7 1.4 10.1 2.2 14.3 3.5 6.2 2 12.1 2.2 18.1-1.1 4.2-2.3 9-3.3 13.3-5.3 2.5-1.2 5.6-1.4 8.4-4.9l-54.1 7.8zM449 297.1c.8 1.1 1.4 1.3 2.9 1 9.2-1.9 18.4-3.8 27.7-5.2 9.1-1.4 12-4.3 12.3-14L449 297.1zm-8-49.9a26.7 26.7 0 0 0-6.6 12.8c-.2 2.5 5.3 4.1 8.3 6 .8.5 1.8.9 2.5 1.6 5.5 5.4 10.8 3.7 16.5-.5-4.2-2.7-8.4-5.2-12.3-8.1a19 19 0 0 1-8.4-11.8zm114.2 422.5l-.3-1.7-45.9 9.6c.6 2.6 2.2 3.8 3.5 5.3 1.1 1.4 1.8 3.2 4.3 2.2l38.4-15.4zm-369.9-260l.1 1c1.3-.2 2.6-.2 3.9-.5 8.7-1.6 17.5-3.4 26.2-4.8 8.6-1.3 11.4-4.4 11.6-13.5l-41.8 17.8zM766 513.6l2.9-.9c4.6-1 5.7-3.3 3.7-7.8-2.7-6-4.7-12.3-7.1-18.5l-8.2-21.2-1.1.3 9.8 48.1zm-93 73.5c-4-2.2-7.3-3.9-10.5-5.9-1.4-.8-2.2-.3-3.1.4L632.9 602l.5 1 39.6-15.9zM184.8 543l45.6-27.6a5 5 0 0 0-3.6-.1c-10.2 4.3-20.2 9.3-30.7 12.8-7.3 2.4-10.5 6.8-11.3 14.9zm314.6-284l-45.6 28.6c2 0 3.2.1 4.5-.5 10.3-4.4 20.5-9.2 31-13 7-2.6 7.6-8.4 10.1-15.1zM410 50.9c9.4 4.1 18.2 5.7 25-3.9l.9-.5 13.7-12.1-.7-.9L410 50.9zm-58.8 699.8l-.1-1c-.6-.1-1.3-.4-1.8-.2l-41 8.3c-.6.1-1.5 0-1.4.9.3 2.5 2.8 3.5 3.9 5.6.8 1.4 2.3 1.7 3.9 1.1 12.1-5 24.3-9.8 36.5-14.7zm19.6-589.1c10 7 10 7 18.8.2l.8-.5 18.3-14.8-.7-1.2-37.2 16.3zM119.4 634.7l.2 1c11.4-1.4 22.8-3 34.3-4.2 4.6-.5 5.2-2.9 3.2-6.2-1-1.7-.5-6-4.4-4.4-11.2 4.4-22.2 9.2-33.3 13.8zM563.3 260l15.7-6.8c1-.5 2.6-.5 1.8-2.6l-7.9-20.7-9.6 30.1zM431.2 361.5l-1.1.7 17.8 47.9c4.1-6.6 4.8-12.7-.1-19-1.9-2.4-3.1-5.5-4.6-8.2l-12-21.4zm123.4 314.9c1.2.2 1.9.5 2.5.3l41.1-8.5c2.1-.4 2.6-2 1.4-3.6-1.2-1.7-.2-6.2-4.2-4.6-13.5 5.2-26.8 10.8-40.8 16.4zm60-414.3l-37.9 16.1 1.3.6c10.4-.1 20.5-3 30.9-3.5 1.5-.1 1.9-1.3 2.3-2.3l3.4-10.9zm103.1 30.2l-37.1 15.5a201 201 0 0 0 25.9-2c2.6-.4 6.2 1 7.6-2.3 1.5-3.4 3.2-6.8 3.6-11.2zm-594 349.6c3.8 1.8 7.6 1.5 11.2 2 8.5 1.1 17 1.8 25.5 2.6 1.2.1 2.8.6 3.7-.7 1.1-1.7-3.5-8.6-5.5-8.5-7.6.1-15.1 1.6-22.5 2.8-4 .6-8.3-.1-12.4 1.8zM622 241.2l-37 15.7c10.4.7 20.2-1.3 30.1-2.8 1.6-.3 2.7-.9 3.3-2.5l3.6-10.4zM96.3 390.7c9.4 7.2 9.4 7.2 17.7.6l18.6-14.8-.7-1.1-35.6 15.3zm490.1-105l-.5-1.3a3226 3226 0 0 1-30.7 4.1c-1.4.2-2.1.8-2.5 2l-3.4 10.8 37.1-15.6zm87.5 42.9l.4 1.3c8.1-1.7 16.3-1.8 24.3-3.1 2.7-.4 6.4 1.2 7.9-1.7 1.8-3.4 3.6-7.2 3.8-11.9l-36.4 15.4zM110.1 377l.6 1.2 35.9-15.4-6.8-4.1c-2.6-1.8-4.7-1.8-7.3.5-7.3 6.1-15 11.9-22.4 17.8zm370.6-197.5c-4.4 9.9-9.9 17.7-13.4 27.3l17.3-7.3c2.1-.9 3.3-1.8 2.2-4.4-2.1-4.7-3.8-9.5-6.1-15.6zM236.2 637.8l5.6-2.2c7.5-3.1 7.5-3.1 4.8-10.7l-7.3-20.1-.9.2c-.6 10.7-1.4 21.4-2.2 32.8zm-72.4-265.1c-9.1-7.1-9.6-7.1-17.8-.8l-3.9 3.1-14.4 12 .7 1 35.4-15.3zm-99.9-83.8l.4 1.1 36.4-16-9.2-5.3c-1.3-.8-2.3-.5-3.5.5l-24.1 19.7zm584 62.1l37.4-15.5c-6.8-.1-13.3.6-19.9 1.2-8.4.8-16.9 1.3-17.5 12.7v1.6zM269.1 748.4c-10.1-7.5-10.1-7.5-19.5.1-.5.4-1.2.7-1.6 1.1-4.4 4.1-9.9 7-13.3 12.5l34.4-13.7zM523 189l-36.8 15.9c10.8.1 21.3-1.7 31.8-3.3 1.2-.2 1.4-1.2 1.7-2.2L523 189zm-44.5 36.9l.2 1 31.3-4.2c1.5-.2 2.2-1.3 2.6-2.7l3.1-10.1-37.2 16zm-367 243.6c-3.3-2-5.6-3.5-8.1-4.8-1.4-.8-2.8-1.5-4.5-.1l-23.2 18.3.7 1.4 35.1-14.8zm-14.7 13.8l-.7-1.1L61 497.1c10.1 6.6 10.2 6.7 17.1 1.3 6.3-4.9 12.5-10 18.7-15.1zm355.5-234.6l35.1-15.2c-7.6-1.2-14.6 1.5-21.7 1.4-9.3-.1-12.5 5.1-13.8 12.9l.4.9zM93.9 492l.6 1.1c11.7-3.4 22.5-9.2 34.4-13.9l-8.5-4.8c-1.6-1-2.9-1.1-4.5.1-7.2 5.9-14.6 11.7-22 17.5zm20.6-124.8l-.6-1.2-34.8 15c2.5 3.4 6.4 3.6 9 5.9.9.8 1.8.2 2.6-.5l23.8-19.2zm410.8-31.9l-1.1.5 14.5 39.2c2.1 5.8 4.5 7.8 11 8.9l-24.4-48.6zM57 596.2l.4.9 35.3-14.6c-2.9-1.7-5.5-3-7.7-4.6-2.3-1.7-4.2-1.3-6.2.4L57 596.2zm-13-109c1.5 2.4 4.3 2.6 6.2 4.1 2.6 2.1 5 2 7.9-.5 5.5-4.9 11.5-9.4 17.3-14 1-.8 2.8-1.2 1.8-2.8-.7-1.1-2 0-3.1.5L44 487.2zM28.1 598.5c8.2 7.1 9.5 7.2 17 1 .5-.4 1.1-.7 1.6-1.2l15.8-13.1-.6-1-33.8 14.3zm534.7 96.2l-.4-.9c-.6 0-1.3-.3-1.8-.1l-24 9.3c-1.3.5-2.3 1.4-2.1 3 .5 4.9-2.1 5.2-5.8 4-4-1.3-6.8-.3-7.6 4.2l-1.4 6 43.1-25.5zm-25.2-458.1l-1.3.6 15 40.1c1.3-5 5-9.4 3.4-12.5-4.9-9.7-11.3-18.8-17.1-28.2zm-494 340l-.7-1.5-32.5 13.6 8.4 5.3c1.2.7 2.3 1.2 3.6.1l21.2-17.5zm71.5-302.7c8 6.1 9.9 6.2 16.8.8l13.9-11.1c.8-.6 2.1-1.2 1-3.5l-31.7 13.8zm483.7 289.7l-.9.6 15.3 40.6c1.7-4.1 5.4-8.6 3.4-12.4-5.2-9.9-11.8-19.2-17.8-28.8zM170 478.1l15 41.4c2.6-5.7 5.7-9.9 1.1-15.6-3.3-4.2-4.8-9.8-7.8-14.3-2.4-4-3.5-9-8.3-11.5zm450.5 106.7c1.1-6.1 5.7-10.4 1.9-16.2-5.1-7.7-9.9-15.6-14.9-23.4-.5-.7-.9-1.9-2.2-1.2l15.2 40.8zm6.5 78l1.4-.5-14.3-38.3c-1.5 4.1-5.6 8-3.5 11.8 4.9 9.3 10.8 18 16.4 27zm.7-353.2l14.4 37.6c3.8-7.2 5.1-13.3-.8-19.7-3.9-4.2-6.4-9.6-9.4-14.5-1-1.4-1.5-3-4.2-3.4zm39.5-27l-1.3.2c-.9 8.8-4.1 17.3-4.5 26.8l11.6-4.9c1.1-.5 2.5-.9 1.7-2.8l-7.5-19.3zM467.8 32.3c-4.6 6.9-5.2 12.9.5 18.5.3.3.4.9.7 1.3l12.1 19.2 1.2-.6-14.5-38.4zM635 289l14 37c4.3-6.9 5.7-13.3-.8-19.3-.5-.4-.5-1.2-.9-1.8-4.1-5.2-6.5-11.6-12.3-15.9zM246.5 483.5c2.1-1 5.1-.7 3.4-4.8-3.1-7.4-5.6-15.1-8.3-22.7-.6-1.6-.9-3.5-3.5-2.4-2.2 1-3.1 2.2-2.2 4.6l8.7 23.1c.3 1.2.4 2.4 1.9 2.2zm352 19.5c-3.7 6.5-5.2 11.8-.4 17.9 4.8 6.2 8.6 13.1 12.8 19.7l1.4-.7-13.8-36.9zM283 495.7l-7.5-16c-2.4-5.1-4.9-10.2-7.6-15.1-2.5-4.6-3.4-10.2-7.7-13.7 3.8 11.8 8.3 23.2 12.2 34.9 1.7 5.1 4.9 7.9 10.6 9.9zm157.5-310l-1.5.6 14.1 37.9c2.1-5.1 5.2-8.9 3.1-12.8-4.8-8.8-10.4-17.2-15.7-25.7zm-234.3 191c-3-1.2-5.5-2.1-7.9-3.2-4.7-2.3-10.6-2.4-13.9-7.3-2.7-4.2-4.4-2.3-6.1.8-.3.6-.8 1.1-1.3 1.5-2.8 2.4-1.3 3.3 1.3 4.2 5.2 1.7 10.4 3.3 15.3 5.7 4.6 2.1 8.2 1.6 12.6-1.7zm224.5-235.1c-3.4 7.1-5.3 12.9.4 18.4.7.7.9 1.7 1.5 2.6l11.1 17.6 1.3-.7-14.3-37.9zM421 310.8c2.9 2.7 3.5 8 8.3 6.1 10.1-3.9 19.9-8.5 29.8-12.7-12.6 1.2-25 3.3-38.1 6.6zm11.3-103.6l14 37.3c3-6.6 5.7-11.7.4-17.1-2-2.1-3-5.1-4.7-7.6-3.1-4.3-4.9-9.4-9.7-12.6zM122 626.3c2.5.4 4.1-.6 5.8-1.3 6.9-2.8 13.7-5.8 20.6-8.5 6.6-2.6 8.3-5 8.4-12.8L122 626.3zm70.8-290.5c3.9-5.9 4.4-11 .2-16.9-5.1-7-9-14.7-13.5-22.2l-.9.5 14.2 38.6zm215.5 369.5c-1.1 3-1.9 4.8-2.4 6.7-.5 1.9-2.3 3.6-.7 6 5.1 8 10 16.2 15 24.2-2.3-12.5-7.5-24-11.9-36.9zm-213-288.9l-.4-1.1-31.4 6.1c-1.2.2-4.5-.7-3 2.1 1.2 2.2 2.3 6.6 5.9 5.3 9.8-3.7 19.3-8.2 28.9-12.4zm174.2-248.3l13.4 35.9c1.2-7.8-1.7-15-2.1-22.5-.4-7-3.6-11.6-11.3-13.4zm41.2 49.4c-1.4 1.2-1.1 2.2-.9 3.2 1.2 7.1 3.2 14.2 3.6 21.4.5 7.3 4.3 10.7 11.1 12.6l-13.8-37.2zm-227 75.7l1.2-.3-13.9-38.1c-1.1 5.6-4.6 9.7-1.9 14.4 4.7 8.2 9.8 16.1 14.6 24zm210.9 454.3l-1.1-4.6c-.4-1.4-.9-2.3-2.8-1.6L356.3 755l.3 1 38-8.5zM387.7 178l12.9 34.4 1.2-.4c-.6-6.9-2.2-13.6-2.9-20.5-.8-6.8-2.9-11.9-11.2-13.5zM91 242.5l1.1-.5-13-36.1c-1.8 4.1-4.9 7.8-2.6 11.9 4.7 8.3 9.6 16.4 14.5 24.7zm161.6 489.1l-13.3-36.7c.3 8 2.6 15.8 2.7 23.6.2 7.3 3.8 10.6 10.6 13.1zM165 366l-13.3-36.6c.4 8.3 2.2 16.3 2.8 24.4.6 6.6 3.6 10.3 10.5 12.2zm92.3 340l-.9.4c1.2 7.7 2.5 15.3 3.4 23 .9 7.6 2.6 9.7 10.3 11.8a3649 3649 0 0 0-12.8-35.2zM147.5 356.1l-13.2-36.3c.5 8.9 2.4 17.4 3.1 26.1.6 6.4 4.3 8.4 10.1 10.2zm-17.3-65l12.7 35.1c-.1-7.8-1.8-15.2-2.4-22.7-.5-6.5-2.6-11.1-10.3-12.4zm-13.4 146.1l-1.1.4 4 24.2c1.4 8 1.7 8.3 9.8 10.5l-12.7-35.1zM236 668.3l12.9 35.7c-.4-8.5-1.9-16.8-3-25.1-.8-6.8-1.7-8.1-9.9-10.6zM107.8 433l1-.1c-1.3-8.2-2.7-16.4-3.9-24.7-1-6.9-2.1-8.3-9.9-10.3l12.8 35.1zm20.9 379.2l49-10.1c-17-.2-34.1-.7-49 10.1zM22.6 234.9a4261 4261 0 0 0 11.8 32.6c1.6-.6 1.4-1.3 1.4-1.9-.7-6.4-1.4-12.8-2.3-19.2-1-6.1-6.1-8.6-10.9-11.5zM432.7 386l-1.4.4 10.3 41.5c2.3-3.9 4.1-6.7 3-9.9-3.9-10.8-8-21.4-11.9-32zM63 529.5l-.6.2c1.1 7.1 2 14.3 3.3 21.4.6 3.3.7 6.6 1.3 9.8.2 1 4.5 3.1 8.9 4.8L63 529.5zm14.6-141.9l12.2 33.6c1-7.1-1.6-13.6-1.8-20.3-.2-6.9-3.1-11.1-10.4-13.3zm140.6 270.2l10.4 28.9c.3.9.5 2.2 1.8 1.9 1.5-.3.6-1.4.5-2.3-.8-5.2-2.1-10.3-2.2-15.5-.1-7.1-3.3-11.1-10.5-13zm-118-228.3c-1.9.8-1.7 2.1-1.5 2.8 2.2 6.6 2.9 13.5 3.7 20.3.6 6.1 4 8.4 9.8 10l-12-33.1zm666.2 100.9l.9 1.1 23.3-9.5-10.1-5.6c-1.2-.7-2-.6-2.9.5-3.8 4.5-6.7 9.6-11.2 13.5zm-423.8 243l-.2-.8h-22.1c-1.2 0-3.1-.8-3.5.8-.7 2.8 1.6 4.9 2.4 7.3.5 1.4 1.9 1.3 2.9.8a727 727 0 0 0 20.5-8.1zM652.1 360c3.4 2.4 5.6 4.1 7.9 5.6 1.5.9 2.8 2.6 4.9 1.8l16.7-6.7-.3-.7h-29.2zm-521.2-75.8l8.2 4.9c1.3.7 2.5.8 3.6-.4l11.2-13.3-.7-.9-22.3 9.7zM172 500.7l-1.7.5 8.8 36.6c2.9-4.8 3.6-9 1.3-14.2-3.2-7.4-5.7-15.2-8.4-22.9zm521-186.5l-.1-.6-20.6 2.3c-2.1.2-4.8-.1-6.2 1-2.9 2.2 2.9 2.7 1.6 5.5-.9 2 .9 2.3 2.6 1.6l22.7-9.8zM341.1 765.9a51.7 51.7 0 0 0 38.9-8.8l-38.9 8.8zm224.7-498.8c2.6 2.5 4.9 3.5 5.8 5.7.7 1.6 1.5.6 2.3.3l20.9-8.8-.2-.9-28.8 3.7zm-301 218.1l-15.3-28.9-1.5.8c2.6 7 5.3 14 7.6 21 1.3 3.9 4.1 5.4 9.2 7.1zm230.3-272.8c-8.2-.9-16 1.4-23.9 2.1-.9.1-1.7.2-1.5 1.4.1 1.3 6.3 4.9 7.5 4.4l17.9-7.9zM249.5 769.9c9.4.2 18.7 1.3 27.9-.3 1.4-.2 2.8-.3 2.2-2.3-.4-1.5-.4-3.5-2.9-3l-27.2 5.6zM471.8 93.4c-7.6-6.4-10.7-6.5-15-1.5-2.2 2.6.3 4.3.5 6.3.3 2.2 2.3.4 3.5-.2l11-4.6zM361.5 773.7l-.4-1.1c-7 2.7-13.9 5.7-21 8-4.2 1.4-5.3 3.7-4 8.1 8.5-5.1 16.9-10.1 25.4-15zm-85.2-15.3c-.9-5.2-3.3-6.3-7.5-3.7-1.7 1-3.7 1.5-5.5 2.2l-14.1 5.8.3.8 26.8-5.1zm160.5-656.2c4.9-10.4 4.9-10.4-3-17.3-1.6-1.4-2.6-3.4-5.2-4.4l8.2 21.7zm.7 21.3l20.1-16.3-.7-1.1c-4 1.8-7.9 4.2-12.1 5.3-6.2 1.8-6.5 6.8-7.3 12.1zm-312 665c-10-4.4-17-1.4-21.5 8.7 7.1-3 13.8-5.6 21.5-8.7zm494.6-182.8l20-15.6c-10.6-.3-18.8 6.1-20 15.6zm-23.2-67.5c-.2 6.5-4.1 1.5-5.8 3.2l12.7 20.1 1.1-.6c-1.7-7.4-5.1-14.2-8-22.7zM251.3 738.1c-6.7-5.4-18.5-.7-20.2 7.9l20.2-7.9zm65.9 61.4c5.4-3.6 11.8-5.6 17.3-10.5-17.1.1-13-2.2-17.3 10.5zM506 697.2l7.4 19.9c5.2-11.7 5.7-9.8-7.4-19.9zm-25.5-438.3c-7.2.7-14.4-1.7-21.8-.9 7.8 7.9 10.8 8 21.8.9zm6.4 131.8l-.7-1.3-23.8 9.8c3.1 1.3 5.2 4 7.8 2.5 5.7-3.4 11.1-7.3 16.7-11zM66.6 221.5c-5.8 2.3-11.2 4.1-16.8 7.8 4.5.9 8.2 1.6 11.7 2.5 1.3.3 2 .4 2.5-1.1.7-3 2.4-5.5 2.6-9.2zM467.7 72.1c-2.6-6-3.5-12.7-7.4-18.7-4 10.7-2.8 13.7 7.4 18.7zM49.9 272.7c4.5-10.3 2.5-15.8-6.8-19l6.8 19zm170.9 491.7c6.2-4 11.5-8.4 17.1-13.4-10.3.1-16.1 4.7-17.1 13.4zM521.4 214c-5.2 10.8-4.7 12.1 6.6 17.8l-6.6-17.8zM303.9 778.1l7.1 19.4c4.5-11.3 4.3-11.8-7.1-19.4zm119.9-616c-4.5 10.7-2.8 14.8 6.1 16.7l-6.1-16.7zm198.5 503.3l-1.3.8c4.2 5.9 2.3 16 13.4 18.4l-12.1-19.2zM202.2 508.3c10 4.6 13.9-4.3 20.1-7.2-6.9 1-12.8 4.5-20.1 7.2zM99.1 266.2l-10.6-17.6-1.1.7c2.9 6 1.9 14.3 11.7 16.9zm329 499.4c-4-6.2-6.7-12.3-11.7-16.8 3.4 5.6 1.6 14.9 11.7 16.8zm237.6-440c-2.2-2.7-4.6-5.6-7.2-5.2-2.2.3-2.1 4.3-3.1 6.6-.5 1-1.1 2-.3 3.2l10.6-4.6zm-207.2-97.3l12-5.2-8.2-5.7-3.8 10.9zm98 52.1c2.6-1 4.5-1.5 6.2-2.5 1.5-.8 4.2-.7 4.3-2.5.2-1.8-2.4-2.3-3.7-3.6-2.4-2.3-3.7-2-4.4 1.3-.5 2.3-1.4 4.4-2.4 7.3zM455.5 78l-2.9-8.2c-.4-1.2-1.3-2-2.7-1.4-1.8.8-3.7 1.5-5.2 2.6-.7.5.2 1.6.9 1.9 3.2 1.6 5.9 4.1 9.9 5.1zM55.4 248.6c.9 3.6 1 7.7 3.6 8.7 2.4 1 5.6-1.3 8.5-3.7l-12.1-5zm50.5 515.7l-.8.2-.6 11.8c-.1 1.5.3 3 2.1 2.2 1.4-.6 4.2-.2 3.4-2.9-1.1-3.8-2.7-7.5-4.1-11.3zm-38.1-156c7 1.3 14.5 3.8 21-2.6l-21 2.6zm58-205.4c6.9 3.5 12.8 5.2 19.1 0h-19.1zM232.5 715h-.8l-1.1 10.3c-.4 3.8 1.3 3.7 4 2.3 1.7-.8 2.1-1.6 1.4-3.4-1.3-3.1-2.3-6.2-3.5-9.2zm358.7-191.1c-4.6 10.1-4.4 10.6 4.1 11.1-.6-3.9-2.4-7.4-4.1-11.1zm42.5 30.9l-1.9 12.4c7.6-1.6 7.8-2.4 1.9-12.4zm-442.1-32.9c1.4-.7 2.3-1 3.1-1.5l6.7-5.1c-7.4-3.2-7.4-3.2-9.8 6.6zM76.8 237.7l-4.3-12c-4.5 8-4.3 8.6 4.3 12zM400 740.3c4.1 3 5.6 7 9.4 9.4-.9-8.8-2.2-10.2-9.4-9.4zM169.3 287.5c-2.3-3.6-1.8-7.7-5.1-10.1-3.5 8.3-3.3 8.8 5.1 10.1zm63.8 108.2c-3.6 9.4-3.6 9.4 3.7 10.5-.7-3.8-1.6-7.3-3.7-10.5zM431.9 118c3.7-6.8.4-12.1-3.1-17.4l3.1 17.4zm76 614.5c3.4-5.3 3-9.7-1.7-14.4l1.7 14.4zm98.8-88.8c-3.9 9.3-3.9 9.3 3.7 10.2l-3.7-10.2zM463.1 406.5c-6-4.1-6.7-3.6-8.6 5.9l8.6-5.9zM82.4 264.1c-4-.6-6.5-6.9-12.4-3 2.9 1 6.3 1.4 6.5 2.4 1.3 6.8 4 .8 5.9.6zm325.7-82.9c3.2.8 5.6 3.4 9.1 3.4-2.2-8.1-2.6-8.2-9.1-3.4zM45 286.9c3.6-6-.1-10.1-2.2-14.5l2.2 14.5zm121.6 326.8l-2.8-7.8c-3.7 6.8-3.4 7.6 2.8 7.8zM305.8 811c3.9-5.8-.5-9.7-2.1-14l2.1 14zM434.7 63.8c1.9 4.8 2.7 4.9 7.3.7-2.5-.6-4.8-1.3-7.3-.7zm-33.6 662.5c-.8 2.6-2.8 4.7-1.7 7 .5 1 3.5 1 4 0 1.1-2.5-1-4.5-2.3-7zm14.4-560.2l-5.6 6.7c4.5.2 5-2.8 5.6-6.7zM47.7 235.9c1.9 4.6 4.1 3.2 7.1.7-2.6-.2-4.4-1.7-7.1-.7zm10.2 6.3c3.2.3 4.7 2.3 6.7.9.3-.2 0-1.7-.5-2.2-1.9-2-3.2.1-6.2 1.3zm655.2 118.4c1.9.7 2.6 3.4 5.3 3-.3-3.6-2.3-4.2-5.3-3zM436.6 80.4c-1-3.6-.7-7.4-5.9-5.5 1.3 2.1 2.8 3.7 5.9 5.5zM48.5 250.5c.2-4.5-1.6-5.6-5.3-4.5l5.3 4.5zm465 446.3c-.2-4-1.4-5.9-5.5-4.7l5.5 4.7zm249.2-275.9c.3-2.5-.9-3.7-2.2-5.7 0 2.5.3 4 2.2 5.7zM445.1 180.8l-.6.4c0 .3.2.6.4.9l.6-.4-.4-.9zM220.4 765.1l-.2-.3-.3.3.2.3.3-.3zm-170.9-514l-.3-.4-.3.3.2.3.4-.2zm143.9 417l-.2-.3-.3.3.4.3.1-.3zM79.9 539.2l.2.2v-.3l-.2.1zM763 421.9l-.2.3c.2.5.4.5.6 0l-.2-.3c0-.1-.1 0-.2 0z" fill="#f74b02"/></svg>