<svg xmlns="http://www.w3.org/2000/svg" viewBox="0 0 850.4 850.4"><path d="M838.8 578.2c-11.7-6.2-23.6-12.1-35.5-18.1-28-14.1-55.9-28.3-83.9-42.3-3.1-1.5-4.1-3-3.2-6.5 2.6-10.8 5.6-21.7 6.9-32.7 2.2-18.8 4.8-37.5 3.6-56.7-1-15.6-1.8-31.2-4.6-46.5A320.8 320.8 0 0 0 621.9 193a219.5 219.5 0 0 0-36.7-28.2c-2.1-1.3-3.4-2.5-2.2-5.5 6.5-17.1 12.8-34.3 19.1-51.5 10-27.4 19.8-54.9 30.2-82.1 2.2-5.7.7-8.2-3.8-10.7L610.8 4.8c-1.9-1.1-3.3-1-5.2 0-7.4 4.2-14.9 8.1-22.4 12.2l-54.8 30.1a15 15 0 0 0-7 7.3c-8.7 23-17.3 46-25.8 69.1-1 2.8-2.1 3.5-5.5 3a264 264 0 0 0-41.8-3.7c-15.7.3-31.2 1.6-46.6 4.5a214.4 214.4 0 0 0-43.7 13.4c-15 6.5-29.4 14.1-43.7 22.1-16.5 9.2-33.3 17.7-49.6 27.2a242.2 242.2 0 0 0-63.9 52.8c-2.3 2.7-3.9 6.8-7.3 7.6-3.5.9-6.2-2.7-9.4-4.3-35.2-17.6-70.3-35.2-105.3-53.1-2.7-1.4-4.1-.8-6.2.6-16.8 11-33.7 21.8-50.3 33-4 2.7-7.6 6.2-9.3 11.2-1.5 4.7-3.7 9.1-5.6 13.7-2.4 5.6-1.5 8.3 4 11.1l37 18.6c32.5 16.1 65.1 32.1 97.7 48 3.1 1.5 3.7 2.9 2.6 6.2-2.4 7.7-4.6 15.5-6.4 23.5a318.5 318.5 0 0 0-7 61.5c-.2 8.4 1.2 16.9 1.6 25.4a303.5 303.5 0 0 0 37.3 122.9 298 298 0 0 0 59.9 75 248.7 248.7 0 0 0 46.4 33.9c4.4 2.5 5.5 4.4 3.5 9.6-17.7 46.4-34.9 93-52.7 139.4-1.8 4.6-.1 7 3 8.4 11.5 5.2 22.8 11.2 36.2 10.6 14.2-.6 28.4-.2 42.6-.1l12.6-.1a7 7 0 0 0 7-5.1c3.5-11.2 7.9-22 12-33l22.5-61.1 12.1-33c.8-2.2 1.7-3.8 4.6-3.3 13.6 1.9 27.2 1 40.8-.1 15.5-1.3 31-3.4 46.5-4.5 17.4-1.3 34.8-2.7 51.9-5.9a222 222 0 0 0 65.3-23.4 258.5 258.5 0 0 0 87.6-79.1c2.4-3.4 4.2-3.2 7.4-1.7 15.5 7.8 31.4 15 46.6 23.3 7 3.8 13.8 4.4 21.4 3.4 25.5-3.5 51.1-6.5 76.6-9.7 4.7-.6 7.7-3.3 9.3-7.6 2-5.4 3.4-11.1 5.7-16.3 2.6-5.4-.4-8.1-4.2-10.1zM13 251.7h-.3l.4-.2-.1.2zm705.1 214.6c-6.7-11.7-6.7-11.8 2-15.9l-2 15.9zm-8.4 36.4c-5.5-5.7-4.9-8.2 3.3-13.4l.5-1.2.3.3c.1.6-.2.9-.7.9.4 5-3 8.8-3.4 13.4zm-48.3 51.7c-1 2.2-2.7 1.8-4.3 1.6l-48.9-8.3-.1-.7 62.7-11.7-9.4 19.1zm5.2 13.2c3.2 1.7 3.2 1.7.7 6.1-.1-2.7-1.8-4.2-.7-6.1zm-46.2 36.7l-38.6-5.5v-1l55.3-8.7c-3.5 5.9-8.7 9.7-12.4 14.6-.9 1.3-2.8.8-4.3.6zm-11 19.5c3.8-3.9 7.2-7.3 11.4-9.7.4.4.7.7.7.9.6 9.6.6 9.6-12.1 8.8zm-42.7 15c-7.8-1.7-16.2-.9-24.8-2.2l49.5-6.6c-8.2 5.6-14.5 11-24.7 8.8zm31.5-6.6l.6.8c.7 9.3.7 9.3-8.4 8.4l-5.7-.8 13.5-8.4zM531.9 651l-.2-1.3 29.3-3.5c-9.7 6.9-19.4 5.6-29.1 4.8zm14.4 15.7c-.5 1.5-1.8 1.1-3 .7l-12.1-4.2 12.4-3.6c.9-.2 2.1-1.3 2.6.1.8 2.3.7 4.8.1 7zm26.7-19l.4.6c1 8.6.6 9-7.8 7.2l-6.2-1.5c5-2.9 9.2-5 13.6-6.3zM525.7 634c4.9-4.4 9-8.1 13.3-11.7 1.6-1.3 3.6.3 5.4.5 10.2.9 20.4 2.1 30.7 3.8-16 3.6-32.2 4.7-49.4 7.4zm-.1-167l-.1.8-41.7 10.3c-3 .7-5.9 1.6-8.8 2.5-.8.3-1.7.6-2.4-.1-.8-.8 0-1.6.3-2.3l1.7-4.2c3.5-10.5 3.4-10.7 14-10 12.4.9 24.7 2 37 3zm-26.5-9.3l41.7-11.3 9.3-2.6c2.6-.8 3.1.2 2.2 2.5-1.6 4.1-3.3 8.2-4.6 12.4-.9 3-2.9 3.5-5.5 3-10.1-1.7-20.4-.8-30.5-2-4.1-.4-8.4-.5-12.6-2zm7.4 20.8c12.8-3.2 25.7-6.3 38.5-9.6 2.3-.6 4.1-.4 6.2.7l101.2 50.6 2 1.3-.4.9L481.2 486v-1l25.3-6.5zM418.6 177l.5 1.5c-13.9 5.1-25.3 17.3-43.3 13.8a12720 12720 0 0 0 42.8-15.3zm-62.3 15.2l19.4-7.9.6 1.4c-6.5 2.7-12 7.5-20 6.5zm22.8-35.7c1.9-2.5 5.4-2.7 8.9-2.6l-6.7 8.7c-1.2-2.3-3.1-4.8-2.2-6.1zm40.5 5.6l-29.8 12-.6-1.5c9.7-3.7 17.9-11.2 30.4-10.5zm-11-13.1c-.1-1.8 1.7-1.9 3-1.8 2 .2 3.8-1.4 6-.2-.9 2.2-2.8 3.3-4.3 4.8-.8.9-1.8 2.8-3.1 1.7-1-.9-1.5-2.9-1.6-4.5zm43.6 11.2l-47.3 16.9-.5-1.3c10.7-5.3 21.4-11 32.3-15.9 4.7-2.1 10.1-.3 15.5.3zM442 144.4c1.6 0 3.3-.6 4.9.5-.6 1.9-2.6 2.1-3.6 3.4-.7.8-1.8 2.3-2.8 1.2-.8-.8-.8-2.5-.9-3.8-.3-2 1.4-1.3 2.4-1.3zm32.2 15.9c3.5.1 6.9 1.3 11.6 2.2l-20.2 6.2c-12.2 3.6-24.1 8.3-36.6 11.1-.5.9-1.4.8-2.3.8-.4.9-1.3.9-2.1.9-.2 0-.3-.4-.5-.5l2.3-.6c.2-1 1.1-1.1 1.8-1.4 12.5-7 25.6-12.7 38.4-19.1 2.7-1.4 5.1.3 7.6.4zm-4.1-14.1c2.3-3.3 4.8.6 7.4 0-2.2 1.5-3.6 4.7-6.8 3.6-1.3-.4-1.3-2.6-.6-3.6zm-11.7 29.9l.6 1.2-25.6 12.3c-1.2.6-2.6.8-3.7 1.6-7.9 5.7-16.3 5.5-26.1 1.9l54.8-17zm34.1 5.9l.4 1.3-29.3 13.7c-1.8.9-3.9 1.4-5.5 2.6-9.3 6.7-18.1 3-28.5-1l62.9-16.6zm15.8-29.8c-1.6.9-2.7 1.6-4 2.1-1 .4-2 1.9-3.1.8-.9-1-.7-2.6-.2-3.8.7-1.9 2.2-.8 3.4-.4 1.1.2 2.2.7 3.9 1.3zm-1-6.9c2.1-1 3.4-1.9 4.8-2.3 1-.3 2.3-1.4 3 .1.3.8-.1 1.9-.3 2.9-.4 1.7-1.6 1.3-2.8.8l-4.7-1.5zm13.7 19.6l-15.3-4.6c10.1-6.9 10.1-6.9 15.3 4.6zm15.6 12.6l-46.5 13.8-.4-1.2 24.8-11.6c.9-.4 2-.6 2.8-1.1 6.3-4.2 12.7-5.8 19.3.1zm-5.4-31.8l12.8 6.2c-7.1 3.3-7.1 3.3-12.8-6.2zm14.5 12.4l-1.5 8.9c-4.4-7-4.4-7.3 1.5-8.9zm-5.8 24.6A39948 39948 0 0 0 499.6 292l-.9-.3 4.1-34.1 5-39.8 2.2-19.7c.1-1.1.4-2 1.4-2.4a3862 3862 0 0 1 28.5-13zm-1.5-11.3c-2.3-1.2-5.5-.7-6.3-3.3-.5-1.5 2-2.8 4-4.2.6 2.6 2.9 4.2 2.3 7.5zm-40.6 23.2l.3 1.5c-10.8 4.9-21.5 9.8-32.3 14.5-3.5 1.5-5.6-2.8-9-2.3l-.1-1.5 41.1-12.2zm-32.3 23.8c.5-1.3 1-2.5 2.4-3.1 11.8-5.2 23.2-11.3 35.4-15.6.3-.4.5-.7.9-.2l-.6.5c.2 11.9-2.7 23.6-3.8 35.4-1.4 15.3-3.8 30.6-5.7 45.9-1.4 10.9-2.7 21.8-3.9 32.8-.2 2-1.4 2.6-2.8 3.2l-67 24.4-1-.5 9.6-25.9 30.8-82.1c2-4.9 3.9-9.8 5.7-14.8zM447.9 338l42.8-15.9c1-.4 1.9-.9 2.9-.4l15 8.1c-20.9 3.1-40.5 7-60.7 8.2zm32.5 3.3l-40.1 14.4c-1.1.4-2.3.7-3.5.1-4.2-2.1-8.4-4.2-12.6-6.9 18.7-2.7 37.2-6.9 56.2-7.6zm19.7-22c8.1-5.1 9.1-4.5 10.6 5.2l-10.6-5.2zm9.6-15c-1.8 5.4-5.7 7-11.3 8.7l30.1-64.5c.5 5.1-1.9 9.3-3.4 13.7-5.1 14-10.6 27.9-15.4 42.1zm5.3 2.4c8.2-15.7 15.6-31.8 23.4-47.7.7-1.5 1.1-3.3 3.8-4.9l-25.1 68.4c-2.7-6-5-10.1-2.1-15.8zm23.9-62.3l-1 2.1c-.5.9-.1 2.2-1.2 2.9l-.8 1.7c-.1.1-.6-.1-.9-.1l1.1-2.1 1.3-2.9.7-2.3 23.5-64.6c3 6 4.7 11.1 1.5 17-8.6 15.8-15.3 32.7-24.2 48.3zm9.2-67.3l.3-.1.1.5c-.1.5-.3.6-.5.1l.1-.5zm2.7-6.7l-.8 4.2c-.4-1.5-.3-3 .8-4.2zm2.3-5.1c-.4 1.7.2 3.9-2.2 4.9-.2-2 1.1-3.4 2.2-4.9zm57.8 61.1c4.3 4.8 8.8 9.4 13.4 14.4-4.5 2-9 1.6-13.2 2-16.8 1.9-33.7 3.5-50.5 5.3-2.3.2-4.8-.4-7.1.7-.9.4-2.3.5-2.6-.7-.4-1.3 1-1.4 1.9-1.8l27.4-11.1c8.2-3.3 16.5-6.4 24.6-9.9 2.6-1.2 4.3-1 6.1 1.1zm-14.2-18.7c-.4-.3-1.4-.4-.9-1.1.4-.5 1.1-.2 1.4.5 3.9.1 7.5 1.7 11.2 2.6 2.1.5 2.9 1.8 1.3 3.5-1 1.1-1.1 4.7-4.1 2-2.9-2.6-6-5-8.9-7.5zm75.5 112c1.1 2.5.9 3.6-2.3 3.5l-70.6-.1v-.7l52.5-17.8 1.5-.4c11-3.4 11-3.4 15.4 7l3.5 8.5zm-1-22.7c.7-1 2.1-1.6 3.3-2.1 2.2-.9 1.9 1.5 2.3 2.4.9 1.9 2.6 3.6 1.9 6.9-2.2-1.7-4.1-2.8-5.6-4.3-.9-.7-3.1-1.1-1.9-2.9zm15.9 28.5c1.1-.4 2 0 2.2 1.3.5 2.9 2.6 5.3 1.9 10l-6.1-7.3c-.6-.7-2-1.3-1-2.4.7-.8 1.9-1.3 3-1.6zm-2.4-25.2c.5-.6.5-.1.5.2a.8.8 0 0 1-.5-.2zm22.5 130.5c-3-1.9-3.7-4.6-5.1-7 7.2-1.5 4.4 3.5 5.1 7zm-2.7 32.1c-1.3-2-3.3-3.5-2.7-5.9.1-.3 2.1-.6 2.8-.2 3.1 2-1.4 4.1-.1 6.1zm-21 25.8c2.7-.7 2.9.7 2.5 2.7l-1.1 3.9c-.8 3.4-2.4 4-5.4 2.1-3-1.8-6.2-3.2-10.6-5.5l14.6-3.2zm-34.1-7.4l21.3 3.3c-6.8 4.3-13.4 3.4-21.3-3.3zm36.2-.8c-17.7-2.7-35.5-5-53.3-7.4-1.2-.2-2.3-.5-3.2-2.1 8.1-2 16.1-4.2 24.1-6.1 11.4-2.7 22.8-5.1 34.2-8 3.7-.9 4.6 0 4 3.4a1072 1072 0 0 1-2.8 17.6c-.3 1.5 0 3.1-3 2.6zm-61.3-33.6c17.2 1.6 34.3 4.1 53 6.3l-19.9 5.1-34.7 8c-6.5 1.5-11.2-2.2-11.2-8.8.3-13.6-2.5-12 12.8-10.6zm68.4-1.5c.1 3.3-1.9 3.1-4 2.9l-22.2-2.3-30.7-3.8-7.2-1.1v-.7l44.8-11.5c5.6-1.4 11.2-2.6 16.7-4.4 2.9-.9 4-.1 3.5 2.6-1.2 6.1-1 12.2-.9 18.3zm.3-30.2c.4 3.4-1.9 2.1-3.2 2.1l-24 .3c0-2.1-.7-3.1-3.2-3.4a411.5 411.5 0 0 0-31.4-2.9c-1.6-.1-3.5.6-5.3-1.5l20.9-5.7c13.6-3.7 27.2-7.4 40.7-11.4 3.2-.9 3.4-.3 3.9 2.6 1.1 6.6.7 13.3 1.6 19.9zm0-48.2l.3-.1.2.2-.5-.1zm-27.2 50.7c-.3 1.9.4 2.7 2.4 2.8l9.2.6c-4.4 3-9.4 3-13.9 4.2-15.5 4.3-31.2 8-46.8 12.2-4.1 1.1-5.3.5-5.3-4 0-4.4.1-8.8-1-13.2-.6-2.5-.7-5.4 3.5-4.7 17.2 2.8 34.6 1.1 51.9 2.1zm27.4 72.8c1.8-.7 3.1 2 4.4 3.8l-7.5 3.8c1.3-3.4.7-6.7 3.1-7.6zm5.8-75.9l-1-14.9c8.4 5.3 8.6 9 1 14.9zm-.1 31.6v-15.3c7.8 6.6 8 10.6 0 15.3zm3 26.2c.8 3.8-3.7 3.7-6.5 6-.5-5.9.6-10.5 1.6-15.9 3.1 3.1 4.3 6.7 4.9 9.9zm1.7 34.1l-10.2-3.3c7.6-5.2 8.3-5 10.2 3.3zm1.2-107.8l-4-5.5c-.8-1.1-1.8-2.4.3-3.1 1.5-.5 3.3-.5 3.6 1.5.3 1.8.1 3.7.1 7.1zm-8.7-15.4c-1-5.9-2.7-10.7-2.5-15.9 3.3 1.9 5.6 5 7.4 8 2.2 3.8-2.6 4.8-4.9 7.9zm-3.5-24.7c5.9-2.1 5.9-2.1 7.6 8.6l-7.6-8.6zm-3.1-7.7c-2.7-4.3-3.2-9.3-4.7-13.9v-1.2l.6.6c1.5 1.3 3.1 2.6 4.5 4 5.3 5.3 5.3 5.3-.4 10.5zm-3.3 12c1 5.8 2 11.7 3.2 17.5.6 3 .1 4.5-3.4 4.3a3190.8 3190.8 0 0 0-66.3-4.1l-.1-.6 49.5-14.8c4.5-1.4 9.1-2.6 13.6-4.2 2.1-.7 3.1-.4 3.5 1.9zm-5.5-9.2l-32.1-1.4-5.1-.3c-10.2.3-20.4-.3-30.6-2l41.6-13.3c6.1-2 12.3-3.8 18.4-5.9 2.5-.8 3.7-.2 4.4 2.4 1.7 5.9 3.7 11.7 5.6 17.5.8 2.1.1 3.1-2.2 3zm-12.8-63.8c-1.6 1.9-2.5 1.8-3.6-.3-2-3.6-4.2-7.1-6.3-10.7l.7-.6c2.8 1.8 5.5 3.9 8.5 5.4 3.6 1.9 2.7 3.7.7 6.2zm-3.6-14.1l-5.7-3.6c-5.3-3.5-5.2-3.5.6-7l5.8 9.9-.7.7zm-5.5 14.9c1.7 2.9 1.1 3.7-2.2 3.8l-58.8 1.2c-4.2.1-8.4 1.9-13.3.4l60.2-22c2.8-1 4.3-.4 5.7 2.1 2.7 4.8 5.5 9.7 8.4 14.5zm-8.4-27.2c-1.1 1.8-2.2.4-3-.8l-7.2-10.2c4.6.3 7.9 3.5 11.6 5.6 2.8 1.6-.4 3.8-1.4 5.4zm-3.6-14.5l-9.5-4.9c-.8-.4-2.2-.7-1.9-2 .4-1.7 2-2.7 3.3-3.7 1.3-1 1.7.5 2.2 1.2l6.7 8.7-.8.7zm-4.5 15c1.7 2.2 1 2.9-1.5 3-16.8.7-33.5 2.8-50.4 3.1-7.4.1-14.7 1.2-22 1.8l-.2-1 24-9.3c10.6-4.1 21.4-7.9 31.9-12.3 4.1-1.7 6.6-1.8 9.1 2.4 2.6 4.4 6 8.3 9.1 12.3zm-9-29.6c-3.6 5.6-3.6 5.7-8.2.9-1.7-1.8-3.2-3.8-4.8-5.8l.7-1.1 12.6 4.7c-.2.7-.1 1-.3 1.3zm-6.9-10l-8-3c-6.3-2.4-6.4-2.5-1.9-7l10.8 9.2-.9.8zm-7 3.7v.3l-.3-.2.3-.1zm-64.7 11.3c.6-7.7 1.8-8.9 8.7-9.6 6.1-.6 12.2-1.5 18.2-2.3l.2 1-27.1 10.9zm-11 27.5c1.3-3.3 2.4-6.7 3.5-10.1.5-1.5 1.7-2 3.1-2.1l38-3.5 17.1-1.9.1 1.1-42.6 16.4c-4.4 1.7-8.8 3.5-13.3 5.1-1.2.4-2.7 1.8-4.1 0-1.2-1.5-2.7-2.7-1.8-5zm10.8 11.3c13.6.2 27.1-1.2 40.7-2.3 9.3-.8 18.7-.2 27.9-2 1.1-.2 2.4 0 3.6 0l.2.7-41 14.8c-5.7 2.1-11.5 4.1-17.2 6.3-2.1.8-3.8 1.2-5.4-1l-10-13.5c-1.5-1.7-1.7-3 1.2-3zm85.8 23.3c-2.7 2.5-5.6 2.9-8.2 3.8l-47.7 16.2c-2.9 1-4.3.3-5.7-2.2-2.9-5.3-6.2-10.5-9.7-16.5 24.1-.1 47.3-2 71.3-1.3zm-52.7 27.7h68.7l.2.7c-20.1 6.4-40.1 12.7-60.1 19.2-2.3.8-3.5.3-4.4-1.7l-6.7-14.9c-1-2.3-.4-3.3 2.3-3.3zm11.4 27.6c.9.3 2 .3 3 .3 14.1.3 28.3.2 42.4 1 7.1.4 14.3.6 21.5 1.7L629 370.9c-7 2.1-14.1 4-21 6.3-3.6 1.2-5.8 1.2-6.8-3.3-1.2-4.9-3.1-9.7-4.7-14.6-.8-2.2-.5-3.5 2.5-2.5zm9.1 29.1c11.7.7 23.4 1.1 35 2.1 7 .6 13.9.8 20.9.9 2.6.1 5.1.1 8.4 1.8l-32.7 9.2c-9.1 2.5-18.4 4.9-27.4 7.6-2.8.8-3.4.4-3.9-2.5-.8-5.3-2-10.6-3.1-15.9-.6-2.5.3-3.3 2.8-3.2zm17.8 98.1l-.8 1.3-20.2-10.4c-10.8-5.5-21.5-11.3-32.5-16.2-5.8-2.6-6.7-7.3-8.6-13.3l62.1 38.6zm-7.2 5.2a7 7 0 0 0-.9-.7l.5-.5.8.6c.4.3.3.5-.4.6zm-2.9-2.3h-.4v-.2l.4.2zM574 466.4c12.4 8.6 25.4 16.4 38.1 24.6 2 1.3 3.8 2.9 5.6 4.3 2.3.3 4 1.4 5.5 4.7l-6.2-3.9-49.9-24.6-11.6-5.8c6.6-6 12.2-3.6 18.5.7zm-20.2-7l3.8-11.3c5.1 7.9 4.8 8.9-3.8 11.3zm-63.7 33.7l171.6 36.2-.2.6c-19.6 3.7-39.4 6.9-58.9 11.4-8.9 2.1-16.3.9-24.2-3.1-21.4-11-43-21.6-64.5-32.3-8-4-16.2-7.8-24.3-11.6.3-.4.4-.8.5-1.2zm104.2 58.2l46.5 8.1v.8l-60.2 10.4c3.3-6.5 6.2-12.2 9-18.1 1.1-2.5 3.2-1.5 4.7-1.2zm3.3 57.4l-50.4 7.1c2.9-5.6 7.8-8.8 11.2-13.4.5-.7 1.4-1.1 2.3-.9 12.1 2.5 24.8 2.3 36.9 7.2zm-32.5-13.9a98 98 0 0 1 10.3-15.6c1-1.4 2.4-1.4 4.1-1.1 14.3 2.4 28.7 4.6 43.1 6.9l.3.6-57.8 9.2zm75.9-3.7c2 4.6 3.6 9 1.3 11.6-2.2 2.5-7.1-.1-11.5 2 2.6-5.7 7.8-7.9 10.2-13.6zm-1-9.5c-13.1-1.9-26.1-4-39.2-6.1-1.1-.2-2-.5-2.5-1.9l57.4-9.9-11.5 17.2c-1.1 1.8-2.9.9-4.2.7zm19.7-14.6c3.3 12.7 3.3 12.7-9 13.5l9-13.5zm-35-73.8c-1.4-.9-3-1.5-4.3-4.2a39099 39099 0 0 1 65.1 32.6c-5.8 5.1-7.9 5.3-13.9 1.5l-46.9-29.9zm64.2 36.2c-.5 2.1-.4 4.1-2.1 4.4-1.5.3-2.7-1-3.5-2.8l5.6-1.6zm-6.1 28.8c1.5-.6 3.2 1.2 4.8 3.1l-7.5 2.2c.1-2.6 1.3-4.8 2.7-5.3zm4.8-9.4c.8 2 1.6 3.6 1.4 6.6-3.5-1.9-4.7-3.5-1.4-6.6zm-1.5-40.8c3.9.5 6.6 1.2 8.3 4-2.8-.5-5.1-2.1-8.3-4zm11.3 36.3c1.8 1 .7 2.3 0 3.4-.9 1.2-.5 3.1-2.5 4.2l-1.3-5.1c-.3-1.2-1.8-2.7.1-3.4.9-.4 2.5.3 3.7.9zm-5.1 26.3c4.2-6.8 7.6-14.1 10.5-21.5 1.5-3.8 3.6-1.5 5.3-.7l55.4 27.7 42.6 21.3 4 2.1-.3 1-27.8-6-87.8-20.1c-2.7-.6-3.5-1.2-1.9-3.8zm53.1-14.7c-12-4.3-23.7-9.4-35.8-13.4-6.1-2-5.8-7.1-6.9-12l61.5 30.8c-7 0-12.7-3.3-18.8-5.4zm-50.7-43.8c5.2 1.8 10.8 3 14.1 8-5.1-2-9.9-4.5-14.1-8zm18.2-39.1c-1.2.2-2.6.1-2.7-1.5v-6.1c2.4 1.8 2.5 3.8 3.4 5.3.4.9.9 2.1-.7 2.3zm-.7-75.1l5.6 7.9c-6.2 1-6.2 1-5.6-7.9zm1.3 33.8l3.1 5.2c.5.8 1.5 1.7.7 2.7-.4.5-1.6.5-2.4.3-1.1-.3-2.4-.7-2.3-2.2.2-1.7.6-3.3.9-6zm7.8.2l-1.2.5c-2.1-3.8-4.5-7.4-6.4-11.4-.8-1.7 1.1-3.1 6.3-5.1.3 5.7-.3 10.9 1.3 16zm-3-35.6c-8.6-6.4-9.2-10.6-1.7-14.9 1.2 5.1 1.7 9.9 1.7 14.9zm-11.5-31l-.7-1.1.3-.4.7 1.2 5.5 5.9c.4.5.5 1.2.8 1.8-6 1-6.5.3-6.6-7.4zm2.9-17.7l3.7 15.4c-8.8-4.6-10.3-10.3-3.7-15.4zm-12.1-15.4l7.6 7.8c-4.5 3.5-6 1.8-7.6-7.8zm6.3-1.9l.7 1.2-.3.4-.8-1.2c-2.1-.8-3.3-2.8-4.9-4.3-5.3-5.2-5.2-5.3.2-11.1 2.3 4.8 4.3 9.7 5.1 15zm-16.7-23.5c-.7-2-1.8-3.9-1.8-6.1 3.7 1.7 6.1 5 9.5 7.2-3.6 3.6-6.1 3.3-7.7-1.1zm-1.9-23.1l6.5 14.4c.4.4.8.7.1 1.2l-.7-.6-6.3-5.1c-5.2-4.2-5.2-4.2.4-9.9zm-2.3 30.4c2.2 2.7-1.8 4.5-3.8 7.4l-6.5-15c4.7 2 8 4.7 10.3 7.6zm-3.8-35.1c-1.3 1-2.9 3.8-4.9 1-1.9-2.7-3.5-5.6-5.3-8.5l.8-.8 8.3 5.6c.8.6 3.4 1 1.1 2.7zm-2.7-10.9l.3.3-.3.3-.3-.3.3-.3zM665 257.7c2.3-4 3.8-3.5 5.4.2 1.4 3.1 4.1 5.7 5.3 10.6l-9.7-6.4c-1.9-1.1-2.3-2.1-1-4.4zm-10.6-8.3c-1.1-1.6-2.9-2.9-3.2-5l-.5-.9 1.1.3c3.9 1.6 7.8 3.1 10.9 6.1-4.7 4.5-4.8 4.6-8.3-.5zm-6.7-22.8l9.8 12.7-.6.7c-2.5-1.2-5.2-2.3-7.6-3.8-6.6-4.2-6.6-2.5-1.6-9.6zm-5.7-2.8c-.5 1.3-1.9 2.3-2.9 3.4-1.3 1.3-2.1.2-2.9-.6l-8.7-7.7 1.1-1.5 11.1 4.5c.8.4 2.9.2 2.3 1.9zM623.2 203c.8-2 1.8-1.2 2.9-.1 3 3.2 6.5 5.9 9.2 11.1-5.1-2.1-9.5-3.3-13.3-5.7-2.6-1.6.5-3.6 1.2-5.3zm-12.6-1.6c-2-2.2-4.9-3.4-7.4-6.5a80 80 0 0 1 15.2 4.3c-1.8 4.2-3.7 6.7-7.8 2.2zm-14.5-19.3c1.1-2.3 1.9-2.7 3.9-.9 3.3 2.9 6.8 5.5 10.2 8.2l-.2.9c-3.9-1-7.7-2.1-11.6-2.9-3.6-.8-3.8-2.3-2.3-5.3zm6.7 19.1l-.4.8-11.7-2.9c-.9-.2-2.5.1-2.2-1.4a14 14 0 0 1 2.4-4.5c.9-1.2 1.9-.2 2.6.3l9.3 7.7zm-12.5-20.3c-2.2-2.4-3.1-5.4-4.5-8.5 7.1 2.1 7.6 2.9 4.5 8.5zm4.4 31.6c1.8 2 4.1 3.5 7.3 6.1l-42 5.5c1.3-8 4.5-12.5 11.7-16.2 10-5 16.5-2.9 23 4.6zm-12.9-27.1c-11.3 1.4-11.3 1.4-13.5-7.8 5.4.8 8.8 4.9 13.5 7.8zM569 171c8.5-5.6 10.7-4.2 12.7 7.5-4.7-1.6-7.9-5.6-12.7-7.5zm12.7 7.5l.7.1-.3.5c-.2-.1-.3-.3-.4-.6zm-4.8 20.8l-8.5 1.9c0-2.5.3-5.3 2.1-5.8 2.1-.5 4.1 1.7 6.4 3.9zm-8.6-21.9l-.5-.5c.5-.1.7.1.5.5zm16.1 14.5c.6 1.1-.6 2.2-1.2 3.1-1.2 1.8-2.2.6-3.3-.2l-3.6-2.7 4.7-.2c1.1 0 2.5-1.8 3.4 0zm3.3-74.4c-3.3 12.4-7.1 24.8-9.8 37.4-1.3 5.9-4.2 8-9.5 8.3l-.5.7-.3-.3.5-.6c2-8.7 5.8-16.7 8.7-25 4.1-11.9 8.7-23.6 13.1-35.4.3-.9.8-1.7 1.6-2.5-.1 6-2.3 11.6-3.8 17.4zm36.4-86.4a6774 6774 0 0 1-24.5 66.3l-.4-.1 7.3-27.9 10.2-37.8c.2-.8.2-1.7.6-2.5a6.2 6.2 0 0 1 7.3-3.4c3 1 .1 3.7-.5 5.4zm-.1-12.2c-7.9 3.1-8 3.1-9.5-6.3 3.4 2.8 7.1 3.5 9.5 6.3zm-16.1-3.5c3.6 5.7 4.5 10.1 2 16-13.5 31.5-26.5 63.3-39.7 95l-11.7 28.3c-.5 1.2-1.3 2.3-1.9 3.4l-1.2-.5 52.5-142.2zM524.3 83l3.1-26.8c.2-2.4 1.6-3.7 3.5-4.7l68.6-37.4c.7-.4 1.5-.6 3.2-1.3l-31 83.9c-5.5 15-11.2 29.9-16.6 45-1.3 3.6-2.4 4.8-6.4 3.1-8.7-3.8-17.7-7-26.6-10.3-2.8-1-4.1-2.4-3.7-5.6 2.1-15.3 4-30.6 5.9-45.9zm-21.4 36.1l14-37.2 1.7-4.1.7.2-3.4 28.7c-.9 7.2-2.1 14.4-2.7 21.6-.3 3-1.3 3.2-3.9 2.7-10.2-2.2-10.1-2.1-6.4-11.9zm7 18c-10.8 7.2-10.4 7.4-15.5-3.5l15.5 3.5zM495.2 165c1-.5 2-1.1 3.4-.7 5.7 1.7 11.4 3.4 17.2 6.2l-66.6 17.7-.3-1c15.4-7.4 30.8-14.9 46.3-22.2zm-7.7-14.9c.9 1.7 3.4 3.5 2.4 5.3-1 1.9-3.7.7-5.6.4l-9.7-1.3c3.7-2.3 6.4-3.5 8.6-5.3 2.1-1.7 3.3-1.1 4.3.9zm-12-11l8.3-5c.9 7.8-3.6 6.2-8.3 5zm2.1-8.5c-6.5 8.6-10.7 8.4-15.9-1.3l15.9 1.3zm-16.2 22.1c-5 .8-9.7.4-15.2.3l1.4-1.9c7.6-7.7 7.6-7.7 13.8 1.6zm-9.6-21.6c1.2 7.7 1.2 7.7-7.6 6.9 2-3 5-4.4 7.6-6.9zm-17.4-1.9c3.7-.1 7.3 0 12.3 0-3.6 2.9-6.2 4.9-8.7 7.1-1.2 1-2.3 1.7-3.5.2-1.6-2-4.4-3.7-4.2-6.4.1-1.5 2.7-.9 4.1-.9zm-7.2 18.2l5.4 6.3c-5.9.4-10.9 2.2-18.1 2 3.8-3.4 6.7-5.9 9.4-8.5 1.5-1.4 2.3-1 3.3.2zm-6.8-14.8c3.2 7 3.1 7.1-6.8 8.2l-.7.3.4-.6c1.7-3.2 4.8-5.1 7.1-7.9zm-5-1.8c-2.8 4.4-6.1 6.8-8.8 9.8-1.4 1.5-2.4 1.2-3.9-.1-1.9-1.7-4.1-3.1-6.9-5.2 7.2-3 13.1-2.5 19.6-4.5zm-16.8 22.1c1.4 1.8 4.6 2.9 4 5.3-.3 1.5-3.4 1.5-5.3 2-2.7.7-5.2 2.2-9.2 1.7l6.4-8.7c1.3-1.6 2.6-2.2 4.1-.3zm-8.2-14.2c2.7 6.9 2.7 6.9-6 9 0-2.8 1.1-4.4 6-9zm-22.8 5.3c.4-2.3 3.9-2 6-2.7 3-1.1 5.8-2.7 10.1-2.8-2.7 3.5-4.9 6.5-7.2 9.3-1.2 1.5-2.5 3-4.4.6-1.3-1.8-4.8-2.4-4.5-4.4zm2.3 17.9a21 21 0 0 1 5.3 5c-4.1 3.2-9.2 4.1-14.3 6l6.2-10.5c.8-1.4 1.6-1.2 2.8-.5zm-9.6-13.8c4.6 7.4 5.5 6.8-5.6 10.9.9-4.2 3.9-6.8 5.6-10.9zm-1.3 16l.5-.6c.2.6.2.8-.5.6-.7 3.9-3.2 6.8-5.1 9.9-1.5-.3-1.5-1.5-2.1-2.2-2.5-3.1-1.6-4.9 2-6 1.7-.4 3.5-1.1 5.2-1.7zm-6.7-14.5l.8.8-7.5 12.3c-3.2-1.2-5.2-3.7-8.3-6.1l15-7zm-3.7 30.3a70.5 70.5 0 0 1-12.9 8c-.2.4-.5.8-1 .2l.6-.5c1.4-3.3 2.9-6.5 4.1-9.8 1.2-3.1 2.6-4.1 5.2-1.4 1.2 1.2 2.6 2.3 4 3.5zm-16.4-17c6 5.4 5.5 6.7-5.9 12.5l5.9-12.5zm.2 15.4c-.1 3.8-2.1 5.9-3.2 8.3-.5 1.2-.8 3.7-2.6 3-1.5-.6-2.5-2.7-3.3-4.3-.9-1.8 1.1-2.2 2.1-2.9l7-4.1zm-17.1-7.9l9.2-6 .6.8c-1.9 3.8-3.8 7.5-5.6 11.4-1.1 2.4-2 3.6-4.7 1.3-4.8-4.2-5-3.9.5-7.5zm-.2 23.7c.3-.9.5-2.4 1.7-2a13 13 0 0 1 5.8 4c.9 1.1 0 2-.8 2.5-3.3 2.2-5.8 5.7-10.7 8.1l4-12.6zm-8.9-13.5c5.8 5.7 5.8 6.3-.3 11a70.7 70.7 0 0 1-4.4 3.2c.4-5.1 3.1-9.4 4.7-14.2zm-4.8 14.5l-.1.2h-.3l.4-.2zm6.6 1.9c-1.1 3.5-1.9 6.6-3.1 9.4-.6 1.3-.4 4-2.5 3.6-1.8-.3-2.6-2.5-3.6-4-1.4-2.1.6-2.5 1.7-3.4 2.1-1.8 3.7-4.5 7.5-5.6zm-8.8 22L289 230.4l3.4-15.2c.2-1 .4-2.5 1.6-2 2.2.9 4.2 2.2 6 3.7.8.7-.2 1.5-.8 2.1zm-5.4-21.4c-.4.9-.2 2.8-2.1 2.3-2.3-.7-4.4-2-5.9-3.8-1.1-1.3.6-2.2 1.4-2.8 3.7-2.9 6.6-6.9 11.8-9.7-2.1 5.5-3.5 9.8-5.2 14zm-16.1 21.7l4.4-17.3c6.7 6 6.7 6-4.4 17.3zm8.1-.4l-.6.5.1-.8c.1.2.3.2.5.3zm84.5 137.7c-18-9.7-36.6-18.4-54.9-27.6l-2.1-1.2.5-1.3 73.7 29.8c-5.8 4.8-10.9 3.6-17.2.3zm20.6 5.8l-4.7 12c-4.8-9.4-6-9.2 4.7-12zm-237.6-107c-1.1-.7-2.6-1.1-3.7-4.1l78.8 39.7c-8.3 5.6-9.4 5.5-17.1.6l-58-36.2zm5.4 10l-.3.8-.6-.5c-.1-.2.1-.5.2-.7l.7.4zm-1.8-1.1c-.5.6-1 .3-1.5-.1-15-6.5-29.1-14.9-43.8-22-11.2-5.4-22.3-11.1-33.4-16.7-1.6-.8-3.5-1.3-4.8-3.4 5.5-2.7 10-4.7 16.3-.6 21.9 14.3 44.2 28 66.4 41.9l.8.9zm63 16.2c1.8-.6 2.8.3 3.6 1.6-1.4.1-2.5-.5-3.6-1.6zm17.6 21.2l2.6 5.6c-5.5.3-5.5.3-2.6-5.6zm1.1 13.6a13.8 13.8 0 0 1-6.4 4.2c.5-6.6.5-6.6 6.4-4.2zm-9.2-30.3c5 1.2 8.3 2.6 11.3 4.9-3.7-.5-7.1-1.8-11.3-4.9zm-1.6 220.2c6.9-3 6.9-3 11.2 8.4-4.5-2.7-8-5.2-11.2-8.4zm12.8 16.1c1.4.8 1.7 2 .7 3.4l-4.4 6.9c-3.6-5.6-5.2-11.6-7.7-17.1-.3-.4-.5-.9.1-1.3l.7.6c4 1.8 6.9 5.2 10.6 7.5zm-33.7-113.8c-1-.7-1.3-1.9-.4-2.5.6-.4.9 1 1.2 1.7 1.1 1.3 2.2 2.5 3.2 3.9 5.8 7.6 5.7 8-3.2 14.1-1.3-5.8-.6-11.5-.8-17.2zm.9-39.4l6.7 11c.8 1.3.6 2.2-.5 3.1l-7.3 6.2c1.1-6.5-.5-13 1.1-20.3zm8.2 3c-2-2.6-3.5-5.1-4.7-8.3 5.6 0 5.8.4 4.7 8.3zm-4.3-15.2l6.6-5c-.2 6.7-.2 6.7-6.6 5zm1.7 37c-.9.2-2.6.3-2.7-.6-.3-2.5 2-3 4.5-4.3-.4 2.1 1.3 4.4-1.8 4.9zm2.5 14.6c-3.1-2.2-4.9-5.3-7.2-8.8 8.2-1.1 6.1 5 7.2 8.8zm.1 16.5c.6 4.6.6 4.6-4.1 4.3.9-1.9 2.3-3.1 4.1-4.3zm3.4 21.6c-2.6-4.6-6.6-6.3-7.9-10.3 7.1-1 7.1-1 7.9 10.3zm2.1-59.7c1.1-2.3 2.9-1 5.1-1-1.3 2.1-2.3 4-4.6 3.6-1-.1-.9-1.8-.5-2.6zm-3.9-59.3c5.8 1.2 5.8 1.2 4.1 7.9-2-2.4-3-5-4.1-7.9zm4.6 79.8c4.5 2.8 5.4 7.2 5.8 11.4-7-1.1-7-1.1-5.8-11.4zm4.4 72.7c-3.3-2.4-6.7-4.6-9.2-8.1 7.4-2.7 8.3-1.9 9.2 8.1zm-4.4-81.8c-.7-.8-.6-1.6.1-2.2l8-6.6v18.8c-3.5-3-5.3-6.8-8.1-10zm1.2-26.1l4.6 7.4c-7.1-.2-7.7-1.2-4.6-7.4zm-4-51c1.6-2.4 4.3-2.9 6.6-4.7-.9 7.3-.9 7.3-6.6 4.7zm11.2 30.1c-2 1.3-3.1 3.6-6 3.6.6-5.8.6-5.8 6-3.6zm-13.1-36c-.5-3.6 2.2-6.5 2.1-10.5 3 1.5 5.2 2.7 6.6 4.9.4.5-2.9 2.7-8.7 5.6zm1.3 28c.8 1.5.1 2.1-1 2.9l-7.8 5.9c.1-7 1.5-12.8 3.4-19.7 2.1 4.3 3.7 7.7 5.4 10.9zm.7 109.8c.9 1.2.7 2-.2 3.1a30.3 30.3 0 0 1-6 6.5c-1.5-6.4-2.8-12.6-3.4-19.8 3.9 3.6 6.9 6.7 9.6 10.2zm-2.5 25.5l5.3 4.1c8.3 6.5 8.3 7 .6 15.7l-5.9-19.8zm0 22.2l-.1.4-.5-.5.6.1zm9.7-20.6l.5.2-.3.1-.2-.3zm-1.5-38.5c3.8 2.1 4.2 2.6 7.6 8.1-7.1 1.4-7.1 1.4-7.6-8.1zm-1-8.9c-1.3-1.1.1-2.1.8-2.9l6.3-7.2c1.4 7.4 2.6 13.2 2.5 19.9-4.5-2.7-6.3-6.9-9.6-9.8zm7.3-58.8c-3.6-2.9-4.9-7.1-7.1-10.7-.7-1.1.6-1.8 1.3-2.4 2.2-1.7 4.6-3.3 7.9-5.6l-2.1 18.7zm-3.5-36.5c2.1 1.8 2.3 4.4 3.5 7.1-6.3-.5-5.2-3.6-3.5-7.1zm1.2-32.6c-1.8.5-2.9-1.9-4.8-3.5 2.6-.9 4.5-2.2 7.3-1.6-1.1 1.7-.3 4.5-2.5 5.1zm-5.5-21.7c2.4 0 4.1 1.5 5.9 2.6-2.3-.2-4.4-.6-5.9-2.6zm-9.9 22L210 317a2.3 2.3 0 0 1-2.2 1.8c-10.6 1.5-21.1 3-32 3.6l38-18.2zm-25 23.4c.5.9-.1 1.3-.7 1.5a3692 3692 0 0 1-34.9 15.7c-.4.2-1-.1-1.5-.1l-.3.7c-.8-.5 0-.5.2-.7-.2-3.4 1.4-6.3 2.4-9.3.6-2 1.9-2.8 4.1-3.1 10.3-1.4 20.5-3.1 30.7-4.7zm-6.1 9.9c7.1-3.3 14.3-6.3 21.4-9.6 3-1.4 3.7-.4 3.1 2.5-1.3 6.6-2.7 13.3-3.6 20-.5 3.4-2.2 4.1-5.1 3.8l-32.3-3.9-5.9-.8-.5-1.2c7.6-3.6 15.2-7.3 22.9-10.8zm16.2 26.1c2-.8 3-.1 2.8 2-.6 7.9-1.1 15.9-1.8 23.8-.2 2.7-2.4 1.8-3.9 1.6l-29-4.4-13.9-2.1-.2-1.1c15.3-6.7 30.6-13.2 46-19.8zm1.2 41.7c1.1 6.2.3 12.5 1.6 18.7.6 3.1.2 4.9-4.2 4-15.9-3.1-31.9-5.7-47.9-8.5-.9-.2-1.6-.3-1.9-1.4 16.3-3 30.7-11 46.1-16.5 5.7-2 5.2-2.2 6.3 3.7zm-1.3 32.2c3-1.1 4-.6 4.5 2.9.9 7 2.5 14 3.7 21 .2 1.2 1.7 3.8-1.8 3.1l-51.8-9.6-.1-1.1 45.5-16.3zm6.6 36.1c1.5-.5 3.7-1.7 4.3.7 2.1 8.5 6.3 16.4 6.6 25.4-15.6-2.1-31-5.5-46.4-8.5-3.2-.6-6.8 0-10.2-2.6l31.6-10.5 14.1-4.5zm16.2 37.5c2.9 7.4 6.1 14.7 9.6 23L171.5 523l-.1-1.2 29.1-8.6c5.1-1.5 10.2-2.7 15.1-4.5 3.1-1 4.8-.8 6 2.4zm10.8 31.2c1.9-.5 2.9 0 3.7 1.5 3.6 6.4 7.3 12.7 10.8 19.1 1.4 2.6-.2 2.9-2.3 2.5l-19.1-3.2L186 555v-1l46.4-11.7zm25.2 11.9c1.3.8 1.1 1.9.5 3.1l-3.9 6.7c-4.2-5.5-6.6-11.3-9.2-17.3l12.6 7.5zm-3.2-8.6l.3-.3.4.8-.3.3a3 3 0 0 1-.4-.8zm3.4-6.4c.7-.5.6 0 .7.4l-.7-.4zm-15.7-.8c7.2-4.7 8.1-4.3 11.8 6.8a40.6 40.6 0 0 1-11.8-6.8zm9.6 35.2c1-.2 1.9 0 2.7 1l15.2 21L205 585l-.3-.8 47-10.6zm12.1 5.7l.9-1 12.8 5.8c.9.4 2 1 1.3 2.3-1.2 2.2-2.1 4.8-3.8 6.5-1.2 1.1-2-1.3-2.7-2.2-3-3.8-5.7-7.6-8.5-11.4zm7.4 24.1c2.8-.6 4.9-.1 6.8 2.2 4.6 5.5 10.4 9.9 14.2 16.2-10.5-.4-20.7-2.7-31.1-4-10.4-1.3-20.8-2.9-31.2-4.4-.4-.1-.7-.5-1.9-1.4l26.9-5.4c5.3-1.1 10.9-2 16.3-3.2zm14.3 6.2l1.4-2.2c5.2.3 10.3 1.8 14.5 4.5 3.5 2.3-.5 5.5-1.5 7.7-1.2 2.7-2.5-.6-3.6-1.4-3.8-2.7-7.3-5.7-10.8-8.6zm7.4 12.5h-.3l-.2-.3.5.3zm3.6 7.8c2.3-.4 4.5-.1 6.3 1.4l15.8 13.6.9 1.1c-.6.5-1.2.4-1.5-.3l-65.1-7.3-.1-.9 28.3-5.1c5-1 10.2-1.6 15.4-2.5zm33.2 6.8c-2.7 8.9-2.8 9-9.7 2.9-2.6-2.3-6-3.9-8.1-7.9l17.7 4c.1.3.2.7.1 1zm-8.5-16.9l.2-.8 13.3 2.5c.8.2 2.5 0 2.4 1.2a11 11 0 0 1-3.4 6c-1 1-1.8.2-2.6-.4l-9.9-8.5zm.7 33.4c3.9-.7 7.2-.4 10.5 2 4.9 3.5 10.2 6.6 15.3 9.9l-.4.9-66.1-6 .1-.6c13.6-2.1 27.2-3.9 40.6-6.2zm10.9 24.4l25.2-2.9-9.2 25.3-22.6 61.2-13.6 35.7-1.2 4.1c0-2.1-.1-2.6.2-5.1 1.5-11.5 3-20.7 4.5-31.1 2.9-19.6 6-39.2 9.1-58.7 1.3-8 2.8-16 3.8-24.1.3-2.7 1.2-4.1 3.8-4.4zm22.2-18.8l.2.1v.3l-.2-.4zm-39.1 146l24.6-66.5 32.9-88.9c.1-.4.6-.6.9-.9-2.8 11.7-7.1 22.9-10.8 34.4L332.4 779c-4 12.5-8.3 24.8-12 37.4-1.8 6.2-6.9 7-12.5 9.8l8-21.4zm44.9-149.5c-3.6-6.2-3.6-6.4 3-7.7l-3 7.7zm-7.6-17.9c-.9-2.3-2.6-4.3-2.7-7.5l12.5 10.7c-6.8 3.7-6.9 3.7-9.8-3.2zm1.6 21.2c-5.7-.7-9.8-4.8-15.3-6.5 16-3.7 13.1-.8 15.3 6.5zm-11.9-16c.6.5 1.5 1 1.1 2-.4 1-1.4.8-2.2.8-2.7 0-5.4-.1-8.3 1 3.4-7.4 4.8-7.9 9.4-3.8zm.1-14.5l4.8 10.9c-8.2-3.4-8.6-4.2-4.8-10.9zm-8.4-18.8l-1.3-.3c-10.8-9.2-10.9-9.2-5.9-22.5 5.4-14.6 11-29.1 17.4-43.6l-10.2 66.4zm-1.8 5.6l-15.9-2.8c-1-.2-2.2-.8-1.8-2 .8-2.2 1.7-4.5 3-6.4.7-1.1 1.8-.1 2.6.6l12.1 10.6zm-9.9 13.2c-4.9-1.1-9.1-1.8-13.1-2.9-1.4-.3-4-.1-3.6-1.9.4-2 2.1-3.8 3.7-5.3 1.3-1.2 2.7.3 3.5 1.1 2.9 2.8 6.6 4.8 9.5 9zm-11.5-27.3c-.8 2.1-2.4 3.7-4.1 5.1-.9.7-1.7.2-2.1-.5-2.1-3.9-6.3-6.1-9.3-10.9l13.7 4.6c.9.2 2.4.2 1.8 1.7zm-4.3-8.8c-4.2-1.4-8.3-2.9-12.5-4.1-2.8-.8-3.5-2-1.8-4.6 1-1.5 1.6-3.3 2.8-5.8l12 13.6a2 2 0 0 0-.5.9zm-9.6 10.1l-.9 1.5-15.7-5.2.7-1.5c5-5.6 4.9-5.5 9.8-.2 1.8 2.1 4 3.6 6.1 5.4zm-12-23.5c-1.1 1.3-2 1.4-3.1-.3-2.1-3.2-4.4-6.2-6.6-9.3l.6-.7a201 201 0 0 1 8.2 3.4c1.5.7 3.8 1.5 4.1 2.6.4 1.9-2.1 2.8-3.2 4.3zm.1-12.6l-.6-.5c-4-.5-7.1-3.1-10.8-4.2-3.2-.9-4-2.6-1.7-5.4 1.1-1.4 1.9-3.1 3-5.1 3.8 4.7 7.2 9.2 9.9 14.2.4.3.7.6.2 1zm-12.6 9.9l-13.1-6.2c7.2-7.4 6-6.1 13.1 6.2zm-3.5-29.7c-1.2 1.5-3.1 2.5-4.9 3.5-.8.5-1.6-.1-1.9-1-1.1-3.1-4.1-5.3-4.2-8.9 3.7.3 6.2 3 9.2 4.6.8.3 2.5.9 1.8 1.8zm-3.1-9.4c-4.2-1-7.3-4.1-11.1-6-1.4-.7-1.5-1.9-.7-3 1.4-1.9 2-4.6 4.2-5.5 1.6-.7 2 1.5 2.6 2.5l5.8 11.3.2 1.2-1-.5zm-22.9-29.5l11 7.6c-7.8 4.1-8.6 3.5-11-7.6zm-1.1-7.1c-1.8-1.3-3.2-2.6-.8-4.7 1.6-1.4 2.2-4.9 4.1-4.7 2.6.2 2.3 3.7 3.3 5.8 1.5 3.3 2.6 6.8 4.3 11.5l-10.9-7.9zm-10.3-26.7l10.2 9c-8.1 2.4-8.1 2.4-10.2-9zm-1.3-7.1c-1.5-.9-.2-2.2.3-3 1.4-2.2 3.7-3.5 5-6.8 3.6 6.2 3.5 12.5 5.9 18.5-5.1-1.9-7.4-6.4-11.2-8.7zm.3-137.1c-.9-1.3-.5-2.5 1.1-3.3 2.5-1.4 4.7-3.4 7.5-4.2.3-.4.7-.8 1.1-.1l-.6.6-3.4 17c-3-3.2-3.8-6.9-5.7-10zm9.8 16.9c2.1-8.4 4.2-16.8 6-25.2.8-3.5 1.8-3.8 5-2.2 31.6 16.1 63.2 32 94.9 47.9l18.1 9-.5 1.1-39.9-7.7-78.8-15.4c-6.2-1.2-6.3-1.3-4.8-7.5zm-1.5 12.9c.4-1.5 2.2-1 3.6-.8l74.3 14.7 58 11.1c-3.1 2.4-6.2 2.8-9 3.8-16.5 5.8-33.1 11.5-49.6 17.4-2.6.9-4.7.9-7.2-.4-22.3-11.2-44.6-22.2-66.9-33.2-1.6-.8-4.3-1.1-4.4-3.1-.1-3.1.4-6.4 1.2-9.5zm68.9-18c-.6-.6-2.3 0-2-1.2.2-.7 1.8-.4 2.4.6 10.1 2.6 19.4 7.2 29.1 10.7 10.5 3.8 20.9 8 31.3 12 8 3.1 8.6 3.8 10.4 13.8l-71.2-35.9zm6.8-6l-.6 1.1c-19.2-7.4-38.3-15.3-57.8-22-7.5-2.6-11-7-12.5-15 24.2 11.7 47.6 23.6 70.9 35.9zm-73.3-44.4c2.1-.4 3.1.1 4.1 1.3-1.5.6-2.4-.1-4.1-1.3zm5.6 2.3l.6-.3.1.6-.7-.3zm1 .5l1.1.1-.2.6-.9-.7zm-40.5-41l-.5-1.3 41.7-21.3c-2.5 7-7 12.7-11.4 18.6-.3.5-1.2.6-1.9.7l-27.9 3.3zm24.2 6.8l-.2.1.2-.4v.3zm-.4.3c-.3.9-.5 1.9-.9 2.8-3.1 6.7-3.6 6.8-9.9 1.8 3.7-1.5 6.7-4.3 10.8-4.6zm-23.9-1.6l15-1.6c-7.3 5.7-8.5 5.9-15 1.6zm29.3 3.8c.8-1.4 1.1-3.8 2.7-3.9 2.1-.2 2.5 2.4 3.7 3.8 1.4 1.5 1.2 2.6-1 3.1l-5.7 1.8c-.4.1-1-.1-1.7-.1.7-1.7 1.2-3.2 2-4.7zm14.1 18.6l-14.5-7.6c12.8-4 10.5-6 14.5 7.6zm0-29.2c-.1.9 0 2.8-1 2.5-2.1-.5-4-1.6-6-2.6-1.4-.7-.6-1.8-.1-2.5l8.3-12.7.8.2-2 15.1zm-1.9-21.4l.5-.5c.1.6-.1.7-.5.5zm4.1 58.6l.6.2c-.6.6-.5.1-.6-.2zm3.7-11.3c-.7-2.5-3.8-4.7-1.6-7.3.9-1.1 4.2-.5 4.6.6.9 2.6-1.3 4.6-3 6.7zm3-24.4l4.3-6.7 1.1.2-2.2 15.9c-7.3-3.4-7.3-3.4-3.2-9.4zm-.7-8.4l-1-.2 1.4-13.9c.1-1 .7-2.9 2.2-1.4 1.6 1.6 6 1.7 3.6 5.7-1.9 3.4-4.1 6.6-6.2 9.8zm7.2-28.4c2.2-2.5 4-5.4 7.8-8.1l-4.3 17.4-1.8-.5c-6.6-3.4-6.5-3.4-1.7-8.8zm3.2-11.8l.5-.6c.3.7 0 .8-.5.6zm2.1 36.4c.1-1 .1-2.4 1.2-2.5 2.4-.4 3.8 1.9 5.8 2.7 1.1.5.3 1.5-.1 2.2l-7.2 11.3-1.1-.6 1.4-13.1zm5.7-8.5c-2-1.5-2.5-3.1-.2-4.8 2.9-2.2 4-6.3 7.7-7.5-.8 5-1.7 10-3.5 15.1l-4-2.8zm8.3-45.5c.4-.7 1.1-1 1.6-.5.6.7-.5.9-.8 1.3a29.9 29.9 0 0 1-20.5 9.6c7-4 13.1-7.8 19.7-10.4zm-16.3 17.7c-5.6 9.8-13 17.2-25 18.1-4.3.3-8.3 2.8-12.7 2.3a415.1 415.1 0 0 1 37.7-20.4zm-20.9 5.5c-6.2 3.8-12.3 7.7-19.2 9.9a26.7 26.7 0 0 1 19.2-9.9zm-17.1 15.1l-.3.4v-.3l.3-.1zm7 4.7l-36.3 18.9c7.3-17.2 22.7-16.3 36.3-18.9zM83.2 201.8l39.9 19.5c33.5 16.9 66.9 33.8 100.3 50.9 8.7 4.5 18 8 26 13.8 1.5.3 3.1.6 3.8 2.2-1.7.2-3.1-.5-4.4-1.6a44230 44230 0 0 1-67.3-30.3l-61.8-27.9-31-14.3c-4.9-2.3-4.7-7.4-6.2-11.6l-.3-1.1 1 .4zM73 209.5l2.7-7.1 3.5 8c.8 1.8.9 3.6-1.6 3.7-2.4.2-4.7 3.5-6.4 1.7-1.6-1.6 1-4.2 1.8-6.3zm-5.2-6.5l1.2.8-5.5 14c-.3.7-1.1 1.5-1.8 1.6l-25.4 5.7-.5-1.2 32-20.9zm-49.2 33.3c.2-.5.9-1.1 1.5-1.3 8.3-2 16.7-4.2 25.2-5.4l.6 1.2-32.6 20.4c.5-5.4 3.4-10 5.3-14.9zm32.9-3.3c9.2-6.9 16.6-7.1 26.9-1.7 38.5 20.3 77.6 39.4 116.5 59 .9.4 1.7 1 2.2 2.4L14.3 256.9c13-8.2 25.7-15.3 37.2-23.9zm-23.2 32.6l.3-.6.9.7-1.2-.1zm39.8 19.7l-32.6-15.8c-2-1-4.3-1.7-5.7-3.7 9.8.6 19.2 3.3 28.8 5.1 33.5 6.4 66.9 13 100.3 19.5l46.9 9.2c1 .2 1.9.6 3.8 1.3l-28.1 13.6-24 11.4c-2.5 1.2-4.5 1.5-7.1.2-27.4-13.7-54.9-27.3-82.3-40.8zm80.4 70.6c.3-1.6 1.3-1.9 2.6-1.7l40.8 5.3.1.9-48.2 20.7c1.7-8.9 3.3-17.1 4.7-25.2zm-7.3 58.2c.6-6.6 1-13.2 1.2-19.8.1-4 .7-5.6 5.7-4.7 13.9 2.6 28 4.4 42.1 6.4l-.1 1c-12.3 4.8-24.6 9.6-36.9 14.6-2.5 1-5.6 1-6.7 4.7-.5 1.9-3 1.1-4.5.7-1.6-.3-.9-1.6-.8-2.9zm1.3 33.8c0-7.8-1.6-15.5-.8-23.8l51.9 9.2-48.8 17.6c-3.5 1.1-2.3-1.8-2.3-3zm5.1 34.3c-.8-6.2-1.5-12.5-3.2-18.5-1.3-4.7.8-4.6 3.9-4l32.4 6.2 15.9 3.1.2 1.3-21 6.9-23.7 7.6c-2.9 1-4.1.6-4.5-2.6zm9.4 34.6l-6.1-20.5c-.6-2 0-3 2.2-2.5l52.2 10.4c.5.1.9.5 1.8 1.1l-45.9 13.5c-2.2.7-3.5.4-4.2-2zm17.2 34c-1.8.5-3.3.4-4.2-1.6l-9.3-22.2 58.8 11-.1 1.3a7482 7482 0 0 1-45.2 11.5zm12.2 28.6L174.9 559l62.1 11v.9l-46.6 10.3c-2.2.6-3.1-.2-4-1.8zm20.7 29.2l-14.3-19.4 63.3 10.2v.8l-45.3 8.9c-1.2.3-2.6 1-3.7-.5zm21.5 24.1l-10.4-11.2c-.9-.9-2.6-1.7-1.7-3.3.8-1.3 2.5-.7 3.8-.5l36.6 5.4 22.1 3.1c-10.2 3.6-19.6 3.7-28.6 5.7-5.1 1.1-10.4 1.5-15.5 2.7-2.7.6-4.5 0-6.3-1.9zm10.7 9.4c.5-.6.5-.2.6.1l-.6-.1zm17.6 15c-5.4-5.1-12.2-8.7-16.8-14.7l44.1 5c6.8.8 13.6 1.5 20.5 2.9l-45.9 7c-.6.1-1.5.2-1.9-.2zm11.3 7.6c-.2 0-.3-.4-.5-.6l1.4-.2.5.8h-1.4zm10.8 6.8c-2.7-2-6.3-3.1-9.3-7.1 20.5.8 39.7 3.3 59 4.7l.1 1.3c-4.9.8-9.7 1.7-14.6 2.3-6.9.9-14 .8-20.6 2.5-6 1.6-10.4-.5-14.6-3.7zm-21.2 100.2c10.4-27.7 20.9-55.4 31.1-83.1 1.6-4.3 3.6-6.5 8.5-6.7 6.7-.3 13.5-1.4 20.1-2.5 4.7-.8 6.3.3 5.4 5.4-2.4 13.7-4.5 27.4-6.7 41.2l-10.9 70.9c-1.5 9.9-3.3 19.7-4.7 29.6-.3 2.4-1.5 2.7-3.5 2.7-20 .1-39.9-1.8-60.6-.6 7.6-19.9 14.4-38.4 21.3-56.9zm-7.2 65.4c10.8 1.2 21.7 1.3 32.3 3.9-10.8-.5-22 2.3-32.3-3.9zm32.1-1.6c8.5.4 17.2-2.4 25.4 2.1-8.7 1.4-17-1.1-25.4-2.1zm33.9-1l-6.5-2.7c10-5.8 10.2-5.7 12.9 5.2-2.6 0-4.4-1.5-6.4-2.5zm39.2-74l-19.9 55.2-7 18.7c-3.4-6.1-5.3-10.9-1.8-17.7a804.9 804.9 0 0 0 28-58.6c.9-2.1 1.5-3 2.4-4.6-.7 3.3-1.1 5.3-1.7 7zm25.2-69.4c-9.2 17.7-17.2 35.9-25.7 53.9l-2.8 5.6c-1.3 3-2.8 5.8-4.1 8.9l2.8-9.7c3.2-11.8 8.6-22.9 12.7-34.4 5.2-14.6 10.6-29 16-43.6 4.1 6.3 4.9 12 1.1 19.3zm-6.5-42.8c-.2-3.1 1.7-5.5 2.6-8.3-.7 2.9-.9 5.9-2.6 8.3zm3 11.6c.1 3.4-2.1 6.1-2.7 9.3.3-3.2 1.1-6.4 2.7-9.3zm.1-.3l1.3-5.8c.2 2.1-.1 4.1-1.3 5.8zm.6-39.5c-1.6 4.3-3.4 8.5-4.8 12.9-.9 2.7-2.2 2.7-4.1 1.4l-26.9-17.6c-2.5-1.6-2.8-3.3-2.3-6.4 3.8-23.4 7.2-46.9 10.8-70.3 1.1-7.4 2.7-14.6 3.6-22 .4-3.1 1.9-3.9 4.4-4.5l64.6-16.1-26.2 71-19.1 51.6zM437 518.2c1.4-5.6 6.5-5 11-7.9l-28.1 76.6-.7-.2 5.6-22.2c4.1-15.4 8.3-30.8 12.2-46.3zm-2.7-18.3c4 .9 7.4 2.7 10.8 5-7.8 5.2-8.6 4.8-10.8-5zm-3.5 18c-8 20.6-15.4 41.4-23 62.1-.3.7-.8 1.3-1.2 2l-.4-.1 22.2-78.9c2.3 5 4.7 9.1 2.4 14.9zm-24.9 66.5l-.1.4-.2.1-.1-.4.4-.1zm-18.2 69.1c0-5.3 2.7-9.7 4.4-14.4a5066 5066 0 0 1 20.2-54.5l1.1-1.6c.1 5.6-2.1 10.1-3.3 14.8-3.7 14.8-7.8 29.6-11.3 44.4-1.5 6.4-4.5 10.4-11.1 11.3-.1.2-.3.3-.6.4l.6-.4zm21.1 22c5.4 1.6 10.2 2.1 13.9 4.3 3 1.8.9 5.6-.4 8.8-4.6-4-9.5-7.2-13.5-13.1zm4.4 11.4l-.4.8-14.9-4.5c-1.5-.4-2.3-1.5-2-3.1.5-2.1.7-4.7 2.6-5.9 1.2-.7 2.3 1.1 3.3 2l11.4 10.7zm9.2-17c-3.5-3.1-7.2-6.2-9.9-10.1 4.6.1 8.7 2.3 13.1 3.3 1.3.3 2.6.9 2.1 2.8s-.4 4.4-1.6 5.7c-1.2 1.4-2.8-.8-3.7-1.7zm-6.6 1.4c-4.3-1.3-8.6-2.8-12.9-4-2.4-.7-2.7-1.6-1.9-4 1.8-5.4 1.5-5.3 6.1-1.8 3.2 2.8 6.1 5.8 8.7 9.8zm-20.5-13.9c-1.2 2.8-.1 5.5-2.9 6.3-.9.2-3-1-3-1.4.3-3.1 3.3-2.9 5.9-4.9zm-7.2 10.9c.8-.8 2.5.4 3 1.2 1.3 2.2-.9 3.4-2.3 4.8-.5-2.1-2.7-4.1-.7-6zm17.7 24.2c-4.9 0-9.8.1-14.7-.1-1.2 0-3.6 1.2-3.3-1.6.3-2 1.5-4 4.1-3.3l13.9 4.1v.9zm.5 7.3a92.6 92.6 0 0 1 25.2-.9c-8.3.6-16.7.3-25.2.9zm39.1-5.1l-14.5-2.2c-1.9-.3-2.2-1.2-1.6-2.8l2-6.7 14.5 10.8-.4.9zm-12.5-21c.4-1.9.6-4 1.6-5.7.4-.7 2 .5 3 1.3l9.8 7.8-.5 1.1-11.9-2c-1.5-.2-2.3-1.1-2-2.5zm22.3 20.7c-4.5-3-8.8-5.9-12.6-9.4-.7-.3-2-.6-1.6-1.2.5-.9 1.6-.6 2.3.3 1.4 0 2.7 0 4.1.2 8.5.7 8.5.7 7.8 10.1zm3.1-21.7c-1.3 5.7-1.3 5.8-6.1 2.2-2.8-2.1-5.5-4.4-8.3-6.7-.2-.2-.2-.6-.3-1.4 4.1.7 8 1.6 11.9 2 2.8.2 3.4 1.2 2.8 3.9zm-17.6-12.3c-12.1-1.4-23.6-5.9-35.2-9.5-2.4-.8-2.5-1.4-1.7-3.5 5.5-14.8 10.8-29.7 16.2-44.5l28.9-78.3c1.6-4.5 3.4-8.9 5.1-13.3 2.1-5.3 1.1-8-4.1-10.6-6.6-3.2-13.2-6.2-19.7-9.5-1.9-1-3.5-.7-5.4-.3L356.9 508a12.6 12.6 0 0 0-8.9 8.6l-27.5 73.9-2.3 5.3c-59.1-62.5-84.9-136.1-81-221.7l34.4 17.1 38.5 19c1.9 1 3.6 1.4 5.8.6a12750 12750 0 0 1 65.9-23c4.5-1.6 7.5-4.3 9.1-8.8a505 505 0 0 1 6.4-17.2c1.9-5 1-7.2-4.2-9.9-26.2-12.9-52-25.9-77.8-38.9l-52-26.3c-2.4-1.2-3.2-2.1-1.8-4.9 10.5-20.7 23-40 38.8-57.3 5.7-6.2 12-11.6 18.2-17.1 5.8-5.2 13.6-5.8 20.8-7.1 15.1-2.6 30.3-3.9 45.7-3.2a221 221 0 0 1 56.3 10.4c5.7 1.8 11.1 4.1 16.6 6.3 2.6 1 3 1.9 2 4.4-5.6 14.6-11 29.2-16.4 43.8l-30.4 81c-1.7 4.4.9 6.4 3.8 8 6.2 3.5 12.7 6.6 18.9 10.1 1.8 1 3.3.3 4.8-.2 24.3-8.5 48.7-17 73-25.7 3.6-1.3 6.1-4.5 7.4-7.8 6.2-16 11.9-32.1 17.9-48.2.6-1.5.4-3.9 2.3-4.1 1.7-.2 2.5 1.9 3.6 3.2a278 278 0 0 1 33.7 52.1 276.7 276.7 0 0 1 24.6 79.3c1.2 7.9 1.4 15.8 2.3 23.7 1 8.5-.2 16.9-.1 26.5-11.9-6.1-23.4-11.3-34.1-17.8a31 31 0 0 0-27.8-2.7c-20.7 6.5-41.9 11.3-62.8 17.1-4.2 1.2-7.4 4-8.8 8.5-1.5 4.7-3.4 9.2-5.1 13.9-2.1 5.9-1 8.5 4.8 11.4l96.5 47.9c4.9 2.4 9.8 4.7 14.8 6.8 2.6 1.1 2.9 2.5 1.7 5.1a214.8 214.8 0 0 1-48.2 69 198.2 198.2 0 0 1-59.2 38.3c-3.4 1.4-6.8 3-10.3 4.3-8.8 3.6-17.4-.3-26.1-1.3zm61.5 8c5.2-.6 9-1.2 12.7-1.5 1.2-.1 3.1-.6 3.2 1.4.1 2.3.2 4.9-.7 6.9-.6 1.4-2.3-.4-3.4-1-3.6-1.6-7-3.4-11.8-5.8zm6.4 9.3l-.2 1-11.4 1.1c-.1-.4-.4-.9-.4-1.4-.3-7-.2-7 6.3-3.7l5.7 3zm-22.9-18.8c8.5-6.8 17.4-3.4 25.7-3.7a109 109 0 0 1-25.7 3.7zM479 680h-13.9l.8-8 13.1 8zm-2.3 16.8h-11.6c-2.3.1-2.8-.9-2.6-3.1.4-5.6 1.3-6.2 6.2-3.4l8.4 5.1-.4 1.4zm10.6-7.2v5.6l-13.7-8 .2-.9h10.4c2.6-.1 3.3 1.1 3.1 3.3zm.2-11.7c-.6 1.4-2.1-.1-3-.6l-10.3-6.4.2-1.1h12c1 0 2.4-.1 2.4 1.3-.1 2.3-.4 4.7-1.3 6.8zm10.2 18.9c-1 .1-2.6.2-2.6-.9 0-2.3.5-4.6 1-6.9.2-1 1.3-1 2.1-.6 4 2.3 8.7 3.2 13.1 6.7l-13.6 1.7zm20.2-6.7c-1.5 1.7-3.1-.2-4.5-.7-2.9-1.1-5.7-2.6-9.1-4.3 4.3-.5 7.7-.8 11.1-1.3 1.5-.2 2.4-.1 2.4 1.5 0 1.5 1.2 3.4.1 4.8zm-12.4-41.5c8-9.8 18.4-8.7 28.7-7.5 5.5.7 11.2-.3 16.6 1.9l-45.3 5.6zm33.2 23.1c-3.7 1.8-7.1 3.4-10.2 2.9-2.7-.5-1.2-4.3-3.2-7.3l13.4 4.4zm-8.3 19.9c-1.1.3-2.6 2-3.4-.2-.9-2.4.2-4.8.7-7 .4-1.7 2-.6 3-.3l12.7 4.1-13 3.4zm6.2-11.9c9.4-4.8 10.3-4.6 11.9 3.9-4.3-1.2-8.2-2.1-11.9-3.9zm19.3-16.5c-.2-1.3-1.7-2.5-.4-3.7 1.1-1.1 2.2.2 3.3.5 2.4.5 4.8 1.3 7.7 2.2l-6.3 3.1c-2.5 1.1-4 .7-4.3-2.1zm1.4 20.2c-.1-1.5-.3-2.9-.2-4.2.4-3.2.9-6.1 5.5-4.2 2.8 1.2 6.2.8 9.4 2.8-5.1 2-9.4 4.5-14.7 5.6zm8.5-13.8c7.2-6.1 9.3-5.7 11.4 2.4l-11.4-2.4zm16.3-22.6h5.5c1.7.1 3.3.6 5.6 1-8.4 5.9-8.4 5.9-11.1-1zm4.2 23.8c-1.2-9.9-1.2-9.9 7.8-9l6.8.4c-5 3.7-9.6 6.2-14.6 8.6zm16.5-14.2l-9.5-1.3c6.5-6.8 7.7-6.7 10.4 1-.2.2-.5.4-.9.3zm-13.5-34c-9.4-.8-18.8-2.2-29.1-3.5l54.9-7.9.4.9c-3 2.7-6.4 5-9.1 8-5.2 5.8-11.4 3-17.1 2.5zm17.9 7.9h10.4c-2 2.5-4.2 5.1-7.1 5.7-1.5.2-2.4-3.2-3.3-5.7zm5.8 24.3c-.9-12.7-2.5-10.8 13.4-10.4L613 654.8zm15.4-17.5c-.7 1.5-2.7.6-4.2.7h-6.8c1.8-2.3 3.5-3.8 5.4-5.2 1.3-.9 2.3-1.3 3.4.2 1 1.4 3 2.6 2.2 4.3zm1.5-26c2.8-1.6 5.7-2 8.9-1.4-3.6 7.7-4.2 7.8-8.9 1.4zm7.7 22l-.7-8c-.1-1.2 0-2.6 1.7-2.5 3.7.1 7.2-1.8 11-.7l-12 11.2zm11.3-17.6c-2.5 0-5-.1-8.5 1.3 2-2.6 2.9-4 4-5.2.8-.9 1.7-2.5 3.2-1.2 1.3 1.1 2.7 2.2 3.3 3.7.5 1.1-1 1.4-2 1.4zm.9-28.4c3.1-.3 5.6-1.6 8.4-1.2-2.5 6.9-3.2 7.1-8.4 1.2zm10.2 22.8c-2.1-11.6-2.1-11.6 10.4-13.9-3 5.2-6.7 9.4-10.4 13.9zm1.6-18.3c1.4-2.8 2.3-5.5 4.7-6 1.9-.4 3.5 1.6 4.7 3.9l-9.4 2.1zm6.3-30.5c2-1.7 4.4-1.5 7.4-2.9-1.7 5.5-3.6 7.5-7.4 2.9zm.1-7.4c.5-1.4.9-2.6 1.5-3.8l5-9.7c4.9 12.5 5.2 11.3-6.5 13.5zm11.5 29.1c-3.1-12.9-5-12.7 6.8-14.7l.5-.6c.5.4.2.7-.2.9-1.4 5.2-5 9.1-7.1 14.4zm113 28.4c-15.4 2-31 3.1-46.3 6-7.8 1.5-13.7-3.3-20-6.2-13.6-6.3-26.8-13.5-40.3-19.9-3.7-1.8-3.8-3.5-1.9-6.5.8-1.3 1.9-2.5 2.3-3.9.9-2.9 2.8-2.7 5.1-2.2l64.4 14.8 51 11.7c2.5.6 4.7 1.8 8.6 3.1l-22.9 3.1zm-27.3-40.5c3.1-1.1 5.1.5 7 1.3l44.7 17c7.6 2.9 7.5 2.9 10.9 13.1l-62.6-31.4zm55.8 13c-31.6-18.3-63.7-36-95.5-54-5.6-3.1-11.5-5.6-16.5-9.7 3.3-.8 5.9 1.2 8.5 2.5 28.8 14.4 57.5 28.9 86.2 43.5l31.5 16.3c-4.9 3.1-8.5 4.7-14.2 1.4zm12.6 15.2c-4-7.8-4-7.8 3.3-10.3l-3.3 10.3z" fill="#012bf7"/></svg>