<svg xmlns="http://www.w3.org/2000/svg" viewBox="0 0 850.4 850.4"><path d="M526.9 64.8c.3.9 1.1.8 1.9.9l37.5 1.7c13.4.7 26.4 4 39.6 5.6 21.5 2.6 42.1 9.1 62.7 15.4a384.5 384.5 0 0 1 62.3 25.9 324.6 324.6 0 0 1 45.4 27.2c8.2 6.1 15.8 13.1 23.5 19.8 13.4 11.6 26.6 23.5 40.2 34.9 2.2 1.8 1.4 5.5 4.7 6.2-.5.8-.9 1.6-1.5 2.3l-35.6 49c-8.2 11.3-16.8 22.4-24.7 33.9-1.9 2.7-5.5 2.8-6.6 6.1-.3.7-1.8-.4-2.6-.9a452.3 452.3 0 0 0-134.6-52.3c-18.1-3.4-36.2-7.3-54.8-8.5a598 598 0 0 0-44.4-1c7.9 2.1 16.1 3 24 5.1a281.8 281.8 0 0 1 59.6 22.4 350.3 350.3 0 0 1 33.9 21.3c12.7 8.9 25.7 17.4 38.4 26.3 15.2 10.7 31.2 20.2 44.2 33.7 3.6 3.7 3.9 5.2.9 9.4-19.9 27.3-39.8 54.5-59.4 81.9-1.8 2.6-5.1 2.9-6.6 5.7-.5.9-2.4-.7-3.5-1.4-10.1-5.9-20-12.3-30.4-17.6a251.6 251.6 0 0 0-110.7-27.3c-11.6-.3-23.1.7-34.7.9-7 .1-14 2.3-21 3.6l-5.6.9c2.4 3 5.9 1.9 8.7 2.4 11.2 2 22.2 4.7 33.1 8.3 11.1 3.7 21.9 8.2 32.2 13.8 13.8 7.5 27.7 14.7 41.5 22.3 15.5 8.5 31.2 16.5 46.2 25.9 3.9 2.4 7.6 5.1 11.2 7.8 3.3 2.5 3.7 6.3 1.4 9.6l-46.1 63.9c-3.2 4.4-6.7 8.8-9.3 13.5-1.7 3.1-5.9 3.3-6.9 6.8l-2.5-1c-13.3-6-26.8-11.8-40-18-7.2-3.4-14.8-4.1-22.4-5.4-10.8-1.9-21.7-.9-32.4.2-14 1.4-27.8 4.9-40.7 10.8l-12.7 6c8 .8 14.3 3.2 20.7 4.6 10.2 2.2 19.5 6.8 29 10.7 20.9 8.6 41.9 17.2 62.7 26 17 7.2 32.9 16.4 47.9 27.3 8.4 6.2 16.4 12.7 24.1 19.7 7.1 6.4 13.6 13.4 20.5 19.9 1.5 1.5.5 2.3-.1 3.5-5.5 10.6-12 20.5-18.7 30.3a351.2 351.2 0 0 1-32.1 40.8c-18.6 20-38.4 38.4-63.3 50.7-12.1 6-24.9 9.4-38.3 11.2-16.7 2.2-32.6-1.6-48.5-5.8-20.7-5.4-41.3-11.1-62-16.6a202 202 0 0 1-47.7-18 236.5 236.5 0 0 1-29.8-20.2 316.4 316.4 0 0 1-26-23c-6-6-11.8-12.3-17.7-18.4-1.7-1.7-2-3.3-.7-5.6a437.3 437.3 0 0 1 34.9-53.4c9.9-13 20.6-25.3 32.7-36.3 3.4-3.1 6.3-6.7 10.4-10-6.5-2.5-12.6-5-18.8-7.3-7.3-2.7-14.8-4.8-21.8-8-4-1.8-7.3-5.3-10.8-8.2l-50-41.9a68.2 68.2 0 0 1-12.3-12.3c-1-1.3 0-2.1.7-3l7.2-9.1c-12.8-5.1-25.2-10.4-37.8-15.1-6.5-2.4-11.2-7.1-16.3-11.3L113 438.7c-3.5-2.9-3.9-6.3-1.5-10l1.1-1.5c2.3-3 1.8-4.6-2-6.1-11.3-4.4-22.5-9.2-33.7-14-7-3-12-8.8-17.8-13.5-11.1-9-21.9-18.5-32.8-27.7-5.6-4.7-11.2-9.5-17-13.9-1.7-1.3-.7-4.5-3.6-4.5v-1.8c.6-.5 1.3-.9 1.6-1.5 6.8-11.9 15.6-22.5 23.7-33.4 6.5-8.8 14.1-16.7 21-25.2 13-15.8 28-29.6 42.2-44.3 8-8.3 17.3-15.4 25.9-23.1a512.9 512.9 0 0 1 54.4-42.1 627.8 627.8 0 0 1 72.7-43.7 663.4 663.4 0 0 1 136-50.5c20.2-5.1 40.8-9.3 61.6-11.7 19.8-2.3 39.6-4.9 59.6-4.6.9 0 1.9.2 2.4-.9l20.1.1zm-9.7 438.1l-1 .8c-2.8 4-7.8 6.5-8.4 12.1 3.2-3.7 6.9-6.9 9-11.5l.9-1 .9-.9c.5-.1.8-.3.8-.9l-.2-.4-.8 1-1.2.8zM205.5 341.2l.8-1c6.3-4.5 6.3-4.5 3.3-8.2-.9 2.9-3.7 4.9-3.2 8.2-.8 0-1.1.3-.9 1zm-53.1 113.6l1 1c.6 2.9 3.3 4.3 5.1 6.4 5.5 6.4 10.7 13.1 17.5 19.5-.9-4 1.3-7.9-1.5-10.1-6.9-5.5-13.2-11.7-20.7-16.3l-.9-.9-1-.9-1-.7-.4.4 1.2.4c-.2.7.3.9.7 1.2zm574.3-262.9l-.6.3.2.4.4-.7c.7.1 1-.2 1.1-.7l3.8-5c6.6-9.4 14-18.4 20-28.2l.6-.5h-1.1c-6.7.5-10.8 4.2-13.4 10.2-3.3 7.8-7.2 15.3-10.8 23l-.2 1.2zM621.8 308.8c0-.6-.3-.9-.9-.9-1.1-1.5-2.5-2.1-4.9-1.4l4.6 1.6c0 .6.4.9.9 1l1.6 1.2c.9 1.4 2.2 1.6 4 1.2-1.2-1.2-2.2-1.9-3.5-1.9-.3-.8-1.1-.7-1.8-.8zM320.5 127.3c1 .6 1.6 0 2-.8 7.9-1.6 15.1-5 23.5-7.8-3.2-1.2-3.9-6-7.1-4.1-5.7 3.5-11.7 6.9-16.5 11.8-.8 0-1.7-.2-1.8 1l-.5.5h.4a.6.6 0 0 1 0-.6zm199 235.9l.7.7.4-.5-1-.4c-.4-.7-1-1-1.8-1l-1.5-1.2c-7.1-3.6-13.2-9.5-21.9-9.1 7.2 3 13.8 7.4 21.3 9.8.4.8 1.2.8 1.9.8.3 1.1 1.1.9 1.9.9zm97.4-26.9l-1.1 1.7c-2.7 3.6-5.4 7.3-8.2 10.8-3.1 3.8-5.6 7.7-2.5 13.2 3.6-8.2 8.3-15.5 11.3-23.6.9-.3.9-1.1.9-1.9l.7-.5-.3-.3-.8.6zM408 460.9c.2-.9-.5-.8-1-.8l-.4.2 1.4.6c.3 1.1 1.6.9 2.3 1.5 7.8 3.7 15.9 6.9 23.4 11.2 4.9 2.8 8.5 1.3 13.3-1.3-12.8-2.8-24-8.1-36-10.6-.8-1-1.9-1.2-3-.8zm3.7-6.5c-.2.9.5.8 1 .8l.4-.2-1.4-.6c-.3-1.2-1.6-.9-2.3-1.5-9-4.4-18.1-8.6-27-13.3-5.1-2.7-9.1-.3-14.7 1.4l41 12.7c.9.9 1.9 1 3 .7zm129.9-176.8c-.3-.9-1.1-.9-1.8-.9-5.9-5.5-13.2-8.9-19.8-13.3a8.5 8.5 0 0 0-8.1 0c3.3 1.7 6 3.4 9 4.6 6.4 2.7 12.1 7.1 19 8.6.1 1.1.7 1.5 1.7 1-.5 2.1 1.5 1.6 2.4 2.1l1.8 1 .1-.8-1.6-.6-2.7-1.7zm66.3-141l.2.7.5-.3-.7-.4c-.2-1.8-1.8-1.9-2.9-2.5-9.2-7.2-18.2-14.5-27.6-21.5-6.4-4.7-11.4-11.8-20.7-11.7-7.4 0-14.8-.7-22.2-1.2 9.4 5.6 19.1 9.9 28.4 14.9 13.5 7.2 27.3 13.7 41.1 20.4 1.1 1 2.2 2 3.9 1.6zm123.5 23l-.1.7.6-.1-.6-.5c-.9-1.3-1.6-3.1-4.3-2.3 1.7 1 2.6 2.5 4.4 2.2zm-521.9 99.2c-.6.2-1.2.3-1.7.6-.7.5-1.5 1.1-.8 2.2.2.4.5.9.9.9 1.3.2 1.2-1.1 1.6-1.7.3-.5.3-1.1.5-1.7.5-.1 1-.5.6-.9-.6-.7-.8.2-1.1.6zm215.1 389.1c-.2-1-1-.7-1.7-.7l-.4.4 2.1.3c2.4 1.2 4.5 3.2 7.6 2.2a12.8 12.8 0 0 0-7.6-2.2zm247.8-412.7c-.3-1.2-1-1.9-2.4-1.5.4 1.2 1.3 1.5 2.4 1.5 1.2 2.4 3.5 3.3 5.7 4.3a56.6 56.6 0 0 0 27.8 15L679 238.7c-2.1-1.3-3.7-3.8-6.6-3.5zm-362 219.2c-3.2.8-5.7 1.9-3 5.9 1-2 2.6-3.6 3-5.9.1-.2.3-.2.4-.3-.1 0-.2-.1-.2 0l-.2.3zm175-29.5c2.1-.1 3.6-1.3 5.8-2.6-3.5-1.2-6.3-2.3-5.8 2.6l-.5.2.2.1.3-.3zM99.5 357.7c-2.6 1.8-5.1 3.7-2.5 8 1.3-3 2.6-5.3 2.5-8l.6-.1-.1-.4-.5.5zm189.7 111.4c-5.8 3-5.8 3-2.4 6.5 1.6-1.7 1.8-4.1 2.8-6.1l.3-.9c-.6-.3-.6.2-.7.5zm276.9 154.5l.9.3c.4.2.6 0 .4-.4-.1-.2-.5-.3-.7-.3-.2 0-.3.2.7.8 3 2 6.3 3.4 10.6 4.5-3-4.3-7-4-11.9-4.9zm-90.8 140.3c.6 1.4 1.4.9 2.7.2l-2.7-.2c-4.1-1.6-7.9-4-12.5-2.5 2.9 1.1 5.9 1.9 8.9 2.5 1.1.3 2.4.1 3.6 0zM185.6 358.1c4.9-4.1 4.9-4.1 1.9-6.7-.8 2.1-2.6 3.8-2.4 6.2-.4.1-.8.4-.5.9l1-.4zm116.6 16.2c-2.6-.5-4 1.7-5.8 2.7-1.7.9-.9 2.6-.2 3.5 1.3 1.5 2.2-.1 2.7-1 1-1.8 2.7-3.1 3.3-5.2l.4-.5-.4-.1v.6zm-129 12l4.7-4.3c1.5-1.5.2-2.7-.7-3.5-1.6-1.4-2 .5-2.3 1.5-.5 2.1-2.2 3.7-2 6-.6.3-.6.8-.5 1.4l.2.3.6-1.4zM24.8 328.2c-1.5 1.8-2.9 3.7-4.5 5.4-.9 1-1.1 1.6.3 2.3 1.2.6 2 .4 2.4-.9.6-2.2 2.1-4.3 1.8-6.8l.6-.1-.3-.5-.3.6zM537 661.7l6.9-3c-4.4-3.7-6-1.1-7.2 2.5-.5.2-1.2.5-.8 1 .4.5.9.1 1.1-.5zM646.6 108c2.8 0 5.3-.5 7.8-2.3-7.2-2.3-7.2-2.3-7.7 2.4h-.6v.4l.5-.5zM60.7 290.4c5.1-1.8 6.8-5.6 3.8-8.6-1.4 2.8-3.1 5.5-3.7 8.7-.8.3-.9 1-.7 1.7h.6c0-.6.9-1.2 0-1.8zm526-7.2c.7.9 1.3 1.8 3 .7l-2.6-1.2a28.7 28.7 0 0 0-13.8-7c5 3.3 9.1 5.6 13.4 7.5zM407.1 660.8c-.4-1.5-1.3-.7-3-.2l3 .2c3.9 2.5 8.4 3.1 12.6 4.6.7.3 1.7.1 2-.7.3-1-.5-1.3-1.3-1.4-4.5-.5-8.7-2.5-13.3-2.5zM549 430.5l-.6-.5v.4l.6.1c-.6 3.3 1.9 5.4 3.2 8.3l2.9-5.2c-2.4-.7-3.7-2.8-6.1-3.1zm-343.8-82.2c-6.8 4.3-6.8 4.3-3.4 8.1l3.6-7.9c.4-.1 1-.3.6-.7-.4-.4-.7.1-.8.5zm179.7 166.9H375c1.9 1.4 4.1 1.9 6 2.9 3.7 1.8 4.1-.1 3.9-2.9l9.5-.1c-4.4-2.4-4.8-2.4-9.5.1zM350 698.5c.2 1.1.9.8 1.6.7.2 0 .3-.3.5-.4l-2.1-.3c-4-2.6-8.8-2.9-13.1-4.5-.8-.3-1.5-.3-1.7.8-.1 1.1.8 1.2 1.5 1.3 4.4 1 8.7 2.5 13.3 2.4zM185.2 366.1c-2.1.2-2.8 2.1-4.2 3.2-2.8 2.2-1.7 3.7.8 5.4l3.4-8.6.1-.4-.1.4zm164.6-27.9c-3.1.5-6 1.5-8.6 3.4 7.2 3 7.2 3 8.9-3.2l.6-.5-.3-.3-.6.6zm-90.7-20.7c1.8-.6 3.1-2 4.8-2.6 3.8-1.5 3.6-3.5 1.3-6.5l-6.5 8.7-.5.8.9-.4zm24.6 140.6c-6.7 2.1-7.7 4.3-3.5 8.2 1-2.8 3.1-5.1 3.5-8.2l.7-.3-.4-.4a1 1 0 0 0-.3.7zm-54.5-128.2c-1.4.8-2.8 1.8-4.2 2.5-3.4 1.8-3.4 3.8-.6 6.3 1.2-3.3 4.2-5.3 5-8.6l.8-.6-.3-.3-.7.7zM82.8 367.7c-6.6 1.5-7.4 2.6-5.7 7.8 2-2.6 4.9-4.4 5.7-7.8h.2-.2zm3.9 5.8c2.7-.6 5-2 7.4-3.3-1.2-3.7-2.9-4.2-5.3-.9-.9 1.2-2.3 2.1-2.6 3.7-.3.3-1.1.6-.3 1.1.1.1.5-.4.8-.6zm142.7-50.8c1.8-1.3 3.5-2.9 5.5-3.9 3.9-1.8 2.2-3.6.4-5.9-2 3.5-5 6.1-5.9 9.8l-.3.2.3-.2zM503 707.8l9.2-2.2c-1.9-1.6-2.9-5-5.1-3.5-1.6 1-4.1 2.9-4.1 5.7l-.7.3.5.4.2-.7zM177.2 357.3l-4.9 3.9c-.7.6-1.9 1.3-.7 2.5.7.8 1.4 1.8 2.3 2 1.3.3 1.5-1.2 1.8-2.1.8-1.9 1.4-3.9 2.1-5.9.7-.2 1-.8.5-1.2-.5-.4-.7.5-1.1.8zm59.1-24.9c1.1-.8 2.2-1.7 3.4-2.2 3.9-1.7 3.5-3.8.5-6.8l-4.6 8.5-1.4 1.5c1.2.5 1.6-.5 2.1-1zm205.4-165c-1.6.7-3.3.8-5 .5-4.1-.6-5.8.8-4.5 5.2 3.4-1.5 7.1-2.5 10-5.1.4-.2 1.2.2 1.2-.7l-1.7.1zM284.6 656.2c-1.4 1.7-2.6 3.6-4.2 5.1-3.3 3.3-1.9 4.9 2.1 5.9.6-3.8 2.2-7.3 2.1-11l.6-.2-.1-.4-.5.6zm223.9-400.8l.5.6.1-.4a1 1 0 0 1-.6-.2c-1.9-3-5-4.5-8-6.2-1 6.1-1 6.1 4.8 6.2 1-.1 2.1 0 3.2 0zM86.6 272c-4 1-4.9 5.2-7.7 7.5-1.3 1 .8 1.9 1.6 2.7 1 1.1 1.4 0 1.8-.8l4.3-9.4.7-1-.6-.1c-.4.4-.7.8-.1 1.1zm116.2 187.2c2.7-1.6 4.4-4.2 6.6-6.3 1.9-1.8-.2-2.6-1.1-3.6-1.4-1.5-1.9-.2-2.5.9-1.4 2.7-2.9 5.3-3.7 8.3-.7.9-1.6 1.8-.9 3.2a2.6 2.6 0 0 0 1.6-2.5zm9.5-108.5l7.8-6.2c-3.5-4.2-3.5-4.2-5.9.4l-2.6 5.3c-.6.2-1 .8-.5 1.3.6.5.9-.4 1.2-.8zM476.6 91.9l13.1-4.3c-2.9-1-5.6-.7-8.3-1-3.8-.4-5.4 1.1-5.3 4.8l-.5.5h1zm61.5 285.9c-.5-1-1.3-.9-2.2-.5l1.6 1.2c5.8 2.7 10.6 8 18 7l-17.4-7.7zm-318.9 49c2.1-1.7 4.1-3.6 6.3-5.1 3.5-2.5 2.4-4.6-.4-6.8-1.9 4-5.1 7.3-6.1 11.7-.5.1-.9.4-.5.8.5.4.6-.2.7-.6zm-99.6-187.1c-2.3 2-4.4 4.1-6.9 5.9-3.3 2.3-2.9 4.4 0 7.1 1.9-4.8 6.1-7.9 6.9-13h0zm631.9-97.4l.8.5-.2-1-4.4-9.5c-4.6 5.9-4.6 5.9 1.8 9.3.5.3 1.3.4 2 .7zM585.9 639.5l-.4.1-.2-.3.6.2c5.4 3.6 11.3 6 17.5 7.3v.4l.2.2-.3-.5c-4.3-5.9-11.2-5.9-17.4-7.4zm46-539.7c-.1-.3-.1-1-.6-.2l.6.2c1 4 5.5 5 7 8.5 1.7-1.2 1.3-3 2.2-4.3.8-1.1.5-2.1-.9-2.3-2.9-.4-5.4-2.2-8.3-1.9zM156.5 216.7c-3.9.2-7 2.6-10.7 3.5-2.5.6-1.1 2.4-.6 3.7.8 1.9 1.7.8 2.7 0 2.9-2.3 6.3-4.1 8.8-6.9l.4-.8c-.3-.2-.5.1-.6.5zm69.1 220.2c2.5-1.4 4.5-3.5 6.8-5.2 3.6-2.8 3.2-5.1-.6-7.7-1.3 4.7-5.1 8.2-6.2 12.9-.5-.1-.6.1-.4.6l.4-.6zm240.5 95.8c-.1-.7-.6-.9-1.2-.7l-.2.4 1.4.3c6.5 3.9 12.9 7.9 21.2 6.4l-21.2-6.4zM635.4 93.5c.3.5.6.9 1.1.3l-.7-.8-4.9-5.9c-1.3-1.4-2.5-1.7-3.3.5-1.1 2.6-1.7 4.9 2.4 5.2 1.8 0 3.6.4 5.4.7zm-357.3 31.1c4.3.7 8.4-.8 12.6-1 2.5-.1 2.5-1.9 2-4-.4-1.6-1.2-1.7-2.2-1-3.9 2.3-8.7 3.1-12.4 6-.7-.6-1.2.1-1.9.3.1.2.1.5.3.5.8.2 1.5.2 1.6-.8zM157.5 202c3.7-1.8 6.6-4.6 9.8-7.1 1.4-1.1 1.3-2.6.4-4.1-.8-1.3-1.6-.5-2.1.1-2.8 3.7-6.3 6.8-8.1 11.1l-.3.1-.2.2.5-.3zm550.8-58.9c-.5-1-1.4-1.2-2.6-1.3.7 1.3 1.4 1.9 2.7 1.2-.3.3-.6.7-.1 1.1l18.2 13.1.7-1.1c-5.7-5.2-11.2-10.6-18.9-13zM91.9 349.2c-3.5 3.9-7.3 7.5-10 12.2 2.5-1.4 6.3.5 7.6-2.9 1.1-2.9 2.6-5.8 2.7-9 .4-.1.9-.3.5-.7-.5-.5-.7 0-.8.4zm269.2 66.6c-4.3.6-8 2.9-12 4.7 2.6.6 4 4.9 6.5 3 2.3-1.8 5.3-4 5.5-7.7l.6-.2-.1-.4-.5.6zm258.8 247.7l.5.6.1-.4-.6-.2c.4-1-.5-1.6-1.1-2.2-5.6-5.6-13.5-4.2-20-7.2l-.4 1.2 21.5 8.2zM321.5 113.6c4.3-1.4 8.7-2.6 13-4.1 2.6-.9 2.4-3.1 1.6-4.9-1.1-2.7-2.7-.3-3.6.3-3.9 2.6-7.6 5.4-11.4 8.2l-1.7 1.1c.8.4 1.5.4 2.1-.6zM94.3 272.4l11.6-12.2c-2.2-1.1-4.7-2.5-6.6.8-2 3.5-3.7 7.2-5.5 10.9-.5.2-.8.5-.4 1l.9-.5zm483.2 370.9c.5 1.5 1.4.7 2.9.2l-2.9-.2c-7.1-4.2-15-6.4-22.7-9.3 1.3 2.6 2.9 5.1 5.5 5.8 5.7 1.4 11.5 2.3 17.2 3.5zm-78-319.9c-.4-.7-1.1-1.1-1.7-.6-.8.8.4 1 .7 1.4l6.7 7.5c2.6-1.9 5.5-3.5 7.5-6.9l-13.2-1.4zm-310.7-63.3c10.1-.8 14.1-3.9 16.4-13.1a17201.1 17201.1 0 0 0-17.2 13.3l.4.4.4-.6zm181.4-10.3c-5.8 1-11.4 2.8-17.2 5.1 14.5 2.6 14.5 2.6 17.6-4.8.5-.3.7-.6.2-1l-.6.7zm-244.9 64.6a85.2 85.2 0 0 0-14.7 14.7l-.3.2v.2l.2-.5c9.3-.7 13.5-4.9 14.8-14.6l.5-.2-.1-.4-.4.6zm414.5 154.8c6.7-5.5 11.3-13.1 17.7-18.9.5-.4.9-1.4.3-2-.3-.3-1.2-.4-1.7-.2-1.1.3-2.7.6-3.3 1.4-4.2 6.6-9.6 12.4-13.3 19.4-.4.1-.9.5-.5.8.5.4.7-.1.8-.5zm11-179.7c-.6-1.2-1.5-1.1-2.8-.2l2.8.2c8.2 5.9 15.8 13.1 26.8 13.4-8.9-4.6-17.3-10-26.8-13.4zm-386.5-10.6c-5.1 4.3-10.4 8.5-14.8 13.5 6.7-2.5 15.2-3 15.4-13 .7-.2 1-.9.6-1.3-.6-.4-.8.5-1.2.8zm251.6 165.7l.9.3c.3-.5-.1-.7-.5-.7-5.3-3.6-11.5-5.6-16.9-8.9-3.1-1.9-6.2-2.7-10 .2l26.5 9.1zM216.8 261.3l17.6-11.6c-4.6 0-9 .7-13.3 1.6-.4.1-.9.8-1.1 1.3l-3.7 8.3c-.9.2-.9.7-.4 1.3l.9-.9zm235.5 193.1c0-.8-.6-.8-1.2-.7l-.3.3 1.5.4c9.1 4.6 17.2 12.3 28.6 10.2-.8-.8-1.8-1.2-2.8-1.6-8.7-2.7-16.9-6.6-25.8-8.6zM163 445.2c-.6-1-1-2.2-2.7-2.2.6 1.4 1.1 2.6 2.7 2.2 2.2 7.1 8.2 11.6 12.5 17.4-.5-2.9 1.6-6.3-.7-8.4-3.7-3.3-7.3-6.7-11.8-9zM57.5 349.8l-1.2.1.6.6 15.3 13.3c.7-.8 1.2-1.6 1.9-2.1 3.7-2.8 2.3-3.7-1.3-5-5.2-2-10.2-4.6-15.3-6.9zM707 135.4c.4.3.8.5 1.1-.1l-.5-.6-5.1-9.1c-.5-.9-.7-1.9-2.3-1.2-3 1.3-6.2 2-9.4 4.2 5.9 1.9 10.5 5.5 16.2 6.8zM246.6 543.1c.4.8 1 .9 1.7.5l-.8-1.3c-5-5.7-11-10.6-15.6-16.6-2.4-3.2-5.3-2.8-8.8-.8l23.5 18.2zm472.1-427.9l-.9-.4.5.8c1 3.5 3.4 6.4 5.1 9.5.9 1.7 2.3 1.6 3.5 1.3 3.3-1 7-.5 10.7-2.3-6.7-2.8-12.4-6.8-18.9-8.9zM155.5 309.6c-11.2 2.1-15.6 6.7-17.2 17.8h-.3l-.2.1.4-.2c5.4-6.3 12.5-10.8 17.7-17.3.3-.2.9-.4.5-.9-.3-.3-.7.1-.9.5zM769.9 153c-1.5.2-3.3-.7-4.5 1.3L749 182.2l1.2.8 20.6-29.2c.5-.4 1.6-.7 1.1-1.3-.5-.7-1.5-.4-2 .5zM44.1 365.1l.6.3v-.4c-.2.1-.4.2-.6.1.7-1-.2-1.6-.9-2.1-5.1-4.3-10.6-8.1-15.3-12.8-3.8-3.7-7.2-3.7-11.4-.9l27.6 15.8zm117 70.9l-.1-.6-.5.2.6.4c3.3 4.4 8.2 7 12.3 10.5 5.7 4.8 5.7 4.8 10.3-1.4-7.6-3-14.6-7.1-22.6-9.1zM638.5 86.7c-.4-.7-.9-1-1.6-.4l1.2 1c1.3 3.2 4.2 5.1 6.4 7.6 1.4 1.6 2.6 2 4.6 1.2 3.4-1.3 7-2.3 11.7-3.8-8.5-1.7-15-5-22.3-5.6zM496.4 368.8c-.1-.7-.5-.9-1.2-.7l-.3.3 1.5.4c8.4 5.9 17.5 10.6 26.7 15 2.8 1.3 6.7 1.7 10.7.4-6-2.6-11.3-5-16.8-7.2-6.8-2.7-13.3-6.5-20.6-8.2zm-351.8 89.3c.4.9.8 1.9 2.8 1.5-1.2-.7-1.3-2.2-2.9-1.4.7-1.4-.5-1.9-1.2-2.6-5.6-5.8-11.3-11.5-16.7-17.5-2.7-3-5.2-4.8-9.8-2.1a3378 3378 0 0 1 27.8 22.1zM502.9 365l.9.7.2-.6c-.3.1-.7 0-1.1-.1.2-.6 0-1.1-.6-1.5-8.6-4.9-17.1-9.9-25.8-14.5-3.4-1.8-7.4-.9-11.2.3l37.6 15.7zm36.8-97.5c.1-.9-.5-.9-1.1-.8l-.3.3c.5.1 1 .2 1.4.5 6.5 3.4 12.8 7 19.2 10.3 6 3.1 12.1 6 18.1 9l.6-1c-5.9-3.8-12.1-7.3-17.7-11.6a32.3 32.3 0 0 0-20.2-6.7zm-237.6 58.9c.3-.6-.1-.7-.5-.8l-.6.3 1.1.5c6.2 4.1 13.3 6.7 19.5 10.7 5.6 3.6 9.9 2 14.9-1.3-11.8-3.3-22.9-7.2-34.4-9.4zm328.2-106.2c-1.1-.9-2.1-2.1-3.8-1.2.3 1.6 1.8 1.5 2.8 2.1 4.2 3.2 8.5 6.4 12.6 9.7a49.1 49.1 0 0 0 25 10.9c.4.8.9 1 1.7.4l-1.3-.9c-1.8-2.5-4.9-2.9-7.3-4.3-9.9-5.8-19.9-11.2-29.7-16.7zm-461.7 17.7c-.2-.9-.9-.9-1.7-.8-.2 0-.4.3-.6.4l2 .7 20.3 11.3c1.3.7 2.8 1.8 4.3.7 2.6-1.9 5-4.1 7.8-6.4l-4.5-1c-9.2-1.6-18.2-4.4-27.6-4.9zm-8.5 214.8l.6.6c.6-.4.3-.7-.1-1l-11.9-15.5c-5.8-7.6-5.8-7.7-14.6-5.3-.4.1-.5.3-.5.3 3.9 3.2 7.4 6.4 11.2 9.2 5.1 3.8 9.4 8.8 15.3 11.7zm-58.9-158.5c.3-.3.3-.5-.1-.6l-.4.1.5.5c5.8 4.3 12.8 6.2 19 9.6 3.5 2 6.9 3.4 9.7-1 .5-.7 1.3-1.3 2.4-1.2 1.4.1 2.3-.2 2.3-1.9 0-1.8-1-1.8-2.3-2-10.4-1.4-20.7-3.1-31.1-3.5zm587.7-133.5c.6 1 1.4.9 2.3.5l-1.6-1.2-44.8-27.5-.8 1.2c5.4 4.3 10.9 8.6 16.3 13.1 8.3 7 16.8 13.9 28.6 13.9zM503.8 283.2c.9.8 1.8 1.5 3.1 1.4-.4-1.6-1.8-1.3-2.5-2-9.2-5.8-18.8-11.2-27.6-17.6-7-5.1-14-4.3-21.7-2.7 6.2 2.7 12.1 5.5 18.1 7.9 10.3 4.1 20 9.4 30.6 13zM369.3 556.7c.2 1 1 .9 1.8.8.2 0 .3-.3.5-.5l-2.1-.4c-.3-.3-.5-.8-.9-1-10.8-4.4-21.9-8.3-32.4-13.2-4.9-2.3-7.9-.8-11.3 1.8-.7.6-1.6 1.2-1.5 2.1.1 1.3 1.3.8 2.2 1l21.3 4.7c7.3 1.8 14.7 4 22.4 4.7zm-95.6-388.9l-.5-.6-.3.3.7.5c8.3 6.1 17.7 10.6 26.2 16.3.7.4 1.9.6 2.6.3l13.6-5.9c-1.3-2.5-3.5-1.8-5.1-2.2-12.4-3.2-24.7-6.4-37.2-8.7zm-47.1 108.8c.3-.7-.3-.6-.7-.7l-.4.2 1.1.5c8.6 5.7 18.2 9.6 27 14.8.6.4 1.2.8 2 .2 4.4-3.7 9.8-5.8 15.4-9.3l-44.4-5.7zm343.7-74.7c-.4-.7-.9-1-1.6-.4l1.1 1 26.7 18.9c5.4 3.9 10.5 8.2 17.6 8.9 5.2.5 10.3 2.5 15.6 1.9-10.9-6-21.9-11.4-32.8-17.1-8.8-4.7-17.4-9.5-26.6-13.2zm26.7-81.1c-.2-.7-.8-.8-1.4-.7l-.3.3 1.3.9 32.9 25.9a18 18 0 0 0 10.5 4.7c4.8.2 9.5 2.4 15.2.9-11.2-6.3-21.5-12.5-32.1-18.1-8.7-4.6-16.9-10.1-26.1-13.9zm-42.5 66.5c-.2-1-.9-.9-1.7-.7l-.2.4c.6.1 1.2.9 1.9.3 0 .9.8 1.2 1.4 1.5l49.8 25.1 11.1 5.6c.5-1.5-.1-2-.7-2.4L598 204c-5.8-4.1-11.3-9.2-17.7-11.8-8.1-3.2-17.1-3.7-25.8-4.9zM362.2 297.6c-.7-1-1.6-.9-2.5-.3l1.9 1c9 5.1 18.2 9.8 26.9 15.3 5.3 3.4 10.4 5.3 16.6 3.3 5.1-1.7 10.8-.7 16.2-3l-33.2-9.3c-8.7-2.4-17.1-5.3-25.9-7zm100.3-100.3c-.3-.7-.8-.7-1.4-.6l-.3.3 1.6.4c.5.6.8 1.3 1.4 1.7 10.4 6.8 21 13.4 31.2 20.5 5.8 4.1 11.4 7.5 18.8 6.1 4.2-.8 8.5-.9 12.9-1.2-15.2-6.8-30.4-13.3-45.6-19.8-6.2-2.5-12.1-5.6-18.6-7.4zm-6.7 97l.8.5-.3-1c-13.5-8.2-27-16.4-40.5-24.4-1.6-.9-3.1-2.6-5.3-2.2l-18.2 3.7c.5 1.6 1.5 1.7 2.5 2.1l29.2 10.3c10.6 3.7 20.9 8.2 31.8 11zm-69.6-167.2c-.5-.7-1.1-.8-1.8-.3l1.1 1.1 23.4 15.7c5.5 3.8 10.7 8.6 18.3 5.1.4-.2.9 0 1.4 0 6.9-.9 13.9-1.4 21-1.8-7.3-2.7-14.7-4.9-22-7.2-14-4.1-27.7-8.4-41.4-12.6zM549 114.4c-.2-.7-.8-1-1.2-.5-.5.6.4.8.7 1.1l42 31.8c.9.7 2.3 1.1 3.4 1 5.4-.4 10.6 1 15.9.9h6a6.4 6.4 0 0 0-2.6-2.6L581 129.9l-32-15.5zm-105.8 2.7c-.2-.6-.6-.9-1.2-.7l-.3.3 1.3.7c.3.5.6 1.1 1 1.4 11.8 8.2 23.8 16.3 35.5 24.7 2.4 1.7 4.8 2.3 7.6 2.3 7.2.2 14.3-.3 21.5.6 4.7.5 9.6 2 14.9.7l-2.9-1.3c-19.5-7.5-39-15.2-58.7-22.2-6.1-2.3-11.9-5.9-18.7-6.5zm-1.3 105.4c.3.7.8.7 1.4.5l.3-.2-1.4-.5-.4-.8-49.5-31.6a5.4 5.4 0 0 0-4.4-.8l-25.3 6.9c15.7 5.3 30.4 10.5 45.3 15.3 11.3 3.6 22.3 8.4 34 11.2zM732 350.9l-35.7 12.4-80.2 28.6c-1.2.4-3.2.3-3.3 1.8-.1 1.5 1.8 1.8 2.9 2.5 18.7 11 37.5 22 56.1 33.2 2.6 1.6 3.6.4 5-1.5 13.7-18.8 27.6-37.4 41.2-56.2 4.9-6.7 10.4-13 14.3-20.3l.7-.5c-.4-.6-.7-.4-1 0zM552.7 515.2c1.1 3.3-1.5 3.9-3.6 4.7l-34.8 13.2c.9 1.4 2.3 1.7 3.5 2.3l39.8 18.2c6.9 3.1 14 6.1 20.8 9.3 1.8.9 2.6.4 3.6-1l11.3-16c9.9-13.6 19.9-27.2 29.5-40.9 3.7-5.3 8.1-10.2 11.1-16.7-1.3.2-2 .1-2.5.3-17 6.4-34 13-51.1 19.3-8.9 3.3-17.4 8.6-27.6 7.3.1-2 .7-3.3 3.1-4.2 18.8-7 37.4-14.3 56.1-21.4l24.3-9.2-2.1-1.3-36.5-19.9-22.9-12.3c-1.5-.8-3-1.6-4.3.4l-11.6 16.3-34.1 47.9-10.7 15.3c4.2-1.5 7.1-2.7 10.1-3.6 9.3-3.1 18-9.1 28.6-8zm62-129.5c9.9-2.8 19.5-6.7 29.2-10.1l78.2-27.5c4.2-1.5 8.3-3.3 12.9-5.1-18.8-12.9-36.9-25.5-55.1-37.8-6.1-4.1-6.1-3.8-10.3 2.1l-34.3 47.6-21.6 29.9-.8 1.2c.7.6 1.3.3 1.8-.3zM416.4 708.3a74.2 74.2 0 0 0 8.1 35.6c1.1 2.4 2.2 2.4 4.4 1.2a76.9 76.9 0 0 0 31.9-31.5 89.7 89.7 0 0 0 6.4-77.1c-1.2-3.3-2.7-3.5-5.3-2.3a66.7 66.7 0 0 0-19.8 12.8 87 87 0 0 0-25.7 61.3zm420.3-508.2l-5.9-5.4-46.7-40.6c-4.2-3.7-4.1-3.7-7.4.9-17.3 23.9-34.6 47.7-51.8 71.7-2.1 2.9-4.8 5.6-6.4 9.5l118.2-36.1zm-1.6 6.9l-118.4 36.1 57.2 42.9c2.1 1.6 3.1.8 4.4-.9l34.3-47.1c7.1-10 14.5-20 22.5-31zM484.4 313.9c17.3 3.3 33.9 5.2 49.9 10.1a266 266 0 0 1 40.5 15l21.9 10.5c1.5.7 3 1.8 4.4-.2l23.3-32.4c-46.3-12.2-92.6-10.8-140-3zm88.8-159.3a515.5 515.5 0 0 1 98.7 30.5c10 4.1 19.5 9.2 29.3 13.8 1.8.8 3.4 2.5 5.4-.5 4.4-6.7 9.2-13.2 14.1-19.6 1.6-2 1.2-2.8-.9-3.4-4.7-1.4-9.2-3.1-13.9-4.3a444.4 444.4 0 0 0-95.8-16.2c-4.9-.2-10-.7-15-1.2a61.1 61.1 0 0 0-21.9.9zm-364 168.2l-36.6-18.2c-2.3-1.2-3.7 0-5.2 1.4-4.5 4.3-9.3 8.4-13.6 12.9-5.3 5.4-11.6 9.7-16.7 16.4 10.7 1 20.8 0 30.7 1.2 5.6.7 11.2-.3 16.9.8 3.4.7 6.9.3 9.8-2.3 4.6-4 9.5-7.9 14.7-12.2zm6.7-54.3l14.3 1.8c12.9 1.8 25.9 3.1 38.6 5.6a30 30 0 0 0 26.3-6.3l-42-23.3c-1.2-.6-2-1.5-3.6-.5-10.9 7.5-21.8 14.8-33.6 22.7zm161.8-151.9c1 2 2.5 2 3.7 2.4 5.3 1.7 10.8 3.2 16.1 4.8l68.1 21.4c2.2.7 4.3.4 7.3.3l-2.1-1.7-50.3-35.4c-1-.7-2.2-1.4-3.8-1l-39 9.2zm17.7 37.2c-13.6-9-26.9-17.5-39.8-26.5-3.9-2.7-7-3.4-11.5-1.6-11.3 4.4-22.8 8.2-34.8 12.4 17.4 4.6 34.2 9.1 51.1 13.4 11.2 2.9 22.3 8.1 34.3 2.7l.7-.4zM178.3 298.2c3.8.5 6.9 1.1 10.1 1.2 10.5.6 20.8 2.4 31.2 3.7 4.8.6 10.1 2.7 14.3 1.4 5.3-1.6 9.9-5.9 15.3-9.4l-6.8-3.4-30.3-16.1c-2.3-1.2-4.4-2-6.9.1-5.3 4.5-11.1 8.5-16.4 13.1-3.4 3.1-7.5 5-10.5 9.4zm85.2-140.3c.8.7.9 1.1 1.2 1.1 17.3 4.1 34.8 7.8 52 12.5a33.5 33.5 0 0 0 25-2.8c-10.9-6.9-21.7-13.1-31.8-20.2-7.1-5.1-13.2-7.2-21.6-2.1-7.5 4.7-16.3 7.7-24.8 11.5zM152.9 281.7c-12.5-7.3-25.6-13.2-38.3-19.7-1.4-.7-2.4-.7-3.6.4l-21.2 21.1c-1.4 1.4-1.7 2.7.9 3 3 .3 6.1.5 9.1.9 10.5 1.2 21.1 2.7 31.6 3.6 3.7.3 8 2.9 11.1.5 3.5-2.8 7.6-5.5 10.4-9.8zm-47.7 85.8c1.1.7 1.9 1.2 3.1 1.3 9.7.5 19.5.8 29.1 1.8 4.7.5 9.6-.1 14.1 1.1 3.7 1 5.6-.4 7.3-2.9 1.7-2.4 3.7-4.5 5.9-6.3.8-.6 2.7.3 2.7-1.7 0-1.9-1.7-2-2.8-2.5-9.1-4.3-18.2-8.5-27.2-12.9-7.7-3.8-7.7-3.8-13.5 2.5l-1.4 1.2-17.3 18.4zm81.2-112.7l-.8-1c-12.9-6.6-25.7-13.1-38.2-20.4-2.2-1.3-3.2-.1-4.7 1.2l-21.1 18.1c-.8.7-2.1 1.2-1.8 2.3.3 1.2 1.7.9 2.7 1.1 12 1.5 23.9 3.2 35.9 5.3 8.5 1.5 17.5 4.1 24.6-4.1.9-.9 2.2-1.5 3.4-2.5zm108.1-67c-.6-.5-1-1-1.5-1.3l-38.2-23.1c-1.6-1-2.6-.1-3.7.5l-29.9 16.4c1.2.6 2 1.1 2.8 1.3 17 3.7 34 7.5 51 11 2.8.6 5.6 2.4 8.8.6 3.4-2 7.1-3.6 10.7-5.4zm-40.9 21.1l-1.9-.8-36.2-21.3c-1.7-1-3.2-1.6-5-.4l-25.9 17.1c.9.5 1.6 1 2.3 1.2 12.9 2.7 25.7 5.5 38.6 8.1 9.5 1.9 19.3 5.4 27.5-3.4l.6-.5zm269.9-68.6l.4-.7-4.9-3.8c-14.9-10.7-29.9-21.3-44.6-32.3a11.5 11.5 0 0 0-8.8-2.7c-8.1 1.1-16.2 2.1-24.3 3.4-2.7.5-5.7-.6-8.9 1.8l91.1 34.3zm-306.4 91.1l-38-21.3c-1.9-1.1-3.2-1-4.9.4-5.2 4.1-10.8 7.9-15.9 12.2-1.8 1.5-4.4 2.3-5.3 5.1 14.1 2.8 28.1 5.2 41.9 8.4 8.3 2 16.3 3.9 22.2-4.8zM122 311.1c-10.7-5.3-20.8-9.9-30.6-15.2-6.6-3.5-12-4.6-15.8 3.4-.2.4-.7.6-1 .9l-12 13.9 13.6 2 28.4 3.7c4.5.6 8.9 1.3 11.9-3.5 1.1-1.9 3.3-3.2 5.5-5.2zm125.1 114.5c3.1.5 5.5 1.6 8.1 1.9 14.2 1.3 28.2 3.4 42.3 5.4 6.5.9 13.4 2.2 18.5-4.6-14.4-6.8-28.9-13.6-43.2-20.5-1.3-.6-2.2-.1-2.9.5-7.7 5.7-15.2 11.5-22.8 17.3zM291 223.5c22.4 6.4 44.1 12.8 65.9 18.8 3.3.9 6.8 3.6 11 1-.7-.6-1-1.1-1.5-1.4l-48.7-29.4c-.9-.5-1.6-.6-2.6-.2L291 223.5zM137.9 391.7L100.5 375c-1.9-.9-2.2.3-3.1 1.4-4.3 5.3-8.8 10.5-13.2 15.7-.6.8-1.9 1.4-1.2 2.6.5.9 1.6.4 2.5.6l31.6 3.8c7.8.9 16.2 3.6 20.4-6.7.2-.1.2-.2.4-.7zm192.9-136.3c-13.8-7.9-27.5-14.9-40.2-23.4-7-4.7-11.9-3.1-17.7.7-4.2 2.7-8.7 5-13.6 7.9l2.4 1.1c17.3 4.6 34.5 9.2 51.9 13.6 5.4 1.2 11 4.2 17.2.1zM197 474.3l11.1 1.1c8.9.7 17.8 2.2 26.6 2.7 6.2.3 12.9 4.4 18.9-1.2.7-.7 2.1-.5 2.3-2.2.2-1.9-1-2.3-2.3-2.9l-37.7-16c-1.8-.8-2.8-.3-3.9 1l-14.2 14.9c-.6.7-1 1.5-.8 2.6zm23.6-25l49.3 6.8c3.4.4 6.6.7 9.6-2.2 2.4-2.3 2.9-3.1-.4-4.5-12.5-5.5-25-11-37.5-16.7-1.7-.8-3.1-.6-4.2.5-5.3 5.5-11.8 9.9-16.8 16.1zm184.6-216.1c.2-1.8-.8-2.1-1.5-2.6-13.6-8.4-27.6-16.1-40.5-25.3-8.1-5.8-15.3-6.9-23.8-2.2-3.8 2.1-8.6 2.4-12.5 5.7l78.3 24.4zm-18.3 87.3l.3-1c-16.3-9.1-32.7-18-48.9-27.4-4.6-2.7-8.4-3.3-13.3-.7-5.6 3-11.7 5.2-17.5 7.7l.1 1.2 79.3 20.2zm97.6-220.2l79 34.6c.5-2.4-.8-3-2.1-4-11.4-8.6-22.6-17.4-34.3-25.7-3.2-2.3-5.5-6.2-10.2-6.2-10.4-.1-20.8.2-32.4 1.3zM455 476.4l.2.8 4 .8c13.4 3 26.3 7.3 38.9 12.7 1.5.6 2.4 1.3 3.6-.5 4.5-6.6 9.2-13.1 13.9-19.7.3-.5 1-.8.6-1.5-.5-.8-1.2-.7-2-.7-11.5 1.1-23.1.7-34.5 2.9-8.2 1.6-16.4 3.5-24.7 5.2zM342.3 285.3l79.1 22.3.4-1.3-5.1-2.7-44.9-26c-1-.6-1.9-1.4-3.3-.9l-26.2 8.6zm180.6 417.6c22.8 2.4 45.3-.2 68.1 2.4-.6-1-.7-1.3-.9-1.4-16.9-6.3-33.9-12.5-50.8-18.9-2.2-.8-3.5.3-4.6 1.9l-11.8 16zm-22.8-589.3l-.5 1.7c12.1 8.8 24.1 17.7 36.4 26.3 2.9 2.1 5.2 5.9 8.9 6 10.3.4 20.6.1 30.9.1l.2-1-75.9-33.1zM44.5 337.3c12.3 2 23.9 3.7 35.4 5.9 5.3 1 10.2 3 13.8-3.3 1.1-1.9 1.6-2.6-.6-3.6-10.9-4.9-21.9-9.9-32.7-15-1.9-.9-3.2-.6-4.4.9l-11.5 15.1zm560.7 374c-22.5.4-44-1.8-66.2-.6 1.2.6 1.7 1 2.4 1.2l47.8 16.5c1.5.5 2.7.5 3.7-.8l12.3-16.3zm-334.3-340l-45.6-22.4c-.8-.4-1.8-.9-2.6-.2-4.4 4.2-9.8 7.3-14.1 12.4 16.5 3.8 32.5 7.7 48.7 10.9 4.1.7 8.7 3.7 13.6-.7zm-44.8 32.8l-41-19c-1.7-.8-3.2-1.2-4.4.6-3 4.7-7.6 7.8-11.2 12.3 1.2.5 2.1 1 3.1 1.2 14.7 2.8 29.4 5.3 44.1 8.4 4.2.8 7 .3 9.4-3.5zm249.1-189.4c-.2-1.8-.9-2.2-1.5-2.6-12.4-8.2-25-16.2-37.2-24.7-5-3.4-9.6-5.7-15.9-4.1-5.7 1.4-11.8 1.7-18.4 3.5l73 27.9zm-245 128.7l60.1 14.5c2.4.6 3.4-.6 4.9-1.5-15.7-8-31.1-15.8-46.5-23.8-1.6-.8-2.7-.3-3.8.4-4.6 3.1-9.1 6.4-14.7 10.4zm73.5 43.6l68.5 16.5c-.7-2.3-1.7-2.4-2.4-2.8-13.8-7.2-28-13.5-41.4-21.3-3.6-2.1-6.8-2.4-10.5-.1-4.3 2.6-8.9 4.8-14.2 7.7zm-115.5-8.3c17.5 3.8 34.1 7.3 50.6 11.2 3.6.9 6.1.4 8.6-2.3l-42.9-20.4c-2-1-3.9-.6-5.5.9l-10.8 10.6zm65.7-51.3c23 5.6 44.3 12.2 65.9 16.9.7-1.5.2-1.8-.2-2L273 318c-1-.5-1.9-1.4-3.3-.5-4.8 3.2-9.7 6.1-15.8 9.9zm24.7 75.1l60.4 13.4c1.3.3 3.1 1.1 3.6-.5.6-1.7-1.6-1.9-2.7-2.4l-42.3-20.9c-.7-.4-1.5-1.3-2.5-.7l-16.5 11.1zm55-30.2v1.1l67.5 17.8.5-1.3c-16.1-8.2-32.1-16.5-48.2-24.6-.7-.4-1.9-.5-2.7-.2l-17.1 7.2zm13.8-40l.2-1.2-18.6-9.7-29.7-16.1c-1.3-.7-2.8-1.8-4.7-.8-4.8 2.7-9.7 5.2-15.6 8.3l68.4 19.5zM541.3 678l58.3 4.9c-.4-1.6-1.3-1.7-2.2-2l-14.9-5.6-28.8-11.2c-1.9-.8-3.3-.7-4.4.9l-8 13zM362.9 361.2l62.5 18.3c1 .3 2.2 1 2.7-.4s-1.2-1.6-2-2l-38.8-20.6a8 8 0 0 0-6.9-.7c-5.5 2-11.1 3.4-17.5 5.4zm146.6-150.7l.6-.9-44.1-29.7c-.6-.4-1.4-.8-2-.8-7.2 1.1-14.5 1.5-22 2.4l67.5 29zM206.4 422.8c-11.1-4.9-21.9-9.5-32.6-14.4-10.5-4.7-10.4-4.8-17.1 4.6-1.7 2.4-1.6 3.2 1.6 3.8 11.1 2.2 22.1 5 33.2 6.9 4.7.9 9.9 4.8 14.9-.9zm412.1 267.8l-56.6-4.3c15.2 6.4 30.5 12.1 45.8 17.7.9.3 2.1.8 2.8-.4 2.6-4.3 5.9-8.1 8-13zm-199.4-491c.6 1.1.7 1.5.9 1.6 11.4 7.3 22.6 14.7 34.1 21.8 2.7 1.7 5.1 4.3 8.9 4.2 8-.2 16-.1 24-.1l.2-1.4-68.1-26.1zM352.3 491c-2.7-2.5-6.2-3-9.2-4.4-11.3-5.2-22.7-10.2-34.1-15.2-1.3-.6-2.2-.4-3.3.5-2.9 2.4-6.1 4.6-9.1 6.9-.8.6-2.3.7-1.8 2.2.3 1 1.5.7 2.4.9A8782 8782 0 0 0 347 492c1.6.3 3.6 1.1 5.3-1zm26.9-283l-.3.9 34.5 21.5c1.9 1.2 4 2.1 6.5 1.7 6.8-1.1 13.7-2 21.3-3l-62-21.1zm-50.3 295.9l-38.8-16.5c-1.8-.8-3.5-1.4-5.1 0-3 2.5-5.8 5.2-9 8.1 1.3.4 2 .8 2.9.9l45.2 9.5c1.7.3 3.1-.4 4.8-2zM547.5 744l-1.3-1.3-43.1-14.6c-1-.3-2-.6-3 .3l-11.5 10.4 58.9 5.2zM416.2 287l-.5 1.4 40.4 23.5c1 .6 1.9 1.1 3 .9l17.2-3.3v-.9c-20-7.3-40-14.5-60.1-21.6zm145.3 438.4l-42-14.7c-1.2-.4-2.8-1.1-3.7.5-2.2 3.7-6.2 6-8 10.5 18.1 2.1 35.9 3.5 53.7 3.7zm19-620.1l59.2 32.9c.5-1.6.3-2.1-.3-2.6l-27.3-21.2c-3.1-2.4-5.5-6-9.6-6.7-7.2-1.3-14.4-2.9-22-2.4zm-129.4 288c-21.2-5.6-41.1-12.5-61.8-16.9 11.4 6.7 23 12.8 34.5 18.8.6.3 1.5.7 2.1.6 4.5-1.1 9.1-.2 13.7-.5 3.6-.2 7.3.8 11.5-2zm80.3 337.9c13.7 4.5 27.4 8.9 41 13.6 3.6 1.3 6 .6 8.2-2.2l5.8-7.1a731.2 731.2 0 0 0-55-4.3zm-135-378.6a44568 44568 0 0 0 59.3 19.9l.5-1.1c-1.4-1-2.8-2.1-4.3-3l-33.6-18.3a6.5 6.5 0 0 0-5.1-.7c-5.1 1.2-10.4 2-16.8 3.2zm82.4-172.9l60.5 28.6c.5-1.3-.1-1.8-.8-2.2-10.7-7.4-21.4-14.9-32.3-22.2-2.9-1.9-5.4-4.4-9.7-4.1-5.7.4-11.7.7-17.7-.1zm35 567.8v.4l44 14.1c1 .3 2.2.8 3.1 0 3.6-2.9 6.2-6.7 9.5-9.9l-56.6-4.6zM310.3 516.4c-2.5-.2-5.1.3-6.9-.7-10.2-5.6-21.4-9-31.9-13.8-1-.4-1.9-.9-2.9.1l-7.7 6.8c4.2 3.3 10.1 1.1 12 6.5l.9.1c10.6-.9 20.8 1.7 31 3.8 1.9.2 4.3.3 5.5-2.8zm170.9-228.2l.5-1.1c-11.6-7.1-23.4-13.8-34.8-21.3a15.6 15.6 0 0 0-11.9-2.6c-3.4.5-6.9 1.3-11.4 2.1a6975 6975 0 0 1 57.6 22.9zm45.6 471.3l.3-.6c-.3-.2-.7-.5-1.1-.6l-39.4-12.6c-2-.7-3.8-.2-5.4 1l-9.4 7.8 55 5zM320 147.3l-.4.9 27.8 17.6c.9.6 2 .4 3.1.1 4.6-1.3 9.3-2.5 13.9-3.9.7-.2 2-.3 2-1.5.1-1.7-1.6-1.2-2.4-1.5-6.2-1.8-12.5-3.6-18.7-5.2l-25.3-6.5zm24.4 73.5l-.5 1.3c7.4 4.4 15.4 8 21.9 13.4 9.8 8 19.2 3.4 29.1.8l-50.5-15.5zm135 166.7l.2-.9-55.9-18.4-.4 1.2 37.4 19.9c1.2.6 2.3 1.6 3.8 1.3l14.9-3.1zm123 276.9c-.8-1-1-1.4-1.4-1.6l-32.9-13.1c-7.3-2.9-7.1-2.7-11.7 3.9-2.4 3.4-.9 3.8 2.2 4.2 7.9 1 15.9 2 23.7 3.5 6.5 1.4 13 2.1 20.1 3.1zm-96.7-465.8l-.9 1.5c10.3 6.9 20.5 13.9 30.9 20.6 1.7 1.1 3 3.3 5.3 3.3h17.5l.1-.7-52.9-24.7zm47 570l-55-5.5c12.6 4.5 25.5 7.9 38 12.3 4.9 1.7 8.3 1.2 11.8-2.2 1.4-1.4 2.9-2.6 5.2-4.6zM324.9 311.1l-.5 1.4a4141 4141 0 0 0 29.1 15.7c1.4.7 2.8 1 4.4.5 4.6-1.6 9.3-3 13.9-4.5l.1-1-47-12.1zM505 304l-53.8-21.3-.5 1.1 35.5 21.3a8.8 8.8 0 0 0 6.7 1c3.9-1 7.9-.7 12.1-2.1zM184.8 488.1l47.7 10.6.3-1.4-32.8-13.5c-9-3.7-9-3.7-15 3.4l-.2.9zM628 674.7l-45.5-6.9c.8 2 2 1.8 3 2.1l28 10.7c11.6 4.4 8.3 5.7 14.5-5.9zM145.5 342.3c8.5 5 16.6 8.1 24.3 11.8 1.2.6 2.5.8 3.7-.4 2.6-2.6 5.4-4.9 8.1-7.4.6-.6 1.7-1.3 1.3-2.2-.5-1.1-1.7-1.1-2.8-1-11.2.7-22.2-1.3-34.6-.8zm161.2-107.9l-.3.6c9.2 5.3 18.4 10.6 27.7 15.7 1.4.8 2.4 2.5 4.4 1.9l15.7-4.8a6088 6088 0 0 1-47.5-13.4zm259.6-26.7c.4-2-.7-2.4-1.5-3-8.2-5.8-16.6-11.2-24.4-17.4-7.2-5.7-15.4-4.4-23.6-4.9l49.5 25.3zM388.7 547.4l.2-.6c-.8-.4-1.5-1-2.3-1.3L352.2 531c-4.8-2-10 .1-13.2 4.8l49.7 11.6zm232.7-435.5c.3.6.3 1 .5 1.1l45 27.5c.8.5 1.8 1.3 2.4.3.8-1.2-.6-1.7-1.4-2.4-5.4-4.4-10.7-9-16.3-13.1-4.4-3.2-7.9-7.8-13.4-9.3-5.6-1.3-11.1-2.6-16.8-4.1zm-387.9 78l-.3.9 24.6 14.3c1.3.8 2.6.7 3.9 0l11.7-6.4-39.9-8.8zm121.5 197l28.9 14.4c1.2.6 2.5.8 3.5.4 4.7-1.6 9.8-1.8 14.4-3.9-15.7-3.8-30.9-8.7-46.8-10.9zm188.2-185.3l-.8 1.3c10.5 7.2 20.7 14.6 31.5 21.3 4.6 2.9 10.5 1.9 15.9 2.4l.3-1.1-46.9-23.9zM357.7 525.3l46.1 11.5.4-1.3c-9.1-3.9-18.6-7.3-27.3-12-6.8-3.6-12.4-3.5-18.4.9l-.8.9zm304.2-400.2l49.4 31.3.7-1.1c-8.4-6.8-17-13.3-25-20.5-7.2-6.5-16.6-6.8-25.1-9.7zm-229 224.3l47.4 18.1.6-1.2c-9.6-5.4-19.3-10.6-28.7-16.3-6.4-3.9-12.6-2.9-19.3-.6zm-206.3-39.1l-38.6-5c5.8 4.1 11.8 5.7 16.8 9.1 6.5 4.3 12.2 5.5 17.7-1.4.6-.9 1.9-1.3 4.1-2.7zm134.8 169.1l.2-.9c-10.6-4.8-21.5-9.1-31.8-14.5-5.9-3.1-10-1.9-14.9 2.5l46.5 12.9zm125.7-196.9l-.4 1.5c7.7 4.8 15.8 9 23.1 14.4 6.8 5 13.9 5 22.1 3.5l-44.8-19.4zM375.3 469.8c-1.6-2.4-3.1-2.8-4.4-3.4-8.5-3.8-17.4-6.9-25.2-11.7-6.2-3.8-9.6-.9-14.2 2.5l43.8 12.6zm-174.8-256l-.4 1.5c6.8 4.6 14.2 8 21.3 12 1.4.8 2.6.6 3.8-.2l9.2-6.1-33.9-7.2zm237.7 337.8c-14.4-2.7-28.1-7.6-42.6-9.4 7.7 3.9 15.6 7.2 23.5 10.7 6.3 2.8 12.6 5.3 19.1-1.3zm23.4-185.3c.2 1.7.8 2.1 1.5 2.5 5.2 2.9 10.3 5.9 15.6 8.6 8.9 4.6 17.4 11.3 28.5 6.3l-45.6-17.4zM354.9 567.9l.2-.8-33.4-13.3c-6.3-2.5-7.1-2.3-11.1 3.8l44.3 10.3zm324.7-426.4l-.7 1.2c15.1 9.8 26.3 25.9 46.4 28l-45.7-29.2zM262.1 434.4c.2 1 .8 1.3 1.6 1.6l20.8 9.1c1.8.8 3.5 2.6 5.8.6 2.5-2.1 5.3-3.9 8.9-6.5l-37.1-4.8zm-95-165.2l-33.7-5.3c7.5 4.9 15.1 8.9 22.8 12.9 1.2.6 2 .8 3.2-.3 2.5-2.1 5.2-4 7.7-7.3zm148.4-7.3l-37.5-9.6c3.4 4 7.9 5.7 11.9 8.1 3.8 2.3 7.5 5.8 11.5 6.2 3.9.4 8.1-2.5 12.2-3.9l1.9-.8zM646 223.5l.8-1.5c-13.5-9.8-25.6-21.9-44.5-23.2a8218 8218 0 0 0 43.7 24.7zm-21.4 111.7l1.3.9c7.9-9.7 14.9-20 22.6-30.7-10.1 1.7-10.1 1.6-13.6 8.7l-10.3 21.1zM266.8 543.6c-2.1-6.1-6.5-10.4-9.5-15.5-3.7-6.3-7.8-10.6-15.7-7.2l-.9.8 26.1 21.9zM116 375.5l23.5 10.6c1.1.5 2.4.6 3.4-.4l8.2-7.6-35.1-2.6zm429 76.2c-6 .2-10.2 1.6-12.4 6.8l-5.5 12-4.7 10.4 1.2.8 21.4-30zM419.1 560.9L373 550.1c7.2 3.9 14.6 6.7 21.9 10.1 4.7 2.2 9.6 2.8 14.6 2 3.1-.5 6.2-.6 9.6-1.3zm64.3-299.6l41.1 19.3.6-1c-7.4-4.7-15.1-8.8-22.1-14.1-5.8-4.4-11.8-5.4-19.6-4.2zM326.9 398.9l-.1 1c6.4 3.2 13.1 5.8 19 9.7 6.6 4.3 11.5.3 18.4-1.6l-37.3-9.1zM53.2 365c.5-1.3.4-2-.1-2.6l-13.2-18c-1.1-1.5-2.7-1.6-4.1-1-1.9.8-4.1.6-5.9 2.3L53.2 365zm659.9-133.6l17.9-33-1.2-.7c-3.4 4.5-7 8.8-10 13.4-4.1 6.1-10.9 11.2-6.7 20.3zM212.9 482c7.9 4.9 16 6.6 23.3 10.3.9.5 1.2.2 1.8-.5 1.6-1.9 3.5-3.7 5.9-6.2l-31-3.6zm25.9-23.8l-.4.9c5.5 2.3 11.1 4.5 16.5 7.1 6.3 3 7.6 2.9 12.3-2.1.4-.4.8-1 .8-1.5 0-.8-.8-.7-1.4-.8a1412 1412 0 0 0-27.8-3.6zm64.2 233v-2.3c.6-4.4-3.3-3.7-5.6-5-3-1.7-3.4 1-4.3 2.4-4.8 7.5-4.7 7.3 4.9 8.5 3.6.4 5.8.4 5-3.6zm-35.7-166.7l-.6.9 14.1 11.6c4.4 3.6 5.6 3.4 9.1-1 1.1-1.3 1-1.9-.6-2.6l-22-8.9zM80 324.2c5.5 2.6 11.1 5 16.5 7.8 2.2 1.1 3.5.9 5.1-1 1.2-1.4 2.8-2.3 4.3-3.4-8.9-2.9-17.3-4-25.9-3.4zm197.5 15.7l-.5.8 19.1 9.6c6.5 3.3 6.5 3.3 12.5-2.1l-31.1-8.3zm348 8.4l-1-.7-15.5 21.2c-3.6 5.1-3.5 5.1-1.5 11.5l18-32zm24.9-132.2l38.3 23.2c-11.6-9.8-22.6-20.4-38.3-23.2zM283.7 362.6l-29.8-7c4.9 3.3 10.2 5.5 15 8.5 5.5 3.4 10.3 3.9 14.8-1.5zm237.1-76.4c11.2 5.1 19.1 17.6 35 15-12.5-5.2-23.1-11.4-35-15zM328 585.5l.2-.8-19-7.1-10.6-4.2c-2.9-1.1-4.9.7-5.4 2.8-.6 2.3 2.1 1.3 3.3 1.6l13.3 3.3 18.2 4.4zm345.2-463.9l.7-.5-7.7-10.1c-.6-.9-1.2-1-2.3-.7-4.1 1.1-8.3 1.7-12.4 3.9 7.6 2.4 14.7 4.9 21.7 7.4zm-67.3 185.3l-38.7-19.6-.5 1c12.9 6 22.5 18.5 39.2 18.6zM593.1 77.5l-.3.8c2.4 1.5 5.2 2.5 7.2 4.5 6.2 6.2 12 4.3 17.7-.5l.4-.7c-8.4-1.5-16.7-2.8-25-4.1zM98.2 402.9c6.1 3.4 11.6 5 16.6 7.6 5 2.6 8.3 2.3 10.9-2.7l.3-1.2-27.8-3.7zM425.9 99.8a3375 3375 0 0 1 26.7-3.2c-4.4-1-7.6-1.6-10.7-2.5-11.8-3.2-9.6-2.8-16 5.7zM230.3 372.2c5.6 4.1 11.9 5.9 17.3 9.2 5 3.1 8 1.4 11.7-2.6l-29-6.6zm101.1 48.6c-10.3-2.1-19.3-5-28.8-5.5 5.2 2.9 10.8 4.9 15.8 7.9 4.9 3 8.4 1 13-2.4zm309-216.9l-.2.7 19.7 7.5c.6.2 1.8 1.1 1.8.1a30 30 0 0 0-.9-6.6c-.3-1.6-1.7-1.8-3.2-1.8-5.7.2-11.4.1-17.2.1zm-239.1-99.2c-11-5.4-18.2-3.7-25.4 6.1l25.4-6.1zm7.2 327.4l33.2 11.9.5-1.2-15.3-7.7c-5.7-2.9-11.2-6.6-18.4-3zm-77.2 141.1l-23.2-9.2c-4-1.5-4.6-1.2-6.8 3.2 10.1 2.1 19.8 5.7 30 6zM680.6 98.8c7.9 13.2 7.9 13.2 19.4 8.2.2-.1.3-.3.4-.6l-19.8-7.6zm-36.1 231.1l1.1.7 20.3-28c-2-.1-3.8-.9-4.8.5-6.5 8.4-10.9 18-16.6 26.8zM542.7 73.2l9.1 3c4 1.3 8 2.8 12 4 4 1.2 4.3-2.7 5.6-4.7.9-1.5-1-1.9-2.2-1.8-8 .7-15.8-1.5-24.5-.5zm88.6 34.7l1.4-1.2c-3.3-2.9-6.7-5.7-9.8-8.8-.9-.9-1.2-.3-1.8 0l-9.4 5.4 19.6 4.6zm-70.8 73.7l.3-.6c-5.9-3.2-11.7-6.9-17.9-9.6-2.9-1.2-2.7 2.7-3.7 4.5-1.1 1.9.6 1.8 1.7 2l19.6 3.7zm28.8-82.8c-4.2-2.6-7.3-4.6-10.5-6.4-6.1-3.5-6.1-3.5-9.7 2.5l-.3.9c6.4 1.2 12.7 2.6 20.5 3zm102.2 101.7l-17.4-8.3 1 7.6c.2 1.5 1.3 2 2.7 1.9 4.4-.2 8.9.9 13.7-1.2zM423.9 80c-7.3.9-13.8 2.3-20.2 4.4 7 .6 15.2 7.2 20.2-4.4zm-65.3 41.9l25 13.1.8-1.3c-6.1-4-12.4-7.9-18.3-12.2-2.6-1.9-4.5-1.5-7.5.4zm202.3 51.4l-.4 1.2 15.8 8.5c1.8 1 3.1-.1 2.8-1.3-.5-1.6 2.8-3.9-.6-4.7-5.8-1.4-11.7-2.5-17.6-3.7zm-143.5 337c3.7.5 6.3 4.4 9 4.6 5.6.4 10.6 2.2 15.8 3.8 1 .3 2.5 1.2 2.5-1.1 0-1.4-.4-2.5-2-2.3-4 .6-7.4-1.1-10.8-2.8-4.5-2.2-9.2-3.9-14.5-2.2zm183.2-320.1l-.2.8 14.8 4.4c1 .3 2.6 1.7 3.2.2.6-1.6.5-3.6.3-5.3-.2-1.8-1.9-1.3-2.9-1.2-5.1.2-10.2.7-15.2 1.1zM213.4 390.5l-.3 1.1c4.6 2.2 9.4 4.2 13.9 6.6 4 2.2 7 1.2 9.9-2.5l-23.5-5.2zm137.9-293c9.7 3.8 15.3 2.2 21.5-6.2-7.4 1.6-14.3 3.6-21.5 6.2zm332.9 117.3l9.3 11.3c.8 1 1.7 2.8 3.1 1.2 1.4-1.7 3.9-5.1 2.4-5.9-4.4-2.7-8.7-6.1-14.8-6.6zm-34.4-31l.2-.9c-5.3-2-10.6-4.1-15.9-5.9-.8-.3-3.3-2.4-3.1.9.1 2-1.9 5.5 2.1 5.7 5.5.5 11.1.2 16.7.2zm-456 227c3.6 1.6 7.3 3.1 10.9 4.9 4.1 2.1 8 3.7 10.9-2-7.1-1.3-14.1-3.5-21.8-2.9zm-42.6-210l-.8-.8-17.6 13.4c3 .4 5.2 3.4 7.2 1.3 4.1-4.3 7.5-9.2 11.2-13.9zm369.9-47.3l-.1.9c4.5 2.2 8.9 4.5 13.4 6.6 3.4 1.6 3.1-1.9 4.1-3.4.4-.6 1.2-2.4-1-2.6-5.5-.3-10.9-.9-16.4-1.5zm164.8 71.2l-12.1-15-2.9 5.2c-.7 1.3-.6 2.1 1 2.8l14 7zm-77.4-55.4c-5.8-1.5-10.7-2.7-15.4-4.1-3.3-1-2.3 2-3 3.3-.7 1.3-.5 3.1 1.5 2.8 5.2-.6 10.6-.2 16.9-2zm-398.3-9.4c-7 3.3-12.1 7.6-18.6 11.4 9.6.5 15.8-3.2 18.6-11.4zm243.3-84.6l-.1 1c4.9 1.2 9.8 2.5 14.7 3.4 3.4.6 2.7-2.8 3.1-4.4.6-2.3-1.8-1.6-2.8-1.5-5 .4-9.9 1-14.9 1.5zm-21.2 162c10.6 5.9 12.1 5.7 19-3.2-6.3 1.9-12.7.9-19 3.2zM57.1 358.5c3.7 6.5 8.1 11.6 12.4 17.3.6-7.7-3.4-13.2-12.4-17.3zm409.5-125.2c2.7 2.6 3.2 6.7 5.7 6.1 4.3-.9 8.4-3.3 12.4-6.4-6.1-1.3-11.4 1.1-18.1.3zm180.3-43l-.1.8 12.5 5c1 .4 2.1 1 2.8-.2.9-1.5 2.1-3.2 1.7-5-.3-1.1-1.9-.6-2.9-.6h-14zm-452.1 87.5c-13.1 2.2-17.1 5.6-16.6 13.2l16.6-13.2zm280.3 304.8c-3-1-5.9-3.3-9.9-3.7.9 4 .8 8 2.4 11.9l7.5-8.2zm235.5-370.8c2.6-7.9 7.9-14.1 9.2-22-3.7 6.9-13.6 11-9.2 22zM522.2 73.6c2.5 1.4-.7 5.5 2.7 5.6 5.5.1 11.1.7 16.7.7a62.3 62.3 0 0 0-19.4-6.3zM264.1 405.8c-2.7-.8-5.9-2.9-7.6-.9-3 3.3-4.8 7.6-7.1 11.5a78.7 78.7 0 0 0 14.7-10.6zM99 243.8c2.4-.3 5 2.4 6.7.2 2.9-3.7 5.1-7.9 7.7-11.9-6 2.6-9.8 7.5-14.4 11.7zM494.8 79.1c-4.3-2.3-8.8-3.3-13.2-4.8-3.4-1.1-2.7 2.1-3.2 3.5-.8 2.1.9 2.3 2.6 2.4 4.6.2 9.1-.3 13.8-1.1zm88.6 85.7l-18.7 1.9c4 1.8 8.1 2.2 11.9 3.4 4.6 1.4 7 .5 6.8-5.3zM268 534.1l13.5 18.8c.9-8-3.6-14.4-13.5-18.8zM496.9 91.4l.1 1.2h13.6c1.3 0 3.3.7 3.7-.8.4-1.6 0-3.8-.9-5.2-.6-.9-2.5 0-3.7.4l-12.8 4.4zm-12.2 61.4l-.1-.7h-15.3c-1.1 0-2.7-.8-3.2.8-.4 1.7 1.1 3 1.7 4.5.6 1.4 1.5 1 2.6.6l14.3-5.2zm107.4-67.7c-3.8-3.8-8-5.4-11.8-7.9-1.3-.8-2.3-2-2.9.3-.5 1.8-2.4 4.6.4 5.4 4.4 1.3 9.1 1.5 14.3 2.2zM320.5 615l-1.9-1.4-6.6 8c-.4.5-1 1.2-.5 1.5 2.6 1.4 5.3 2.8 8.1 3.9.9.4.9-1 .9-1.7V615zm219.8-355.1c-3.9-3.1-6.8-5.7-10-8-3.7-2.7-2.7 2.2-4.4 3.1-1 .5-1.5 2.7.6 2.9 4.4.5 8.5 2.4 13.8 2zm105.8-62.4l-14.5-6c-1.2-.5-2.2-.5-2.8.5-.8 1.4-1.9 3-1.9 4.5 0 1.6 2 .9 3.1.9 4.9.2 9.8.1 16.1.1zm-387.3-43.8l18.3-8.4c-4.2-1.3-7.3.5-10.7.5-5.8-.1-6.5.8-7.6 7.9zm137.8 89.4l-.1 1 7.5 1.4c7.2 1.3 7.3 1.3 10.4-6.3l-17.8 3.9zm-277.2 102c-9.4 1.1-11.2 2.9-12.3 12.9 4.4-4.2 8.9-7.8 12.3-12.9zm304.4-3.3c3.9 0 7.1.1 10.3-.1 1.6-.1 3.1-.7 4.7-1.2-8.5-7.7-6.6-7.9-15 1.3zm-157 209.6a110 110 0 0 0 15 17.4c0-6.1-7.6-14.9-15-17.4zM514.5 71.1l-19 1.4c5.8 1.7 10.6 3 15.3 4.6 2.1.7 2.8 0 3.1-1.8l.6-4.2zM220.2 174.6l17.8-9.8c-7 1-16.2-2-17.8 9.8zM466.7 320c11.1 8.1 11.1 8.1 15.9 1.1-2.4-.4-4.7-.9-7.1-1.1-2.5-.2-5.1 0-8.8 0zM452.1 82.8c-4.1-1.9-8.8-2-13.2-3.2-1.2-.4-3-.8-3.6.8-.4 1-.4 2.5 0 3.6.6 1.8 2.4 1.1 3.6 1l13.2-2.2zm235.1 125.8l11 5.5c.9.4 2.5 2.2 2.9-.7.3-2 2-5.2-.1-5.6a23 23 0 0 0-13.8.8zm-123.1-48.9c-4.1-.7-8.2-1.4-12.3-2.3-6.1-1.3-6.1-1.4-6.9 4.9 6.5.6 12.7-2.1 19.2-2.6zm-241 43.3l16.3-6.2c-12.2-2.1-12.2-2.1-16.3 6.2zm188 31.6c2.3 2.8 5.8 3.7 8.5 5.8.8.6 1.9 2.3 3 1.1 1.4-1.5 2.3-3.5 3.2-5.4.3-.6-.5-.9-1.2-.9-4.4.3-8.8-1.8-13.5-.6zm44 13.2c2.5-7.4 2.5-7.4-4.7-8.6-2-.3-4-.3-6.9-.6a575 575 0 0 0 11.6 9.2zm-240.6 20.9c3.9.4 6.5.4 9 .9 4 .8 5.4-1.4 6.3-4.7.6-2.3-.4-2.5-2-1.8l-13.3 5.6zM515 482.8c-3.9 2.5-6.1 6.5-8.8 10.1-2.3 3-1.7 5.9-.1 9.4l8.9-19.5zM544.1 93l-.1 1.3c3.8 0 7.7-.3 11.5.1 6.2.6 6.2.7 6.6-5.4l-18 4zm-187.5 97.6c5.4-.3 10.4-2.5 15.6-3.7-2-2.4-4.7-1.2-7-1.8-6.3-1.7-6.7-1.3-8.6 5.5zm-39.4-68c-4.8.4-8.3 2.2-11.9 3.7-4.5 1.8-4.5 1.8-3.4 7.1l11.7-7.9 3.6-2.9zM553 361.5l10.4 5c.6.3 1.4.1 2.1.1v-2.1c-1.6-6.4-3.2-7.2-9-4.4l-3.5 1.4zm-114.1 98.9c7.9 2.3 13.8 9.6 23 8.1a94 94 0 0 0-23-8.1zM290.1 217.9c4.8-3.5 10.1-4.1 14.3-7.5-9.5-3-10.7-2.4-14.3 7.5zM540.7 87.4c-5.3-2-10.2-1.4-15-1.7-3.7-.2-2.8 3.1-2.9 4.4-.2 2 1.8 1 3.1.7l14.8-3.4zm-14.5 602.4l-11.5 6.6c-1 .6-2.8.9-2.3 2.3a8 8 0 0 0 3 3.3c1.6.9 2.3-.7 3.1-1.8l7.7-10.4zM247 219.7L230.7 230c10.9.2 13.9-1.5 16.3-10.3zM589.1 91.3v.8l10.3 6.5c.8.5 2.1 1.7 2.8.8 1-1.4 1.7-3.2 1.9-5 .2-1.3-1.7-1.2-2.5-1.4l-12.5-1.7zM125.9 241.4c.9.4 1.8.2 2.7-.6l8.4-7.7c.8-.8 2.6-1.6 1.9-2.7-.7-1.1-2.4-1.6-3.8-2.1-1.8-.6-1.8 1.3-2.4 2.1-2.4 3.6-4.6 7.4-6.8 11zm140.3-32.5c10.7 1.9 13.7.2 15.2-7.9l-15.2 7.9zM397 345.5c4.4.7 7.7-1.5 11.3-1.5 1.1 0 3 .1 1.9-1.8-1-1.8-2.2-5.5-3.9-4.4-3.1 2.1-6.9 3.8-9.3 7.7zm-43.4-70.4l.1-.2-.3-.3-5.3-.9c-8.1-1.2-9.1-.5-10.1 6.5l15.6-5.1zm268.9-100l-16.9 1.4c3 1.7 6.1 2.3 8.9 3.4 4.4 1.8 7.2 1.2 8-4.8zm-162-1.3l-1.6-5.1c-.4-1.1-.8-1.8-2.3-1-3.9 2.1-7.9 4-12.7 6.4 6 .9 10.9-1.4 16.6-.3zM284.1 370c3.1.9 5.4 4.3 8.2.9 1.3-1.6 2.1-3.7 3.7-5.2.6-.5.8-1.4.3-2.1-.5-.7-1.5-.6-2.1-.1-2.9 2.3-6.8 3.3-10.1 6.5zM452.7 89.3l-.2.9c4.4.9 8.9 1.7 13.3 2.7 2.2.5 2.3-1 2.1-2.3-.1-1.2.9-3.4-1.2-3.3-4.7.4-9.3 1.3-14 2zm123.7 257c4.5 11.2 5.5 11.7 11.8 5.4-3.6-1.9-7.1-4-11.8-5.4zm160.3-194.8v-6.1c0-1.4-.5-2.5-2.1-2.2-3 .5-6.1.3-9.2 2.2l11.3 6.1zm-423.5-39.8c-4.9-1-8.8 1.8-13 3.1-2 .6-1.4 3.3-.6 4.8.8 1.4 2 .2 2.9-.5l10.7-7.4zm110.5 290.9c-4.6.2-8.1.3-11.5.6-1.3.1-1.9.9-1 2.2 3.1 4.7 6.8 4.8 10.1.2l2.4-3zm30.7 36.4l.6-1.3c-7.8-2.3-13.8-9.3-24.1-7.8l23.5 9.1zM270.7 227.2c-12.3-.3-12.3-.3-13.5 8 4.3-2.7 9-4.3 13.5-8zm249.4-59c2.5 3.5 7 3.6 9.9 6.1.7.6 1.5 1.2 2.3.2 1.2-1.2.8-2.9 1.1-4.3.2-1.3-.9-1.3-1.8-1.4-3.7-.2-7.4-1.5-11.5-.6zM344.7 361.1c-9.6-3.1-9.6-3.1-14.2 6 5-2 9.2-3.8 14.2-6zM486 587.8l4.6 13.5c5.1-7.7 5.1-7.7-2.3-11.9l-2.3-1.6zm-145.7-90.7c-8-2.7-14.3-3.5-18-2.6 12.5 6.1 12.5 6.1 18 2.6zM68.2 348.9c5.1.4 9.2 8.7 16.1 1.9a39.7 39.7 0 0 0-16.1-1.9zm397-7.5l-7.5-5.6c-2-1.5-3.6-1.1-4.5 1.3-.5 1.2-1.7 2.3-1.2 3.9 4.3 0 8.6-.3 13.2.4zm29.4 3.4c-2.7-2.8-4.6-5-6.7-6.9-.7-.7-1.5-2.4-2.9-.8-1.4 1.5-3.4 3-3.4 5.2 0 1.6 2 .7 3.1.9l9.9 1.6zm44.7-92.6c2.6 3.1 5.3 4.7 7.8 6.5 1.1.7 1.7 3.1 3.6 1.6 1.3-1 1.2-2.7 1.2-4.2 0-2.1-2-2-3.3-2.3-2.7-.7-5.6-1-9.3-1.6zM235.6 144.9l.1.8c1.4 0 2.7.2 4.1 0 9-1.2 9-1.2 9.8-8.1l-14 7.3zM303.8 508c5.5 2.2 9 7.1 13.6 8.8-1.1-1.2 1.7-4.6-.5-6-2.1-1.4-5.2-1.4-7.8-1.9l-5.3-.9zm-1.5-213.3l14.5-6c-2.4-.8-4.7-.6-6.9-.8-6.4-.5-6.4-.5-7.6 6.8zm-109.6-103l-.3-.8c-3.1.9-6.2 2.1-9.5 2.7-4.3.8-5.7 2.8-3.7 7.1l13.5-9zm334.2 137.6c.1 1.9 1.2 3 1.9 4.3.9 1.5 1.4 4 3.8 2.8 2-1 5-1.9 5.1-3.9.1-1.8-3-1.9-4.8-2.2-1.8-.3-3.5-1.7-6-1zM463.7 254l-3.1-4.7c-.5-.7-1.2-1.8-2.1-.8-2 2.3-5.3 3.4-7.1 6.7 4.4.2 8.3.5 12.3-1.2zm-15.6 327.5c2.7-2 4.8-4.1 6.8-6.8-3.5-1-6.6-2-10.4-2.2l3.6 9zM644 277.7c-1.8-2.8-4.4-3-6.3-4.5-1.2-.9-2.6-3.1-4.2-2.1-1.5 1-.4 3.3-.5 5-.3 2.3 1.4 2.3 3 2.2 2.5.1 4.9-1.2 8-.6zM382.9 566.9c-7.2-1.2-13.4-4.3-20.4-3.4 6.5 1.7 11.9 8.2 20.4 3.4zM305.7 379c4.2-1 7-3.2 9.9-5 .8-.5 2.6-.7 1.9-2a9.5 9.5 0 0 0-3.5-3.4c-1-.6-1.7.9-2.3 1.7-2 2.7-3.8 5.5-6 8.7zm227.7-141.6c.2 2.8-3 5.6.1 6.8 3.2 1.3 7 2.3 11.3 1.8l-11.4-8.6zm68.5-54.5c-4.1-1.2-8.2-2.6-12.4-3.7-3.2-.9-2.8 2.2-3.3 3.7-.9 2.4 1.5 1.9 2.5 1.7 4.3-.5 8.7-.9 13.2-1.7zm-83.3-7.7v-.6c-3.3-1.8-6.6-3.7-10-5.4-.8-.4-1.6-1.6-2.8-.7-1.4 1-.8 2.5-1 3.8-.2 1.8 1.6 1.8 2.5 1.9 3.7.5 7.5.7 11.3 1zM257.3 387.7c7.8 1.7 10.4-.3 11-8.2-3.5 2.9-7.8 4.4-11 8.2zm243.2 217c4-.4 7.8 2 12.2.4l-5.2-3.6c-5.8-4.3-5.8-4.3-7 3.2zm16.8 74.8l-10.1 4.2c-1.2.5-1.7 1-.9 2.3.9 1.5.4 3.8 2.3 4.5 1 .4 1.5-1.2 2.1-2.1l6.6-8.9zm15.3-57.6l.4-.9-6.4-5.6c-.7-.6-1.7-1.3-2.3-.2-.9 1.5-1.7 3.2-2.3 4.9-.2.6.7.8 1.3.9l9.3.9zM194.4 451.6c-3.3-.1-5.3 1.7-7.7 2.6-5.1 2-5.1 2.1-2.5 6.7l10.2-9.3zm237-291.2c4.6-1.8 8.8-3.9 13.6-7.1-3.6.4-6.1 1-8.6.8-4.4-.3-6.2 1.4-5 6.3zm87.1 526.2l.7.7 12.2-7-5.2-4-7.7 10.3zM408.6 178.9l.2-.7c-3.9-.9-7.8-2-11.8-2.7-2.9-.5-2.2 2.3-2.7 3.7-.7 2 .7 2 2.3 1.7l12-2zm74-5.9l.1.5h12.9c3.2-.1 1.8-2.6 1.9-4.1.1-2.5-1.6-1.5-2.8-1.1l-12.1 4.7zm17.7 289.5l-19.3-7.3-.5 1.2c6.5 2.2 11.7 8 19.8 6.1zM159.2 207.6c4.6.3 8.3-1.8 12.1-3.3 1.9-.8.1-2.3-.3-3.4-.5-1.3-1.3-1.4-2.4-.6l-9.4 7.3zm211.7 144.3c-11.4-3.7-12.1-3.4-12.5 4.1 4.1-1.4 8.4-1.8 12.5-4.1zM337 599.6c-2.4.8-3.3 2.4-4.7 3.5-1.2.9-3.3 1.3-3.1 2.9.2 1.7 2.5 2 3.9 2.7 2 1 3.2.9 3.7-2 .4-2.2.4-4.3.2-7.1zm-123.9-175a3 3 0 0 0-.7-.5c-3 2.6-6.1 5.2-9 7.9-2.1 2 .4 3.2 1.1 4.6.5.9 1.4.8 2.1-.3 2.1-4 4.3-7.8 6.5-11.7zm66.6-140.2c11.8 1.4 13 .8 12.8-6.2l-12.8 6.2zm79.5 377.3l.1-.5-18.3-6.5c-1-.3-2.3-.8-2.8.6s.5 2.3 1.9 2.5l19.1 3.9zm-84.4-528.9v-.8l-12.9 1.7-2.6.5c.3 1.2.4 2.4.9 3.5.5 1.4 1.8 1 2.7.6l11.9-5.5zm-206.5 141c2.3-.3 3.9 3.4 5.5 1.4 2.6-3.2 4.3-7.1 5.4-10.7l-10.9 9.3zM430.6 257c-9.8-6.1-8.6-5.7-12.4 2.2 4.2-.4 8.3-.6 12.4-2.2zm-242.1-76.5l-.6-.7c-4 1.2-8 2.5-12.1 3.5-2 .5-1.6 1.5-.9 2.6.6.9.6 3.2 2.7 1.9l10.9-7.3zm369.2 445.9c-6.3-3.8-13.3-6-20.2-8.6 5.2 6.9 13.2 6.5 20.2 8.6zm-39.1-276.6c-5.3-10.1-3.7-9.8-11-2.2l11 2.2zm43.2-10l-5-2c-1.6-.7-3.1-1.6-4.9-1.5 1.6 8.9 2.9 9.4 9.9 3.5zm4.4-72.9c3.1 1.3 6.2 2.4 9.5 2.8 2.8.3 1.8-1.8 1.9-3.1.1-1.3.1-3.3-2-2.6-3 1.1-6.5.7-9.4 2.9zm-79.7-108.3v.7c3.6 0 7.2.2 10.8-.1 2-.1 2.1-2 1.9-3.5-.4-2.6-1.9-1.1-3-.7l-9.7 3.6zM224.8 319l-.5-.7c-3 2.1-6.1 4.2-9 6.4-2.1 1.6 0 2.5.8 3.5 1.3 1.5 2 1.2 3-.5 1.7-3 3.8-5.8 5.7-8.7zm198.5-161.5l-11.7 6.6c11.5-.7 13.6-.6 11.7-6.6zm-114.1 576c.2-9.2-.1-9.4-9.7-7.5 3.1 2.8 5.8 5.5 9.7 7.5zM372.8 173l-12-1.4c-2-.3-3.2-.3-2.1 2.2.4.9.6 2 .9 3.1l13.2-3.9zm.9-6.8v.7c3.9.4 7.9.6 11.7 1.2 1.9.3 1.4-1.2 1.9-1.8.7-1.1.8-2.4.1-3.4-.7-.9-1.6-.1-2.5.1l-11.2 3.2zm-94-29.2l.2.6c4.7-.6 9.4-1.1 14.1-1.9 2.1-.4.7-2.3.7-3.4.1-1.5-1.1-1.6-2.3-1.1l-12.7 5.8zM68 300.4c3.1-3.3 5.5-5.9 7.8-8.6.6-.8 1.2-1.9-.4-2.6-1.4-.6-3-1.5-3.9.5-1.4 3.1-3 6.2-3.5 10.7zm113.1 127.4c5.6 2.3 10.4 8.6 18.1 4.1l-18.1-4.1zm328.6 248.5l9.7-4.4c.8-.4 1.8-.9 1.2-2-.7-1.3-1.6-2.7-2.7-3.5-1.3-1-1.5 1-2 1.6-2 2.2-3.6 4.7-6.2 8.3zm-1.6-56.7l-8.7-6.4c0 3.3-1.2 6.9.5 8 2 1.3 5.2-.4 8.2-1.6zM41.3 306c6.7.2 11.4-5.8 9.3-11.4L41.3 306zm197.5 94.9l-8.5 7c-2.1 1.8.1 2.8.8 4 .5.9 1.3 1.3 2-.1 1.8-3.2 4.5-5.9 5.7-10.9zm-45.1-217.3c5.4-.3 9.1-2.1 13.1-3.3 2.2-.6 1-2 .7-3.2-.5-2-1.4-1.4-2.6-.6-3.4 2.3-6.9 4.4-11.2 7.1zm-74.2 48.9c3.5-1.3 5.3-4.2 8.1-6 3.1-2 2.9-3.1-.7-5.9l-7.4 11.9zm176.9 508.3l-.1.7 7.3 5.9c.7.5 1.4 1.4 2.3.5 1.1-1 2.2-2.2 2.4-3.8.1-1.3-1.1-1.4-2.2-1.6l-9.7-1.7zm6.7-549.9c2.3 1.1 4.6 1.2 6.8 1.9 2.8.9 3.5-1.9 4.7-3.4.6-.7.8-2 0-2.5-1.7-1.2-3.1.2-4.6.9l-6.9 3.1zm93.2-24.7l5.5-3c1.6-.9 3.3-1.6 4.5-3.4-9.1-1.2-10.6-.2-10 6.4zm110.5-12.4c-.4 6.4 3.7 8.3 11.9 6.1l-11.9-6.1zm-168.7 23.1l.1.7c1.6.2 3.3.2 4.8.6 4.7 1.3 6.7-.6 6.4-5.7l-11.3 4.4zm46.7 231.9v1.1c1.8.7 3.5 1.6 5.4 2.1 1.2.3 2.8 1.9 3.9-.3.7-1.5 2-3.5 1.5-4.5-.8-1.5-2.9-.5-4.4 0l-6.4 1.6zM477.3 743c-2.8-.9-5.5-3.3-7.3-1.9-2.5 1.9-1 5.4-1 9.1 3.2-2.7 6-4.3 8.3-7.2zm-117.1-90.6l.4-.9-16.2-5.6c-.9-.3-2.1-1.1-2.7.5-.5 1.7 1 1.7 1.9 1.9a805 805 0 0 0 16.6 4.1zm80.3-333.3c.7 2.5 2.3 3.2 3.7 4 1.1.6 1.8 3.2 3.6 1.2 1.1-1.2 2.4-3 2.2-4.3-.3-1.9-2.5-.8-3.9-.9h-5.6zm159.8-64.7l-6.5-2.9c-1.2-.5-2.6-1.2-3.6.4-.8 1.4-.9 3-.2 4.3.8 1.6 2.1.2 3.2-.1 2-.3 3.9-.9 7.1-1.7zM219.4 434.9l-1.5-1.5c-1.4 2-2.5 4.6-4.4 5.7-4.5 2.6-2.6 4.5 0 7.1 1.9-4 5.1-7.1 5.9-11.3zm-.9-195.6c1.8 5.5 1.8 5.6 5.8 2.7l4.9-3.6-.3-.7-10.4 1.6zm133 430.9l.3-1.5c-4.5-1.7-8.9-3.6-13.6-4.5-.7-.2-1.7-1.2-2.2.3-.3 1 0 2 1 2.3l14.5 3.4zm-62 62.3c3.8 1.6 8 2 12.7 2.9-1.6-2.6-4-3.3-5.5-4.9-3.2-3.1-5.6-3.3-7.2 2zm389.4-626.9l-5.3-6.6c-.1-.1-1 .1-1.1.3-.9 1.7-3 3.6-1.4 5.2a9.3 9.3 0 0 0 7.3 2.4c.2-.1.3-.8.5-1.3zM355.3 267.7c2.9 2.1 5.8.7 8.4 1.5.9.3 1.9.5 2.4-.4.5-1.1.2-2.3-.3-3.5-.8-1.6-1.9-.7-2.7-.5l-7.8 2.9zM354 680.3l.1-.6L337 674c-1-.3-2.2-.8-2.7.6-.3 1 .3 1.8 1.3 2.1l18.4 3.6zm235.9-405.2c3.9 2 6.8 3.9 10.3 4.4.4-6.8.4-6.8-6.1-5.2a40 40 0 0 1-4.2.8zm-264 155.8c8.9 2.4 9.6 2 9.7-5-3.3 1.6-6.7 2.7-9.7 5zm124-29.1h-7.5c-1.6.1-3.8-.9-4.6.7-.8 1.5 1.6 2.6 2.1 4.2.5 1.9 1.8 1.2 2.7.6a646 646 0 0 1 7.3-5.5zm132.9-151.2c-4.4.4-8.2 1-12.2 2.5 9.9 2.8 9.9 2.8 12.2-2.5zM289.4 389c-6.2-4.3-6.7-4-9.8 6.3l9.8-6.3zm74.5 254.5v-.9l-15.4-5.4c-1.2-.4-2.3-.4-2.7.7-.7 1.8 1.1 1.5 1.9 1.7l16.2 3.9zm-39.5-295.3c-10.8 5-10.8 5-5.8 8.9l5.8-8.9zM194.7 459.7a18.9 18.9 0 0 0-7.6 6.6c-1.3 2-.3 3.3 1 4.2 2 1.4 2.1-.8 2.6-1.8l4-9zm191.9 19.9c-5.5-1.4-10.5-3.9-16.2-4 5.2 2 9.4 7.5 16.2 4zm-79.7-37.4l-.6-.5-6.1 3.6c-1 .6-2.7 1.2-2.2 2.4a5.9 5.9 0 0 0 3 3.2c1.5.6 1.5-1.4 2.1-2.3l3.8-6.4zm-57.4 45.4c-3.5 1.3-4.7 4-6.5 6.2-.6.8-2.2 1.4-1.4 2.5.6.8 2.1 1.1 3.2 1.5 1.6.5 1.6-1 1.9-1.8 1-2.6 1.8-5.3 2.8-8.4zM157.6 379l-1.5-1.2-4.8 6c-.6.8-2.1 1.2-1.7 2.4.5 1.5 2.3 1.3 3.4 1.8 1.4.6 1.7-.9 2.1-1.8 1.1-2.3 2.6-4.5 2.5-7.2zM403.3 90.9c-4.3-.8-7.8-1.6-11.3-2.1-.7-.1-2-.8-2.3.5-.3 1.1-.2 2.5.2 3.6.4 1 1.5.6 2.4.4l11-2.4zm113.8 548.9c8.6 5.9 8.8 5.9 9.9.5-1.5-.2-3-.2-4.5-.6a10 10 0 0 0-5.4.1zM359.7 774.2c-2.3-8.2-3.1-8.4-9.1-2.3 2.7 1.4 5.6 2.3 9.1 2.3zM542.5 666c-11 4.9-11 4.9-6.2 9.7l6.2-9.7zm-78.2-256.7l9-4.9c-3.5-1.3-6.9-2.3-9.5-1.1-1.8.8.9 3.5.5 6zM418.6 503c-.1-2.3-2.1-3.1-2.8-4.9-.4-1.1-1.6-1-2.1-.2-1 2-4.4 3.4-3.5 5.3.9 1.9 3.9 1 6.1.3l2.3-.5zm98.7-248c1.1-1.9 2.3-5.5 1.1-5.6-2.8-.4-5.8-2.2-9.5-.6l8.4 6.2zm7.3 378.1l-5-4.4c-.9-.7-1.9-2.1-3-.5-.9 1.2-2.6 2.2-2.2 3.8.3 1.3 2 1 3.2 1 2.2 0 4.5-.2 7 .1zm190-510c.5-2-.6-2.9-1-3.9-.7-1.5-1.7-2.9-2.4-4.3-.5-1.1-1.1-1.3-2-.5-2.4 1.9-2.3 4.8.4 6.3l5 2.4zm1.1 13.9c4-6.5 3.5-7.3-4.5-8.3.7 3.1 2.7 5.4 4.5 8.3zm-431 576.3c1.4 1.6 2.5 2.9 3.7 3.9.8.7 1.4 2.5 2.9 1.3 1.3-1 2.5-2.6 2.3-4.2-.2-1.5-2.1-.6-3.2-.8-1.6-.4-3.3-.8-5.7-.2zm467.7-563.5c-3.1-1.7-5.7-3.9-9.1-4.7-.5 7.8-.5 7.8 9.1 4.7zm-270.9 17l-.2-1h-9.5c-3.4-.1-1.7 2.9-2.6 4.4-.6 1 .8 1.3 1.7.9l10.6-4.3zM507.8 612c.8 2.7 3.1 3 4.5 4.3.7.7 2 1.9 3.1.5.9-1.1 2.5-2.2 2.2-3.8-.4-2-2.3-.9-3.4-1-2.1-.1-4 0-6.4 0zm-134-432.7c2.5.4 5 1.5 7.8 1.7 5.2.4 5.2.6 4-4.5l-11.8 2.8zm-25.2 509.6l.2-1.1-12.3-4c-.7-.2-1.7-1.2-2.1.4-.2.9-.4 2 .9 2.2 4.4.8 8.7 2.5 13.3 2.5zm33.7-427.5c.7 1.7-1.7 5 1.7 4.8a19 19 0 0 0 10.4-2.9l-12.1-1.9zM400.6 668l-.2.6 15.3 5.3c.8.3 1.3.5 1.8-.4.6-1.2.2-1.7-.9-1.9l-16-3.6zM251.8 300.2c2.7 1.3 4.6-.3 6.7-.4 5.5-.2 5.5-.3 3.5-5.9l-10.2 6.3zm327.4 73.2c2.5 2.2 4.9 3.9 7.9 4.6-.3-2.9-.7-5.6-1.9-8.4l-6 3.8zm-11.5-113.8l.2-1c-2.3-.6-4.7-1.1-7-1.8-1-.3-2.1-.9-2.6.6-.4 1.2-1.1 2.8-.7 3.8.5 1.4 1.8-.1 2.8-.3 2.4-.3 4.9-.9 7.3-1.3zm-417.7 40c-4.2.1-7.2 2.2-10.9 3.5 1.3 1.4 1.4 4.7 3.8 3.2 2.6-1.6 5.4-3.3 7.1-6.7zm164.3-23.7l-.2-.8h-10.6c0 3.3.4 5.5 4.5 3.4 2-1.1 4.2-1.7 6.3-2.6zm98.4 46.2c2 2 2.5 5.7 4.5 5.1 2.6-.7 4.6-3.4 6.4-6.5l-10.9 1.4zm-129.5 409c.8-1.2 1.5-2.5 2.4-3.6.7-1 .5-2.1-.5-2.1-2.8-.1-5.6-1.8-9.1-.7l7.2 6.4zM255.4 313c-3.7.8-5.6 3-8.1 4.1-1.3.6-1.6 1.8-1.2 3.1.3.8.8 2 1.4 2.1 1.3.2 1.5-1.2 2.1-2 1.7-2.4 3.6-4.5 5.8-7.3zm363.5-23.5c-.3-2.8 1-5.9-.7-6.6-2.3-.9-4.7 1.4-7.7 2.7l8.4 3.9zM293.3 664.2c3.8-1.6 6.3-2.6 8.7-3.8.6-.3 2-.3 1.4-1.7-.5-1.3-1.2-2.5-2.4-3.1-1.1-.6-1.4.5-2 1.3l-5.7 7.3zM573.6 245l-6-1.6c-4.6-1.4-5.5-.7-5.2 4.6 3.5-1.5 7.4-.9 11.2-3zM87.2 262.3l.7.5a138 138 0 0 0 6.8-6.5c1.5-1.6-.1-2.8-.9-3.8-.5-.7-1.2-.5-1.7.4l-4.9 9.4zm587.7-149.1c1 2.4 3 4 4.1 6 2.1 3.8 3.1 2.4 4.4-.4.9-1.7.8-2.8-1.2-3.3-2.3-.6-4.3-2.4-7.3-2.3zM294.8 472.1l.6.7 5.8-3.8c.9-.6 2.5-1.2 1.7-2.6a6 6 0 0 0-2.9-2.6c-1.1-.4-1.4 1.2-1.9 2.1a350 350 0 0 0-3.3 6.2zM132.5 407c6.7.7 7.4-.2 6.3-7.7l-6.3 7.7zm334.1-79.7a10.8 10.8 0 0 0-5.1-4.3c-.9-.5-1.7-2.1-2.9-1.2-1.3 1-1.1 2.8-.8 4.3.3 1.9 1.8 1.1 2.9 1.2h5.9zm-66.3 99.4c3.3-1.5 7.2.2 8.5-2.3.9-1.7-3.4-2.4-4.5-4.4l-.8-.2-3.2 6.9zm-2.6 250.8c5.3 1.9 9.7 3.5 14.1 4.9.8.3 2.1 1 2.6-.7.2-.7.4-1.5-.8-1.6-5.1-.6-9.8-3.1-15.9-2.6zM238.2 157.3c3.4 1.2 5.9-.8 8.6-.5.8.1 2.2.3 2.3-.8.1-1.1-.3-2.4-1-3.4s-1.7 0-2.4.4l-7.5 4.3zm44.3 561.2c-8.5-8.5-6.6-7.5-10.2-1.8l10.2 1.8zM403.4 98.1l9.1 1.4c.9.2 1.9.8 2.4-.2.4-.9.4-2.1.2-3.1-.3-1.4-1.7-1.3-2.6-1-2.7.9-5.7.8-9.1 2.9zm138.8 259.2c-2.1-3.2-1.2-6.9-3.3-7.5-2-.5-4.3 1.8-6.2 4.2l9.5 3.3zM393.1 250.7l-.1-.8c-2.4-.4-4.9-.3-7.1-1.2-5.3-2.1-4.8 1.1-4.3 4.5l11.5-2.5zM290.5 706.8l-4.1-4.4c-.8-.8-1.5-2.4-2.8-1.5a6.2 6.2 0 0 0-2.4 3.7c-.4 2.1 2 1.3 3 1.7 1.7.6 3.7.3 6.3.5zm105.3-449.9l9.6 2.2c.8.2 2.1.3 2.3-.8.2-1 .2-2.2-.1-3.1-.4-1-1.6-.8-2.4-.6l-9.4 2.3zm-1.4 68.6c-9.6 1.5-9.9 1.3-8.6 6.9 3-1.8 5.9-3.7 8.6-6.9zm74.6 99.8c1.7 1.8 3.3 1 4.7 1.4 1.1.3 2.5 1.5 3.1-.1.5-1.3.6-3.3-.2-4.3-1-1.3-2.3.4-3.4.9-1.4.5-2.7 1.3-4.2 2.1zm-224.9-12.7l-5.6 4c-1.2.9-1.6 2.2-.9 3.6.3.6.9 1.7 1.3 1.7 1.5 0 1.6-1.5 2.2-2.5 1.3-1.9 2.7-3.6 3-6.8zm180.1-237.8c-1.3-1.6 1.2-5.3-2.2-5-3 .3-6.4.2-9.6 2.4l11.8 2.6zM393.7 696l13.5 4.3c1 .3 2.3 1.7 2.9-.4.4-1.4-1-2-1.9-2-4.6-.5-8.8-2.6-14.5-1.9zM147.8 423.5c5.2 2.1 9.6 3.9 15.2 4.9-5.4-4.3-11.2-6.4-15.2-4.9zM622 264.1l-6.2-3.1c-.5-.3-1.1-.3-1.7-.5-.9 7.3-.8 7.3 7.9 3.6zM293.5 646.7l-2.3 11.5c6.8-9.2 7.1-7.4 2.3-11.5zm.5 56c2.4 2.2 4 5.4 7.4 6.1 1 .2 2.6.7 3.1-1 .5-1.6-.9-2.2-2-2.6-2.7-1-5.6-1.7-8.5-2.5zM191.6 445c2.7.4 4.6-1.6 6.9-2.1.8-.2 2.5-.5 2-1.9a5.5 5.5 0 0 0-2.1-2.9c-1.2-.9-1.8.6-2.6 1.2-1.8 1.5-3 3.5-4.2 5.7zm305.6-115.2a31.5 31.5 0 0 0-6.1-6c-2.1 6.3-1.3 7.1 6.1 6zm-298 9.3c-3.3-.5-4.1 2.7-6.3 3.5-.8.3-2.2 1-1.5 2.2a6 6 0 0 0 2.9 2.6c1.3.4 1.4-1.3 1.8-2.1l3.1-6.2zm320.6 263.3c3.8 5.5 10.2 5.3 16 6.8l-16-6.8zm16.8 26.6c-3.3-1.6-6.9.1-10.7-1.8 6.5 7.7 6.6 7.7 10.7 1.8zM59.9 301.1c-7.7 7.3-7.7 7.3-4.1 10.5 2-3.1 2.8-6.6 4.1-10.5zm290 329.6l15.6 4.3c-5.4-4.5-12.8-6.5-15.6-4.3zM188.7 267.5c-3.3-.4-5.6 1.6-8.4 1.8-.9.1-2.6-.4-2.5 1.2 0 1.1.7 2.4 1.6 3.2 1 .9 2-.2 2.8-.8l6.5-5.4zm180.2 64l7.9 2.1c.8.2 2 .4 2.3-.8.2-1 .2-2.2-.2-3.1-.4-1-1.4-.7-2.4-.4-2.4.8-4.9 1.4-7.6 2.2zm-15.5 188.7c3.1-1.5 6.3-2.2 9.4-5.1-4 1.1-10.3-4.6-9.4 5.1zM341 265.6l10.2-3.3c-3.5-2.3-7.5-.7-10.9-2.2l.7 5.5zm19.6 70.5c.4 6 .4 6 9.1 2.2l-9.1-2.2zm-79-38.4h7.9c.8 0 2.1.5 2.3-.7.2-1 0-2.2-.4-3.1-.7-1.3-1.9-.5-2.8 0l-7 3.8zm38.9 452.2c-1.1-2-2.2-3-3.6-3.6-.8-.4-1.5-2.2-2.5-.9-.8 1.1-2.6 2.1-2 3.8.5 1.4 2.1.6 3.2.7h4.9zm-68.9-442.7c-3.3 1.3-7 .4-10.1 2.1 1.8 4.3 3.8 4 10.1-2.1zm193.8-147c2.9 1.5 5.2-.2 7.7-.3 4.1-.1 4.1-.2 3-5l-10.7 5.3zM432.9 423c-.9-2.2-1.7-5.4-3.2-5.1-2 .4-3.6 3-6 5.1h9.2zm50.4-168.8c8.9.7 8.9.7 8.3-5.2-2.7 2-6.3 2-8.3 5.2zm14.1 172.2l-8.2 3.7c7.4 3.2 7.7 3.1 8.2-3.7zm-333-47.8c7.3-5 7.6-5.7 4.4-10.2l-4.4 10.2zM507.7 713c-3.2 1.2-5.5 2.2-7.9 3-.8.3-1.5.5-1.3 1.5.2 1.4 1.3 2 2.3 2.7.9.6 1.4-.2 1.9-.7l5-6.5zm-38.1-219.3l4.1-5.4c-2-.4-4.2-1.6-7-1.4.8 2.4 1.1 4.6 2.9 6.8zm30.1-150.9c2.5-5.8 1.8-6.4-5.8-5.7a21 21 0 0 0 5.8 5.7zm-27.5-3.2c1.7-1.2 1.9-4.2 1.6-4.4a12.6 12.6 0 0 0-9-1.2c2.1 2.5 4.9 3.8 7.4 5.6zm-76.9.2c-3.2-1.1-5.3.4-7.5.6-2 .2-2 2.2-1.5 3.6.8 2.4 2.1.6 3.1 0l5.9-4.2zM247.4 239.5c-2.2-1-.5-5-3.8-3.6-2.8 1.1-5.1 3.4-7.6 5.2l.3.7c3.3-.8 6.6-1.4 11.1-2.3zm237.2.3c6.5 2.6 9.2 1.2 8.7-4.3l-8.7 4.3zm-202 64.7c-3-1.8-6-1.8-8.5-.8-1.5.6-.7 3.1-.4 5.2l8.9-4.4zM382.7 90l-8.6 7.4c9.2-1.7 9.2-1.7 8.6-7.4zm158.4 339.2c-3.9 5.4-3.8 5.5 3.7 8.4l-3.7-8.4zm-170.4-84c2.9.7 4.8 1.1 6.7 1.7 1 .3 2.1 1 2.9 0 .9-1.2-.3-2.3-.6-3.4-.4-1.6-1.4-1-2.4-.6l-6.6 2.3zm-214.5-43.8c3.6.2 5.5-1.3 7.7-1.8 1.7-.4 2.5-1 1.5-2.8-.9-1.5-2-2.1-3.5-.8-1.8 1.5-3.3 3.1-5.7 5.4zM516 415.1c-2.8-1-4.6-2.7-7.2-2.4v5.3c1-.2 2-.2 2.8-.6 1.3-.5 2.4-1.2 4.4-2.3zM270.1 291.4c1.5 5.1 3 5.1 9.7 0h-9.7zM249 395.8c-1.3 3.2-4.1 5.4-4.8 9.1 8.3-4.1 8.5-4.5 4.8-9.1zm-15.9-242.5a18 18 0 0 0-7.7 0c-.9.2-2.4-.4-2.4 1.3 0 1 .4 2.2 1.1 2.9.9.9 1.9.1 2.8-.4l6.2-3.8zm218.3 352.5c2.2 0 4.4 2.9 6.1.4.6-.8-.5-4.1-1.4-4.4-2.6-.8-3.1 2.3-4.7 4zm308.2-368.9l-.5.5c1.3 2 2.5 4 3.9 5.9.6.8 1.2 2.2 2.3 1.6.8-.4 1.5-1.5 1.9-2.4.7-1.6-1.1-1.6-1.8-2.1l-5.8-3.5zm-252 299.4c3.2 1.4 5 3.5 7.2 1.9.9-.7 1-3.2.1-3.8-2.5-1.8-4 1.3-7.3 1.9zM552.8 641c-3-2.4-3.5-5.5-6.7-6.6v7.7l6.7-1.1zm-9.5-196.8c-2.3-.8-3.3-4.4-6.1-2.9-.8.4-1.4 3.5-.8 4 2.3 2.2 4.4-.8 6.9-1.1zM193.6 270.3l.4.8 7.3-1.9c.8-.2 2.1 0 2-1.2-.1-1-.4-2.2-1.1-2.9-1.2-1.3-1.8.4-2.5.9a84 84 0 0 0-6.1 4.3zm-27.7 116.3l-1.4-1.2c-1.4 1.8-2.6 3.7-4.2 5.3-1.6 1.7-.2 2.4.7 3.2 1.7 1.6 2-.2 2.4-1.2.9-1.9 1.6-4 2.5-6.1zM37.3 328.8l-6.2 8.3c5.7 0 6.1-.6 6.2-8.3zm154.3 39.4c2.6-1 3.8-3.1 5.4-4.6 1.7-1.5.1-2.3-.8-3.2-1.5-1.5-2.2-.2-2.5 1-.5 2.2-2.2 3.9-2.1 6.8zm232.5-128.6c-.4 5.9 0 6.1 7.2 3.8l-7.2-3.8zm64.4 375.1l-4 5 6.3 1.4c-.4-2.5-.8-4.5-2.3-6.4zm-89.4 73.2l11 3.7c.8.3 1.5.5 1.7-.6.1-.7.2-1.8-.7-1.9-3.7-.1-7.1-2.5-12-1.2zM302.7 633c-2.5 1.9-4.5 3.3-4.9 6.1 5.6 1.7 5.5-1.7 4.9-6.1zM131.2 317.2c3-1.5 4.4-3.4 5.9-5.1 1.3-1.6 0-3-1.2-3.8-1.5-1-1.6 1-2 1.7-.9 2.1-1.5 4.2-2.7 7.2zM274.3 683c-2.9 0-4.4 1.7-6.1 2.8-.7.4-2.1.4-1.8 1.6.2.7 1.2 1.2 1.9 1.7 1.2.8 1.8.1 2.5-.9 1-1.7 2.2-3.2 3.5-5.2zM128.6 332.7l4.2-9.4c-6.9 4.4-7.3 5.3-4.2 9.4zm169.8 336.9a3 3 0 0 0-.4-.8c-1.9.8-3.8 1.5-5.6 2.5-.8.4-2.5.5-2 1.9.3.9 1.3 1.6 2.2 2.2 1.2.8 1.8 0 2.4-1.1 1-1.7 2.2-3.2 3.4-4.7zm407.9-433.8c-1.1-2.3 1.8-5.7-1.4-6.9-1.4-.5-3.5 1.8-3.5 3-.2 2.8 3.4 2.1 4.9 3.9zM447.5 422.6c2.4 1.5 5.1 2.4 6.9 1.1 1.8-1.3-.7-3.5-.4-5.8l-6.5 4.7zm34-175.2c-2.5 1.2-8.2-3.2-8 4.2 3.3-.9 5.8-2.2 8-4.2zm-85.9 84.3c8.8.2 9.9-.7 8-6l-8 6zm-351-2.8l5.7-7.8c-5.9-.4-5.9-.4-5.7 7.8zm354.9 378.3l8 2.7c.9.3 2 1.3 2.5-.3.4-1.3-.8-2.1-1.8-2.2-2.7-.4-5.5-1.5-8.7-.2zm95.4-298.7l-7.4-1.8c-.3 1.9-.9 4.6.2 5 2.8.9 4.8-2.2 7.2-3.2zm238-276.7c6.3 3.8 6.3 3.8 8.8-1.6l-8.8 1.6zM411.6 719.5c-5.2-3.8-10.2-3.3-14.8-4.1 4.7.7 8.6 4.1 14.8 4.1zm99.3-478.1l-8.8-5.8c-.5 5.8 0 6.2 8.8 5.8zM307.5 358.6l-4.6 6c-.4.5-.9.9-.3 1.5.3.3.8.6 1.1.5 3.6-.5 5.6-4.2 3.8-8zm222.3 302.2c1.6-2.3 4-3.4 3.3-6-.2-.6-2.6-1.4-3.2-1-2.7 2 .2 4.2-.1 7zm-115.4-7.2c10.6 4.5 10.6 4.5 12.8 2.9a57.8 57.8 0 0 0-12.8-2.9zm-144.7 24.3c2.5-1.1 4.3-1.7 6-2.6.9-.4 2.1-1.2 1.8-2.2-.3-.8-1.5-1.4-2.4-1.9-1.3-.7-1.9.4-2.4 1.3l-3 5.4zM374 104.7c-7.7.1-8.2.6-6.8 5.8l6.8-5.8zm292.1-7.2c-3 1-5.9 1-8.7 2.7 7.2 2.3 7.2 2.3 8.7-2.7zM572.8 367c3.3-5.3 3.3-5.3-2.8-6.9l2.8 6.9zm-205.4 67.4l4.7-1.2c1-.3 1.5-1.2 1.2-2.1-.3-1-.4-2.3-1.6-2.5-1-.2-1.8.7-2 1.5-.5 1.4-2.3 2-2.3 4.3zm-87.1 44.9a24.2 24.2 0 0 0-3 7.6c6.1-3.2 6.4-4 3-7.6zm76.3 143.1c3.9 2.5 8.5 3.1 12.9 4-4-2.2-8.1-4.3-12.9-4zm248.1-362.5l-8.5 2.2c3 .4 7.2 5.5 8.5-2.2zM319 280.5l.3.9h6.8c1.9 0 1.8-1.3 1.6-2.5-.2-1.6-1.4-1.5-2.4-1.2-2.1.8-4.2 1.9-6.3 2.8zm66.4 142c-2.7.1-5-.4-5.6 2.6-.2.9 0 2.3.8 2.3 2.5-.1 3.5-2.1 4.8-4.9zm88.8 92.5l-.6-6c-.1-.7.1-1.6-.8-2-.9-.4-1.4.5-1.8 1-.7.9-2.2 1.3-1.7 3.1 2.5-.1 3.3 2.1 4.9 3.9zm54.2-95.5c-.4 1.9-2 4.2-.3 5.1 1.7.9 3.5-1.2 5.7-2.5l-5.4-2.6zM338.7 189.9c3 .6 4.9 1 6.7 1.2 1 .1 2.3.3 2.4-1.2.1-.7 0-1.6-.3-2.1-.7-.8-1.6-.3-2.4.1l-6.4 2zm-75.5 521.3c.7-7.7.7-7.7-4.7-6.5.7 2.5 3.2 3.6 4.7 6.5zm72.6 55c-1.3-3.5-2.3-5.8-4.8-7-.2-.1-1.8 1.7-1.6 2.4.6 2.9 3.6 2.7 6.4 4.6zM33.9 323.4c2.5-.8 2.9-3.1 4.3-4.4 1.4-1.4-.1-2.2-1-2.9-1.8-1.3-1.7.5-2.2 1.5-.8 1.7-.9 3.5-1.1 5.8zm268.8-125.7c-2.3-.5-4.1.2-5.8-.8-.6-.4-1.5-.3-1.8.6-.3.9-.3 1.8.4 2.5.5.6 1.1.9 1.9.4l5.3-2.7zm-36.8 274.1c-7.2 5.4-7.2 5.4-3.6 8.5l3.6-8.5zm463.9-334.7c-3.2-1.6-6.2-5.5-7.9 1 2.7 1 5.1-.1 7.9-1zM362.4 486.2l-10.8-3.1c3.6 1.2 6.3 5.6 10.8 3.1zm125.9 246.5l5.7-5.1c-5.7-.7-5.9-.4-5.7 5.1zM434 503.6c7.8 1 8 .9 6.6-4.2l-6.6 4.2zm-84.3 70.1l8.9 3.8c1 .4 1.9-.2 2.1-1.1.3-1-.7-1.1-1.5-1.2-2.8-.3-5.5-2-9.5-1.5zm-76.1-104.8l-3.5 8c2.1-2 7.2-2.7 3.5-8zm363.7-172.5c-2.4-1.1-4.4.3-6.8.8 5 4.3 5.3 4.2 6.8-.8zM275.5 691.7c4.7.3 4.7.3 3.9-6-2 1.4-2.8 3.5-3.9 6zm-21-199.1c4.5-5.3 4.5-5.3 2-8.2l-2 8.2zm38.2-38.7c-1 3-2.9 4.8-3.2 7.6 5.6-3 5.7-3.2 3.2-7.6zm145.5-199.6c.4-5.3-.6-5.8-6.3-3.1l6.3 3.1zm47.5 243.8c1.4-1.5 4.8-.9 4-4-.4-1.4-3.1-2.1-3.9-1.7-2.9 1.5.8 3.6-.1 5.7zM593.3 268c-1-1.9-3.1-1.4-4.4-2.4-.9-.7-1.8-.3-2.2.7-.3.8-1.3 1.6-.7 2.5.6.9 1.6.5 2.5.3l4.8-1.1zM154.1 408.1c2.1-1.9 4-3.2 3.6-5.8-.1-.4-2-1.1-2.3-.9-1.8 1.7-1.8 3.8-1.3 6.7zm102.9 89l7.3-1.5c-2.5-4.1-2.5-4.1-7.3 1.5zm9.5-281.2h-6.4c-.7 0-1.6-.2-1.9.8-.3.8.2 1.4.6 2.1.7 1.3 1.6.5 2.3.1 1.4-.6 2.8-1.5 5.4-3zM247.1 515c-3.5-4.7-4.2-4.7-6.7 0h6.7zm13.5-11.4c-3.1-.9-5 .6-7.5.8 3.3 5.6 4.9 1.2 7.5-.8zm8-12.6c1.1-2.4 2.6-4.5 2.7-7.4-3.9 1.5-5.5 3.5-2.7 7.4zm369.9-206.7c4.5 4.2 4.5 4.2 7.7-1.6-2.7 1.9-5 1-7.7 1.6zM518.7 462.8l-11.3-4.8c3.5 2.2 6.6 5.4 11.3 4.8zm34.1 184.8c-2.4.6-4.5-.3-5.2 1.8-.4 1.2 1.2 2.8 1.9 2.8 2.3.1 1.9-2.4 3.3-4.6zM389.2 490.8c.3-1.9 3.3-3.2 1.4-5-.7-.7-3.2-.7-4.1.8-1.4 2.5 1.5 2.9 2.7 4.2zm-56.4 40.7c2.4-.3 4.1-1.6 5.7-3-1.9-1.7-4.1-1.4-6.2-1l.5 4zm76.3-48.9c-3.3-.5-5.3-.3-6.4 1.4-.4.6.1 3.2 1.4 3.2 2.5.1 2.4-2.9 5-4.6zM570 347.1c-3.4 5.1-3.3 5.2 3.4 6.7l-3.4-6.7zm-457.6-11.3c-2.5-.1-5-.1-6.2 1.6-.9 1.2 1.2 2.3 2.1 3.7l4.1-5.3zm328.3-8.8c-1.5-2.3-3.5-2.9-5.2-4.2-1 4.6-1 4.6 5.2 4.2zm89.4 113.6l-5.9 3.2 5.4 2.3c-.2-2 1.3-3.2.5-5.5zM124.4 336.5c-3-4-3.3-4-7 2.1l7-2.1zm195.5 204.8c2.2-.4 4-1.6 4.2-3.6.1-1.2-1.9-1.5-3.3-2 0 1.8-1.5 3.3-.9 5.6zm280.4-162.5c-2 2.3-4.2 2.9-3.8 5 .2 1 2.2 1.9 2.9 1.4 1.9-1.3.8-3.4.9-6.4zM314.7 646.5c-5.8-1.2-4.4 2.3-4.2 5.7 2-1.7 2.9-3.5 4.2-5.7zm22.8-462.6l-6.7-1.4c-1.5-.2-2.2.5-2.1 2 0 1.8 1 2.1 2.4 1.6 1.8-.4 3.5-1.1 6.4-2.2zM506 660.5c0 3.4 2.1 3.9 4.6 4 .9 0 1.8-.4 1.6-1.1-.6-2.1-2.9-1.7-4.4-2.5-.5-.3-1.1-.3-1.8-.4zm18.6-312.6c.7-1.7 2.4-3.2.3-4.7-.7-.5-2.2-1.6-2.7-.5-1 2.3 1.5 3.3 2.4 5.2zm-424.1 1.9l2.9-3.9c1.1-1.4.8-2.7-.6-3.4-1.6-.8-1.5 1-1.9 1.8-.7 1.4-1.4 2.9-.4 5.5zm208.9 282.6v3.6c.1 1-.7 2.6 1.2 2.6 1 0 2.5.1 2.9-.4 1-1.4-.7-1.9-1.4-2.8-.6-.9-1.5-1.7-2.7-3zm-38-235c1-2.4 2.6-4 2.8-6.9-2.7 1.8-6.5 2.4-2.8 6.9zm200.8 14.2c5.5 1 5.5 1 5.9-3.2l-5.9 3.2zM318.3 756.5c1.9.5 2.7 3.9 5.2 2.1.6-.4 1-2.1.7-2.4-1.8-1.7-3.8-.2-5.9.3zm-11.5-229.8c-2.1 1.8-4.1 2.6-3.9 4.6.1.9 2.1 1.9 3 1.3 1.9-1.2.7-3.3.9-5.9zm66.6 92.6l.2-1.2c-3.6-.1-6.4-3.3-10.4-1.7l10.2 2.9zm287.4-325.4c2.8-3.3 2.5-4-2.7-5.4 1.5 1.9 1.1 4 2.7 5.4zm-32-3.7c2.5.7 4.3 0 6.2-1-4.3-3-4.3-3-6.2 1zm-147 225.6c1.8.3 2.7 2.7 4.5 1.4 1.4-.9 1.1-2.5.4-4.3-1.3 1.5-3 2.1-4.9 2.9zm-150.3-65.6a147 147 0 0 1-4.3-.8c-3.6-1-3.7 1-1.8 2.7 1.6 1.5 3.3-.8 6.1-1.9zm191 330.6l6.3 1.7c2.4.7 2.4.8 4.8-.4-3.5-.8-6.5-1.9-11.1-1.3zm-146.6-291c-2.2-.9-3.5.7-5.4 1 1.2 1.6 2.2 3.4 3.7 3 1.4-.4 1-2.6 1.7-4zm-41.6 25.5h-5.9c1.5 4.4 1.5 4.4 5.9 0zM334 634l-2.8-5.2c-1.3.5-2.6 1.4-2.2 2.6.5 1.5 2.4 1.8 5 2.6zm2.7 70c2.2 2.2 5.1 2.1 7.8 2.5-2.3-1.7-5-2.4-7.8-2.5zm-31.3-500.5c2.1-.5 3.9 2.7 6 .4.4-.4.2-2 0-2.1-2.4-.9-4.2.4-6 1.7zm164.1 214.3c-1.7.7-6.4-2.6-4.9 3.3a7.4 7.4 0 0 0 4.9-3.3zm-55.6 3.5c.7-1.6 1-3.1 0-4-1.4-1.3-2.6.5-4.5.8l4.5 3.2zm-49.5 0c4.5-.5 4.5-.5 3.2-4.7-.5 2-2.5 2.8-3.2 4.7zm32.3 94c1.3 1.7 3.4 1.4 4.8 2.4.6.4 1.5.5 1.7-.7.1-.8-.1-1.6-1-1.7h-5.5zm-70.2 224.5c.7-5 .6-5.2-3.4-5.9.3 2.5 1.7 4.1 3.4 5.9zm101.9-416.6c-1.7 2-3.4 2.8-4 4.7 3.6 0 3.6 0 4-4.7zm41.8 286.6c2.4.3 4.2-.4 5.6-1.7.5-.4-.6-1.5-1.2-1.6-2.5-.6-2.8 1.9-4.4 3.3zm-25.2-357c2.6-.9 3.7-3.2 6.3-4.7-3.7.2-6.4.4-6.3 4.7zM300.7 719.5c1-.1 2.4.1 2.4-1.3 0-1.4-1.6-1.8-2.6-1.9-1.3-.2-1.7 1.2-1.8 2.2-.1 1.5 1.3.8 2 1zM274.5 383c4.2-1.7 4.2-1.7 2.6-5.1a8.4 8.4 0 0 0-2.6 5.1zm229.4 244.9c3.3 3.7 3.5 3.6 5-1.1-1.9-.7-3.4.2-5 1.1zm-65.1-294.4c2.1 1.8 2.6 3.8 4.6 3.7.5 0 1.5-2 1.2-2.5-1.1-2-3.1-.7-5.8-1.2zm55 82.7c5 2 5 2 5.9-2.5l-5.9 2.5zM271.4 220.1c2.5.9 4.4.6 6.3.3-.9-3.6-.9-3.6-6.3-.3zm181.1 21.3c3.7.9 5.3-.3 5-4.2-1.8 1.2-4 1.6-5 4.2zm241-120.8c-3.1-3-3.2-3-4.6 1.1 1.7.5 3-.7 4.6-1.1zM330 443.1c1.9 1 3.4 1.6 4.9.7.1-.1-.2-1.6-.6-1.9-1.7-1.2-2.7.4-4.3 1.2zm-19.1 106.7a6.2 6.2 0 0 0-3.8-2c-.9 1.8.8 3.1.8 4.7a5.7 5.7 0 0 0 3-2.7zM427 482c-1.6-.1-3-.6-4.5.4.6 1.4 1.2 2.8 2.5 3.7 1.8-.8 1.5-2.5 2-4.1zm19.5-65.6c-1.4.2-3.1-1.8-4.1.4-.3.6 0 2 .3 2.1 1.8.4 2.5-1.4 3.8-2.5zM697.6 115c3.7 1.8 3.7 1.8 5.4-2.2a11 11 0 0 0-5.4 2.2zM360.9 498.3c.6-1.3 1-3.1-.2-3.7-1.3-.7-2.7.5-3.8 1.7 1.2.9 2.4 1.7 4 2zm2.5-69.6c-4.4 1.2-4.4 1.2-2.7 4.8.9-1.5 2.6-2.5 2.7-4.8zm47.6 86.1c-1.8-.5-3.1-2.3-5.2-2.1-.2 0-.5 1.3-.3 1.6 1.6 1.8 3.6.8 5.5.5zM286.9 685.3c.9-2 5.5-4.2-.3-5.9-.6 2.1-.5 4 .3 5.9zM171.2 280.7c3.5-1.2 5-2.4 2.5-5.2l-2.5 5.2zM722 187.6l-.4-.9c-.4.4-.9.8-1.2 1.3-.2.3-.1 1 .4.8.6-.1.9-.8 1.2-1.2zM261.8 548.1l1.8.7c.7.2.8-.4.7-.7-.2-.7-.8-.7-1.4-.6l-1.1.6zM157.4 377.4l.5.6c.2-.2.5-.5.4-.6-.1-.3-.4-.5-.6-.7l-.3.7zm369-95.7l.3-.7c0-.2-.4-.5-.5-.5-.5.1-.6.4-.3.9l.5.3zM56.9 358.4c.4-.1.5-.3.2-.6l-.6-.5-.3.7.7.4zm422 96.1l-.7.4.7.4c.5.2.7 0 .6-.5l-.6-.3zM159 215.4l-.3-.2-.3.2.3.2c.2 0 .3-.1.3-.2zm489.8-.9l.3.2v-.3l-.3.1zM443.3 443.6l-.1.2.3.3.2-.5h-.4zm-252.2-74.8l-.3.3.2.3.3-.3c.1-.1-.1-.2-.2-.3zM463 531.2l-.2.2.3.1-.1-.3zm-232.3-294l-.3.2.3.3.3-.2-.3-.3zm329.1 389.9l-.3-.2-.3.2.3.2.3-.2zM156.5 301.9l-.3-.2-.3.2.4.3c0-.2.1-.2.2-.3z" fill="#8e13f9"/></svg>