<svg width="40" height="40" viewBox="0 0 40 40" xmlns="http://www.w3.org/2000/svg">
    <g fill="#FFF" fill-rule="evenodd">
        <path fill-opacity=".5" d="M5 20 9.5 9.5 20 5l10.5 4.5L35 20h-5v-8h-4l-3 2v6h-6v-6l-3-2h-4v8z"/>
        <path d="M10 12v17h4.5l5.5-5.5 5.5 5.5H30V12h-4v12l-6-6-6 6V12z"/>
        <path d="M32.083 7.917 20 2.917l-12.083 5-5 12.083 5 12.083 12.083 5 12.083-5 5-12.083-5-12.083zm2.084 26.25L20 40 5.833 34.167 0 20 5.833 5.833 20 0l14.167 5.833L40 20l-5.833 14.167z"/>
    </g>
</svg>
