<svg xmlns="http://www.w3.org/2000/svg" viewBox="0 0 850.4 850.4"><path d="M323.6 12.6l26.2 70.1 32.2 85.4 37 97.9c4.9 12.8 9.8 25.7 14.4 38.6.9 2.4 1.9 3.5 4.5 3.3l45-3.2c4.1-.3 5.7 2.8 6.7 5.4 6.2 16.6 12.2 33.2 18 49.9 1.3 3.7 2.6 5.1 7.1 4.3 13.8-2.6 27.6-4.7 41.5-6.4 2.6-.3 5.1 2.8 6.1 5.8l15.3 47.7c2.4 7.6 2.9 8.1 10.9 7 10.2-1.4 20.5-1.4 30.7-2.1l62.9-3.7c9.9-.6 19.9-.8 29.8-1.4 20-1.2 39.9-2.5 59.9-3.6l27.3-1.3c10.9-.5 21.8-1.1 32.8-1.5 1.1 0 3.3-1.5 3.5 1 .2 1.9.8 3.8-1.9 5.4-19.8 11.8-39.4 23.8-59 35.8-37.9 23.1-77.3 43.8-115.9 65.6l-6.5 3.9c5.8 4.3 11.6 8.2 16.9 12.7 8.4 7.1 17.9 12.5 26.5 19.2 8.9 7.1 18.4 13.5 27.6 20.3a6370 6370 0 0 1 27.1 20.1c6.1 4.5 6.2 5.9 3.3 12.6a33 33 0 0 1-17.5 17.2c-21.8 10.9-43.4 22.3-65 33.6-2.3 1.2-3.6 1.1-5.6-.4-7.6-5.7-15.4-11.2-23.9-17.3.2 7.5.3 14 .7 20.5.7 11.6.2 23.3.6 34.9.6 19.1.1 38.3 1 57.4.8 17.6.6 35.2 1.5 52.7.3 4.9-2.4 7.8-6.3 9.5a6244.3 6244.3 0 0 1-70.7 30.1c-3.3 1.4-4.7-1.7-5.4-3.6a29912.6 29912.6 0 0 1-75.5-202.7c-9.1-24.5-18.5-48.9-27.4-73.4-1.7-4.6-4.7-2.8-7.1-2.5-12.8 1.4-25.5 3.1-38.3 4.9-5.1.7-8.1-1.7-9.5-6.2-4.7-14.8-9.2-29.7-13.8-44.5-1.1-3.5-1.9-5.6-6.9-4.7-14.1 2.4-28.5 3.5-42.7 5.5-5.1.7-7.7-1.4-9.1-5.7-5.3-16.9-10.7-33.7-15.7-50.6-.9-2.9-1.9-3.6-4.7-3.6-20.9.4-41.8 1.8-62.7 2.4-14.1.4-28.1 1.4-42.2 1.9-25.2.9-50.4 2.4-75.6 3.1-16.7.5-33.5 1.3-50.2 2.1-19.9 1-39.7 2-59.6 2.7-4 .1-8 .4-11.4-2.2v-1c2.9-.9 4.3-3.5 6.2-5.4 3.7-3.8 7-7.9 10.6-11.8C35.6 435.2 43.7 426 52 417c5.1-5.6 9.7-12 16.5-15.5 38.3-19.6 76.8-38.7 115.1-58.2 9.3-4.7 18.8-8.9 28-14.7l-2.8-2.4-34-24.3a7022.7 7022.7 0 0 1-44-31.7c-5.4-3.9-5.6-5.7-2.3-11 5.1-8.4 11.6-15.7 18-23.1 14.4-16.8 28.6-33.9 43-50.7 1.7-2 3.5-3.7 7-1.1 18 13.6 36.4 26.8 54.9 40.3 2.7-6.9 1.6-14 1.9-20.7 1-25.7 2.4-51.3 3.6-77a5135 5135 0 0 0 1.6-39.2c.1-2.5 1.1-4.5 2.6-6.3l57.7-68.9 4.8.1zm-25.9 324.1c-.8-.2-1.1.2-1 1-.6-.2-.9 0-.6.6l.5-.7 1.1-.9.9-1.1 2.6-2.4 1-1c8.3-7.4 15.4-16.1 24.5-23.2-2.3-.8-3.3-4.7-6-1.5-6.6 7.8-13.4 15.5-19.2 24l-1 1c-1.4.6-2 1.7-1.8 3.2-.8-.2-1.2.1-1 1zm291 289.9l.4 1.6.3-.3c.1-.6 0-1.1-.7-1.3-.2-.3.4-1.2-.7-1l.7 1zm115.9-49.9c.1-.8-.3-1-1-1-.4-.9-1-1.4-2-1 .3-.7-.2-.9-.7-.9-.2 0-.4.2-.6.4l1.4.4c.4.9 1.2 1.1 2 1-.1.7.3 1 .9 1.1.4 1 1 1.4 2.1.9.6 2.9 3.5 3.2 5.4 4.6l28 21c0-2.7.2-5.1-1.8-6.4l-25.4-15.4c-1.7-1.9-3.8-3-6.2-3.8-.4-1-1.1-1.2-2.1-.9zm-27.9-32.1c-.5.7-.1 1.1.3 1.6l.4-.2c.3-.8 0-1.2-.7-1.4l-1.3-1.2-.5.5c.3.9.9 1.1 1.8.7zm-3.9-3.2l-1-1c-11-12.6-28.5-24.8-34.9-24 6.1 4.5 11.8 8.9 17.7 13.1 1.9 1.4 3.1 2.9 3.1 5.2-2.8.1-5.1-.8-7.3-2.5-4.7-3.6-9.5-7-14.7-10.8 0 6.7 5.7 8.9 8.8 12.7 1.1 1.4 5.6 1.7 8.3 3.4 4.5 2.9 9.1 5.6 14.5 8.8-.5-1.5-.5-1.9-.7-2.1-2.2-1.8-4.3-3.7-6.6-5.2-1.7-1.1-2.8-2.3-2.3-4.4 2.6-.4 4.6.4 6.7 2 2.1 1.7 4.5 3 6.8 4.5l1 1c.7.3 1.6 1.7 2.2.5.4-.8-.9-1-1.6-1.2zM267.1 255.3l.9.9 23.6 20.3c5.2 4.5 9.9 9.8 18 8.4-4.1-3-8.1-6.2-12.3-9.1-9.6-6.7-18.5-14.3-28.5-20.4l-1-1c-.3-.9-1.1-1-1.9-1.1-.5-1.1-1.5-2.5-2.4-1.5-.8.9 1.1 1.5 1.8 2.2.5.5 1.2.9 1.8 1.3zm100.6-81.7l-.5-1.8-.6.5.7 1.6.9 1.4c.1-.1.3-.2.3-.4.1-.6-.1-1.1-.8-1.3zm347.1 292.2c-1.8-.4-3.1.4-4.1 1.9-.2.2-1.1-.2-.5.7l.4-.7a8 8 0 0 0 4.2-1.9l.2-.4v-.2l-.2.6zm-505-129.1c-5.2.7-9.2 4-13.6 6.3-17.2 8.2-34.2 16.8-51.1 25.6-17.5 9.1-35.3 17.7-53.2 26.7 2.6 2.2 4.6.1 6.5-.5 7.9-2.3 16.3-2.7 23.7-7 16.9-9.9 34-19.4 50.7-29.5 8.1-4.8 16.7-8.8 24.1-14.6 4.7-1.4 8.5-4.5 12.9-7l.2-.4v-.2l-.2.6zm390.3 173.5c4.5-3.5 11.3-4.4 13.8-10.1l-1.2-1.4a1239 1239 0 0 1-13.2 10.7c-.4.2-.9.4-.5.9.1.2.7 0 1.1-.1zM562 419.3c-.6-.7 0-2.3-2-2.3l1.5 2.6 4.6 16.2c2.9-2.3 3-4.3 1.5-6.7-1.9-3.1-3.7-6.5-5.6-9.8zm-86.9 35.8c.4.3.5 1.4 1.2.9.5-.4.2-1.1-.5-1.5-1.1-5.8-3-11.4-5.6-16.7-.3 1.9-3.3 2.7-1.8 5.3 2.4 3.8 4.5 8 6.7 12zM497 354.3c-.5-.8.1-2.4-1.8-2.4.5 1 .2 2.2 1.4 2.7 1.2 6 3.7 11.6 6.1 17.5 2.4-2.7 2.2-4.8.7-7.2l-6.4-10.6zm219.8 216.1c-.9-1.5-2.1-2.2-4.2-1.2l3.5 2c7.6 7.6 16.3 14 24.4 21.1 1.9 1.7 3.9 1.5 6.3-.5l-30-21.4zM311.7 279.6v1.2l.6-.2-.6-1c-1.6-5.7-6.9-8.2-10.9-11.4-6-4.9-12.9-8.7-19.6-12.6-2.6-1.5-4.6-4.5-8.7-3.6 10.4 7.7 20.5 15.2 30.7 22.4 2.7 1.9 4.6 5.1 8.5 5.2zm360.4 196.5l-40.9 22.5c-3.8 2.1-3.8 2.1-2.4 7l10.9-7 33.1-21.8c1.1-.2 2.1-.4 2.4-1.8-1.4-.3-2.2.4-3.1 1.1zM393.6 251.7c0-1.5.3-3.1-2.1-4.2l2.1 4.2c.6 1.7.9 3.5 1.5 5.2l18.6 49.3 7.7 19.7c3.3-2.4 2.5-4.5 1.4-7-5.2-12-10-24.2-15.3-36.2-4.6-10.3-8.1-21.2-13.9-31zm169.7 326.2c.2 1.6.9 3.1 2.4 5.2-.4-2.6-.4-4.3-2-5.5-.5-1.8-.8-3.6-1.4-5.3l-15-39.9-11.2-29.6c-2.5 2.6-2.5 4.8-1.3 7.5 2.9 6.3 5.4 12.8 8.1 19.2 6.7 16.2 13.5 32.3 20.4 48.4zM399 237.3l-2.1-6.1c-.4 3 .2 4.9 1.6 6.5.1.6.2 1.3.5 1.9l22.1 59.1c2.1 5.5 3.7 11.2 6.7 16.6 1.2-1.9 2.9-3.5 1.5-5.3-4.5-5.7-4.5-13-7.4-19.3-8.1-17.6-15.3-35.5-22.9-53.4zm199.7 441.3l-.4-1.3-.6.1c-.2.6 0 1.2.6 1.5l.7 2.9 30.3 80.9c.4 1 .3 2.4 2.3 2.5-1.4-7.3-2.3-14.6-5.3-21.5-5.4-12.6-10.4-25.4-15.9-38-3.9-9-7-18.4-11.7-27.1zm-234-540c-.1 1.6-.1 3.2 1.6 4.2.3-1.8-.5-3.1-1.6-4.2-.3-1.1-.4-2.2-.8-3.3-9.5-25.3-18.9-50.5-28.5-75.7-1.3-3.3-1.6-7.4-5.6-10.8 1.7 6.1 1.5 11.3 3.5 16.2 8.1 19.4 15.9 38.9 24.1 58.2 2.2 5.2 3.6 10.8 7.3 15.4zm123.8 262.9c-12.2 8.2-23.5 17.7-35.4 26.8 1.8 1.4 2.9.6 3.9.6 5.5.2 11.6-4.1 16.4 1.2 2.5 2.7 2.8 1 3.6-.8l11.9-27.3.3-1.1-.7.6zm-272.6-61.6c1.1-.4 2.2-.7 3.2-1.2 25.6-13 51.2-26 76.8-39.2 4.3-2.2 9-3.8 12.9-7.1-5.1-2.8-9.4-2.1-14 .7-16.1 9.6-32.4 18.7-48.6 28.1-10.3 6-20.4 12.2-30.6 18.3l-1.6.6c.1.1.2.3.4.3.6.3 1.2.2 1.5-.5zm27.8-7.2c-2.1-.6-3.5.9-5 1.7L165 372c-7 3.6-14.5 6.5-22.1 11.9l16.3-3.7a56.1 56.1 0 0 0 17.9-7c10.8-6.9 21.9-13.1 32.8-19.8 11.2-7 22.9-13.1 33.8-20.7.1-.3 1.1 0 .4-.8a3 3 0 0 0-.4.8zm172 9c-5.8 3-10 7.9-14.9 12-6.9 5.6-13.5 11.6-20.9 18.1 3.9 0 6.9.6 9.5-.2 3.6-1.1 5.9.2 8.3 2.4 1.8 1.7 1.7 4.2 2.4 6.4.4 1.3 1.1 2.3 2.8 2.2 1.5-.1 2.4-.5 2.8-2.2 3.1-13 7.4-25.7 10-38.7.1-.2.9-.2.1-.7l-.1.7zm55 180c-4 .5-6.3 3.7-9.5 5.5-4.8 2.6-8.4 7.6-14.6 7.5-.5-2.3.6-3.6 2.5-4.8 7.5-5.1 14.9-10.5 22.4-15.6 2.2-1.5 2.7-2.8 1.8-5.3-4.2-12.9-8.1-25.9-12.3-38.8-.9-2.8-1.2-5.9-3.4-8.6l-29.9 64.6c-3.7 8-7.1 16-10.7 24.1-.1.4-.4 1.1-.2 1.2.5.4.8-.1 1-.5 7-4.7 14.1-9.2 21-14.1 2.5-1.8 4.9-2.5 7.9-2.2-.1 2-1 3.3-2.7 4.4-3.8 2.4-7.4 5.1-11 7.6l-13.8 9.6c1.4.3 1.8.5 2.3.4a4006 4006 0 0 1 34.3-4.1c1.7-.2 2.8-.9 3.4-2.4l11.4-28.5c.3-.2 1-.2.2-.7l-.1.7zm-73.4-25.4l17.3-12.5 35.5-26.4-43.4 4.6c-1.6.2-2.7.6-3.2 2.5l-7 30.9c-.7.5-1 1-.5 1.8l1.3-.9zm189.3 38.4c-.5-2.4.9-3.6 2.8-4.7l19.3-12.2c1.1-.7 4.6-.8 2.1-3.5-1.3-1.3-3-4.1-5.6-1a29 29 0 0 1-5.6 4.9c-8 5.1-13.4 13.8-23 16.6-.9.3-.9 1.4-.6 2.2.4 1.2 1.3.7 1.9.2 2.6-2 5.4-3.2 8.7-2.5.4 2.3-1 3.5-2.9 4.6-3.7 2.2-7.2 4.7-11 6.8-3 1.6-3.7 3.3-2.3 6.7 2.9 6.7 5 13.6 7.6 20.5l9.1 23.5a33837 33837 0 0 0 24.7-75c-4.4 2.7-7.6 4.9-11 6.8-4.5 2.5-8.3 6.6-14.2 6.1zm-278.9-221c-1.9-.9-3.1.6-4.5 1.3l-68.7 35.1-45 23.3-2 .8c.9.5 1.8.5 2.7 0 22.3-4.8 44.6-9.6 66.9-14.2a11 11 0 0 0 5.9-3.1c6.6-6.3 13.5-12.3 19.9-18.8 8-8.4 17.3-15.5 24.8-24.4.1-.2.3-.4.6-.5l-.6-.2v.7zm142.8 148.7L397 501.9c-1.7 1.3-1.8 2.6-1 4.7 1.5 4 2.7 8.2 3.7 12.3a334 334 0 0 0 10.3 33.4l41.1-89.4c.4-.4.5-.8 0-1.1l-.6.6zm-77.2-56.1c-1.1 0-1.8.8-2.5 1.4-13.8 11.6-27.5 23.4-41.6 34.7-5.1 4.2-8.4 7.2-5.8 15.2 4.8 14.3 8.5 29 13.6 44.2l12.8-32.8 24.2-62c.1-.4.4-1.1.2-1.2-.3-.4-.6.1-.9.5zm93.3-67.7l-49 40.4c-6.5 5.4-6.6 5.3-3.6 12.5.4.9.5 1.9.8 2.9 3.4 11.6 6.8 23.2 11.4 34.4.6 1.3.6 3 2.7 3 2.4.1 2.5-1.7 3.1-3.2 9.8-24.6 19.8-49.1 29.3-73.8 2-5.3 5.5-10.2 5.3-16.2l.5-.2c-.1 0-.2-.1-.2 0l-.3.2zM189.8 209.4l-.9-.5.3 1.2.5 1.9A44841 44841 0 0 1 231 315.9c1.2 2.9 2.5 2.1 4.4 1.1l30.7-15.5 29.5-15.2c-1.7-1.4-2.8-2.4-4-3.2l-69.5-50.7c-10.7-7.6-21-16-32.3-23zm-167 248.4a15 15 0 0 0 10.1 1.5c7.2-1.5 14.6-.9 21.8-1.3 23-1.3 46.1-1.8 69.1-3 16.7-.9 33.5-1.2 50.2-2.1 22.9-1.2 45.8-1.5 68.6-2.9 14.7-.9 29.6-.9 44.3-1.3.6 0 1.4 0 1.3-1-.2-.2-.5-.5-.7-.5L198.6 432 71.1 409.9c-4-.7-6.7.1-9.5 3.2-13 14.8-26.3 29.5-39.4 44.2l-.9 1.1c.6.2 1.1.2 1.5-.6zm466.8 76.8c-.5-2 .6-3 2.1-4l6.7-4.4 23-15.5-38.3 4.5c-1.9.2-3.8.3-4.6 2.2l-12 28.6a98 98 0 0 0 15.8-9.3c2.3-1.3 4.5-2.7 7.3-2.1 0 2.2-1.3 3.4-3.1 4.6-6.3 4.1-12.3 8.5-18.7 12.3-3.3 2-4 3.9-2.4 7.5 5 11.4 9.8 22.8 14.1 34.5 10.1 27.7 19.7 55.6 29.8 83.3 13.3 36.3 26.8 72.4 40.3 108.6l9.3 24.8c1.3-11.2-1-21.9-1.9-32.8-1.6-18.7-4.3-37.4-6.3-56.1-1.6-14.1-2.8-28.3-4.3-42.4l-7.8-70.9c-1.4-13.8-3.2-27.6-4.4-41.4-1.4-16.6-3.8-33.1-5.6-49.7-.6-5.5-.4-5.5-5.2-2.4-8.8 5.9-17.7 11.7-26.5 17.7a9.8 9.8 0 0 1-7.3 2.4zm79.1 299.1l2.3-.8 61.3-26.1c6.9-2.9 6.8-2.9 4.2-9.5L622.8 761l-28.2-75.5-45.2-120.6-12-31.8-1.2.3 32.5 300.3zM343.5 134.6l-1 .4c.8 11.6 1.6 23.1 2.2 34.7.7 12.7 1.5 25.5 2.4 38.2 1.3 17.7 1.9 35.4 3.6 53 .7 7.9.8 15.9 1.3 23.8l4.5 64.9 1.3 20.3c.1 1.2 0 2.8 1.6 2.5 5.5-.9 11.6 1 16.5-3.2 13.1-11.3 26.1-22.6 39.3-33.6 2.4-2 2.8-3.5 1.7-6.3l-20.8-55.4-39.7-105.1-12.9-34.2zM373.6 400l-.6-1.1h-5.4c-17.2.8-34.4 2-51.6 2.4-22.1.5-44.1 1.4-66.2 2a7080 7080 0 0 0-92.1 3c-20.4.8-40.9.9-61.3 1.4-.3 0-1-.2-.9 1l45.2 7.9c30.6 5.2 61.3 10.3 91.9 15.6l81.1 14.3a8 8 0 0 0 7.2-2.1c9.5-8.3 19.3-16.2 28.9-24.3l23.8-20.1zM268.1 236.5l47.4-212.1A1439.8 1439.8 0 0 0 277.1 69c-3.3 3.9-6.2 8.3-9.9 11.7-4.4 4.1-2.5 9.4-2.9 13.8-1.8 18.6-2.4 37.3-3.2 56-.8 18.1-1.2 36.1-2.3 54.2-.4 6.4.2 12.9-1 19.4-.4 2-1.1 4.7 1.4 6.4 2.8 1.9 5.2 4.5 8.9 6zM181 204.4c-.6 1.5-.8 2.2-1.2 2.7l-43.3 50.6c-5.5 6.4-5.7 6.7.9 11.9l1.2.8c25 18.5 50.9 35.8 76.4 53.6 4.8 3.3 7.3-1 10.6-2.4 3-1.3.2-3.9-.4-5.5-8.6-22.2-17.5-44.4-26.3-66.5L181 204.4zm461.4 332.9c-.9 1.5-.6 2.2-.3 3a8290 8290 0 0 0 13.9 53.3c4.3 16.5 8.8 32.9 13 49.5.9 3.5 2 3.6 5 2 16.2-8.5 32.5-16.6 48.7-25.2 6-3.2 12.6-5.7 18.1-10.6l-98.4-72zM316.3 47L311 70.6l-17.1 75.9-19.9 88.6c-.9 3.8-.8 6.7 3.2 8.7 2.6 1.3 4.7 3.6 7.1 5.3l23.8 17.3c-1.3-5.2.3-8.9.3-12.7.2-22.7 1.7-45.4 2.7-68.1.8-17.9 1.6-35.8 2.1-53.7.6-20.9 1.6-41.8 2.5-62.7.4-7.4 0-14.9.6-22.2zm339.5 432c-.8-.7-1.1-1.1-1.4-1.2l-85.1-30.5c-2.7-1-4.7-.5-6.9 1.1L540 464.1l-27.9 19.6c8.1 0 15.9-.7 23.6-1.8 3.3-.5 6.4-.6 8.4 2.3 1.8 2.5 4 2.7 6.5 2.5 10.7-1 21.5-1.3 32.2-2.3 16.5-1.4 33-2.1 49.5-3.5 7.6-.9 15.3-1.3 23.5-1.9zm75.6-41.5l-.3-.8c-3.1 0-6.3-.2-9.4 0-9.1.5-18.1 1.2-27.2 1.8-11.2.8-22.5 1.1-33.7 1.9-22 1.6-44 2.7-65.9 3.8-5 .3-10 0-16 0 1.3 1.3 1.5 1.6 1.8 1.7l77.6 28c3.1 1.1 5.6.8 8.5-.8l31.8-17.5c10.9-5.8 21.8-12 32.8-18.1zm-492-62.3l1.9.3c15.7-.1 31.5-.9 47.2-1.5 14.8-.6 29.6-.4 44.4-.6 4-.1 7.9-.6 11.9-.7 2.1-.1 2-.9 1.4-2.5l-19.1-51c-.9-2.5-1.7-2.7-3.6-.8-16.8 16-33.9 31.9-50.5 48-3 2.9-4.9 3.4-7.9.5-1.5-1.4-3.1-3.6-5.9-2.2-6.6 3.3-13.3 6-19.8 10.5zm197.7 55c3.1.7 5.5.5 7.6-1.2l46.4-35.7c2-1.6 2.5-3 1.6-5.3-2.9-7.6-5.6-15.2-8.3-22.9L474.1 337l-37 93.2zm109-39.2l-44 92.7c19.6-12.6 38.3-25.8 57.2-38.7 2.6-1.8 3.6-3.3 2.3-6.4-1.7-4.1-2.7-8.5-4.1-12.7L546.1 391zM343.2 500.8l1 .9 42.7-33.3c3.9-3 10-5.1 11-9.4.9-4.2-2.3-9.4-3.8-14.1l-12.9-40.6-38 96.5zm272.3 171.5l1.4-.3-2.5-139.1c-.7 1.2-1.2 1.7-1.3 2.3l-22.2 67.5c-.7 2-.3 3.9.4 5.8l14.3 37.6 9.9 26.2zm-76-279.4l-1.5.1c-18.4 13.8-36.7 27.7-55.2 41.4-2.4 1.8-2.3 3.1-1.1 5.3a30 30 0 0 1 3.2 8.8 349 349 0 0 0 10.7 36.7l43.9-92.3zm-187.7-26l-12.3-189.8a493.6 493.6 0 0 0-2.6 34.1c-.6 15.4-.7 30.9-1.4 46.3-.3 7.8-.3 15.6-1.1 23.3-.4 4.2.8 6.2 3.9 7.9 3.1 1.7 3.1 4.7 1.6 6.8-2.7 3.9-5.5 7.5-7.5 12.2-1.5 3.5-1.6 5.9-.6 8.6 4.4 12.3 9 24.6 13.8 36.8 1.8 4.7 2.9 9.7 6.2 13.8zm291.9 118.8l-.3-.6-34.8 2.4c-19.1 1.4-38.2 2.8-57.3 4-3.1.2-3.6.9-2.6 3.6 3.7 9.4 7.4 18.8 10.7 28.3 1.1 3 2.1 2.1 3.8 1 16.4-10.6 32.8-21 49.2-31.7 2.8-1.9 4.8-2.2 7.6.1 1.6 1.3 3.2 4.2 5.8 2.9 6-3.1 11.9-6.6 17.9-10zm-231-110.1l.9 1.3 52.3-43.2c-1.9-.4-2.5-.7-3.1-.7l-37.6 2.9c-2.3.2-2.6 1.8-3 3.4l-9.5 36.3zM641.5 560l-1.1.1v4.8c.1 16 .2 31.9.5 47.9.1 4.8.5 9.6.8 14.3.1 1 .2 2 1.1 2.7l19.4 13.9 1-.8-21.7-82.9zm-296.3-53.5c2.5 0 4.1.2 5.6 0 9.8-1.3 19.6-2.8 29.4-3.9 8.4-1 8.5-.9 10.4-8.7l6.7-27.6-52.1 40.2zm190.4-116.9l-.5-1.2-35.1 5.5c-1.6.2-2 1.4-2.6 2.7-3 6.8-6.4 13.5-9.1 20.4-1.3 3.4-4.1 6.4-3.7 11l51-38.4zM97.4 401.8h5.5c19.7-.5 39.4-.8 59.1-2 12.6-.8 25.2-.3 37.8-1 11.6-.7 23.3.8 34.9-2.1-35.3-.3-70.5-.1-105.8-.5-11-.1-21.3 1.9-31.5 5.6zm169.2-15.4c-12.4-2.2-24.7-1.6-36.9-1.7h-5.5a546.6 546.6 0 0 0-54.3-1c-6.3.1-12.6 2.7-18.9 4.1 38.5 1.2 76.9-1.8 115.6-1.4zm467.5 72.7l.6 1.3 76.6-42.6c-7.7 1.6-15.8 2.1-22.4 6.2-18.4 11.5-36.5 23.4-54.8 35.1zm-30.2 13.5l-.8-1.3-67.8 37.5c5.5 2.2 9.6 1.9 13.9-1 7.9-5.5 16.2-10.5 24.2-15.7 10.2-6.4 20.4-13 30.5-19.5zm-321.1-84.1c-30.6-.2-60.6 2-90.8 2.5 3.5.7 7.1 1.5 10.6 1.5 24.7.2 49.5-.3 74.2.9 3.3.2 5-1.1 6-4.9zm-129.9-55.3c2.6.9 4.2-.6 5.9-1.5 9.8-4.9 19.5-10 29.2-15 9.1-4.7 18.2-9.6 27.5-14 3.4-1.6 2.1-3.5 1.2-5.5-1.4-3.4-3-.6-4.2.1l-24.7 14.9-34.9 21zm513.6 97.3c-10.1 2-20.3 3.6-28.7 10.1-5.2 4-11.1 7.3-16.6 10.9L698 466.9l.7 1.1 67.8-37.5zM322.4 47l-3.8 90.1c.9-2.6 1.7-3.9 1.9-5.2.8-8.4 1.3-16.8 2.2-25.2 1-9.7 1.2-19.4 2.8-29a53.3 53.3 0 0 0-3.1-30.7zm-.8 139.9c-.9 2.1-1.6 3.1-1.6 4.1-.3 10.6-1.3 21.1-2.3 31.7-1.1 12-2.6 23.9-3.5 36-.5 6.8-2.8 14.1 4.3 20.4-.2-31 2.6-60.9 3.1-92.2zm6 3.8h-1.2c0 9.4.3 18.8-.1 28.2-.4 7.8-.2 15.6-.9 23.4-1.1 13.6-1.1 27.1-1.9 40.7 0 .9-.4 2.2.9 2.5 1.2.2 2.2-.4 3.1-1.2 1.2-1.2.9-2.8.9-4.3 0-24.1.3-48.2-.9-72.3-.2-5.7.1-11.3.1-17zm249.3 238.9c25.7-2.7 51-2.4 76.1-5.5-23.3-.2-46.6-.1-69.9-.2-3.8-.1-4.9 2-6.2 5.7zm72.4 5.7l-.1-.6c-24.3 0-48.5.1-72.8-.1-2.8 0-4.4 1.2-4.4 3.5 0 2.9 2.7 1.6 4.1 1.5 9.9-.5 19.8-1.4 29.7-2l43.5-2.3zm-260.3-56c-2.5-2.1-5.6-1.6-8.5-1.8-8.1-.5-16.2.7-24.3.9l-65.7 1.4-2 .6h9.5l86.2 1.3c2.2.1 4.2.2 4.8-2.4zm-22-209l-28.1-74.6c-.3 10.3 21 67.3 28.1 74.6zM762.2 424l-77.6 4.8c20.5.5 40.9.7 61.4.3 5.7-.1 11.2-2.4 16.2-5.1zM635.9 660.8c.4 29.7-1.7 59.4-1.2 89.1.1 5.4 1.4 11 3.7 16.2-1-35.1-.5-70.3-2.5-105.3zm-12.4-144.6c-2.9.4-3.7 1.4-3.5 4.6 1.1 13.7 1.6 27.5 2.5 41.2.7 11.9 1.6 23.7 2.4 35.5h.7l-2.1-81.3zm181.8-104.5l-86.9 5c6.5 1.6 12.9.3 19.3.2 16.6-.2 33.2-.1 49.9 0 6.4 0 11.9-2.9 17.7-5.2zM619.2 708.9c1.7-10-3.1-17.4-5.9-25.1-5.2-14.3-11.7-28.2-17.6-42.2-.5-1.1-.7-2.3-2.4-1.7l25.9 69zM403.4 388.1c-1.2.3-.2 1.6.1 2.8l5.1 17.1 7.5 23.1c.6 1.9 1.2 2.9 3.5 1.9 1.6-.7 1.8-1.2 1.2-2.9l-14.6-40.5c-.2-.7-.3-2.1-2.8-1.5zm227.8 219.5c-.5-5.5 1.4-10.8 1.4-16.3-.2-18.4-.3-36.9 1.1-55.3.4-4.5-.7-8.3-4.4-12.4 1.4 28.7 1.4 56.4 1.9 84zm-69.4-59.1l1.1-.7-21.1-56.4c-2.5 2.6-2.5 4.7-1.3 7.5 4.6 10.5 8.9 21.1 13.4 31.6 2.5 6 5.2 12 7.9 18zM230.6 232.9l.9-.9c-.3-.5-.5-1.1-1-1.5l-28-23.8c-3.5-3-7-5.4-12.4-3.4l40.5 29.6zm-31.7-41c.1 2.7-.2 5.5 2.1 7l33.3 21.4 1-1.5-36.4-26.9zm9.2 183c11.3.7 23 3.4 33-7l-33 7zm78.8-34.9a108.7 108.7 0 0 0-21.3 19.9c2.9 3.6 5.1 1.7 7.3-.9 2.4-3 5.1-5.7 7.2-8.8 2.1-3.3 5.7-5.6 6.8-10.2zm142 113.9v-1l-17.4-1.4c-3.1-.2-3.5 2.2-4.6 5l22-2.6zm-25.7-34.5l-1.2.6c3.1 6.5 3.8 13.9 7.3 20.8 1.3-1.8 2.9-3.3 2.3-4.7-2.5-5.6-5.6-11.1-8.4-16.7zm10.6 25.4l19.6-2.4c-7.5-4.3-17.6-3.4-19.6 2.4zm-11.5 7.8c3.8-3.9.8-13.9-6.6-20.2l6.6 20.2zm103.2 54.8c-6.2-1.7-11.5-1.9-16.6-2.8-4.1-.7-5.1 1.4-6.1 4.9 7.5-.6 14.4-2.3 22.7-2.1zm-68.4-59c5.9.5 11.2.8 16.5 1.4 3.4.4 5.2-1.1 5.9-4.6l-10.8 1.2c-3.7.5-7.5.1-11.6 2zm-44-36.2a62 62 0 0 0-6.3-19.8c-3.6 8.4 4.2 13.2 6.3 19.8zm7.9-8.4l.8-.4a3875 3875 0 0 1-7.5-23.3c-1 3-3.5 3.8-2.1 6.4l8.8 17.3zm-68.2-299.5v34a76.5 76.5 0 0 0 0-34zm179.4 396.6c3.8 2.6 8 1.2 11.9 2.4 3.9 1.2 6.4.2 7.2-4.2-6.4.5-12.8 1.1-19.1 1.8zM472.3 485a3 3 0 0 0-.8.4 2556 2556 0 0 1 6.6 20.6c1.2-2 3.3-3.7 2.1-6-2.4-5.1-5.2-10-7.9-15zm-3.1-16.9c-.5-6.6-2.7-12.7-5-19.1-1.8 2.1-3.4 3.9-1.8 6.7l6.8 12.4zm-3.4-34.4l-20.7 2.2c5.2 1.3 10.4 2 15.6 2.7 3.5.4 4.3-1.7 5.1-4.9zm-17.9-105.5c-6.2-1-11.1-1.8-16-2.4-4.5-.6-4.5-.5-5.3 4.3l21.3-1.9zm54.2 58.7a50 50 0 0 0 18.4-2.8c-6 2-13.3-4.4-18.4 2.8zm6 108.2l-7.9-1.4-6.3-.9c-2.4-.2-4.1 1.2-4.2 3.3-.1 3.1 2.5 1.1 3.7 1.1 4.6-.1 9.1-.5 14.7-2.1zm28.6-7.4c-6.6.2-12.6 1.2-19.6 2.4 17.8 2.8 17.8 2.8 19.6-2.4zM480.1 326l-1.8.3c-1.2 7.6 5.4 12.3 7.2 18.8l1.2-.5-6.6-18.6zm145.3 375.2c-.1-10.7-1.3-20.2-2.5-29.8.9 9.6-1.8 19.5 2.5 29.8zM463.3 311.9l-.1.8c3.8.6 7.7.8 11.4 2 3.9 1.3 5.5-.1 6.3-4l-17.6 1.2zm66.7 67.4l11.3 1.2c3.5.4 5.5-.9 6-4.8-6 .7-11.6 1.6-17.3 3.6zm6-12.6c9.6 3.7 15.5 2.6 17.1-3.2-5.3 1.9-10.7 1.8-17.1 3.2zm-11.5 6.7c-4.2-2.9-8.9-1-13.2-2.3-2.4-.8-3.1 1.9-3.2 3.5-.2 2.8 2 1.2 3.1 1l13.3-2.2zM480 477.1c.3 5.9 2.8 11.1 4.9 17.7 4.2-8.6-2.7-12.4-4.9-17.7zm11-144a67.3 67.3 0 0 0-5.9-19.2c-.7 2-1.9 3.8-1.5 4.8 2.2 4.8 4.9 9.6 7.4 14.4zm81.6 92.1c2.9-4.3-.1-12.5-5.5-16.6l5.5 16.6zm-82.1-58.4l6.5 17.1c2.8-4.4.2-11.3-6.5-17.1zm67 2c-2.9 6.8 3.2 10.8 4.8 16.2.2-5.9-2.6-10.9-4.8-16.2zm-5.5 9.8c-4.5 8.4 3.1 11.8 4.3 17.2.1-5.7-2.8-10.6-4.3-17.2zm-100.6-61.2c-5.2-2.2-10.3-1.7-15-2.8-1.8-.4-3.5.7-3.6 2.5-.2 2.7 2.1 1.5 3.2 1.5 4.9-.2 9.8-.7 15.4-1.2zm7.4 5.6l-.1 1.3a95844636914311980 95844636914311980 0 0 1 14-2.6l-13.9 1.3zM187.2 197.4c7.2-1.1 7.2-1.1 3.9-5.9l-3.9 5.9zm384.7 337.8c-5.2-2.1-4.8 2-5.7 4.5l5.7-4.5zm137.6-67c-2.5 1.1-4.3 1-5.2 3.3 2.2.2 3.3-1 5.2-3.3zM566 583.9c-.7 1.5.3 2.4 1.2 3.5.5-1.6.1-2.6-1.2-3.5zM289.4 336.7c-1.5.8-2.9 1.4-2.5 3.6 1.5-.7 2.9-1.1 2.5-3.6zm301.8 296c-.2-1.3-.2-1.8-.4-2.1-.1-.3-.5-.4-.8-.6v.9l1.2 1.8zm76.6-86.9c-.5.1-.6.3-.3.7l.5.8.5-1.1-.7-.4zM391.3 244.6l-.2-.4-.2.4v.4l.4-.4zm195.9 377.6l-.3.1c-.1.1-.1.3 0 .4.1.4.3.4.4-.1.1-.1 0-.3-.1-.4zM243 368l-.9-.2c-.5.2-.5.5 0 .7.1.1.3.1.4 0l.5-.5zm-7.3-148.1l-.3.7.5.7.5-1-.7-.4zm10.4 110.9l-.4.3.3.3.4-.3-.3-.3zm156 75.5l.1-.2h-.2l.1.2zm-188-72l.2-.2h-.3l.1.2z" fill="#f70202"/></svg>