<svg width="24" height="24" viewBox="0 0 24 24" fill="none" xmlns="http://www.w3.org/2000/svg">
  <path fill-rule="evenodd" clip-rule="evenodd" d="M12 4C8.20698 4 4.79338 5.62442 2.41692 8.21553L0.205444 6.18834C3.13032 2.99929 7.33167 1 12 1C16.6683 1 20.8696 2.99929 23.7945 6.18834L21.583 8.21553C19.2066 5.62442 15.793 4 12 4ZM14.9092 10.5454L18.1894 8.90528C16.4262 7.70294 14.2952 7 12 7C9.05583 7 6.38184 8.15665 4.40761 10.0403L6.62591 12.0738C8.04604 10.7852 9.93131 10 12 10C13.0263 10 14.0075 10.1933 14.9092 10.5454ZM12 17L12 13C10.8072 13 9.71191 13.4177 8.85248 14.1148L12 17Z" fill="white"/>
  <path fill-rule="evenodd" clip-rule="evenodd" d="M19 10.5L14 13V16.2798C14 19.3782 16.0323 22.1097 19 23C21.9677 22.1097 24 19.3782 24 16.2798V13L19 10.5ZM22.0303 16.0303C22.3232 15.7374 22.3232 15.2626 22.0303 14.9697C21.7374 14.6768 21.2626 14.6768 20.9697 14.9697L18.5 17.4393L17.5303 16.4697C17.2374 16.1768 16.7626 16.1768 16.4697 16.4697C16.1768 16.7626 16.1768 17.2374 16.4697 17.5303L17.9697 19.0303L18.5 19.5607L19.0303 19.0303L22.0303 16.0303Z" fill="white"/>
</svg>