<svg xmlns="http://www.w3.org/2000/svg" width="30" height="24" viewBox="0 0 30 24">
    <g fill="#020D1C" fill-rule="evenodd">
        <path fill-rule="nonzero" d="M13.497 12c.172 0 .342.005.512.014.038 1.268.17 2.461.394 3.579l-.906.907-3.737-3.737c1.147-.491 2.41-.763 3.737-.763zm0-6c2.354 0 4.585.525 6.583 1.464l-2.39 1.2C16.37 8.233 14.96 8 13.497 8c-2.445 0-4.737.65-6.715 1.785L5.324 8.327C7.697 6.852 10.497 6 13.497 6zm0-6c4.66 0 8.975 1.483 12.497 4.003L24.558 5.44C21.415 3.27 17.604 2 13.497 2 9.389 2 5.578 3.27 2.435 5.439L1 4.003C4.522 1.483 8.836 0 13.497 0z"/>
        <path d="M22.997 8l7 3.5c0 6-2.334 10-7 12-4.667-2-7-6-7-12l7-3.5zm2.292 4.293l-2.293 2.293-2.292-2.293-1.415 1.414L21.582 16l-2.293 2.293 1.415 1.414 2.292-2.293 2.293 2.293 1.415-1.414L24.41 16l2.294-2.293-1.415-1.414z"/>
    </g>
</svg>
