<?xml version="1.0" encoding="UTF-8"?>
<svg width="24px" height="24px" viewBox="0 0 24 24" version="1.1" xmlns="http://www.w3.org/2000/svg" xmlns:xlink="http://www.w3.org/1999/xlink">
    <!-- Generator: Sketch 48.1 (47250) - http://www.bohemiancoding.com/sketch -->
    <title>SECURE_HOTSPOT_ICON</title>
    <desc>Created with Sketch.</desc>
    <defs></defs>
    <g id="Artboard-Copy-2" stroke="none" stroke-width="1" fill="none" fill-rule="evenodd" transform="translate(-287.000000, -584.000000)">
        <path d="M295,596 C295,593.790861 296.790861,592 299,592 C301.209139,592 303,593.790861 303,596 C303,597.863839 301.725227,599.42994 300,599.873983 L300,602 L300,604 L302,604 L302,606 L300,606 L300,608 L298,608 L298,599.873983 C296.274773,599.42994 295,597.863839 295,596 Z M290.514719,604.485281 C288.343146,602.313708 287,599.313708 287,596 C287,589.372583 292.372583,584 299,584 C305.627417,584 311,589.372583 311,596 C311,599.313708 309.656854,602.313708 307.485281,604.485281 L306.071068,603.071068 C307.880712,601.261424 309,598.761424 309,596 C309,590.477153 304.522847,586 299,586 C293.477153,586 289,590.477153 289,596 C289,598.761424 290.119288,601.261424 291.928932,603.071068 L290.514719,604.485281 Z M293.343146,601.656854 C291.895431,600.209139 291,598.209139 291,596 C291,591.581722 294.581722,588 299,588 C303.418278,588 307,591.581722 307,596 C307,598.209139 306.104569,600.209139 304.656854,601.656854 L303.242641,600.242641 C304.328427,599.156854 305,597.656854 305,596 C305,592.686292 302.313708,590 299,590 C295.686292,590 293,592.686292 293,596 C293,597.656854 293.671573,599.156854 294.757359,600.242641 L293.343146,601.656854 Z M299,598 C300.104569,598 301,597.104569 301,596 C301,594.895431 300.104569,594 299,594 C297.895431,594 297,594.895431 297,596 C297,597.104569 297.895431,598 299,598 Z" id="SECURE_HOTSPOT_ICON" fill="#FFFFFF"></path>
    </g>
</svg>