<?xml version="1.0" encoding="UTF-8"?>
<svg width="40px" height="39px" viewBox="0 0 40 39" version="1.1" xmlns="http://www.w3.org/2000/svg" xmlns:xlink="http://www.w3.org/1999/xlink">
    <!-- Generator: sketchtool 63.1 (101010) - https://sketch.com -->
    <title>FB3E3747-ECE8-40D7-8F7D-0550AF8F8C6A</title>
    <desc>Created with sketchtool.</desc>
    <g id="Page-1" stroke="none" stroke-width="1" fill="none" fill-rule="evenodd">
        <g id="2fa-Atlogin-Empty" transform="translate(-293.000000, -169.000000)" fill="#FFFFFF" fill-rule="nonzero">
            <g id="2faicon" transform="translate(293.000000, 169.000000)">
                <path d="M33,2 C34.1045695,2 35,2.8954305 35,4 L35,9 L33,9 L33,4 L2,4 L2,25 L25,25 L25,27 L22,27 L22,37 L26,37 C27.0543618,37 27.9181651,37.8158778 27.9945143,38.8507377 L28,39 L8,39 C8,37.8954305 8.8954305,37 10,37 L14,37 L14,27 L2,27 C0.8954305,27 0,26.1045695 0,25 L0,4 C0,2.8954305 0.8954305,2 2,2 L33,2 Z M20,27 L16,27 L16,37 L20,37 L20,27 Z M37.8333333,11 C39.0299503,11 40,11.8954305 40,13 L40,29 C40,30.1045695 39.0299503,31 37.8333333,31 L29.1666667,31 C27.9700497,31 27,30.1045695 27,29 L27,13 C27,11.8954305 27.9700497,11 29.1666667,11 L37.8333333,11 Z M38,13 L29,13 L29,29 L38,29 L38,13 Z M35.6464466,18.6464466 L36.3535534,19.3535534 L33,22.7071068 L31.1464466,20.8535534 L31.8535534,20.1464466 L33,21.293 L35.6464466,18.6464466 Z M21.6464466,10.6464466 L22.3535534,11.3535534 L15,18.7071068 L11.6464466,15.3535534 L12.3535534,14.6464466 L15,17.293 L21.6464466,10.6464466 Z" id="Combined-Shape"></path>
            </g>
        </g>
    </g>
</svg>