<?xml version="1.0" encoding="UTF-8"?>
<svg width="24px" height="16px" viewBox="0 0 24 16" version="1.1" xmlns="http://www.w3.org/2000/svg" xmlns:xlink="http://www.w3.org/1999/xlink">
    <!-- Generator: Sketch 48.1 (47250) - http://www.bohemiancoding.com/sketch -->
    <title>DATA_OVER_ICON</title>
    <desc>Created with Sketch.</desc>
    <defs></defs>
    <g id="Artboard" stroke="none" stroke-width="1" fill="none" fill-rule="evenodd" transform="translate(-340.000000, -725.000000)">
        <g id="Group-5-Copy-3" transform="translate(340.000000, 725.000000)" fill="#FF3B3B" fill-rule="nonzero">
            <g id="Group-7">
                <path d="M8,2 C4.6862915,2 2,4.6862915 2,8 C2,11.3137085 4.6862915,14 8,14 L14,14 C17.3137085,14 20,11.3137085 20,8 C20,4.6862915 17.3137085,2 14,2 L8,2 Z M21.418483,5 L21.5,5 C22.8807119,5 24,6.11928813 24,7.5 L24,8.5 C24,9.88071187 22.8807119,11 21.5,11 L21.418483,11 C20.2317082,13.9318303 17.3573776,16 14,16 L8,16 C3.581722,16 5.41083001e-16,12.418278 0,8 C-5.41083001e-16,3.581722 3.581722,8.11624501e-16 8,0 L14,0 C17.3573776,-6.16740251e-16 20.2317082,2.06816966 21.418483,5 Z" id="DATA_OVER_ICON"></path>
            </g>
        </g>
    </g>
</svg>