<?xml version="1.0" encoding="UTF-8"?>
<svg width="24px" height="24px" viewBox="0 0 24 24" version="1.1" xmlns="http://www.w3.org/2000/svg" xmlns:xlink="http://www.w3.org/1999/xlink">
    <!-- Generator: Sketch 48.1 (47250) - http://www.bohemiancoding.com/sketch -->
    <title>ESC_BUTTON</title>
    <desc>Created with Sketch.</desc>
    <defs></defs>
    <g id="Artboard-Copy-3" stroke="none" stroke-width="1" fill="none" fill-rule="evenodd" transform="translate(-582.000000, -189.000000)">
        <g id="ESC_BUTTON" transform="translate(582.000000, 189.000000)" fill="#FFFFFF" fill-rule="nonzero">
            <path d="M12,22 C17.5228475,22 22,17.5228475 22,12 C22,6.4771525 17.5228475,2 12,2 C6.4771525,2 2,6.4771525 2,12 C2,17.5228475 6.4771525,22 12,22 Z M12,24 C5.372583,24 0,18.627417 0,12 C0,5.372583 5.372583,0 12,0 C18.627417,0 24,5.372583 24,12 C24,18.627417 18.627417,24 12,24 Z" id="Oval-11" opacity="0.25243433"></path>
            <path d="M11.2928932,12 L7.64644661,8.35355339 L8.35355339,7.64644661 L12,11.2928932 L15.6464466,7.64644661 L16.3535534,8.35355339 L12.7071068,12 L16.3535534,15.6464466 L15.6464466,16.3535534 L12,12.7071068 L8.35355339,16.3535534 L7.64644661,15.6464466 L11.2928932,12 Z" id="Combined-Shape"></path>
        </g>
    </g>
</svg>