<svg xmlns="http://www.w3.org/2000/svg" width="14" height="14" viewBox="0 0 14 14">
  <g fill="none" fill-rule="evenodd" transform="translate(1 1)">
    <path fill="#DF4744" fill-rule="nonzero" d="M5.83182434,11.6636487 C9.05265199,11.6636487 11.6636487,9.05265199 11.6636487,5.83182434 C11.6636487,2.61099669 9.05265199,0 5.83182434,0 C2.61099669,0 0,2.61099669 0,5.83182434 C0,9.05265199 2.61099669,11.6636487 5.83182434,11.6636487 Z M5.83182434,12.6636487 C2.05871194,12.6636487 -1,9.60493674 -1,5.83182434 C-1,2.05871194 2.05871194,-1 5.83182434,-1 C9.60493674,-1 12.6636487,2.05871194 12.6636487,5.83182434 C12.6636487,9.60493674 9.60493674,12.6636487 5.83182434,12.6636487 Z"/>
    <circle cx="5.832" cy="5.832" r="5.832" fill="#FC5753"/>
    <path fill="#000" d="M5.93670134,5.13969309 L8.38738795,2.68900648 C8.61004184,2.46635259 8.96211021,2.47118002 9.18223685,2.69130665 C9.39592573,2.90499554 9.40339331,3.26729926 9.18453702,3.48615555 L6.73385041,5.93684217 L9.18453702,8.38752878 C9.40339331,8.60638507 9.39592573,8.96868879 9.18223685,9.18237768 C8.96211021,9.40250431 8.61004184,9.40733174 8.38738795,9.18467785 L5.93670134,6.73399124 L3.48601472,9.18467785 C3.26336083,9.40733174 2.91129246,9.40250431 2.69116582,9.18237768 C2.47747694,8.96868879 2.47000936,8.60638507 2.68886565,8.38752878 L5.13955226,5.93684217 L2.68886565,3.48615555 C2.47000936,3.26729926 2.47747694,2.90499554 2.69116582,2.69130665 C2.91129246,2.47118002 3.26336083,2.46635259 3.48601472,2.68900648 L5.93670134,5.13969309 Z" opacity=".503" style="mix-blend-mode:multiply"/>
  </g>
</svg>
