<?xml version="1.0" encoding="utf-8"?>
<!-- Generator: Adobe Illustrator 27.2.0, SVG Export Plug-In . SVG Version: 6.00 Build 0)  -->
<svg version="1.1" id="Layer_1" xmlns="http://www.w3.org/2000/svg" xmlns:xlink="http://www.w3.org/1999/xlink" x="0px" y="0px"
	 viewBox="0 0 16 24" style="enable-background:new 0 0 16 24;" xml:space="preserve">
<style type="text/css">
	.st0{fill-rule:evenodd;clip-rule:evenodd;fill:#FFFFFF;}
</style>
<g id="Artboard" transform="translate(-272.000000, -314.000000)">
	<g id="MENU_ICON" transform="translate(272.000000, 314.000000)">
		<path id="menu-icon" class="st0" d="M0,18c0-0.6,0.4-1,1-1h14c0.6,0,1,0.4,1,1s-0.4,1-1,1H1C0.4,19,0,18.6,0,18L0,18z M0,12
			c0-0.6,0.4-1,1-1h14c0.6,0,1,0.4,1,1s-0.4,1-1,1H1C0.4,13,0,12.6,0,12L0,12z M0,6c0-0.6,0.4-1,1-1h14c0.6,0,1,0.4,1,1s-0.4,1-1,1
			H1C0.4,7,0,6.6,0,6L0,6z"/>
	</g>
</g>
</svg>
