<svg xmlns="http://www.w3.org/2000/svg" width="29" height="16" viewBox="0 0 29 16">
    <g fill="#55FF8A" fill-rule="evenodd">
        <path fill-rule="nonzero" d="M5.668 4v4.823c0 1.104.405 1.656 1.42 1.656 1.013 0 1.419-.552 1.419-1.656V4h1.668v4.642c0 2.321-.834 3.358-3.088 3.358C4.834 12 4 10.963 4 8.642V4h1.668zm9.16 0c2.085 0 3.46 1.318 3.46 3.932s-1.375 3.933-3.46 3.933h-2.963V4h2.963zm8.609 0c1.464 0 2.388 1.025 2.388 2.513 0 1.487-.924 2.512-2.388 2.512H21.43v2.84h-1.713V4h3.719zm-8.609 1.521h-1.25v4.823h1.25c1.014 0 1.645-.552 1.645-1.803V7.324c0-1.25-.63-1.803-1.645-1.803zm8.406-.034H21.43v2.051h1.803c.507 0 .822-.27.822-.777v-.496c0-.507-.315-.778-.822-.778z"/>
        <path fill-opacity=".404" d="M26 0c1.657 0 3 1.343 3 3v10c0 1.657-1.343 3-3 3H3c-1.657 0-3-1.343-3-3V3c0-1.657 1.343-3 3-3h23zm0 2H3c-.552 0-1 .448-1 1v10c0 .552.448 1 1 1h23c.552 0 1-.448 1-1V3c0-.552-.448-1-1-1z"/>
    </g>
</svg>
