<svg xmlns="http://www.w3.org/2000/svg" width="40" height="16" viewBox="0 0 40 16">
    <g fill="#55FF8A" fill-rule="evenodd">
        <path d="M7.83 12H4v-1.396h1.038v-5.26H4V3.948h3.83v1.396H6.792v5.26H7.83V12zm6.402 0l-2.134-3.507-1.05 1.27V12H9.295V3.948h1.753v3.83h.07L12.26 6.22l1.81-2.273h1.985l-2.711 3.31L16.297 12h-2.065zm8.571 0h-5.48V3.948h5.48v1.557h-3.726v1.638h3.196V8.69h-3.196v1.754h3.726V12zm4.753 0h-2.03L23.54 5.944h1.685l.75 2.445.565 2.192h.092l.565-2.192.727-2.445h1.615L27.556 12zM36 10.547V12h-5.699v-1.58l2.48-2.123c.9-.773 1.212-1.223 1.212-1.903v-.162c0-.611-.542-.923-1.061-.923-.762 0-1.131.52-1.292 1.13l-1.512-.576c.358-1.119 1.292-2.053 2.965-2.053 1.742 0 2.746 1.026 2.746 2.422 0 1.384-.993 2.227-2.146 3.138l-1.5 1.177H36z"/>
        <path fill-rule="nonzero" d="M3 2c-.552 0-1 .448-1 1v10c0 .552.448 1 1 1h34c.552 0 1-.448 1-1V3c0-.552-.448-1-1-1H3zm0-2h34c1.657 0 3 1.343 3 3v10c0 1.657-1.343 3-3 3H3c-1.657 0-3-1.343-3-3V3c0-1.657 1.343-3 3-3z" opacity=".402"/>
    </g>
</svg>
