<svg width="60" height="60" viewBox="0 0 60 60" xmlns="http://www.w3.org/2000/svg">
    <path d="M30 0c.546 0 1.093.107 1.607.32l10.958 4.548-1.681 3.363-10.715-4.447a.44.44 0 0 0-.111-.03L30 3.75a.437.437 0 0 0-.169.034L11.597 11.35a.438.438 0 0 0-.237.235L3.784 29.803a.424.424 0 0 0-.002.328l7.582 18.328c.043.105.13.192.236.235l18.177 7.522a.43.43 0 0 0 .336 0L48.4 48.69a.436.436 0 0 0 .237-.236l7.58-18.323a.424.424 0 0 0-.002-.328l-1.478-3.554H58.8l.88 2.114c.395.952.425 2.013.088 2.981l-.085.222-7.58 18.322a4.177 4.177 0 0 1-2.275 2.269L31.54 59.685a4.186 4.186 0 0 1-3.197-.004L10.166 52.16A4.184 4.184 0 0 1 7.9 49.892L.317 31.566a4.184 4.184 0 0 1 .003-3.203L7.9 10.146a4.179 4.179 0 0 1 2.259-2.258L28.393.321A4.187 4.187 0 0 1 30 0zm-9.062 18.125v19.657l9.375-10.223 9.374 10.223V26.249h4.688V42.5h-4.308a4.67 4.67 0 0 1-3.315-1.383l-6.439-7.266-6.44 7.266a4.67 4.67 0 0 1-3.315 1.383H16.25V18.125h4.688zM47.813.625 60 23.75H35.625L47.813.625zm.937 17.5h-1.875V20h1.875v-1.875zm0-8.125h-1.875v6.25h1.875V10z" fill="#FFF" fill-rule="evenodd"/>
</svg>
