<svg width="60" height="60" viewBox="0 0 60 60" xmlns="http://www.w3.org/2000/svg">
    <path d="M30 0c.455 0 .91.074 1.347.223l.26.098L49.84 7.888a4.18 4.18 0 0 1 2.163 2.042l.097.216 7.579 18.217c.395.952.425 2.013.088 2.981l-.085.222-1.083 2.616a17.432 17.432 0 0 0-3.258-1.932l.876-2.119a.423.423 0 0 0 .024-.246l-.026-.082-7.576-18.217a.431.431 0 0 0-.16-.194l-.077-.04L30.17 3.783a.437.437 0 0 0-.283-.019l-.055.019-18.234 7.567a.442.442 0 0 0-.196.16l-.04.075-7.577 18.217a.425.425 0 0 0-.027.248l.025.08 7.582 18.328a.432.432 0 0 0 .16.195l.076.04 18.177 7.522a.43.43 0 0 0 .282.019l.054-.019 2.135-.878a17.431 17.431 0 0 0 1.932 3.26l-2.64 1.087a4.186 4.186 0 0 1-2.938.093l-.26-.097-18.176-7.522a4.186 4.186 0 0 1-2.17-2.05l-.097-.217L.317 31.566a4.183 4.183 0 0 1-.081-2.981l.084-.222L7.9 10.146a4.178 4.178 0 0 1 2.043-2.161l.216-.097L28.393.321A4.187 4.187 0 0 1 30 0zm30 48.14C60 54.69 54.69 60 48.14 60a11.846 11.846 0 0 1-9.666-4.985L36.28 57.21v-7.674h7.674l-3.47 3.469A9.07 9.07 0 0 0 57.21 48.14H60zM48.14 36.28a11.84 11.84 0 0 1 9.368 4.585L60 38.372v7.675h-7.674l3.188-3.189a9.07 9.07 0 0 0-16.418 4.583H36.3c.362-6.225 5.525-11.162 11.84-11.162zM20.938 18.124v19.657l9.375-10.223 6.618 7.216a17.543 17.543 0 0 0-2.966 3.198l-3.652-4.122-6.44 7.266a4.671 4.671 0 0 1-3.067 1.376l-.248.007H16.25V18.125h4.688zm23.437 0v12.98c-1.664.366-3.24.97-4.688 1.774V18.125h4.688z" fill="#FFF" fill-rule="evenodd"/>
</svg>
