<svg width="111" height="16" viewBox="0 0 111 16" fill="none" xmlns="http://www.w3.org/2000/svg">
<path fill-rule="evenodd" clip-rule="evenodd" d="M11.8765 13.5914L7.12591 8.37276L2.3753 13.5914V3.55556H0V16H2.1833C2.81315 16 3.41727 15.7463 3.86264 15.2947L7.12591 11.5842L10.3892 15.2947C10.8346 15.7463 11.4387 16 12.0685 16H14.2518V3.55556H11.8765V13.5914Z" fill="white"/>
<path fill-rule="evenodd" clip-rule="evenodd" d="M16.924 16H19.5962V3.55556H16.924V16Z" fill="white"/>
<path fill-rule="evenodd" clip-rule="evenodd" d="M16.924 2.66667H19.5962V0H16.924V2.66667Z" fill="white"/>
<path fill-rule="evenodd" clip-rule="evenodd" d="M80.1664 16H82.8386V3.55556H80.1664V16Z" fill="white"/>
<path fill-rule="evenodd" clip-rule="evenodd" d="M80.1664 2.66667H82.8386V0H80.1664V2.66667Z" fill="white"/>
<path fill-rule="evenodd" clip-rule="evenodd" d="M27.613 3.55556C26.5523 3.55556 25.5665 3.86105 24.7352 4.3813V3.55556H22.2686V16H24.7352V8.77419C24.7352 7.22225 26.0236 5.96416 27.613 5.96416C29.2023 5.96416 30.4908 7.22225 30.4908 8.77419V16H32.9574V8.77419C32.9574 5.8919 30.5648 3.55556 27.613 3.55556Z" fill="white"/>
<path fill-rule="evenodd" clip-rule="evenodd" d="M59.431 9.77778C59.431 7.67145 61.1494 5.96416 63.2687 5.96416C64.27 5.96416 65.1789 6.34833 65.8624 6.97256L67.6341 5.32186C66.506 4.23037 64.9677 3.55556 63.2687 3.55556C59.8105 3.55556 57.0073 6.34151 57.0073 9.77778C57.0073 13.2141 59.8105 16 63.2687 16C64.9975 16 66.5631 15.3035 67.6962 14.1775L65.9824 12.4746C65.2876 13.1647 64.3283 13.5914 63.2687 13.5914C61.1494 13.5914 59.431 11.8841 59.431 9.77778Z" fill="white"/>
<path fill-rule="evenodd" clip-rule="evenodd" d="M71.8352 4.3813V3.55556H69.4775V16H71.8352V8.77419C71.8352 7.22225 73.0667 5.96416 74.5859 5.96416C75.4456 5.96416 76.2127 6.3676 76.7168 6.99865L78.3849 5.29417C77.4497 4.22956 76.0964 3.55556 74.5859 3.55556C73.5721 3.55556 72.6298 3.86105 71.8352 4.3813Z" fill="white"/>
<path fill-rule="evenodd" clip-rule="evenodd" d="M106.02 6.47833L100.956 11.6512C100.081 10.1908 100.23 8.30526 101.441 7.06804C102.652 5.83082 104.537 5.63853 106.02 6.47833ZM108.034 9.79619C108.061 10.7725 107.722 11.7464 106.997 12.4874C105.888 13.6203 104.215 13.8772 102.802 13.269L109.414 6.51406C109.157 6.11905 108.857 5.7433 108.505 5.39967C106.002 2.95774 102.054 2.93847 99.6869 5.35672C97.3197 7.77457 97.4301 11.7143 99.9329 14.1562C102.436 16.5977 106.384 16.617 108.751 14.1991C109.935 12.9896 110.496 11.4003 110.449 9.80824L108.034 9.79619Z" fill="white"/>
<path fill-rule="evenodd" clip-rule="evenodd" d="M51.511 5.85497C51.5205 5.85296 51.5325 5.85095 51.5424 5.84854C52.9201 5.57035 54.4363 6.97296 54.4363 6.97296L56.1166 5.32227C55.0471 4.23077 53.5878 3.55556 51.9764 3.55556C50.9699 3.55556 49.9518 3.83616 49.1956 4.38492C49.1487 4.41743 49.1037 4.45236 49.0583 4.48728C49.0443 4.49852 49.0304 4.51016 49.0169 4.52141C48.809 4.68559 48.6151 4.86584 48.4487 5.07177C47.1781 6.64378 47.7308 8.81755 49.683 9.92711C49.7459 9.96284 49.7993 9.99295 49.8693 10.0327L52.2878 11.4072C53.0073 11.8159 53.2108 12.6167 52.7429 13.196C52.682 13.2711 52.6103 13.3473 52.5307 13.4216C51.0885 14.5645 48.8895 12.583 48.8895 12.583L47.2092 14.2337C48.2791 15.3252 49.7379 16 51.3493 16C52.8014 16 54.1464 15.4878 54.8922 14.5568C54.9193 14.5255 54.9492 14.497 54.9754 14.4645C56.246 12.8925 55.6933 10.7187 53.7411 9.60918C53.6782 9.57345 53.6304 9.54655 53.5548 9.5036L51.3223 8.23507L51.1363 8.12909C50.4168 7.72043 50.2134 6.91957 50.6812 6.3403C50.7365 6.27206 50.7891 6.21505 50.8437 6.16407C51.0571 6.0043 51.2816 5.90595 51.511 5.85497Z" fill="white"/>
<path fill-rule="evenodd" clip-rule="evenodd" d="M45.4276 0H42.7554V3.55556H40.9739C37.5304 3.55559 34.7388 6.34136 34.7388 9.77778C34.7388 13.2142 37.5303 16 40.9739 16H45.4276V0ZM42.7554 6.22222V13.3333L40.974 13.3333C39.0063 13.3333 37.411 11.7414 37.411 9.77778C37.411 7.81414 39.0061 6.2223 40.9738 6.22222H42.7554Z" fill="white"/>
<path fill-rule="evenodd" clip-rule="evenodd" d="M85.511 0H88.1833V3.55556H89.9647C93.4083 3.55559 96.1999 6.34136 96.1999 9.77778C96.1999 13.2142 93.4084 16 89.9648 16H85.511V0ZM88.1833 6.22222V13.3333L89.9646 13.3333C91.9324 13.3333 93.5276 11.7414 93.5276 9.77778C93.5276 7.81414 91.9325 6.2223 89.9648 6.22222H88.1833Z" fill="white"/>
</svg>
