<svg width="107" height="17" viewBox="0 0 107 17" fill="none" xmlns="http://www.w3.org/2000/svg">
<path d="M49.8104 4.22424C52.0334 4.22424 53.8771 5.37733 54.5826 5.99789L52.8275 8.01423C52.4397 7.67316 51.195 6.90303 49.8104 6.90303C48.9241 6.90303 48.5007 7.14251 48.3159 7.30871C48.1295 7.47632 48.0681 7.67126 48.0681 7.8303C48.0681 8.04747 48.1192 8.21828 48.2987 8.401C48.5162 8.62249 49.0147 8.94982 50.1099 9.20391C51.3844 9.49958 52.5295 9.89021 53.3728 10.5208C54.303 11.2164 54.8324 12.1828 54.8324 13.3939C54.8324 14.4534 54.3445 15.4214 53.4308 16.0796C52.5575 16.7086 51.3808 17 50.0154 17C47.4005 17 45.4374 15.5127 44.7151 14.6959L46.7065 12.9162C47.0775 13.3358 48.3667 14.3212 50.0154 14.3212C51.042 14.3212 51.6076 14.0974 51.8786 13.9023C52.1092 13.7361 52.1677 13.5709 52.1677 13.3939C52.1677 13.0849 52.0822 12.894 51.7825 12.6699C51.3959 12.3808 50.696 12.0892 49.5109 11.8143C48.1466 11.4978 47.1075 11.0009 46.4026 10.2833C45.6597 9.52689 45.4033 8.64342 45.4033 7.8303C45.4033 6.95905 45.7518 6.02065 46.5391 5.3125C47.328 4.60295 48.442 4.22424 49.8104 4.22424Z" fill="white"/>
<path d="M2.81954 13.6684L7.00259 8.97128L11.1856 13.6688V4.39287H14.0048V16.897H10.6975L10.6362 16.8277L7.00219 12.7106L3.36858 16.8277L3.30732 16.897H0V4.39287H2.81954V13.6684Z" fill="white"/>
<path d="M19.1029 16.897H16.1439V4.39287H19.1029V16.897Z" fill="white"/>
<path d="M26.5451 4.39287C29.4719 4.39287 31.8481 6.75346 31.8481 9.66996V16.897H29.0853V9.66996C29.0853 8.27785 27.95 7.14531 26.5451 7.14531H24.0052V16.897H21.242V4.39287H26.5451Z" fill="white"/>
<path fill-rule="evenodd" clip-rule="evenodd" d="M43.7434 16.897H39.2903C35.8902 16.8969 33.1378 14.0957 33.1377 10.6451C33.1377 7.19443 35.8901 4.39291 39.2903 4.39287H40.7844V0H43.7434V16.897ZM39.2903 7.39605C37.5287 7.39611 36.0967 8.84876 36.0967 10.6451C36.0968 12.4414 37.5287 13.8937 39.2903 13.8938H40.7844V7.39605H39.2903Z" fill="white"/>
<path d="M61.787 4.39287C63.464 4.39287 64.9823 5.07171 66.0948 6.16813L66.2469 6.31825L64.2628 8.20137L64.1223 8.07057C63.5061 7.49732 62.6877 7.14531 61.787 7.14531C59.88 7.14542 58.3315 8.71101 58.3315 10.6451C58.3316 12.5792 59.88 14.1444 61.787 14.1445C62.7407 14.1445 63.6043 13.7535 64.2303 13.1203L64.3761 12.973L66.2994 14.9201L66.156 15.0654C65.0384 16.1966 63.4931 16.897 61.787 16.897C58.3738 16.8969 55.6096 14.0964 55.6095 10.6451C55.6095 7.19382 58.3738 4.39298 61.787 4.39287Z" fill="white"/>
<path d="M72.5825 4.39287C74.0871 4.39287 75.4334 5.07715 76.3615 6.15324L76.4844 6.29571L74.5999 8.25732L74.4546 8.07218C74.0098 7.50509 73.3356 7.14531 72.5825 7.14531H70.164V16.897H67.5048V4.39287H72.5825Z" fill="white"/>
<path d="M80.6601 16.897H77.701V4.39287H80.6601V16.897Z" fill="white"/>
<path fill-rule="evenodd" clip-rule="evenodd" d="M85.7582 4.39287H87.2527C90.6528 4.39292 93.4053 7.19443 93.4053 10.6451C93.4052 14.0418 90.7382 16.8093 87.4116 16.895L87.2527 16.897H82.7991V0H85.7582V4.39287ZM85.7582 13.8938H87.2527C89.0143 13.8937 90.4462 12.4414 90.4463 10.6451C90.4463 8.84876 89.0143 7.39611 87.2527 7.39605H85.7582V13.8938Z" fill="white"/>
<path fill-rule="evenodd" clip-rule="evenodd" d="M96.3792 6.20597C98.7209 3.76914 102.618 3.79539 105.082 6.2442C105.43 6.58983 105.726 6.96709 105.978 7.36224L106.066 7.49948L99.8598 13.9566C101.07 14.3683 102.43 14.0945 103.352 13.1348C104.003 12.4578 104.308 11.5664 104.284 10.6685L104.278 10.4556L106.992 10.4697L106.997 10.6685C107.044 12.2671 106.49 13.8664 105.32 15.0843C102.979 17.5206 99.0814 17.4944 96.6174 15.046C94.1545 12.5984 94.0388 8.64094 96.3792 6.20597ZM102.23 7.49344C100.933 6.86968 99.3705 7.0909 98.3477 8.15509C97.3251 9.21916 97.1422 10.814 97.7844 12.1197L102.23 7.49344Z" fill="white"/>
<path d="M19.1029 2.59105H16.1439V0H19.1029V2.59105Z" fill="white"/>
<path d="M80.6601 2.59105H77.701V0H80.6601V2.59105Z" fill="white"/>
</svg>
