<svg width="24" height="24" viewBox="0 0 24 24" fill="none" xmlns="http://www.w3.org/2000/svg">
<path fill-rule="evenodd" clip-rule="evenodd" d="M8.99847 16.3826L7.38403 18.3199L6.61603 17.6799L8.07987 15.9233C6.63984 15.0943 5.27998 13.7864 4 11.9999C6.5 8.49988 9.054 6.99988 12 6.99988C13.0351 6.99988 14.0356 7.20567 15.0016 7.6172L16.616 5.67993L17.384 6.31993L15.9202 8.0765C17.3602 8.90556 18.72 10.2134 20 11.9999C17.5 15.4999 14.946 16.9999 12 16.9999C10.965 16.9999 9.96447 16.7941 8.99847 16.3826ZM9.67165 15.5748C10.4292 15.8593 11.205 15.9999 12 15.9999C14.333 15.9999 16.501 14.7879 18.529 12.2839L18.753 11.9999L18.529 11.7159C17.4805 10.4219 16.3951 9.47293 15.269 8.85796L14.2777 10.0475C14.7422 10.5892 15 11.2813 15 11.9999C15 12.7955 14.6839 13.5586 14.1213 14.1212C13.5587 14.6838 12.7956 14.9999 12 14.9999C11.465 14.9999 10.9448 14.857 10.4903 14.5924L9.67165 15.5748ZM11.1443 13.8076C11.4093 13.933 11.7012 13.9999 12 13.9999C12.5304 13.9999 13.0391 13.7892 13.4142 13.4141C13.7893 13.039 14 12.5303 14 11.9999C14 11.5782 13.8668 11.1702 13.6238 10.8322L11.1443 13.8076ZM12.8558 10.1922L10.3763 13.1676C10.1332 12.8296 10 12.4216 10 11.9999C10 11.4694 10.2107 10.9607 10.5858 10.5857C10.9609 10.2106 11.4696 9.99988 12 9.99988C12.2988 9.99988 12.5908 10.0668 12.8558 10.1922ZM13.5098 9.40745C13.0553 9.14278 12.535 8.99988 12 8.99988C11.2044 8.99988 10.4413 9.31595 9.87868 9.87856C9.31607 10.4412 9 11.2042 9 11.9999C9 12.7185 9.25785 13.4106 9.72233 13.9524L8.7308 15.1422C7.52371 14.4832 6.36382 13.4404 5.247 11.9999C7.338 9.30288 9.58 7.99988 12 7.99988C12.795 7.99988 13.5707 8.14061 14.3283 8.42525L13.5098 9.40745Z" fill="white"/>
</svg>
