<svg width="35" height="16" viewBox="0 0 35 16" fill="none" xmlns="http://www.w3.org/2000/svg">
<path fill-rule="evenodd" clip-rule="evenodd" d="M32.3586 1H5.52557C4.44335 1 3.50616 1.75872 3.27063 2.82551L1.03077 12.9706C0.800899 14.0118 1.58522 15 2.64144 15H29.4744C30.5566 15 31.4938 14.2413 31.7294 13.1745L33.9692 3.02939C34.1991 1.98822 33.4148 1 32.3586 1ZM5.52557 0C3.97955 0 2.6407 1.08388 2.30423 2.60788L0.0643679 12.753C-0.303428 14.4188 0.951492 16 2.64144 16H29.4744C31.0205 16 32.3593 14.9161 32.6958 13.3921L34.9356 3.24703C35.3034 1.58116 34.0485 0 32.3586 0H5.52557ZM29.3304 5.92401H22.4485L22.7751 4.53339H27.9528C28.7321 4.53339 29.3319 5.17729 29.3304 5.92401ZM27.4813 8.2756L27.4807 8.27778L27.0544 10.0959H22.9809L23.7554 6.79316H22.3385L21.6272 9.76957C21.4181 10.6445 22.0745 11.4865 22.9656 11.4865H27.0544C27.6926 11.4865 28.2471 11.0436 28.3942 10.4164L28.8243 8.58289L29.252 6.79316H27.8289L27.4813 8.2756ZM16.1088 6.79316H14.6875L13.4987 11.4865H14.92L15.4924 9.22674H17.8127L18.9391 11.4865H20.4693L19.394 9.33326L20.0444 9.19831C20.5592 9.09148 20.9791 8.69259 21.1055 8.16065L21.4304 6.79316H20.0144L19.7666 7.83612H15.8446L16.1088 6.79316ZM13.7332 6.79316H12.3172L12.0694 7.83612H8.24917L8.50734 6.79316H6.95833L5.7536 11.4865H7.17484L7.79518 9.22674H12.0694C12.7061 9.22674 13.2597 8.7859 13.4083 8.16065L13.7332 6.79316ZM20.0336 4.5334C20.8155 4.5334 21.4175 5.17718 21.4159 5.92401H14.8757L15.2199 4.5334H20.0336ZM13.8429 5.92401C13.8444 5.17719 13.2425 4.5334 12.4606 4.5334H5.5815C5.40648 5.24041 5.9415 5.92401 6.66985 5.92401H13.8429Z" fill="white"/>
</svg>
