<svg width="24" height="24" viewBox="0 0 24 24" fill="none" xmlns="http://www.w3.org/2000/svg">
<path fill-rule="evenodd" clip-rule="evenodd" d="M12 0C18.627 0 24 5.373 24 12C24 18.627 18.627 24 12 24C5.373 24 0 18.627 0 12C0 5.373 5.373 0 12 0ZM7.714 7.714C7.62012 7.8078 7.54564 7.91918 7.49482 8.04178C7.44401 8.16438 7.41786 8.29579 7.41786 8.4285C7.41786 8.56121 7.44401 8.69262 7.49482 8.81522C7.54564 8.93782 7.62012 9.0492 7.714 9.143L10.571 12L7.714 14.856C7.62017 14.9498 7.54574 15.0612 7.49496 15.1838C7.44418 15.3064 7.41804 15.4378 7.41804 15.5705C7.41804 15.7032 7.44418 15.8346 7.49496 15.9572C7.54574 16.0798 7.62017 16.1912 7.714 16.285C7.80783 16.3788 7.91922 16.4533 8.04182 16.504C8.16441 16.5548 8.2958 16.581 8.4285 16.581C8.5612 16.581 8.69259 16.5548 8.81518 16.504C8.93778 16.4533 9.04917 16.3788 9.143 16.285L11.999 13.428L14.857 16.285C15.0465 16.4745 15.3035 16.581 15.5715 16.581C15.8395 16.581 16.0965 16.4745 16.286 16.285C16.4755 16.0955 16.582 15.8385 16.582 15.5705C16.582 15.3025 16.4755 15.0455 16.286 14.856L13.429 12L16.286 9.142C16.4755 8.9525 16.582 8.69549 16.582 8.4275C16.582 8.15951 16.4755 7.9025 16.286 7.713C16.0965 7.5235 15.8395 7.41704 15.5715 7.41704C15.3035 7.41704 15.0465 7.5235 14.857 7.713L12 10.571L9.143 7.714C9.0492 7.62012 8.93782 7.54564 8.81522 7.49482C8.69262 7.44401 8.56121 7.41786 8.4285 7.41786C8.29579 7.41786 8.16438 7.44401 8.04178 7.49482C7.91918 7.54564 7.8078 7.62012 7.714 7.714Z" fill="white"/>
</svg>
