<svg width="24" height="24" viewBox="0 0 24 24" fill="none" xmlns="http://www.w3.org/2000/svg">
<path d="M13.0957 5.30273L13.7892 6.02316L13.7893 6.02308L13.0957 5.30273ZM19.6553 5.39551L20.3693 4.69538L20.3692 4.69533L19.6553 5.39551ZM19.6807 12.0078L18.9617 11.3127L18.9508 11.324L18.9403 11.3356L19.6807 12.0078ZM11.9707 20.5L11.2284 21.1701L11.9686 21.99L12.7111 21.1722L11.9707 20.5ZM4.30469 12.0078L5.04698 11.3377L5.03724 11.3269L5.02718 11.3164L4.30469 12.0078ZM4.34375 5.41504L5.0578 6.11514L5.05975 6.11314L4.34375 5.41504ZM4.38184 5.37598L3.66787 4.67579L3.66584 4.67788L4.38184 5.37598ZM10.877 5.31348L11.577 4.59939L11.5768 4.59915L10.877 5.31348ZM11.9707 6.38574L11.2706 7.09983L11.9644 7.77992L12.6642 7.10617L11.9707 6.38574ZM13.0957 5.30273L13.7893 6.02308C15.2372 4.62895 17.5397 4.66649 18.9413 6.09569L19.6553 5.39551L20.3692 4.69533C18.2005 2.48391 14.6418 2.4258 12.4021 4.58239L13.0957 5.30273ZM19.6553 5.39551L18.9413 6.09564C20.344 7.52618 20.355 9.87163 18.9617 11.3127L19.6807 12.0078L20.3996 12.7029C22.548 10.4808 22.529 6.89793 20.3693 4.69538L19.6553 5.39551ZM19.6807 12.0078L18.9403 11.3356L11.2303 19.8278L11.9707 20.5L12.7111 21.1722L20.421 12.68L19.6807 12.0078ZM11.9707 20.5L12.713 19.8299L5.04698 11.3377L4.30469 12.0078L3.5624 12.6779L11.2284 21.1701L11.9707 20.5ZM4.30469 12.0078L5.02718 11.3164C3.64706 9.87419 3.65822 7.54261 5.0578 6.11514L4.34375 5.41504L3.6297 4.71494C1.47271 6.91492 1.45701 10.4783 3.58219 12.6992L4.30469 12.0078ZM4.34375 5.41504L5.05975 6.11314L5.09784 6.07408L4.38184 5.37598L3.66584 4.67788L3.62775 4.71694L4.34375 5.41504ZM4.38184 5.37598L5.0958 6.07616C6.48338 4.66126 8.75942 4.6389 10.1771 6.0278L10.877 5.31348L11.5768 4.59915C9.37147 2.43867 5.8297 2.4714 3.66787 4.6758L4.38184 5.37598ZM10.877 5.31348L10.1769 6.02756L11.2706 7.09983L11.9707 6.38574L12.6708 5.67166L11.577 4.59939L10.877 5.31348ZM11.9707 6.38574L12.6642 7.10617L13.7892 6.02316L13.0957 5.30273L12.4022 4.58231L11.2772 5.66532L11.9707 6.38574Z" fill="white"/>
</svg>
