<svg width="24" height="24" viewBox="0 0 24 24" fill="none" xmlns="http://www.w3.org/2000/svg">
  <path fill-rule="evenodd" clip-rule="evenodd" d="M12 4C8.20698 4 4.79338 5.62442 2.41692 8.21553L0.205444 6.18834C3.13032 2.99929 7.33167 1 12 1C16.6683 1 20.8696 2.99929 23.7945 6.18834L21.583 8.21553C19.2066 5.62442 15.793 4 12 4ZM14.9092 10.5454L18.1894 8.90528C16.4262 7.70294 14.2952 7 12 7C9.05583 7 6.38184 8.15665 4.40761 10.0403L6.62591 12.0738C8.04604 10.7852 9.93131 10 12 10C13.0263 10 14.0075 10.1933 14.9092 10.5454ZM12 17L12 13C10.8072 13 9.71191 13.4177 8.85248 14.1148L12 17L12 17Z" fill="white"/>
  <path fill-rule="evenodd" clip-rule="evenodd" d="M14 13L19 10.5L24 13V16.2798C24 19.3782 21.9677 22.1097 19 23C16.0323 22.1097 14 19.3782 14 16.2798V13ZM21.5303 14.3543C21.8232 14.6472 21.8232 15.122 21.5303 15.4149L20.0607 16.8846L21.5303 18.3543C21.8232 18.6472 21.8232 19.122 21.5303 19.4149C21.2374 19.7078 20.7626 19.7078 20.4697 19.4149L19 17.9453L17.5303 19.4149C17.2374 19.7078 16.7626 19.7078 16.4697 19.4149C16.1768 19.122 16.1768 18.6472 16.4697 18.3543L17.9393 16.8846L16.4697 15.4149C16.1768 15.122 16.1768 14.6472 16.4697 14.3543C16.7626 14.0614 17.2374 14.0614 17.5303 14.3543L19 15.824L20.4697 14.3543C20.7626 14.0614 21.2374 14.0614 21.5303 14.3543Z" fill="white"/>
</svg>