<?xml version="1.0" encoding="UTF-8"?>
<svg width="24px" height="24px" viewBox="0 0 24 24" version="1.1" xmlns="http://www.w3.org/2000/svg" xmlns:xlink="http://www.w3.org/1999/xlink">
    <!-- Generator: Sketch 48.1 (47250) - http://www.bohemiancoding.com/sketch -->
    <title>FAV_DESELECTED</title>
    <desc>Created with Sketch.</desc>
    <defs></defs>
    <g id="Artboard" stroke="none" stroke-width="1" fill="none" fill-rule="evenodd" transform="translate(-524.000000, -412.000000)">
        <g id="FAV_DESELECTED" transform="translate(524.000000, 412.000000)" fill="#FFFFFF" fill-rule="nonzero">
            <path d="M11.9996281,8.13133581 L10.6051138,6.77488121 L8.89210371,5.10862339 C7.37870049,3.6357184 4.80626234,3.62235463 3.11254449,5.11656499 C1.61913324,6.68871222 1.63063506,9.08346138 3.11843624,10.5711014 L11.9996411,19.2099159 L20.864416,10.5872425 C22.3696865,9.08896204 22.3812617,6.68013667 20.88259,5.11210188 C19.2412488,3.63836781 16.6441894,3.64533948 15.0999002,5.11567794 L11.9996281,8.13133581 Z M13.7122459,3.67536304 C16.0417562,1.44837127 19.8695785,1.4610481 22.2753345,3.67536304 C24.5741376,6.02227028 24.5756393,9.71512064 22.2753345,12.0047435 L11.9996281,22 L1.72392184,12.0047435 C-0.580013679,9.70146423 -0.569261262,6.0221106 1.72392184,3.67536304 C4.18854628,1.44082442 7.99251435,1.44226701 10.2870104,3.67536304 L11.9996281,5.34123913 L13.7122459,3.67536304 Z"></path>
        </g>
    </g>
</svg>