<svg xmlns="http://www.w3.org/2000/svg" width="14" height="14" viewBox="0 0 14 14">
  <g fill="none" fill-rule="evenodd" transform="translate(1 1)">
    <path fill="#DE9F34" fill-rule="nonzero" d="M5.8408469,11.6636487 C9.06167455,11.6636487 11.6726712,9.05265199 11.6726712,5.83182434 C11.6726712,2.61099669 9.06167455,0 5.8408469,0 C2.62001925,0 0.00902255639,2.61099669 0.00902255639,5.83182434 C0.00902255639,9.05265199 2.62001925,11.6636487 5.8408469,11.6636487 Z M5.8408469,12.6636487 C2.0677345,12.6636487 -0.990977444,9.60493674 -0.990977444,5.83182434 C-0.990977444,2.05871194 2.0677345,-1 5.8408469,-1 C9.6139593,-1 12.6726712,2.05871194 12.6726712,5.83182434 C12.6726712,9.60493674 9.6139593,12.6636487 5.8408469,12.6636487 Z"/>
    <circle cx="5.841" cy="5.832" r="5.832" fill="#FDBC40"/>
    <rect width="8.211" height="1.263" x="1.895" y="5.053" fill="#000" opacity=".503" rx=".632" style="mix-blend-mode:multiply"/>
  </g>
</svg>
