<svg xmlns="http://www.w3.org/2000/svg" width="14" height="14" viewBox="0 0 14 14">
  <g fill="none" fill-rule="evenodd" transform="translate(1 1)">
    <path fill="#706F75" fill-rule="nonzero" d="M6.16817566,11.6636487 C9.38900331,11.6636487 12,9.05265199 12,5.83182434 C12,2.61099669 9.38900331,0 6.16817566,0 C2.94734801,0 0.336351315,2.61099669 0.336351315,5.83182434 C0.336351315,9.05265199 2.94734801,11.6636487 6.16817566,11.6636487 Z M6.16817566,12.6636487 C2.39506326,12.6636487 -0.663648685,9.60493674 -0.663648685,5.83182434 C-0.663648685,2.05871194 2.39506326,-1 6.16817566,-1 C9.94128806,-1 13,2.05871194 13,5.83182434 C13,9.60493674 9.94128806,12.6636487 6.16817566,12.6636487 Z"/>
    <circle cx="6.168" cy="5.832" r="5.832" fill="#919196"/>
    <g fill="#000" opacity=".5" transform="translate(1.115)">
      <path d="M5.26148502,0.443091602 L5.26148502,3.76517168 C5.26148502,4.86699033 6.15046786,5.76019082 7.26586613,5.76019082 L9.98779544,5.76019082 L5.26148502,0.443091602 Z" style="mix-blend-mode:multiply"/>
      <path d="M0.5351746,5.76019082 L0.5351746,9.0822709 C0.5351746,10.1840895 1.42415744,11.07729 2.53955572,11.07729 L5.26148502,11.07729 L0.5351746,5.76019082 Z" transform="rotate(180 2.898 8.419)" style="mix-blend-mode:multiply"/>
    </g>
  </g>
</svg>
