<svg xmlns="http://www.w3.org/2000/svg" width="28" height="24" viewBox="0 0 28 24">
    <g fill="#FFF" fill-rule="evenodd">
        <path d="M21 8l7 3.5c0 6-2.333 10-7 12-4.667-2-7-6-7-12L21 8zm2.293 4.293L21 14.586l-2.293-2.293-1.414 1.414L19.586 16l-2.293 2.293 1.414 1.414L21 17.414l2.293 2.293 1.414-1.414L22.414 16l2.293-2.293-1.414-1.414z"/>
        <path fill-rule="nonzero" d="M21 0c1.105 0 2 .895 2 2v5.004L21 6V2h-4v4h-2V2h-4v4H9V2H5v8h4v4h3.156c.08.693.193 1.36.337 2.001L9 16c-1.105 0-2-.895-2-2v-2H5c-1.105 0-2-.895-2-2V2c0-1.105.895-2 2-2h16z"/>
    </g>
</svg>
