<?xml version="1.0" encoding="UTF-8"?>
<svg width="24px" height="24px" viewBox="0 0 24 24" version="1.1" xmlns="http://www.w3.org/2000/svg" xmlns:xlink="http://www.w3.org/1999/xlink">
    <!-- Generator: Sketch 48.1 (47250) - http://www.bohemiancoding.com/sketch -->
    <title>NOTIFICATION_ICON</title>
    <desc>Created with Sketch.</desc>
    <defs></defs>
    <g id="Artboard" stroke="none" stroke-width="1" fill="none" fill-rule="evenodd" transform="translate(-456.000000, -314.000000)">
        <g id="NOTIFICATION_ICON" transform="translate(456.000000, 314.000000)" fill="#FFFFFF" fill-rule="nonzero">
            <path d="M18.7988447,14.5984005 L18,13.998365 L18,9.38516481 C18,6.95051993 16.5177297,4.76115779 14.2572186,3.85695338 L13.5512062,3.57454841 L13.1055728,2.68328157 C12.8961928,2.26452148 12.468188,2 12,2 C11.531812,2 11.1038072,2.26452148 10.8944272,2.68328157 L10.4487938,3.57454841 L9.74278135,3.85695338 C7.48227033,4.76115779 6,6.95051993 6,9.38516481 L6,13.998365 L5.20115532,14.5984005 C3.73725026,15.6979823 2.70259402,17.2486725 2.25217685,19 L9.44151844,19 L9.9486833,20.5214946 C10.2429997,21.4044437 11.0692899,22 12,22 C12.9921593,22 13.8840231,21.395001 14.2508338,20.4731388 L14.8369986,19 L21.7478231,19 C21.297406,17.2486725 20.2627497,15.6979823 18.7988447,14.5984005 Z M24,21 L16.1937058,21 L16.1091286,21.2125579 C15.4394779,22.8955121 13.8112888,24 12,24 C10.2084291,24 8.61786116,22.8535835 8.0513167,21.1539501 L8,21 L0,21 C0,17.7283643 1.5711066,14.8236803 4,12.9992676 L4,9.38516481 C4,6.13271075 5.98017222,3.20793111 9,2 L9.10557281,1.78885438 C9.65373688,0.692526237 10.7742679,0 12,0 C13.2257321,0 14.3462631,0.692526237 14.8944272,1.78885438 L15,2 C18.0198278,3.20793111 20,6.13271075 20,9.38516481 L20,12.9992676 C22.4288934,14.8236803 24,17.7283643 24,21 Z"></path>
        </g>
    </g>
</svg>