<svg xmlns="http://www.w3.org/2000/svg" width="67" height="16" viewBox="0 0 67 16">
    <g fill="#55FF8A">
        <path d="M2 2v12h63V2H2zm0-2h63c1.105 0 2 .895 2 2v12c0 1.105-.895 2-2 2H2c-1.105 0-2-.895-2-2V2C0 .895.895 0 2 0z" opacity=".397"/>
        <path d="M7.971 12l.968-4.158.385-1.683h.033l.374 1.683.968 4.158h1.903l1.782-7.678H12.8l-.737 3.685-.407 2.134h-.033l-.473-2.134-.858-3.685H8.466l-.847 3.685-.484 2.134h-.033l-.407-2.134-.726-3.685h-1.65L6.057 12h1.914zm10.065.132c1.914 0 2.992-1.023 2.992-2.497 0-1.32-.759-2.024-2.332-2.277l-.759-.121c-.638-.099-.913-.297-.913-.825 0-.462.363-.748 1.111-.748.792 0 1.287.297 1.65.726l1.111-1.122c-.627-.693-1.507-1.078-2.662-1.078-1.804 0-2.882.957-2.882 2.332 0 1.287.737 2.079 2.354 2.288l.759.099c.715.099.891.407.891.825 0 .561-.396.924-1.21.924-.748 0-1.408-.297-1.925-.88l-1.1 1.111c.66.726 1.573 1.243 2.915 1.243zM25.615 12V5.807h2.079V4.322h-5.83v1.485h2.079V12h1.672zm6.193.132c2.2 0 3.014-1.012 3.014-3.278V4.322h-1.628V9.03c0 1.078-.396 1.617-1.386 1.617-.99 0-1.386-.539-1.386-1.617V4.322h-1.628v4.532c0 2.266.814 3.278 3.014 3.278zM38.045 12V6.83h.033l.737 1.54L40.916 12h1.826V4.322h-1.573v5.17h-.033l-.737-1.54-2.101-3.63h-1.826V12h1.573zm7.964 0V6.83h.033l.737 1.54L48.88 12h1.826V4.322h-1.573v5.17H49.1l-.737-1.54-2.101-3.63h-1.826V12h1.573zm11.616 0v-1.485h-3.553V8.843h3.047V7.369h-3.047V5.807h3.553V4.322H52.4V12h5.225zm6.05 0v-1.485h-2.926V4.322h-1.672V12h4.598z"/>
    </g>
</svg>
