<svg xmlns="http://www.w3.org/2000/svg" width="54" height="16" viewBox="0 0 54 16">
    <g fill="#55FF8A">
        <path d="M6.887 12c1.895 0 2.962-1.03 2.962-2.515 0-1.33-.751-2.039-2.309-2.294L6.79 7.07c-.632-.1-.905-.299-.905-.83 0-.466.36-.754 1.1-.754.785 0 1.275.299 1.635.731l1.1-1.13C9.098 4.388 8.226 4 7.083 4c-1.787 0-2.854.964-2.854 2.349 0 1.296.73 2.094 2.33 2.305l.752.1c.708.1.883.41.883.83 0 .566-.392.931-1.198.931-.741 0-1.395-.299-1.907-.886L4 10.748C4.654 11.479 5.558 12 6.887 12zm9.563-6.371V4.133h-5.773v1.496h2.059v6.238h1.656V5.629h2.058zm6.307 6.238v-1.496H19.24V8.687h3.017V7.202H19.24V5.63h3.518V4.133h-5.174v7.734h5.174zm7.843 0l-2.473-7.745H26.08l-2.506 7.745h1.678l.544-1.84h2.538l.545 1.84H30.6zm-2.669-3.269h-1.743l.84-2.936h.054l.85 2.936zm8.279 3.269v-1.496h-2.898V4.133h-1.655v7.734h4.553zm6.448-6.238V4.133h-5.773v1.496h2.059v6.238H40.6V5.629h2.058zm5.686 6.238v-3.18h-2.897v3.18H43.79V4.133h1.656v3.07h2.897v-3.07H50v7.734h-1.656z"/>
        <path d="M2 2v12h50V2H2zm0-2h50c1.105 0 2 .895 2 2v12c0 1.105-.895 2-2 2H2c-1.105 0-2-.895-2-2V2C0 .895.895 0 2 0z" opacity=".397"/>
    </g>
</svg>
