<svg xmlns="http://www.w3.org/2000/svg" width="28" height="16" viewBox="0 0 28 16">
    <g fill="#55FF8A">
        <path d="M25 0c1.657 0 3 1.343 3 3v10c0 1.657-1.343 3-3 3H3c-1.657 0-3-1.343-3-3V3c0-1.657 1.343-3 3-3h22zm0 2H3c-.552 0-1 .448-1 1v10c0 .552.448 1 1 1h22c.552 0 1-.448 1-1V3c0-.552-.448-1-1-1z" opacity=".4"/>
        <path d="M13.873 4c1.418 0 2.326.576 2.892 1.817l-1.452.754c-.2-.643-.61-1.075-1.44-1.075-.987 0-1.64.665-1.64 1.884v1.24c0 1.22.653 1.884 1.64 1.884.83 0 1.307-.52 1.54-1.152l1.374.798C16.21 11.324 15.29 12 13.873 12c-2.084 0-3.424-1.33-3.424-3.945C10.449 5.44 11.789 4 13.873 4zm-4 .133v1.496H7.778v6.238H6.094V5.629H4V4.133h5.873zm11.745 0c1.44 0 2.349 1.008 2.349 2.47 0 1.463-.909 2.472-2.35 2.472h-1.972v2.792h-1.684V4.133h3.657zm-.2 1.463h-1.773v2.016h1.773c.499 0 .81-.266.81-.764V6.36c0-.499-.311-.764-.81-.764z"/>
    </g>
</svg>
