<svg width="16" height="16" viewBox="0 0 16 16" xmlns="http://www.w3.org/2000/svg">
    <defs>
        <filter x="-6%" y="-2.9%" width="113.3%" height="105.8%" filterUnits="objectBoundingBox" id="a">
            <feOffset dy="2" in="SourceAlpha" result="shadowOffsetOuter1"/>
            <feGaussianBlur stdDeviation="4" in="shadowOffsetOuter1" result="shadowBlurOuter1"/>
            <feColorMatrix values="0 0 0 0 0 0 0 0 0 0 0 0 0 0 0 0 0 0 0.5 0" in="shadowBlurOuter1" result="shadowMatrixOuter1"/>
            <feMerge>
                <feMergeNode in="shadowMatrixOuter1"/>
                <feMergeNode in="SourceGraphic"/>
            </feMerge>
        </filter>
    </defs>
    <g filter="url(#a)" transform="translate(-260 -456)" fill="#FFF" fill-rule="nonzero" opacity=".502">
        <path d="M269.828 466.778a.83.83 0 0 1 .381.081.7.7 0 0 1 .261.228c.068.098.118.214.15.348.032.134.048.279.048.435 0 .336-.039.639-.117.909-.078.27-.183.501-.315.693a1.46 1.46 0 0 1-.465.444 1.106 1.106 0 0 1-.567.156.812.812 0 0 1-.543-.18.658.658 0 0 1-.243-.438h-.03l-.348 1.746h-.84l.87-4.35h.84l-.144.732h.036l.076-.147a1.73 1.73 0 0 1 .344-.447c.156-.14.358-.21.606-.21zm-7.62-1.038c.184 0 .358.021.522.063.164.042.311.105.441.189a1.312 1.312 0 0 1 .549.738l-.726.384-.035-.112a.703.703 0 0 0-.256-.335.925.925 0 0 0-.543-.153c-.324 0-.575.093-.753.279-.178.186-.299.441-.363.765l-.132.66-.02.117c-.01.077-.016.15-.016.219a.95.95 0 0 0 .054.339.596.596 0 0 0 .372.363.83.83 0 0 0 .264.042c.128 0 .249-.017.363-.051.114-.034.216-.082.306-.144a.927.927 0 0 0 .225-.216c.06-.082.1-.171.12-.267l.042-.204h-.756l.144-.732h1.584l-.462 2.316h-.714l.132-.666h-.048l-.086.147a1.542 1.542 0 0 1-.352.375c-.188.144-.424.216-.708.216-.2 0-.383-.035-.549-.105a1.144 1.144 0 0 1-.429-.315 1.475 1.475 0 0 1-.279-.525 2.458 2.458 0 0 1-.099-.735c0-.376.053-.726.159-1.05.106-.324.256-.605.45-.843s.426-.424.696-.558c.27-.134.571-.201.903-.201zm3.462-.18-.402 2.022h.036l.076-.147a1.73 1.73 0 0 1 .344-.447c.156-.14.358-.21.606-.21a.83.83 0 0 1 .381.081.7.7 0 0 1 .261.228c.068.098.118.214.15.348.032.134.048.279.048.435 0 .336-.039.639-.117.909-.078.27-.183.501-.315.693a1.46 1.46 0 0 1-.465.444 1.106 1.106 0 0 1-.567.156.812.812 0 0 1-.543-.18.658.658 0 0 1-.243-.438h-.03l-.108.546h-.84l.888-4.44h.84zm6.876 1.218c.244 0 .465.041.663.123.198.082.367.207.507.375l-.528.492-.083-.09a.866.866 0 0 0-.595-.228.54.54 0 0 0-.333.093.285.285 0 0 0-.123.237c0 .06.021.114.063.162.042.048.119.08.231.096l.318.042.156.028a.976.976 0 0 1 .468.233c.144.138.216.331.216.579 0 .152-.029.298-.087.438-.058.14-.145.263-.261.369a1.27 1.27 0 0 1-.432.252c-.172.062-.37.093-.594.093-.264 0-.506-.046-.726-.138-.22-.092-.4-.23-.54-.414l.528-.492.093.108a.963.963 0 0 0 .216.165.907.907 0 0 0 .447.099c.196 0 .335-.035.417-.105a.313.313 0 0 0 .123-.243.24.24 0 0 0-.063-.162c-.042-.048-.119-.08-.231-.096l-.318-.042-.156-.028a.976.976 0 0 1-.468-.233c-.144-.138-.216-.333-.216-.585 0-.148.026-.29.078-.426a.982.982 0 0 1 .24-.36c.108-.104.244-.187.408-.249.164-.062.358-.093.582-.093zm-6.63.69a.536.536 0 0 0-.294.084.927.927 0 0 0-.228.204 1.21 1.21 0 0 0-.177.285 1.6 1.6 0 0 0-.111.339l-.096.48-.012.092a.368.368 0 0 0 .102.289c.092.094.226.141.402.141.364 0 .594-.234.69-.702l.084-.42.008-.048a3.45 3.45 0 0 0 .016-.12c.008-.068.012-.126.012-.174 0-.14-.035-.25-.105-.33a.366.366 0 0 0-.291-.12zm3.498 0a.536.536 0 0 0-.294.084.927.927 0 0 0-.228.204 1.21 1.21 0 0 0-.177.285 1.6 1.6 0 0 0-.111.339l-.096.48-.012.092a.368.368 0 0 0 .102.289c.092.094.226.141.402.141.364 0 .594-.234.69-.702l.084-.42.008-.048a3.45 3.45 0 0 0 .016-.12c.008-.068.012-.126.012-.174 0-.14-.035-.25-.105-.33a.366.366 0 0 0-.291-.12zM270.658 456a4.98 4.98 0 0 1 3.155 1.121l-2.224 1.026a3 3 0 0 0-3.028 4.998l-1.12 1.682a5 5 0 0 1 3.218-8.827zm3.905 1.878a4.979 4.979 0 0 1 1.095 3.122 4.99 4.99 0 0 1-1.782 3.827l-1.121-1.682a2.991 2.991 0 0 0 .8-2.93l1.008-2.337zm-9.702-1.833-1.128 8.455h-2.018l.739-5.545-1.48.494-.632-1.898 4.519-1.506zm8.797 1.955-2 4-2-2 4-2z"/>
    </g>
</svg>
