<svg xmlns="http://www.w3.org/2000/svg" width="16" height="16" viewBox="0 0 16 16">
    <g fill="none" fill-rule="evenodd" opacity=".499">
        <g fill="#FFF" fill-rule="nonzero">
            <path d="M423.172 665c.53 0 1.039.21 1.414.586L426 667h6c.552 0 1 .448 1 1v3h-2v-2h-5.828l-2.001-2H419v12h4v2h-5c-.552 0-1-.448-1-1v-14c0-.552.448-1 1-1h5.172zm8.12 8.293l1.415 1.414-2.293 2.293 2.293 2.293-1.414 1.414-2.293-2.293-2.293 2.293-1.414-1.414 2.293-2.293-2.293-2.293 1.414-1.414 2.293 2.293 2.293-2.293z" transform="translate(-417 -665)"/>
        </g>
    </g>
</svg>
