<?xml version="1.0" encoding="UTF-8"?>
<svg width="32px" height="16px" viewBox="0 0 32 16" version="1.1" xmlns="http://www.w3.org/2000/svg" xmlns:xlink="http://www.w3.org/1999/xlink">
    <!-- Generator: Sketch 48.1 (47250) - http://www.bohemiancoding.com/sketch -->
    <title>DESELECTED_FAV_ICON</title>
    <desc>Created with Sketch.</desc>
    <defs></defs>
    <g id="Artboard-Copy" stroke="none" stroke-width="1" fill="none" fill-rule="evenodd" transform="translate(-296.000000, -514.000000)">
        <g id="DESELECTED_FAV_ICON" transform="translate(296.000000, 514.000000)" fill="#FFFFFF" fill-rule="nonzero">
            <path d="M21.4002332,6.60539814 C22.2048702,5.78626419 22.1991325,4.44713161 21.3875886,3.63254519 C20.5644695,2.80634016 19.1993616,2.78635837 18.3502669,3.5911567 L15.9622074,5.85463389 L13.6130633,3.58920742 C12.7882096,2.79374951 11.4517247,2.80629145 10.6453921,3.61564704 L10.611722,3.64944335 C9.8029419,4.46125562 9.79536505,5.79166978 10.5875783,6.60662852 L16.0120912,12.1384031 L21.4002332,6.60539814 Z M15.9741561,3.08767154 L16.9744237,2.13958672 C18.6133663,0.586145936 21.2176241,0.628209443 22.8044457,2.22098013 C24.3880385,3.81050985 24.4013723,6.40420875 22.8270158,8.00692987 L16.0170618,15 L9.15958808,8.00692987 C7.60154707,6.40420875 7.61381531,3.82485532 9.19486488,2.23787828 L9.22853496,2.20408197 C10.8060588,0.620643882 13.3911512,0.596718562 15.0013917,2.14957406 L15.9741561,3.08767154 Z"></path>
        </g>
    </g>
</svg>