<svg xmlns="http://www.w3.org/2000/svg" width="16" height="16" viewBox="0 0 16 16">
    <g fill="none" fill-rule="evenodd" opacity="1">
        <g fill="#FFF">
            <path d="M467 414c4.418 0 8 3.582 8 8s-3.582 8-8 8-8-3.582-8-8 3.582-8 8-8zm-2.387 4.21c-.392-.305-.96-.278-1.32.083-.39.39-.39 1.024 0 1.414l2.292 2.293-2.292 2.293c-.39.39-.39 1.024 0 1.414.36.36.928.388 1.32.083l.094-.083 2.293-2.292 2.293 2.292.094.083c.392.305.96.278 1.32-.083.39-.39.39-1.024 0-1.414L468.415 422l2.292-2.293c.39-.39.39-1.024 0-1.414-.36-.36-.928-.388-1.32-.083l-.094.083-2.293 2.292-2.293-2.292z" transform="translate(-459 -414)"/>
        </g>
    </g>
</svg>
