<svg xmlns="http://www.w3.org/2000/svg" width="32" height="32" viewBox="0 0 32 32">
    <g fill="none" fill-rule="evenodd">
        <g fill="#FFF">
            <g>
                <path d="M63 16l4.5 5h-9l4.5-5zm-23 0l4.5 5h-9l4.5-5zM51.5 0c2.761 0 5 2.239 5 5 0 2.419-1.717 4.436-3.999 4.9v20.055c4.938-.445 8.936-4.155 9.818-8.955h2.028c-.962 6.23-6.348 11-12.847 11-6.5 0-11.885-4.77-12.847-11h2.028c.882 4.8 4.88 8.51 9.82 8.955L50.5 9.9c-2.282-.463-4-2.481-4-4.9 0-2.761 2.239-5 5-5zm0 2c-1.657 0-3 1.343-3 3s1.343 3 3 3 3-1.343 3-3-1.343-3-3-3z" transform="translate(-310 -512) translate(274.5 512)"/>
            </g>
        </g>
    </g>
</svg>
