<?xml version="1.0" encoding="UTF-8"?>
<svg width="16px" height="16px" viewBox="0 0 16 16" version="1.1" xmlns="http://www.w3.org/2000/svg" xmlns:xlink="http://www.w3.org/1999/xlink">
    <!-- Generator: Sketch 48.1 (47250) - http://www.bohemiancoding.com/sketch -->
    <title>WINDFLIX_ICON</title>
    <desc>Created with Sketch.</desc>
    <defs></defs>
    <g id="Artboard-Copy" stroke="none" stroke-width="1" fill="none" fill-rule="evenodd" transform="translate(-482.000000, -314.000000)">
        <path d="M490,330 C485.581722,330 482,326.418278 482,322 C482,317.581722 485.581722,314 490,314 C494.418278,314 498,317.581722 498,322 C498,326.418278 494.418278,330 490,330 Z M490,328 C493.313708,328 496,325.313708 496,322 C496,318.686292 493.313708,316 490,316 C486.686292,316 484,318.686292 484,322 C484,325.313708 486.686292,328 490,328 Z M488,326 L488,318 L494,322 L488,326 Z" id="WINDFLIX_ICON" fill="#FFFFFF"></path>
    </g>
</svg>