<?xml version="1.0" encoding="UTF-8"?>
<svg width="16px" height="16px" viewBox="0 0 16 16" version="1.1" xmlns="http://www.w3.org/2000/svg" xmlns:xlink="http://www.w3.org/1999/xlink">
    <!-- Generator: Sketch 48.1 (47250) - http://www.bohemiancoding.com/sketch -->
    <title>USERS_ICON</title>
    <desc>Created with Sketch.</desc>
    <defs></defs>
    <g id="Artboard-Copy-2" stroke="none" stroke-width="1" fill="none" fill-rule="evenodd" transform="translate(-345.000000, -645.000000)">
        <g id="Group-7" transform="translate(287.000000, 642.000000)" fill="#FFFFFF" fill-rule="nonzero">
            <path d="M62.6655927,11.7258827 C61.6433005,10.8103785 61,9.4803147 61,8 C61,5.23857625 63.2385763,3 66,3 C68.7614237,3 71,5.23857625 71,8 C71,9.4803147 70.3566995,10.8103785 69.3344073,11.7258827 C72.0878704,12.9901226 74,15.7717604 74,19 L58,19 C58,15.7717604 59.9121296,12.9901226 62.6655927,11.7258827 Z M71.6585886,17 C70.8349158,14.6696153 68.6124377,13 66,13 C63.3875623,13 61.1650842,14.6696153 60.3414114,17 L71.6585886,17 Z M66,11 C67.6568542,11 69,9.65685425 69,8 C69,6.34314575 67.6568542,5 66,5 C64.3431458,5 63,6.34314575 63,8 C63,9.65685425 64.3431458,11 66,11 Z M60,19 L58,19 C58,14.581722 61.581722,11 66,11 C70.418278,11 74,14.581722 74,19 L72,19 C72,15.6862915 69.3137085,13 66,13 C62.6862915,13 60,15.6862915 60,19 Z" id="USERS_ICON"></path>
        </g>
    </g>
</svg>