<svg width="16" height="16" viewBox="0 0 16 16" xmlns="http://www.w3.org/2000/svg">
    <path d="M13.608 3.751c1.112 1.162 1.262 2.949.45 4.278l-.11.168.095.048c1.07.586 1.8 1.695 1.935 2.958l.018.238.004.216c-.014 1.84-1.439 3.328-3.2 3.343-1.314.01-2.508-.71-3.164-1.85l-.105-.194-.046-.099-.16.114a3.182 3.182 0 0 1-3.824-.214l-.141-.125-.131-.13L0 7.042l5.586-5.834a3.83 3.83 0 0 1 5.444-.142l.143.142 2.435 2.543zM11.811 5 6 10.81l.303.303a1.37 1.37 0 0 0 1.839.09l.098-.09.515-.515c.29-.29.683-.455 1.094-.458.339-.003.645.19.792.488l.047.116.342 1.048A1.751 1.751 0 0 0 12.709 13 1.302 1.302 0 0 0 14 11.709a1.752 1.752 0 0 0-1.056-1.622l-.152-.057-1.048-.342a.876.876 0 0 1-.604-.84c.003-.359.13-.704.355-.98l.103-.113.515-.515a1.37 1.37 0 0 0 .09-1.84l-.09-.097L11.811 5zm-7.518.597L3 6.863 5.182 9 11 3.302l-.727-.712a2.089 2.089 0 0 0-2.797-.102l-.112.102-1.778 1.741.172 1.434-1.465-.168z" fill="#FFF" fill-rule="nonzero"/>
</svg>
