<svg width="16" height="16" viewBox="0 0 16 16" fill="none" xmlns="http://www.w3.org/2000/svg">
<path fill-rule="evenodd" clip-rule="evenodd" d="M9.26762 2.13416L9 0H7L6.73338 2.13394C6.01575 2.28816 5.3458 2.57071 4.74871 2.95641L3.05025 1.63604L1.63604 3.05025L2.95641 4.74871C2.57071 5.3458 2.28816 6.01575 2.13394 6.73338L0 7V9L2.13416 9.26762C2.28842 9.98487 2.57089 10.6545 2.95641 11.2513L1.63604 12.9497L3.05025 14.364L4.74871 13.0436C4.83111 13.0968 4.91489 13.1481 5 13.1973V10.6458C4.37764 9.94069 4 9.01445 4 8C4 5.79086 5.79086 4 8 4C9.01445 4 9.94069 4.37764 10.6458 5H13.1973C13.1481 4.91489 13.0968 4.83111 13.0436 4.74871L14.364 3.05025L12.9497 1.63604L11.2513 2.95641C10.6545 2.57089 9.98487 2.28842 9.26762 2.13416ZM11 7H12L12.2396 8.07831C12.6578 8.16827 13.0482 8.33295 13.3962 8.55768L14.3284 7.96442L15.0355 8.67157L14.4423 9.60376C14.6671 9.95178 14.8317 10.3422 14.9217 10.7604L16 11V12L14.9217 12.2396C14.8317 12.6578 14.6671 13.0482 14.4423 13.3962L15.0355 14.3284L14.3284 15.0355L13.3962 14.4423C13.0482 14.6671 12.6578 14.8317 12.2396 14.9217L12 16H11L10.7604 14.9217C10.3422 14.8317 9.95177 14.6671 9.60376 14.4423L8.67157 15.0355L7.96446 14.3284L8.55768 13.3962C8.33295 13.0482 8.16826 12.6578 8.07829 12.2396L7 12V11L8.07829 10.7604C8.16826 10.3422 8.33295 9.95178 8.55768 9.60376L7.96446 8.67157L8.67157 7.96448L9.60376 8.55768C9.95177 8.33295 10.3422 8.16827 10.7604 8.07831L11 7ZM13 11.5C13 12.3284 12.3284 13 11.5 13C10.6716 13 10 12.3284 10 11.5C10 10.6716 10.6716 10 11.5 10C12.3284 10 13 10.6716 13 11.5Z" fill="white"/>
</svg>
