<svg width="16" height="16" viewBox="0 0 16 16" fill="none" xmlns="http://www.w3.org/2000/svg">
<path fill-rule="evenodd" clip-rule="evenodd" d="M9 8C10.6569 8 12 6.65685 12 5C12 3.34315 10.6569 2 9 2C7.34315 2 6 3.34315 6 5C6 6.65685 7.34315 8 9 8ZM12.5184 8.55254C13.2423 7.83555 13.7483 6.89885 13.9279 5.85072L16 4.66667L13.7277 3.36817C13.0512 1.40801 11.19 0 9 0C6.23858 0 4 2.23858 4 5C4 6.12561 4.37194 7.16434 4.99963 8H2H0V10V14V16H2V14V10H9H10C12.2091 10 14 11.7909 14 14V16H16V14C16 11.5857 14.5741 9.50448 12.5184 8.55254Z" fill="white"/>
</svg>
