<svg width="16" height="16" viewBox="0 0 16 16" xmlns="http://www.w3.org/2000/svg">
    <path d="M8 0a8 8 0 0 1 7.532 10.703l-1.628-1.629.013-.073L13.829 9l-2-2c-1.61 0-3.037.788-3.914 2h-1.88c.105 1.463.436 2.784.925 3.762C7.402 13.646 7.821 14 8 14c.121 0 .353-.163.627-.543l2.076 2.075A8 8 0 1 1 8 0zm3 9 5 5v2h-2l-5-5a2 2 0 0 1 1.85-1.995L11 9zm-6.969.001H2.083a6.005 6.005 0 0 0 2.861 4.164C4.457 12.01 4.13 10.577 4.031 9zm.914-6.164-.034.018A6.005 6.005 0 0 0 2.083 7H4.03c.098-1.576.426-3.01.914-4.163zM8 2c-.179 0-.598.354-1.04 1.238-.489.978-.82 2.3-.925 3.762h3.93c-.105-1.462-.436-2.784-.925-3.762-.413-.825-.805-1.188-1.001-1.233L8 2zm3.056.835.003.01c.486 1.153.812 2.583.91 4.155h1.948a6.005 6.005 0 0 0-2.861-4.165z" fill="#FFF" fill-rule="nonzero"/>
</svg>
