<svg width="16" height="16" viewBox="0 0 16 16" xmlns="http://www.w3.org/2000/svg">
    <path d="M8 12a1 1 0 0 1 1 1v2a1 1 0 0 1-1 1H1a1 1 0 0 1-1-1v-2a1 1 0 0 1 1-1h7zm7 0a1 1 0 0 1 1 1v2a1 1 0 0 1-1 1h-3a1 1 0 0 1-1-1v-2a1 1 0 0 1 1-1h3zm0-6a1 1 0 0 1 1 1v2a1 1 0 0 1-1 1H8a1 1 0 0 1-1-1V7a1 1 0 0 1 1-1h7zM4 6a1 1 0 0 1 1 1v2a1 1 0 0 1-1 1H1a1 1 0 0 1-1-1V7a1 1 0 0 1 1-1h3zm4-6a1 1 0 0 1 1 1v2a1 1 0 0 1-1 1H1a1 1 0 0 1-1-1V1a1 1 0 0 1 1-1h7zm7 0a1 1 0 0 1 1 1v2a1 1 0 0 1-1 1h-3a1 1 0 0 1-1-1V1a1 1 0 0 1 1-1h3z" fill="#FFF" fill-rule="evenodd"/>
</svg>
