<svg width="16" height="16" viewBox="0 0 16 16" xmlns="http://www.w3.org/2000/svg">
    <path d="M8 0a8 8 0 1 1 0 16A8 8 0 0 1 8 0zm1.964 9H6.036c.104 1.463.435 2.784.924 3.762C7.402 13.646 7.821 14 8 14c.179 0 .598-.354 1.04-1.238.489-.978.82-2.299.924-3.761zm-5.933.001H2.083a6.005 6.005 0 0 0 2.861 4.164C4.457 12.01 4.13 10.577 4.031 9zm9.886 0h-1.948c-.098 1.576-.426 3.009-.914 4.162a6 6 0 0 0 2.862-4.162zM4.945 2.837l-.034.018A6.005 6.005 0 0 0 2.083 7H4.03c.098-1.576.426-3.01.914-4.163zM8 2c-.179 0-.598.354-1.04 1.238-.489.978-.82 2.3-.925 3.762h3.93c-.105-1.462-.436-2.784-.925-3.762-.413-.825-.805-1.188-1.001-1.233L8 2zm3.056.835.003.01c.486 1.153.812 2.583.91 4.155h1.948a6.005 6.005 0 0 0-2.861-4.165z" fill="#FFF" fill-rule="nonzero"/>
</svg>
