<svg width="16" height="16" viewBox="0 0 16 16" xmlns="http://www.w3.org/2000/svg">
    <path d="M13 0a3 3 0 0 1 3 3v10a3 3 0 0 1-3 3H3a3 3 0 0 1-3-3V3a3 3 0 0 1 3-3h10zM2 13a1 1 0 0 0 .883.993L3 14h10a1 1 0 0 0 .993-.883L14 13v-3h-.586l-2.707 2.707a1 1 0 0 1-1.641-.35l-.036-.114-1.168-4.669-.913 2.742a1 1 0 0 1-1.708.336l-.073-.097L3.464 8H2v5zM13 2H3a1 1 0 0 0-.993.883L2 3v3h2a1 1 0 0 1 .757.346l.075.1.866 1.297 1.353-4.06c.303-.907 1.56-.899 1.881-.047l.038.121 1.571 6.286 1.752-1.75a1 1 0 0 1 .576-.284L13 8h1V3a1 1 0 0 0-.883-.993L13 2z" fill="#FFF" fill-rule="nonzero"/>
</svg>
