<svg width="16" height="16" viewBox="0 0 16 16" fill="none" xmlns="http://www.w3.org/2000/svg">
<path fill-rule="evenodd" clip-rule="evenodd" d="M3.32497 2.54731C2.80251 2.69658 2.42735 2.85628 2.18867 3C2.42735 3.14372 2.80251 3.30342 3.32497 3.45269C4.47958 3.78258 6.13278 4 8 4C9.86722 4 11.5204 3.78258 12.675 3.45269C13.1975 3.30342 13.5726 3.14372 13.8113 3C13.5726 2.85628 13.1975 2.69658 12.675 2.54731C11.5204 2.21742 9.86722 2 8 2C6.13278 2 4.47958 2.21742 3.32497 2.54731ZM13.2245 5.37574C12.3209 5.63389 11.2165 5.82177 10 5.92062V12C10 12.5523 9.55229 13 9 13C8.44771 13 8 12.5523 8 12V7.5C8 8.05228 7.55228 8.5 7 8.5C6.44772 8.5 6 8.05228 6 7.5V9.5C6 10.0523 5.55228 10.5 5 10.5C4.44772 10.5 4 10.0523 4 9.5V5.65988C3.56139 5.57821 3.1511 5.48304 2.77553 5.37574C2.50622 5.29879 2.24587 5.21313 2 5.1178V11.9818C2.00026 11.9824 2.00068 11.9837 2.00135 11.9858C2.00795 12.0065 2.03831 12.1014 2.16787 12.2614C2.33809 12.4717 2.63756 12.738 3.11064 13.0008C4.05379 13.5248 5.62729 14 8 14C10.4199 14 11.9961 13.6339 12.9278 13.1681C13.8548 12.7046 14 12.236 14 12V5.1178C13.7541 5.21313 13.4938 5.29879 13.2245 5.37574ZM16 12C16 13.264 15.1452 14.2954 13.8222 14.9569C12.5039 15.6161 10.5801 16 8 16C5.37271 16 3.44621 15.4752 2.13936 14.7492C1.48744 14.387 0.974413 13.9658 0.61338 13.5198C0.266362 13.0912 0 12.5621 0 12V3C0 2.21636 0.547808 1.69178 0.990335 1.39285C1.46776 1.07035 2.09289 0.819303 2.77553 0.624262C4.15442 0.230293 6.00123 0 8 0C9.99877 0 11.8456 0.230293 13.2245 0.624262C13.9071 0.819303 14.5322 1.07035 15.0097 1.39285C15.4522 1.69178 16 2.21636 16 3V12ZM14.0386 2.8296C14.0424 2.8233 14.0451 2.82023 14.0455 2.82026C14.0458 2.82029 14.0439 2.82344 14.0386 2.8296ZM1.96144 2.8296C1.95611 2.82344 1.95418 2.82029 1.95454 2.82026C1.95491 2.82023 1.95757 2.8233 1.96144 2.8296Z" fill="white"/>
</svg>
