<svg width="16" height="16" viewBox="0 0 16 16" xmlns="http://www.w3.org/2000/svg">
    <path d="M13 0a3 3 0 0 1 3 3v10a3 3 0 0 1-3 3h-2v-2h2a1 1 0 0 0 .993-.883L14 13V3a1 1 0 0 0-.883-.993L13 2H3a1 1 0 0 0-.993.883L2 3v2H0V3a3 3 0 0 1 3-3h10zM4.914 15.996h.004l-.067-.007a1.083 1.083 0 0 1-.222-.06l-.052-.023a1.018 1.018 0 0 1-.284-.199l-4-4a1 1 0 0 1 1.32-1.497l.094.083L4 12.585V7a1 1 0 0 1 1.993-.117L6 7v5.585l2.293-2.292a1 1 0 0 1 1.32-.083l.094.083a1 1 0 0 1 .083 1.32l-.083.094-4 4-.078.068-.034.029a1.03 1.03 0 0 1-.074.05l-.037.021c-.02.011-.04.022-.06.031l-.053.023a.988.988 0 0 1-.338.07h-.016L5 16l-.082-.004.002.001h-.006z" fill="#FFF" fill-rule="nonzero"/>
</svg>
