<svg width="16" height="16" viewBox="0 0 16 16" fill="none" xmlns="http://www.w3.org/2000/svg">
<path d="M8 14L14 8C15.1046 8 16 8.89543 16 10L10 16H8V14Z" fill="white"/>
<path fill-rule="evenodd" clip-rule="evenodd" d="M1.5 7.25C1.5 4.07436 4.07436 1.5 7.25 1.5C8.62307 1.5 9.88373 1.98127 10.8725 2.78433L4.46937 4.46937L2.78433 10.8725C1.98127 9.88373 1.5 8.62307 1.5 7.25ZM10.0306 10.0306L11.7157 3.6275C12.485 4.57475 12.959 5.77155 12.9975 7.07766L14.3294 5.67917C13.6117 2.43031 10.7147 0 7.25 0C3.24594 0 0 3.24594 0 7.25C0 10.8371 2.60505 13.8157 6.02648 14.3972L7.35809 12.999C7.32214 12.9997 7.28611 13 7.25 13C5.87693 13 4.61627 12.5187 3.6275 11.7157L10.0306 10.0306ZM4.58823 9.91177L5.6973 5.6973L9.91177 4.58823L8.8027 8.8027L4.58823 9.91177Z" fill="white"/>
</svg>
