<svg width="16" height="16" viewBox="0 0 16 16" xmlns="http://www.w3.org/2000/svg">
    <path d="m8 0 .8.6a12 12 0 0 0 6.811 2.394L16 3v1.456c0 5.14-3.188 9.74-8 11.544A12.329 12.329 0 0 1 0 4.456V3A12 12 0 0 0 7.2.6L8 0zm0 11.199c-.485 0-.95.099-1.378.28L7.95 13 8 12.999h.05l1.329-1.52A3.53 3.53 0 0 0 8 11.2zm0-3.6a6.471 6.471 0 0 0-3.725 1.194l1.156 1.323A4.994 4.994 0 0 1 8 9.399c.928 0 1.802.26 2.57.717l1.156-1.322A6.471 6.471 0 0 0 8 7.599zM8 4c-2.239 0-4.311.813-6 2.193l1.134 1.296C4.523 6.422 6.197 5.799 8 5.799c1.803 0 3.477.623 4.866 1.69L14 6.193C12.31 4.813 10.24 4 8 4z" fill="#FFF" fill-rule="evenodd"/>
</svg>
