<svg width="16" height="16" viewBox="0 0 16 16" xmlns="http://www.w3.org/2000/svg">
    <g fill="#FFF" fill-rule="evenodd">
        <path d="M8 1a5 5 0 0 1 4.995 4.783L13 6v2.6a5.5 5.5 0 0 1 2.978 5.4h-5.149a3.001 3.001 0 0 1-5.658 0H.022A5.5 5.5 0 0 1 3 8.6V6l.005-.217A5 5 0 0 1 8 1zm5.664 11a3.506 3.506 0 0 0-1.574-1.62L11 9.825V6.043l-.003-.175A3 3 0 0 0 8 3C6.392 3 5.071 4.269 5.004 5.826L5 6v3.823l-1.09.557A3.506 3.506 0 0 0 2.337 12l4.249.001.471 1.333a1.001 1.001 0 0 0 1.888 0L9.415 12h4.249z"/>
        <path d="M8 0a2 2 0 0 1 1.732 3.001A2 2 0 0 0 6.268 3 2 2 0 0 1 8 0z"/>
    </g>
</svg>
