<svg id="vector" xmlns="http://www.w3.org/2000/svg" width="32" height="16" viewBox="0 0 500 250"><path fill="#E41E20" d="M500 0H0v250h500z" stroke-width="1" id="path_0"/><path fill="#000000" fill-rule="evenodd" d="M259.278 186.095c-2.152-1.866-4.762-5.646-4.725-9.288 0.193-2.717 2.056-4.295 3.259-0.979 1.702 3.66 5.352 9.712 10.381 6.162 2.197-1.613 2.163-3.987-0.849-3.715-3.721-0.255-6.006-2.302-7.671-7.573-0.303-2.899 0.903-2.826 2.585-0.961 2.163 2.482 6.467 6.232 11.216 4.222 2.639-1.106 3.384-3.388-0.603-3.95-3.774 0.055-6.856-2.392-9.922-6.124-1.682-2.065 0.798-4.15 2.288-2.392 1.328 1.141 3.188 3.243 4.782 3.533 1.844 0.362 4.129 0.182 6.661-1.159 2.729-2.284 1.843-3.932-1.47-4.312-2.569 0.128-3.967 1.104-7.28-1.106-5.955-4.024-10.689-9.402-11.429-15.871-0.486-4.255 1.802-5.543 3.704-5.054 5.173 1.331 8.557 10.998 12.136 16.309 1.172 1.53 2.249 1.555 3.01 1.083 1.436-1.23 2.582-2.243 4.018-3.618 0 0 10.53 1.891 16.264 3.76l-6.385 2.269c-2.417-1.334-5.335 0.105-5.335 2.421-2.288 1.582-2.103 3.436-1.116 5.226 0.301-1.246 0.558-2.865 2.365-3.08 2.579 1.067 5.584-0.456 5.584-2.47l7.531-2.96 7.609 4.308c0 2.912 2.76 3.834 5.63 3.048 1.353 0.84 2.223 2.297 2.681 3.856 0.847-2.248 0.67-3.835-0.656-4.937 0.761-2.906-3.311-5.701-6.464-3.84l-5.474-3.143 9.37-0.263c1.087 1.926 5.018 2.031 6.164 0 0.98-0.268 1.808-0.439 3.719 0.981-0.602-2.298-1.774-3.28-3.531-3.28-1.336-2.366-6.169-2.355-6.867 0.309l-9.759 0.271 5.79-4.122c2.162 1.276 5.194-0.143 5.802-2.461 0.861-1.024 1.924-1.506 4.015-0.81-1.078-1.91-2.596-2.48-5.34-1.184-2.503-1.896-5.801 0.404-5.3 2.313l-7.703 5.241c-5.592-1.668-15.72-4.266-15.72-4.266 1.207-1.268 2.43-2.447 3.633-3.733 0.435-0.753-0.229-1.63-1.152-1.812-9.036-1.865-14.209-5.508-17.344-14.766-1.311-3.877 1.524-5.036 2.498-2.664 1.347 3.298 2.834 6.904 6.892 9.695 1.399 0.979 5.564 0.18 3.1-2.157-2.551-2.102-3.649-3.006-4.907-8.117 0-2.589 2.639-3.75 4.112-1.268 1.574 5.09 1.735 7.283 4.587 10.563 2.161 2.482 4.978 4.15 6.377 4.112 2.517-0.035 5.051-2.754 1.684-4.728-4.943-1.975-6.75-4.674-7.478-7.248-0.795-4.492 0.074-6.667 2.784-4.457 3.842 4.367 11.179 12.501 15.022 16.288 4.306 3.299 9.248 3.406 13.181 0.055 2.251-2.591 1.452-5.38-2.073-4.783-7.954 0.671-13.977-3.278-20.586-13.952-1.294-2.409-1.648-5.87 1.206-3.296 3.294 4.457 8.096 8.245 12.561 9.875 4.483 1.61 8.183 0.721 9.619-0.689 1.73-1.73 1.275-6.087-1.718-5.036-2.464 0.869-5.935 1.086-9.549-0.31-3.615-1.413-7.37-4.456-11.357-9.619-1.365-2.917-0.921-5.381 1.843-3.878 6.538 5.545 14.971 10.037 19.275 7.338 3.171-1.975 3.225-7.048-0.796-6.721-8.098 1.103-11.162-0.689-18.94-7.555-1.77-1.323-1.648-4.677 1.169-2.537 6.538 4.222 15.466 5.87 18.975 3.66 3.154-1.975 2.693-8.009-2.622-5.872-4.253 2.592-8.948 2.519-18.355-4.202-2.373-1.975-0.603-4.549 1.345-3.443 7.566 4.312 18.587 6.159 21.455-2.609 1.116-3.351-0.903-5.308-3.862-2.989-6.501 6.015-13.872 3.061-17.998 0.035-1.182-0.696-3.35-4.221 0.459-3.567 9.851 2.247 19.595 0.289 21.367-6.687 1.028-2.264-0.993-6.269-4.59-2.916-4.729 4.674-9.743 4.836-16.049 4.801-3.208-0.671-3.243-4.204-0.55-4.728 4.978 0.107 9.886-2.068 13.819-4.277 3.845-2.21 7.033-5.308 8.044-9.602 0.62-3.84-3.083-7.918-5.315-3.84-3.296 5.959-10.596 11.577-18.711 12.59-0.422-0.706-1.487-2.519-2.798-2.009-2.382 0.923-5.222 2.16-8.145 3.548-6.301 2.992-8.928 4.434-8.171 9.604 0.79 5.395-3.369 8.804-6.804 7.862-2.995-0.806-4.648-3.512-4.111-8.206 0.43-3.74 4.184-8.264 8.415-10.636 2.74-1.533 6.875-2.372 11.853-3.478 3.03-0.597 4.573-1.775 4.749-3.009 0 0-2.07 1.516-5.386 1.289-1.567-0.113-2.617-0.802-3.012-1.506 1.152-0.235 3.242 0.038 5.119 0.038 2.498-0.02 8.296-0.58 9.834-4.095 0.479-2.32-1.045-2.736-2.463-1.251-1.524 1.605-2.151 3.049-5.208 3.588-1.86 0.327-3.72 0.706-6.113 0.127 1.348-1.6 3.489-3.238 5.315-2.936 0.601 0.1 1.399 0.654 2.038 1.65 0.391-2.536-0.302-5.4-7.087-4.204 0.108-1.92-3.933-2.754-6.36-2.717-1.382 0.035-4.199 0.852-6.235 1.828-3.225 0.999-6.414 1.723-10.171 1.995 2.18 1.865 2.588 1.975 4.766 3.55-3.294 1.231-5.845 3.768-6.997 5.436 0 0 3.845-0.108 4.819 0.327-4.024 1.176-5.83 1.882-7.957 4.057 0.745 0.127 1.861 0.344 2.339 0.527 0.498 0.179 0.369 0.506-0.034 0.814-0.867 0.661-4.448 4.821-5.493 5.817-1.045-0.996-4.626-5.156-5.493-5.817-0.403-0.308-0.532-0.635-0.034-0.814 0.478-0.183 1.594-0.4 2.339-0.527-2.127-2.175-3.934-2.881-7.957-4.057 0.974-0.435 4.819-0.327 4.819-0.327-1.152-1.668-3.703-4.205-6.997-5.436 2.178-1.575 2.586-1.685 4.766-3.55-3.757-0.272-6.946-0.996-10.171-1.995-2.036-0.976-4.854-1.793-6.235-1.828-2.427-0.037-6.468 0.797-6.36 2.717-6.785-1.196-7.478 1.668-7.088 4.204 0.64-0.996 1.438-1.55 2.039-1.65 1.826-0.302 3.967 1.336 5.315 2.936-2.393 0.579-4.253 0.2-6.113-0.127-3.057-0.539-3.684-1.983-5.208-3.588-1.418-1.485-2.942-1.069-2.463 1.251 1.538 3.515 7.336 4.075 9.834 4.095 1.877 0 3.967-0.273 5.119-0.038-0.395 0.704-1.445 1.393-3.012 1.506-3.316 0.227-5.386-1.289-5.386-1.289 0.176 1.234 1.719 2.412 4.748 3.009 4.978 1.106 9.114 1.945 11.853 3.478 4.231 2.372 7.986 6.896 8.416 10.636 0.537 4.694-1.116 7.4-4.111 8.206-3.435 0.942-7.594-2.467-6.805-7.862 0.757-5.17-1.869-6.612-8.17-9.604-2.923-1.388-5.763-2.625-8.145-3.548-1.311-0.51-2.376 1.303-2.798 2.009-8.116-1.013-15.415-6.631-18.711-12.59-2.232-4.078-5.935 0-5.315 3.84 1.011 4.294 4.199 7.392 8.044 9.602 3.933 2.209 8.841 4.384 13.819 4.277 2.692 0.524 2.658 4.057-0.55 4.728-6.306 0.035-11.321-0.127-16.05-4.801-3.596-3.353-5.617 0.652-4.589 2.916 1.772 6.976 11.516 8.934 21.367 6.687 3.808-0.654 1.64 2.871 0.459 3.567-4.126 3.026-11.497 5.98-17.998-0.035-2.959-2.319-4.978-0.362-3.863 2.989 2.869 8.768 13.89 6.921 21.456 2.609 1.948-1.106 3.718 1.468 1.345 3.443-9.407 6.721-14.102 6.794-18.355 4.202-5.315-2.137-5.776 3.897-2.622 5.872 3.508 2.21 12.437 0.562 18.975-3.66 2.817-2.14 2.939 1.214 1.169 2.537-7.778 6.866-10.842 8.658-18.94 7.555-4.021-0.327-3.967 4.746-0.796 6.721 4.304 2.699 12.737-1.793 19.275-7.338 2.763-1.503 3.208 0.961 1.843 3.878-3.987 5.163-7.742 8.206-11.357 9.619-3.614 1.396-7.085 1.179-9.549 0.31-2.993-1.051-3.448 3.306-1.718 5.036 1.436 1.41 5.136 2.299 9.619 0.689 4.465-1.63 9.267-5.418 12.561-9.875 2.854-2.574 2.5 0.887 1.206 3.296-6.609 10.674-12.632 14.623-20.586 13.952-3.526-0.597-4.324 2.192-2.073 4.783 3.933 3.351 8.875 3.244 13.181-0.055 3.843-3.787 11.179-11.921 15.022-16.288 2.71-2.21 3.579-0.035 2.783 4.457-0.727 2.574-2.534 5.273-7.478 7.248-3.366 1.974-0.832 4.693 1.685 4.728 1.399 0.038 4.216-1.63 6.377-4.112 2.851-3.28 3.013-5.473 4.587-10.563 1.472-2.482 4.112-1.321 4.112 1.268-1.258 5.111-2.356 6.015-4.908 8.117-2.463 2.337 1.702 3.136 3.101 2.157 4.058-2.791 5.544-6.397 6.892-9.695 0.974-2.372 3.809-1.213 2.498 2.664-3.135 9.258-8.308 12.901-17.344 14.766-0.923 0.182-1.587 1.059-1.152 1.812 1.203 1.286 2.426 2.465 3.632 3.733 0 0-10.127 2.598-15.719 4.266l-7.703-5.241c0.501-1.909-2.797-4.209-5.3-2.313-2.744-1.296-4.262-0.726-5.34 1.184 2.091-0.696 3.154-0.214 4.015 0.81 0.608 2.318 3.64 3.737 5.802 2.461l5.79 4.122-9.759-0.271c-0.698-2.664-5.531-2.675-6.867-0.309-1.757 0-2.929 0.982-3.531 3.28 1.91-1.42 2.739-1.249 3.718-0.981 1.147 2.031 5.078 1.926 6.165 0l9.37 0.263-5.474 3.143c-3.153-1.861-7.225 0.934-6.464 3.84-1.326 1.102-1.503 2.689-0.656 4.937 0.458-1.559 1.328-3.016 2.681-3.856 2.87 0.786 5.629-0.136 5.629-3.048l7.609-4.308 7.532 2.96c0 2.014 3.005 3.537 5.584 2.47 1.807 0.215 2.064 1.834 2.365 3.08 0.987-1.79 1.171-3.644-1.116-5.226 0-2.316-2.918-3.755-5.335-2.421l-6.385-2.269c5.734-1.869 16.264-3.76 16.264-3.76 1.435 1.375 2.582 2.388 4.017 3.618 0.762 0.472 1.839 0.447 3.011-1.083 3.579-5.311 6.963-14.978 12.136-16.309 1.902-0.489 4.189 0.799 3.704 5.054-0.74 6.469-5.474 11.847-11.429 15.871-3.313 2.21-4.712 1.234-7.28 1.106-3.313 0.38-4.199 2.028-1.47 4.312 2.532 1.341 4.817 1.521 6.66 1.159 1.595-0.29 3.455-2.392 4.783-3.533 1.489-1.758 3.97 0.327 2.288 2.392-3.067 3.732-6.148 6.179-9.922 6.124-3.987 0.562-3.242 2.844-0.603 3.95 4.748 2.01 9.053-1.74 11.216-4.222 1.682-1.865 2.888-1.938 2.585 0.961-1.665 5.271-3.95 7.318-7.671 7.573-3.012-0.272-3.047 2.102-0.849 3.715 5.029 3.55 8.679-2.502 10.381-6.162 1.203-3.316 3.066-1.738 3.259 0.979 0.036 3.642-2.573 7.422-4.725 9.288-2.152 1.866 9.278 13.733 9.278 13.733s11.43-11.867 9.278-13.733zm15.317-134.379c-1.779 0-2.878 0.623-2.878 1.379 0 0.768 1.099 1.394 2.878 1.394 1.769 0 2.892-0.682 2.892-1.452 0-0.756-1.123-1.321-2.892-1.321zm-49.19 0c1.779 0 2.878 0.623 2.878 1.379 0 0.768-1.099 1.394-2.878 1.394-1.769 0-2.892-0.682-2.892-1.452 0-0.756 1.123-1.321 2.892-1.321z" stroke-width="1" id="path_1"/></svg>