<svg xmlns="http://www.w3.org/2000/svg" viewBox="0 0 32 16">
  <g fill="none" fill-rule="evenodd">
    <rect width="32" height="16" fill="#072B5F"/>
    <path fill="#FFF" fill-rule="nonzero" d="M9,7.91666667 C9,7.91666667 9.23333333,8.80555556 9.7,10.5833333 L11.8,12.5833333 L13.2,13.25 L15.3,13.25 L15.3,11.9166667 C15.3,11.9166667 15.7666667,11.6944444 16.7,11.25 L18.8,11.25 L19.5,10.5833333 L20.2,9.91666667 L21.6,9.91666667 L21.6,7.91666667 L23,5.25 L22.0260813,5.25 C22.0260813,5.25 21.4173875,5.69444444 20.2,6.58333333 L18.8,6.58333333 L17.4,5.25 L16.7,3.91666667 L13.9,3.25 L10.4,5.25 L9,7.91666667 Z" transform="matrix(-1 0 0 1 32 0)"/>
  </g>
</svg>
