<svg id="vector" xmlns="http://www.w3.org/2000/svg" width="24" height="24" viewBox="0 0 512 512"><path fill="#002266" d="M512 256C512 397.385 397.385 512 256 512C114.615 512 0 397.385 0 256L256 0C397.385 0 512 114.615 512 256Z" id="path_0"/><path fill="#002266" d="M256 0V256H0C0 114.615 114.615 0 256 0Z" id="path_1"/><path fill="#EEEEEE" d="M217.562 256H256V217.562L140.688 102.25H256V0C114.615 0 0 114.615 0 256H102.25V140.688L217.562 256Z" id="path_2"/><path fill="#D80027" d="M256 76.625V25.375H144.743C92.7292 50.5133 50.5133 92.7292 25.375 144.743V256H76.625V76.625H256Z" id="path_3"/><path fill="#D80027" d="M256 230.375V256L102.25 102.25H127.875L256 230.375Z" id="path_4"/><path fill="#EEEEEE" d="M383.284 356.174L390.309 370.863L406.173 367.196L399.068 381.847L411.826 391.964L395.942 395.544L395.986 411.826L383.284 401.639L370.582 411.826L370.626 395.544L354.743 391.964L367.5 381.847L360.396 367.196L376.259 370.863L383.284 356.174Z" id="path_5"/><path fill="#EEEEEE" d="M317.933 200.348L324.957 215.038L340.821 211.37L333.717 226.021L346.474 236.138L330.591 239.718L330.634 256L317.933 245.813L305.231 256L305.274 239.718L289.391 236.138L302.148 226.021L295.044 211.37L310.908 215.038L317.933 200.348Z" id="path_6"/><path fill="#EEEEEE" d="M383.284 111.304L390.309 125.994L406.173 122.327L399.069 136.978L411.825 147.094L395.942 150.675L395.986 166.957L383.284 156.77L370.582 166.957L370.626 150.675L354.743 147.094L367.499 136.978L360.396 122.327L376.259 125.994L383.284 111.304Z" id="path_7"/><path fill="#EEEEEE" d="M440.368 178.087L447.392 192.777L463.256 189.109L456.152 203.76L468.909 213.877L453.025 217.458L453.069 233.739L440.368 223.553L427.666 233.739L427.709 217.458L411.826 213.877L424.583 203.76L417.479 189.109L433.342 192.777L440.368 178.087Z" id="path_8"/><path fill="#EEEEEE" d="M399.55 256L405.075 273.006H422.957L408.49 283.517L414.017 300.522L399.55 290.012L385.084 300.522L390.609 283.517L376.143 273.006H394.024L399.55 256Z" id="path_9"/><path fill="#EEEEEE" d="M154 300L168 330L200 322L186 352L211 372L179 379L180 412L154 391L128 412L129 379L96 372L122 352L108 322L140 330L154 300Z" id="path_10"/></svg>