<svg id="vector" xmlns="http://www.w3.org/2000/svg" width="32" height="16" viewBox="0 0 500.0 250.0"><path fill="#00B9E4" d="M0 0h500v250H0z" id="path_0"/><path fill="#ED2939" d="M0 83h500v84H0z" id="path_1"/><path fill="#3F9C35" d="M0 166h500v84H0z" id="path_2"/><path fill="#FFF" d="M267.43 100.96a31.5 31.5 0 1 0 2.63 44.45 38 38 0 1 1-2.63-44.45z" id="path_3"/><path fill="#FFF" d="M280 104l4.02 11.3 10.83-5.15-5.15 10.83L301 125l-11.3 4.02 5.15 10.83-10.83-5.15L280 146l-4.02-11.3-10.83 5.15 5.15-10.83L259 125l11.3-4.02-5.15-10.83 10.83 5.15z" id="path_4"/></svg>