<svg id="vector" xmlns="http://www.w3.org/2000/svg" width="24" height="24" viewBox="0 0 512 512"><path fill="#D80027" d="M482.19 376C501.219 340.208 512 299.363 512 256C512 212.637 501.219 171.792 482.19 136H29.8097C10.7813 171.792 0 212.637 0 256C0 299.363 10.7813 340.208 29.8097 376H482.19Z" id="path_0"/><path fill="#6DA544" d="M496.474 344C460.589 442.034 366.465 512 256 512C145.535 512 51.4113 442.034 15.5261 344H496.474Z" id="path_1"/><path fill="#338AF3" d="M496.474 168H15.5264C51.4116 69.9657 145.535 0 256 0C366.465 0 460.589 69.9657 496.474 168Z" id="path_2"/><path fill="#EEEEEE" d="M261 321.001C225.102 321.001 195.999 291.899 195.999 256.001C195.999 220.103 225.102 191 261 191C272.193 191 282.725 193.83 291.92 198.813C277.494 184.707 257.768 176 236 176C191.816 176 156 211.817 156 256C156 300.183 191.817 336 236 336C257.769 336 277.495 327.293 291.92 313.187C282.725 318.171 272.193 321.001 261 321.001Z" id="path_3"/><path fill="#EEEEEE" d="M310.999 211.001L319.609 235.215L342.819 224.18L331.785 247.391L355.999 256.001L331.785 264.612L342.819 287.822L319.609 276.788L310.999 301.002L302.39 276.788L279.179 287.822L290.214 264.612L265.999 256.001L290.214 247.391L279.179 224.18L302.39 235.215L310.999 211.001Z" id="path_4"/></svg>