<svg id="vector" xmlns="http://www.w3.org/2000/svg" width="32" height="16" viewBox="0 0 200 100"><path fill="#002395" fill-rule="evenodd" d="M0,0h200v100h-200z" stroke-width="1" stroke="#00000000" id="path_0"/><path fill="#FECB00" fill-rule="evenodd" d="M153.382,99.758l-99.758,-99.758l99.758,0z" stroke-width="1" stroke="#00000000" id="path_1"/><path fill="#FFFFFF" fill-rule="evenodd" d="M138.647,100L131.401,100L126.087,96.135L132.85,96.135L135.024,89.855L137.44,96.135L143.961,96.135L138.647,100ZM118.599,94.203L120.29,87.681L114.976,83.575L121.739,83.575L123.913,77.295L126.328,83.575L132.85,83.575L127.536,87.681L129.469,94.203L123.913,90.338L118.599,94.203ZM105.556,81.159L107.246,74.638L101.932,70.531L108.696,70.531L110.87,64.251L113.285,70.531L119.807,70.531L114.493,74.638L116.425,81.159L110.87,77.295L105.556,81.159ZM92.995,68.599L94.686,62.077L89.372,57.971L96.135,57.971L98.309,51.691L100.725,57.971L107.246,57.971L101.932,62.077L103.865,68.599L98.309,64.734L92.995,68.599ZM79.952,55.556L81.643,49.034L76.328,44.928L83.092,44.928L85.266,38.647L87.681,44.928L94.203,44.928L88.889,49.034L90.821,55.556L85.266,51.691L79.952,55.556ZM67.874,43.478L69.565,36.957L64.251,32.85L71.014,32.85L73.188,26.57L75.604,32.85L82.126,32.85L76.812,36.957L78.744,43.478L73.188,39.614L67.874,43.478ZM55.314,30.918L57.005,24.396L51.691,20.29L58.454,20.29L60.628,14.01L63.043,20.29L69.565,20.29L64.251,24.396L66.184,30.918L60.628,27.053L55.314,30.918ZM43.237,18.841L44.928,12.319L39.614,8.213L46.377,8.213L48.551,1.932L50.966,8.213L57.488,8.213L52.174,12.319L54.106,18.841L48.551,14.976L43.237,18.841ZM30.676,6.28L32.367,-0L39.614,-0L41.546,6.28L35.99,2.415L30.676,6.28Z" stroke-width="1" stroke="#00000000" id="path_2"/></svg>