<svg xmlns="http://www.w3.org/2000/svg" viewBox="0 0 32 16">
  <g fill="none" fill-rule="evenodd">
    <rect width="32" height="16" fill="#0B8739" transform="matrix(1 0 0 -1 0 16)"/>
    <g fill-rule="nonzero" transform="translate(9.188 2.188)">
      <polygon fill="#FFDA44" points="6.813 .943 13.421 5.813 6.813 10.682 .204 5.813"/>
      <circle cx="6.813" cy="5.813" r="2.783" fill="#F0F0F0"/>
      <path fill="#153F93" d="M5.4211875 5.63859375C4.9373125 5.63859375 4.47034375 5.7121875 4.03078125 5.84875 4.05025 7.36875 5.287875 8.595125 6.8125 8.595125 7.75525 8.595125 8.587875 8.12584375 9.09121875 7.408625 8.2300625 6.33059375 6.90503125 5.63859375 5.4211875 5.63859375zM9.54353125 6.345625C9.57703125 6.173 9.595125 5.99490625 9.595125 5.8125 9.595125 4.2756875 8.3493125 3.02990625 6.81253125 3.02990625 5.66584375 3.02990625 4.68146875 3.7236875 4.25546875 4.71425 4.63203125 4.63621875 5.02190625 4.595125 5.42125 4.595125 7.03740625 4.59509375 8.49946875 5.26690625 9.54353125 6.345625z"/>
    </g>
  </g>
</svg>
