<svg id="vector" xmlns="http://www.w3.org/2000/svg" width="24" height="24" viewBox="0 0 512 512"><path fill="#6DA544" d="M512 256A256 256 0 0 1 0 256A256 256 0 0 1 512 256Z" id="path_0"/><path fill="#FFDA44" d="M256 100.174L467.478 256L256 411.826L44.5225 256L256 100.174Z" id="path_1"/><path fill="#EEEEEE" d="M256 345.043C305.177 345.043 345.043 305.177 345.043 256C345.043 206.823 305.177 166.957 256 166.957C206.823 166.957 166.957 206.823 166.957 256C166.957 305.177 206.823 345.043 256 345.043Z" id="path_2"/><path fill="#0052B4" d="M345.043 256C345.043 261.837 344.464 267.536 343.392 273.06C309.982 238.541 263.196 217.043 211.479 217.044C198.7 217.044 186.224 218.359 174.174 220.856C187.806 189.158 219.306 166.957 256 166.957C305.177 166.957 345.043 206.822 345.043 256ZM166.984 257.16C181.05 252.79 195.993 250.435 211.477 250.435C258.96 250.435 301.361 272.579 328.918 307.076C312.811 330.027 286.167 345.044 255.999 345.044C207.211 345.044 167.607 305.8 166.984 257.16Z" fill-rule="evenodd" id="path_3"/></svg>