<svg width="32" height="16" viewBox="0 0 32 16" fill="none" xmlns="http://www.w3.org/2000/svg">
<g clip-path="url(#clip0_3056_43845)">
<g clip-path="url(#clip1_3056_43845)">
<path fill-rule="evenodd" clip-rule="evenodd" d="M-0.551758 -0.181763H49.1087V10.6879H-0.551758V-0.181763Z" fill="#B20000"/>
<path fill-rule="evenodd" clip-rule="evenodd" d="M-0.551758 10.6879H49.1087V16.1818H-0.551758V10.6879Z" fill="#429F00"/>
<path fill-rule="evenodd" clip-rule="evenodd" d="M-0.551758 -0.181763H4.94775V16.1819H-0.551758V-0.181763Z" fill="white"/>
<path fill-rule="evenodd" clip-rule="evenodd" d="M-0.290039 0.0962913H-0.0281577V0.374345H-0.290039V0.0962913ZM0.495605 0.0962913H1.28125V0.374345H0.495605V0.0962913ZM0.757486 -0.181763H1.01937V0.0962913H0.757486V-0.181763ZM2.06689 -0.181763H2.32877V0.0962913H2.06689V-0.181763ZM3.11442 0.0962913H3.90006V0.374345H3.11442V0.0962913ZM3.3763 -0.181763H3.63818V0.0962913H3.3763V-0.181763ZM0.233724 0.374345H0.757486V0.649203H0.233724V0.374345ZM1.01937 0.374345H1.54313V0.649203H1.01937V0.374345ZM2.85254 0.374345H3.3763V0.649203H2.85254V0.374345ZM3.63818 0.374345H4.16194V0.649203H3.63818V0.374345ZM-0.0281577 0.649203H0.495605V0.927257H-0.0281577V0.649203ZM1.28125 0.649203H1.80501V0.927257H1.28125V0.649203ZM2.59066 0.649203H3.11442V0.927257H2.59066V0.649203ZM3.90006 0.649203H4.42383V0.927257H3.90006V0.649203ZM4.42383 0.0962913H4.68571V0.374345H4.42383V0.0962913ZM-0.290039 0.927257H0.233724V1.20531H-0.290039V0.927257ZM1.54313 0.927257H2.06689V1.20531H1.54313V0.927257ZM4.16194 0.927257H4.68571V1.20531H4.16194V0.927257ZM-0.0281577 1.75822H0.495605V2.03628H-0.0281577V1.75822ZM0.233724 2.03628H0.757486V2.31433H0.233724V2.03628ZM1.28125 1.76142H1.80501V2.03628H1.28125V1.76142ZM1.01937 2.03628H1.54313V2.31433H1.01937V2.03628ZM0.495605 2.31433H1.28125V2.59239H0.495605V2.31433Z" fill="#B20000"/>
<path fill-rule="evenodd" clip-rule="evenodd" d="M0.757649 2.59244H1.01953V2.87049H0.757649V2.59244ZM2.59082 1.76147H3.11458V2.03633H2.59082V1.76147ZM2.8527 2.03633H3.37646V2.31439H2.8527V2.03633ZM3.90023 1.76147H4.42399V2.03633H3.90023V1.76147ZM3.63834 2.03633H4.16211V2.31439H3.63834V2.03633ZM3.11458 2.31439H3.90023V2.59244H3.11458V2.31439ZM3.37646 2.59244H3.63834V2.87049H3.37646V2.59244ZM2.06706 2.31119H2.32894V2.58924H2.06706V2.31119ZM-0.551758 2.31119H-0.289876V2.58924H-0.551758V2.31119ZM4.68587 2.31119H4.94775V2.58924H4.68587V2.31119ZM0.757649 3.69826H1.01953V3.97632H0.757649V3.69826ZM0.495768 3.97951H1.28141V4.25437H0.495768V3.97951ZM0.233886 4.25437H1.54329V4.53243H0.233886V4.25437ZM3.37646 3.70146H3.63834V3.97951H3.37646V3.70146ZM3.11458 3.97951H3.90023V4.25437H3.11458V3.97951ZM2.8527 4.25437H4.16211V4.53243H2.8527V4.25437ZM3.11458 5.64145H4.42399V5.9195H3.11458V5.64145ZM2.59082 4.53243H4.42399V4.81048H2.59082V4.53243ZM-0.027995 4.53243H1.80517V4.81048H-0.027995V4.53243ZM0.233886 5.9195H1.01953V6.19755H0.233886V5.9195ZM-0.027995 5.64145H1.28141V5.9195H-0.027995V5.64145ZM3.63834 5.09173H4.94775V5.36978H3.63834V5.09173ZM3.37646 5.9227H4.16211V6.20075H3.37646V5.9227Z" fill="#B20000"/>
<path fill-rule="evenodd" clip-rule="evenodd" d="M0.495768 6.19749H0.757649V6.47554H0.495768V6.19749ZM3.63834 6.19749H3.90023V6.47554H3.63834V6.19749ZM-0.551758 5.08847H0.757649V5.36652H-0.551758V5.08847ZM1.80517 5.64138H2.59082V5.91943H1.80517V5.64138ZM2.06706 5.92263H2.32894V6.20068H2.06706V5.92263ZM1.28141 5.09166H3.11458V5.36972H1.28141V5.09166ZM2.32894 0.927246H2.8527V1.2053H2.32894V0.927246ZM1.80517 1.2053H2.59082V1.48335H1.80517V1.2053ZM1.54329 1.48335H2.06706V1.75821H1.54329V1.48335ZM2.32894 1.48335H2.8527V1.75821H2.32894V1.48335ZM-0.551758 1.2053H-0.027995V1.48335H-0.551758V1.2053ZM-0.289876 1.48335H0.233886V1.75821H-0.289876V1.48335ZM4.42399 1.2053H4.94775V1.48016H4.42399V1.2053ZM4.16211 1.48016H4.68587V1.75502H4.16211V1.48016ZM-0.551758 3.97306H-0.289876V4.25111H-0.551758V3.97306ZM4.68587 3.97306H4.94775V4.25111H4.68587V3.97306ZM1.80517 6.19429H2.59082V6.47235H1.80517V6.19429ZM1.54329 6.47235H2.06706V6.7472H1.54329V6.47235ZM2.32894 6.47235H2.8527V6.7472H2.32894V6.47235ZM1.28141 6.7472H1.80517V7.02526H1.28141V6.7472ZM2.59082 6.7472H3.11458V7.02526H2.59082V6.7472ZM1.01953 7.02526H1.54329V7.30331H1.01953V7.02526ZM2.8527 7.02526H3.37646V7.30331H2.8527V7.02526ZM0.757649 7.30651H1.28141V7.58456H0.757649V7.30651ZM3.11458 7.30651H3.63834V7.58456H3.11458V7.30651ZM0.233886 7.58456H1.01953V7.86262H0.233886V7.58456ZM3.37646 7.58456H4.16211V7.86262H3.37646V7.58456ZM3.90023 7.30651H4.42399V7.58456H3.90023V7.30651ZM4.16211 7.02845H4.68587V7.30651H4.16211V7.02845ZM4.42399 6.7504H4.94775V7.02845H4.42399V6.7504ZM-0.027995 7.30651H0.495768V7.58456H-0.027995V7.30651ZM-0.289876 7.02845H0.233886V7.30651H-0.289876V7.02845ZM-0.551758 6.7536H-0.027995V7.03165H-0.551758V6.7536ZM0.495768 7.86581H0.757649V8.14067H0.495768V7.86581ZM3.63834 7.86581H3.90023V8.14067H3.63834V7.86581ZM2.06706 7.03485H2.32894V7.3097H2.06706V7.03485ZM1.28141 7.86581H1.54329V8.14067H1.28141V7.86581ZM2.8527 7.86581H3.11458V8.14067H2.8527V7.86581ZM2.06706 7.86581H2.32894V8.14067H2.06706V7.86581ZM-0.551758 7.86581H-0.289876V8.14067H-0.551758L-0.551758 7.86581ZM4.68587 7.86581H4.94775V8.14067H4.68587V7.86581ZM2.06706 3.97945H2.32894V4.25431H2.06706V3.97945ZM0.757649 1.2053H1.01953V1.48335H0.757649V1.2053ZM3.37646 1.2053H3.63834V1.48335H3.37646V1.2053ZM1.80517 3.14529H2.59082V3.42334H1.80517V3.14529ZM1.28141 3.42334H2.06706V3.70139H1.28141V3.42334ZM1.54329 3.70139H1.80517V3.97945H1.54329V3.70139ZM1.01953 3.14529H1.54329V3.42334H1.01953V3.14529ZM1.28141 2.87043H2.06706V3.14529H1.28141V2.87043ZM1.54329 2.59237H1.80517V2.87043H1.54329V2.59237ZM2.32894 2.87043H3.11458V3.14529H2.32894V2.87043ZM2.59082 2.59237H2.8527V2.87043H2.59082V2.59237ZM2.8527 3.14529H3.37646V3.42334H2.8527V3.14529ZM2.32894 3.42334H3.11458V3.70139H2.32894V3.42334ZM2.59082 3.70139H2.8527V3.97945H2.59082V3.70139ZM3.63834 3.14529H4.16211V3.42334H3.63834V3.14529ZM3.90023 2.87043H4.68587V3.14529H3.90023V2.87043ZM4.42399 3.14529H4.94775V3.42334H4.42399V3.14529ZM3.90023 3.42334H4.68587V3.70139H3.90023V3.42334ZM4.16211 3.70139H4.42399V3.97945H4.16211V3.70139ZM4.16211 2.59237H4.42399V2.87043H4.16211V2.59237ZM-0.551758 3.14209H-0.027995V3.42014H-0.551758V3.14209ZM-0.289876 2.86723H0.495768V3.14209H-0.289876V2.86723ZM0.233886 3.14209H0.757649V3.42014H0.233886V3.14209ZM-0.289876 3.42014H0.495768V3.6982H-0.289876V3.42014Z" fill="#B20000"/>
<path fill-rule="evenodd" clip-rule="evenodd" d="M-0.027995 3.70143H0.233886V3.97948H-0.027995V3.70143ZM-0.027995 2.59241H0.233886V2.87046H-0.027995V2.59241ZM-0.289876 4.81045H0.757649V5.0885H-0.289876V4.81045ZM1.01953 4.81045H2.06706V5.0885H1.01953V4.81045ZM2.32894 4.81045H3.37646V5.0885H2.32894V4.81045ZM3.63834 4.81045H4.68587V5.0885H3.63834V4.81045ZM1.54329 5.36655H2.8527V5.64141H1.54329V5.36655ZM-0.289876 5.36655H1.01953V5.64141H-0.289876V5.36655ZM3.37646 5.36655H4.68587V5.64141H3.37646V5.36655ZM4.68587 6.47557H4.94775V6.75043H4.68587V6.47557ZM-0.551758 6.47557H-0.289876V6.75043H-0.551758V6.47557ZM-0.289876 15.9038H-0.027995V15.629H-0.289876V15.9038ZM0.495768 15.9038H1.28141V15.629H0.495768V15.9038ZM0.757649 16.1819H1.01953V15.9038H0.757649V16.1819ZM2.06706 16.1819H2.32894V15.9038H2.06706V16.1819ZM3.11458 15.9038H3.90023V15.6258H3.11458V15.9038ZM3.37646 16.1819H3.63834V15.9038H3.37646V16.1819ZM0.233886 15.6258H0.757649V15.3509H0.233886V15.6258ZM1.01953 15.6258H1.54329V15.3509H1.01953V15.6258ZM2.8527 15.6258H3.37646V15.3509H2.8527V15.6258ZM3.63834 15.6258H4.16211V15.3509H3.63834V15.6258ZM1.28141 15.3509H1.80517V15.0729H1.28141V15.3509ZM2.59082 15.3509H3.11458V15.0729H2.59082V15.3509ZM3.90023 15.3509H4.42399V15.0729H3.90023V15.3509ZM4.42399 15.9038H4.68587V15.6258H4.42399V15.9038ZM-0.289876 15.0729H0.233886V14.7948H-0.289876V15.0729ZM1.54329 15.0729H2.06706V14.7948H1.54329V15.0729ZM4.16211 15.0729H4.68587V14.7948H4.16211V15.0729ZM-0.027995 14.2419H0.495768V13.9639H-0.027995V14.2419ZM0.233886 13.9639H0.757649V13.6858H0.233886V13.9639ZM1.28141 14.2419H1.80517V13.9639H1.28141V14.2419ZM1.01953 13.9639H1.54329V13.6858H1.01953V13.9639ZM0.495768 13.6858H1.28141V13.4077H0.495768V13.6858ZM0.757649 13.4077H1.01953V13.1329H0.757649V13.4077ZM2.59082 14.2387H3.11458V13.9639H2.59082V14.2387ZM2.8527 13.9639H3.37646V13.6858H2.8527V13.9639ZM3.90023 14.2419H4.42399V13.9639H3.90023V14.2419ZM3.63834 13.9639H4.16211V13.6858H3.63834V13.9639ZM3.11458 13.6858H3.90023V13.4077H3.11458V13.6858ZM3.37646 13.4077H3.63834V13.1329H3.37646V13.4077ZM2.06706 13.689H2.32894V13.4109H2.06706V13.689ZM-0.551758 13.689H-0.289876V13.4109H-0.551758V13.689ZM4.68587 13.689H4.94775V13.4109H4.68587V13.689ZM0.757649 12.3019H1.01953V12.0239H0.757649V12.3019ZM0.495768 12.0207H1.28141V11.7458H0.495768V12.0207ZM0.233886 11.7458H1.54329V11.4678H0.233886V11.7458ZM3.37646 12.2987H3.63834V12.0207H3.37646V12.2987Z" fill="#B20000"/>
<path fill-rule="evenodd" clip-rule="evenodd" d="M3.11458 12.0206H3.90023V11.7457H3.11458V12.0206ZM2.8527 11.7457H4.16211V11.4677H2.8527V11.7457ZM3.11458 10.3587H4.42399V10.0774H3.11458V10.3587ZM2.59082 11.4677H4.42399V11.1896H2.59082V11.4677ZM-0.027995 11.4677H1.80517V11.1896H-0.027995V11.4677ZM0.233886 10.0806H1.01953V9.80256H0.233886V10.0806ZM-0.027995 10.3587H1.28141V10.0774H-0.027995V10.3587ZM3.63834 10.9084H4.94775V10.6303H3.63834V10.9084ZM3.37646 10.0774H4.16211V9.79936H3.37646V10.0774ZM-0.551758 10.9084H0.757649V10.6303H-0.551758V10.9084ZM1.80517 10.3555H2.59082V10.0774H1.80517V10.3555ZM2.06706 10.0774H2.32894V9.79936H2.06706V10.0774ZM1.28141 10.9084H3.11458V10.6303H1.28141V10.9084ZM2.32894 15.0696H2.8527V14.7915H2.32894V15.0696ZM1.80517 14.7915H2.59082V14.5199H1.80517V14.7915ZM1.54329 14.5135H2.06706V14.2354H1.54329V14.5135ZM2.32894 14.5135H2.8527V14.2354H2.32894V14.5135ZM-0.551758 14.7947H-0.027995V14.5199H-0.551758V14.7947ZM-0.289876 14.5167H0.233886V14.2418H-0.289876V14.5167ZM4.42399 14.7947H4.94775V14.5199H4.42399V14.7947ZM4.16211 14.5167H4.68587V14.2418H4.16211V14.5167ZM-0.551758 12.027H-0.289876V11.7489H-0.551758V12.027ZM4.68587 12.027H4.94775V11.7489H4.68587V12.027ZM1.54329 9.5277H2.06706V9.25284H1.54329V9.5277ZM2.32894 9.5277H2.8527V9.25284H2.32894V9.5277ZM1.28141 9.25284H1.80517V8.97479H1.28141V9.25284ZM2.59082 9.25284H3.11458V8.97479H2.59082V9.25284ZM1.01953 8.97479H1.54329V8.69673H1.01953V8.97479ZM2.8527 8.97479H3.37646V8.69673H2.8527V8.97479ZM0.757649 8.69354H1.28141V8.41548H0.757649V8.69354ZM3.11458 8.69354H3.63834V8.41548H3.11458V8.69354ZM0.233886 8.41548H1.01953V8.13743H0.233886V8.41548ZM3.37646 8.41548H4.16211V8.13743H3.37646V8.41548ZM3.90023 8.69354H4.42399V8.41548H3.90023V8.69354ZM4.16211 8.97159H4.68587V8.69354H4.16211V8.97159ZM4.42399 9.24964H4.94775V8.97159H4.42399V9.24964ZM-0.027995 8.69354H0.495768V8.41548H-0.027995V8.69354ZM-0.289876 8.97159H0.233886V8.69354H-0.289876V8.97159ZM-0.551758 9.24645H-0.027995V8.96839H-0.551758V9.24645ZM0.495768 8.13423H0.757649V7.85938H0.495768V8.13423ZM2.06706 8.9652H2.32894V8.69034H2.06706V8.9652ZM2.06706 12.0174H2.32894V11.7425H2.06706V12.0174ZM0.757649 14.7915H1.01953V14.5199H0.757649V14.7915ZM3.37646 14.7915H3.63834V14.5199H3.37646V14.7915ZM1.80517 12.858H2.59082V12.5799H1.80517V12.858ZM1.28141 12.5799H2.06706V12.3018H1.28141V12.5799ZM1.54329 12.3018H1.80517V12.0238H1.54329V12.3018ZM1.01953 12.858H1.54329V12.5799H1.01953V12.858ZM1.28141 13.1296H2.06706V12.858H1.28141V13.1296ZM1.54329 13.4077H1.80517V13.1328H1.54329V13.4077ZM2.32894 13.1296H3.11458V12.858H2.32894V13.1296ZM2.59082 13.4077H2.8527V13.1328H2.59082V13.4077ZM2.8527 12.8548H3.37646V12.5767H2.8527V12.8548ZM2.32894 12.5767H3.11458V12.2987H2.32894V12.5767ZM2.59082 12.2987H2.8527V12.0206H2.59082V12.2987ZM3.63834 12.858H4.16211V12.5799H3.63834V12.858ZM3.90023 13.1296H4.68587V12.858H3.90023V13.1296ZM4.42399 12.8548H4.94775V12.5767H4.42399V12.8548ZM3.90023 12.5767H4.68587V12.2987H3.90023V12.5767ZM4.16211 12.2987H4.42399V12.0206H4.16211V12.2987ZM4.16211 13.4077H4.42399V13.1328H4.16211V13.4077ZM-0.551758 12.858H-0.027995V12.5799H-0.551758V12.858ZM-0.289876 13.1296H0.495768V12.858H-0.289876V13.1296Z" fill="#B20000"/>
<path fill-rule="evenodd" clip-rule="evenodd" d="M0.233886 12.8548H0.757649V12.5768H0.233886V12.8548ZM-0.289876 12.5768H0.495768V12.2987H-0.289876V12.5768ZM-0.027995 12.2987H0.233886V12.0207H-0.027995V12.2987ZM-0.027995 13.4077H0.233886V13.1329H-0.027995V13.4077ZM-0.289876 11.1897H0.757649V10.9117H-0.289876V11.1897ZM1.01953 11.1897H2.06706V10.9117H1.01953V11.1897ZM2.32894 11.1897H3.37646V10.9117H2.32894V11.1897ZM3.63834 11.1897H4.68587V10.9117H3.63834V11.1897ZM1.54329 10.6336H2.8527V10.3587H1.54329V10.6336ZM-0.289876 10.6336H1.01953V10.3587H-0.289876V10.6336ZM3.37646 10.6336H4.68587V10.3587H3.37646V10.6336ZM4.68587 9.52778H4.94775V9.24653H4.68587V9.52778ZM-0.551758 9.52778H-0.289876V9.24653H-0.551758V9.52778ZM1.80517 8.13751H2.06706V8.41556H1.80517V8.13751ZM2.32894 8.13751H2.59082V8.41556H2.32894V8.13751ZM2.32894 7.58459H2.59082V7.86265H2.32894V7.58459ZM1.80517 7.58459H2.06706V7.86265H1.80517V7.58459ZM-0.027995 15.0729H0.495768V15.3509H-0.027995V15.0729ZM3.63834 9.80263H3.90023V9.52458H3.63834V9.80263ZM0.495768 9.80263H0.757649V9.52458H0.495768V9.80263ZM1.80517 9.52458H2.59082V9.80263H1.80517V9.52458Z" fill="#B20000"/>
</g>
</g>
<defs>
<clipPath id="clip0_3056_43845">
<rect width="32" height="16" fill="white"/>
</clipPath>
<clipPath id="clip1_3056_43845">
<rect width="33.1034" height="16.3636" fill="white" transform="translate(-0.551758 -0.181763)"/>
</clipPath>
</defs>
</svg>
