<svg id="vector" xmlns="http://www.w3.org/2000/svg" width="24" height="24" viewBox="0 0 512 512"><path fill="#FF00FF" d="M512 256A256 256 0 0 1 0 256A256 256 0 0 1 512 256Z" id="path_0"/><path fill="#6DA544" d="M255.611 512C129.597 511.812 24.928 420.577 3.86383 300.556H508.136C487.072 420.577 382.403 511.812 256.389 512H255.611Z" fill-rule="evenodd" id="path_1"/><path fill="#A2001D" d="M496.089 345.044C506.378 317.312 512 287.312 512 256C512 114.615 397.385 0 256 0C114.615 0 0 114.615 0 256C0 287.312 5.62169 317.312 15.9108 345.044H496.089Z" fill-rule="evenodd" id="path_2"/><path fill="#A2001D" d="M102.4 460.819C40.2203 414.114 0 339.754 0 256C0 172.246 40.2203 97.8861 102.4 51.1812V460.819Z" fill-rule="evenodd" id="path_3"/><path fill="#FCFCFC" d="M102.4 460.819L102.393 460.814L102.4 460.8L102.4 460.819ZM102.4 358.4L76.8 409.195L102.4 460.8V358.4ZM102.4 256L76.8 306.795L102.4 358.4V256ZM102.4 153.6L102.4 153.6L76.8 204.395L102.4 256L102.4 153.6ZM102.4 51.2V153.6L102.4 153.6L76.8 101.995L102.4 51.2L102.4 51.2ZM102.4 51.1999L102.4 51.2L102.393 51.1863L102.4 51.1812V51.1999ZM0 256C-0.00000510305 228.713 4.26933 202.422 12.1765 177.761L25.5999 204.395L0 256ZM51.1999 256L76.7999 204.395L51.1999 153.6L25.5999 204.395L51.1999 256ZM51.1999 358.4L76.7999 306.795L51.1999 256L25.5999 306.795L0 256C-0.00000508692 283.201 4.24237 309.411 12.1016 334.005L25.5999 306.795L51.1999 358.4ZM51.1999 358.4L36.4318 387.703C45.2781 402.419 55.562 416.173 67.0892 428.77L76.7999 409.195L51.1999 358.4ZM36.5588 124.086C45.4183 109.38 55.7143 95.6369 67.2526 83.0514L76.7999 101.995L51.1999 153.6L36.5588 124.086Z" fill-rule="evenodd" id="path_4"/></svg>