<svg id="vector" xmlns="http://www.w3.org/2000/svg" width="32" height="16" viewBox="0 0 500.0 250.0"><path fill="#ff0000" d="M0 0h500v250H0z" id="path_0"/><path fill="#FFF" d="M125 0h250v250H125z" id="path_1"/><path fill="#ff0000" d="M250 23.44l-17.06 31.81c-1.94 3.46-5.4 3.13-8.87 1.2l-12.35-6.39 9.2 48.86c1.94 8.93-4.27 8.93-7.33 5.07l-21.56-24.13-3.5 12.25c-0.4 1.61-2.17 3.3-4.84 2.9l-27.25-5.73 7.16 26.03c1.53 5.79 2.73 8.19-1.54 9.71l-9.72 4.57 46.91 38.1a6.14 6.14 0 0 1 2.14 6.38l-4.1 13.47c16.15-1.85 30.62-4.66 46.78-6.38 1.43-0.15 3.81 2.2 3.8 3.85l-2.14 49.37h7.86l-1.24-49.26c-0.01-1.65 2.16-4.12 3.59-3.96 16.16 1.72 30.63 4.53 46.77 6.38l-4.1-13.47a6.14 6.14 0 0 1 2.13-6.38l46.91-38.1-9.7-4.57c-4.28-1.52-3.08-3.92-1.56-9.71l7.17-26.03-27.25 5.73c-2.67 0.4-4.44-1.29-4.85-2.9l-3.5-12.25L286.42 104c-3.07 3.86-9.28 3.86-7.35-5.06l9.2-48.87-12.34 6.4c-3.47 1.92-6.94 2.25-8.87-1.21" id="path_2"/></svg>