<svg id="vector" xmlns="http://www.w3.org/2000/svg" width="24" height="24" viewBox="0 0 512 512"><path fill="#EEEEEE" d="M128 477.752C165.654 499.534 209.371 512 256 512C302.629 512 346.346 499.534 384 477.752L384 34.2483C346.346 12.4665 302.629 -0.00000355685 256 -0.00000559506C209.371 -0.00000763327 165.654 12.4665 128 34.2482L128 477.752Z" id="path_0"/><path fill="#D80027" d="M-0.0000100613 255.911C0.0345708 154.729 58.7696 67.2685 144 25.7354L144 486.264C58.7695 444.731 0.0345009 357.271 -0.0000405867 256.089C-0.0000405854 256.059 -0.0000405841 256.03 -0.0000405828 256C-0.0000405815 255.97 -0.0000100626 255.94 -0.0000100613 255.911Z" id="path_1"/><path fill="#D80027" d="M512 256C512 154.78 453.256 67.2808 368 25.7353L368 486.264C453.256 444.719 512 357.22 512 256Z" id="path_2"/><path fill="#D80027" d="M300.522 289.391L345.043 267.13L322.783 256V233.739L278.261 256L300.522 211.478H278.261L256 178.087L233.739 211.478H211.478L233.739 256L189.217 233.739V256L166.957 267.13L211.478 289.391L200.348 311.652H244.87V345.043H267.13V311.652H311.652L300.522 289.391Z" id="path_3"/></svg>