<svg xmlns="http://www.w3.org/2000/svg" viewBox="0 0 32 16">
  <g fill="none" fill-rule="evenodd">
    <rect width="32" height="16" fill="#DE2910"/>
    <g fill="#FFDA44" fill-rule="nonzero" transform="translate(1 1)">
      <polygon points="3 1 3.708 3.291 6 3.291 4.147 4.709 4.856 7 3 5.585 1.144 7 1.856 4.709 0 3.291 2.292 3.291"/>
      <polygon points="8.305 9 7.807 8.407 7.071 8.683 7.498 8.041 7 7.445 7.763 7.642 8.193 7 8.234 7.765 9 7.961 8.261 8.235"/>
      <polygon points="9.396 7 9.624 6.237 9 5.775 9.764 5.763 9.989 5 10.236 5.757 11 5.748 10.387 6.225 10.632 6.982 10.009 6.52"/>
      <polygon points="10.787 2.179 10.447 2.876 11 3.416 10.237 3.306 9.898 4 9.765 3.237 9 3.127 9.685 2.766 9.553 2 10.105 2.54"/>
      <polygon points="8.328 0 8.27 .763 9 1.051 8.235 1.234 8.179 2 7.765 1.349 7 1.531 7.507 .946 7.091 .297 7.821 .586"/>
    </g>
  </g>
</svg>
