<svg id="vector" xmlns="http://www.w3.org/2000/svg" width="32" height="16" viewBox="0 0 500 250"><defs><radialGradient gradientUnits="userSpaceOnUse" cx="123.35871" cy="151.38353" r="0.9435503" id="gradient_0"><stop stop-color="#FBD55FFF" offset="0"/><stop stop-color="#CB8E32FF" offset="1"/></radialGradient><radialGradient gradientUnits="userSpaceOnUse" cx="102.2429" cy="128.09315" r="1.0243578" id="gradient_1"><stop stop-color="#FBD55FFF" offset="0"/><stop stop-color="#CB8E32FF" offset="1"/></radialGradient><radialGradient gradientUnits="userSpaceOnUse" cx="104.07105" cy="128.00252" r="1.0248754" id="gradient_2"><stop stop-color="#FBD55FFF" offset="0"/><stop stop-color="#CB8E32FF" offset="1"/></radialGradient><radialGradient gradientUnits="userSpaceOnUse" cx="105.87351" cy="128.09315" r="1.0243539" id="gradient_3"><stop stop-color="#FBD55FFF" offset="0"/><stop stop-color="#CB8E32FF" offset="1"/></radialGradient><radialGradient gradientUnits="userSpaceOnUse" cx="103.16064" cy="129.72244" r="1.0221633" id="gradient_4"><stop stop-color="#FBD55FFF" offset="0"/><stop stop-color="#CB8E32FF" offset="1"/></radialGradient><radialGradient gradientUnits="userSpaceOnUse" cx="104.97249" cy="129.72244" r="1.0221633" id="gradient_5"><stop stop-color="#FBD55FFF" offset="0"/><stop stop-color="#CB8E32FF" offset="1"/></radialGradient><radialGradient gradientUnits="userSpaceOnUse" cx="103.205505" cy="131.36465" r="1.0248754" id="gradient_6"><stop stop-color="#FBD55FFF" offset="0"/><stop stop-color="#CB8E32FF" offset="1"/></radialGradient><radialGradient gradientUnits="userSpaceOnUse" cx="105.0221" cy="131.36464" r="1.0248754" id="gradient_7"><stop stop-color="#FBD55FFF" offset="0"/><stop stop-color="#CB8E32FF" offset="1"/></radialGradient><radialGradient gradientUnits="userSpaceOnUse" cx="103.38717" cy="133.1265" r="0.96197325" id="gradient_8"><stop stop-color="#FBD55FFF" offset="0"/><stop stop-color="#CB8E32FF" offset="1"/></radialGradient><radialGradient gradientUnits="userSpaceOnUse" cx="104.74164" cy="133.1265" r="0.9651366" id="gradient_9"><stop stop-color="#FBD55FFF" offset="0"/><stop stop-color="#CB8E32FF" offset="1"/></radialGradient><radialGradient gradientUnits="userSpaceOnUse" cx="103.58565" cy="134.71242" r="0.95051414" id="gradient_10"><stop stop-color="#FBD55FFF" offset="0"/><stop stop-color="#CB8E32FF" offset="1"/></radialGradient><radialGradient gradientUnits="userSpaceOnUse" cx="105.28456" cy="134.6315" r="0.9510572" id="gradient_11"><stop stop-color="#FBD55FFF" offset="0"/><stop stop-color="#CB8E32FF" offset="1"/></radialGradient><radialGradient gradientUnits="userSpaceOnUse" cx="104.85693" cy="136.18575" r="0.88991183" id="gradient_12"><stop stop-color="#FBD55FFF" offset="0"/><stop stop-color="#CB8E32FF" offset="1"/></radialGradient><radialGradient gradientUnits="userSpaceOnUse" cx="145.95956" cy="128.09315" r="1.0243539" id="gradient_13"><stop stop-color="#FBD55FFF" offset="0"/><stop stop-color="#CB8E32FF" offset="1"/></radialGradient><radialGradient gradientUnits="userSpaceOnUse" cx="144.13141" cy="128.00252" r="1.0248754" id="gradient_14"><stop stop-color="#FBD55FFF" offset="0"/><stop stop-color="#CB8E32FF" offset="1"/></radialGradient><radialGradient gradientUnits="userSpaceOnUse" cx="142.32722" cy="128.09315" r="1.0243539" id="gradient_15"><stop stop-color="#FBD55FFF" offset="0"/><stop stop-color="#CB8E32FF" offset="1"/></radialGradient><radialGradient gradientUnits="userSpaceOnUse" cx="144.51527" cy="129.72244" r="1.0221633" id="gradient_16"><stop stop-color="#FBD55FFF" offset="0"/><stop stop-color="#CB8E32FF" offset="1"/></radialGradient><radialGradient gradientUnits="userSpaceOnUse" cx="142.70341" cy="129.72244" r="1.0221711" id="gradient_17"><stop stop-color="#FBD55FFF" offset="0"/><stop stop-color="#CB8E32FF" offset="1"/></radialGradient><radialGradient gradientUnits="userSpaceOnUse" cx="144.99524" cy="131.36465" r="1.0248754" id="gradient_18"><stop stop-color="#FBD55FFF" offset="0"/><stop stop-color="#CB8E32FF" offset="1"/></radialGradient><radialGradient gradientUnits="userSpaceOnUse" cx="143.17986" cy="131.36464" r="1.0243539" id="gradient_19"><stop stop-color="#FBD55FFF" offset="0"/><stop stop-color="#CB8E32FF" offset="1"/></radialGradient><radialGradient gradientUnits="userSpaceOnUse" cx="144.6262" cy="133.1265" r="0.96197724" id="gradient_20"><stop stop-color="#FBD55FFF" offset="0"/><stop stop-color="#CB8E32FF" offset="1"/></radialGradient><radialGradient gradientUnits="userSpaceOnUse" cx="142.40443" cy="133.1265" r="0.9651287" id="gradient_21"><stop stop-color="#FBD55FFF" offset="0"/><stop stop-color="#CB8E32FF" offset="1"/></radialGradient><radialGradient gradientUnits="userSpaceOnUse" cx="144.34126" cy="134.71242" r="0.95052207" id="gradient_22"><stop stop-color="#FBD55FFF" offset="0"/><stop stop-color="#CB8E32FF" offset="1"/></radialGradient><radialGradient gradientUnits="userSpaceOnUse" cx="142.78006" cy="134.6315" r="0.9510651" id="gradient_23"><stop stop-color="#FBD55FFF" offset="0"/><stop stop-color="#CB8E32FF" offset="1"/></radialGradient><radialGradient gradientUnits="userSpaceOnUse" cx="144.91168" cy="136.18575" r="0.88991183" id="gradient_24"><stop stop-color="#FBD55FFF" offset="0"/><stop stop-color="#CB8E32FF" offset="1"/></radialGradient></defs><path fill="#002B7F" d="M0 0h500v250H0z" stroke-width="1" id="path_0"/><path fill="#FFFFFF" d="M0 41.667h500v166.665H0z" stroke-width="1" id="path_1"/><path fill="#CE1126" d="M0 83.335h500v83.335H0z" stroke-width="1" id="path_2"/><path fill="#FFFFFF" d="M93.75 125a31.25 36.458 0 1 0 62.5 0 31.25 36.458 0 1 0-62.5 0z" stroke-width="1" id="path_3"/><path fill="#CEA849" d="M105.06 120.088l0.705-1.298-1.666-0.465-0.513 1.154zm39.88 0l-0.705-1.298 1.666-0.465 0.513 1.154z" stroke-width="0.5" stroke="#000000" stroke-linecap="round" stroke-linejoin="round" id="path_4"/><path fill="#DCA842" d="M124.551 103.558l-2.569 0.074c-1.641 0.155-2.265 0.788-1.246 1.985-2.645 0.415-5.232 1.02-7.623 2.283-0.672-0.111-1.452 0.265-1.676 0.913-0.187 0.522 0.268 1.078 1.077 0.857-0.535 1.41-6.857 1.246-7.018 3.593 0.479-0.408 1.006-0.754 1.532-0.405l-0.362 1.096c-0.921 0.275-1.568 0.426-1.953 1.434-0.398 1.01-0.97 2.553-1.368 3.311-0.261 0.351-0.324 0.724-0.324 0.908 0 0.437 0.312 1.047 1.033 1.047 0.734 0 1.096-0.46 1.096-0.922-0.043-0.322-0.17-0.7-0.946-0.656 1.303-0.312 2.428 0.125 3.185 0.608 1.045 0.771 1.306 2.267 0.697 3.498-0.598 1.195-2.116 1.893-4.381 1.01-1.841-0.724-3.694 0.223-4.304 1.868-2.774 7.509 2.077 13.599 7.577 17.15 5.724 3.698 6.743 4.705 8.274 6.513 1.542 1.804 3.036 3.871 5.275 3.871 0.349 0 0.685-0.1 0.984-0.263 1.409 0 1.501 0.526 3.392 0.56v0.002l0.097-0.002 0.094 0.002v-0.002c1.893-0.033 1.984-0.56 3.395-0.56 0.298 0.163 0.632 0.263 0.981 0.263 2.239 0 3.733-2.067 5.275-3.871 1.531-1.808 2.553-2.815 8.276-6.513 5.499-3.552 10.351-9.642 7.577-17.15-0.61-1.645-2.465-2.592-4.306-1.868-2.265 0.883-3.781 0.185-4.379-1.01-0.609-1.231-0.348-2.727 0.697-3.498 0.757-0.483 1.881-0.92 3.183-0.608-0.776-0.044-0.901 0.334-0.943 0.656 0 0.462 0.361 0.922 1.095 0.922 0.722 0 1.032-0.61 1.032-1.047 0-0.184-0.061-0.557-0.323-0.908-0.398-0.758-0.972-2.301-1.37-3.311-0.385-1.008-1.032-1.159-1.953-1.434l-0.36-1.096c0.526-0.349 1.053-0.003 1.532 0.405-0.161-2.347-6.485-2.183-7.02-3.593 0.809 0.221 1.266-0.335 1.08-0.857-0.224-0.648-1.005-1.024-1.677-0.913-2.388-1.264-4.978-1.869-7.623-2.283 1.019-1.197 0.395-1.83-1.246-1.985l-2.569-0.074-0.449-0.014-0.447 0.014h-0.001z" stroke-width="0.5" stroke="#000000" stroke-linecap="round" stroke-linejoin="round" id="path_5"/><path fill="none" fill-rule="evenodd" d="M121.724 103.664c2.472 0.008 1.923 2.958-0.321 3.093-2.765 0.322-6.165 0.232-8.011 0.993m-6.345 3.926c2.135-0.601 4.435-0.115 5.832-0.754 1.397-0.638 1.698-2.749 0.192-3.028" stroke-width="0.5" stroke="#000000" stroke-linecap="round" stroke-linejoin="round" id="path_6"/><path fill="none" fill-rule="evenodd" d="M120.682 105.619c0.492-0.113 1.019-0.131 1.281-0.37s0.34-0.667-0.287-0.72m-9.165 5.16c0.459-0.773 0.31-1.311-0.289-0.94m16.054-5.085c-2.472 0.008-1.923 2.958 0.321 3.093 2.765 0.322 6.165 0.232 8.011 0.993m6.345 3.926c-2.135-0.601-4.435-0.115-5.832-0.754-1.397-0.638-1.698-2.749-0.192-3.028" stroke-width="0.5" stroke="#000000" stroke-linecap="round" stroke-linejoin="round" id="path_7"/><path fill="none" fill-rule="evenodd" d="M129.318 105.619c-0.492-0.113-1.019-0.131-1.281-0.37s-0.34-0.667 0.287-0.72m9.164 5.16c-0.459-0.773-0.31-1.311 0.29-0.94m-25.42 36.533c3.957 2.799 4.529 6.437 8.623 6.611" stroke-width="0.5" stroke="#000000" stroke-linecap="round" stroke-linejoin="round" id="path_8"/><path fill="none" fill-rule="evenodd" d="M121.031 152.464c-2.414 0.52-3.994-0.793-5.898-3.642-0.971-1.435-3.521-3.454-7.876-6.177-6.844-4.272-8.872-11.723-6.644-15.809 0.547-1.004 1.953-1.4 2.762-1.175 2.103 0.567 5.636 0 5.649-3.407 0.012-1.918-1.556-4.159-3.584-4.159-1.232 0-1.891 0.409-2.214 0.843" stroke-width="0.5" stroke="#000000" stroke-linecap="round" stroke-linejoin="round" id="path_9"/><path fill="none" fill-rule="evenodd" d="M120.732 151.015c0-0.187 0.162-0.383 0.398-0.383 0.237 0 0.448 0.209 0.448 0.469 0 0.57-0.323 0.878-1.008 0.742-0.56-0.111-0.808-0.717-0.572-1.325 0.236-0.618 1.033-1.002 1.891-0.618 0.859 0.396 0.759 1.708 0.461 2.453-0.175 0.431-0.523 0.792-0.946 1.027m16.237-8.098c-3.956 2.799-4.528 6.437-8.635 6.611" stroke-width="0.5" stroke="#000000" stroke-linecap="round" stroke-linejoin="round" id="path_10"/><path fill="none" fill-rule="evenodd" d="M128.969 152.464c2.414 0.52 3.994-0.793 5.898-3.642 0.958-1.435 3.521-3.454 7.876-6.177 6.843-4.272 8.871-11.723 6.644-15.808-0.547-1.005-1.953-1.401-2.762-1.176-2.103 0.567-5.636 0-5.649-3.407-0.012-1.918 1.556-4.158 3.584-4.158 1.231 0 1.891 0.408 2.214 0.843" stroke-width="0.5" stroke="#000000" stroke-linecap="round" stroke-linejoin="round" id="path_11"/><path fill="none" fill-rule="evenodd" d="M130.089 150.927c0-1.696-2.874-2.228-5.076-2.228-2.19 0-5.077 0.532-5.077 2.228" stroke-width="0.5" stroke="#000000" stroke-linecap="round" stroke-linejoin="round" id="path_12"/><path fill="none" fill-rule="evenodd" d="M129.268 151.015c0-0.187-0.162-0.383-0.398-0.383-0.237 0-0.448 0.209-0.448 0.469 0 0.57 0.323 0.878 1.008 0.742 0.56-0.111 0.808-0.717 0.572-1.325-0.236-0.618-1.033-1.002-1.891-0.618-0.859 0.396-0.759 1.708-0.461 2.453 0.175 0.431 0.523 0.792 0.946 1.027" stroke-width="0.5" stroke="#000000" stroke-linecap="round" stroke-linejoin="round" id="path_13"/><path fill="none" fill-rule="evenodd" d="M127.8 152.635c-1.158 0-1.12 1.246-2.8 1.246-1.667 0-1.63-1.246-2.787-1.246" stroke-width="0.5" stroke="#000000" stroke-linecap="round" stroke-linejoin="round" id="path_14"/><path fill="url(#gradient_0)" d="M125 150.774c-0.821 0-0.821 1.22 0 1.22s0.834-1.22 0-1.22m1.481 0.226c-0.51 0-0.51 0.758 0 0.758s0.522-0.758 0-0.758m-1.095 1.88c0-0.513-0.759-0.513-0.759 0 0 0.509 0.759 0.509 0.759 0m-1.866-1.096c0.509 0 0.509-0.761 0-0.761-0.511 0-0.523 0.761 0 0.761m1.094-1.879c0 0.509 0.759 0.509 0.759 0 0-0.51-0.759-0.51-0.759 0" stroke-width="0.5" stroke="#000000" id="path_15"/><path fill="#825123" d="M108.181 115.173c0.139 0.008 0.281 0.043 0.412 0.098 0.232 0.098 0.435 0.265 0.507 0.497l0.002 0.004c2.045 5.675 0.951 8.094-0.865 11.766-2.625 5.288-0.712 13.166 5.151 16.61 2.883 1.685 5.105 2.26 6.808 2.686 0.851 0.213 1.574 0.389 2.185 0.651 0.59 0.253 1.198 0.705 1.583 1.229-0.589 0.048-1.551 0.21-2.023 0.349-0.686-0.872-2.411-1.674-4.197-2.281-1.785-0.608-3.648-1.04-4.658-1.24h-0.002c-3.287-0.953-6.352-3.092-8.66-5.81-2.444-2.877-3.693-6.816-3.211-10.765 0.108-0.904 0.468-1.457 0.98-1.757 0.512-0.3 1.159-0.352 1.846-0.306 1.248 0.072 2.472-0.269 3.589-0.958 1.442-0.887 2.032-2.456 2.009-4.16-0.023-1.703-0.666-3.533-1.686-4.897-0.365-0.49-0.511-0.858-0.503-1.143 0.008-0.285 0.192-0.473 0.419-0.539 0.056-0.016 0.115-0.027 0.176-0.032 0.045-0.004 0.092-0.005 0.138-0.002z" stroke-width="0.5" stroke="#000000" id="path_16"/><path fill="url(#gradient_1)" d="M102.976 127.359c-0.983 0-0.983 1.469 0 1.469s0.995-1.469 0-1.469" stroke-width="0.5" stroke="#000000" id="path_17"/><path fill="url(#gradient_2)" d="M104.817 127.268c-0.983 0-0.983 1.469 0 1.469s0.996-1.469 0-1.469" stroke-width="0.5" stroke="#000000" id="path_18"/><path fill="url(#gradient_3)" d="M106.634 127.359c-0.983 0-0.983 1.469 0 1.469s0.995-1.469 0-1.469m-4.33 1.631c-0.983 0-0.983 1.465 0 1.465s0.995-1.465 0-1.465" stroke-width="0.5" stroke="#000000" id="path_19"/><path fill="url(#gradient_4)" d="M104.121 128.99c-0.983 0-0.983 1.465 0 1.465s0.995-1.465 0-1.465" stroke-width="0.5" stroke="#000000" id="path_20"/><path fill="url(#gradient_5)" d="M105.95 128.99c-0.983 0-0.983 1.465 0 1.465s0.995-1.465 0-1.465m-3.721 1.705c-0.983 0-0.983 1.468 0 1.468s0.996-1.468 0-1.468" stroke-width="0.5" stroke="#000000" id="path_21"/><path fill="url(#gradient_6)" d="M103.946 130.631c-0.983 0-0.983 1.468 0 1.468s0.996-1.468 0-1.468" stroke-width="0.5" stroke="#000000" id="path_22"/><path fill="url(#gradient_7)" d="M105.775 130.631c-0.983 0-0.983 1.468 0 1.468s0.996-1.468 0-1.468m-3.284 1.806c-0.921 0-0.921 1.379 0 1.379 0.933 0 0.945-1.379 0-1.379" stroke-width="0.5" stroke="#000000" id="path_23"/><path fill="url(#gradient_8)" d="M104.208 132.437c-0.921 0-0.921 1.379 0 1.379 0.933 0 0.933-1.379 0-1.379" stroke-width="0.5" stroke="#000000" id="path_24"/><path fill="url(#gradient_9)" d="M105.937 132.437c-0.921 0-0.921 1.379 0 1.379 0.933 0 0.946-1.379 0-1.379m-3.08 1.8c-0.884 0.035-0.821 1.357 0.062 1.319 0.883-0.039 0.834-1.37-0.062-1.319" stroke-width="0.5" stroke="#000000" id="path_25"/><path fill="url(#gradient_10)" d="M104.419 134.052c-0.883 0.038-0.821 1.357 0.063 1.318 0.883-0.035 0.833-1.353-0.063-1.318" stroke-width="0.5" stroke="#000000" id="path_26"/><path fill="url(#gradient_11)" d="M106.074 133.978c-0.884 0.038-0.821 1.357 0.062 1.319 0.883-0.039 0.834-1.37-0.062-1.319m-2.588 1.803c-0.846 0.064-0.759 1.319 0.087 1.258 0.846-0.051 0.771-1.319-0.087-1.258" stroke-width="0.5" stroke="#000000" id="path_27"/><path fill="url(#gradient_12)" d="M104.917 135.583c-0.809 0.048-0.722 1.255 0.074 1.208 0.809-0.051 0.734-1.258-0.074-1.208m1.517-0.076c-0.647 0.038-0.584 1.023 0.063 0.972 0.647-0.039 0.597-1.007-0.063-0.972m-2.301 1.669c-0.809 0.048-0.722 1.255 0.074 1.207 0.809-0.051 0.734-1.258-0.074-1.207m1.381-0.325c-0.672 0.051-0.597 1.058 0.062 1.01 0.672-0.051 0.61-1.058-0.062-1.01m1.282-0.172c-0.56 0.023-0.498 0.87 0.049 0.832 0.56-0.026 0.511-0.87-0.049-0.832m-2.091 1.752c-0.734 0.163-0.485 1.271 0.249 1.096 0.734-0.163 0.485-1.255-0.249-1.096m1.22-0.484c-0.61 0.137-0.398 1.058 0.199 0.908 0.609-0.137 0.41-1.058-0.199-0.908m1.157-0.347c-0.511 0.111-0.336 0.882 0.174 0.758 0.51-0.112 0.336-0.882-0.174-0.758m-1.58 1.965c-0.648 0.223-0.299 1.207 0.348 0.971 0.647-0.226 0.311-1.207-0.348-0.971m1.069-0.586c-0.547 0.188-0.248 1.01 0.287 0.809 0.547-0.185 0.261-1.006-0.287-0.809m1.021-0.433c-0.448 0.146-0.212 0.831 0.236 0.669 0.448-0.16 0.212-0.844-0.236-0.669m-1.406 1.978c-0.573 0.261-0.175 1.118 0.398 0.844 0.572-0.249 0.174-1.106-0.398-0.844m0.921-0.625c-0.473 0.214-0.137 0.934 0.323 0.711 0.473-0.211 0.149-0.934-0.323-0.711m0.883-0.484c-0.398 0.188-0.112 0.771 0.274 0.596 0.398-0.185 0.124-0.783-0.274-0.596m-0.946 1.905c-0.473 0.236-0.099 0.956 0.361 0.707 0.473-0.235 0.112-0.955-0.361-0.707m0.759-0.561c-0.398 0.198-0.087 0.797 0.299 0.583 0.398-0.197 0.087-0.796-0.299-0.583m0.735-0.449c-0.324 0.175-0.062 0.66 0.248 0.488 0.324-0.163 0.075-0.673-0.248-0.488m-0.772 1.704c-0.411 0.262 0 0.886 0.398 0.612 0.411-0.261 0.013-0.886-0.398-0.612m0.635-0.569c-0.336 0.223 0 0.732 0.336 0.509 0.336-0.223 0-0.748-0.336-0.509m0.634-0.488c-0.286 0.188 0 0.611 0.274 0.424 0.286-0.185 0-0.609-0.274-0.424m-0.558 1.632c-0.41 0.274 0 0.883 0.399 0.609 0.41-0.262 0.012-0.883-0.399-0.609m0.635-0.562c-0.336 0.226 0 0.736 0.336 0.51 0.336-0.223 0-0.733-0.336-0.51m0.52-0.484c-0.286 0.188 0 0.609 0.274 0.424 0.286-0.188 0-0.624-0.274-0.424m0.1 1.108c-0.286 0.185 0 0.609 0.273 0.421 0.287-0.185 0-0.608-0.273-0.421m-0.498 0.523c-0.311 0.21 0 0.672 0.299 0.458 0.311-0.197 0-0.672-0.299-0.458m0.729 0.467c-0.274 0.172 0 0.596 0.274 0.411 0.274-0.188 0-0.599-0.274-0.411m-2.31-17.299c-0.647 0-0.647 0.971 0 0.971s0.659-0.971 0-0.971" stroke-width="0.5" stroke="#000000" id="path_28"/><path fill="#825123" d="M141.819 115.173c-0.139 0.008-0.281 0.043-0.412 0.098-0.232 0.098-0.435 0.265-0.507 0.497l-0.002 0.004c-2.045 5.675-0.952 8.094 0.865 11.766 2.625 5.288 0.712 13.166-5.151 16.61-2.883 1.685-5.106 2.26-6.808 2.686-0.851 0.213-1.574 0.389-2.185 0.651-0.59 0.253-1.198 0.705-1.583 1.229 0.589 0.048 1.551 0.21 2.022 0.349 0.686-0.872 2.412-1.674 4.197-2.281 1.786-0.608 3.649-1.04 4.659-1.24h0.002c3.287-0.953 6.351-3.092 8.66-5.81 2.444-2.877 3.693-6.816 3.211-10.765-0.109-0.904-0.468-1.457-0.98-1.757-0.512-0.3-1.16-0.352-1.846-0.306-1.249 0.072-2.472-0.269-3.589-0.958-1.442-0.887-2.032-2.456-2.009-4.16 0.023-1.703 0.666-3.533 1.686-4.897 0.364-0.49 0.51-0.858 0.503-1.143-0.008-0.285-0.193-0.473-0.419-0.539-0.056-0.016-0.116-0.027-0.176-0.032-0.045-0.004-0.092-0.005-0.138-0.002z" stroke-width="0.5" stroke="#000000" id="path_29"/><path fill="url(#gradient_13)" d="M147.024 127.359c0.983 0 0.983 1.469 0 1.469s-0.995-1.469 0-1.469" stroke-width="0.5" stroke="#000000" id="path_30"/><path fill="url(#gradient_14)" d="M145.183 127.268c0.983 0 0.983 1.469 0 1.469s-0.996-1.469 0-1.469" stroke-width="0.5" stroke="#000000" id="path_31"/><path fill="url(#gradient_15)" d="M143.366 127.359c0.983 0 0.983 1.469 0 1.469s-0.995-1.469 0-1.469m4.33 1.631c0.983 0 0.983 1.465 0 1.465s-0.995-1.465 0-1.465" stroke-width="0.5" stroke="#000000" id="path_32"/><path fill="url(#gradient_16)" d="M145.879 128.99c0.983 0 0.983 1.465 0 1.465s-0.995-1.465 0-1.465" stroke-width="0.5" stroke="#000000" id="path_33"/><path fill="url(#gradient_17)" d="M144.05 128.99c0.983 0 0.983 1.465 0 1.465s-0.995-1.465 0-1.465m3.721 1.705c0.983 0 0.983 1.468 0 1.468s-0.996-1.468 0-1.468" stroke-width="0.5" stroke="#000000" id="path_34"/><path fill="url(#gradient_18)" d="M146.054 130.631c0.983 0 0.983 1.468 0 1.468s-0.996-1.468 0-1.468" stroke-width="0.5" stroke="#000000" id="path_35"/><path fill="url(#gradient_19)" d="M144.224 130.631c0.983 0 0.983 1.468 0 1.468-0.982 0-0.995-1.468 0-1.468m3.285 1.806c0.921 0 0.921 1.379 0 1.379-0.933 0-0.945-1.379 0-1.379" stroke-width="0.5" stroke="#000000" id="path_36"/><path fill="url(#gradient_20)" d="M145.792 132.437c0.921 0 0.921 1.379 0 1.379-0.933 0-0.933-1.379 0-1.379" stroke-width="0.5" stroke="#000000" id="path_37"/><path fill="url(#gradient_21)" d="M144.063 132.437c0.921 0 0.921 1.379 0 1.379-0.933 0-0.946-1.379 0-1.379m3.08 1.8c0.883 0.035 0.821 1.357-0.062 1.319-0.884-0.039-0.834-1.37 0.062-1.319" stroke-width="0.5" stroke="#000000" id="path_38"/><path fill="url(#gradient_22)" d="M145.581 134.052c0.883 0.038 0.821 1.357-0.063 1.318-0.883-0.035-0.833-1.353 0.063-1.318" stroke-width="0.5" stroke="#000000" id="path_39"/><path fill="url(#gradient_23)" d="M143.926 133.978c0.883 0.038 0.821 1.357-0.062 1.319-0.884-0.039-0.834-1.37 0.062-1.319m2.588 1.803c0.846 0.064 0.759 1.319-0.087 1.258-0.846-0.051-0.772-1.319 0.087-1.258" stroke-width="0.5" stroke="#000000" id="path_40"/><path fill="url(#gradient_24)" d="M145.083 135.583c0.809 0.048 0.722 1.255-0.074 1.208-0.809-0.051-0.734-1.258 0.074-1.208m-1.517-0.076c0.647 0.038 0.584 1.023-0.063 0.972-0.647-0.039-0.597-1.007 0.063-0.972m2.301 1.669c0.809 0.048 0.722 1.255-0.074 1.207-0.809-0.051-0.735-1.258 0.074-1.207m-1.381-0.325c0.672 0.051 0.597 1.058-0.062 1.01-0.672-0.051-0.61-1.058 0.062-1.01m-1.282-0.172c0.56 0.023 0.498 0.87-0.05 0.832-0.56-0.026-0.51-0.87 0.05-0.832m2.091 1.752c0.734 0.163 0.485 1.271-0.249 1.096-0.734-0.163-0.485-1.255 0.249-1.096m-1.22-0.484c0.61 0.137 0.398 1.058-0.199 0.908-0.61-0.137-0.411-1.058 0.199-0.908m-1.157-0.347c0.511 0.111 0.336 0.882-0.174 0.758-0.51-0.112-0.336-0.882 0.174-0.758m1.58 1.965c0.647 0.223 0.299 1.207-0.348 0.971-0.647-0.226-0.311-1.207 0.348-0.971m-1.07-0.586c0.548 0.188 0.249 1.01-0.286 0.809-0.547-0.185-0.261-1.006 0.286-0.809m-1.02-0.433c0.448 0.146 0.212 0.831-0.236 0.669-0.448-0.16-0.212-0.844 0.236-0.669m1.406 1.978c0.573 0.261 0.175 1.118-0.398 0.844-0.572-0.249-0.174-1.106 0.398-0.844m-0.921-0.625c0.473 0.214 0.137 0.934-0.323 0.711-0.473-0.211-0.149-0.934 0.323-0.711m-0.883-0.484c0.398 0.188 0.112 0.771-0.274 0.596-0.398-0.185-0.124-0.783 0.274-0.596m0.945 1.905c0.473 0.236 0.1 0.956-0.36 0.707-0.473-0.235-0.112-0.955 0.36-0.707m-0.758-0.561c0.398 0.198 0.087 0.797-0.299 0.583-0.398-0.197-0.087-0.796 0.299-0.583m-0.735-0.449c0.324 0.175 0.062 0.66-0.249 0.488-0.323-0.163-0.074-0.673 0.249-0.488m0.772 1.704c0.41 0.262 0 0.886-0.398 0.612-0.411-0.261-0.013-0.886 0.398-0.612m-0.635-0.569c0.336 0.223 0 0.732-0.336 0.509-0.336-0.223 0-0.748 0.336-0.509m-0.634-0.488c0.286 0.188 0 0.611-0.274 0.424-0.286-0.185 0-0.609 0.274-0.424m0.557 1.632c0.411 0.274 0 0.883-0.398 0.609-0.41-0.262-0.012-0.883 0.398-0.609m-0.634-0.562c0.336 0.226 0 0.736-0.336 0.51-0.336-0.223 0-0.733 0.336-0.51m-0.521-0.484c0.287 0.188 0 0.609-0.273 0.424-0.287-0.188 0-0.624 0.273-0.424m-0.099 1.108c0.286 0.185 0 0.609-0.273 0.421-0.287-0.185 0-0.608 0.273-0.421m0.497 0.523c0.311 0.21 0 0.672-0.298 0.458-0.312-0.197 0-0.672 0.298-0.458m-0.728 0.467c0.274 0.172 0 0.596-0.274 0.411-0.274-0.188 0-0.599 0.274-0.411m2.31-17.299c0.647 0 0.647 0.971 0 0.971s-0.659-0.971 0-0.971" stroke-width="0.5" stroke="#000000" id="path_41"/><path fill="#89C5E3" d="M109.982 125.455c0.721-2.402 1.082-5.489 0.062-9.505 4.492-2.899 7.652-5.549 14.968-5.549 7.304 0 10.75 2.013 14.969 5.549-1.008 4.016-0.647 7.09 0.062 9.505h-30.086" stroke-width="0.5" stroke="#000000" id="path_42"/><path fill="#FCDD09" d="M113.401 119.607l-0.335 3.631h-0.01l-1.289-3.599 0.621 3.801-0.014 0.006-1.441-1.9 0.866 2.259-1.058-0.737 0.643 1.206-0.018 0.024-0.753-0.092 0.467 0.655c-0.095 0.264-0.146 0.548-0.146 0.844 0 0.013 0.003 0.026 0.004 0.04h4.975c0-0.014 0.004-0.027 0.004-0.04 0-0.297-0.051-0.583-0.147-0.847l0.98-0.941-1.233 0.431-0.03-0.046c0.189-0.233 2.045-2.516 1.968-2.516-0.078 0-2.345 1.945-2.425 2.013l-0.012-0.01 1.78-3.941-2.463 3.537-0.024-0.01 0.725-3.736-1.298 3.59-0.336-3.622h-0.001z" stroke-width="1" id="path_43"/><path fill="#0F47AF" d="M109.96 125.455c-0.398 1.331-0.895 2.465-1.331 3.433-1.132 2.552-1.368 8.486 2.812 12.681 6.209 6.208 10.937 3.707 13.314 7.09h0.485c2.376-3.383 7.104-0.882 13.314-7.09 4.18-4.195 3.956-10.129 2.812-12.681-0.423-0.958-0.934-2.102-1.332-3.433h-30.086" stroke-width="0.5" stroke="#000000" id="path_44"/><path fill="#FFFFFF" d="M119.049 119.743c-0.072-0.348-0.885-0.281-0.826-0.841-0.54-0.086-0.439-1.051 0.569-0.985 0.106-0.192 1.325-0.631 1.178-0.024 0.611-0.533 1.055-0.045 0.713 0.192 0.236 0.236 0.355 0.776-0.369 0.729 0.277 0.493-0.366 0.474-0.793 0.337 0.011 0.186-0.021 0.334-0.264 0.288-0.154 0.104-0.037 0.237-0.016 0.36l-0.192-0.056zm11.19 0.38c0.007-0.439-0.821-0.305-0.79-0.805-0.45-0.069-0.385-1 0.544-0.944-0.051-0.269 1.251-0.614 1.128-0.023 0.454-0.481 0.902-0.031 0.627 0.184 0.226 0.227 0.5 0.616-0.297 0.698 0.321 0.312-0.351 0.455-0.76 0.323 0.011 0.178-0.108 0.24-0.341 0.196-0.147 0.099 0.053 0.307 0.073 0.425l-0.184-0.054zm6.453 1.519c0.077-0.333-0.683-0.303-0.664-0.682-0.345-0.053-0.295-0.757 0.419-0.715-0.04-0.203 0.889-0.545 0.826-0.049 0.349-0.365 0.733 0.008 0.522 0.171 0.174 0.171 0.384 0.466-0.228 0.529 0.247 0.236-0.27 0.344-0.584 0.244 0.008 0.135-0.035 0.157-0.214 0.124-0.113 0.075 0.136 0.257 0.152 0.346l-0.229 0.032z" stroke-width="1" id="path_45"/><path fill="#509164" d="M134.099 127.98c0.187-0.971 0.985-1.866 1.073-2.624 0.074-0.685 0.212-0.972 0.61-1.692 0.399-0.723 0.561-1.057 0.649-1.557 0.124-0.647 0.61-0.784 0.835-0.125 0.212 0.66 0.635 2.316 0.86 2.702 0.212 0.385 0.436 0.92 0.399 1.181-0.038 0.262 0.287 0.36 0.474 0.548 0.187 0.175 0.211 0.784 0.76 1.306 0.548 0.523 1.159 0.895 1.67 1.156 0.461 1.036 0.773 2.603 0.698 4.393h-34.243c-0.012-0.471 0-0.933 0.025-1.379 3.042-0.784 4.176-2.787 5.46-2.65 0.698-0.972 1.546-2.017 2.132-2.552 0.698-0.634 2.069-3.16 2.418-4.705 0.349-1.529 0.86-2.35 1.246-2.264 0.387 0.089 0.549 0.162 1.01 1.545 0.636 1.901 1.072 2.127 1.558 3.494 0.424 1.185 1.31 3.309 2.668 4.418 0.848-0.634 1.82-1.344 2.132-1.841 0.262-0.437 0.661-1.109 1.134-1.43 0.212-0.634 0.486-1.768 0.711-2.042 0.212-0.249 0.299-0.497 0.324-0.934 0.012-0.436 0.349-1.356 0.81-2.127 0.461-0.758 1.072-1.007 1.346 0 0.262 1.009 0.873 3.124 1.446 4.443 0.237 0.548 0.674 1.628 1.633 2.762l0.104 0.122c0.019-0.034 0.039-0.059 0.058-0.148z" stroke-width="0.5" stroke="#000000" id="path_46"/><path fill="#034418" d="M130.174 131.562c-0.636-0.611-1.646-0.474-2.157-0.958-0.499-0.472-1.296-0.15-3.017-1.02-0.212-0.111-0.424-0.248-0.635-0.411-1.359-1.108-2.244-3.236-2.668-4.418-0.474-1.356-0.923-1.579-1.558-3.497-0.337-1.019-0.524-1.331-0.748-1.443 0.586 0.637 0.274 1.631 0.748 2.701 0.187 0.424-0.125 0.424-0.225 0.287-0.087-0.137-0.374-0.201-0.511-0.188 0.25 0.213 0.287 0.748 0.536 1.306 0.237 0.561-0.187 0.5 0.325 1.296 0.136 0.223 0.187 0.558-0.013 0.695-0.212 0.124-0.361-0.386-0.673-0.211 0.087 0.201 0.448 0.561 0.686 0.771 0.236 0.214 0.012 0.325-0.175 0.226-0.199-0.101-0.461-0.2-0.598-0.312 0 0.163 0.199 0.348 0.473 0.596 0.287 0.239 0.1 0.411-0.561 0.411 0.1 0.15 0.063 0.522-0.237 0.573 0.412 0.026 0.724 0.784 1.234 0.835 0.499 0.035 0.549 0.385 0.063 0.471-0.486 0.086-1.471-0.697-1.957-1.207-0.125 0.175-0.387 0.248-0.574 0.15-0.012 0.235 0.063 0.809 0.287 1.181-0.237-0.098-0.548-0.411-0.86-0.796-0.299-0.36-0.499 0.175-0.237 0.497 0.262 0.325 0.436 0.586 0.013 0.834-0.412 0.236-0.673 0.15-0.985-0.286-0.436 0.363-0.611 0.385-0.948 0.325 0 0.21-0.361 0.71-0.523 1.083-0.362 0.72 16.031 2.213 15.57 0.471" stroke-width="1" id="path_47"/><path fill="#034418" d="M141.964 131.673c-4.313-0.376-6.694-2.042-8.041-3.635-0.959-1.121-1.396-2.214-1.632-2.761-0.574-1.319-1.185-3.434-1.446-4.444-0.088-0.334-0.212-0.535-0.362-0.608-0.224-0.112-0.112 0.274 0.05 0.471 0.174 0.188 0.162 0.363-0.062 0.226-0.225-0.124-0.337 0.125-0.125 0.434 0.199 0.299 0.511 0.649 0.573 0.984 0.063 0.325 0.088 0.608 0.249 0.771 0.15 0.162-0.411 0.2-0.648-0.185-0.012 0.248 0.063 0.608 0.225 0.57 0.149-0.025 0.199 0.112-0.013 0.487-0.212 0.36-0.187 0.485-0.112 0.647 0.112 0.248 0.399-0.736 0.574-0.175 0.087 0.261 0.236 0.586 0.373 0.796 0.138 0.201 0.125 0.325-0.074 0.325-0.2 0-0.374-0.5-0.399-0.076-0.013 0.41 0.312 0.547 0.648 0.522 0.324-0.013 0.374 0.111 0.324 0.287-0.037 0.175 0.1 0.347 0.287 0.312 0.174-0.051 0.449 0.111 0.598 0.535 0.15 0.424-0.099 0.608-0.461 0.309-0.362-0.309-0.885-0.583-0.935-0.809-0.037-0.198-0.187 0.089-0.025 0.363 0.15 0.274 0.237 0.398 0.436 0.51 0.2 0.098-0.012 0.509-0.349 0.248-0.324-0.248-0.473-0.188-0.573 0.099-0.162 0.462-0.648 0.35-0.499 0.599 0.15 0.248 0.088 0.646-0.137 0.745-0.237 0.099-0.511-0.048-0.486-0.484-0.062 0.086-0.299 0.124-0.486 0.073-0.025 0.612-0.2 0.822-0.574 0.659-0.012 0.137-0.024 0.373-0.211 0.548 0.411-0.06 0.498 0.223 0.535 0.398 0.026 0.176 0.088 0.15 0.325 0.176 0.224 0.012 0.511 0.309 0.087 0.235-0.424-0.06-1.085 0.086-1.471-0.197 0.399 0.36 1.533 0.373 2.007 0.831 3.453 1.421 9.536 1.918 11.942 1.258 0.012-0.286-0.025-0.946-0.05-1.156" stroke-width="1" id="path_48"/><path fill="#034418" d="M136.956 121.589c0.1 0.048 0.2 0.185 0.287 0.398 0.212 0.66 0.635 2.313 0.86 2.698 0.212 0.386 0.436 0.921 0.399 1.182-0.038 0.261 0.287 0.363 0.474 0.548 0.187 0.175 0.211 0.783 0.76 1.306 0.549 0.522 1.159 0.898 1.67 1.159 0.312 0.695 0.549 1.628 0.648 2.724-1.47-0.112-3.315-0.548-4.238-0.959 0.037-0.137 0.037-0.309-0.012-0.57-0.063-0.261-0.013-0.462 0.261-0.711 0.275-0.248 0.187-0.672 0.038-0.907-0.15-0.223-0.137-0.36-0.013-0.497 0.113-0.124 0.113-0.351-0.149-0.599-0.275-0.249-0.088-0.51 0.062-0.733 0.15-0.226 0.374-0.611 0.212-1.108-0.162-0.484-0.411 0.111-0.611-0.073-0.125-0.128-0.199-0.364-0.062-0.561 0.137-0.188 0.05-0.548-0.112-0.822 0.361-0.099-0.25-1.156-0.349-1.605-0.1-0.449 0.112-0.672-0.125-0.847" stroke-width="1" id="path_49"/><path fill="#509164" d="M121.272 125.629c0 0.236-0.062 0.574-0.125 0.685 0.15 0.236 0.349 0.72 0.324 0.87 0.2-0.185 0.586-0.038 0.674 0.475 0.087 0.522 0.174 1.006 0.124 1.293 0.175 0.149 0.549 0.411 0.611 0.697 0.062 0.274 0.249 0.236 0.436 0.211 0.586-0.086 0.536 0.621 1.147 0.522 0.86-0.124 0.325 0.561 1.185 0.535 0.498-0.025 1.184 0.073 1.533 0.561 0.386-0.523 0.723-0.325 1.072-0.188 0.349 0.124 0.785 0.089 0.399-0.185-0.399-0.287-1.185-0.325-1.534-0.239-0.349 0.089-0.872 0.026-1.234-0.296-0.349-0.325-0.96-0.599-1.334-0.612-0.374-0.012-0.461-0.035-0.747-0.458-0.275-0.411-0.723-0.364-0.948-0.386-0.212-0.013-0.374-0.287-0.125-0.548 0.362-0.385-0.149-0.436 0.038-0.672 0.187-0.236 0.087-0.548-0.412-0.586-0.498-0.038-0.311-0.197-0.236-0.548 0.174-0.831-0.948-0.694-0.86-1.092m19.583 4.44c0.05-0.509-0.336-0.72-0.423-1.108-0.075-0.386-0.686-0.398-0.848-0.284 0.062 0.112 0 0.309-0.075 0.421-0.075 0.102-0.075 0.162 0.075 0.213 0.162 0.038 0.299 0.073 0.311 0.21 0.013 0.125 0.088 0.013 0.15-0.149 0.05-0.16 0.486 0.2 0.536 0.522 0.038 0.325 0.212 0.548 0.262 0.162m-2.007-0.535c0.075 0.188 0.349 0.449 0.498 0.449 0.15 0 0.374 0.112 0.412 0.287 0.025 0.15 0.149 0.36 0.312 0.385 0.162 0.026 0.074 0.15-0.125 0.137-0.212-0.012-0.536-0.137-0.561-0.286 0.075 0.312-0.025 0.449-0.225 0.223-0.187-0.211-0.286-0.51-0.535-0.548 0.187-0.035 0.212-0.086 0.124-0.274-0.075-0.185-0.012-0.682 0.1-0.373" stroke-width="1" id="path_50"/><path fill="#078930" d="M107.914 132.685c0.409-0.201 1.042-0.125 1.278 0.086 0.124-0.236 0.322-0.411 0.695-0.348 0.298-0.324 0.547-0.487 0.72-0.324 0.174-0.322 0.758-0.399 0.957-0.198 0.211-0.325 0.633-0.475 0.919-0.299 0.372-0.488 1.03-0.66 1.428-0.411 0.348-0.261 0.745-0.21 0.919-0.038 0.174 0.162 0.546-0.172 0.695 0.136 0.261-0.06 0.758-0.073 0.857 0.201 0.062-0.15 0.286-0.239 0.41-0.124 0-0.573 0.41-1.01 0.981-0.873 0.273-0.411 0.745-0.583 0.969-0.436 0.236-0.236 0.72-0.073 0.931 0.213 0.46-0.013 0.683 0.198 0.919 0.609 0.236 0.41 0.919 0.659 1.354 0.474 0.435-0.162 0.832-0.213 0.981-0.013 0.261-0.235 0.547-0.175 0.72-0.012 0.298 0.261 0.584-0.201 0.758-0.026 0.273 0.287 0.522-0.261 1.006 0.026 0.472 0.286 1.403 0.72 2.124 0.72 0.72 0 1.291-0.883 1.751-0.262 0.459-0.309 1.155-0.458 1.639-0.197 0.286-0.261 0.944-0.347 1.204-0.099 0.261-0.398 0.758-0.637 1.18-0.5 0.236-0.408 1.18-0.471 1.466 0.102 0.236 0 0.608 0.21 0.608 0.471 0.236 0 0.609 0.15 0.609 0.424 0.261-0.064 0.583 0.099 0.633 0.411 0.522-0.038 0.944 0.175 1.18 0.608 0.174-0.149 0.074-0.535 0.472-0.608 0.397-0.064 0.522 0.06 0.633 0.197 0.435-0.321 1.044-0.283 1.553 0.176 0.372-0.15 0.72-0.086 0.832 0.098 0.161-0.149 0.422-0.184 0.683-0.184 0.012 0.844-0.062 1.764-0.249 2.71h-33.63c-0.174-0.92-0.248-1.841-0.236-2.688" stroke-width="0.5" stroke="#000000" id="path_51"/><path fill="#FFFFFF" d="M124.987 113.403l-0.336 1.083h-1.144l0.933 0.672-0.348 1.083 0.908-0.672 0.921 0.672-0.348-1.083 0.921-0.647h-1.132l-0.348-1.083m-4.357 0.335l-0.162 1.121-1.12 0.175 1.02 0.51-0.174 1.118 0.796-0.809 1.008 0.513-0.523-1.01 0.809-0.796-1.12 0.175-0.523-1.01m-4.241 1.071l0.012 1.134-1.083 0.36 1.095 0.338v1.131l0.647-0.933 1.083 0.338-0.684-0.911 0.66-0.921-1.083 0.363-0.684-0.911m-3.957 1.741l0.199 1.121-1.008 0.535 1.132 0.15 0.187 1.118 0.485-1.019 1.12 0.15-0.821-0.796 0.498-1.01-1.008 0.535-0.821-0.784m16.946-2.787l0.162 1.121 1.12 0.175-1.02 0.51 0.174 1.118-0.796-0.809-1.008 0.513 0.522-1.01-0.796-0.796 1.12 0.175 0.523-1.01m4.23 1.071l-0.012 1.134 1.082 0.36-1.095 0.338v1.131l-0.647-0.933-1.083 0.338 0.684-0.911-0.66-0.921 1.07 0.363 0.684-0.911m3.971 1.741l-0.199 1.121 1.008 0.535-1.132 0.15-0.186 1.118-0.485-1.019-1.12 0.15 0.821-0.796-0.498-1.01 1.008 0.535 0.821-0.784m-14.259 15.915c0.286-0.249 0.946 0.312 1.356 0.076-0.249 0.806-1.244 0.172-1.356 0.472v-0.548" stroke-width="1" id="path_52"/><path fill="none" fill-rule="evenodd" d="M123.346 132.465c0.286-0.249 0.946 0.312 1.356 0.076-0.249 0.806-1.244 0.172-1.356 0.472v-0.548" stroke-width="0.5" stroke="#000000" stroke-linecap="round" stroke-linejoin="round" id="path_53"/><path fill="#FFFFFF" d="M126.171 132.49c0.286-0.248 0.945 0.313 1.356 0.074-0.262 0.809-1.244 0.175-1.356 0.474v-0.548" stroke-width="1" id="path_54"/><path fill="none" fill-rule="evenodd" d="M126.171 132.49c0.286-0.248 0.945 0.313 1.356 0.074-0.262 0.809-1.244 0.175-1.356 0.474v-0.548" stroke-width="0.5" stroke="#000000" stroke-linecap="round" stroke-linejoin="round" id="path_55"/><path fill="#FFFFFF" d="M128.821 132.949c0.286-0.248 0.946 0.312 1.356 0.064-0.261 0.809-1.244 0.175-1.356 0.471v-0.544" stroke-width="1" id="path_56"/><path fill="none" fill-rule="evenodd" d="M128.821 132.949c0.286-0.248 0.946 0.312 1.356 0.064-0.261 0.809-1.244 0.175-1.356 0.471v-0.544 0.009z" stroke-width="0.5" stroke="#000000" stroke-linecap="round" stroke-linejoin="round" id="path_57"/><path fill="#704D25" d="M129.555 142.231c-0.287 0-0.647-0.134-0.747-0.36-0.211 0.201-1.095 0.312-1.443 0.013-0.237 0.2-0.971 0.337-1.344 0.099-0.298 0.261-1.182 0.238-1.642-0.035-0.187 0.197-0.722 0.347-1.008 0.372-0.411-0.586-1.518-1.519-2.215-1.866-0.784-0.386-2.352-1.134-3.185-1.494-0.486-0.211-0.933-0.574-0.013-0.175 0.983 0.423 2.564 1.057 3.634 1.532 1.53 0.672 7.639 0.573 8.647 0.484 0.522-0.035 1.219-0.433 1.704-0.733 0.374-0.226 0.386-0.089 0.025 0.099-0.398 0.21-0.833 0.373-1.144 0.809-0.424 0.586-1.008 0.847-1.232 1.233" stroke-width="1" id="path_58"/><path fill="#704D25" d="M129.555 142.231c-0.287 0-0.647-0.134-0.747-0.36-0.211 0.201-1.095 0.312-1.443 0.013-0.237 0.2-0.971 0.337-1.344 0.099-0.298 0.261-1.182 0.238-1.642-0.035-0.187 0.197-0.722 0.347-1.008 0.372-0.411-0.586-1.518-1.519-2.215-1.866-0.784-0.386-2.352-1.134-3.185-1.494-0.486-0.211-0.933-0.574-0.013-0.175 0.983 0.423 2.564 1.057 3.634 1.532 1.53 0.672 7.639 0.573 8.647 0.484 0.522-0.035 1.219-0.433 1.704-0.733 0.374-0.226 0.386-0.089 0.025 0.099-0.398 0.21-0.833 0.373-1.144 0.809-0.424 0.586-1.008 0.847-1.232 1.233l-0.038 0.022h0.001z" stroke-width="0.5" stroke="#000000" stroke-linecap="round" stroke-linejoin="round" id="path_59"/><path fill="#FFFFFF" d="M130.127 134.37l-1.978-0.214c-0.349 0.586-0.398 1.319-0.212 1.832 0.635-0.599 1.779-0.287 2.352 0.022-0.187-0.522-0.473-1.23-0.15-1.628" stroke-width="1" id="path_60"/><path fill="none" fill-rule="evenodd" d="M130.127 134.37l-1.978-0.214c-0.349 0.586-0.398 1.319-0.212 1.832 0.635-0.599 1.779-0.287 2.352 0.022-0.187-0.522-0.473-1.23-0.15-1.628l-0.012-0.012z" stroke-width="0.5" stroke="#000000" stroke-linecap="round" stroke-linejoin="round" id="path_61"/><path fill="#FFFFFF" d="M130.276 135.998c-0.584 0.012-1.978-0.023-2.413-0.023-0.473 0.609-0.212 1.529-0.1 1.879 0.523-0.834 2.178-0.388 2.812 0.211-0.323-0.612-0.572-1.134-0.286-2.077" stroke-width="1" id="path_62"/><path fill="none" fill-rule="evenodd" d="M130.276 135.998c-0.584 0.012-1.978-0.023-2.413-0.023-0.473 0.609-0.212 1.529-0.1 1.879 0.523-0.834 2.178-0.388 2.812 0.211-0.323-0.612-0.572-1.134-0.286-2.077l-0.013 0.009v0.001z" stroke-width="0.5" stroke="#000000" stroke-linecap="round" stroke-linejoin="round" id="path_63"/><path fill="#FFFFFF" d="M130.563 138.09c-0.573-0.102-2.414-0.226-2.787-0.325-0.299 0.621-0.548 1.43-0.672 2.204 0.896-0.984 2.974-0.261 3.409 0.695-0.435-0.822-0.871-2.064 0.062-2.574" stroke-width="1" id="path_64"/><path fill="none" fill-rule="evenodd" d="M130.563 138.09c-0.573-0.102-2.414-0.226-2.787-0.325-0.299 0.621-0.548 1.43-0.672 2.204 0.896-0.984 2.974-0.261 3.409 0.695-0.435-0.822-0.871-2.064 0.062-2.574h-0.012z" stroke-width="0.5" stroke="#000000" stroke-linecap="round" stroke-linejoin="round" id="path_65"/><path fill="#FFFFFF" d="M128.099 133.771l-2.613-0.347c-0.373 0.436-0.647 1.207-0.61 2.102 0.548-0.522 2.551-0.312 3.061 0.436-0.174-0.809-0.398-1.828 0.175-2.204" stroke-width="1" id="path_66"/><path fill="none" fill-rule="evenodd" d="M128.099 133.771l-2.613-0.347c-0.373 0.436-0.647 1.207-0.61 2.102 0.548-0.522 2.551-0.312 3.061 0.436-0.174-0.809-0.398-1.828 0.175-2.204l-0.013 0.013z" stroke-width="0.5" stroke="#000000" stroke-linecap="round" stroke-linejoin="round" id="path_67"/><path fill="#FFFFFF" d="M127.9 136.036l-2.899-0.385c-0.461 0.586-0.436 1.417-0.324 2.302 0.66-0.547 2.812-0.248 3.322 0.485-0.311-1.071-0.572-1.704-0.087-2.402" stroke-width="1" id="path_68"/><path fill="none" fill-rule="evenodd" d="M127.9 136.036l-2.899-0.385c-0.461 0.586-0.436 1.417-0.324 2.302 0.66-0.547 2.812-0.248 3.322 0.485-0.311-1.071-0.572-1.704-0.087-2.402H127.9z" stroke-width="0.5" stroke="#000000" stroke-linecap="round" stroke-linejoin="round" id="path_69"/><path fill="#FFFFFF" d="M127.987 138.437l-2.949-0.299c-0.46 0.573-0.771 1.159-0.672 2.016 0.461-0.758 2.414-0.21 3.248 0.634-0.498-0.659-0.548-1.605 0.373-2.351" stroke-width="1" id="path_70"/><path fill="none" fill-rule="evenodd" d="M127.987 138.437l-2.949-0.299c-0.46 0.573-0.771 1.159-0.672 2.016 0.461-0.758 2.414-0.21 3.248 0.634-0.498-0.659-0.548-1.605 0.373-2.351z" stroke-width="0.5" stroke="#000000" stroke-linecap="round" stroke-linejoin="round" id="path_71"/><path fill="#FFFFFF" d="M123.184 133.771c-0.324 0.248-0.821 1.108-0.896 1.344 0.548-0.223 1.705-0.287 2.427 0.249-0.212-0.411-0.287-1.131-0.1-1.431-0.286-0.124-1.045-0.188-1.418-0.149" stroke-width="1" id="path_72"/><path fill="none" fill-rule="evenodd" d="M123.184 133.771c-0.324 0.248-0.821 1.108-0.896 1.344 0.548-0.223 1.705-0.287 2.427 0.249-0.212-0.411-0.287-1.131-0.1-1.431-0.286-0.124-1.045-0.188-1.418-0.149l-0.013-0.013z" stroke-width="0.5" stroke="#000000" stroke-linecap="round" stroke-linejoin="round" id="path_73"/><path fill="#FFFFFF" d="M121.977 135.513c0.759-0.013 2.314 0.175 2.986 0.36-0.398 0.599-0.348 1.618-0.186 2.252-1.033-1.019-2.738-0.994-3.745-0.694 0.186-0.462 0.646-1.421 0.933-1.931" stroke-width="1" id="path_74"/><path fill="none" fill-rule="evenodd" d="M121.977 135.513c0.759-0.013 2.314 0.175 2.986 0.36-0.398 0.599-0.348 1.618-0.186 2.252-1.033-1.019-2.738-0.994-3.745-0.694 0.186-0.462 0.646-1.421 0.933-1.931l0.012 0.013z" stroke-width="0.5" stroke="#000000" stroke-linecap="round" stroke-linejoin="round" id="path_75"/><path fill="#FFFFFF" d="M124.988 138.352c-0.734 0.025-2.613-0.3-3.471-0.724-0.299 0.81-0.436 2.154-0.461 2.638 0.834-1.118 2.875-0.497 3.522 0.647-0.062-0.609-0.287-2.103 0.41-2.574" stroke-width="1" id="path_76"/><path fill="none" fill-rule="evenodd" d="M124.988 138.352c-0.734 0.025-2.613-0.3-3.471-0.724-0.299 0.81-0.436 2.154-0.461 2.638 0.834-1.118 2.875-0.497 3.522 0.647-0.062-0.609-0.287-2.103 0.41-2.574v0.013z" stroke-width="0.5" stroke="#000000" stroke-linecap="round" stroke-linejoin="round" id="path_77"/><path fill="#FFFFFF" d="M123.184 133.771c-2.066 1.245-3.633 3.759-4.218 5.501 0.585-0.013 1.319 0.175 1.58 0.697 0.61-2.503 1.468-4.816 2.638-6.211" stroke-width="1" id="path_78"/><path fill="none" fill-rule="evenodd" d="M123.184 133.771c-2.066 1.245-3.633 3.759-4.218 5.501 0.585-0.013 1.319 0.175 1.58 0.697 0.61-2.503 1.468-4.816 2.638-6.211v0.013zm0.062-1.207c-1.692 1.704-4.093 4.742-4.964 6.396" stroke-width="0.5" stroke="#000000" stroke-linecap="round" stroke-linejoin="round" id="path_79"/><path fill="#00009E" d="M132.576 138.414c-0.525 0.261-1.519-0.471-1.988-0.138v-0.29c0.455-0.318 1.45 0.414 1.988 0.138v0.304" stroke-width="1" id="path_80"/><path fill="#002B7F" d="M132.576 138.414c-0.525 0.261-1.519-0.471-1.988-0.138v-0.29c0.455-0.318 1.45 0.414 1.988 0.138v0.304-0.014z" stroke-width="1" id="path_81"/><path fill="#FFFFFF" d="M132.576 138.718c-0.525 0.261-1.519-0.471-1.988-0.153v-0.304c0.455-0.318 1.45 0.414 1.988 0.138v0.304" stroke-width="1" id="path_82"/><path fill="#FF0016" d="M132.576 139.022c-0.525 0.276-1.519-0.456-1.988-0.138v-0.304c0.455-0.318 1.45 0.414 1.988 0.152v0.29" stroke-width="1" id="path_83"/><path fill="#CE1126" d="M132.576 139.022c-0.525 0.276-1.519-0.456-1.988-0.138v-0.304c0.455-0.318 1.45 0.414 1.988 0.152v0.29" stroke-width="1" id="path_84"/><path fill="#FFFFFF" d="M132.576 139.326c-0.525 0.276-1.519-0.456-1.988-0.138v-0.304c0.455-0.304 1.45 0.413 1.988 0.138v0.304" stroke-width="1" id="path_85"/><path fill="#00009E" d="M132.576 139.616c-0.525 0.276-1.519-0.456-1.988-0.138v-0.304c0.455-0.318 1.45 0.414 1.988 0.138v0.29" stroke-width="1" id="path_86"/><path fill="#002B7F" d="M132.576 139.616c-0.525 0.276-1.519-0.456-1.988-0.138v-0.304c0.455-0.318 1.45 0.414 1.988 0.138v0.304z" stroke-width="1" id="path_87"/><path fill="#704D25" d="M126.488 126.414c-0.102 0-0.23-0.047-0.265-0.127-0.075 0.071-0.388 0.11-0.512 0.004-0.084 0.071-0.344 0.12-0.477 0.035-0.106 0.093-0.419 0.085-0.583-0.012-0.066 0.07-0.256 0.123-0.357 0.132-0.146-0.208-0.539-0.539-0.786-0.662-0.278-0.137-0.835-0.403-1.131-0.53-0.172-0.075-0.331-0.204-0.004-0.063 0.349 0.151 0.91 0.376 1.289 0.544 0.543 0.239 2.711 0.203 3.069 0.172 0.185-0.013 0.432-0.154 0.605-0.26 0.132-0.08 0.137-0.032 0.008 0.035-0.141 0.075-0.295 0.132-0.406 0.287-0.15 0.208-0.357 0.301-0.437 0.437" stroke-width="1" id="path_88"/><path fill="#704D25" d="M126.488 126.414c-0.102 0-0.23-0.047-0.265-0.127-0.075 0.071-0.388 0.11-0.512 0.004-0.084 0.071-0.344 0.12-0.477 0.035-0.106 0.093-0.419 0.085-0.583-0.012-0.066 0.07-0.256 0.123-0.357 0.132-0.146-0.208-0.539-0.539-0.786-0.662-0.278-0.137-0.835-0.403-1.131-0.53-0.172-0.075-0.331-0.204-0.004-0.063 0.349 0.151 0.91 0.376 1.289 0.544 0.543 0.239 2.711 0.203 3.069 0.172 0.185-0.013 0.432-0.154 0.605-0.26 0.132-0.08 0.137-0.032 0.008 0.035-0.141 0.075-0.295 0.132-0.406 0.287-0.15 0.208-0.357 0.301-0.437 0.437l-0.013 0.008z" stroke-width="0.5" stroke="#000000" stroke-linecap="round" stroke-linejoin="round" id="path_89"/><path fill="#FFFFFF" d="M126.691 123.625l-0.702-0.076c-0.124 0.208-0.141 0.468-0.075 0.65 0.225-0.213 0.631-0.102 0.835 0.008-0.067-0.186-0.168-0.436-0.053-0.578" stroke-width="1" id="path_90"/><path fill="none" fill-rule="evenodd" d="M126.691 123.625l-0.702-0.076c-0.124 0.208-0.141 0.468-0.075 0.65 0.225-0.213 0.631-0.102 0.835 0.008-0.067-0.186-0.168-0.436-0.053-0.578l-0.005-0.004z" stroke-width="0.5" stroke="#000000" stroke-linecap="round" stroke-linejoin="round" id="path_91"/><path fill="#FFFFFF" d="M126.744 124.202c-0.207 0.005-0.702-0.008-0.856-0.008-0.168 0.216-0.075 0.543-0.036 0.667 0.186-0.296 0.773-0.138 0.998 0.075-0.115-0.217-0.203-0.402-0.101-0.737" stroke-width="1" id="path_92"/><path fill="none" fill-rule="evenodd" d="M126.744 124.202c-0.207 0.005-0.702-0.008-0.856-0.008-0.168 0.216-0.075 0.543-0.036 0.667 0.186-0.296 0.773-0.138 0.998 0.075-0.115-0.217-0.203-0.402-0.101-0.737l-0.005 0.003z" stroke-width="0.5" stroke="#000000" stroke-linecap="round" stroke-linejoin="round" id="path_93"/><path fill="#FFFFFF" d="M126.846 124.945c-0.203-0.036-0.857-0.08-0.989-0.115-0.106 0.22-0.195 0.507-0.239 0.782 0.318-0.349 1.056-0.093 1.21 0.246-0.154-0.291-0.309-0.732 0.022-0.913" stroke-width="1" id="path_94"/><path fill="none" fill-rule="evenodd" d="M126.846 124.945c-0.203-0.036-0.857-0.08-0.989-0.115-0.106 0.22-0.195 0.507-0.239 0.782 0.318-0.349 1.056-0.093 1.21 0.246-0.154-0.291-0.309-0.732 0.022-0.913h-0.004z" stroke-width="0.5" stroke="#000000" stroke-linecap="round" stroke-linejoin="round" id="path_95"/><path fill="#FFFFFF" d="M125.972 123.412l-0.928-0.123c-0.132 0.155-0.229 0.428-0.216 0.746 0.194-0.185 0.905-0.111 1.086 0.155-0.062-0.287-0.141-0.649 0.062-0.782" stroke-width="1" id="path_96"/><path fill="none" fill-rule="evenodd" d="M125.972 123.412l-0.928-0.123c-0.132 0.155-0.229 0.428-0.216 0.746 0.194-0.185 0.905-0.111 1.086 0.155-0.062-0.287-0.141-0.649 0.062-0.782l-0.004 0.004z" stroke-width="0.5" stroke="#000000" stroke-linecap="round" stroke-linejoin="round" id="path_97"/><path fill="#FFFFFF" d="M125.901 124.216l-1.029-0.137c-0.163 0.208-0.155 0.503-0.115 0.817 0.234-0.194 0.998-0.088 1.179 0.172-0.11-0.38-0.203-0.604-0.031-0.852" stroke-width="1" id="path_98"/><path fill="none" fill-rule="evenodd" d="M125.901 124.216l-1.029-0.137c-0.163 0.208-0.155 0.503-0.115 0.817 0.234-0.194 0.998-0.088 1.179 0.172-0.11-0.38-0.203-0.604-0.031-0.852h-0.004z" stroke-width="0.5" stroke="#000000" stroke-linecap="round" stroke-linejoin="round" id="path_99"/><path fill="#FFFFFF" d="M125.932 125.068l-1.047-0.106c-0.163 0.203-0.273 0.411-0.238 0.715 0.163-0.269 0.856-0.074 1.152 0.225-0.176-0.234-0.194-0.569 0.133-0.834" stroke-width="1" id="path_100"/><path fill="none" fill-rule="evenodd" d="M125.932 125.068l-1.047-0.106c-0.163 0.203-0.273 0.411-0.238 0.715 0.163-0.269 0.856-0.074 1.152 0.225-0.176-0.234-0.194-0.569 0.133-0.834z" stroke-width="0.5" stroke="#000000" stroke-linecap="round" stroke-linejoin="round" id="path_101"/><path fill="#FFFFFF" d="M124.227 123.412c-0.114 0.088-0.291 0.394-0.318 0.477 0.195-0.079 0.605-0.101 0.861 0.088-0.075-0.145-0.101-0.401-0.035-0.507-0.101-0.044-0.371-0.067-0.503-0.053" stroke-width="1" id="path_102"/><path fill="none" fill-rule="evenodd" d="M124.227 123.412c-0.114 0.088-0.291 0.394-0.318 0.477 0.195-0.079 0.605-0.101 0.861 0.088-0.075-0.145-0.101-0.401-0.035-0.507-0.101-0.044-0.371-0.067-0.503-0.053l-0.005-0.005z" stroke-width="0.5" stroke="#000000" stroke-linecap="round" stroke-linejoin="round" id="path_103"/><path fill="#FFFFFF" d="M123.799 124.03c0.269-0.004 0.821 0.063 1.06 0.128-0.142 0.213-0.124 0.574-0.066 0.799-0.367-0.361-0.972-0.352-1.329-0.246 0.066-0.164 0.229-0.504 0.331-0.685" stroke-width="1" id="path_104"/><path fill="none" fill-rule="evenodd" d="M123.799 124.03c0.269-0.004 0.821 0.063 1.06 0.128-0.142 0.213-0.124 0.574-0.066 0.799-0.367-0.361-0.972-0.352-1.329-0.246 0.066-0.164 0.229-0.504 0.331-0.685l0.004 0.004z" stroke-width="0.5" stroke="#000000" stroke-linecap="round" stroke-linejoin="round" id="path_105"/><path fill="#FFFFFF" d="M124.868 125.038c-0.261 0.009-0.928-0.107-1.232-0.257-0.106 0.287-0.155 0.764-0.164 0.936 0.296-0.397 1.02-0.176 1.25 0.23-0.022-0.216-0.102-0.746 0.146-0.914" stroke-width="1" id="path_106"/><path fill="none" fill-rule="evenodd" d="M124.868 125.038c-0.261 0.009-0.928-0.107-1.232-0.257-0.106 0.287-0.155 0.764-0.164 0.936 0.296-0.397 1.02-0.176 1.25 0.23-0.022-0.216-0.102-0.746 0.146-0.914v0.005z" stroke-width="0.5" stroke="#000000" stroke-linecap="round" stroke-linejoin="round" id="path_107"/><path fill="#FFFFFF" d="M124.227 123.412c-0.733 0.442-1.289 1.334-1.496 1.952 0.207-0.004 0.468 0.062 0.56 0.248 0.217-0.889 0.521-1.709 0.936-2.204" stroke-width="1" id="path_108"/><path fill="none" fill-rule="evenodd" d="M124.227 123.412c-0.733 0.442-1.289 1.334-1.496 1.952 0.207-0.004 0.468 0.062 0.56 0.248 0.217-0.889 0.521-1.709 0.936-2.204v0.004zm0.022-0.428c-0.6 0.605-1.452 1.683-1.761 2.269" stroke-width="0.5" stroke="#000000" stroke-linecap="round" stroke-linejoin="round" id="path_109"/><path fill="none" fill-rule="evenodd" d="M139.974 115.95c-1.58 6.246 0.187 10.202 1.406 12.939 1.145 2.551 1.369 8.485-2.812 12.68-6.208 6.208-10.937 3.708-13.313 7.09m-0.51 0.013c-2.377-3.383-7.105-0.882-13.314-7.091-4.18-4.195-3.956-10.129-2.811-12.68 1.219-2.724 2.986-6.68 1.406-12.939" stroke-width="0.5" stroke="#000000" id="path_110"/><path fill="#89C5E3" d="M125.709 100.248c0.087 0.404 0.2 1.495-0.398 1.651 1.095 1.351 2.675 1.543 5.45 1.543 1.742 0 3.148-0.012 4.181 0 0 0.347-0.112 0.717-0.112 1.149 0 0.417 0.435 0.61 1.07 0.466 0.634-0.144 1.991-0.552 2.725 0.095 1.232 1.102 3.496 1.292 4.106 1.987-0.187-0.839-0.983-1.687-1.867-2.395 0.834-0.119 1.916-0.033 2.29 0.251-0.946-1.025-2.663-1.05-3.534-1.552s-1.705-0.946-2.352-1.115c0-0.285-0.037-0.514-0.286-0.68-0.548-0.383-1.618-0.514-2.489-0.563 0.125-0.132 0.15-0.288 0.15-0.527v-1.351c0-0.468 0.05-0.588-0.486-0.922-2.065-1.268-4.578-2.177-9.157-2.177-4.566 0-7.08 0.897-9.157 2.177-0.548 0.334-0.485 0.454-0.485 0.922v1.351c0 0.239 0.012 0.395 0.149 0.527-0.871 0.037-1.929 0.168-2.489 0.563-0.236 0.166-0.286 0.383-0.286 0.68-0.635 0.156-1.468 0.601-2.351 1.115-0.872 0.502-2.588 0.527-3.534 1.553 0.361-0.285 1.443-0.383 2.277-0.251-0.871 0.695-1.667 1.544-1.867 2.395 0.61-0.695 2.874-0.885 4.119-1.988 0.721-0.646 2.078-0.251 2.725-0.095 0.634 0.144 1.07-0.036 1.07-0.465 0-0.432-0.112-0.803-0.112-1.149 1.02-0.024 2.426 0 4.181 0 2.762 0 4.342-0.193 5.449-1.544-0.609-0.156-0.497-1.234-0.398-1.65-1.294-0.288-1.941-0.778-2.986-0.778-1.033 0-1.22 0.548-1.22 0.753v0.169c-0.821 0-1.978-0.206-2.264-0.745 1.593-0.646 3.957-1.231 7.204-1.231s5.611 0.585 7.204 1.231c-0.286 0.539-1.443 0.745-2.265 0.745v-0.169c0-0.193-0.174-0.753-1.219-0.753-1.045 0-1.692 0.477-2.986 0.778h-0.05v-0.001z" stroke-width="0.5" stroke="#000000" stroke-linecap="round" stroke-linejoin="round" id="path_111"/><path fill="none" fill-rule="evenodd" d="M115.034 103.464c-0.809 0.012-1.381 0.061-1.692 0.156-0.498 0.156-0.548 0.42-0.224 0.564m6.93-3.783v0.625c0 0.404 0.435 0.931 1.107 0.931 1.655 0 1.979-0.285 3.21-0.251" stroke-width="0.5" stroke="#000000" stroke-linecap="round" stroke-linejoin="round" id="path_112"/><path fill="none" fill-rule="evenodd" d="M124.353 101.672c-1.145-0.193-2.053-0.802-3.061-0.802-0.996 0-1.207 0.453-1.033 0.67m-7.564 0.824v1.232c0 0.337 0.236 0.802 1.132 0.624 0.784-0.144 1.294 0.034 1.294 0.371" stroke-width="0.5" stroke="#000000" stroke-linecap="round" stroke-linejoin="round" id="path_113"/><path fill="none" fill-rule="evenodd" d="M115.481 101.109c0.187 0.189 0.597 0.358 1.506 0.683 1.667 0.609 5.499 1.026 7.988-0.062m7.229-2.082c0.323 0.131 0.622 0.263 0.883 0.395 1.556 0.778 1.668 0.958 1.12 1.255m0.747 2.166c0.809 0.012 1.381 0.061 1.692 0.156 0.498 0.156 0.548 0.42 0.224 0.564m-6.943-3.783v0.625c0 0.404-0.435 0.931-1.107 0.931-1.655 0-1.979-0.285-3.21-0.251" stroke-width="0.5" stroke="#000000" stroke-linecap="round" stroke-linejoin="round" id="path_114"/><path fill="none" fill-rule="evenodd" d="M125.622 101.672c1.145-0.193 2.053-0.802 3.061-0.802 0.995 0 1.207 0.453 1.021 0.67m7.577 0.824v1.232c0 0.337-0.237 0.802-1.133 0.624-0.784-0.144-1.294 0.034-1.294 0.371" stroke-width="0.5" stroke="#000000" stroke-linecap="round" stroke-linejoin="round" id="path_115"/><path fill="none" fill-rule="evenodd" d="M134.494 101.109c-0.187 0.189-0.597 0.358-1.506 0.683-1.667 0.609-5.499 1.026-7.988-0.062" stroke-width="0.5" stroke="#000000" stroke-linecap="round" stroke-linejoin="round" id="path_116"/><path fill="#89C5E3" d="M124.987 101.957c0.759 0 0.784-0.573 0.784-1.1 0-0.514-0.025-1.09-0.784-1.09s-0.784 0.576-0.784 1.09c0 0.515 0.025 1.1 0.784 1.1z" stroke-width="0.5" stroke="#000000" stroke-linecap="round" stroke-linejoin="round" id="path_117"/><path fill="none" fill-rule="evenodd" d="M117.826 99.649c-0.331 0.131-0.637 0.263-0.904 0.394-1.592 0.777-1.707 0.958-1.146 1.254" stroke-width="0.5" stroke="#000000" stroke-linecap="round" stroke-linejoin="round" id="path_118"/><path fill="#078930" d="M123.171 110.039c1.045-0.672 2.339-1.803 2.812-2.551 0.647-1.045 0.734-0.535 1.232-0.621-1.17 1.28-2.626 2.65-3.658 3.373l-0.386-0.201m-8.747 2.513c-2.613-1.481-3.609 0.064-4.218 0.137 0.721 0.175 1.331 1.332 4.218-0.137z" stroke-width="0.5" stroke="#000000" id="path_119"/><path fill="#078930" d="M115.593 111.695c-2.488-1.681-3.595-0.213-4.218-0.175 0.709 0.223 1.232 1.43 4.218 0.175z" stroke-width="0.5" stroke="#000000" id="path_120"/><path fill="#078930" d="M117.373 110.698c-2.452-1.729-3.596-0.286-4.219-0.261 0.71 0.248 1.195 1.443 4.219 0.261z" stroke-width="0.5" stroke="#000000" id="path_121"/><path fill="#078930" d="M118.841 109.816c-2.252-1.991-3.546-0.672-4.156-0.723 0.672 0.325 1.033 1.567 4.156 0.723z" stroke-width="0.5" stroke="#000000" id="path_122"/><path fill="#078930" d="M120.719 109.17c-2.152-2.106-3.508-0.848-4.118-0.934 0.659 0.348 0.958 1.628 4.118 0.934z" stroke-width="0.5" stroke="#000000" id="path_123"/><path fill="#078930" d="M122.686 108.956c-1.78-2.414-3.322-1.405-3.919-1.58 0.584 0.462 0.671 1.755 3.919 1.58z" stroke-width="0.5" stroke="#000000" id="path_124"/><path fill="#078930" d="M123.009 109.055c-0.087-0.545-1.107-1.242-1.194-1.504 0.261-0.025 0.298-0.337 0.187-0.449-0.088-0.086-0.299-0.038-0.411 0.077-0.112 0.137-0.224 0.458 0.137 0.732 0.373 0.274 0.846 0.771 0.995 1.144" stroke-width="0.5" stroke="#000000" id="path_125"/><path fill="#078930" d="M120.446 108.147c0.746 0.076 1.518 0.548 2.103 0.735" stroke-width="0.5" stroke="#000000" stroke-linecap="round" stroke-linejoin="round" id="path_126"/><path fill="#078930" d="M126.816 110.039c-1.045-0.672-2.339-1.803-2.812-2.551-0.646-1.045-0.734-0.535-1.231-0.621 1.169 1.28 2.625 2.65 3.658 3.373l0.385-0.201m8.748 2.513c2.612-1.481 3.608 0.064 4.218 0.137-0.722 0.175-1.332 1.332-4.218-0.137z" stroke-width="0.5" stroke="#000000" id="path_127"/><path fill="#078930" d="M134.394 111.695c2.489-1.681 3.596-0.213 4.218-0.175-0.709 0.223-1.232 1.43-4.218 0.175z" stroke-width="0.5" stroke="#000000" id="path_128"/><path fill="#078930" d="M132.615 110.698c2.451-1.729 3.596-0.286 4.218-0.261-0.709 0.248-1.195 1.443-4.218 0.261z" stroke-width="0.5" stroke="#000000" id="path_129"/><path fill="#078930" d="M131.146 109.816c2.252-1.991 3.547-0.672 4.156-0.723-0.672 0.325-1.032 1.567-4.156 0.723z" stroke-width="0.5" stroke="#000000" id="path_130"/><path fill="#078930" d="M129.268 109.17c2.152-2.106 3.509-0.848 4.118-0.934-0.659 0.348-0.958 1.628-4.118 0.934z" stroke-width="0.5" stroke="#000000" id="path_131"/><path fill="#078930" d="M127.302 108.956c1.779-2.414 3.321-1.405 3.919-1.58-0.585 0.462-0.672 1.755-3.919 1.58z" stroke-width="0.5" stroke="#000000" id="path_132"/><path fill="#078930" d="M126.978 109.055c0.087-0.545 1.107-1.242 1.194-1.504-0.261-0.025-0.298-0.337-0.186-0.449 0.087-0.086 0.299-0.038 0.41 0.077 0.112 0.137 0.224 0.458-0.136 0.732-0.374 0.274-0.847 0.771-0.996 1.144" stroke-width="0.5" stroke="#000000" id="path_133"/><path fill="#078930" d="M129.542 108.147c-0.747 0.076-1.519 0.548-2.103 0.735" stroke-width="0.5" stroke="#000000" stroke-linecap="round" stroke-linejoin="round" id="path_134"/><path fill="#FFFFFF" d="M125.001 109.905c0.584 0 1.082 0 1.443-0.048v-0.835c0-0.274 0.97-0.598 2.439-0.312 5.748 1.121 6.532 3.721 10.9 5.215 0.049 0.012 0.211 0.063 0.398 0.098 0.112-0.261 0.236-0.522 0.373-0.844 0.075-0.239 0.709-0.226 1.269 0.035 0.647 0.312 0.933 0.672 0.822 0.86-0.113 0.274-0.225 0.497-0.324 0.72 1.02 0.363 2.874 0.911 2.264 3.361-0.472-0.459-1.617-0.959-2.326-0.959-0.809 0-1.68-0.309-1.406-1.195-0.15-0.073-0.411-0.21-0.548-0.235-0.025 0.076-0.062 0.149-0.099 0.223-0.187 0.462-0.996 0.624-1.805 0.35-4.554-1.554-5.96-4.991-11.335-5.039v0.15c0 0.433-0.56 0.831-2.065 0.831-1.493 0-2.065-0.398-2.065-0.831v-0.15c-5.363 0.035-6.782 3.472-11.336 5.039-0.796 0.274-1.605 0.099-1.804-0.35-0.025-0.074-0.062-0.147-0.099-0.223-0.137 0.025-0.399 0.162-0.548 0.235 0.261 0.873-0.585 1.195-1.406 1.195-0.709 0-1.841 0.5-2.326 0.959-0.61-2.437 1.219-2.985 2.264-3.361-0.1-0.223-0.199-0.446-0.324-0.72-0.099-0.188 0.175-0.548 0.821-0.86 0.56-0.274 1.182-0.286 1.27-0.035 0.137 0.309 0.249 0.57 0.373 0.844 0.187-0.035 0.336-0.086 0.398-0.098 4.355-1.494 5.151-4.094 10.9-5.215 1.456-0.286 2.439 0.038 2.439 0.312v0.835c0.36 0.035 0.858 0.048 1.443 0.048z" stroke-width="0.5" stroke="#000000" stroke-linecap="round" stroke-linejoin="round" id="path_135"/><path fill="#FFFFFF" d="M123.545 109.857c-0.386-0.039-0.61-0.125-0.61-0.274 0-0.373 0.61-0.249 0.61-0.561M108.9 113.95c0.224 0.535 0.51 1.22 0.771 1.803m-1.319-1.529c0.224 0.522 0.648 1.417 0.772 1.79" stroke-width="0.5" stroke="#000000" stroke-linecap="round" stroke-linejoin="round" id="path_136"/><path fill="none" fill-rule="evenodd" d="M107.32 114.087c0.149 0.261 0.933-0.125 1.032 0.124 0.088 0.261-0.149 0.398-0.696 0.596m1.767-1.628c0.111 0.335-0.672 0.472-0.511 0.771 0.1 0.197 0.536 0.137 0.884 0.06" stroke-width="0.5" stroke="#000000" stroke-linecap="round" stroke-linejoin="round" id="path_137"/><path fill="#FFFFFF" d="M126.456 109.857c0.373-0.039 0.61-0.125 0.61-0.274 0-0.373-0.61-0.249-0.61-0.561m14.645 4.928c-0.224 0.535-0.51 1.22-0.771 1.803m1.318-1.529c-0.224 0.522-0.647 1.417-0.771 1.79" stroke-width="0.5" stroke="#000000" stroke-linecap="round" stroke-linejoin="round" id="path_138"/><path fill="none" fill-rule="evenodd" d="M142.681 114.087c-0.149 0.261-0.933-0.125-1.032 0.124-0.087 0.261 0.149 0.398 0.696 0.596m-1.766-1.628c-0.112 0.335 0.672 0.472 0.51 0.771-0.1 0.197-0.535 0.137-0.884 0.06" stroke-width="0.5" stroke="#000000" stroke-linecap="round" stroke-linejoin="round" id="path_139"/><path fill="#000000" d="M111.379 115.757l-0.482-1.723 0.601-0.168c0.153-0.043 0.267-0.058 0.342-0.046 0.074 0.013 0.143 0.051 0.207 0.116 0.064 0.064 0.111 0.15 0.14 0.256 0.038 0.135 0.036 0.253-0.005 0.353-0.042 0.101-0.119 0.178-0.233 0.232 0.074 0.027 0.138 0.061 0.192 0.102 0.055 0.041 0.135 0.119 0.242 0.235l0.266 0.288-0.34 0.095-0.312-0.317c-0.112-0.115-0.186-0.186-0.223-0.212-0.036-0.027-0.07-0.043-0.104-0.047-0.033-0.005-0.083 0.002-0.149 0.021l-0.058 0.016 0.201 0.719-0.285 0.08zm0.007-1.074l0.211-0.059c0.129-0.036 0.21-0.065 0.242-0.086 0.032-0.022 0.054-0.052 0.067-0.093 0.012-0.041 0.01-0.09-0.006-0.147-0.015-0.055-0.038-0.096-0.07-0.123-0.031-0.027-0.067-0.042-0.108-0.044-0.029-0.001-0.108 0.017-0.235 0.052l-0.224 0.063 0.123 0.437zm1.577 0.611l-0.794-1.603 0.976-0.483 0.134 0.271-0.711 0.352 0.176 0.355 0.661-0.327 0.134 0.27-0.661 0.327 0.216 0.436 0.735-0.364 0.134 0.27zm1.291-0.681l-0.97-1.504 0.4-0.258c0.149-0.096 0.251-0.152 0.307-0.167 0.088-0.024 0.18-0.013 0.277 0.032 0.096 0.045 0.183 0.128 0.26 0.248 0.07 0.108 0.108 0.213 0.115 0.313 0.006 0.1-0.012 0.184-0.054 0.254-0.043 0.069-0.139 0.152-0.29 0.249l-0.163 0.106 0.366 0.567-0.248 0.16zm-0.557-1.41l0.275 0.427 0.137-0.088c0.092-0.06 0.151-0.107 0.176-0.141 0.025-0.035 0.037-0.076 0.036-0.123-0.001-0.048-0.017-0.096-0.049-0.145-0.032-0.05-0.07-0.085-0.114-0.105-0.044-0.02-0.085-0.026-0.125-0.017-0.04 0.009-0.111 0.047-0.215 0.114l-0.121 0.078zm0.668-0.779l0.242-0.169 0.556 0.794c0.086 0.124 0.145 0.202 0.177 0.235 0.056 0.057 0.116 0.09 0.181 0.097 0.065 0.007 0.131-0.013 0.197-0.059 0.056-0.039 0.093-0.083 0.111-0.133 0.018-0.05 0.018-0.101 0-0.155-0.018-0.053-0.078-0.153-0.18-0.299l-0.567-0.811 0.243-0.17 0.538 0.77c0.138 0.197 0.226 0.347 0.267 0.449 0.04 0.102 0.042 0.206 0.006 0.312-0.035 0.106-0.113 0.201-0.234 0.286-0.126 0.087-0.239 0.133-0.341 0.137-0.102 0.004-0.197-0.023-0.286-0.083-0.089-0.06-0.21-0.199-0.363-0.418l-0.547-0.783zm1.235-0.893l0.494-0.318c0.135-0.087 0.238-0.135 0.308-0.146 0.071-0.011 0.145 0.003 0.223 0.041 0.077 0.038 0.141 0.097 0.192 0.175 0.047 0.073 0.073 0.149 0.078 0.228 0.006 0.079-0.008 0.149-0.041 0.21 0.09-0.021 0.176-0.013 0.257 0.023 0.082 0.036 0.152 0.1 0.21 0.19 0.071 0.11 0.104 0.219 0.1 0.329-0.004 0.109-0.036 0.196-0.097 0.26-0.042 0.044-0.154 0.125-0.336 0.242l-0.419 0.27-0.969-1.504zm0.41 0.09l0.224 0.348 0.164-0.105c0.099-0.064 0.158-0.105 0.179-0.123 0.038-0.034 0.06-0.074 0.065-0.118 0.006-0.045-0.008-0.092-0.04-0.142-0.029-0.044-0.062-0.074-0.099-0.089-0.037-0.015-0.072-0.017-0.104-0.006-0.032 0.011-0.114 0.058-0.245 0.143l-0.144 0.092zm0.385 0.599l0.259 0.402 0.231-0.149c0.101-0.065 0.163-0.112 0.185-0.141 0.021-0.029 0.032-0.065 0.032-0.109-0.001-0.044-0.017-0.09-0.047-0.138-0.032-0.049-0.069-0.083-0.11-0.101-0.041-0.018-0.083-0.022-0.125-0.012-0.043 0.01-0.117 0.05-0.224 0.118l-0.201 0.13zm1.319 0.036l-0.82-1.574 0.262-0.136 0.68 1.307 0.654-0.341 0.139 0.267zm1.108-0.598l-0.692-1.65 0.272-0.114 0.692 1.65zm1.181-1.069l0.306 0.024c0.015 0.205-0.014 0.366-0.088 0.485-0.073 0.118-0.183 0.199-0.328 0.243-0.184 0.055-0.353 0.028-0.509-0.079-0.18-0.123-0.311-0.324-0.394-0.6-0.087-0.293-0.09-0.541-0.008-0.746 0.072-0.178 0.204-0.295 0.398-0.353 0.157-0.047 0.305-0.033 0.443 0.043 0.099 0.054 0.188 0.151 0.268 0.29l-0.256 0.166c-0.046-0.087-0.103-0.148-0.171-0.181-0.068-0.034-0.138-0.039-0.211-0.018-0.104 0.031-0.175 0.102-0.213 0.212-0.038 0.11-0.027 0.269 0.036 0.477 0.064 0.216 0.142 0.36 0.233 0.432 0.092 0.072 0.188 0.093 0.29 0.062 0.075-0.022 0.131-0.071 0.168-0.145 0.038-0.074 0.049-0.178 0.036-0.312zm1.931 0.219l-0.317 0.059-0.2-0.376-0.576 0.108-0.044 0.421-0.31 0.058 0.233-1.863 0.308-0.058 0.906 1.651zm-0.666-0.596l-0.32-0.615-0.074 0.689 0.394-0.074zm2.503-0.084l0.526 0.04c0.133 0.01 0.232 0.032 0.297 0.067 0.066 0.035 0.124 0.09 0.176 0.165 0.052 0.074 0.09 0.169 0.113 0.284 0.024 0.115 0.03 0.256 0.017 0.423-0.011 0.15-0.038 0.28-0.081 0.389-0.042 0.108-0.092 0.193-0.149 0.254-0.057 0.061-0.124 0.105-0.201 0.132-0.076 0.028-0.173 0.037-0.289 0.028l-0.541-0.041 0.132-1.741zm0.265 0.316l-0.088 1.153 0.216 0.017c0.093 0.007 0.161 0.003 0.204-0.011 0.042-0.014 0.079-0.038 0.108-0.071 0.029-0.034 0.055-0.088 0.078-0.162 0.023-0.075 0.04-0.174 0.049-0.299 0.01-0.129 0.009-0.231-0.003-0.307-0.012-0.076-0.036-0.136-0.07-0.182-0.034-0.046-0.078-0.077-0.131-0.095-0.039-0.013-0.117-0.024-0.233-0.033l-0.13-0.01zm1.239 1.513l-0.11-1.743 1.06-0.067 0.019 0.295-0.773 0.049 0.024 0.386 0.718-0.046 0.019 0.294-0.718 0.046 0.03 0.474 0.799-0.051 0.019 0.294zm3.23-1.668l0.281 0.126c-0.055 0.198-0.137 0.34-0.246 0.427-0.109 0.086-0.239 0.126-0.391 0.118-0.191-0.01-0.342-0.092-0.453-0.245-0.128-0.177-0.184-0.41-0.169-0.698 0.016-0.305 0.097-0.54 0.243-0.705 0.128-0.143 0.292-0.209 0.494-0.199 0.164 0.009 0.298 0.072 0.403 0.19 0.074 0.084 0.126 0.205 0.154 0.364l-0.297 0.07c-0.013-0.098-0.047-0.174-0.1-0.229-0.053-0.054-0.117-0.083-0.192-0.087-0.108-0.006-0.199 0.036-0.272 0.127-0.073 0.091-0.116 0.245-0.127 0.462-0.012 0.225 0.013 0.386 0.075 0.485 0.061 0.099 0.145 0.151 0.252 0.156 0.078 0.004 0.147-0.022 0.207-0.08s0.106-0.151 0.138-0.282zm0.66-0.162c0.051-0.207 0.123-0.37 0.217-0.489s0.199-0.199 0.314-0.24c0.115-0.041 0.243-0.045 0.383-0.01 0.204 0.05 0.351 0.169 0.441 0.356 0.09 0.187 0.1 0.425 0.029 0.712-0.071 0.291-0.195 0.502-0.371 0.632-0.155 0.115-0.335 0.147-0.54 0.097-0.206-0.051-0.351-0.162-0.435-0.335-0.096-0.197-0.109-0.438-0.038-0.723zm0.299 0.061c-0.049 0.2-0.048 0.359 0.003 0.478 0.051 0.119 0.133 0.192 0.245 0.219 0.113 0.028 0.219 0.001 0.318-0.079 0.098-0.081 0.173-0.224 0.223-0.43 0.05-0.201 0.05-0.359 0.002-0.473-0.049-0.115-0.131-0.186-0.248-0.215-0.117-0.029-0.224-0.003-0.322 0.076-0.097 0.079-0.171 0.22-0.221 0.424zm1.246 0.666l0.28 0.081c-0.06 0.224-0.006 0.371 0.16 0.441 0.082 0.035 0.156 0.041 0.222 0.018 0.065-0.023 0.111-0.066 0.138-0.13 0.016-0.038 0.022-0.073 0.016-0.106-0.005-0.033-0.021-0.065-0.048-0.097-0.026-0.031-0.096-0.094-0.209-0.188-0.101-0.085-0.17-0.159-0.206-0.223-0.036-0.064-0.056-0.137-0.06-0.217-0.003-0.081 0.012-0.16 0.044-0.237 0.038-0.09 0.093-0.162 0.165-0.216 0.071-0.055 0.15-0.085 0.238-0.092 0.087-0.006 0.184 0.014 0.289 0.058 0.159 0.068 0.265 0.163 0.317 0.287 0.053 0.124 0.048 0.268-0.015 0.43l-0.279-0.101c0.025-0.094 0.026-0.166 0.001-0.218-0.025-0.052-0.074-0.094-0.147-0.125-0.074-0.031-0.137-0.04-0.189-0.026-0.053 0.014-0.089 0.044-0.109 0.089-0.019 0.045-0.017 0.091 0.006 0.137 0.023 0.046 0.092 0.114 0.206 0.206 0.12 0.098 0.201 0.182 0.244 0.251 0.042 0.07 0.065 0.146 0.067 0.229 0.003 0.083-0.016 0.174-0.058 0.273-0.061 0.143-0.156 0.245-0.285 0.305-0.13 0.06-0.288 0.05-0.475-0.029-0.331-0.141-0.436-0.407-0.313-0.8zm1.378 1.283l0.724-1.298-0.381-0.212 0.147-0.264 1.018 0.568-0.147 0.264-0.379-0.212-0.724 1.298zm1.907 1.188l-0.269-0.177 0.115-0.41-0.49-0.321-0.323 0.273-0.264-0.172 1.459-1.184 0.262 0.172-0.49 1.819zm-0.068-0.891l0.196-0.666-0.531 0.446 0.335 0.22zm0.658 1.317l1.022-1.469 0.512 0.356c0.131 0.091 0.215 0.169 0.253 0.235 0.038 0.065 0.052 0.143 0.043 0.233-0.009 0.09-0.046 0.181-0.109 0.272-0.08 0.115-0.172 0.188-0.275 0.22-0.104 0.032-0.213 0.021-0.327-0.031 0.026 0.074 0.04 0.144 0.044 0.213 0.003 0.068-0.006 0.18-0.027 0.335l-0.053 0.389-0.29-0.202 0.046-0.442c0.017-0.16 0.024-0.262 0.022-0.307-0.003-0.045-0.013-0.081-0.031-0.11-0.018-0.029-0.054-0.062-0.111-0.101l-0.05-0.035-0.426 0.613-0.243-0.169zm0.832-0.679l0.181 0.126c0.11 0.076 0.183 0.12 0.22 0.131 0.037 0.012 0.075 0.009 0.114-0.007 0.039-0.017 0.076-0.049 0.11-0.098 0.032-0.047 0.049-0.091 0.05-0.132 0.001-0.042-0.011-0.079-0.035-0.112-0.018-0.023-0.081-0.073-0.19-0.148l-0.191-0.133-0.259 0.373zm0.378 1.514l0.985-1.494 0.247 0.163-0.985 1.494zm1.621 0.224l0.194 0.238c-0.138 0.152-0.275 0.242-0.411 0.27-0.137 0.029-0.271 0.005-0.403-0.07-0.166-0.095-0.264-0.236-0.294-0.423-0.034-0.215 0.02-0.448 0.164-0.699 0.151-0.265 0.33-0.438 0.535-0.52 0.178-0.07 0.354-0.055 0.529 0.045 0.143 0.081 0.235 0.198 0.275 0.351 0.029 0.108 0.02 0.24-0.026 0.394l-0.297-0.071c0.032-0.093 0.037-0.176 0.014-0.249-0.023-0.072-0.067-0.127-0.133-0.165-0.094-0.054-0.194-0.057-0.3-0.009-0.106 0.048-0.213 0.167-0.321 0.355-0.112 0.196-0.162 0.352-0.152 0.467 0.011 0.116 0.063 0.2 0.155 0.253 0.068 0.039 0.142 0.046 0.221 0.022 0.08-0.024 0.163-0.087 0.25-0.189zm1.387 1.297l-0.302-0.112 0.022-0.426-0.548-0.205-0.256 0.338-0.295-0.11 1.162-1.476 0.294 0.11-0.077 1.881zm-0.263-0.854l0.044-0.692-0.419 0.552 0.375 0.14zm-20.533-16.05l-0.249 0.112-0.24-0.268-0.452 0.204 0.049 0.355-0.243 0.11-0.183-1.579 0.242-0.109 1.076 1.175zm-0.667-0.356l-0.387-0.441 0.078 0.581 0.309-0.14zm0.792 0.318l-0.474-1.438 0.356-0.117 0.537 0.91-0.112-1.051 0.357-0.118 0.474 1.438-0.221 0.073-0.373-1.132 0.139 1.209-0.229 0.076-0.606-1.055 0.373 1.132zm1.382-0.438l-0.362-1.47 0.894-0.22 0.061 0.249-0.652 0.161 0.08 0.326 0.606-0.149 0.061 0.248-0.606 0.149 0.099 0.4 0.674-0.166 0.061 0.248zm1.125-0.27l-0.269-1.489 0.519-0.094c0.133-0.024 0.23-0.028 0.292-0.011 0.062 0.016 0.117 0.054 0.165 0.114 0.049 0.059 0.082 0.135 0.098 0.227 0.021 0.116 0.01 0.215-0.033 0.297-0.043 0.081-0.114 0.14-0.214 0.177 0.06 0.028 0.111 0.062 0.154 0.101 0.042 0.038 0.104 0.111 0.185 0.216l0.2 0.264-0.293 0.053-0.238-0.292c-0.085-0.105-0.142-0.171-0.17-0.196-0.029-0.025-0.057-0.041-0.085-0.048-0.027-0.006-0.07-0.004-0.127 0.006l-0.05 0.009 0.112 0.622-0.246 0.044zm0.091-0.904l0.183-0.033c0.111-0.02 0.182-0.038 0.21-0.053 0.029-0.015 0.05-0.04 0.064-0.073 0.013-0.033 0.016-0.074 0.007-0.124-0.009-0.047-0.025-0.084-0.049-0.109-0.025-0.025-0.054-0.041-0.088-0.046-0.025-0.003-0.092 0.005-0.203 0.025l-0.193 0.035 0.069 0.378zm2.359-0.002l0.251 0.07c-0.022 0.173-0.072 0.302-0.153 0.388-0.08 0.086-0.184 0.135-0.312 0.148-0.161 0.015-0.298-0.034-0.41-0.149-0.129-0.132-0.205-0.32-0.228-0.563-0.025-0.257 0.014-0.464 0.116-0.62 0.088-0.136 0.218-0.212 0.388-0.228 0.138-0.014 0.258 0.023 0.361 0.108 0.073 0.061 0.131 0.156 0.174 0.285l-0.239 0.096c-0.024-0.08-0.061-0.14-0.113-0.179-0.051-0.039-0.108-0.055-0.172-0.049-0.091 0.009-0.161 0.056-0.211 0.141-0.05 0.085-0.067 0.219-0.049 0.402 0.018 0.19 0.059 0.322 0.123 0.397 0.064 0.074 0.141 0.108 0.231 0.099 0.065-0.006 0.12-0.037 0.163-0.093 0.043-0.056 0.07-0.14 0.08-0.253zm1.627 0.473l-0.272 0.011-0.122-0.339-0.496 0.02-0.088 0.347-0.266 0.011 0.422-1.532 0.265-0.011 0.557 1.493zm-0.485-0.58l-0.193-0.554-0.146 0.568 0.339-0.014zm1.915 0.053l0.239 0.102c-0.043 0.168-0.11 0.29-0.201 0.365-0.091 0.075-0.201 0.111-0.329 0.106-0.162-0.005-0.291-0.072-0.387-0.2-0.111-0.147-0.162-0.343-0.154-0.588 0.009-0.258 0.074-0.458 0.195-0.6 0.105-0.123 0.243-0.182 0.414-0.176 0.139 0.005 0.254 0.056 0.344 0.154 0.065 0.07 0.11 0.172 0.136 0.306l-0.25 0.064c-0.013-0.083-0.042-0.147-0.088-0.192-0.045-0.045-0.1-0.069-0.164-0.071-0.092-0.003-0.168 0.034-0.228 0.112-0.061 0.078-0.094 0.209-0.1 0.392-0.007 0.191 0.017 0.327 0.071 0.41 0.053 0.082 0.125 0.125 0.215 0.128 0.066 0.002 0.124-0.021 0.174-0.071 0.05-0.05 0.088-0.13 0.113-0.241zm0.438 0.58l0.131-1.508 0.918 0.08-0.022 0.255-0.669-0.058-0.029 0.334 0.621 0.054-0.022 0.254-0.621-0.054-0.036 0.411 0.691 0.06-0.022 0.254zm1.154 0.105l0.214-1.499 0.241 0.034 0.36 1.073 0.143-1.001 0.231 0.033-0.214 1.499-0.249-0.036-0.355-1.048-0.14 0.977zm1.509 0.241l0.248-1.233-0.361-0.073 0.05-0.251 0.967 0.194-0.05 0.251-0.36-0.072-0.248 1.233zm0.767 0.158l0.387-1.463 0.51 0.135c0.131 0.034 0.22 0.072 0.269 0.113 0.049 0.041 0.083 0.099 0.102 0.173 0.019 0.074 0.016 0.157-0.008 0.247-0.03 0.115-0.082 0.2-0.155 0.255-0.074 0.056-0.163 0.079-0.269 0.07 0.042 0.051 0.074 0.103 0.096 0.156 0.022 0.054 0.048 0.145 0.076 0.275l0.07 0.324-0.288-0.076-0.092-0.365c-0.033-0.132-0.057-0.215-0.072-0.25-0.015-0.035-0.034-0.061-0.056-0.079-0.022-0.018-0.062-0.034-0.117-0.049l-0.05-0.013-0.162 0.611-0.241-0.064zm0.465-0.78l0.18 0.047c0.109 0.029 0.181 0.043 0.213 0.041 0.033-0.002 0.062-0.015 0.088-0.039 0.027-0.024 0.046-0.061 0.059-0.11 0.013-0.046 0.013-0.086 0.002-0.119s-0.031-0.06-0.06-0.079c-0.021-0.013-0.086-0.034-0.194-0.063l-0.19-0.05-0.098 0.372zm1.802 1.471l-0.258-0.088 0.009-0.361-0.469-0.161-0.208 0.292-0.252-0.086 0.949-1.275 0.251 0.086-0.022 1.593zm-0.242-0.716l0.021-0.587-0.342 0.477 0.321 0.11zm0.369 0.772l0.603-1.375 0.229 0.1-0.5 1.142 0.571 0.25-0.102 0.234z" stroke-width="1" id="path_140"/></svg>