<svg id="vector" xmlns="http://www.w3.org/2000/svg" width="32" height="16" viewBox="0 0 500 250"><path fill="#FFFFFF" d="M0 0h500v250H0z" stroke-width="1" id="path_0"/><path fill="#4E5B31" d="M241.959 211.142c-0.075-0.036-0.091-0.051-0.144-0.102l-0.053-0.049c-0.135-0.124-0.358-0.342-0.659-0.685-0.555-0.63-1.299-1.553-1.954-2.368-1.298-1.618-2.37-3.012-2.572-3.274l-0.331-0.43-3.236-0.998-2.363-1.102 1.263-1.419 4.336 1.856 3.236 0.665 5.985 4.401-0.005 0.004c-0.012 0.01-0.87 0.724-1.723 1.5-0.38 0.345-0.86 0.79-1.199 1.159-0.156 0.17-0.293 0.339-0.387 0.475-0.058 0.084-0.09 0.16-0.105 0.196l0.372-0.231 0.402 0.314-0.82 0.076-0.037 0.009-0.006 0.003zm-22.225-6.675c-2.824-0.001-5.613-0.781-8.289-2.32l-0.003-0.001 0.001-0.004s0.35-0.667 1.199-1.29c0.809-0.593 2.268-1.303 4.625-1.312h0.049c2.792 0 6.209 0.949 10.155 2.821-0.133 0.088-3.231 2.106-7.736 2.106l0.005 0.004-0.006-0.004zm-12.237-2.713c-0.522 0-0.992-0.197-1.321-0.555-0.271-0.294-0.464-0.686-0.593-1.199-0.21-0.841-0.152-1.677-0.146-1.757 0.219-0.092 0.443-0.143 0.651-0.148l0.047-0.001c1.046 0 1.87 0.908 2.224 1.807 0.2 0.512 0.239 0.942 0.114 1.278-0.125 0.338-0.517 0.571-0.975 0.571l-0.001 0.004zm21.533-2.495c-7.233-1.033-10.299-3.648-11.597-5.66-1.385-2.145-1.101-4.13-1.098-4.15l0.002-0.006 0.005-0.002c0.002 0 0.442-0.118 1.108-0.122 1.924 0 6.845 0.968 11.582 9.935l0.003 0.005-0.008-0.004 0.003 0.004zm-14.825-1.434c-3.09 0-5.443-0.533-6.993-1.585-0.89-0.604-1.326-1.268-1.535-1.719-0.196-0.422-0.241-0.773-0.248-0.842 0.082-0.038 1.347-0.6 3.236-0.688 0.159-0.007 0.32-0.012 0.489-0.012 2.388 0 6.02 0.779 9.852 4.491l0.004 0.004h-0.005c-1.75 0.23-3.366 0.35-4.804 0.35l0.004 0.001zm-14.963-0.575c-3.258 0-7.734-0.995-10.526-3.786l-0.003-0.003 0.009-0.002c0.029-0.008 3.059-0.777 6.468-0.86 0.203-0.005 0.407-0.008 0.614-0.008 3.055 0 5.393 0.593 6.951 1.761 0.544 0.408 0.841 0.787 0.907 1.159 0.056 0.311-0.108 0.646-0.44 0.896-0.701 0.53-1.955 0.812-3.727 0.841l-0.25 0.008-0.003-0.006zm-10.558-5.416c-0.401 0-0.778-0.178-1.033-0.487-0.211-0.256-0.357-0.59-0.461-1.051-0.175-0.77-0.122-1.523-0.122-1.53l0.001-0.008c0.151-0.072 0.321-0.11 0.507-0.114h0.001c0.482 0 0.85 0.262 1.079 0.482 0.305 0.294 0.555 0.685 0.703 1.102 0.152 0.429 0.177 0.788 0.075 1.098-0.083 0.246-0.367 0.504-0.75 0.504v0.004zm24.388-0.55c-0.522 0-0.992-0.198-1.321-0.556-0.271-0.294-0.464-0.686-0.593-1.199-0.21-0.841-0.152-1.677-0.146-1.757 0.219-0.092 0.443-0.143 0.651-0.148h0.047c1.046 0 1.87 0.907 2.224 1.807 0.2 0.511 0.239 0.941 0.114 1.278-0.125 0.341-0.521 0.57-0.975 0.57l-0.001 0.005zm-11.88-0.492c-6.557-0.231-9.96-2.095-11.66-3.618-0.957-0.858-1.489-1.708-1.766-2.27-0.262-0.53-0.361-0.937-0.379-1.015l0.009-0.004c0.001 0 0.621-0.222 1.619-0.241l0.153-0.002c2.212 0 6.713 0.929 12.022 7.147v0.004l0.002-0.001zm7.121-0.663c-5.275-0.803-8.264-3.068-9.842-4.827-1.655-1.843-2.15-3.561-2.172-3.641 0.009-0.002 0.654-0.17 1.625-0.195 0.07-0.002 0.143-0.003 0.218-0.003l0.23 0.003c2.654 0.058 7.473 1.26 9.94 8.66h0.004l-0.003 0.003zm-27.083-2.533c-1.729 0-3.406-0.2-4.984-0.595-2.762-0.69-3.947-1.745-4.455-2.508-0.288-0.434-0.393-0.814-0.429-1.056-0.036-0.232-0.017-0.416-0.013-0.447l0.013-0.005c0.007-0.001 1.833-0.514 4.36-0.553 0.099-0.002 0.2-0.003 0.302-0.003 1.219 0 2.42 0.117 3.568 0.346 4.39 0.878 6.667 4.192 6.689 4.225l0.002 0.004-0.006 0.001c-0.025 0.004-2.116 0.592-5.05 0.592l0.003-0.001zm12.246-4.45c-0.529 0-0.998-0.193-1.322-0.543-0.266-0.288-0.46-0.685-0.592-1.212-0.21-0.84-0.152-1.667-0.146-1.744 0.219-0.092 0.443-0.142 0.651-0.147l0.047-0.001c1.044 0 1.87 0.908 2.224 1.807 0.195 0.495 0.229 0.92 0.102 1.265-0.13 0.35-0.509 0.575-0.963 0.575h-0.001zm-9.209-1.262c-0.039-0.01-2.49-0.64-4.986-2.178-2.31-1.422-5.136-3.937-5.48-7.845v-0.002l0.006-0.002s0.215-0.052 0.532-0.064c0.044-0.002 0.091-0.003 0.139-0.003 0.69 0 2.103 0.194 3.812 1.494 2.175 1.658 4.183 4.55 5.979 8.604l-0.002-0.004zm6.013-0.221c-0.015-0.007-1.762-0.706-3.945-2.535-2.035-1.705-4.895-4.775-6.965-9.721 0.001-0.001 0.475-0.253 1.202-0.299 0.042-0.003 0.085-0.004 0.128-0.004 0.062 0 0.127 0.002 0.192 0.004 1.005 0.028 2.535 0.446 4.231 2.276 1.949 2.103 3.688 5.558 5.169 10.271l0.004 0.014-0.013-0.005-0.003-0.001zm-15.579-0.454c-2.009 0-2.696-1.09-2.899-1.559-0.332-0.77-0.232-1.537-0.231-1.544l0.001-0.009c0.325-0.081 0.669-0.126 1-0.131h0.068c1.583 0 2.833 0.804 3.369 1.6 0.106 0.158 0.432 0.706 0.162 1.134-0.216 0.338-0.708 0.509-1.471 0.509h0.001zm-4.45-5.613c-1.122 0-2.838-0.069-4.642-0.397-1.789-0.325-2.804-1.846-3.339-3.065-0.583-1.327-0.748-2.593-0.749-2.605h0.005c5.534 0.162 8.148 1.779 9.366 3.107 1.257 1.37 1.332 2.794 1.335 2.884h-0.003c-0.009 0-0.788 0.075-1.975 0.075l0.002 0.001zm5.762-5.758c-0.007-0.009-0.639-0.791-1.263-1.762-0.656-1.019-1.262-2.082-1.262-2.952 0-0.84-0.198-2.61-0.316-3.591-0.149-1.244-0.3-2.308-0.312-2.399l0.005 0.002c0.141 0.051 3.462 1.298 3.462 4.413 0 3.12-0.307 6.256-0.31 6.287l-0.001 0.005h-0.004l0.001-0.003zm-4.304-0.296c-0.035 0-0.069-0.003-0.104-0.009-0.982-0.164-2.707-0.914-4.614-2.007-2.117-1.215-3.837-2.515-4.841-3.663-0.916-1.047-1.46-2.691-1.617-4.886-0.111-1.558 0.022-2.856 0.036-2.985 0.172-0.057 0.354-0.085 0.548-0.085 0.735 0.012 1.52 0.343 2.579 1.073 0.825 0.569 1.735 1.342 2.704 2.297 1.672 1.649 2.987 3.305 3 3.322l0.013 0.016c0.11 0.198 1.057 1.905 1.794 3.566 0.469 1.055 0.737 1.815 0.844 2.394 0.061 0.33 0.079 0.546-0.002 0.742-0.034 0.082-0.098 0.157-0.16 0.187-0.059 0.025-0.117 0.037-0.184 0.037l0.004 0.001z" stroke-width="1" id="path_1"/><path fill="#4E5B31" d="M231.041 211.142c0.075-0.036 0.091-0.051 0.144-0.102l0.053-0.049c0.135-0.124 0.358-0.342 0.659-0.685 0.555-0.63 1.299-1.553 1.954-2.368 1.298-1.618 2.37-3.012 2.572-3.274l0.331-0.43 3.236-0.998 2.363-1.102-1.263-1.419-4.336 1.856-3.236 0.665-5.985 4.401 0.005 0.004c0.012 0.01 0.87 0.724 1.723 1.5 0.38 0.345 0.86 0.79 1.199 1.159 0.156 0.17 0.293 0.339 0.387 0.475 0.058 0.084 0.09 0.16 0.105 0.196l-0.372-0.231-0.402 0.314 0.82 0.076 0.037 0.009 0.006 0.003zm22.225-6.675c2.824-0.001 5.613-0.781 8.289-2.32l0.003-0.001-0.001-0.004s-0.35-0.667-1.199-1.29c-0.809-0.593-2.268-1.303-4.625-1.312h-0.049c-2.792 0-6.209 0.949-10.155 2.821 0.133 0.088 3.231 2.106 7.736 2.106l-0.005 0.004 0.006-0.004zm12.237-2.713c0.522 0 0.992-0.197 1.321-0.555 0.271-0.294 0.464-0.686 0.593-1.199 0.21-0.841 0.152-1.677 0.146-1.757-0.219-0.092-0.443-0.143-0.651-0.148l-0.047-0.001c-1.046 0-1.87 0.908-2.224 1.807-0.2 0.512-0.239 0.942-0.114 1.278 0.125 0.338 0.517 0.571 0.975 0.571l0.001 0.004zm-21.533-2.495c7.233-1.033 10.299-3.648 11.597-5.66 1.385-2.145 1.101-4.13 1.098-4.15l-0.002-0.006-0.005-0.002c-0.002 0-0.442-0.118-1.108-0.122-1.924 0-6.845 0.968-11.582 9.935l-0.003 0.005 0.008-0.004-0.003 0.004zm14.825-1.434c3.09 0 5.443-0.533 6.993-1.585 0.89-0.604 1.326-1.268 1.535-1.719 0.196-0.422 0.241-0.773 0.248-0.842-0.082-0.038-1.347-0.6-3.236-0.688-0.159-0.007-0.32-0.012-0.489-0.012-2.388 0-6.02 0.779-9.852 4.491l-0.004 0.004h0.005c1.75 0.23 3.366 0.35 4.804 0.35l-0.004 0.001zm14.963-0.575c3.258 0 7.734-0.995 10.526-3.786l0.003-0.003-0.009-0.002c-0.029-0.008-3.059-0.777-6.468-0.86-0.203-0.005-0.407-0.008-0.614-0.008-3.055 0-5.393 0.593-6.951 1.761-0.544 0.408-0.841 0.787-0.907 1.159-0.056 0.311 0.108 0.646 0.44 0.896 0.701 0.53 1.955 0.812 3.727 0.841l0.25 0.008 0.003-0.006zm10.558-5.416c0.401 0 0.778-0.178 1.033-0.487 0.211-0.256 0.357-0.59 0.461-1.051 0.175-0.77 0.122-1.523 0.122-1.53l-0.001-0.008c-0.151-0.072-0.321-0.11-0.507-0.114h-0.001c-0.482 0-0.85 0.262-1.079 0.482-0.305 0.294-0.555 0.685-0.703 1.102-0.152 0.429-0.177 0.788-0.075 1.098 0.083 0.246 0.367 0.504 0.75 0.504v0.004zm-24.388-0.55c0.522 0 0.992-0.198 1.321-0.556 0.271-0.294 0.464-0.686 0.593-1.199 0.21-0.841 0.152-1.677 0.146-1.757-0.219-0.092-0.443-0.143-0.651-0.148h-0.047c-1.046 0-1.87 0.907-2.224 1.807-0.2 0.511-0.239 0.941-0.114 1.278 0.125 0.341 0.521 0.57 0.975 0.57l0.001 0.005zm11.88-0.492c6.557-0.231 9.96-2.095 11.66-3.618 0.957-0.858 1.489-1.708 1.766-2.27 0.262-0.53 0.361-0.937 0.379-1.015l-0.009-0.004c-0.001 0-0.621-0.222-1.619-0.241l-0.153-0.002c-2.212 0-6.713 0.929-12.022 7.147v0.004l-0.002-0.001zm-7.121-0.663c5.275-0.803 8.264-3.068 9.842-4.827 1.655-1.843 2.15-3.561 2.172-3.641-0.009-0.002-0.654-0.17-1.625-0.195-0.07-0.002-0.143-0.003-0.218-0.003l-0.23 0.003c-2.654 0.058-7.473 1.26-9.94 8.66h-0.004l0.003 0.003zm27.083-2.533c1.729 0 3.406-0.2 4.984-0.595 2.762-0.69 3.947-1.745 4.455-2.508 0.288-0.434 0.393-0.814 0.429-1.056 0.036-0.232 0.017-0.416 0.013-0.447l-0.013-0.005c-0.007-0.001-1.833-0.514-4.36-0.553-0.099-0.002-0.2-0.003-0.302-0.003-1.219 0-2.42 0.117-3.568 0.346-4.39 0.878-6.667 4.192-6.689 4.225l-0.002 0.004 0.006 0.001c0.025 0.004 2.116 0.592 5.05 0.592l-0.003-0.001zm-12.246-4.45c0.529 0 0.998-0.193 1.322-0.543 0.266-0.288 0.46-0.685 0.592-1.212 0.21-0.84 0.152-1.667 0.146-1.744-0.219-0.092-0.443-0.142-0.651-0.147l-0.047-0.001c-1.044 0-1.87 0.908-2.224 1.807-0.195 0.495-0.229 0.92-0.102 1.265 0.13 0.35 0.509 0.575 0.963 0.575h0.001zm9.209-1.262c0.039-0.01 2.49-0.64 4.986-2.178 2.31-1.422 5.136-3.937 5.48-7.845v-0.002l-0.006-0.002s-0.215-0.052-0.532-0.064c-0.044-0.002-0.091-0.003-0.139-0.003-0.69 0-2.103 0.194-3.812 1.494-2.175 1.658-4.183 4.55-5.979 8.604l0.002-0.004zm-6.013-0.221c0.015-0.007 1.762-0.706 3.945-2.535 2.035-1.705 4.895-4.775 6.965-9.721-0.001-0.001-0.475-0.253-1.202-0.299-0.042-0.003-0.085-0.004-0.128-0.004-0.062 0-0.127 0.002-0.192 0.004-1.005 0.028-2.535 0.446-4.231 2.276-1.949 2.103-3.688 5.558-5.169 10.271l-0.004 0.014 0.013-0.005 0.003-0.001zm15.579-0.454c2.009 0 2.696-1.09 2.899-1.559 0.332-0.77 0.232-1.537 0.231-1.544l-0.001-0.009c-0.325-0.081-0.669-0.126-1-0.131h-0.068c-1.583 0-2.833 0.804-3.369 1.6-0.106 0.158-0.432 0.706-0.162 1.134 0.216 0.338 0.708 0.509 1.471 0.509h-0.001zm4.45-5.613c1.122 0 2.838-0.069 4.642-0.397 1.789-0.325 2.804-1.846 3.339-3.065 0.583-1.327 0.748-2.593 0.749-2.605h-0.005c-5.534 0.162-8.148 1.779-9.366 3.107-1.257 1.37-1.332 2.794-1.335 2.884h0.003c0.009 0 0.788 0.075 1.975 0.075l-0.002 0.001zm-5.762-5.758c0.007-0.009 0.639-0.791 1.263-1.762 0.656-1.019 1.262-2.082 1.262-2.952 0-0.84 0.198-2.61 0.316-3.591 0.149-1.244 0.3-2.308 0.312-2.399l-0.005 0.002c-0.141 0.051-3.462 1.298-3.462 4.413 0 3.12 0.307 6.256 0.31 6.287l0.001 0.005h0.004l-0.001-0.003zm4.304-0.296c0.035 0 0.069-0.003 0.104-0.009 0.982-0.164 2.707-0.914 4.614-2.007 2.117-1.215 3.837-2.515 4.841-3.663 0.916-1.047 1.46-2.691 1.617-4.886 0.111-1.558-0.022-2.856-0.036-2.985-0.172-0.057-0.354-0.085-0.548-0.085-0.735 0.012-1.52 0.343-2.579 1.073-0.825 0.569-1.735 1.342-2.704 2.297-1.672 1.649-2.987 3.305-3 3.322l-0.013 0.016c-0.11 0.198-1.057 1.905-1.794 3.566-0.469 1.055-0.737 1.815-0.844 2.394-0.061 0.33-0.079 0.546 0.002 0.742 0.034 0.082 0.098 0.157 0.16 0.187 0.059 0.025 0.117 0.037 0.184 0.037l-0.004 0.001z" stroke-width="1" id="path_2"/><path fill="#D57800" d="M351.972 43.319l-0.982 0.391-0.384 0.154-1.189-0.066-1.114 0.535-1.975 1.349-0.087 0.063-0.736 0.192-0.684-0.295-0.389 0.177-0.133 0.8-0.37 0.574-0.455 0.32-1.576 0.161-1.329 0.685-1.729-0.463-0.804 0.315-1.708 1.538-0.873 0.414-0.305-0.018-1.157-0.059-0.489 0.16-0.73 0.705-1.381 0.108-0.431 0.297-0.674 1.359-0.73 0.753-0.418 0.088-0.453-0.165-0.34 0.06-0.155 0.869-0.33 0.364-0.925 0.318-0.738 0.616-0.649 0.333-0.868-0.022h-0.2l-0.865 0.477-1.627 0.143-0.676 0.645-0.149 0.138-0.316 0.191-0.517 0.308-0.127 0.077-0.623-0.111-0.729 0.289-0.295-0.454-0.504 0.303-0.669 0.029-0.832-0.371-0.634-0.282-0.464 0.067-0.161 0.808-0.017 0.086-0.487 0.649-0.91 0.551-0.124 0.161-1.035 1.337-1.968 2.069-1.663 0.845-1.725 0.525-1.207 0.991-3.166 1.57-4.998 2.486-1.022 0.328-1.467 0.234-2.615 0.963-2.308 0.696-0.129 0.039-0.456 0.139-3.255 0.984-1.514-0.16-0.897 0.326-2.336-0.259-1.623 0.032-1.028 0.214-1.932 0.927-3.262 1.567-1.077 0.986-1.678 0.875-1.965 0.622 0.005-0.825-0.012-0.035-0.681 0.215-0.492 0.156-1.594 0.246h-0.887l-0.55-0.16-0.085 0.028-3.258 1.074-3.633 0.351-1.818 0.582-1.358-0.021-0.849 0.253-1.665 0.203-0.595-0.159-0.134-0.036-4.896 0.212-2.238-0.253-1.068 0.243-1.79-0.602-2.612-0.303-0.611-0.183-1.373-0.407-0.621 0.358-0.465 0.049-1.111-0.403-0.4-0.01-0.918 0.332-0.528-0.136-0.49-0.391-1.151-0.171-0.7-0.589-3.918 0.519-1.063-0.312-3.564-1.039-0.567 0.029-0.707 0.53-1.061 0.387-0.922 0.239-1.255 0.044-1.457-0.383-1.503-0.728-0.555-0.132-1.239 0.125-0.379 0.035-2.278-1.222-2.934-1.835-1.991-0.957-0.747-0.121-0.101 0.355 0.371 1.169 0.126 1.156-0.038 1.068-0.02 0.661 0.186 0.594 0.719 0.797 0.299 0.8 0.219 2.201-0.002 2.234-0.35 3.563-0.118 0.543-0.417 1.846-0.381 1.695-1.477 4.514-0.406 0.559-0.996 0.68-2.258 1.537-1.663 0.958-0.526 0.218-1.349 0.102-0.841-0.043-1.047-0.567-1.028-0.265-1.347-0.968-1.498-0.31-1.642-0.949L188.7 96.4l-0.895-0.084-1.24-0.372 0.001-0.003-0.455-0.136-0.315-0.091v-0.001l-1.581-0.043-1.475-0.681-0.777-0.188-1.061-0.053-1.111 0.516-0.001-0.002-0.563 0.262-0.711-0.282-0.514 0.032-0.583 0.881-0.087 0.137-0.402 0.212-0.5-0.007-0.391-0.01-0.424 0.185-0.57 0.247v0.001l-0.503 0.22-0.246 0.106-0.004-0.004-0.151 0.03-0.269 0.047-0.333 0.064-0.588-0.344-0.312-0.184-0.524-0.106-0.282 0.203-0.056 0.959-0.257 0.574-0.817 0.723-0.831 0.731-0.578 0.853-1.532 3.496-0.96 1.41-0.297 0.329-1.004 1.107-0.89 0.69-2.051 1.59-1.941 0.725-1.672 0.342-0.813 0.003-1.54-0.205-1.384-0.425-1.521-0.951-1.668-1.34-2.414-2.385-0.342-0.206-0.071-0.047-0.761-0.486-0.564 0.014-0.221 0.364-0.121 0.527-0.102 0.466-0.276 2.653 0.02 0.154 0.146 1.092 1.833 2.563 0.566 1.361 0.093 0.156 0.378 0.635 0.288 0.485 0.029 0.049 0.627 1.87-0.441 1.056 0.223 0.707-0.557 0.432-0.102 0.61 1.646 2.064 0.359 0.91-0.401 1.262-0.64 0.697-0.179 0.19 0.09 0.533 0.758 0.682 1.287 1.145 0.686 1.703 0.522 0.457 0.607-0.13 0.338 0.258 0.511-0.009 0.504 0.504 0.325 0.157 0.515 0.257 0.407 0.53 0.09 1.63 0.76 2.025 0.011 1.098 0.004 0.155 0.473 0.812 0.148 0.641-0.251 1.695 0.602 0.545 0.653-0.134 0.421 0.067 0.678 0.564 0.82 1.25 0.803-0.117 0.509 0.245 2.459 2.223 0.558 0.282 0.031 0.017 0.401 0.201 0.499 0.504 0.773-0.514 0.086-0.008 0.841-0.075 0.369 0.249 0.71 0.479 0.931-0.012 2.018 0.619 0.883 0.226 1.775 1.103 0.755 0.467 0.447 0.363 0.593 0.483 1.185 0.51 1.017 0.244 0.551 0.131 0.415 0.16 0.01-0.026 0.006 0.001-0.01 0.027 2.201 0.843 1.193 0.278 1.103 0.406 0.803 0.293 0.589 0.01 0.834-0.701 0.807-0.047 0.67 0.167 0.654-0.109 1.036-0.638 0.202-0.3 0.734-0.349 2.477-0.308 0.723 0.235 1.859-0.808 1.245 0.346 1.102-0.391 2.408 0.535 0.64 0.451 0.715 0.818 0.088 0.004 0.796 0.016-0.333 0.554 1.052 1.103 0.949 1.435 0.064 0.19 0.691 2.027 0.513 0.718 0.359 1.002 0.018 0.653-0.558 0.426-0.092 0.243-0.032 0.09 0.114 0.273 0.21-0.115 0.402-0.222 0.485-0.076 0.861 0.092 0.569 0.059 0.897-0.445 0.595-0.296 0.955 0.411 1.05-0.011 0.441 0.196 1.248 0.566 0.637 0.06 0.235-0.155 0.15-0.356-0.077-0.415-0.477-0.552-1.054-1.224-0.432-0.629-0.329-0.911-0.102-1.164-0.072-0.785 0.13-1.032 0.284-0.369 0.208-0.82h0.004l0.054-0.214 0.585-0.778 1.552-0.997 1.667-1.492 1.317-0.869 1.359-0.589 0.036-0.165 0.151 0.061 3.455-1.174 0.057-0.007 1.539-0.268 10.383 0.731 0.385-0.116 0.002-0.002 0.345-0.971 0.187-0.18 0.123-0.118 1.142-0.502 0.534-0.076 1.481 0.365 0.607 0.15 0.972-0.545 0.689 0.012 1.424-0.777 0.879 0.022 0.335-0.134 1.713-1.231 1.651-0.473 0.429-0.229 0.151-0.083 1.692-0.893 1.074-0.825 0.928-0.493 1.016-0.262 2.658-0.187 0.535-0.891 1.143-0.153 0.69-0.779 0.79-0.321 0.567-0.816 0.474-0.684 0.663-0.383 2.125-0.134 2.519 0.312 0.333-0.202 0.569-2.031 0.596-0.381 1.604-2.339 0.006-0.852 0.001-0.711 0.264-1.014-0.179-1.829 0.212-1.853 0.998-2.354 0.879-0.95 1.417-0.958 0.72-0.314 1.021-0.172v-0.002l0.15-0.026 0.26-0.044 3.513-0.049c0.049-0.036 1.278-0.017 1.278-0.017l1.172-0.016 2.964 0.528 0.211 0.036 1.002 0.325 1.156 0.899 1.223 1.195 0.23 0.223 0.792 0.333 0.24 0.105 0.654-0.105 0.933-0.485 0.703-0.595 0.959-0.523 0.023-0.034 0.54-0.811 0.016-0.017 0.011 0.003 0.002-0.005-0.009-0.002 0.212-0.323 1.853-0.722 2.18-0.127 0.245-0.132 0.136-0.073 0.576-0.676 0.539-0.005 1.306 0.473 0.919-0.182 0.729 0.291 0.567-0.067 1.068-0.127 1.148 0.808 0.669 0.085 2.357 1.379 0.123 0.02 0.063 0.012 0.135 0.022 0.28-0.083 0.415-0.12 0.055-0.017 0.053 0.073 0.268 0.378 0.367 0.052 0.435-0.58-0.173-0.263-0.065-0.096-0.842-0.172-0.756-1.292 0.72-0.776-1.13-1.386-0.187-0.229-0.064-0.098-0.391-0.593-1.977-3.014-2.576-2.057-0.001 0.002-0.902-0.722-0.006-0.004-0.316-0.248-1.375-1.399-0.983-1.304-0.129-0.281-0.203-0.443-0.588-1.282-1.026-0.79-0.836-0.913-0.041-0.054-1.725-2.344-0.283-0.393-0.408-0.235-0.86-0.006-0.082-0.082-0.048-0.05 0.029-0.031 0.413-0.411 0.46-0.115 0.199-0.454-0.879-2.543-0.005-0.089-0.066-0.813 0.716-3.689 0.092-0.45 1.22-2.482 0.756-0.62 0.825-1.621 0.706-1.037 0.677-0.659 0.119-0.07 1.222-0.74 1.027-0.145 0.979-0.138 1.707 0.527 1.626-0.032 0.317-0.033 0.737-0.085 1.213-0.382 0.573-0.353 0.297-0.456 0.62-2.078 0.199-0.661 0.382-0.718 2.211-2.545 1.671-1.546 3.758-2.755 1.839-1.1 0.94-0.561 8.385-3.728 2.18-2.209 1.135-1.149 2.009-1.348 2.35-0.963 2.023-1.6 0.441-0.556 0.557-1.793 0.464-0.112 0.418-0.906 0.12-0.258 1.65-1.163 0.187-0.093 6.411-3.212 0.932 0.128 0.499-0.747 1.865-0.313 0.344-0.059 0.46-0.229 0.391-0.667v-0.131l0.054-1.781 0.398-0.481 0.217-1.173 0.205-0.271 0.213-0.282 0.529-0.371-0.092-0.221 0.007 0.014z" stroke-width="1" id="path_3"/></svg>