<svg xmlns="http://www.w3.org/2000/svg" viewBox="0 0 32 16">
  <g fill="none" fill-rule="evenodd">
    <rect width="32" height="16" fill="#FFF"/>
    <g fill-rule="nonzero" transform="translate(11 4)">
      <path fill="#6DA544" d="M9.0434375,2.782625 C8.79996875,2.782625 8.4985,2.782625 7.99996875,2.782625 C7.99996875,4.703625 6.44265625,6.260875 4.52171875,6.260875 C2.6006875,6.260875 1.04346875,4.703625 1.04346875,2.782625 C0.70721875,2.782625 0.3361875,2.782625 -1.0658141e-14,2.782625 C-1.0658141e-14,4.85184375 1.389875,6.5964375 3.2870625,7.13371875 C3.0790625,7.52884375 3.11075,8.0263125 3.407875,8.39709375 C3.798125,8.0843125 4.20215625,7.76053125 4.54490625,7.48590625 C4.88765625,7.7605625 5.29171875,8.08434375 5.6819375,8.39709375 C5.982,8.022625 6.01153125,7.51884375 5.796625,7.1218125 C7.67303125,6.57134375 9.0434375,4.837125 9.0434375,2.782625 Z"/>
      <path fill="#D57800" d="M1.73909375,2.43478125 C1.73909375,2.43478125 1.73909375,4.17390625 3.47821875,4.17390625 L3.82603125,4.52171875 L4.5216875,4.52171875 C4.5216875,4.52171875 4.8695,3.47825 5.56515625,3.47825 C5.56515625,3.47825 5.56515625,2.78259375 6.2608125,2.78259375 C6.95646875,2.78259375 7.30428125,2.78259375 7.30428125,2.78259375 C7.30428125,2.78259375 6.95646875,1.39128125 8.69559375,0.3478125 L7.9999375,1.09245946e-13 C7.9999375,1.09245946e-13 5.56515625,1.739125 3.82603125,1.3913125 L3.82603125,2.08696875 L3.130375,2.08696875 L2.7825625,1.73915625 L1.73909375,2.43478125 Z"/>
    </g>
  </g>
</svg>
