<svg id="vector" xmlns="http://www.w3.org/2000/svg" width="24" height="24" viewBox="0 0 512 512"><path fill="#D80027" d="M256 512C397.385 512 512 397.385 512 256C512 114.615 397.385 0 256 0C114.615 0 0 114.615 0 256C0 397.385 114.615 512 256 512Z" id="path_0"/><path fill="#EEEEEE" d="M510.019 288C511.327 277.517 512 266.837 512 256C512 245.163 511.327 234.483 510.019 224H192V8.06494C169.295 13.9089 147.808 22.7895 128 34.2481V224H1.9806C0.673387 234.483 0 245.163 0 256C0 266.837 0.673387 277.517 1.9806 288H128V477.752C147.808 489.21 169.295 498.091 192 503.935V288H510.019Z" id="path_1"/></svg>