<svg xmlns="http://www.w3.org/2000/svg" viewBox="0 0 32 16">
  <g fill="none" fill-rule="evenodd">
    <rect width="32" height="16" fill="#FFF" transform="matrix(1 0 0 -1 0 16)"/>
    <rect width="16" height="16" fill="#006233" transform="matrix(1 0 0 -1 0 16)"/>
    <path fill="#D21034" fill-rule="nonzero" d="M20,6.0001808 C19.0297974,4.43245048 17.0518689,3.66811646 15.1775814,4.13664598 C13.3032939,4.6051755 12,6.18974095 12,8 C12,9.81025905 13.3032939,11.3948245 15.1775814,11.863354 C17.0518689,12.3318835 19.0297974,11.5675495 20,9.9998192 C19.0897945,11.0604154 17.5608885,11.4691039 16.1867495,11.0191307 C14.8126105,10.5691576 13.8929029,9.35865051 13.8929029,8 C13.8929029,6.64134949 14.8126105,5.43084238 16.1867495,4.98086926 C17.5608885,4.53089613 19.0897945,4.93958459 20,6.0001808 L20,6.0001808 Z M20,8 L16,6.76056338 L18.4888889,10 L18.4888889,6 L16,9.23943662 L20,8 Z"/>
  </g>
</svg>
