<svg xmlns="http://www.w3.org/2000/svg" viewBox="0 0 32 16">
  <g fill="none" fill-rule="evenodd">
    <rect width="32" height="16" fill="#FD0" transform="matrix(1 0 0 -1 0 16)"/>
    <rect width="32" height="4" y="12" fill="#ED1C24" transform="matrix(1 0 0 -1 0 28)"/>
    <rect width="32" height="4" y="8" fill="#034EA2" transform="matrix(1 0 0 -1 0 20)"/>
    <g fill-rule="nonzero" transform="translate(13 4)">
      <circle cx="2.783" cy="4.87" r="2.783" fill="#FFDA44"/>
      <path fill="#0052B4" d="M2.78265625,6.6086875 C1.8236875,6.6086875 1.04353125,5.8285 1.04353125,4.8695625 L1.04353125,3.82609375 C1.04353125,2.867125 1.82371875,2.08696875 2.78265625,2.08696875 C3.74159375,2.08696875 4.52178125,2.86715625 4.52178125,3.82609375 L4.52178125,4.8695625 C4.52178125,5.82853125 3.741625,6.6086875 2.78265625,6.6086875 Z"/>
      <path fill="#000" d="M5.56525,0.69565625 L3.47828125,0.69565625 C3.47828125,0.31146875 3.1668125,-8.68194405e-14 2.782625,-8.68194405e-14 C2.3984375,-8.68194405e-14 2.08696875,0.31146875 2.08696875,0.69565625 L-4.4408921e-15,0.69565625 C-4.4408921e-15,1.079875 0.33465625,1.3913125 0.7188125,1.3913125 L0.69565625,1.3913125 C0.69565625,1.77553125 1.00709375,2.08696875 1.3913125,2.08696875 C1.3913125,2.4711875 1.70275,2.782625 2.08696875,2.782625 L3.47828125,2.782625 C3.8625,2.782625 4.1739375,2.4711875 4.1739375,2.08696875 C4.55815625,2.08696875 4.86959375,1.77553125 4.86959375,1.3913125 L4.8464375,1.3913125 C5.230625,1.3913125 5.56525,1.07984375 5.56525,0.69565625 Z"/>
    </g>
  </g>
</svg>
