<svg width="32" height="16" viewBox="0 0 32 16" fill="none" xmlns="http://www.w3.org/2000/svg">
<rect width="32" height="8" fill="#FFDD00"/>
<rect y="8" width="32" height="4" fill="#034EA2"/>
<rect y="12" width="32" height="4" fill="#ED1C24"/>
<path d="M14.2012 7.39279L14.4322 7.62413L14.5313 7.35978L14.5644 7.19446C14.5313 6.73178 14.5644 6.2691 14.5644 6.2691L14.6307 6.33539L14.3662 6.07105L14.2012 5.90601V7.39279Z" fill="#034EA2"/>
<path d="M17.8525 7.39279L17.6215 7.62413L17.5224 7.35978L17.4893 7.19446C17.5224 6.73178 17.4893 6.2691 17.4893 6.2691L17.423 6.33539L17.6875 6.07105L17.8525 5.90601V7.39279Z" fill="#034EA2"/>
<path d="M14.5234 7.19451L14.7382 6.55021L14.5234 6.33545V7.19451Z" fill="#ED1C24"/>
<path d="M17.4229 7.19451L17.2081 6.55021L17.4229 6.33545V7.19451Z" fill="#ED1C24"/>
<path d="M14.2659 5.96625L14.4162 6.12297L13.6947 5.37019C13.6646 5.33857 13.6646 6.02894 13.6646 6.782L14.2659 7.40941V5.96625Z" fill="#FFDD00"/>
<path d="M14.4486 10.1051C13.9182 9.78853 13.8556 8.80677 13.8556 8.64833V6.93843L14.0119 7.09688L13.2626 6.33683C13.2002 6.27356 13.2626 8.39498 13.2626 9.31347C13.2626 9.7569 13.5436 11.3083 15.1042 10.5167C15.1042 10.5167 15.8845 10.2317 16.1342 9.88343H15.9782C15.9469 9.91507 15.9156 9.91507 15.8845 9.91507C14.9792 10.5483 14.4486 10.1051 14.4486 10.1051Z" fill="#FFDD00"/>
<path d="M13.8794 8.63811C13.8794 8.7634 13.9424 9.73338 14.4445 10.0459C14.4445 10.0459 14.9781 10.484 15.9197 9.88965C15.6371 10.0149 15.4175 10.0149 15.2604 9.98342C14.821 9.8584 14.3503 9.35778 14.2876 8.82591C14.2246 8.2943 14.2246 7.2928 14.2246 7.2928L14.2876 7.35558L14.0365 7.10527L13.8794 6.97998V8.63811Z" fill="#034EA2"/>
<path d="M14.4774 7.90429V7.48485C14.3853 7.38846 14.5079 7.51735 14.2625 7.25902L14.2012 7.19458V7.22708C14.2012 7.35597 14.2012 8.29123 14.2627 8.77511C14.324 9.32344 14.784 9.83954 15.2136 9.96843C15.3669 10.0009 15.5818 10.0009 15.8577 9.87204C15.8885 9.87204 15.8885 9.83954 15.9193 9.83954C15.0907 9.74288 14.5694 8.96872 14.4774 7.90429Z" fill="#ED1C24"/>
<path d="M17.5724 10.0735C18.0535 9.75684 18.1437 8.77502 18.1136 8.64848V6.93821L17.9633 7.09666L18.6846 6.33685C18.7449 6.2733 18.6846 8.39511 18.6846 9.31338C18.6846 9.75684 18.414 11.3084 16.9112 10.5167C16.9112 10.5167 16.1598 10.2319 15.9194 9.88338H16.0699C16.0998 9.88338 16.13 9.91502 16.13 9.91502C17.0617 10.5169 17.5724 10.0735 17.5724 10.0735Z" fill="#FFDD00"/>
<path d="M18.0672 8.65329C18.0672 8.7771 18.0075 9.73769 17.5318 10.0475C17.5318 10.0475 17.0265 10.4814 16.1343 9.89246C16.402 10.0165 16.6102 10.0165 16.7589 9.98558C17.1752 9.86151 17.621 9.36573 17.6807 8.839C17.7401 8.31254 17.7401 7.32099 17.7401 7.32099L17.6804 7.3829L17.9185 7.13501L18.0672 6.97998V8.65329Z" fill="#034EA2"/>
<path d="M17.5765 7.92297V7.49261L17.7911 7.26075L17.8524 7.19458V7.22766C17.8524 7.35999 17.8524 8.32024 17.7908 8.81705C17.7296 9.38003 17.3 9.90992 16.84 10.0753C16.6866 10.1087 16.4717 10.1087 16.1956 9.97637C16.1651 9.97637 16.1651 9.943 16.1343 9.943C16.9318 9.81067 17.4842 9.01583 17.5762 7.92297" fill="#ED1C24"/>
<path d="M14.5234 7.73143C14.5234 8.86185 15.2092 9.7717 16.0268 9.7717C16.8444 9.7717 17.5301 8.86185 17.5301 7.73143C17.5301 6.60101 16.8444 5.69116 16.0268 5.69116C15.2092 5.69116 14.5234 6.62858 14.5234 7.73143Z" fill="#8CDDEA"/>
<path d="M14.5234 7.83887C14.5234 8.96929 15.2092 9.87914 16.0268 9.87914C16.8708 9.87914 17.5301 8.96929 17.5301 7.83887H14.5234Z" fill="#6DD337"/>
<path d="M14.5234 7.89054L17.3791 7.9463L17.4055 7.72328C17.4055 7.69541 17.4584 7.66753 17.3791 7.66753C17.0618 7.63966 17.194 7.61178 17.0089 7.61178C16.956 7.61178 15.7397 7.30514 15.634 7.30514C15.5282 7.27726 14.5763 7.44452 14.5763 7.44452L14.5234 7.89054Z" fill="#557176"/>
<path d="M14.5234 7.39329L14.9798 7.59537C14.9798 7.59537 15.5704 7.47989 15.6241 7.50876C15.6778 7.53763 16.1879 7.62424 16.2147 7.62424H16.9932H16.9664C16.9127 7.59537 16.3221 7.42216 16.2684 7.39329C16.2416 7.36442 15.7852 7.19121 15.7583 7.13347C15.7046 7.07574 15.3825 6.87366 15.3288 6.87366C15.2751 6.84479 14.5234 7.39329 14.5234 7.39329Z" fill="white"/>
<path d="M16.6174 5.8767C16.6174 5.8767 16.3221 5.69116 15.9462 5.69116C15.6509 5.69116 15.3556 5.8502 15.3556 5.8502C15.0335 6.03574 14.765 6.38031 14.6039 6.80441C14.4966 7.09597 14.416 7.44055 14.416 7.78512C14.416 8.81885 14.9798 9.61402 15.7046 9.82607C15.7046 9.82607 15.812 9.87908 15.9462 9.87908C16.0804 9.87908 16.2147 9.85258 16.2147 9.85258C16.9395 9.66703 17.5301 8.84535 17.5301 7.81163C17.5301 6.45983 16.4831 5.77068 16.6174 5.8767ZM16.2415 9.72005C16.2415 9.72005 16.1073 9.74655 15.9731 9.74655C15.8388 9.74655 15.7046 9.72005 15.7046 9.72005C15.0603 9.53451 14.5502 8.76584 14.5502 7.83813C14.5502 7.52006 14.6308 7.17549 14.7382 6.91043C14.8992 6.53935 15.1408 6.22128 15.4361 6.06224C15.4361 6.06224 15.7315 5.8767 15.9731 5.8767C16.3221 5.8767 16.5905 6.06224 16.5905 6.06224C17.0737 6.35381 17.4227 7.04296 17.4227 7.81163C17.3959 8.76584 16.8858 9.56101 16.2415 9.72005Z" fill="#B1BABF"/>
<path d="M15.0846 7.74871L15.5358 8.399L14.8457 8.8231C14.8457 8.8231 14.8988 8.99275 15.0315 9.19066C15.1642 9.3603 15.4828 9.72786 15.7747 9.75613C16.0933 9.78441 16.3056 9.78441 16.4914 9.67131C16.6507 9.55822 16.8896 9.41685 17.0489 9.13411C17.2081 8.87965 17.2081 8.8231 17.2081 8.8231C17.2081 8.8231 16.1994 8.59692 16.1729 8.59692C16.1464 8.56864 15.1908 7.77698 15.1642 7.74871C15.1377 7.72043 15.3766 7.40942 15.3766 7.40942L15.0846 7.74871Z" fill="#034EA2"/>
<path d="M15.7046 10.094H16.3489V11.3826H15.7046V10.094Z" fill="#ED1C24"/>
<path d="M15.3569 10.2195H15.8652V11.5303H15.3569V10.2195Z" fill="#034EA2"/>
<path d="M16.1328 10.2195H16.6411V11.5303H16.1328V10.2195Z" fill="#034EA2"/>
<path d="M15.25 10.2195H15.571V11.0863H15.25V10.2195Z" fill="#FFDD00"/>
<path d="M16.4268 10.2195H16.7478V11.0863H16.4268V10.2195Z" fill="#FFDD00"/>
<path d="M14.9531 9.87915H17.1008V10.6308H14.9531V9.87915Z" fill="#594640"/>
<path d="M17.5303 4.40259C17.0471 4.40259 16.537 4.95484 16.0269 4.95484C15.5169 4.95484 15.0068 4.40259 14.5236 4.40259C14.0672 4.40259 12.2686 4.95484 12.2686 4.95484C14.7652 4.95484 16.0269 6.33547 16.0269 6.33547C16.0269 6.33547 17.2887 4.95484 19.7853 4.95484C19.7853 4.95484 17.9867 4.40259 17.5303 4.40259Z" fill="#594640"/>
<path d="M16.0267 5.36915C16.2047 5.36915 16.3489 5.22492 16.3489 5.047C16.3489 4.86908 16.2047 4.72485 16.0267 4.72485C15.8488 4.72485 15.7046 4.86908 15.7046 5.047C15.7046 5.22492 15.8488 5.36915 16.0267 5.36915Z" fill="#F9F9F9"/>
</svg>
