<svg xmlns="http://www.w3.org/2000/svg" viewBox="0 0 32 16">
  <g fill="none" fill-rule="evenodd">
    <rect width="32" height="16" fill="#FFC400" transform="matrix(1 0 0 -1 0 16)"/>
    <rect width="32" height="4" y="12" fill="#C60B1E" transform="matrix(1 0 0 -1 0 28)"/>
    <rect width="32" height="4" fill="#C60B1E" transform="matrix(1 0 0 -1 0 4)"/>
    <g transform="translate(4.275 5.425)">
      <rect width="1" height="4.5" x=".725" y="1.075" fill="#CCC"/>
      <rect width="1" height="4.5" x="6.725" y="1.075" fill="#CCC"/>
      <path fill="#000" fill-rule="nonzero" d="M1.72495315 1.075L1.72495315 5.575.724953147 5.575.724953147 1.075 1.72495315 1.075zM1.57495315 1.225L.874953147 1.225.874953147 5.425 1.57495315 5.425 1.57495315 1.225zM7.72495315 1.075L7.72495315 5.575 6.72495315 5.575 6.72495315 1.075 7.72495315 1.075zM7.57495315 1.225L6.87495315 1.225 6.87495315 5.425 7.57495315 5.425 7.57495315 1.225z"/>
      <polygon fill="#C7B500" points="6.225 5.575 6.225 5.075 8.225 5.075 8.225 5.575"/>
      <polygon fill="#C7B500" points=".225 5.575 .225 5.075 2.225 5.075 2.225 5.575"/>
      <polygon fill="#C7B500" points=".225 1.575 2.225 1.575 2.225 1.075 .225 1.075"/>
      <polygon fill="#C7B500" points="6.225 1.575 8.225 1.575 8.225 1.075 6.225 1.075"/>
      <path fill="#000" fill-rule="nonzero" d="M8.22495315 5L6.22495315 5 6.14995315 5.075 6.14995315 5.575 6.22495315 5.65 8.22495315 5.65 8.29995315 5.575 8.29995315 5.075 8.22495315 5zM8.14995315 5.15L8.14995315 5.5 6.29995315 5.5 6.29995315 5.15 8.14995315 5.15zM2.22495315 5L.224953147 5 .149953147 5.075.149953147 5.575.224953147 5.65 2.22495315 5.65 2.29995315 5.575 2.29995315 5.075 2.22495315 5zM2.14995315 5.15L2.14995315 5.5.299953147 5.5.299953147 5.15 2.14995315 5.15zM2.22495315 1L.224953147 1 .149953147 1.075.149953147 1.575.224953147 1.65 2.22495315 1.65 2.29995315 1.575 2.29995315 1.075 2.22495315 1zM2.14995315 1.15L2.14995315 1.5.299953147 1.5.299953147 1.15 2.14995315 1.15zM8.22495315 1L6.22495315 1 6.14995315 1.075 6.14995315 1.575 6.22495315 1.65 8.22495315 1.65 8.29995315 1.575 8.29995315 1.075 8.22495315 1zM8.14995315 1.15L8.14995315 1.5 6.29995315 1.5 6.29995315 1.15 8.14995315 1.15z"/>
      <path fill="#C60B1E" fill-rule="nonzero" d="M1.69203349 3.29503607L1.73988419 3.2991163 2.06730499 3.3809715C2.13896203 3.39888576 2.1949121 3.45483583 2.21282637 3.52649287 2.23515115 3.61579203 2.19362741 3.70608279 2.11715273 3.7492025L2.06730499 3.7690285.261333491 4.22052138C.180964254 4.24061368.0995240809 4.19174958.0794317719 4.11138034.0633579246 4.04708495.0914161818 3.98210417.144431488 3.9483964L.188572803 3.92947862 1.62195315 3.57 1.58819977 3.54059611C1.5685306 3.51692267 1.55629913 3.48742838 1.55390225 3.45610804L1.55798247 3.40825733C1.57003786 3.36003579 1.60417848 3.3231561 1.64692186 3.30570773L1.69203349 3.29503607zM2.87204025 2.54558258C2.88503768 2.61056975 2.85392036 2.67414239 2.79936175 2.70529032L2.75437057 2.7220871.879953147 3.096.908637669 3.12113668C.928306839 3.14481011.940538307 3.17430441.942935189 3.20562475L.938854962 3.25347545C.922781115 3.31777084.867444635 3.36190295.804803947 3.36669671L.756953244 3.36261649.404288278 3.27445024C.297129297 3.2476605.231977158 3.1390736.258766903 3.03191462.272825982 2.9756783.310243369 2.9292926.36004665 2.90321986L.413572176 2.88430561 2.69553573 2.4279129C2.77676969 2.41166611 2.85579346 2.46434862 2.87204025 2.54558258zM7.00472834 3.3800562C7.02080219 3.44435159 6.99274393 3.50933238 6.93972862 3.54304014L6.89558731 3.56195792 6.84295315 3.574 8.26133349 3.92947862C8.32562888 3.94555247 8.36976098 4.00088895 8.37455475 4.06352964L8.37047452 4.11138034C8.35440067 4.17567573 8.29906419 4.21980784 8.23642351 4.2246016L8.1885728 4.22052138 6.3826013 3.7690285C6.27544232 3.74223875 6.21029018 3.63365186 6.23707993 3.52649287 6.25051562 3.47275009 6.28534646 3.42784248 6.33215247 3.40119002L6.3826013 3.3809715 6.82282662 3.27091517C6.90319586 3.25082286 6.98463603 3.29968697 7.00472834 3.3800562zM5.70637995 2.42611332L5.75437057 2.4279129 8.03633412 2.88430561C8.11212263 2.89946331 8.17239395 2.95693286 8.19113939 3.03191462 8.21346418 3.12121377 8.17194044 3.21150453 8.09546576 3.25462424L8.04561802 3.27445024 7.62774694 3.37891801C7.5473777 3.39901032 7.46593753 3.35014622 7.44584522 3.26977698 7.42977137 3.20548159 7.45782963 3.1405008 7.51084494 3.10679304L7.54295315 3.092 5.69553573 2.7220871C5.63054856 2.70908967 5.58383432 2.65591497 5.57606646 2.5935732L5.57786605 2.54558258C5.58761412 2.4968422 5.61996191 2.45838035 5.66182698 2.43891863L5.70637995 2.42611332z"/>
      <path fill="#000" fill-rule="nonzero" d="M1.69840561 3.22030726L1.75807437 3.22635561 2.08549516 3.30821081C2.1840236 3.33284292 2.26095494 3.40977427 2.28558705 3.5083027 2.30975611 3.60497893 2.27950726 3.70435132 2.20699211 3.77335277L2.14487067 3.81889264 2.08549516 3.84178919.279523663 4.29328206C.158969808 4.32342053.0368095479 4.25012437.00667108437 4.12957052-.0122673684 4.0538167.00960165721 3.97581452.0661088191 3.91835108L.114887445 3.87946057.170328491 3.85673149 1.49495315 3.524 1.48743508 3.50385085 1.47917343 3.44973591 1.48522179 3.39006716C1.49842208 3.33726599 1.52977864 3.29228234 1.57709769 3.26024882L1.62965631 3.23272211 1.67476794 3.22205045 1.69840561 3.22030726zM1.69895315 3.37L1.67526705 3.37514511C1.66054106 3.38115644 1.64827644 3.39149331 1.64057598 3.40118859L1.63271129 3.41462945 1.62868359 3.45038517 1.63293781 3.47174621 1.63746384 3.48404479 1.67121722 3.51344868 1.64019746 3.64274713.218116846 3.99841446.184672292 4.01168683C.157676307 4.0288512.144299828 4.06161964.152192459 4.09319017.159727075 4.12332864.184515778 4.14460628.213392102 4.14912323L.243143319 4.14776069 2.03958705 3.69933836 2.08031651 3.68387186C2.12885876 3.65650165 2.15379693 3.59960803 2.14006568 3.54468305 2.1326014 3.51482595 2.11457162 3.48933189 2.09011131 3.47233586L2.04911482 3.45373219 1.73351207 3.37384512 1.69895315 3.37zM2.68082702 2.35436935C2.80267796 2.32999916 2.92121361 2.40902293 2.9455838 2.53087387 2.96089757 2.60744275 2.93534312 2.68431645 2.87616666 2.73902707L2.82559341 2.7755534 2.76904266 2.79563797 1.00495315 3.147 1.00940236 3.15788193 1.01766401 3.21199687 1.01161565 3.27166563C.992677197 3.34741944.936674086 3.40595359.859773208 3.43006502L.798431827 3.44142553.738763072 3.43537717.386098107 3.34721093C.238754507 3.31037503.149170316 3.16106805.186006216 3.01372445.200344476 2.95637141.232545215 2.90591032.281103368 2.86716563L.335058249 2.83250509.398863466 2.81076206 2.68082702 2.35436935zM2.71024444 2.50145645L.438560577 2.95502039.394831789 2.96966529C.363343078 2.98615008.340218649 3.01534056.331527591 3.05010479.318132718 3.10368428.341514599 3.15783494.385694021 3.18592474L.42247845 3.20168956.763325365 3.28788767.799081084 3.29191537C.820345975 3.29028801.839533482 3.27969288.851717796 3.26695769L.864126146 3.24710333.868153848 3.21134761.859207826 3.17754315.830523304 3.15240648.865281059 3.02244913 2.72813891 2.65182402 2.76217691 2.64015748C2.78995876 2.6242966 2.80487874 2.5922015 2.7984967 2.56029129 2.79240415 2.52982855 2.76865558 2.50739591 2.74002679 2.50151057L2.71024444 2.50145645zM6.80463645 3.19815448C6.9251903 3.16801602 7.04735056 3.24131218 7.07748903 3.36186603 7.08695825 3.39974294 7.08622561 3.43818194 7.07606226 3.47433464L7.05384062 3.52649292 7.03895315 3.545 8.27952366 3.85671794C8.33633902 3.87092178 8.38346832 3.90597449 8.41365402 3.95505566L8.43792305 4.00856038 8.44928356 4.06990176 8.44323521 4.12957052C8.42429676 4.20532433 8.36829365 4.26385848 8.29139277 4.28796991L8.23005139 4.29933042 8.17038263 4.29328206 6.36441113 3.84178919C6.21706753 3.80495329 6.12748334 3.6556463 6.16431924 3.5083027 6.17803422 3.45344278 6.20812602 3.4047916 6.25363681 3.3663977L6.30425179 3.33157284 6.36441113 3.30821081 6.80463645 3.19815448zM6.87076801 3.34231332L6.84101679 3.34367586 6.41050198 3.45058868 6.36926435 3.46636446C6.33969975 3.48319925 6.31815369 3.51143074 6.30984062 3.54468305 6.29644574 3.59826254 6.31982762 3.6524132 6.36400705 3.680503L6.40079148 3.69626781 8.19494492 4.14579256 8.23070064 4.14982026C8.25196553 4.1481929 8.27115304 4.13759777 8.28333736 4.12486258L8.29574571 4.10500822 8.29977341 4.0692525C8.29814605 4.04798761 8.28755092 4.02880011 8.27130145 4.01602948L8.24310067 4.00222864 6.82472033 3.64675001 6.82622622 3.50088906 6.86604326 3.49302208 6.89948782 3.47974972C6.9264838 3.46258535 6.93986028 3.4298169 6.93196765 3.39824637 6.92443304 3.36810791 6.89964433 3.34683027 6.87076801 3.34231332zM5.70919037 2.35116599L5.76907928 2.35436935 8.05104283 2.81076206C8.15525204 2.8316039 8.2381251 2.91062453 8.26390008 3.01372445 8.28806913 3.11040067 8.25782029 3.20977306 8.18530513 3.27877451L8.1231837 3.32431438 8.06380819 3.34721093 7.64593711 3.4516787C7.52538326 3.48181716 7.403223 3.40852101 7.37308453 3.28796715L7.36642098 3.23109282 7.37439356 3.17555088 7.38995315 3.137 5.68082702 2.79563065C5.62340036 2.78414532 5.57465711 2.751374 5.54217103 2.70378416L5.5153845 2.65149437 5.50111914 2.59076278 5.50432249 2.53087387C5.51499635 2.47750459 5.54417777 2.43108037 5.58991958 2.39683237L5.6411094 2.36683686 5.68566237 2.35403154 5.70919037 2.35116599zM5.71295315 2.501L5.69344288 2.50692918 5.66627274 2.52697355 5.65281337 2.548393 5.65049095 2.58429983C5.65312794 2.60546324 5.66462373 2.62412508 5.68145434 2.63610675L5.71026087 2.64854684 7.55767829 3.01845974 7.5743368 3.16011803 7.55108574 3.17008346C7.52408976 3.18724783 7.51071328 3.22001628 7.51860591 3.25158681 7.52614052 3.28172527 7.55092923 3.30300292 7.57980555 3.30751987L7.60955677 3.30615733 8.01790007 3.2047601 8.05862953 3.1892936C8.10717179 3.16192339 8.13210995 3.10502978 8.1183787 3.05010479 8.1105681 3.01886239 8.09122254 2.9924845 8.06515843 2.97556363L8.02162541 2.95784916 5.75156015 2.50286022 5.71295315 2.501z"/>
      <path fill="#CCC" d="M5.72495315,1.575 L5.72495315,4.325 C5.72495315,4.39628675 5.71500752,4.46525058 5.69642814,4.53057961 C5.61268383,4.89733201 5.34305266,5.20230016 4.97495315,5.325 C4.48812017,5.48727766 3.96178613,5.48727766 3.47495315,5.325 C3.10685363,5.20230016 2.83722246,4.89733201 2.75283439,4.5304891 L2.73216791,4.43001264 L2.73216791,4.43001264 L2.72495315,4.325 L2.72495315,1.575 L5.72495315,1.575 Z"/>
      <path fill="#C60B1E" d="M4.22495315,3.075 L4.22495315,4.325 C4.22495315,4.73921356 4.56073958,5.075 4.97495315,5.075 C5.38916671,5.075 5.72495315,4.73921356 5.72495315,4.325 L5.72495315,3.075 L5.72495315,3.075 L4.22495315,3.075 Z"/>
      <polygon fill="#C60B1E" points="2.725 1.575 2.725 3.075 4.225 3.075 4.225 1.575"/>
      <polygon fill="#CCC" points="4.225 1.575 4.225 3.075 5.725 3.075 5.725 1.575"/>
      <path fill="#C7B500" d="M2.72495315,3.075 L2.72495315,4.325 C2.72495315,4.73921356 3.06073958,5.075 3.47495315,5.075 C3.88916671,5.075 4.22495315,4.73921356 4.22495315,4.325 L4.22495315,3.075 L4.22495315,3.075 L2.72495315,3.075 Z"/>
      <path fill="#C60B1E" d="M2.72495315,1.075 L2.72495315,0.825 C2.72495315,0.686928813 2.83688196,0.575 2.97495315,0.575 L3.22495315,0.575 C3.55828648,0.241666667 3.89161981,0.075 4.22495315,0.075 C4.55828648,0.075 4.89161981,0.241666667 5.22495315,0.575 L5.22495315,0.575 L5.47495315,0.575 C5.61302433,0.575 5.72495315,0.686928813 5.72495315,0.825 L5.72495315,1.075 L5.72495315,1.075 L2.72495315,1.075 Z"/>
      <polygon fill="#C7B500" points="3.225 1.575 2.725 1.075 5.725 1.075 5.225 1.575"/>
      <path fill="#000" fill-rule="nonzero" d="M5.72495315,1.5 L2.72495315,1.5 L2.64995315,1.575 L2.64995315,4.325 L2.6573443,4.4351533 L2.67937224,4.54559914 C2.77090367,4.94358532 3.06213392,5.26645053 3.45123606,5.39615125 C3.95346406,5.56356058 4.49644224,5.56356058 4.99867023,5.39615125 C5.38791139,5.2664042 5.67909273,4.9434101 5.7695462,4.5472754 C5.78931808,4.47813232 5.79995315,4.40223582 5.79995315,4.325 L5.79995315,1.575 L5.72495315,1.5 Z M2.79995315,1.65 L5.64995315,1.65 L5.64995315,4.325 C5.64995315,4.38832512 5.64125288,4.4504141 5.6242888,4.5100634 C5.54447727,4.85912666 5.29061755,5.14072159 4.95123606,5.25384875 C4.47979809,5.41099474 3.9701082,5.41099474 3.49867023,5.25384875 C3.15937455,5.14075019 2.90540886,4.85919741 2.82592541,4.51367533 L2.80563006,4.4149026 L2.79977676,4.31985933 L2.79995315,1.65 Z"/>
      <path fill="#000" fill-rule="nonzero" d="M5.72495315,3 L4.22495315,3 L4.14995315,3.075 L4.14995315,4.325 C4.14995315,4.78063492 4.51931823,5.15 4.97495315,5.15 C5.43058807,5.15 5.79995315,4.78063492 5.79995315,4.325 L5.79995315,3.075 L5.72495315,3 Z M4.29995315,3.15 L5.64995315,3.15 L5.64995315,4.325 C5.64995315,4.69779221 5.34774535,5 4.97495315,5 L4.87520659,4.99268127 C4.54971165,4.94446979 4.29995315,4.66390201 4.29995315,4.325 L4.29995315,3.15 Z"/>
      <path fill="#000" fill-rule="nonzero" d="M4.22495315,1.5 L2.72495315,1.5 L2.64995315,1.575 L2.64995315,3.075 L2.72495315,3.15 L4.22495315,3.15 L4.29995315,3.075 L4.29995315,1.575 L4.22495315,1.5 Z M4.14995315,1.65 L4.14995315,3 L2.79995315,3 L2.79995315,1.65 L4.14995315,1.65 Z"/>
      <path fill="#000" fill-rule="nonzero" d="M5.72495315,1.5 L4.22495315,1.5 L4.14995315,1.575 L4.14995315,3.075 L4.22495315,3.15 L5.72495315,3.15 L5.79995315,3.075 L5.79995315,1.575 L5.72495315,1.5 Z M5.64995315,1.65 L5.64995315,3 L4.29995315,3 L4.29995315,1.65 L5.64995315,1.65 Z"/>
      <path fill="#000" fill-rule="nonzero" d="M4.22495315 3L2.72495315 3 2.64995315 3.075 2.64995315 4.325C2.64995315 4.78063492 3.01931823 5.15 3.47495315 5.15 3.93058807 5.15 4.29995315 4.78063492 4.29995315 4.325L4.29995315 3.075 4.22495315 3zM2.79995315 3.15L4.14995315 3.15 4.14995315 4.325C4.14995315 4.69779221 3.84774535 5 3.47495315 5L3.37520659 4.99268127C3.04971165 4.94446979 2.79995315 4.66390201 2.79995315 4.325L2.79995315 3.15zM4.22495315 0C3.86952952 0 3.51824474.17564239 3.17192014.521966991L2.97495315.5C2.7954606.5 2.64995315.645507456 2.64995315.825L2.64995315 1.075 2.72495315 1.15 5.72495315 1.15 5.79995315 1.075 5.79995315.825C5.79995315.645507456 5.65444569.5 5.47495315.5L5.22495315.5 5.15124873.40309721C4.84489097.13497548 4.53637559 0 4.22495315 0zM4.22495315.15C4.49686404.15 4.77168199.270232853 5.0505653.514255752L5.17365756.62971529 5.47495315.65 5.53026668.658921616C5.59980904.682072054 5.64995315.747680135 5.64995315.825L5.64995315 1 2.79995315 1 2.79995315.825C2.79995315.728350169 2.87830332.65 2.97495315.65L3.22495315.65C3.59832822.307690943 3.91371011.15 4.22495315.15z"/>
      <path fill="#000" fill-rule="nonzero" d="M5.72495315,1 L2.72495315,1 L2.67192014,1.12803301 L3.17192014,1.62803301 L5.22495315,1.65 L5.77798616,1.12803301 L5.72495315,1 Z M5.54195315,1.15 L5.17192014,1.52196699 L3.22495315,1.5 L2.89795315,1.15 L5.54195315,1.15 Z"/>
      <circle cx="4.225" cy="3.075" r="1" fill="#005BBF"/>
      <path fill="#000" fill-rule="nonzero" d="M4.22495315,2.5 C3.90738942,2.5 3.64995315,2.75743627 3.64995315,3.075 C3.64995315,3.39256373 3.90738942,3.65 4.22495315,3.65 C4.54251688,3.65 4.79995315,3.39256373 4.79995315,3.075 C4.79995315,2.75743627 4.54251688,2.5 4.22495315,2.5 Z M4.22495315,2.65 C4.45967417,2.65 4.64995315,2.84027898 4.64995315,3.075 C4.64995315,3.30972102 4.45967417,3.5 4.22495315,3.5 C3.99023213,3.5 3.79995315,3.30972102 3.79995315,3.075 C3.79995315,2.84027898 3.99023213,2.65 4.22495315,2.65 Z"/>
    </g>
  </g>
</svg>
