<svg id="vector" xmlns="http://www.w3.org/2000/svg" width="32" height="16" viewBox="0 0 32 16"><path fill="#DA121A" d="M0 0h32v16H0z" id="path_0"/><path fill="#FCDD09" d="M0 0h32v10.667H0z" id="path_1"/><path fill="#078930" d="M0 0h32v5.333H0z" id="path_2"/><path fill="#0F47AF" d="M10.667 8a5.333 5.333 0 1 1 10.666 0 5.333 5.333 0 1 1-10.666 0" id="path_3"/><path fill="#FCDD09" d="M16.001 3.734l-0.187 0.575 0.771 2.373h-1.028l-0.116 0.356h3.296l0.49-0.356h-2.268z" id="path_4"/><path fill="#FCDD09" d="M17.294 6.523l-0.288-0.209 1.359-1.87 0.287 0.209zm2.764 0.16h-0.604l-2.019 1.466-0.318-0.978h-0.374l1.018 3.135 0.49 0.356-0.7-2.157z" id="path_5"/><path fill="#FCDD09" d="M17.805 8.774l0.11-0.338 2.198 0.714-0.11 0.338zm0.703 2.679l-0.187-0.575-2.019-1.467 0.832-0.604-0.115-0.356-2.667 1.937-0.187 0.576L16 9.631z" id="path_6"/><path fill="#FCDD09" d="M15.822 9.957h0.356v2.311h-0.355zm-2.329 1.494l0.49-0.355 0.77-2.373 0.832 0.604 0.303-0.22-2.666-1.937h-0.606l1.835 1.333z" id="path_7"/><path fill="#FCDD09" d="M14.086 8.435l0.11 0.338-2.198 0.715-0.11-0.338zm-2.143-1.753l0.49 0.355h2.494L14.61 8.015l0.302 0.22 1.019-3.134-0.187-0.576-0.701 2.157z" id="path_8"/><path fill="#FCDD09" d="M14.995 6.314l-0.288 0.21-1.358-1.871 0.287-0.208z" id="path_9"/></svg>