<svg id="vector" xmlns="http://www.w3.org/2000/svg" width="24" height="24" viewBox="0 0 512 512"><path fill="#0052B4" d="M512 256A256 256 0 0 1 0 256A256 256 0 0 1 512 256Z" id="path_0"/><path fill="#EEEEEE" d="M459.431 100.569L304 256L459.431 411.431C445.625 429.473 429.473 445.625 411.431 459.431L256 304L100.569 459.431C82.5272 445.625 66.3753 429.473 52.5693 411.431L208 256L52.5693 100.569C66.3753 82.5272 82.5272 66.3753 100.569 52.5693L256 208L411.431 52.5693C429.473 66.3753 445.625 82.5272 459.431 100.569Z" id="path_1"/><path fill="#EEEEEE" d="M288 1.97997C298.894 3.33843 309.575 5.38143 320 8.0645L320 192L503.935 192C506.618 202.424 508.661 213.106 510.019 224L480 256L510.019 288C508.661 298.894 506.618 309.575 503.935 320L320 320L320 503.934C309.575 506.617 298.894 508.66 288 510.019L256 480L224 510.019C213.106 508.66 202.424 506.617 192 503.934L192 320L8.06517 320C5.38206 309.575 3.33907 298.894 1.98058 288L32 256L1.98046 224C3.3389 213.106 5.38185 202.424 8.06491 192L192 192L192 8.06451C202.424 5.38143 213.106 3.33843 224 1.97997L256 32L288 1.97997Z" id="path_2"/><path fill="#D80027" d="M288 1.98009C277.68 0.693195 267.169 0.0205877 256.505 -0.0000112122L255.495 -0.000011168C244.831 0.0205887 234.32 0.693197 224 1.98009L224 224L1.98053 224C0.673354 234.483 -0.0000116638 245.163 -0.0000111901 256C-0.0000107164 266.837 0.673397 277.517 1.98065 288L224 288L224 510.019C234.483 511.326 245.163 512 256 512C266.837 512 277.517 511.326 288 510.019L288 288L510.019 288C511.327 277.517 512 266.837 512 255.999C512 245.163 511.327 234.483 510.019 224L288 224L288 1.98009Z" id="path_3"/><path fill="#D80027" d="M420.315 59.6848C426.107 64.5375 431.681 69.6417 437.02 74.9806L320 192V160L420.315 59.6848ZM59.6851 91.6848C64.5377 85.8932 69.642 80.3196 74.9809 74.9807L192 192H160L59.6851 91.6848ZM437.02 437.019C442.358 431.68 447.463 426.107 452.315 420.315L352 320L320 320L437.02 437.019ZM91.6851 452.315L192 352L192 320L74.9809 437.019C80.3198 442.358 85.8935 447.462 91.6851 452.315Z" fill-rule="evenodd" id="path_4"/></svg>