<svg id="vector" xmlns="http://www.w3.org/2000/svg" width="24" height="24" viewBox="0 0 512 512"><path fill="#338AF3" d="M512 256A256 256 0 0 1 0 256A256 256 0 0 1 512 256Z" id="path_0"/><path fill="#EEEEEE" d="M503.935 192C509.2 212.456 512 233.901 512 256H0C0 233.901 2.80019 212.456 8.06512 192H503.935ZM425.333 64C446.068 82.3017 463.816 103.91 477.752 128H34.2482C48.1835 103.91 65.9316 82.3017 86.6672 64H425.333ZM477.752 384C489.21 364.192 498.091 342.705 503.935 320H8.06512C13.9091 342.705 22.7897 364.192 34.2482 384H477.752ZM425.333 448H86.6672C131.796 487.831 191.075 512 256 512C320.925 512 380.204 487.831 425.333 448Z" fill-rule="evenodd" id="path_1"/><path fill="#338AF3" d="M8.06512 320C2.80019 299.544 0 278.099 0 256C0 114.615 114.615 0 256 0C278.099 0 299.544 2.80019 320 8.06512V320H8.06512Z" fill-rule="evenodd" id="path_2"/><path fill="#EEEEEE" d="M128 34.2483C147.808 22.7898 169.294 13.9091 192 8.06519V128L320 128V192H192V320H128V192H8.06494C13.9089 169.295 22.7895 147.808 34.2481 128L128 128V34.2483Z" fill-rule="evenodd" id="path_3"/></svg>