<svg id="vector" xmlns="http://www.w3.org/2000/svg" width="24" height="24" viewBox="0 0 512 512"><path fill="#EEEEEE" d="M29.8097 136C10.7814 171.792 0.0000142816 212.637 0.0000104907 256C0.00000669983 299.363 10.7813 340.208 29.8097 376L482.19 376C501.219 340.208 512 299.363 512 256C512 212.637 501.219 171.792 482.19 136L29.8097 136Z" id="path_0"/><path fill="#D80027" d="M15.526 168C51.4112 69.9657 145.535 -0.00003068 256 -0.0000210229C366.465 -0.0000113657 460.588 69.9657 496.474 168L15.526 168Z" id="path_1"/><path fill="#6DA544" d="M15.526 344L496.474 344C460.588 442.034 366.465 512 256 512C145.535 512 51.4112 442.034 15.526 344Z" id="path_2"/></svg>