<svg id="vector" xmlns="http://www.w3.org/2000/svg" width="24" height="24" viewBox="0 0 512 512"><path fill="#EEEEEE" d="M512 256A256 256 0 0 1 0 256A256 256 0 0 1 512 256Z" id="path_0"/><path fill="#0052B4" d="M415.381 55.6533C438.739 74.26 458.77 96.8658 474.437 122.435H37.5621C53.2298 96.8658 73.2608 74.26 96.6189 55.6533L415.381 55.6533ZM415.38 456.347C438.739 437.74 458.77 415.134 474.438 389.564H37.5615C53.2294 415.134 73.2609 437.74 96.6197 456.347H415.38Z" fill-rule="evenodd" id="path_1"/><path fill="#0052B4" d="M352.393 200.347H288.13L256 144.695L223.871 200.347H159.607L191.741 255.999L159.607 311.651H223.871L256 367.303L288.13 311.651H352.393L320.259 255.999L352.393 200.347ZM295.475 255.999L275.739 290.187H236.264L216.525 255.999L236.263 221.811H275.738L295.475 255.999ZM256 187.622L263.346 200.346H248.656L256 187.622ZM196.786 221.811H211.478L204.132 234.535L196.786 221.811ZM196.786 290.187L204.133 277.463L211.479 290.187H196.786ZM256 324.375L248.655 311.651H263.346L256 324.375ZM315.214 290.187H300.522L307.869 277.463L315.214 290.187ZM300.522 221.811H315.214L307.868 234.535L300.522 221.811Z" id="path_2"/></svg>