<svg xmlns="http://www.w3.org/2000/svg" width="32" height="16" fill="none" xmlns:v="https://vecta.io/nano"><path d="M414 0H0V207H414V0Z" fill="#da0000"/><path d="M414 0H0V141.833H414V0Z" fill="#fff"/><path d="M414 0H0v63.889h414V0z" fill="#239f40"/><g fill="#fff"><path d="M14.72 54.27v3.678h5.52v-1.838h-3.68V54.27h5.52v5.516h-9.2v-3.677H7.36v3.677H5.52V54.27h9.2zm-3.68 3.678v1.839H9.2v-1.839h1.841zm22.08-7.354v7.354h1.84v-7.354h1.84v7.354h1.841v-7.354h1.84v9.193h-9.2v-3.677h-5.52v1.838h3.68v1.839h-5.52V54.27h7.36v-3.677h1.84zm-3.68 0v1.838H5.52v-1.838h23.92z"/><use href="#B"/><use href="#B" y="78.796"/><path d="M14.72 149.613v3.678h5.52v-1.838h-3.68v-1.84h5.52v5.516h-9.2v-3.676H7.36v3.676H5.52v-5.516h9.2zm-3.68 3.678v1.838H9.2v-1.838h1.841zm22.08-7.354v7.354h1.84v-7.354h1.84v7.354h1.841v-7.354h1.84v9.192h-9.2v-3.676h-5.52v1.838h3.68v1.838h-5.52v-5.516h7.36v-3.676h1.84zm-3.68 0v1.838H5.52v-1.838h23.92zM51.52 54.27v3.678h5.52V56.11h-3.68v-1.84h5.52v5.516h-9.2v-3.677h-5.52v3.677h-1.84V54.27h9.2zm-3.68 3.678v1.839H46v-1.839h1.841zm22.08-7.354v7.354h1.84v-7.354h1.84v7.354h1.841v-7.354h1.84v9.193h-9.2V56.11h-5.52v1.838h3.68v1.839h-5.52V54.27h7.36v-3.677h1.84zm-3.68 0v1.838H42.32v-1.838h23.92z"/><use href="#C"/><use href="#C" y="78.796"/><path d="M51.52 149.613v3.678h5.52v-1.838h-3.68v-1.84h5.52v5.516h-9.2v-3.676h-5.52v3.676h-1.84v-5.516h9.2zm-3.68 3.678v1.838H46v-1.838h1.841zm22.08-7.354v7.354h1.84v-7.354h1.84v7.354h1.841v-7.354h1.84v9.192h-9.2v-3.676h-5.52v1.838h3.68v1.838h-5.52v-5.516h7.36v-3.676h1.84zm-3.68 0v1.838H42.32v-1.838h23.92zM88.32 54.27v3.678h5.52V56.11h-3.68v-1.84h5.52v5.516h-9.2v-3.677h-5.52v3.677h-1.84V54.27h9.2zm-3.68 3.678v1.839H82.8v-1.839h1.841zm22.08-7.354v7.354h1.84v-7.354h1.84v7.354h1.84v-7.354h1.84v9.193h-9.2V56.11h-5.52v1.838h3.68v1.839h-5.52V54.27h7.36v-3.677h1.84zm-3.68 0v1.838H79.12v-1.838h23.92z"/><use href="#D"/><use href="#D" y="78.796"/><path d="M88.32 149.613v3.678h5.52v-1.838h-3.68v-1.84h5.52v5.516h-9.2v-3.676h-5.52v3.676h-1.84v-5.516h9.2zm-3.68 3.678v1.838H82.8v-1.838h1.841zm22.08-7.354v7.354h1.84v-7.354h1.84v7.354h1.84v-7.354h1.84v9.192h-9.2v-3.676h-5.52v1.838h3.68v1.838h-5.52v-5.516h7.36v-3.676h1.84zm-3.68 0v1.838H79.12v-1.838h23.92z"/><use href="#E"/><use href="#F"/><use href="#F" y="78.796"/><use href="#G"/><path d="M161.92 54.27v3.678h5.52v-1.838h-3.68V54.27h5.52v5.516h-9.2v-3.677h-5.52v3.677h-1.84V54.27h9.2zm-3.68 3.678v1.839h-1.84v-1.839h1.84zm22.08-7.354v7.354h1.84v-7.354H184v7.354h1.84v-7.354h1.84v9.193h-9.2v-3.677h-5.52v1.838h3.68v1.839h-5.52V54.27h7.36v-3.677h1.84zm-3.68 0v1.838h-23.92v-1.838h23.92z"/><use href="#F" x="36.8"/><use href="#F" x="36.8" y="78.796"/><path d="M161.92 149.613v3.678h5.52v-1.838h-3.68v-1.84h5.52v5.516h-9.2v-3.676h-5.52v3.676h-1.84v-5.516h9.2zm-3.68 3.678v1.838h-1.84v-1.838h1.84zm22.08-7.354v7.354h1.84v-7.354H184v7.354h1.84v-7.354h1.84v9.192h-9.2v-3.676h-5.52v1.838h3.68v1.838h-5.52v-5.516h7.36v-3.676h1.84zm-3.68 0v1.838h-23.92v-1.838h23.92z"/><use href="#E" x="73.6"/><use href="#F" x="73.6"/><use href="#F" x="73.6" y="78.796"/><use href="#G" x="73.6"/><path d="M235.52 54.27v3.678h5.52v-1.838h-3.68V54.27h5.52v5.516h-9.2v-3.677h-5.52v3.677h-1.84V54.27h9.2zm-3.68 3.678v1.839H230v-1.839h1.84zm22.08-7.354v7.354h1.84v-7.354h1.84v7.354h1.84v-7.354h1.84v9.193h-9.2v-3.677h-5.52v1.838h3.68v1.839h-5.52V54.27h7.36v-3.677h1.84zm-3.68 0v1.838h-23.92v-1.838h23.92z"/><use href="#F" x="110.4"/><use href="#F" x="110.4" y="78.796"/><path d="M235.52 149.613v3.678h5.52v-1.838h-3.68v-1.84h5.52v5.516h-9.2v-3.676h-5.52v3.676h-1.84v-5.516h9.2zm-3.68 3.678v1.838H230v-1.838h1.84zm22.08-7.354v7.354h1.84v-7.354h1.84v7.354h1.84v-7.354h1.84v9.192h-9.2v-3.676h-5.52v1.838h3.68v1.838h-5.52v-5.516h7.36v-3.676h1.84zm-3.68 0v1.838h-23.92v-1.838h23.92z"/><use href="#E" x="147.2"/><use href="#F" x="147.2"/><use href="#F" x="147.2" y="78.796"/><use href="#G" x="147.2"/><use href="#E" x="184"/><use href="#F" x="184"/><use href="#F" x="184" y="78.796"/><use href="#G" x="184"/><path d="M345.92 54.27v3.678h5.52v-1.838h-3.68V54.27h5.52v5.516h-9.2v-3.677h-5.52v3.677h-1.84V54.27h9.2zm-3.68 3.678v1.839h-1.84v-1.839h1.84zm22.08-7.354v7.354h1.84v-7.354H368v7.354h1.84v-7.354h1.84v9.193h-9.2v-3.677h-5.52v1.838h3.68v1.839h-5.52V54.27h7.36v-3.677h1.84zm-3.68 0v1.838h-23.92v-1.838h23.92z"/><use href="#F" x="220.8"/><use href="#F" x="220.8" y="78.796"/><path d="M345.92 149.613v3.678h5.52v-1.838h-3.68v-1.84h5.52v5.516h-9.2v-3.676h-5.52v3.676h-1.84v-5.516h9.2zm-3.68 3.678v1.838h-1.84v-1.838h1.84zm22.08-7.354v7.354h1.84v-7.354H368v7.354h1.84v-7.354h1.84v9.192h-9.2v-3.676h-5.52v1.838h3.68v1.838h-5.52v-5.516h7.36v-3.676h1.84zm-3.68 0v1.838h-23.92v-1.838h23.92z"/><use href="#E" x="257.6"/><use href="#F" x="257.6"/><use href="#F" x="257.6" y="78.796"/><use href="#G" x="257.6"/></g><g fill="#da0000"><path d="M237.035 102.401a22.89 22.89 0 0 1-3.293 11.838 22.92 22.92 0 0 1-8.94 8.435c4.915-6.147 7.186-13.994 6.312-21.814s-4.822-14.973-10.974-19.885a29.76 29.76 0 0 0-1.339-1.008 22.94 22.94 0 0 1 13.101 7.984 22.91 22.91 0 0 1 5.133 14.45zm-10.639-.924a27.38 27.38 0 0 1-2.992 12.427c-1.964 3.848-4.812 7.177-8.31 9.716s-7.547 4.215-11.817 4.891a27.43 27.43 0 0 1-12.752-1 30.68 30.68 0 0 0 1.458.035 30.05 30.05 0 0 0 15.471-4.291 30.02 30.02 0 0 0 11.051-11.641c2.558-4.81 3.758-10.225 3.471-15.665a30 30 0 0 0-5.099-15.214 27.31 27.31 0 0 1 7.031 9.33c1.643 3.58 2.492 7.473 2.488 11.412zm-11.662-26.508a4.19 4.19 0 0 1-.842 2.517c-.546.726-1.315 1.253-2.189 1.503a4.19 4.19 0 0 1-2.653-.115c-.848-.325-1.568-.917-2.05-1.687l-.505-.507.505-2.461c.347.752.924 1.373 1.648 1.776a3.91 3.91 0 0 0 4.574-.565c.604-.566 1.012-1.31 1.166-2.123.229.524.347 1.091.346 1.663z"/><path d="M210.546 81.75A9.31 9.31 0 0 1 207 78.919l-1.499 23.457 1.499 30.04 2.331-3.207.307-7.394.318-7.698.042-.987.014-.367.067-1.6.2-4.846.163-3.913.046-1.131.061-1.44-.003-18.083zm-33.581 20.651a22.89 22.89 0 0 0 3.293 11.838 22.92 22.92 0 0 0 8.94 8.435c-4.915-6.147-7.186-13.994-6.312-21.814s4.822-14.973 10.974-19.885a29.76 29.76 0 0 1 1.339-1.008 22.94 22.94 0 0 0-13.101 7.984 22.91 22.91 0 0 0-5.133 14.45z"/><path d="M187.604 101.477a27.38 27.38 0 0 0 2.992 12.427c1.964 3.848 4.812 7.177 8.31 9.716s7.547 4.215 11.817 4.891a27.43 27.43 0 0 0 12.752-1 30.68 30.68 0 0 1-1.458.035 30.05 30.05 0 0 1-15.471-4.291 30.02 30.02 0 0 1-11.051-11.641c-2.558-4.81-3.758-10.225-3.471-15.665a30 30 0 0 1 5.099-15.214 27.31 27.31 0 0 0-7.031 9.33c-1.643 3.58-2.492 7.473-2.488 11.412zm11.662-26.508a4.19 4.19 0 0 0 .842 2.517c.546.726 1.315 1.253 2.189 1.503a4.19 4.19 0 0 0 2.653-.115c.848-.325 1.568-.917 2.05-1.687l.505-.507-.505-2.461c-.347.752-.924 1.373-1.648 1.776a3.91 3.91 0 0 1-4.574-.565c-.604-.566-1.012-1.31-1.166-2.123-.229.524-.347 1.091-.346 1.663z"/><path d="M203.454 81.75A9.31 9.31 0 0 0 207 78.919l1.499 23.457-1.499 30.04-2.331-3.207-.307-7.394-.318-7.698-.042-.987-.014-.367-.067-1.6-.2-4.846-.163-3.913-.046-1.131-.061-1.44.003-18.083z"/></g><defs ><path id="B" d="M22.08 61.625v3.677H5.52v-3.677h16.56zm18.4 0v3.677H23.92v-3.677h16.56z"/><path id="C" d="M58.88 61.625v3.677H42.32v-3.677h16.56zm18.4 0v3.677H60.72v-3.677h16.56z"/><path id="D" d="M95.68 61.625v3.677H79.12v-3.677h16.56zm18.4 0v3.677H97.52v-3.677h16.56z"/><path id="E" d="M125.12 54.27v3.678h5.52v-1.838h-3.68V54.27h5.52v5.516h-9.2v-3.677h-5.52v3.677h-1.84V54.27h9.2zm-3.68 3.678v1.839h-1.84v-1.839h1.84zm22.08-7.354v7.354h1.84v-7.354h1.84v7.354h1.84v-7.354h1.84v9.193h-9.2v-3.677h-5.52v1.838h3.68v1.839h-5.52V54.27h7.36v-3.677h1.84zm-3.68 0v1.838h-23.92v-1.838h23.92z"/><path id="F" d="M132.48 61.625v3.677h-16.56v-3.677h16.56zm18.4 0v3.677h-16.56v-3.677h16.56z"/><path id="G" d="M125.12 149.613v3.678h5.52v-1.838h-3.68v-1.84h5.52v5.516h-9.2v-3.676h-5.52v3.676h-1.84v-5.516h9.2zm-3.68 3.678v1.838h-1.84v-1.838h1.84zm22.08-7.354v7.354h1.84v-7.354h1.84v7.354h1.84v-7.354h1.84v9.192h-9.2v-3.676h-5.52v1.838h3.68v1.838h-5.52v-5.516h7.36v-3.676h1.84zm-3.68 0v1.838h-23.92v-1.838h23.92z"/></defs></svg>