<svg id="vector" xmlns="http://www.w3.org/2000/svg" width="24" height="24" viewBox="0 0 512 512"><path fill="#A2001D" d="M482.19 376C501.219 340.208 512 299.363 512 256C512 212.637 501.219 171.792 482.19 136H29.8097C10.7813 171.792 0 212.637 0 256C0 299.363 10.7813 340.208 29.8097 376H482.19Z" id="path_0"/><path fill="#496E2D" d="M496.474 344C460.589 442.034 366.465 512 256 512C145.535 512 51.4116 442.034 15.5264 344H496.474Z" id="path_1"/><path fill="#333333" d="M496.474 168H15.5264C51.4116 69.9657 145.535 0 256 0C366.465 0 460.589 69.9657 496.474 168Z" id="path_2"/><path fill="#EEEEEE" d="M493.391 160C497.58 170.348 501.112 181.032 503.935 192L8.06494 192C10.888 181.032 14.4197 170.348 18.6084 160L493.391 160ZM493.391 352C497.58 341.652 501.112 330.968 503.935 320L8.06494 320C10.888 330.968 14.4197 341.652 18.6084 352L493.391 352Z" fill-rule="evenodd" id="path_3"/><path fill="#EEEEEE" d="M335.715 118.301L305.398 104.308L256 216.159L206.602 104.308L176.285 118.301L237.613 256L176.285 393.699L206.602 407.692L256 295.841L305.398 407.692L335.715 393.699L274.387 256L335.715 118.301Z" id="path_4"/><path fill="#EEEEEE" d="M276.591 131.489C264.855 118.672 256 111.304 256 111.304C256 111.304 247.145 118.671 235.409 131.489V380.509C247.145 393.328 256 400.696 256 400.696C256 400.696 264.855 393.329 276.591 380.51V131.489Z" id="path_5"/><path fill="#A2001D" d="M200.348 179.244V332.756C212.75 354.731 227.929 372.743 239.305 384.685V127.316C227.929 139.257 212.749 157.27 200.348 179.244Z" id="path_6"/><path fill="#A2001D" d="M311.652 179.244C299.249 157.269 284.071 139.257 272.695 127.316V384.685C284.07 372.743 299.249 354.731 311.652 332.756V179.244Z" id="path_7"/><path fill="#333333" d="M311.652 179.244V332.756C324.207 310.507 333.913 284.198 333.913 256.001C333.913 227.804 324.207 201.494 311.652 179.244Z" id="path_8"/><path fill="#333333" d="M200.348 179.244V332.756C187.793 310.507 178.087 284.198 178.087 256.001C178.087 227.804 187.793 201.494 200.348 179.244Z" id="path_9"/></svg>