<svg id="vector" xmlns="http://www.w3.org/2000/svg" width="32" height="16" viewBox="0 0 414 207"><path fill="#032EA1" d="M0 0h414v207H0z" stroke-width="1" id="path_0"/><path fill="#E00025" d="M0 52.164h414v103.5H0z" stroke-width="1" id="path_1"/><path fill="#FFFFFF" fill-rule="evenodd" d="M174 99h62v22h-62z" stroke-width="1" stroke-linejoin="bevel" id="path_2"/><path fill="#000000" d="M180.041 109.458l0.48 0.48v8.104h0.822l0.001-8.104 0.48-0.48h1.855l0.48 0.48v8.104h1.065l0.001-8.104 0.48-0.48h1.856l0.48 0.48-0.001 8.104h1.066v-8.104l0.48-0.48h1.856l0.48 0.48-0.001 8.104h0.823v-8.104l0.48-0.48h1.856l0.48 0.48-0.001 8.104h22.537v-8.104l0.48-0.48h1.856l0.48 0.48v8.104h0.703v-8.104l0.48-0.48h1.856l0.48 0.48v8.104h1.065l0.001-8.104 0.48-0.48h1.855l0.48 0.48v8.104h1.065l0.001-8.104 0.48-0.48h1.856l0.48 0.48-0.001 8.104h0.9l0.001-8.104 0.48-0.48h1.855l0.48 0.48v8.104l21.344 0.001 0.098 0.35c0.278 0.989 1.16 2.004 2.046 2.455l1.781 0.908H152.687l1.781-0.908c0.886-0.451 1.767-1.466 2.045-2.455l0.099-0.35 21.093-0.001 0.001-8.104 0.48-0.48h1.855zm76.504 9.545h-99.227l-0.034 0.091c-0.24 0.584-0.621 1.145-1.074 1.617l-0.085 0.085h101.614l-0.085-0.085c-0.452-0.472-0.833-1.033-1.074-1.617l-0.035-0.091zm-21.596-8.585h-0.896v7.575h0.896v-7.575zm-40.35 0h-0.895v7.575h0.895v-7.575zm25.353 0h-0.896v7.575h0.896v-7.575zm-40.391 0h-0.896v7.575h0.896v-7.575zm3.638 0h-0.896v7.575h0.896v-7.575zm3.881 0h-0.896v7.575h0.896v-7.575zm3.881 0h-0.895v7.575h0.895v-7.575zm32.51 0h-0.896v7.575h0.896v-7.575zm3.881 0h-0.896v7.575h0.896v-7.575zm3.881 0h-0.896v7.575h0.896v-7.575zm5.378-5.178l0.48 0.48v2.634l-0.48 0.48H177.72l-0.48-0.48v-2.634l0.48-0.48h58.891zm-0.48 0.96h-57.932v1.674h57.932V106.2zm0.48-4.531l0.48 0.48v2.324l-0.48 0.48H177.72l-0.48-0.48v-2.324l0.48-0.48h58.891zm-0.48 0.96h-57.932v1.364h57.932v-1.364zm0.48-4.518l0.473 0.473v2.253l-0.473 0.472H177.72l-0.473-0.472v-2.253l0.473-0.473h58.891zm-0.473 0.945h-57.946v1.308h57.946v-1.308z" stroke-width="1" stroke-linejoin="bevel" id="path_3"/><path fill="#FFFFFF" d="M205.655 62.928s-0.075-2.128 1.164-2.151c1.24 0.023 1.164 2.151 1.164 2.151h-2.328zm-6.464 28.224v-2.864c-0.041-1.433-1.428-1.536-1.469-2.581 0 0-0.179-1.566 0.234-2.281 0.561 2.095 1.582 1.71 1.582 0.849 0-0.752-0.578-1.451-1.764-3.276-0.379-0.584-0.145-2.411 0.387-3.065 0.205 1.589 0.441 2.349 1.123 2.349 0.416 0 0.756-0.271 0.756-1.067 0-1.012-0.686-1.524-1.023-2.445-0.393-1.075-0.122-2.171 0.531-2.784 0.28 1.568 0.197 2.193 0.894 2.193 1.404-0.444 0-2.477-0.3-2.99-0.345-0.598 0.464-1.791 0.464-1.791 0.446 1.393 0.59 1.506 1.071 1.377 0.608-0.163 0.529-1.064-0.212-1.792-0.468-0.461-0.418-1.145 0.084-1.694 0.505 0.985 1.151 0.926 1.213 0.34l-0.406-2.273h8.929l-0.443 2.2c-0.126 0.628 0.723 0.766 1.251-0.267 0.503 0.55 0.552 1.234 0.084 1.694-0.741 0.729-0.82 1.63-0.212 1.793 0.481 0.129 0.625 0.015 1.071-1.377 0 0 0.726 0.812 0.464 1.791-0.3 0.512-1.704 2.546-0.3 2.989 0.697 0 0.613-0.625 0.893-2.193 0.654 0.613 0.925 1.709 0.531 2.785-0.336 0.921-1.022 1.432-1.022 2.445 0 0.796 0.34 1.067 0.755 1.067 0.683 0 0.919-0.761 1.125-2.35 0.53 0.654 0.765 2.482 0.386 3.065-1.185 1.825-1.764 2.524-1.764 3.276 0 0.861 1.02 1.246 1.582-0.849 0.412 0.714 0.233 2.281 0.233 2.281-0.041 1.045-1.428 1.148-1.469 2.581v2.864h-15.259zm3.736-23.815l-0.205-1.617h8.196l-0.205 1.617h-7.786zm0.549-1.651l-0.176-1.33h7.039l-0.176 1.33h-6.687zm1.118-1.376l-0.118-1.33h4.688l-0.117 1.33h-4.453zm17.087 56.966c-1.048-0.404-2.575-1.511-2.575-2.624v-12.573l1.365-1.738H193.16l1.309 1.739v12.573c0 1.113-1.049 2.22-2.097 2.624l29.309-0.001z" stroke-width="1" id="path_4"/><path fill="#000000" d="M220.471 103.861c0.372 0 0.592 0.398 0.423 0.707l-0.045 0.069-1.263 1.607v12.408c0 0.642 0.894 1.523 1.907 2.018l0.18 0.084 0.181 0.074c0.467 0.18 0.373 0.843-0.083 0.921l-0.09 0.007-29.309 0.001c-0.532 0-0.669-0.737-0.173-0.928 0.907-0.349 1.693-1.238 1.782-2.029l0.008-0.147V106.24l-1.212-1.61c-0.205-0.271-0.068-0.643 0.225-0.743l0.076-0.019 0.082-0.007h27.311zm-0.988 0.96h-25.361l0.731 0.97c0.031 0.042 0.055 0.088 0.071 0.137l0.019 0.074 0.006 0.078v12.573c0 0.685-0.323 1.382-0.826 1.956l-0.142 0.154-0.033 0.033h25.962l-0.116-0.097c-0.588-0.51-1.021-1.116-1.137-1.726l-0.024-0.167-0.007-0.154v-12.573c0-0.081 0.02-0.16 0.058-0.23l0.044-0.067 0.755-0.961zm-12.655-44.524c0.806 0.015 1.282 0.587 1.501 1.436 0.067 0.262 0.105 0.524 0.123 0.767h0.712c0.253 0 0.458 0.195 0.478 0.439v0.083l-0.075 0.854h0.772c0.262 0 0.469 0.207 0.48 0.458l-0.004 0.085-0.109 0.821h0.212c0.26 0 0.467 0.205 0.479 0.455l-0.003 0.085-0.139 1.097h0.03c0.273 0 0.485 0.225 0.481 0.487l-0.01 0.088-0.412 2.043c0.06-0.046 0.125-0.115 0.191-0.207l0.066-0.1 0.064-0.116c0.153-0.298 0.556-0.353 0.782-0.106 0.514 0.562 0.667 1.265 0.415 1.855l-0.065 0.134-0.029 0.048 0.018-0.013c0.14-0.085 0.319-0.095 0.47-0.018l0.072 0.047 0.066 0.061c0.089 0.099 0.208 0.262 0.326 0.481 0.261 0.487 0.383 1.019 0.285 1.569l-0.041 0.185-0.049 0.115-0.103 0.169 0.027-0.019c0.126-0.078 0.287-0.097 0.432-0.039l0.084 0.043 0.067 0.053c0.825 0.774 1.097 2.087 0.653 3.299-0.092 0.252-0.196 0.463-0.357 0.739l-0.254 0.42c-0.277 0.464-0.382 0.746-0.382 1.122 0 0.477 0.089 0.587 0.275 0.587 0.265 0 0.455-0.434 0.649-1.931 0.054-0.419 0.583-0.569 0.849-0.241 0.655 0.807 0.915 2.859 0.415 3.629l-1.396 2.158c-0.375 0.599-0.277 0.52-0.286 0.757l-0.004 0.099c0 0.168 0.034 0.208 0.016 0.211 0.145-0.026 0.412-0.4 0.622-1.184 0.111-0.413 0.666-0.486 0.879-0.116 0.175 0.302 0.27 0.695 0.312 1.164 0.026 0.287 0.03 0.585 0.019 0.877l-0.02 0.353-0.014 0.146c-0.018 0.47-0.192 0.79-0.557 1.163l-0.328 0.313c-0.371 0.349-0.533 0.588-0.573 0.946l-0.01 0.14v2.864c0 0.236-0.169 0.432-0.393 0.473l-0.087 0.007h-15.259c-0.236 0-0.432-0.169-0.472-0.393l-0.008-0.087v-2.851c-0.011-0.402-0.133-0.647-0.454-0.973l-0.129-0.126-0.182-0.17c-0.413-0.389-0.631-0.701-0.687-1.111l-0.035-0.403c-0.027-0.383-0.03-0.785 0.004-1.168 0.043-0.47 0.138-0.862 0.313-1.164 0.214-0.37 0.768-0.297 0.879 0.116 0.21 0.784 0.476 1.158 0.622 1.184-0.015-0.002 0.006-0.031 0.013-0.137l0.002-0.108-0.004-0.119c0.007-0.297 0.146-0.048-1.682-2.862-0.499-0.77-0.239-2.822 0.417-3.629 0.266-0.327 0.795-0.177 0.849 0.241l0.058 0.418c0.174 1.162 0.351 1.513 0.589 1.513 0.187 0 0.276-0.109 0.276-0.587 0-0.329-0.08-0.586-0.286-0.955l-0.247-0.414c-0.222-0.366-0.35-0.61-0.461-0.911-0.443-1.212-0.172-2.525 0.654-3.299 0.146-0.138 0.342-0.16 0.505-0.096l0.078 0.039 0.025 0.019-0.11-0.182-0.052-0.107c-0.12-0.285-0.115-0.612-0.022-0.969 0.056-0.219 0.145-0.443 0.256-0.67 0.114-0.233 0.228-0.423 0.308-0.541 0.137-0.201 0.376-0.253 0.572-0.178l0.08 0.039 0.014 0.01-0.029-0.046c-0.29-0.528-0.232-1.168 0.139-1.721l0.099-0.136 0.112-0.132c0.226-0.247 0.629-0.193 0.781 0.105 0.064 0.125 0.128 0.225 0.187 0.303l0.057 0.069 0.025 0.027-0.362-2.028c-0.042-0.236 0.095-0.456 0.304-0.534l0.082-0.023 0.087-0.008h0.029l-0.139-1.097c-0.033-0.258 0.145-0.489 0.391-0.533l0.085-0.007h0.211l-0.109-0.821c-0.034-0.259 0.144-0.491 0.391-0.535l0.085-0.008h0.773l-0.075-0.854c-0.022-0.253 0.155-0.474 0.396-0.515l0.082-0.007h0.71c0.018-0.243 0.056-0.505 0.124-0.768 0.205-0.795 0.636-1.347 1.353-1.426l0.165-0.009zm3.871 7.54h-7.77l0.305 1.709 0.005 0.135c-0.097 0.913-0.81 1.07-1.442 0.631l-0.094-0.07-0.078-0.067-0.004 0.044c-0.001 0.095 0.021 0.186 0.064 0.268l0.051 0.08 0.065 0.074c0.95 0.933 1.098 2.304 0.001 2.599-0.555 0.149-0.873 0.052-1.164-0.458l-0.077-0.143-0.011 0.048c-0.012 0.065-0.016 0.12-0.014 0.164l0.006 0.057 0.014 0.04 0.368 0.617 0.069 0.123c0.157 0.287 0.283 0.558 0.376 0.821 0.334 0.946 0.194 1.737-0.638 2.076l-0.145 0.052-0.144 0.023c-0.614 0-0.902-0.273-1.073-0.899l-0.047-0.191-0.001 0.01c-0.025 0.33 0.021 0.682 0.147 1.026 0.07 0.191 0.153 0.359 0.29 0.593l0.243 0.402c0.359 0.599 0.519 1.031 0.519 1.615 0 0.971-0.472 1.547-1.236 1.547-0.516 0-0.855-0.203-1.099-0.671l-0.064-0.134-0.047-0.116-0.005 0.064c-0.014 0.254-0.003 0.485 0.037 0.652l0.028 0.092 0.043 0.088 1.431 2.209c0.561 0.888 0.384 0.722 0.402 1.148l0.003 0.046c0.003 0.045 0.005 0.089 0.005 0.134 0 0.7-0.482 1.275-1.145 1.156-0.203-0.036-0.391-0.134-0.563-0.29l-0.101-0.1-0.045-0.053 0.004 0.208 0.014 0.255 0.02 0.238c0.007 0.187 0.081 0.325 0.3 0.545l0.283 0.269c0.537 0.504 0.815 0.935 0.875 1.598l0.011 0.187v2.384h14.299l0.001-2.398c0.017-0.625 0.21-1.05 0.605-1.488l0.14-0.148 0.321-0.305c0.261-0.245 0.367-0.39 0.396-0.591l0.026-0.292 0.014-0.255 0.003-0.206-0.044 0.052c-0.132 0.143-0.274 0.249-0.427 0.317l-0.116 0.044-0.12 0.029c-0.663 0.119-1.145-0.456-1.145-1.156l0.009-0.258c-0.007-0.499-0.286-0.018 1.832-3.279 0.083-0.127 0.117-0.379 0.113-0.678l-0.005-0.154-0.005-0.064-0.048 0.116c-0.208 0.476-0.493 0.723-0.915 0.788l-0.13 0.014-0.118 0.004c-0.763 0-1.235-0.577-1.235-1.547 0-0.512 0.122-0.906 0.393-1.398l0.154-0.264 0.125-0.205c0.192-0.316 0.296-0.514 0.38-0.743 0.1-0.276 0.15-0.556 0.153-0.826l-0.008-0.211-0.011 0.051c-0.143 0.622-0.372 0.941-0.848 1.02l-0.125 0.014-0.135 0.005-0.144-0.022c-0.96-0.303-1.136-1.13-0.783-2.129 0.093-0.262 0.219-0.533 0.376-0.821l0.139-0.243 0.26-0.437 0.019-0.092 0.007-0.075 0.004-0.075-0.006-0.111c-0.269 0.537-0.548 0.703-1.005 0.634l-0.118-0.022-0.108-0.027c-1.098-0.294-0.95-1.665 0-2.598 0.096-0.095 0.154-0.206 0.173-0.329l0.007-0.093-0.004-0.042-0.065 0.056c-0.144 0.116-0.299 0.2-0.458 0.248l-0.121 0.029-0.121 0.014c-0.558 0.035-0.951-0.398-0.897-0.951l0.017-0.112 0.327-1.625zm2.706 7.42l0.211-1.328-0.124 0.218c-0.134 0.247-0.24 0.474-0.314 0.683-0.147 0.416-0.155 0.654-0.018 0.789l0.051 0.042 0.055 0.031c0.039-0.019 0.063-0.062 0.088-0.168l0.051-0.267zm-13.381-1.33l0.082 0.493 0.11 0.709c0.06 0.37 0.085 0.5 0.132 0.546l0.019 0.013 0.007 0.003 0.057-0.031c0.15-0.1 0.186-0.276 0.11-0.579l-0.033-0.12-0.044-0.132c-0.056-0.156-0.129-0.323-0.219-0.501l-0.126-0.237-0.095-0.164zm1.104-2.601l-0.065-0.071 0.253 0.775c0.113 0.325 0.139 0.309 0.237 0.282 0.126-0.033 0.093-0.421-0.322-0.879l-0.103-0.107zm11.307 0.376l0.143-0.445-0.065 0.07c-0.511 0.503-0.559 0.95-0.423 0.986l0.041 0.01c0.087 0.017 0.118-0.042 0.304-0.621zm-2.062-5.502h-7.106l0.083 0.657h6.94l0.083-0.657zm-0.582-1.364h-5.944l0.049 0.37h5.846l0.049-0.37zm-1.152-1.377H205l0.032 0.37h3.575l0.032-0.37zm-1.82-2.202l-0.071 0.008c-0.231 0.046-0.398 0.276-0.509 0.707l-0.043 0.196-0.031 0.196-0.009 0.084h1.326l-0.009-0.085-0.031-0.195-0.043-0.196c-0.111-0.431-0.278-0.662-0.509-0.707l-0.071-0.008z" stroke-width="1" id="path_5"/><path fill="#000000" d="M199.872 109.458l0.48 0.48v8.536l-0.48 0.48h-1.856l-0.48-0.48v-8.536l0.48-0.48h1.856zm15.691 0l0.48 0.48v8.536l-0.48 0.48h-1.856l-0.48-0.48v-8.536l0.48-0.48h1.856zm-16.171 0.959h-0.896v7.577h0.896v-7.577zm15.69 0h-0.896v7.577h0.896v-7.577z" stroke-width="1" id="path_6"/><path fill="#FFFFFF" d="M192.67 90.029v14.312h27.957v-3.082l0.041-11.23c-1.143 0.449-1.344 1.485-1.344 1.485v6.095h-25.228v-6.094s-0.281-1.036-1.425-1.486h-0.001z" stroke-width="1" id="path_7"/><path fill="#000000" d="M192.846 89.583l-0.176-0.034c-0.265 0-0.48 0.215-0.48 0.48v14.312c0 0.266 0.215 0.48 0.48 0.48h27.957c0.265 0 0.48-0.214 0.48-0.48v-3.082l0.041-11.228c0.001-0.339-0.34-0.573-0.656-0.449-0.452 0.178-0.816 0.446-1.096 0.778l-0.115 0.145c-0.251 0.339-0.38 0.669-0.428 0.918l-0.008 5.706h-24.269v-5.614l-0.017-0.126c-0.075-0.278-0.259-0.66-0.602-1.04-0.294-0.327-0.663-0.59-1.111-0.766zm0.304 14.278V90.896l0.094 0.096 0.092 0.108c0.113 0.143 0.192 0.281 0.243 0.393l0.037 0.094v6.022c0 0.265 0.215 0.48 0.48 0.48h25.228c0.265 0 0.48-0.215 0.48-0.48v-6.095l0.056-0.124c0.052-0.105 0.14-0.257 0.269-0.411l0.055-0.059-0.037 10.337v2.604H193.15z" stroke-width="1" id="path_8"/><path fill="#FFFFFF" d="M216.833 121.276c-0.914-0.404-2.905-1.511-2.905-2.624v-14.07c0.196-0.786 1.261-1.25 1.946-1.738h-18.538c0.883 0.467 1.866 0.855 2.218 1.739v14.07c0 1.113-1.574 2.221-2.487 2.624l19.766-0.001z" stroke-width="1" id="path_9"/><path fill="#000000" d="M215.874 102.364h-18.538c-0.5 0-0.667 0.67-0.224 0.904l0.578 0.298c0.771 0.402 1.13 0.66 1.33 1.01l0.053 0.105 0.001 13.972c0 0.692-1.091 1.695-2.201 2.185-0.475 0.21-0.325 0.919 0.194 0.919l19.766-0.001c0.519 0 0.668-0.709 0.193-0.919l-0.194-0.089c-1.291-0.605-2.424-1.498-2.424-2.096v-14l-0.014 0.046c0.069-0.275 0.326-0.532 0.882-0.897l0.711-0.453 0.166-0.113c0.38-0.272 0.188-0.871-0.279-0.871zm-1.586 0.96l-0.051 0.04c-0.427 0.342-0.666 0.667-0.774 1.102l-0.015 0.116v14.07l0.008 0.148c0.069 0.689 0.617 1.347 1.41 1.922l0.105 0.074-16.223 0.001 0.075-0.06c0.712-0.613 1.211-1.356 1.211-2.084v-14.07L200 104.405l-0.061-0.142c-0.169-0.368-0.394-0.643-0.747-0.911l-0.038-0.028h15.134z" stroke-width="1" id="path_10"/><path fill="#FFFFFF" d="M219.322 102.993V92.857h-2.541v-0.989h-20.1v0.989h-2.541v10.136h25.182zm-6.495 18.283c-0.895-0.404-2.199-1.511-2.199-2.624v-12.013l0.736-1.092h-9.155l0.735 1.092v12.014c0 1.114-1.304 2.22-2.2 2.624l12.083-0.001z" stroke-width="1" id="path_11"/><path fill="#000000" d="M211.364 105.067c0.357 0 0.579 0.371 0.437 0.679l-0.039 0.069-0.655 0.97 0.001 11.867c0 0.654 0.736 1.515 1.576 2.01l0.169 0.094 0.171 0.083c0.442 0.199 0.337 0.831-0.104 0.909l-0.093 0.008-12.083 0.001c-0.517 0-0.668-0.705-0.197-0.918 0.915-0.412 1.806-1.328 1.907-2.053l0.01-0.133v-11.866l-0.653-0.972c-0.183-0.271-0.045-0.622 0.238-0.721l0.08-0.02 0.08-0.007h9.155zm-0.903 0.96h-7.351l0.232 0.344c0.024 0.035 0.043 0.073 0.056 0.113l0.016 0.061 0.01 0.094v12.014c0 0.652-0.353 1.326-0.88 1.9l-0.148 0.153-0.095 0.09h8.969l-0.094-0.09c-0.51-0.507-0.888-1.109-0.997-1.709l-0.024-0.18-0.007-0.165v-12.013c0-0.064 0.012-0.126 0.037-0.185l0.045-0.083 0.231-0.344zm6.32-14.639c0.235 0 0.431 0.17 0.472 0.394l0.008 0.086-0.001 0.508 2.062 0.001c0.206 0 0.382 0.13 0.45 0.312l0.022 0.081 0.008 0.087v10.136c0 0.235-0.17 0.431-0.394 0.472l-0.086 0.008H194.14c-0.236 0-0.431-0.17-0.472-0.394l-0.008-0.086V92.857c0-0.236 0.17-0.432 0.394-0.473l0.086-0.007 2.061-0.001v-0.508c0-0.206 0.13-0.382 0.313-0.45l0.081-0.022 0.086-0.008h20.1zm-0.481 0.96h-19.139v0.509c0 0.206-0.13 0.382-0.312 0.45l-0.082 0.022-0.086 0.008-2.061-0.001v9.177h24.221v-9.177l-2.06 0.001c-0.206 0-0.382-0.13-0.45-0.313l-0.023-0.081-0.007-0.086-0.001-0.509z" stroke-width="1" id="path_12"/><path fill="#000000" d="M209.6 105.059h-5.621v16.701h5.621v-16.701zm-0.981 0.981v14.739h-3.659V106.04h3.659zm7.495-6.392h-18.605l-0.237 0.898c0.425 0.242 0.923 0.428 1.62 0.627l1.113 0.298c1.012 0.269 1.457 0.476 1.508 0.598l0.027 0.167 0.63 2.009 0.439 0.336 7.702 0.309 0.444-0.257 1.214-2.318 0.055-0.218c0.001-0.115 0.348-0.298 1.195-0.536l1.181-0.306c0.88-0.23 1.463-0.431 1.952-0.709l-0.238-0.898zm-15.621 0.96h12.566l-0.116 0.032c-1.218 0.336-1.76 0.628-1.861 1.234l-0.012 0.088-1.024 1.957-7.061-0.284-0.51-1.626v-0.025c-0.047-0.625-0.51-0.934-1.597-1.265l-0.385-0.111z" stroke-width="1" id="path_13"/><path fill="#FFFFFF" d="M215.182 91.152c0-2.535 0.106-3.511 0.885-3.511v8.062c-1.91 0.694-3.274 3.131-3.274 3.131h-12.011s-1.363-2.437-3.273-3.131v-8.062c0.96 0 0.966 1.02 0.966 3.511h16.707zm0.885-1.04c0-2.907 2.509-3.234 2.509-3.234v2.587c-0.954-0.041-1.415 0.817-1.415 2.093s0.769 1.297 0.769 1.297v7.343h-1.863V90.112z" stroke-width="1" id="path_14"/><path fill="#000000" d="M218.514 86.402c0.259-0.034 0.491 0.144 0.535 0.391l0.007 0.085v2.587c0 0.274-0.227 0.492-0.5 0.48-0.576-0.025-0.915 0.508-0.915 1.613 0 0.426 0.09 0.655 0.217 0.763 0.049 0.042 0.09 0.054 0.085 0.054 0.231 0.006 0.42 0.175 0.46 0.395l0.007 0.085v7.343c0 0.236-0.17 0.432-0.394 0.473l-0.086 0.007h-1.863c-0.235 0-0.431-0.169-0.472-0.393l-0.008-0.087v-3.727c-0.412 0.256-0.819 0.606-1.213 1.032-0.317 0.344-0.605 0.714-0.857 1.084l-0.218 0.336c-0.037 0.06-0.066 0.109-0.087 0.146-0.07 0.126-0.193 0.212-0.333 0.238l-0.086 0.007h-12.011c-0.174 0-0.334-0.094-0.419-0.245l-0.086-0.146c-0.055-0.09-0.129-0.204-0.219-0.336-0.252-0.37-0.539-0.74-0.857-1.084-0.597-0.647-1.226-1.119-1.856-1.348-0.163-0.06-0.279-0.2-0.309-0.367l-0.007-0.085v-8.062c0-0.265 0.214-0.48 0.48-0.48 1.16 0 1.4 0.507 1.439 2.959l0.005 0.552h15.751l0.007-0.562c0.048-2.13 0.286-2.85 1.153-2.94l0.098-0.007 0.105-0.002c0.207 0 0.383 0.131 0.451 0.315 0.156-0.172 0.333-0.326 0.526-0.463 0.544-0.386 1.086-0.561 1.47-0.611zm-0.418 1.118l-0.137 0.062c-0.123 0.061-0.244 0.132-0.36 0.214-0.615 0.437-0.999 1.106-1.047 2.105l-0.006 0.209 0.001 9.608h0.903v-6.519l-0.097-0.057-0.12-0.092c-0.355-0.304-0.552-0.801-0.552-1.492 0-1.244 0.412-2.157 1.197-2.463l0.143-0.047 0.075-0.018v-1.51zm-20.108 2.614v5.249l0.208 0.101c0.601 0.316 1.172 0.785 1.711 1.368 0.264 0.286 0.508 0.586 0.73 0.89l0.279 0.4 0.137 0.212h11.469l0.108-0.167 0.094-0.141c0.277-0.406 0.593-0.813 0.945-1.194 0.462-0.5 0.947-0.916 1.455-1.223l0.256-0.145 0.206-0.1v-3.976l-0.037 0.054c-0.053 0.062-0.122 0.111-0.2 0.14l-0.081 0.023-0.086 0.007h-16.707c-0.265 0-0.48-0.214-0.48-0.48l-0.003-0.723-0.004-0.295z" stroke-width="1" id="path_15"/><path fill="#FFFFFF" d="M197.519 90.112c0-2.907-2.509-3.234-2.509-3.234v2.587c0.954-0.041 1.415 0.817 1.415 2.093s-0.769 1.297-0.769 1.297v7.343h1.863V90.112z" stroke-width="1" id="path_16"/><path fill="#000000" d="M195.072 86.402c-0.288-0.038-0.542 0.186-0.542 0.476v2.587c0 0.274 0.227 0.492 0.5 0.48 0.576-0.025 0.915 0.508 0.915 1.613 0 0.426-0.09 0.655-0.216 0.763-0.05 0.042-0.091 0.054-0.086 0.054-0.26 0.007-0.467 0.22-0.467 0.48v7.343c0 0.265 0.215 0.48 0.48 0.48h1.863c0.265 0 0.48-0.215 0.48-0.48V90.112c0-1.43-0.548-2.454-1.457-3.099-0.544-0.386-1.086-0.561-1.47-0.611zm0.417 1.118l0.138 0.062c0.123 0.061 0.244 0.132 0.36 0.214l0.128 0.097c0.582 0.471 0.924 1.18 0.924 2.219v9.606h-0.903v-6.519l0.097-0.057c0.04-0.028 0.08-0.058 0.12-0.092 0.355-0.304 0.552-0.801 0.552-1.492l-0.003-0.195c-0.044-1.215-0.503-2.08-1.337-2.315l-0.076-0.018v-1.51zm19.173-2.931v0.8h-15.745v-0.8h15.745zm-0.109-4.678v0.8h-15.284v-0.8h15.284zm-1.3-4.104v0.8h-12.887v-0.8h12.887zm-1.011-3.359v0.8h-10.826v-0.8h10.826zm-0.912-2.768v0.8h-8.863v-0.8h8.863zm0.134 30.095h-9.334c-0.265 0-0.48 0.215-0.48 0.48v3.431c0 0.265 0.215 0.48 0.48 0.48h9.334c0.265 0 0.48-0.215 0.48-0.48v-3.431c0-0.265-0.215-0.48-0.48-0.48zm-0.48 0.96v2.471h-8.374v-2.471h8.374z" stroke-width="1" id="path_17"/><path fill="#000000" d="M212.708 92.173c0.407 0 0.629 0.475 0.369 0.787-0.633 0.76-1.004 1.827-1.173 3.186-0.098 0.791-0.121 1.486-0.111 2.64l0.009 0.73c0.002 0.237-0.168 0.435-0.393 0.477L211.322 100h-8.974c-0.267 0-0.483-0.217-0.48-0.484l0.004-0.407c0.018-1.355 0-2.101-0.107-2.963-0.169-1.359-0.541-2.426-1.173-3.186-0.242-0.29-0.067-0.72 0.285-0.78l0.084-0.007h11.747zm-0.902 0.96h-9.943l0.045 0.08c0.328 0.618 0.557 1.333 0.706 2.14l0.059 0.352 0.044 0.323 0.05 0.451c0.063 0.669 0.078 1.332 0.069 2.306l-0.003 0.255h8.003l-0.003-0.252c-0.008-0.962 0.006-1.621 0.067-2.284l0.025-0.249 0.027-0.227c0.12-0.969 0.337-1.819 0.676-2.548l0.133-0.267 0.045-0.08zm-5.241-25.085c0.182-0.164 0.459-0.164 0.641 0l0.083 0.071 0.278 0.21c0.1 0.076 0.188 0.153 0.265 0.236l0.109 0.13 0.06 0.089 0.029-0.018c0.097-0.054 0.205-0.102 0.325-0.147l0.19-0.064 0.311-0.09c0.28-0.085 0.562 0.098 0.611 0.374l0.007 0.085v1.81c0 0.15-0.069 0.29-0.185 0.38l-0.075 0.047-1.23 0.634c-0.046 0.023-0.094 0.039-0.144 0.047l-0.076 0.006h-1.757c-0.051 0-0.102-0.008-0.15-0.023l-0.07-0.03-1.23-0.633c-0.133-0.069-0.225-0.195-0.252-0.339l-0.008-0.088v-1.81c0-0.321 0.309-0.552 0.617-0.46l0.347 0.101c0.124 0.04 0.235 0.081 0.336 0.128l0.143 0.072 0.029 0.018 0.061-0.089c0.05-0.067 0.106-0.131 0.168-0.191l0.098-0.089 0.202-0.156 0.091-0.067c0.067-0.051 0.122-0.095 0.176-0.144zm0.32 0.971l-0.102 0.076c-0.24 0.181-0.32 0.327-0.41 0.916-0.086 0.567-0.914 0.532-0.953-0.04-0.009-0.134-0.027-0.225-0.078-0.294l-0.044-0.048-0.042-0.031v0.844l0.867 0.446h1.524l0.867-0.447v-0.843l-0.041 0.031c-0.054 0.047-0.084 0.103-0.101 0.18l-0.015 0.084-0.007 0.079c-0.039 0.571-0.866 0.606-0.953 0.039-0.082-0.536-0.155-0.705-0.348-0.868l-0.164-0.124z" stroke-width="1" id="path_18"/><path fill="#FFFFFF" d="M205.924 74.339l-2.042-1.404v-1.668c0.715 0.166 1.519 0.233 1.598 1.113 0.249-1.255 0.698-1.903 1.405-2.391 0.706 0.488 1.155 1.136 1.405 2.391 0.078-0.88 0.882-0.947 1.599-1.113v1.668l-2.043 1.404h-1.922z" stroke-width="1" id="path_19"/><path fill="#000000" d="M206.444 69.716c-0.486 0.373-0.84 0.825-1.095 1.424l-0.031 0.076-0.034-0.02c-0.227-0.126-0.518-0.22-0.88-0.305l-0.414-0.092c-0.301-0.069-0.588 0.159-0.588 0.468v1.668c0 0.158 0.077 0.306 0.208 0.395l2.042 1.404c0.08 0.055 0.175 0.085 0.272 0.085h1.922c0.097 0 0.191-0.03 0.271-0.085l2.044-1.404c0.13-0.089 0.208-0.237 0.208-0.395v-1.668c0-0.309-0.288-0.537-0.588-0.468l-0.414 0.092c-0.363 0.085-0.654 0.179-0.881 0.304l-0.036 0.021-0.029-0.076c-0.284-0.666-0.69-1.149-1.263-1.546-0.165-0.114-0.382-0.114-0.546 0l-0.168 0.122zm0.44 0.88l0.103 0.095c0.413 0.407 0.664 0.94 0.832 1.782 0.108 0.544 0.899 0.502 0.949-0.051l0.008-0.069c0.04-0.243 0.172-0.357 0.58-0.47l0.052-0.014v0.814l-1.713 1.176h-1.622l-1.712-1.177v-0.813l0.053 0.014c0.445 0.123 0.561 0.248 0.587 0.539 0.05 0.553 0.841 0.595 0.949 0.051 0.168-0.842 0.419-1.375 0.832-1.782l0.102-0.095z" stroke-width="1" id="path_20"/><path fill="#FFFFFF" d="M205.779 78.97l-2.349-2.062v-2.451c0.823 0.244 1.748 0.343 1.838 1.634 0.287-1.843 0.804-2.795 1.615-3.513 0.813 0.718 1.33 1.67 1.616 3.512 0.091-1.291 1.015-1.39 1.837-1.634v2.451l-2.347 2.062-2.21 0.001zm4.331 2.738l-2.124 2.937h-2.404l-2.124-2.937h6.652zm-7.876 4.932c1.062 0.58 1.454 1.737 1.568 3.909h5.977c0.114-2.172 0.506-3.328 1.568-3.909h-9.113z" stroke-width="1" id="path_21"/><path fill="#000000" d="M211.347 86.16c0.497 0 0.666 0.662 0.23 0.901-0.842 0.461-1.208 1.408-1.319 3.513-0.012 0.226-0.179 0.409-0.396 0.447l-0.083 0.008h-5.977c-0.255 0-0.466-0.2-0.479-0.455-0.111-2.105-0.477-3.053-1.319-3.513-0.409-0.223-0.286-0.82 0.141-0.894l0.089-0.007h9.113zm-1.228 0.96h-6.657l0.044 0.065c0.376 0.592 0.596 1.392 0.71 2.48l0.028 0.303 0.007 0.1h5.078l0.008-0.1c0.095-1.14 0.291-1.985 0.639-2.616l0.099-0.166 0.044-0.066zm-0.009-5.892c0.364 0 0.585 0.383 0.431 0.692l-0.042 0.069-2.124 2.938c-0.072 0.1-0.179 0.167-0.298 0.19l-0.091 0.008h-2.404c-0.123 0-0.24-0.047-0.329-0.13l-0.06-0.068-2.124-2.938c-0.213-0.294-0.033-0.698 0.308-0.754l0.081-0.007h6.652zm-0.939 0.96h-4.774l1.43 1.977h1.914l1.43-1.977zm-2.606-9.969c0.182-0.161 0.454-0.161 0.636 0 0.615 0.543 1.052 1.192 1.363 2.075l0.089 0.272 0.015 0.052 0.064-0.048c0.215-0.152 0.485-0.274 0.815-0.383l0.205-0.064 0.448-0.127c0.28-0.083 0.56 0.1 0.609 0.375l0.007 0.085v2.451c0 0.11-0.038 0.216-0.106 0.301l-0.057 0.059-2.347 2.063c-0.066 0.057-0.146 0.095-0.23 0.111l-0.087 0.008-2.21 0.002c-0.087 0-0.173-0.024-0.247-0.069l-0.07-0.051-2.348-2.062c-0.083-0.073-0.138-0.172-0.157-0.279l-0.007-0.082v-2.451c0-0.32 0.309-0.551 0.616-0.46l0.262 0.073c0.442 0.121 0.796 0.249 1.075 0.415l0.133 0.086 0.063 0.048 0.016-0.052c0.258-0.846 0.618-1.488 1.115-2.022l0.171-0.174 0.164-0.152zm0.318 1.036l-0.06 0.068c-0.542 0.64-0.87 1.489-1.08 2.841-0.088 0.566-0.913 0.531-0.953-0.04-0.037-0.523-0.174-0.752-0.636-0.941l-0.123-0.047-0.121-0.041v1.595l2.048 1.8 1.849-0.001 2.049-1.8v-1.595l-0.119 0.041c-0.476 0.17-0.661 0.354-0.731 0.75l-0.017 0.114-0.011 0.125c-0.04 0.57-0.865 0.605-0.953 0.04-0.195-1.256-0.492-2.077-0.968-2.7l-0.113-0.141-0.061-0.068z" stroke-width="1" id="path_22"/><path fill="#FFFFFF" d="M211.435 81.708v-2.951c-1.009 0.278-1.663 0.875-1.954 1.686 0-0.979-1.289-3.238-2.695-4.362-1.409 1.258-2.72 3.301-2.694 4.362-0.239-0.772-0.944-1.407-1.953-1.686v2.951h9.296z" stroke-width="1" id="path_23"/><path fill="#000000" d="M206.267 75.907c-0.993 0.939-1.88 2.174-2.334 3.232l-0.035 0.085-0.03-0.033c-0.41-0.408-0.959-0.719-1.602-0.896-0.305-0.085-0.607 0.145-0.607 0.462v2.951c0 0.265 0.215 0.48 0.48 0.48h9.296c0.265 0 0.48-0.215 0.48-0.48v-2.951c0-0.317-0.302-0.547-0.607-0.462l-0.223 0.067c-0.508 0.169-0.94 0.42-1.285 0.743l-0.134 0.133-0.063-0.153c-0.515-1.18-1.513-2.576-2.517-3.379-0.183-0.146-0.445-0.139-0.619 0.017l-0.2 0.184zm0.531 0.822l0.025 0.022c1.064 1.015 2.072 2.718 2.17 3.566l0.008 0.126c0 0.539 0.75 0.669 0.932 0.163l0.061-0.153c0.178-0.398 0.47-0.718 0.875-0.951l0.086-0.045v1.771h-8.337v-1.77l0.094 0.051c0.466 0.269 0.789 0.647 0.922 1.077 0.165 0.532 0.952 0.402 0.938-0.155-0.019-0.747 0.884-2.293 2.006-3.478l0.22-0.224z" stroke-width="1" id="path_24"/><path fill="#FFFFFF" d="M211.885 86.64v-2.951c-1.106 0.278-1.822 0.875-2.142 1.686 0-0.98-1.413-3.238-2.954-4.362-1.545 1.258-2.982 3.301-2.953 4.362-0.263-0.772-1.036-1.408-2.142-1.686v2.951h10.191z" stroke-width="1" id="path_25"/><path fill="#000000" d="M206.284 80.809c-1.049 0.902-1.992 2.08-2.51 3.116l-0.131 0.282-0.097-0.094c-0.445-0.406-1.04-0.715-1.735-0.889-0.303-0.077-0.597 0.152-0.597 0.465v2.951c0 0.265 0.214 0.48 0.48 0.48h10.191c0.265 0 0.48-0.215 0.48-0.48v-2.951c0-0.312-0.294-0.542-0.597-0.465l-0.225 0.062c-0.59 0.177-1.087 0.448-1.477 0.801l-0.14 0.135-0.039-0.09c-0.545-1.21-1.678-2.678-2.815-3.507-0.176-0.129-0.417-0.122-0.586 0.015l-0.202 0.169zm0.517 0.824l0.059 0.049c1.234 1.067 2.403 2.907 2.403 3.693 0 0.53 0.732 0.669 0.926 0.176l0.068-0.153c0.221-0.448 0.603-0.8 1.148-1.041v1.803h-9.232v-1.801l0.136 0.064c0.546 0.274 0.922 0.665 1.073 1.107 0.167 0.49 0.86 0.396 0.929-0.075l0.005-0.093c-0.02-0.742 0.986-2.306 2.231-3.495l0.254-0.234z" stroke-width="1" id="path_26"/><path fill="#FFFFFF" d="M213.127 92.695v-3.404c-1.376 0.356-2.231 1.373-2.665 1.966 0-1.842-2.08-4.652-3.674-5.572-1.635 0.945-3.674 3.848-3.674 5.572-0.445-0.589-1.289-1.61-2.666-1.966v3.404h12.679z" stroke-width="1" id="path_27"/><path fill="#000000" d="M206.363 85.382c-1.422 0.916-2.934 2.95-3.499 4.645l-0.045 0.141-0.17-0.169c-0.589-0.562-1.247-0.957-2.081-1.173-0.303-0.078-0.6 0.151-0.6 0.465v3.404c0 0.265 0.215 0.48 0.48 0.48h12.679c0.265 0 0.48-0.215 0.48-0.48v-3.404c0-0.314-0.296-0.543-0.6-0.465l-0.247 0.071c-0.726 0.23-1.33 0.614-1.861 1.122l-0.138 0.137-0.048-0.155c-0.586-1.785-2.199-3.874-3.685-4.732-0.149-0.085-0.332-0.085-0.48 0l-0.185 0.113zm0.425 0.871l0.102 0.07c1.494 1.07 3.092 3.5 3.092 4.934 0 0.465 0.594 0.659 0.868 0.284l0.153-0.202c0.463-0.593 0.975-1.053 1.591-1.346l0.053-0.024v2.245h-11.719v-2.246l0.045 0.02c0.673 0.319 1.215 0.84 1.757 1.559 0.278 0.367 0.864 0.171 0.864-0.29 0-1.372 1.613-3.863 3.095-4.935l0.099-0.069z" stroke-width="1" id="path_28"/><path fill="#FFFFFF" d="M212.382 100.25v-3.499c-1.214 0.476-1.577 1.645-1.959 2.441 0.15-3.55-1.999-7.364-3.635-8.332-1.637 0.968-3.826 4.865-3.635 8.332-0.392-0.79-0.745-1.965-1.959-2.441v3.499h11.188z" stroke-width="1" id="path_29"/><path fill="#000000" d="M206.379 90.551c-1.59 1.068-3.139 3.94-3.587 6.708l-0.025 0.161-0.103-0.141c-0.344-0.442-0.756-0.764-1.295-0.975-0.315-0.124-0.655 0.109-0.655 0.447v3.499c0 0.265 0.215 0.48 0.48 0.48h11.188c0.265 0 0.48-0.215 0.48-0.48v-3.499c0-0.338-0.34-0.571-0.655-0.447l-0.198 0.085c-0.448 0.211-0.804 0.508-1.107 0.897l-0.102 0.139-0.04-0.255c-0.488-2.864-2.093-5.756-3.728-6.723-0.151-0.089-0.338-0.089-0.488 0l-0.165 0.104zm0.409 0.887l0.057 0.042c1.613 1.25 3.22 4.81 3.098 7.692-0.022 0.521 0.687 0.698 0.912 0.228l0.398-0.858 0.132-0.25c0.139-0.244 0.286-0.448 0.451-0.617l0.066-0.063v2.158h-10.229v-2.156l0.059 0.056c0.204 0.209 0.381 0.474 0.551 0.803l0.44 0.932c0.232 0.468 0.938 0.281 0.909-0.24-0.154-2.807 1.482-6.427 3.098-7.684l0.058-0.043z" stroke-width="1" id="path_30"/><path fill="#FFFFFF" d="M211.533 105.549v-3.499c-1.272 0.303-1.35 0.771-1.755 1.556 0.15-2.121-1.351-4.539-2.988-5.507-1.636 0.968-3.138 3.387-2.988 5.507-0.403-0.784-0.453-1.253-1.754-1.556v3.499h9.485z" stroke-width="1" id="path_31"/><path fill="#000000" d="M206.352 97.807c-1.345 0.882-2.461 2.524-2.871 4.189l-0.037 0.161-0.062-0.054c-0.292-0.233-0.673-0.392-1.225-0.52-0.301-0.071-0.589 0.158-0.589 0.467v3.499c0 0.265 0.215 0.48 0.48 0.48h9.485c0.265 0 0.48-0.215 0.48-0.48v-3.499c0-0.31-0.289-0.539-0.591-0.467l-0.197 0.05c-0.442 0.121-0.764 0.269-1.02 0.475l-0.067 0.057-0.039-0.17c-0.429-1.743-1.633-3.462-3.064-4.309-0.151-0.089-0.338-0.089-0.489 0l-0.194 0.121zm0.439 0.863l0.102 0.072c1.421 1.044 2.526 3.136 2.406 4.83-0.037 0.52 0.666 0.717 0.906 0.254l0.231-0.465 0.058-0.11c0.136-0.243 0.27-0.396 0.495-0.515l0.064-0.03v2.363h-8.525V102.7l0.07 0.033c0.22 0.114 0.35 0.26 0.478 0.491l0.097 0.189c0.054 0.111 0.157 0.324 0.203 0.412 0.239 0.464 0.942 0.267 0.905-0.253-0.12-1.694 0.985-3.786 2.407-4.83l0.103-0.072z" stroke-width="1" id="path_32"/><path fill="#FFFFFF" d="M256.786 118.523v-10.578c0.347-1.347 1.49-2.538 2.35-2.777v-9.311l-1.936 1.047-2.211 9.734v11.885h1.797z" stroke-width="1" id="path_33"/><path fill="#000000" d="M259.616 95.051v10.482l-0.352 0.098-0.126 0.043c-0.684 0.271-1.512 1.219-1.833 2.206l-0.038 0.133-0.001 10.99h-2.757v-12.365l0.012-0.106 2.259-9.947 2.836-1.534zm-0.96 1.611l-1.035 0.56-2.151 9.469v11.352h0.837l-0.001-10.098 0.015-0.119 0.058-0.204c0.362-1.151 1.252-2.242 2.153-2.722l0.124-0.061v-8.177z" stroke-width="1" id="path_34"/><path fill="#FFFFFF" d="M258.163 121.276c-0.896-0.404-2.2-1.511-2.2-2.624v-13.22l0.615-1.091h-22.524l0.879 1.091v13.22c0 1.113-0.895 2.22-1.79 2.624h25.02z" stroke-width="1" id="path_35"/><path fill="#000000" d="M233.051 103.861h24.348l-0.955 1.696-0.001 13.095c0 0.742 0.946 1.749 1.917 2.187l2.035 0.917H230.91l2.035-0.917 0.15-0.075c0.739-0.41 1.358-1.319 1.358-2.112v-13.053l-1.402-1.738zm22.706 0.959h-20.699l0.355 0.443v13.389l-0.007 0.187c-0.051 0.686-0.375 1.379-0.847 1.935l-0.021 0.022h22.069l-0.095-0.09c-0.608-0.604-1.029-1.343-1.029-2.054v-13.346l0.274-0.486z" stroke-width="1" id="path_36"/><path fill="#000000" d="M236.791 103.86l17.758 0.001-2.617 2.427v12.364c0 0.742 0.946 1.749 1.917 2.187l2.035 0.917h-7.408v0.002h-5.608l-0.001-0.002h-7.412l2.035-0.917 0.171-0.083c0.909-0.473 1.746-1.406 1.746-2.104v-12.365l-2.616-2.427zm2.445 0.959l1.131 1.05v12.783l-0.007 0.165c-0.059 0.659-0.46 1.331-1.021 1.889l-0.095 0.09h0.48l0.085-0.04c0.908-0.473 1.746-1.406 1.746-2.104l0.001-11.213-1.674-2.372h11.58l-1.671 2.37-0.001 11.215c0 0.72 0.89 1.689 1.829 2.146l0.477-0.002-0.096-0.09c-0.607-0.604-1.028-1.343-1.028-2.054v-12.783l1.131-1.049-12.867-0.001zm3.631 1.207h-1.132l0.78 1.107v11.519l-0.008 0.165c-0.058 0.659-0.46 1.331-1.021 1.889l-0.094 0.09h1.475v-14.77zm4.65 0.003h-3.688l-0.001 14.767h3.688l0.001-14.767zm2.095-0.003h-1.136v14.77h1.478l-0.096-0.09c-0.608-0.604-1.028-1.343-1.028-2.054v-11.519l0.782-1.107zm4.708 3.432l0.48 0.48v8.536l-0.48 0.48h-1.856l-0.48-0.48v-8.536l0.48-0.48h1.856zm-15.913 0l0.48 0.48v8.536l-0.48 0.48h-1.856l-0.48-0.48v-8.536l0.48-0.48h1.856zm15.434 0.959h-0.896v7.576h0.896v-7.576zm-15.914 0h-0.896v7.576h0.896v-7.576z" stroke-width="1" id="path_37"/><path fill="#FFFFFF" d="M255.904 95.541h-2.236v8.751h2.236z" stroke-width="1" id="path_38"/><path fill="#000000" d="M253.668 95.061h2.236l0.48 0.48v8.751l-0.48 0.48h-2.236l-0.48-0.48v-8.751l0.48-0.48zm0.481 0.959v7.791h1.275V96.02h-1.275z" stroke-width="1" id="path_39"/><path fill="#FFFFFF" d="M255.904 93.895h-2.223v1.625h2.223z" stroke-width="1" id="path_40"/><path fill="#000000" d="M253.681 93.415h2.223l0.48 0.48v1.625l-0.48 0.48h-2.223l-0.48-0.48v-1.625l0.48-0.48zm0.481 0.96v0.665h1.262v-0.665h-1.262z" stroke-width="1" id="path_41"/><path fill="#FFFFFF" d="M237.517 97.425h-3.188v6.755h3.188z" stroke-width="1" id="path_42"/><path fill="#000000" d="M234.329 96.908h3.188l0.517 0.517v6.755l-0.517 0.517h-3.188l-0.517-0.517v-6.755l0.517-0.517zm0.518 1.033v5.721H237v-5.721h-2.153z" stroke-width="1" id="path_43"/><path fill="#FFFFFF" d="M257.206 92.912v11.426h-1.299V92.883c0.468-0.237 0.908-0.273 1.299 0.029z" stroke-width="1" id="path_44"/><path fill="#000000" d="M257.686 92.676v12.142h-2.259v-12.23l0.263-0.133c0.654-0.331 1.277-0.334 1.809 0.077l0.187 0.144zm-1.298 0.53v10.652h0.339V93.196l-0.062-0.014c-0.06-0.01-0.123-0.008-0.192 0.004l-0.085 0.02z" stroke-width="1" id="path_45"/><path fill="#FFFFFF" d="M257.165 100.307c-1.611 0.823-3.206 1.777-3.61 4.033h3.61v-4.033z" stroke-width="1" id="path_46"/><path fill="#000000" d="M257.738 99.523v5.297h-4.663l0.101-0.565c0.361-2.014 1.405-3.079 3.596-4.236l0.966-0.496zm-0.959 4.336v-2.749l-0.046 0.025c-1.378 0.79-2.114 1.534-2.466 2.681l-0.012 0.043h2.524z" stroke-width="1" id="path_47"/><path fill="#FFFFFF" d="M234.826 96.886v7.456h-1.294v-7.474c0.404-0.154 0.956-0.179 1.294 0.018z" stroke-width="1" id="path_48"/><path fill="#000000" d="M235.306 96.611v8.211h-2.254v-8.285l0.309-0.118c0.558-0.213 1.247-0.215 1.707 0.053l0.238 0.139zm-1.293 0.629v6.621h0.333v-6.628l-0.037-0.004c-0.075-0.006-0.156-0.005-0.238 0.003l-0.058 0.008z" stroke-width="1" id="path_49"/><path fill="#FFFFFF" d="M233.77 100.25c1.611 0.823 3.206 1.777 3.61 4.033h-3.61v-4.033z" stroke-width="1" id="path_50"/><path fill="#000000" d="M233.989 99.823c2.374 1.213 3.488 2.281 3.863 4.375 0.053 0.295-0.173 0.565-0.472 0.565h-3.61c-0.265 0-0.48-0.215-0.48-0.48v-4.033c0-0.359 0.379-0.591 0.699-0.427zm0.262 1.23v2.749h2.524l-0.013-0.043c-0.33-1.075-0.998-1.797-2.216-2.533l-0.295-0.173z" stroke-width="1" id="path_51"/><path fill="#FFFFFF" d="M253.704 104.225V89.248c-0.637 0-0.736 2.194-2.199 2.194-0.761 0-0.68-0.908-0.253-1.649 0.379-0.656 0.848-1.562 0.211-3.25-0.437 1.292-1.611 1.702-1.394 0.892 0.373-1.391 1.446-1.62 0.642-3.779-0.281 1.801-1.436 1.722-1.155 0.675 0.315-1.18 0.969-1.663 0.163-3.327-0.452 1.889-1.062 1.778-1.062 0.606 0-1.732 0.066-3.6-2.175-4.293 0 0-0.129-1.588-0.938-1.588-0.808 0-0.938 1.588-0.938 1.588-2.241 0.694-2.174 2.562-2.174 4.293 0 1.172-0.611 1.284-1.062-0.605-0.806 1.663-0.153 2.146 0.163 3.326 0.281 1.047-0.875 1.127-1.154-0.675-0.805 2.159 0.268 2.388 0.641 3.779 0.217 0.81-0.957 0.4-1.394-0.891-0.636 1.687-0.168 2.593 0.211 3.25 0.427 0.74 0.509 1.649-0.254 1.649-1.462 0-1.56-2.194-2.198-2.194v14.977l16.319-0.001z" stroke-width="1" id="path_52"/><path fill="#000000" d="M245.544 75.249c0.621 0 1.002 0.451 1.227 1.121l0.062 0.204c0.037 0.133 0.065 0.263 0.087 0.385l0.091 0.034c1.589 0.626 2.078 1.786 2.123 3.865l0.003 0.459 0.036-0.121c0.027-0.094 0.053-0.195 0.079-0.303 0.105-0.439 0.702-0.504 0.899-0.098l0.101 0.217c0.374 0.85 0.418 1.481 0.213 2.178l-0.022 0.067 0.039-0.025c0.238-0.125 0.574-0.045 0.682 0.265l0.079 0.224 0.071 0.228c0.261 0.885 0.22 1.493-0.077 2.148l-0.015 0.031 0.013-0.008c0.239-0.127 0.574-0.038 0.681 0.263l0.079 0.225c0.477 1.43 0.307 2.327-0.327 3.425-0.175 0.304-0.27 0.624-0.256 0.83l0.007 0.073c0.007 0.029 0.025 0.026 0.086 0.026 0.366 0 0.624-0.206 0.901-0.687l0.083-0.153c0.049-0.093 0.274-0.557 0.339-0.675 0.238-0.438 0.474-0.679 0.876-0.679 0.265 0 0.48 0.215 0.48 0.48v14.977c0 0.265-0.215 0.479-0.48 0.479l-16.319 0.002c-0.265 0-0.48-0.215-0.48-0.48V89.249c0-0.265 0.215-0.48 0.48-0.48 0.403 0 0.638 0.241 0.877 0.679l0.338 0.676c0.309 0.59 0.581 0.839 0.983 0.839 0.093 0 0.087 0.006 0.094-0.099 0.012-0.176-0.055-0.437-0.186-0.699l-0.07-0.131c-0.668-1.16-0.825-2.119-0.244-3.659l0.041-0.084c0.124-0.206 0.371-0.271 0.575-0.198l0.073 0.032-0.014-0.027c-0.346-0.765-0.346-1.476 0.077-2.609l0.041-0.086c0.141-0.235 0.436-0.282 0.648-0.165l0.027 0.018 0.035 0.11c-0.287-0.828-0.245-1.534 0.258-2.571 0.197-0.405 0.794-0.34 0.899 0.098l0.079 0.303 0.036 0.121v-0.254l0.004-0.241c0.048-2.049 0.543-3.207 2.124-3.829l0.089-0.034c0.032-0.182 0.079-0.384 0.148-0.589 0.226-0.67 0.607-1.121 1.227-1.121zm0 0.96c-0.086 0-0.209 0.145-0.317 0.467-0.085 0.254-0.129 0.517-0.142 0.68-0.016 0.196-0.15 0.362-0.337 0.42-1.448 0.448-1.822 1.301-1.836 3.293v0.541l-0.003 0.161c-0.055 1.404-0.83 1.531-1.445 0.671l0.004 0.094c0.016 0.168 0.056 0.335 0.119 0.516l0.192 0.503c0.094 0.245 0.16 0.439 0.217 0.652 0.214 0.794-0.201 1.513-0.95 1.32l-0.111-0.036c-0.11-0.044-0.213-0.108-0.31-0.19l-0.038-0.037 0.014 0.077c0.047 0.202 0.134 0.399 0.257 0.619l0.172 0.3c0.221 0.387 0.354 0.68 0.454 1.051 0.219 0.818-0.445 1.243-1.133 0.895l-0.132-0.075c-0.131-0.083-0.258-0.188-0.378-0.311l-0.044-0.049-0.013 0.141c-0.03 0.509 0.095 0.939 0.351 1.429l0.118 0.213c0.263 0.456 0.41 0.956 0.382 1.374-0.039 0.588-0.43 0.995-1.052 0.995l-0.166-0.006c-0.647-0.051-1.096-0.406-1.48-1.02l-0.072-0.121v12.969l15.359-0.001V90.775l-0.072 0.121c-0.416 0.665-0.909 1.026-1.647 1.026-0.621 0-1.011-0.407-1.051-0.995-0.024-0.366 0.085-0.794 0.29-1.201l0.189-0.346c0.274-0.51 0.404-0.946 0.369-1.472l-0.013-0.136-0.065 0.071c-0.17 0.17-0.354 0.303-0.54 0.388-0.677 0.308-1.288-0.141-1.079-0.92 0.08-0.298 0.181-0.544 0.332-0.83l0.294-0.521 0.075-0.14c0.093-0.183 0.158-0.351 0.192-0.524l0.006-0.033-0.011 0.011c-0.154 0.141-0.326 0.232-0.512 0.266-0.723 0.131-1.094-0.567-0.889-1.333 0.043-0.16 0.091-0.309 0.152-0.477l0.232-0.607 0.068-0.205c0.039-0.131 0.065-0.256 0.076-0.383l0.005-0.093c-0.638 0.892-1.448 0.722-1.448-0.832v-0.505c-0.011-2.025-0.379-2.879-1.837-3.329-0.187-0.058-0.32-0.224-0.336-0.42-0.014-0.163-0.057-0.426-0.143-0.68-0.108-0.322-0.23-0.467-0.317-0.467z" stroke-width="1" id="path_53"/><path fill="#FFFFFF" d="M244.42 82.836l-0.938-0.789v-1.011c0.343 0.034 0.531 0.152 0.784 0.485 0.216-0.67 0.691-1.193 1.326-1.518 0.637 0.325 1.111 0.824 1.326 1.494 0.254-0.333 0.441-0.427 0.785-0.461v1.011l-0.939 0.789h-2.344z" stroke-width="1" id="path_54"/><path fill="#000000" d="M246 81.738c0.426 0.253 0.775 0.578 1.031 0.966l0.052 0.084 0.01-0.005c0.163-0.083 0.344-0.13 0.563-0.152 0.282-0.028 0.527 0.194 0.527 0.478v1.314l-0.044 0.202-0.437 0.944c-0.078 0.17-0.248 0.278-0.435 0.278h-3.349c-0.187 0-0.357-0.109-0.435-0.279l-0.437-0.944-0.044-0.202v-1.314c0-0.284 0.246-0.506 0.528-0.478l0.156 0.022c0.149 0.027 0.28 0.072 0.402 0.137l0.02 0.012 0.05-0.083c0.294-0.452 0.708-0.822 1.214-1.084 0.138-0.071 0.303-0.071 0.441 0L246 81.738zm-0.405 0.878l-0.116 0.079c-0.361 0.269-0.62 0.627-0.755 1.05l-0.033 0.08c-0.132 0.252-0.455 0.328-0.684 0.179l-0.044-0.035v0.347l0.263 0.57 2.735 0.001 0.263-0.569v-0.373l-0.046 0.036c-0.252 0.162-0.617 0.054-0.717-0.26-0.131-0.414-0.385-0.759-0.75-1.025l-0.116-0.08z" stroke-width="1" id="path_55"/><path fill="#FFFFFF" d="M243.851 88.798l-1.394-1.701v-1.678c0.51 0.056 0.788 0.26 1.165 0.831 0.321-1.15 1.025-1.402 1.97-1.96 0.944 0.558 1.649 0.769 1.969 1.919 0.377-0.571 0.655-0.733 1.165-0.79v1.678l-1.394 1.701h-3.481z" stroke-width="1" id="path_56"/><path fill="#000000" d="M245.836 83.877l0.705 0.399 0.17 0.101c0.438 0.271 0.748 0.546 0.975 0.906l0.018 0.031 0.069-0.054c0.252-0.183 0.534-0.277 0.899-0.318 0.284-0.033 0.534 0.19 0.534 0.477v1.678c0 0.111-0.039 0.218-0.109 0.304l-1.394 1.701c-0.091 0.111-0.227 0.176-0.371 0.176h-3.481c-0.144 0-0.28-0.065-0.371-0.176l-1.395-1.701c-0.07-0.086-0.108-0.193-0.108-0.304v-1.678c0-0.287 0.248-0.509 0.533-0.477l0.16 0.023c0.311 0.055 0.562 0.167 0.793 0.359l0.021 0.018 0.021-0.035c0.228-0.364 0.539-0.646 0.976-0.925l0.195-0.119c0.099-0.059 0.548-0.313 0.672-0.386 0.15-0.089 0.337-0.089 0.488 0zm-0.243 0.966l-0.429 0.247c-0.646 0.381-0.907 0.668-1.08 1.289-0.11 0.396-0.636 0.479-0.863 0.135l-0.088-0.129-0.107-0.142-0.05-0.06-0.039-0.041v0.783l1.142 1.392h3.026l1.141-1.392v-0.813l-0.052 0.052c-0.072 0.077-0.146 0.178-0.232 0.309-0.227 0.344-0.753 0.261-0.863-0.135-0.154-0.552-0.373-0.824-0.89-1.142l-0.616-0.353z" stroke-width="1" id="path_57"/><path fill="#FFFFFF" d="M243.442 92.167s-1.625-1.418-1.721-2.197v-1.794c0.629 0.074 1.225 0.237 1.69 0.974 0.396-1.485 1.015-1.899 2.18-2.619 1.166 0.72 1.784 1.134 2.18 2.619 0.465-0.737 1.061-0.9 1.69-0.974v1.793c-0.205 0.779-1.721 2.197-1.721 2.197l-4.298 0.001z" stroke-width="1" id="path_58"/><path fill="#000000" d="M246.055 86.255c1.026 0.65 1.533 1.11 1.877 1.88l0.034 0.079 0.114-0.083c0.362-0.243 0.791-0.369 1.325-0.432 0.286-0.033 0.536 0.189 0.536 0.477v1.793l-0.015 0.123c-0.079 0.299-0.276 0.634-0.57 1.018-0.114 0.151-0.243 0.306-0.383 0.466-0.198 0.226-0.409 0.45-0.62 0.662l-0.285 0.278c-0.089 0.083-0.206 0.13-0.328 0.13l-4.298 0.001c-0.116 0-0.228-0.042-0.315-0.119l-0.284-0.26c-0.21-0.199-0.421-0.41-0.618-0.625-0.167-0.183-0.318-0.361-0.448-0.533-0.304-0.4-0.492-0.751-0.533-1.08l-0.003-1.854c0-0.287 0.25-0.51 0.535-0.476l0.196 0.026c0.445 0.069 0.813 0.193 1.13 0.405l0.115 0.083 0.033-0.079c0.367-0.821 0.919-1.29 2.089-2.013 0.154-0.095 0.35-0.095 0.504 0l0.212 0.133zm-0.464 0.842l-0.14 0.09c-1.019 0.664-1.298 1.044-1.576 2.087-0.108 0.405-0.646 0.487-0.87 0.132l-0.079-0.118c-0.189-0.261-0.398-0.418-0.684-0.516l-0.041-0.012v1.21c0.011 0.058 0.131 0.284 0.34 0.56 0.112 0.146 0.244 0.302 0.392 0.465 0.121 0.131 0.247 0.261 0.376 0.388l0.318 0.303 3.921-0.001 0.125-0.124c0.197-0.199 0.395-0.408 0.578-0.617 0.127-0.145 0.242-0.284 0.343-0.417l0.09-0.121c0.143-0.198 0.242-0.367 0.29-0.49l0.008-0.022v-1.135l-0.042 0.013c-0.327 0.112-0.553 0.301-0.763 0.635-0.224 0.354-0.762 0.272-0.87-0.133-0.278-1.043-0.557-1.423-1.576-2.087l-0.14-0.09z" stroke-width="1" id="path_59"/><path fill="#FFFFFF" d="M242.749 98.387s-2.225-2.463-2.277-3.424v-2.797c0.833 0.115 1.621 0.688 2.236 1.837 0.523-2.315 1.34-3.93 2.882-5.053 1.542 1.123 2.36 2.738 2.882 5.053 0.616-1.15 1.404-1.723 2.237-1.838v2.798c-0.159 0.96-2.277 3.424-2.277 3.424h-5.683z" stroke-width="1" id="path_60"/><path fill="#000000" d="M246.084 88.722c1.177 0.926 1.962 2.156 2.508 3.877l0.078 0.254 0.063-0.076c0.549-0.62 1.196-0.989 1.91-1.087 0.289-0.04 0.546 0.184 0.546 0.475v2.798c-0.077 0.502-0.385 1.069-0.888 1.797-0.106 0.153-0.22 0.311-0.34 0.473-0.17 0.23-0.347 0.462-0.528 0.689l-0.272 0.339c-0.163 0.2-0.291 0.352-0.365 0.438-0.091 0.107-0.224 0.168-0.364 0.168h-5.683c-0.136 0-0.265-0.057-0.356-0.158l-0.366-0.419c-0.272-0.32-0.544-0.655-0.799-0.99l-0.269-0.363-0.125-0.176c-0.518-0.742-0.817-1.321-0.841-1.772l-0.001-2.823c0-0.292 0.257-0.516 0.546-0.476l0.193 0.034c0.638 0.134 1.218 0.49 1.717 1.054l0.063 0.074 0.077-0.254c0.579-1.822 1.425-3.094 2.719-4.036 0.169-0.123 0.397-0.123 0.566 0l0.211 0.16zm-0.494 0.836l-0.094 0.077c-1.143 0.983-1.843 2.364-2.32 4.474-0.098 0.433-0.682 0.512-0.892 0.12l-0.113-0.201c-0.347-0.585-0.743-0.981-1.173-1.199l-0.046-0.022v2.156c0.01 0.182 0.255 0.655 0.669 1.249l0.241 0.334 0.13 0.172c0.162 0.213 0.332 0.427 0.506 0.638l0.468 0.551 5.244-0.001 0.207-0.252c0.264-0.323 0.527-0.66 0.772-0.991 0.114-0.155 0.222-0.305 0.322-0.45l0.111-0.163c0.357-0.532 0.578-0.952 0.614-1.166l-0.005-2.079-0.048 0.023c-0.477 0.243-0.914 0.705-1.287 1.402-0.21 0.392-0.794 0.313-0.892-0.121-0.476-2.109-1.176-3.49-2.32-4.473l-0.094-0.078z" stroke-width="1" id="path_61"/><path fill="#FFFFFF" d="M242.749 102.067s-1.902-1.937-2.277-2.777v-2.798c0.833 0.115 1.621 0.688 2.236 1.837 0.523-2.315 1.34-3.641 2.882-4.764 1.542 1.123 2.36 2.449 2.882 4.765 0.616-1.151 1.404-1.724 2.237-1.838v2.797c-0.483 0.841-2.277 2.777-2.277 2.777l-5.683 0.001z" stroke-width="1" id="path_62"/><path fill="#000000" d="M246.093 93.343c1.223 0.947 1.992 2.053 2.516 3.659l0.057 0.182 0.067-0.081c0.549-0.62 1.196-0.988 1.91-1.087 0.289-0.04 0.546 0.184 0.546 0.476v2.797c0 0.084-0.022 0.166-0.064 0.239-0.154 0.269-0.419 0.63-0.778 1.071l-0.351 0.423c-0.177 0.209-0.362 0.422-0.549 0.635l-0.663 0.735c-0.091 0.098-0.218 0.154-0.352 0.154l-5.683 0.001c-0.129 0-0.252-0.052-0.343-0.144l-0.372-0.39c-0.279-0.295-0.557-0.601-0.818-0.901l-0.27-0.317c-0.453-0.543-0.766-0.981-0.913-1.31l-0.041-0.195v-2.798c0-0.291 0.257-0.515 0.546-0.475l0.193 0.033c0.638 0.135 1.218 0.491 1.717 1.054l0.067 0.079 0.057-0.181c0.555-1.701 1.384-2.841 2.735-3.825 0.169-0.123 0.397-0.123 0.566 0l0.22 0.166zm-0.503 0.826l-0.114 0.092c-1.197 0.993-1.852 2.19-2.3 4.174-0.098 0.433-0.682 0.512-0.892 0.121l-0.113-0.202c-0.347-0.584-0.743-0.98-1.173-1.199l-0.046-0.022v2.044l0.05 0.089c0.117 0.195 0.307 0.454 0.554 0.758l0.128 0.156c0.081 0.098 0.167 0.199 0.257 0.302 0.168 0.193 0.344 0.389 0.522 0.584l0.49 0.52h5.268l0.228-0.252c0.185-0.207 0.371-0.416 0.55-0.624l0.45-0.53 0.147-0.179c0.236-0.291 0.428-0.542 0.563-0.74l0.071-0.107v-2.021l-0.047 0.021c-0.478 0.243-0.914 0.705-1.287 1.402-0.21 0.392-0.794 0.313-0.892-0.121-0.447-1.983-1.103-3.18-2.3-4.174l-0.114-0.092z" stroke-width="1" id="path_63"/><path fill="#FFFFFF" d="M241.983 104.204c0.555-2.416 1.033-4.207 3.707-6.024 2.674 1.817 3.151 3.608 3.707 6.024h-7.414z" stroke-width="1" id="path_64"/><path fill="#000000" d="M245.96 97.783c2.414 1.64 3.144 3.003 3.905 6.313 0.069 0.301-0.16 0.588-0.468 0.588h-7.414c-0.309 0-0.537-0.287-0.468-0.588 0.761-3.31 1.491-4.673 3.905-6.313 0.163-0.111 0.377-0.111 0.54 0zm-0.269 0.982l-0.16 0.114c-1.627 1.194-2.27 2.276-2.857 4.519l-0.082 0.325h6.197l-0.007-0.025c-0.609-2.449-1.235-3.573-2.933-4.819l-0.158-0.114z" stroke-width="1" id="path_65"/><path fill="#FFFFFF" d="M240.606 105.549v-3.499c1.215 0.476 2.312 1.18 2.717 1.964 0.452-1.943 1.323-2.799 2.408-3.975 1.085 1.176 1.811 2.032 2.264 3.975 0.404-0.784 1.502-1.488 2.717-1.964v3.499h-10.106z" stroke-width="1" id="path_66"/><path fill="#000000" d="M246.314 99.967c0.965 1.07 1.481 1.822 1.846 2.869l0.048 0.144 0.121-0.112c0.558-0.485 1.322-0.918 2.208-1.265 0.314-0.123 0.655 0.109 0.655 0.447v3.499c0 0.265-0.215 0.48-0.48 0.48h-10.106c-0.265 0-0.48-0.215-0.48-0.48v-3.499c0-0.338 0.341-0.57 0.656-0.447l0.262 0.107c0.774 0.327 1.443 0.721 1.945 1.159l0.132 0.12 0.069-0.188c0.326-0.844 0.787-1.532 1.477-2.311l0.711-0.776c0.19-0.206 0.515-0.206 0.705 0l0.231 0.253zm-0.501 0.88l-0.086-0.097-0.341 0.377c-0.867 0.978-1.306 1.752-1.595 2.995-0.101 0.435-0.689 0.509-0.894 0.112l-0.071-0.122c-0.261-0.404-0.781-0.821-1.466-1.189l-0.273-0.14v2.286h9.145v-2.286l-0.04 0.02c-0.873 0.431-1.52 0.945-1.771 1.431-0.204 0.397-0.792 0.324-0.894-0.111-0.328-1.407-0.713-2.134-1.714-3.276z" stroke-width="1" id="path_67"/><path fill="#FFFFFF" d="M157.034 118.523v-10.578c-0.347-1.347-1.49-2.538-2.349-2.777v-9.311l1.935 1.047 2.211 9.734v11.885h-1.797z" stroke-width="1" id="path_68"/><path fill="#000000" d="M154.205 95.051v10.482l0.351 0.098 0.127 0.043c0.683 0.271 1.512 1.219 1.832 2.206l0.038 0.133 0.001 10.99h2.757v-12.365l-0.012-0.106-2.259-9.947-2.835-1.534zm0.959 1.611l1.035 0.56 2.151 9.469v11.352h-0.837l0.001-10.098-0.015-0.119-0.058-0.204c-0.362-1.151-1.252-2.242-2.153-2.722l-0.124-0.061v-8.177z" stroke-width="1" id="path_69"/><path fill="#FFFFFF" d="M155.658 121.276c0.895-0.404 2.199-1.511 2.199-2.624v-13.22l-0.614-1.091h22.523l-0.879 1.091v13.22c0 1.113 0.895 2.22 1.791 2.624h-25.02z" stroke-width="1" id="path_70"/><path fill="#000000" d="M180.769 103.861h-24.347l0.954 1.696 0.001 13.095c0 0.742-0.946 1.749-1.917 2.187l-2.035 0.917h29.485l-2.035-0.917-0.149-0.075c-0.74-0.41-1.359-1.319-1.359-2.112v-13.053l1.402-1.738zm-22.706 0.959h20.699l-0.355 0.443v13.389l0.007 0.187c0.051 0.686 0.375 1.379 0.848 1.935l0.02 0.022h-22.069l0.096-0.09c0.607-0.604 1.028-1.343 1.028-2.054v-13.346l-0.274-0.486z" stroke-width="1" id="path_71"/><path fill="#000000" d="M177.029 103.86l-17.758 0.001 2.617 2.427v12.364c0 0.742-0.946 1.749-1.917 2.187l-2.035 0.917h7.408v0.002h5.608l0.001-0.002h7.412l-2.035-0.917-0.171-0.083c-0.908-0.473-1.746-1.406-1.746-2.104v-12.365l2.616-2.427zm-2.445 0.959l-1.131 1.05v12.783l0.007 0.165c0.059 0.659 0.46 1.331 1.021 1.889l0.095 0.09h-0.48l-0.085-0.04c-0.908-0.473-1.746-1.406-1.746-2.104v-11.213l1.673-2.372h-11.58l1.672 2.37v11.215c0 0.72-0.889 1.689-1.829 2.146l-0.477-0.002 0.096-0.09c0.607-0.604 1.028-1.343 1.028-2.054v-12.783l-1.131-1.049 12.867-0.001zm-3.631 1.207h1.133l-0.781 1.107v11.519l0.008 0.165c0.058 0.659 0.46 1.331 1.021 1.889l0.095 0.09h-1.476v-14.77zm-4.649 0.003h3.688v14.767h-3.688v-14.767zm-2.095-0.003h1.135v14.77h-1.477l0.095-0.09c0.608-0.604 1.028-1.343 1.028-2.054v-11.519l-0.781-1.107zm-4.709 3.432l-0.48 0.48v8.536l0.48 0.48h1.856l0.48-0.48v-8.536l-0.48-0.48H159.5zm15.913 0l-0.48 0.48v8.536l0.48 0.48h1.856l0.48-0.48v-8.536l-0.48-0.48h-1.856zm-15.433 0.959h0.896v7.576h-0.896v-7.576zm15.913 0h0.896v7.576h-0.896v-7.576z" stroke-width="1" id="path_72"/><path fill="#FFFFFF" d="M157.916 95.541h2.236v8.751h-2.236z" stroke-width="1" id="path_73"/><path fill="#000000" d="M160.152 95.061h-2.236l-0.48 0.48v8.751l0.48 0.48h2.236l0.48-0.48v-8.751l-0.48-0.48zm-0.481 0.959v7.791h-1.275V96.02h1.275z" stroke-width="1" id="path_74"/><path fill="#FFFFFF" d="M157.916 93.895h2.223v1.625h-2.223z" stroke-width="1" id="path_75"/><path fill="#000000" d="M160.139 93.415h-2.223l-0.48 0.48v1.625l0.48 0.48h2.223l0.48-0.48v-1.625l-0.48-0.48zm-0.481 0.96v0.665h-1.262v-0.665h1.262z" stroke-width="1" id="path_76"/><path fill="#FFFFFF" d="M176.303 97.425h3.188v6.755h-3.188z" stroke-width="1" id="path_77"/><path fill="#000000" d="M179.491 96.908h-3.188l-0.517 0.517v6.755l0.517 0.517h3.188l0.517-0.517v-6.755l-0.517-0.517zm-0.518 1.033v5.721h-2.153v-5.721h2.153z" stroke-width="1" id="path_78"/><path fill="#FFFFFF" d="M156.614 92.912v11.426h1.299V92.883c-0.467-0.237-0.907-0.273-1.299 0.029z" stroke-width="1" id="path_79"/><path fill="#000000" d="M156.134 92.676v12.142h2.259v-12.23l-0.263-0.133c-0.654-0.331-1.277-0.334-1.809 0.077l-0.187 0.144zm1.299 0.53v10.652h-0.339V93.196l0.061-0.014c0.06-0.01 0.124-0.008 0.192 0.004l0.086 0.02z" stroke-width="1" id="path_80"/><path fill="#FFFFFF" d="M156.655 100.307c1.611 0.823 3.206 1.777 3.61 4.033h-3.61v-4.033z" stroke-width="1" id="path_81"/><path fill="#000000" d="M156.082 99.523v5.297h4.663l-0.101-0.565c-0.36-2.014-1.405-3.079-3.595-4.236l-0.967-0.496zm0.96 4.336v-2.749l0.045 0.025c1.378 0.79 2.114 1.534 2.467 2.681l0.012 0.043h-2.524z" stroke-width="1" id="path_82"/><path fill="#FFFFFF" d="M178.994 96.886v7.456h1.294v-7.474c-0.404-0.154-0.956-0.179-1.294 0.018z" stroke-width="1" id="path_83"/><path fill="#000000" d="M178.514 96.611v8.211h2.254v-8.285l-0.309-0.118c-0.558-0.213-1.247-0.215-1.706 0.053l-0.239 0.139zm1.293 0.629v6.621h-0.333v-6.628l0.038-0.004c0.074-0.006 0.155-0.005 0.237 0.003l0.058 0.008z" stroke-width="1" id="path_84"/><path fill="#FFFFFF" d="M180.05 100.25c-1.611 0.823-3.206 1.777-3.61 4.033h3.61v-4.033z" stroke-width="1" id="path_85"/><path fill="#000000" d="M179.832 99.823c-2.374 1.213-3.489 2.281-3.864 4.375-0.053 0.295 0.174 0.565 0.473 0.565h3.609c0.265 0 0.48-0.215 0.48-0.48v-4.033c0-0.359-0.379-0.591-0.698-0.427zm-0.263 1.23v2.749h-2.524l0.013-0.043c0.33-1.075 0.998-1.797 2.216-2.533l0.295-0.173z" stroke-width="1" id="path_86"/><path fill="#FFFFFF" d="M160.116 104.225V89.248c0.637 0 0.736 2.194 2.199 2.194 0.761 0 0.68-0.908 0.253-1.649-0.379-0.656-0.847-1.562-0.211-3.25 0.437 1.292 1.611 1.702 1.394 0.892-0.372-1.391-1.446-1.62-0.641-3.779 0.28 1.801 1.435 1.722 1.155 0.675-0.316-1.18-0.97-1.663-0.164-3.327 0.452 1.889 1.062 1.778 1.062 0.606 0-1.732-0.066-3.6 2.175-4.293 0 0 0.129-1.588 0.938-1.588 0.808 0 0.938 1.588 0.938 1.588 2.241 0.694 2.175 2.562 2.175 4.293 0 1.172 0.61 1.284 1.061-0.605 0.807 1.663 0.153 2.146-0.163 3.326-0.281 1.047 0.875 1.127 1.154-0.675 0.806 2.159-0.268 2.388-0.641 3.779-0.217 0.81 0.957 0.4 1.394-0.891 0.636 1.687 0.168 2.593-0.211 3.25-0.427 0.74-0.508 1.649 0.254 1.649 1.462 0 1.561-2.194 2.198-2.194v14.977l-16.319-0.001z" stroke-width="1" id="path_87"/><path fill="#000000" d="M168.276 75.249c-0.621 0-1.002 0.451-1.227 1.121l-0.062 0.204c-0.037 0.133-0.065 0.263-0.087 0.385l-0.09 0.034c-1.59 0.626-2.079 1.786-2.123 3.865l-0.004 0.459-0.036-0.121c-0.026-0.094-0.053-0.195-0.079-0.303-0.105-0.439-0.702-0.504-0.899-0.098l-0.101 0.217c-0.374 0.85-0.418 1.481-0.213 2.178l0.022 0.067-0.039-0.025c-0.238-0.125-0.574-0.045-0.682 0.265l-0.079 0.224-0.071 0.228c-0.26 0.885-0.22 1.493 0.077 2.148l0.015 0.031-0.012-0.008c-0.24-0.127-0.574-0.038-0.681 0.263l-0.08 0.225c-0.477 1.43-0.307 2.327 0.327 3.425 0.176 0.304 0.27 0.624 0.256 0.83l-0.007 0.073c-0.007 0.029-0.025 0.026-0.086 0.026-0.366 0-0.624-0.206-0.9-0.687l-0.084-0.153c-0.049-0.093-0.274-0.557-0.338-0.675-0.239-0.438-0.475-0.679-0.877-0.679-0.265 0-0.48 0.215-0.48 0.48v14.977c0 0.265 0.215 0.479 0.48 0.479l16.319 0.002c0.265 0 0.48-0.215 0.48-0.48V89.249c0-0.265-0.215-0.48-0.48-0.48-0.402 0-0.638 0.241-0.877 0.679l-0.338 0.676c-0.309 0.59-0.581 0.839-0.983 0.839-0.093 0-0.087 0.006-0.094-0.099-0.012-0.176 0.056-0.437 0.186-0.699l0.07-0.131c0.669-1.16 0.825-2.119 0.244-3.659l-0.041-0.084c-0.124-0.206-0.371-0.271-0.574-0.198l-0.074 0.032 0.014-0.027c0.346-0.765 0.346-1.476-0.077-2.609l-0.041-0.086c-0.141-0.235-0.436-0.282-0.648-0.165l-0.027 0.018-0.035 0.11c0.287-0.828 0.245-1.534-0.258-2.571-0.196-0.405-0.794-0.34-0.898 0.098l-0.08 0.303-0.036 0.121v-0.254l-0.004-0.241c-0.048-2.049-0.543-3.207-2.124-3.829l-0.089-0.034c-0.032-0.182-0.079-0.384-0.148-0.589-0.226-0.67-0.606-1.121-1.227-1.121zm0 0.96c0.086 0 0.209 0.145 0.317 0.467 0.085 0.254 0.129 0.517 0.143 0.68 0.016 0.196 0.149 0.362 0.336 0.42 1.448 0.448 1.822 1.301 1.836 3.293l0.001 0.541 0.003 0.161c0.054 1.404 0.829 1.531 1.444 0.671l-0.004 0.094c-0.015 0.168-0.056 0.335-0.119 0.516l-0.192 0.503c-0.094 0.245-0.16 0.439-0.217 0.652-0.214 0.794 0.201 1.513 0.95 1.32l0.112-0.036c0.109-0.044 0.213-0.108 0.309-0.19l0.038-0.037-0.014 0.077c-0.046 0.202-0.133 0.399-0.257 0.619l-0.172 0.3c-0.221 0.387-0.354 0.68-0.454 1.051-0.218 0.818 0.446 1.243 1.133 0.895l0.132-0.075c0.131-0.083 0.258-0.188 0.378-0.311l0.044-0.049 0.013 0.141c0.031 0.509-0.094 0.939-0.351 1.429l-0.118 0.213c-0.263 0.456-0.41 0.956-0.382 1.374 0.04 0.588 0.43 0.995 1.052 0.995l0.166-0.006c0.647-0.051 1.096-0.406 1.48-1.02l0.072-0.121v12.969l-15.359-0.001V90.775l0.072 0.121c0.416 0.665 0.909 1.026 1.647 1.026 0.622 0 1.012-0.407 1.051-0.995 0.025-0.366-0.085-0.794-0.289-1.201l-0.19-0.346c-0.273-0.51-0.404-0.946-0.369-1.472l0.013-0.136 0.065 0.071c0.17 0.17 0.354 0.303 0.54 0.388 0.677 0.308 1.288-0.141 1.079-0.92-0.08-0.298-0.181-0.544-0.332-0.83l-0.293-0.521-0.076-0.14c-0.093-0.183-0.157-0.351-0.192-0.524l-0.006-0.033 0.011 0.011c0.154 0.141 0.326 0.232 0.512 0.266 0.724 0.131 1.095-0.567 0.889-1.333-0.042-0.16-0.09-0.309-0.152-0.477l-0.232-0.607-0.068-0.205c-0.039-0.131-0.064-0.256-0.076-0.383l-0.005-0.093c0.638 0.892 1.448 0.722 1.448-0.832v-0.505c0.011-2.025 0.379-2.879 1.837-3.329 0.187-0.058 0.321-0.224 0.336-0.42 0.014-0.163 0.058-0.426 0.143-0.68 0.108-0.322 0.23-0.467 0.317-0.467z" stroke-width="1" id="path_88"/><path fill="#FFFFFF" d="M169.4 82.836l0.939-0.789v-1.011c-0.344 0.034-0.531 0.152-0.785 0.485-0.216-0.67-0.69-1.193-1.326-1.518-0.636 0.325-1.11 0.824-1.326 1.494-0.254-0.333-0.441-0.427-0.785-0.461v1.011l0.94 0.789h2.343z" stroke-width="1" id="path_89"/><path fill="#000000" d="M167.82 81.738c-0.426 0.253-0.774 0.578-1.03 0.966l-0.052 0.084-0.011-0.005c-0.163-0.083-0.344-0.13-0.563-0.152-0.282-0.028-0.527 0.194-0.527 0.478v1.314l0.044 0.202 0.437 0.944c0.078 0.17 0.249 0.278 0.436 0.278h3.348c0.187 0 0.357-0.109 0.436-0.279l0.436-0.944 0.044-0.202v-1.314c0-0.284-0.245-0.506-0.528-0.478l-0.155 0.022c-0.149 0.027-0.281 0.072-0.403 0.137l-0.019 0.012-0.05-0.083c-0.295-0.452-0.709-0.822-1.215-1.084-0.138-0.071-0.303-0.071-0.441 0l-0.187 0.104zm0.406 0.878l0.115 0.079c0.361 0.269 0.621 0.627 0.755 1.05l0.034 0.08c0.131 0.252 0.454 0.328 0.683 0.179l0.045-0.035v0.347l-0.263 0.57-2.735 0.001-0.263-0.569v-0.373l0.045 0.036c0.252 0.162 0.617 0.054 0.717-0.26 0.132-0.414 0.386-0.759 0.75-1.025l0.117-0.08z" stroke-width="1" id="path_90"/><path fill="#FFFFFF" d="M169.969 88.798l1.395-1.701v-1.678c-0.511 0.056-0.789 0.26-1.166 0.831-0.321-1.15-1.024-1.402-1.969-1.96-0.945 0.558-1.65 0.769-1.97 1.919-0.377-0.571-0.655-0.733-1.164-0.79v1.678l1.393 1.701h3.481z" stroke-width="1" id="path_91"/><path fill="#000000" d="M167.985 83.877l-0.706 0.399-0.17 0.101c-0.438 0.271-0.748 0.546-0.975 0.906l-0.018 0.031-0.068-0.054c-0.252-0.183-0.535-0.277-0.899-0.318-0.285-0.033-0.534 0.19-0.534 0.477v1.678c0 0.111 0.038 0.218 0.108 0.304l1.394 1.701c0.091 0.111 0.227 0.176 0.371 0.176h3.481c0.144 0 0.28-0.065 0.371-0.176l1.395-1.701c0.07-0.086 0.109-0.193 0.109-0.304v-1.678c0-0.287-0.249-0.509-0.533-0.477l-0.161 0.023c-0.31 0.055-0.561 0.167-0.792 0.359l-0.022 0.018-0.02-0.035c-0.229-0.364-0.54-0.646-0.977-0.925l-0.195-0.119c-0.099-0.059-0.547-0.313-0.671-0.386-0.151-0.089-0.338-0.089-0.488 0zm0.242 0.966l0.429 0.247c0.647 0.381 0.907 0.668 1.08 1.289 0.111 0.396 0.636 0.479 0.863 0.135l0.088-0.129 0.107-0.142 0.05-0.06 0.039-0.041v0.783l-1.142 1.392h-3.026l-1.141-1.392v-0.813l0.053 0.052c0.071 0.077 0.145 0.178 0.231 0.309 0.227 0.344 0.753 0.261 0.863-0.135 0.154-0.552 0.374-0.824 0.89-1.142l0.616-0.353z" stroke-width="1" id="path_92"/><path fill="#FFFFFF" d="M170.378 92.167s1.625-1.418 1.722-2.197v-1.794c-0.63 0.074-1.226 0.237-1.691 0.974-0.396-1.485-1.014-1.899-2.18-2.619-1.166 0.72-1.784 1.134-2.179 2.619-0.466-0.737-1.061-0.9-1.691-0.974v1.793c0.205 0.779 1.721 2.197 1.721 2.197l4.298 0.001z" stroke-width="1" id="path_93"/><path fill="#000000" d="M167.765 86.255c-1.026 0.65-1.532 1.11-1.876 1.88l-0.035 0.079-0.114-0.083c-0.361-0.243-0.79-0.369-1.325-0.432-0.285-0.033-0.536 0.189-0.536 0.477v1.793l0.016 0.123c0.079 0.299 0.275 0.634 0.569 1.018 0.115 0.151 0.243 0.306 0.383 0.466 0.198 0.226 0.409 0.45 0.62 0.662l0.285 0.278c0.089 0.083 0.206 0.13 0.328 0.13l4.298 0.001c0.116 0 0.228-0.042 0.315-0.119l0.284-0.26c0.211-0.199 0.421-0.41 0.618-0.625 0.167-0.183 0.318-0.361 0.448-0.533 0.304-0.4 0.492-0.751 0.533-1.08l0.004-1.854c0-0.287-0.251-0.51-0.536-0.476l-0.196 0.026c-0.445 0.069-0.813 0.193-1.129 0.405l-0.116 0.083-0.033-0.079c-0.367-0.821-0.919-1.29-2.088-2.013-0.155-0.095-0.35-0.095-0.505 0l-0.212 0.133zm0.464 0.842l0.14 0.09c1.02 0.664 1.298 1.044 1.576 2.087 0.108 0.405 0.646 0.487 0.87 0.132l0.08-0.118c0.188-0.261 0.398-0.418 0.684-0.516l0.04-0.012 0.001 1.21c-0.011 0.058-0.132 0.284-0.341 0.56-0.111 0.146-0.244 0.302-0.392 0.465-0.12 0.131-0.247 0.261-0.375 0.388l-0.319 0.303-3.921-0.001-0.124-0.124c-0.198-0.199-0.395-0.408-0.579-0.617-0.126-0.145-0.241-0.284-0.342-0.417l-0.091-0.121c-0.142-0.198-0.242-0.367-0.29-0.49l-0.008-0.022v-1.135l0.042 0.013c0.327 0.112 0.553 0.301 0.764 0.635 0.223 0.354 0.761 0.272 0.869-0.133 0.278-1.043 0.557-1.423 1.577-2.087l0.139-0.09z" stroke-width="1" id="path_94"/><path fill="#FFFFFF" d="M171.071 98.387s2.226-2.463 2.277-3.424v-2.797c-0.833 0.115-1.62 0.688-2.235 1.837-0.524-2.315-1.341-3.93-2.883-5.053-1.542 1.123-2.36 2.738-2.882 5.053-0.616-1.15-1.404-1.723-2.237-1.838v2.798c0.16 0.96 2.277 3.424 2.277 3.424h5.683z" stroke-width="1" id="path_95"/><path fill="#000000" d="M167.736 88.722c-1.176 0.926-1.962 2.156-2.508 3.877l-0.078 0.254-0.063-0.076c-0.549-0.62-1.196-0.989-1.91-1.087-0.289-0.04-0.546 0.184-0.546 0.475v2.798c0.077 0.502 0.386 1.069 0.889 1.797 0.106 0.153 0.219 0.311 0.339 0.473 0.17 0.23 0.348 0.462 0.528 0.689l0.272 0.339c0.163 0.2 0.291 0.352 0.365 0.438 0.091 0.107 0.224 0.168 0.364 0.168h5.683c0.136 0 0.266-0.057 0.357-0.158l0.365-0.419c0.272-0.32 0.544-0.655 0.799-0.99l0.269-0.363 0.125-0.176c0.518-0.742 0.817-1.321 0.842-1.772v-2.823c0-0.292-0.257-0.516-0.546-0.476l-0.193 0.034c-0.638 0.134-1.218 0.49-1.716 1.054l-0.064 0.074-0.077-0.254c-0.579-1.822-1.425-3.094-2.719-4.036-0.169-0.123-0.397-0.123-0.565 0l-0.212 0.16zm0.494 0.836l0.094 0.077c1.143 0.983 1.843 2.364 2.321 4.474 0.098 0.433 0.681 0.512 0.891 0.12l0.114-0.201c0.346-0.585 0.742-0.981 1.172-1.199l0.046-0.022v2.156c-0.01 0.182-0.255 0.655-0.669 1.249l-0.24 0.334-0.13 0.172c-0.163 0.213-0.333 0.427-0.506 0.638l-0.469 0.551-5.244-0.001-0.207-0.252c-0.264-0.323-0.527-0.66-0.772-0.991-0.114-0.155-0.222-0.305-0.322-0.45l-0.111-0.163c-0.357-0.532-0.578-0.952-0.613-1.166l0.004-2.079 0.048 0.023c0.478 0.243 0.915 0.705 1.288 1.402 0.209 0.392 0.793 0.313 0.891-0.121 0.476-2.109 1.177-3.49 2.321-4.473l0.093-0.078z" stroke-width="1" id="path_96"/><path fill="#FFFFFF" d="M171.071 102.067s1.903-1.937 2.277-2.777v-2.798c-0.833 0.115-1.62 0.688-2.235 1.837-0.524-2.315-1.341-3.641-2.883-4.764-1.542 1.123-2.36 2.449-2.882 4.765-0.616-1.151-1.404-1.724-2.237-1.838v2.797c0.483 0.841 2.277 2.777 2.277 2.777l5.683 0.001z" stroke-width="1" id="path_97"/><path fill="#000000" d="M167.727 93.343c-1.223 0.947-1.992 2.053-2.516 3.659l-0.057 0.182-0.067-0.081c-0.548-0.62-1.196-0.988-1.91-1.087-0.289-0.04-0.546 0.184-0.546 0.476v2.797c0 0.084 0.022 0.166 0.064 0.239 0.154 0.269 0.42 0.63 0.778 1.071l0.351 0.423c0.177 0.209 0.362 0.422 0.55 0.635l0.662 0.735c0.091 0.098 0.218 0.154 0.352 0.154l5.683 0.001c0.129 0 0.252-0.052 0.343-0.144l0.373-0.39c0.278-0.295 0.556-0.601 0.817-0.901l0.27-0.317c0.453-0.543 0.766-0.981 0.913-1.31l0.041-0.195v-2.798c0-0.291-0.257-0.515-0.546-0.475l-0.193 0.033c-0.638 0.135-1.218 0.491-1.716 1.054l-0.068 0.079-0.056-0.181c-0.556-1.701-1.385-2.841-2.736-3.825-0.169-0.123-0.397-0.123-0.565 0l-0.221 0.166zm0.503 0.826l0.114 0.092c1.197 0.993 1.852 2.19 2.301 4.174 0.098 0.433 0.681 0.512 0.891 0.121l0.114-0.202c0.346-0.584 0.742-0.98 1.172-1.199l0.046-0.022v2.044l-0.05 0.089c-0.117 0.195-0.307 0.454-0.553 0.758l-0.128 0.156c-0.082 0.098-0.168 0.199-0.258 0.302-0.167 0.193-0.343 0.389-0.522 0.584l-0.49 0.52h-5.268l-0.228-0.252c-0.185-0.207-0.37-0.416-0.55-0.624l-0.449-0.53-0.148-0.179c-0.236-0.291-0.427-0.542-0.562-0.74l-0.072-0.107v-2.021l0.047 0.021c0.478 0.243 0.915 0.705 1.288 1.402 0.209 0.392 0.793 0.313 0.891-0.121 0.448-1.983 1.103-3.18 2.3-4.174l0.114-0.092z" stroke-width="1" id="path_98"/><path fill="#FFFFFF" d="M171.837 104.204c-0.555-2.416-1.033-4.207-3.707-6.024-2.674 1.817-3.151 3.608-3.706 6.024h7.413z" stroke-width="1" id="path_99"/><path fill="#000000" d="M167.861 97.783c-2.415 1.64-3.144 3.003-3.905 6.313-0.069 0.301 0.159 0.588 0.468 0.588h7.413c0.309 0 0.537-0.287 0.468-0.588-0.761-3.31-1.49-4.673-3.905-6.313-0.163-0.111-0.377-0.111-0.539 0zm0.269 0.982l0.159 0.114c1.628 1.194 2.27 2.276 2.858 4.519l0.082 0.325h-6.197l0.006-0.025c0.609-2.449 1.235-3.573 2.933-4.819l0.159-0.114z" stroke-width="1" id="path_100"/><path fill="#FFFFFF" d="M173.214 105.549v-3.499c-1.214 0.476-2.312 1.18-2.717 1.964-0.451-1.943-1.323-2.799-2.408-3.975-1.085 1.176-1.811 2.032-2.264 3.975-0.404-0.784-1.501-1.488-2.716-1.964v3.499h10.105z" stroke-width="1" id="path_101"/><path fill="#000000" d="M167.506 99.967c-0.965 1.07-1.481 1.822-1.846 2.869l-0.048 0.144-0.121-0.112c-0.557-0.485-1.322-0.918-2.207-1.265-0.315-0.123-0.655 0.109-0.655 0.447v3.499c0 0.265 0.214 0.48 0.48 0.48h10.105c0.265 0 0.48-0.215 0.48-0.48v-3.499c0-0.338-0.341-0.57-0.655-0.447l-0.262 0.107c-0.774 0.327-1.444 0.721-1.945 1.159l-0.133 0.12-0.068-0.188c-0.327-0.844-0.788-1.532-1.478-2.311l-0.711-0.776c-0.19-0.206-0.515-0.206-0.705 0l-0.231 0.253zm0.502 0.88l0.085-0.097 0.342 0.377c0.866 0.978 1.306 1.752 1.594 2.995 0.101 0.435 0.689 0.509 0.894 0.112l0.071-0.122c0.261-0.404 0.781-0.821 1.466-1.189l0.273-0.14v2.286h-9.145v-2.286l0.04 0.02c0.873 0.431 1.52 0.945 1.771 1.431 0.205 0.397 0.793 0.324 0.894-0.111 0.328-1.407 0.714-2.134 1.715-3.276z" stroke-width="1" id="path_102"/><path fill="#FFFFFF" d="M152.048 121.136v3.195h109.653v-3.195H152.048zm-1.985 3.224v4.166h113.622v-4.166H150.063zm113.622 4.166l-113.622 0.031-3.322-0.031v5.497h120.266v-5.496l-3.322-0.001zm-120.289 5.532v6.474h126.959v-6.474H143.396zm126.959 6.474v0.011H143.397v-0.011h-3.347v6.474H273.7v-6.474h-3.345z" stroke-width="1" id="path_103"/><path fill="#000000" d="M274.18 140.052v7.434H139.57v-7.434h3.345l0.001-6.474h3.345v-5.536l3.321 0.031 0.001-4.193h1.984l0.001-3.224h110.613l-0.001 3.224h1.985l-0.001 4.166 3.323 0.001v5.531h3.348v6.474h3.345zm-3.345 0.971H142.917l-0.001-0.011h-2.387v5.514h132.69v-5.514h-2.385l0.001 0.011zm-0.961-6.485H143.875v5.514h125.999v-5.514zm-6.19-5.532l-113.626 0.031-2.837-0.026v4.532h119.306v-4.536l-2.843-0.001zm-0.48-4.166H150.542v3.206h112.662v-3.206zm-1.984-3.225l-108.693 0.001v2.234H261.22v-2.235z" stroke-width="1" id="path_104"/><path fill="#FFFFFF" d="M172.232 121.152v25.841h-8.283v-25.841h8.283zm38.642 0v25.841h-8.283v-25.841h8.283zm30.586 25.841v-25.841h8.283v25.841h-8.283z" stroke-width="1" id="path_105"/><path fill="#000000" d="M172.754 120.629v26.887h-9.327v-26.887h9.327zm38.643 0v26.887h-9.329v-26.887h9.329zm38.868 0v26.887h-9.327v-26.887h9.327zm-85.006 1.044l-0.788 0.001v24.796l0.788-0.001v-24.796zm4.615 0h-3.572v24.796h3.572v-24.796zm1.835 0.001l-0.792-0.001v24.796l0.792 0.001v-24.796zm32.249-0.001l-0.845 0.001v24.796l0.845-0.001v-24.796zm4.614 0h-3.571v24.796h3.571v-24.796zm1.779 0.001l-0.735-0.001v24.796l0.735 0.001v-24.796zm32.42-0.001l-0.789 0.001v24.796l0.789-0.001v-24.796zm4.614 0h-3.572v24.796h3.572v-24.796zm1.835 0.001l-0.792-0.001v24.796l0.792 0.001v-24.796z" stroke-width="1" id="path_106"/><path fill="#000000" d="M208.955 143.271v0.96H204.5v-0.96h4.455zm-38.473-0.005v0.96h-4.784v-0.96h4.784zm77.511 0v0.96h-4.784v-0.96h4.784zm-39.038-3.231v0.96H204.5v-0.96h4.455zm-38.473-0.003v0.96h-4.784v-0.96h4.784zm77.511 0v0.96h-4.784v-0.96h4.784zm-39.038-3.233v0.96H204.5v-0.96h4.455zm-38.473-0.002v0.96h-4.784v-0.96h4.784zm77.511 0v0.96h-4.784v-0.96h4.784zm-77.511-3.234v0.96h-4.784v-0.96h4.784zm38.473 0v0.96H204.5v-0.96h4.455zm39.038 0v0.96h-4.784v-0.96h4.784zm-77.511-3.235v0.96h-4.784v-0.96h4.784zm77.511 0v0.96h-4.784v-0.96h4.784zm-39.038-0.001v0.96H204.5v-0.96h4.455zm-38.473-3.233v0.96h-4.784v-0.96h4.784zm77.511 0v0.96h-4.784v-0.96h4.784zm-39.038-0.003v0.96H204.5v-0.96h4.455zm-38.473-3.231v0.96h-4.784v-0.96h4.784zm77.511 0v0.96h-4.784v-0.96h4.784zm-39.038-0.005v0.96H204.5v-0.96h4.455zm47.935-5.812v0.96h-99.914v-0.96h99.914z" stroke-width="1" id="path_107"/></svg>