<svg xmlns="http://www.w3.org/2000/svg" viewBox="0 0 32 16">
  <g fill="none" fill-rule="evenodd">
    <polygon fill="#FFF" points="0 16 32 16 32 0 0 0"/>
    <g transform="translate(7.68 1.536)">
      <path fill="#C60C30" d="M4.99136559,4.24665891 C6.21523778,2.4074424 8.6959715,1.91041876 10.5316165,3.13678124 C12.3675881,4.36281651 12.8637348,6.8476075 11.6398626,8.68682401 C10.4159904,10.5260405 7.93525671,11.0230642 6.09928511,9.79670169 C4.26364014,8.57066641 3.7674934,6.08587542 4.99136559,4.24665891"/>
      <path fill="#003478" d="M4.99136559,4.24665891 C4.37926618,5.16610356 4.62750286,6.40882626 5.54532535,7.0216803 C6.46347446,7.63486154 7.70367801,7.38618611 8.31545079,6.46674146 C8.9275502,5.54729681 10.1677538,5.29862139 11.0859029,5.91180262 C12.0037253,6.52465666 12.251962,7.76737936 11.6398626,8.68682401 C10.4159904,10.5260405 7.93525671,11.0230642 6.09928511,9.79670169 C4.26364014,8.57066641 3.7674934,6.08587542 4.99136559,4.24665891"/>
      <path fill="#000" d="M14.8947546,11.052872 L15.4382622,11.4157418 L14.4204918,12.9450957 L13.8769841,12.5822259 L14.8947546,11.052872 Z M0.569472663,9.25213478 L2.78563834,12.582095 L2.24213065,12.945292 L0.0259649704,9.61500458 L0.569472663,9.25213478 Z M14.0643049,10.4966244 L14.6078125,10.8594942 L13.5893889,12.3901568 L13.0458812,12.0272871 L14.0643049,10.4966244 Z M2.5991342,10.4980968 L3.61657799,12.0271235 L3.0730703,12.3903205 L2.05562651,10.8612938 L2.5991342,10.4980968 Z M13.2323527,9.94315797 L13.7758604,10.3060278 L12.7584166,11.8350544 L12.2149089,11.4721846 L13.2323527,9.94315797 Z M2.23161325,8.14206079 L4.44777893,11.472021 L3.90427124,11.835218 L1.68810556,8.50493058 L2.23161325,8.14206079 Z M16.0931498,9.25206934 L16.6366575,9.61493914 L15.6195404,11.1433114 L15.0760327,10.7804416 L16.0931498,9.25206934 Z M1.4005103,8.69683602 L2.41795408,10.2258627 L1.87444639,10.5890597 L0.857002604,9.06003302 L1.4005103,8.69683602 Z M15.2619815,8.69709779 L15.8054892,9.05996758 L14.7890253,10.5873582 L14.2455176,10.2244884 L15.2619815,8.69709779 Z M14.4309766,8.14202807 L14.9744843,8.50489786 L13.9570405,10.0339245 L13.4135328,9.67105471 L14.4309766,8.14202807 Z M3.90427124,1.11190844 L4.44777893,1.47477824 L2.23161325,4.80473846 L1.68810556,4.44186867 L3.90427124,1.11190844 Z M13.9571385,2.91284203 L14.9745822,4.44186867 L14.4310746,4.80473846 L13.4136308,3.27603902 L13.9571385,2.91284203 Z M3.0730703,0.556675122 L3.61657799,0.91987212 L1.40041231,4.24983235 L0.856904615,3.88696255 L3.0730703,0.556675122 Z M13.5893236,0.556904165 L15.8054892,3.88686439 L15.2619815,4.24973418 L13.0458159,0.919773959 L13.5893236,0.556904165 Z M2.24219598,0.00189988743 L2.78570367,0.364769681 L0.569537988,3.69472991 L0.0260302959,3.33186011 L2.24219598,0.00189988743 Z M15.6192791,1.80289891 L16.6367228,3.33192555 L16.0932151,3.69479535 L15.0757714,2.16576871 L15.6192791,1.80289891 Z M12.7584166,1.1116794 L13.7758604,2.64070604 L13.2323527,3.00357583 L12.2149089,1.4748764 L12.7584166,1.1116794 Z M14.4205572,0.00193260788 L15.4380009,1.53063205 L14.8944933,1.89350184 L13.8770495,0.364802402 L14.4205572,0.00193260788 Z"/>
    </g>
  </g>
</svg>
