<svg id="vector" xmlns="http://www.w3.org/2000/svg" width="24" height="24" viewBox="0 0 512 512"><path fill="#338AF3" d="M512 256A256 256 0 0 1 0 256A256 256 0 0 1 512 256Z" id="path_0"/><path fill="#FFDA44" d="M167.676 258.783H111.304C111.304 278.762 128.705 294.957 148.682 294.957H147.478C147.478 314.936 163.673 331.131 183.652 331.131C183.652 351.11 199.847 367.305 219.826 367.305H292.174C312.153 367.305 328.348 351.11 328.348 331.131C348.327 331.131 364.522 314.936 364.522 294.957H363.318C383.293 294.957 400.696 278.762 400.696 258.783H344.323C327.433 290.253 294.215 311.652 256 311.652C217.784 311.652 184.566 290.253 167.676 258.783Z" fill-rule="evenodd" id="path_1"/><path fill="#FFDA44" d="M332.515 211.478L301.25 226.185L317.899 256.465L283.949 249.97L279.647 284.266L256 259.041L232.352 284.266L228.051 249.97L194.101 256.463L210.749 226.184L179.485 211.478L210.75 196.772L194.101 166.493L228.05 172.987L232.353 138.691L256 163.916L279.648 138.691L283.949 172.987L317.9 166.493L301.251 196.773L332.515 211.478Z" id="path_2"/></svg>