<svg id="vector" xmlns="http://www.w3.org/2000/svg" width="32" height="16" viewBox="0 0 32 16"><defs><clipPath id="clip_path_0"><path d="M0,0h32v16h-32z"/></clipPath></defs><g id="g_0"><g clip-path="url(#clip_path_0)"><path fill="#CE1126" d="M-2.621,-0.182H34.621V16.182H-2.621V-0.182Z" fill-rule="evenodd"/><path fill="#002868" d="M-2.621,3.885H34.621V12.115H-2.621V3.885Z" fill-rule="evenodd"/></g><path fill="#ffffff" d="M19.11,7.525C19.11,8.46 18.736,9.356 18.069,10.018C17.402,10.679 16.498,11.05 15.555,11.05C14.612,11.05 13.708,10.679 13.041,10.018C12.375,9.356 12,8.46 12,7.525C12,6.59 12.375,5.694 13.041,5.032C13.708,4.371 14.612,4 15.555,4C16.498,4 17.402,4.371 18.069,5.032C18.736,5.694 19.11,6.59 19.11,7.525V7.525Z" fill-rule="evenodd"/></g></svg>