<svg id="vector" xmlns="http://www.w3.org/2000/svg" width="24" height="24" viewBox="0 0 512 512"><path fill="#EEEEEE" d="M482.19 376C501.219 340.208 512 299.363 512 256C512 212.637 501.219 171.792 482.19 136L29.8097 136C10.7813 171.792 0 212.637 0 256C0 299.363 10.7813 340.208 29.8097 376L482.19 376Z" id="path_0"/><path fill="#338AF3" d="M496.474 344C460.589 442.034 366.465 512 256 512C145.535 512 51.4116 442.034 15.5264 344L496.474 344Z" id="path_1"/><path fill="#D80027" d="M496.474 168L15.5264 168C51.4116 69.9657 145.535 0 256 0C366.465 0 460.589 69.9657 496.474 168Z" id="path_2"/><path fill="#EEEEEE" d="M256 512C397.385 512 512 397.385 512 256C512 114.615 397.385 0 256 0C114.615 0 0 114.615 0 256C0 397.385 114.615 512 256 512Z" id="path_3"/><path fill="#D80027" d="M256 0C145.929 0 52.0938 69.472 15.9229 166.957H496.078C459.906 69.472 366.071 0 256 0Z" id="path_4"/><path fill="#338AF3" d="M256 512C366.071 512 459.906 442.528 496.077 345.043H15.9229C52.0939 442.528 145.929 512 256 512Z" id="path_5"/></svg>