<svg id="vector" xmlns="http://www.w3.org/2000/svg" width="24" height="24" viewBox="0 0 512 512"><path fill="#EEEEEE" d="M315.586 209.186L336.59 238.131L370.607 227.101L349.569 256.021L370.571 284.965L336.567 273.893L315.529 302.813L315.551 267.052L281.545 255.98L315.563 244.95L315.586 209.186Z" id="path_0"/><path fill="#EEEEEE" d="M258.261 328.348C218.305 328.348 185.913 295.956 185.913 256C185.913 216.044 218.305 183.652 258.261 183.652C270.719 183.652 282.442 186.802 292.676 192.348C276.62 176.647 254.664 166.956 230.435 166.956C181.257 166.956 141.392 206.822 141.392 255.999C141.392 305.176 181.258 345.042 230.435 345.042C254.665 345.042 276.621 335.351 292.676 319.65C282.441 325.198 270.72 328.348 258.261 328.348Z" id="path_1"/><path fill="#333333" d="M477.752 384C499.534 346.346 512 302.629 512 256C512 209.371 499.534 165.654 477.752 128L34.2483 128C12.4665 165.654 0 209.371 0 256C0 302.629 12.4665 346.346 34.2482 384L477.752 384Z" id="path_2"/><path fill="#496E2D" d="M255.911 512C154.729 511.965 67.2685 453.23 25.7354 368L486.264 368C444.731 453.23 357.271 511.965 256.089 512C256.059 512 256.03 512 256 512C255.97 512 255.94 512 255.911 512Z" id="path_3"/><path fill="#D80027" d="M256 0C154.78 0 67.2808 58.7445 25.7354 144L486.264 144C444.719 58.7445 357.22 0 256 0Z" id="path_4"/><path fill="#EEEEEE" d="M315.586 209.186L336.59 238.131L370.607 227.101L349.569 256.021L370.571 284.965L336.567 273.893L315.529 302.813L315.551 267.052L281.545 255.98L315.563 244.95L315.586 209.186Z" id="path_5"/><path fill="#EEEEEE" d="M258.261 328.348C218.305 328.348 185.913 295.956 185.913 256C185.913 216.044 218.305 183.652 258.261 183.652C270.719 183.652 282.442 186.802 292.676 192.348C276.62 176.647 254.664 166.956 230.435 166.956C181.257 166.956 141.392 206.822 141.392 255.999C141.392 305.176 181.258 345.042 230.435 345.042C254.665 345.042 276.621 335.351 292.676 319.65C282.441 325.198 270.72 328.348 258.261 328.348Z" id="path_6"/></svg>