<svg xmlns="http://www.w3.org/2000/svg" viewBox="0 0 32 16">
  <g fill="none" fill-rule="evenodd">
    <rect width="32" height="16" fill="#D20000" transform="matrix(1 0 0 -1 0 16)"/>
    <path fill="#FFE600" fill-rule="nonzero" d="M19.131007,9.56593518 L32,16 L27.2,16 L18.7428786,10.1743009 C18.8921437,9.98625596 19.0224799,9.78250731 19.131007,9.56593518 Z M16.5418573,11.4583095 L17.6,16 L14.4,16 L15.4591386,11.4584642 C15.6354214,11.4858097 15.8160535,11.5 16,11.5 C16.1842929,11.5 16.3652589,11.4857562 16.5418573,11.4583095 Z M13.2579124,10.1752971 L4.8,16 L0,16 L12.868993,9.56593518 C12.9777118,9.78288981 13.1083168,9.98697563 13.2579124,10.1752971 Z M16,5.5 C17.3807119,5.5 18.5,6.61928813 18.5,8 C18.5,9.38071187 17.3807119,10.5 16,10.5 C14.6192881,10.5 13.5,9.38071187 13.5,8 C13.5,6.61928813 14.6192881,5.5 16,5.5 Z M32,6.4 L32,9.6 L19.482866,8.34851298 C19.4941985,8.23387738 19.5,8.1176162 19.5,8 C19.5,7.88272472 19.4942321,7.76679661 19.4829644,7.65248389 L32,6.4 Z M0,6.4 L12.5170356,7.65248389 C12.5057679,7.76679661 12.5,7.88272472 12.5,8 C12.5,8.1176162 12.5058015,8.23387738 12.517134,8.34851298 L0,9.6 L0,6.4 Z M4.8,0 L13.2571214,5.82569909 C13.1076283,6.01403133 12.9771219,6.2181153 12.8684957,6.43505754 L0,0 L4.8,0 Z M32,0 L19.1315043,6.43505754 C19.0228781,6.2181153 18.8923717,6.01403133 18.7428786,5.82569909 L27.2,0 L32,0 Z M17.6,0 L16.5418573,4.54169047 C16.3652589,4.51424376 16.1842929,4.5 16,4.5 C15.8160535,4.5 15.6354214,4.51419027 15.4591386,4.54153583 L14.4,0 L17.6,0 Z"/>
  </g>
</svg>
