<svg id="vector" xmlns="http://www.w3.org/2000/svg" width="32" height="16" viewBox="0 0 500 250"><path fill="#D20000" d="M0 0h500v250H0z" stroke-width="1" id="path_0"/><path fill="#FFE600" d="M0 0h75l175 120.536L425 0h75L0 250h75l175-120.536L425 250h75L0 0zm500 100v50L0 100v50l500-50zM225 0l25 107.143L275 0h-50zm0 250l25-107.143L275 250h-50z" stroke-width="1" id="path_1"/><path fill="#FFE600" d="M209.821 125a40.179 40.179 0 1 1 80.357 0 40.179 40.179 0 1 1-80.357 0" stroke-width="1" stroke="#D20000" id="path_2"/></svg>