<svg id="vector" xmlns="http://www.w3.org/2000/svg" width="24" height="24" viewBox="0 0 512 512"><path fill="#FFDA44" d="M512 256A256 256 0 0 1 0 256A256 256 0 0 1 512 256Z" id="path_0"/><path fill="#D80027" d="M509.726 221.726L346.144 245.298C346.737 249.447 347.043 253.688 347.043 258C347.043 262.206 346.752 266.344 346.187 270.394L509.3 293.318C502.984 336.558 485.86 376.29 460.757 409.682L329.304 311.343C324.265 318.067 318.297 324.056 311.59 329.117L410.387 460.225C377.074 485.448 337.399 502.707 294.193 509.17L270.701 346.144C266.553 346.737 262.312 347.043 258 347.043C253.794 347.043 249.656 346.752 245.605 346.187L222.605 509.842C178.955 504.155 138.76 487.473 104.89 462.666L204.658 329.304C197.933 324.265 191.945 318.297 186.883 311.59L53.2371 412.3C27.3307 378.741 9.56952 338.574 2.91511 294.758L169.856 270.702C169.264 266.553 168.957 262.312 168.957 258C168.957 253.794 169.249 249.657 169.813 245.606L2.23096 222.054C8.09562 177.787 25.2715 137.091 50.7587 102.964L186.696 204.658C191.735 197.934 197.703 191.945 204.409 186.884L102.241 51.3013C136.285 25.6877 176.926 8.37001 221.16 2.35095L245.298 169.856C249.446 169.264 253.687 168.957 258 168.957C262.206 168.957 266.343 169.249 270.393 169.813L293.868 2.78136C337.721 9.2835 377.948 26.9065 411.59 52.6912L311.342 186.696C318.066 191.735 324.055 197.703 329.117 204.409L462.137 104.171C487.069 137.964 503.889 178.107 509.726 221.726ZM324.784 258C324.784 294.883 294.884 324.783 258.001 324.783C221.117 324.783 191.218 294.883 191.218 258C191.218 221.117 221.117 191.217 258.001 191.217C294.884 191.217 324.784 221.117 324.784 258Z" fill-rule="evenodd" id="path_1"/></svg>