<svg id="vector" xmlns="http://www.w3.org/2000/svg" width="24" height="24" viewBox="0 0 512 512"><path fill="#EEEEEE" d="M128 477.752C165.654 499.534 209.371 512 256 512C302.629 512 346.346 499.534 384 477.752L384 34.2483C346.346 12.4665 302.629 -0.00000355685 256 -0.00000559506C209.371 -0.00000763327 165.654 12.4665 128 34.2482L128 477.752Z" id="path_0"/><path fill="#496E2D" d="M-0.0000100613 255.911C0.0345708 154.729 58.7696 67.2685 144 25.7354L144 486.264C58.7695 444.731 0.0345009 357.271 -0.0000405867 256.089C-0.0000405854 256.059 -0.0000405841 256.03 -0.0000405828 256C-0.0000405815 255.97 -0.0000100626 255.94 -0.0000100613 255.911Z" id="path_1"/><path fill="#D80027" d="M512 256C512 154.78 453.256 67.2808 368 25.7353L368 486.264C453.256 444.719 512 357.22 512 256Z" id="path_2"/><path fill="#FFC635" d="M256 277V287H268L278 265L256 277Z" id="path_3"/><path fill="#496E2D" d="M160 242C160 267.461 170.114 291.879 188.118 309.882C206.121 327.886 230.539 338 256 338C281.461 338 305.879 327.886 323.882 309.882C341.886 291.879 352 267.461 352 242H341C341 264.543 332.044 286.163 316.104 302.104C300.163 318.045 278.543 327 256 327C233.456 327 211.836 318.045 195.896 302.104C179.955 286.163 171 264.543 171 242H160ZM199 259L195 261C193 263 193 267 196 269C211 283 230 291 250 293V310H262V293C282 291 301 283 316 269C319 267 319 263 317 261C315 259 311 259 309 261C294.616 274.437 275.683 281.938 256 282C237 282 218 274 203 261L199 259Z" id="path_4"/><path fill="#338AF3" d="M256 316C242 316 228 311 216 303L222 294C242 307 270 307 290 294L297 303C285 311 271 316 256 316Z" id="path_5"/><path fill="#584528" d="M256 174C278 185 268 207 267 208L265 204C260 193 247 186 234 186V197C240 197 245 202 245 208C238 215 236 225 241 234L245 242L232 265L261 258L279 276V265L290 276L313 265L278 244L273 223L301 239C305 250 313 260 324 265C333 182 282 174 263 174H256Z" id="path_6"/><path fill="#6DA544" d="M222 271C207 271 189 259 184 231L195 229C199 252 213 260 222 260C225 260 227 259 228 257C228 255 228 254 222 252C219 251 215 250 212 247C202 235 216 223 223 217C224 216 225 215 224 214C224 214 222 212 219 212C212 212 207 208 205 201C203 195 207 188 213 184L218 195C216 195 216 197 216 199C216 199 217 201 219 201C226 201 233 205 235 210C236 213 237 219 230 225C223 232 219 237 221 240L226 241C231 243 240 246 239 258C238 266 231 271 222 271Z" id="path_7"/><path fill="#FFC635" d="M234 186L222 197V208L240 199C243 198 243 194 241 192L234 186ZM172 283C176.418 283 180 279.418 180 275C180 270.582 176.418 267 172 267C167.582 267 164 270.582 164 275C164 279.418 167.582 283 172 283ZM197 302C197 306.418 193.418 310 189 310C184.582 310 181 306.418 181 302C181 297.582 184.582 294 189 294C193.418 294 197 297.582 197 302ZM216 331C220.418 331 224 327.418 224 323C224 318.582 220.418 315 216 315C211.582 315 208 318.582 208 323C208 327.418 211.582 331 216 331ZM305 323C305 327.418 301.418 331 297 331C292.582 331 289 327.418 289 323C289 318.582 292.582 315 297 315C301.418 315 305 318.582 305 323ZM324 310C328.418 310 332 306.418 332 302C332 297.582 328.418 294 324 294C319.582 294 316 297.582 316 302C316 306.418 319.582 310 324 310ZM349 275C349 279.418 345.418 283 341 283C336.582 283 333 279.418 333 275C333 270.582 336.582 267 341 267C345.418 267 349 270.582 349 275Z" fill-rule="evenodd" id="path_8"/><path fill="#FF9811" d="M262 299H250C243.925 299 239 303.925 239 310C239 316.075 243.925 321 250 321H262C268.075 321 273 316.075 273 310C273 303.925 268.075 299 262 299Z" id="path_9"/></svg>