<svg id="vector" xmlns="http://www.w3.org/2000/svg" width="24" height="24" viewBox="0 0 512 512"><path fill="#EEEEEE" d="M503.202 322.783C508.939 301.492 512 279.104 512 256L503.202 189.218C496.784 165.404 487.018 142.965 474.438 122.435L415.379 55.652C371.675 20.8387 316.323 0.0256442 256.111 0H255.889C195.677 0.0256336 140.325 20.8387 96.6209 55.652L37.5621 122.435C24.9824 142.965 15.2155 165.404 8.79798 189.218L0 256L0.0000241187 256.112C0.00992806 279.176 3.0698 301.527 8.7982 322.783L37.5622 389.565C53.2303 415.135 73.262 437.741 96.621 456.348L256 512L415.379 456.348C438.738 437.741 458.77 415.135 474.438 389.565L503.202 322.783Z" id="path_0"/><path fill="#D80027" d="M503.202 189.217C508.939 210.508 512 232.896 512 256H0C0 232.896 3.06051 210.508 8.79822 189.217H503.202Z" id="path_1"/><path fill="#D80027" d="M415.379 55.6519C438.738 74.2588 458.77 96.8653 474.438 122.435H37.5622C53.2303 96.8653 73.262 74.2588 96.621 55.6519H415.379Z" id="path_2"/><path fill="#D80027" d="M474.438 389.565C487.018 369.035 496.784 346.596 503.202 322.782H8.79796C15.2155 346.596 24.9823 369.035 37.5621 389.565H474.438Z" id="path_3"/><path fill="#D80027" d="M415.379 456.348H96.6208C140.299 491.141 195.611 511.95 255.781 512H256.219C316.389 511.95 371.701 491.141 415.379 456.348Z" id="path_4"/><path fill="#0052B4" d="M0 245.585C5.46421 109.029 117.896 0 255.792 0C255.861 0 255.931 0.0000275698 256 0.000082699V256H0V245.585Z" id="path_5"/><path fill="#FFDA44" d="M100.077 144.002C100.077 178.963 128.419 207.306 163.381 207.306C174.283 207.306 184.539 204.549 193.494 199.699C179.446 213.436 160.234 221.916 139.033 221.916C96.0041 221.916 61.1201 187.033 61.1201 144.003C61.1201 100.973 96.0041 66.0901 139.033 66.0901C160.234 66.0901 179.446 74.5701 193.494 88.3071C184.539 83.4551 174.282 80.6981 163.381 80.6981C128.42 80.6981 100.077 109.041 100.077 144.002Z" id="path_6"/><path fill="#FFDA44" d="M192.458 122.983L181.219 99.4807L169.979 122.983L144.596 117.119L155.963 140.558L135.551 156.745L160.965 162.474L160.895 188.525L181.219 172.227L201.542 188.525L201.471 162.474L226.885 156.745L206.473 140.558L217.839 117.119L192.458 122.983Z" id="path_7"/></svg>