<svg xmlns="http://www.w3.org/2000/svg" xmlns:xlink="http://www.w3.org/1999/xlink" viewBox="0 0 32 16" version="1.1">
<g id="surface1">
<path style=" stroke:none;fill-rule:nonzero;fill:rgb(100%,100%,100%);fill-opacity:1;" d="M 31.902344 13.300781 L 31.902344 13.425781 L 0 13.425781 L 0 13.300781 Z M 31.902344 11.519531 L 31.902344 11.605469 L 0 11.605469 L 0 11.519531 Z M 31.902344 10.335938 L 31.902344 10.390625 L 0 10.390625 L 0 10.335938 Z M 31.902344 9.542969 L 31.902344 9.582031 L 0 9.582031 L 0 9.542969 Z M 31.902344 9.019531 L 31.902344 9.042969 L 0 9.042969 L 0 9.019531 Z M 31.902344 8.667969 L 31.902344 8.683594 L 0 8.683594 L 0 8.667969 Z M 31.902344 8.433594 L 31.902344 8.441406 L 0 8.441406 L 0 8.433594 Z M 31.902344 8.277344 L 31.902344 8.285156 L 0 8.285156 L 0 8.277344 Z M 31.902344 8.171875 L 31.902344 8.175781 L 0 8.175781 L 0 8.171875 Z M 31.902344 8.101562 L 31.902344 8.105469 L 0 8.105469 L 0 8.101562 Z M 31.902344 8.054688 L 31.902344 8.058594 L 0 8.058594 L 0 8.054688 Z M 31.902344 8.023438 L 31.902344 8.027344 L 0 8.027344 L 0 8.023438 Z M 31.902344 8.003906 L 0 8.003906 Z M 31.902344 7.992188 L 0 7.992188 Z M 31.902344 7.980469 L 31.902344 7.984375 L 0 7.984375 L 0 7.980469 Z M 31.902344 7.976562 L 0 7.976562 Z M 31.902344 7.976562 "/>
<path style=" stroke:none;fill-rule:nonzero;fill:rgb(100%,100%,100%);fill-opacity:1;" d="M 0.429688 15.910156 L 0.015625 15.910156 L 15.957031 7.972656 Z M 6.308594 15.910156 L 15.957031 7.96875 L 15.957031 7.972656 L 19.316406 15.910156 L 18.902344 15.910156 L 15.957031 7.972656 L 13.015625 15.910156 L 12.601562 15.910156 L 15.957031 7.972656 L 6.722656 15.910156 Z M 25.195312 15.910156 L 15.957031 7.96875 L 25.609375 15.910156 Z M 31.488281 15.910156 L 15.957031 7.96875 L 31.902344 15.910156 Z M 31.902344 13.441406 L 15.957031 7.972656 L 31.902344 13.3125 Z M 0.015625 13.3125 L 15.957031 7.972656 L 0.015625 13.441406 Z M 15.957031 7.972656 L 0.015625 11.613281 L 0.015625 11.527344 Z M 15.957031 7.96875 L 15.960938 7.972656 L 31.902344 11.527344 L 31.902344 11.613281 Z M 0.015625 10.394531 L 0.015625 10.339844 L 15.949219 7.972656 Z M 31.902344 10.339844 L 31.902344 10.394531 L 15.96875 7.972656 Z M 15.972656 7.972656 L 15.96875 7.972656 L 15.992188 7.972656 L 31.902344 8.664062 L 31.902344 8.679688 L 15.992188 7.972656 L 31.902344 9.015625 L 31.902344 9.042969 L 15.980469 7.972656 L 15.984375 7.972656 L 15.96875 7.972656 L 31.902344 9.542969 L 31.902344 9.582031 L 15.976562 7.972656 Z M 15.941406 7.972656 L 0.015625 9.582031 L 0.015625 9.542969 L 15.929688 7.972656 C 15.933594 7.972656 15.9375 7.972656 15.941406 7.972656 Z M 0.015625 8.664062 L 7.988281 8.316406 L 15.921875 7.972656 L 0.015625 9.042969 L 0.015625 9.015625 L 15.921875 7.972656 L 0.015625 8.679688 Z M 31.902344 8.441406 L 15.957031 7.96875 L 31.902344 8.429688 Z M 15.9375 7.972656 L 15.949219 7.972656 L 15.941406 7.972656 L 0.015625 8.441406 L 0.015625 8.429688 L 15.929688 7.972656 L 0.015625 8.28125 L 0.015625 8.273438 L 15.929688 7.972656 L 0.015625 8.171875 L 0.015625 8.167969 Z M 31.902344 8.28125 L 16.007812 7.972656 L 31.902344 8.167969 L 31.902344 8.171875 L 16.007812 7.972656 L 31.902344 8.273438 Z M 31.902344 8.097656 L 31.902344 8.101562 L 16.269531 7.972656 L 31.902344 8.050781 L 31.902344 8.054688 L 16.28125 7.972656 Z M 0.015625 8.050781 L 15.660156 7.972656 L 0.015625 8.101562 L 0.015625 8.097656 L 15.636719 7.972656 L 0.015625 8.054688 Z M 31.902344 8.023438 L 16.167969 7.972656 L 16.035156 7.96875 L 16.519531 7.972656 L 31.902344 7.976562 L 16.652344 7.972656 L 31.902344 7.984375 L 31.902344 7.988281 L 16.5625 7.972656 L 31.902344 8 L 16.417969 7.972656 L 16.035156 7.96875 L 16.160156 7.972656 L 31.902344 8.019531 Z M 0.015625 8.023438 L 0.015625 8.019531 L 15.75 7.972656 Z M 0.015625 7.976562 L 15.398438 7.972656 L 0.015625 8 L 15.355469 7.972656 L 0.015625 7.988281 L 0.015625 7.984375 L 15.265625 7.972656 Z M 0.015625 7.976562 "/>
<path style=" stroke:none;fill-rule:nonzero;fill:rgb(100%,100%,100%);fill-opacity:1;" d="M 31.902344 2.625 L 31.902344 2.5 L 0 2.5 L 0 2.625 Z M 31.902344 4.40625 L 31.902344 4.320312 L 0 4.320312 L 0 4.40625 Z M 31.902344 5.589844 L 31.902344 5.535156 L 0 5.535156 L 0 5.589844 Z M 31.902344 6.382812 L 31.902344 6.34375 L 0 6.34375 L 0 6.382812 Z M 31.902344 6.90625 L 31.902344 6.882812 L 0 6.882812 L 0 6.90625 Z M 31.902344 7.257812 L 31.902344 7.242188 L 0 7.242188 L 0 7.257812 Z M 31.902344 7.492188 L 31.902344 7.484375 L 0 7.484375 L 0 7.492188 Z M 31.902344 7.648438 L 31.902344 7.640625 L 0 7.640625 L 0 7.648438 Z M 31.902344 7.753906 L 31.902344 7.75 L 0 7.75 L 0 7.753906 Z M 31.902344 7.824219 L 31.902344 7.820312 L 0 7.820312 L 0 7.824219 Z M 31.902344 7.871094 L 31.902344 7.867188 L 0 7.867188 L 0 7.871094 Z M 31.902344 7.902344 L 31.902344 7.898438 L 0 7.898438 L 0 7.902344 Z M 31.902344 7.921875 L 0 7.921875 Z M 31.902344 7.933594 L 0 7.933594 Z M 31.902344 7.945312 L 31.902344 7.941406 L 0 7.941406 L 0 7.945312 Z M 31.902344 7.949219 L 0 7.949219 Z M 31.902344 7.949219 "/>
<path style=" stroke:none;fill-rule:nonzero;fill:rgb(100%,100%,100%);fill-opacity:1;" d="M 0.429688 0.015625 L 0.015625 0.015625 L 15.957031 7.953125 Z M 6.308594 0.015625 L 15.957031 7.957031 L 15.957031 7.953125 L 19.316406 0.015625 L 18.902344 0.015625 L 15.957031 7.953125 L 13.015625 0.015625 L 12.601562 0.015625 L 15.957031 7.953125 L 6.722656 0.015625 Z M 25.195312 0.015625 L 15.957031 7.957031 L 25.609375 0.015625 Z M 31.488281 0.015625 L 15.957031 7.957031 L 31.902344 0.015625 Z M 31.902344 2.484375 L 15.957031 7.953125 L 31.902344 2.613281 Z M 0.015625 2.613281 L 15.957031 7.953125 L 0.015625 2.484375 Z M 15.957031 7.953125 L 0.015625 4.3125 L 0.015625 4.398438 Z M 15.957031 7.957031 L 15.960938 7.953125 L 31.902344 4.398438 L 31.902344 4.3125 Z M 0.015625 5.53125 L 0.015625 5.585938 L 15.949219 7.953125 Z M 31.902344 5.585938 L 31.902344 5.53125 L 15.96875 7.953125 Z M 15.972656 7.953125 L 15.96875 7.953125 L 15.992188 7.953125 L 31.902344 7.261719 L 31.902344 7.246094 L 15.992188 7.953125 L 31.902344 6.910156 L 31.902344 6.882812 L 15.980469 7.953125 L 15.984375 7.953125 L 15.96875 7.953125 L 31.902344 6.382812 L 31.902344 6.34375 L 15.976562 7.953125 Z M 15.941406 7.953125 L 0.015625 6.34375 L 0.015625 6.382812 L 15.929688 7.953125 C 15.933594 7.953125 15.9375 7.953125 15.941406 7.953125 Z M 0.015625 7.261719 L 7.988281 7.609375 L 15.921875 7.953125 L 0.015625 6.882812 L 0.015625 6.910156 L 15.921875 7.953125 L 0.015625 7.246094 Z M 31.902344 7.484375 L 15.957031 7.953125 L 31.902344 7.496094 Z M 15.9375 7.953125 L 15.949219 7.953125 L 15.941406 7.953125 L 0.015625 7.484375 L 0.015625 7.496094 L 15.929688 7.953125 L 0.015625 7.644531 L 0.015625 7.652344 L 15.929688 7.953125 L 7.988281 7.855469 L 0.015625 7.753906 L 0.015625 7.757812 Z M 31.902344 7.644531 L 16.007812 7.953125 L 31.902344 7.757812 L 31.902344 7.753906 L 23.929688 7.855469 L 16.007812 7.953125 L 31.902344 7.652344 Z M 31.902344 7.828125 L 31.902344 7.824219 L 16.269531 7.953125 L 31.902344 7.875 L 31.902344 7.871094 L 16.28125 7.953125 Z M 0.015625 7.875 L 15.660156 7.953125 L 0.015625 7.824219 L 0.015625 7.828125 L 15.636719 7.953125 L 0.015625 7.871094 Z M 15.960938 7.957031 L 15.964844 7.953125 L 15.960938 7.957031 L 16.519531 7.953125 L 31.902344 7.949219 L 16.652344 7.953125 L 31.902344 7.941406 L 31.902344 7.9375 L 16.5625 7.953125 L 31.902344 7.925781 L 16.417969 7.953125 L 16.035156 7.957031 L 16.160156 7.953125 L 31.902344 7.90625 L 31.902344 7.902344 L 16.144531 7.953125 L 16.027344 7.957031 Z M 0.015625 7.902344 L 0.015625 7.90625 L 15.75 7.953125 Z M 0.015625 7.949219 L 15.398438 7.953125 L 0.015625 7.925781 L 15.355469 7.953125 L 0.015625 7.9375 L 0.015625 7.941406 L 15.265625 7.953125 Z M 0.015625 7.949219 "/>
</g>
</svg>
