<svg xmlns="http://www.w3.org/2000/svg" viewBox="0 0 32 16">
  <g fill="none" fill-rule="evenodd">
    <rect width="32" height="16" fill="#FFF" transform="matrix(1 0 0 -1 0 16)"/>
    <rect width="11" height="16" fill="#D91023"/>
    <rect width="11" height="16" x="21" fill="#D91023"/>
    <g transform="translate(13 5)">
      <path fill="#02A853" fill-rule="nonzero" d="M0.878679656,0.878679656 L1.58578644,1.58578644 C1.22385763,1.94771525 1,2.44771525 1,3 C1,4.1045695 1.8954305,5 3,5 C4.1045695,5 5,4.1045695 5,3 C5,2.44771525 4.77614237,1.94771525 4.41421356,1.58578644 L5.12132034,0.878679656 C5.66421356,1.42157288 6,2.17157288 6,3 C6,4.65685425 4.65685425,6 3,6 C1.34314575,6 0,4.65685425 0,3 C0,2.24060847 0.282153882,1.54711751 0.747345544,1.01864322 L0.878679656,0.878679656 Z"/>
      <path fill="#D4AF37" d="M1,0 L5,0 L5,3 C5,4.1045695 4.1045695,5 3,5 C1.8954305,5 1,4.1045695 1,3 L1,0 L1,0 Z"/>
      <path fill="#D91023" d="M2,1 L4,1 L4,3 C4,3.55228475 3.55228475,4 3,4 C2.44771525,4 2,3.55228475 2,3 L2,1 L2,1 Z"/>
    </g>
  </g>
</svg>
