<svg xmlns="http://www.w3.org/2000/svg" viewBox="0 0 32 16">
  <g fill="none" fill-rule="evenodd">
    <polygon fill="#0038A8" fill-rule="nonzero" points="32 0 0 0 0 16 32 16"/>
    <polygon fill="#CE1126" fill-rule="nonzero" points="32 8 0 8 0 16 32 16"/>
    <polygon fill="#FFF" points="0 16 14 8 0 0"/>
    <polygon fill="#FFDA44" fill-rule="nonzero" points="5.79 7.873 4.813 7.413 5.334 6.467 4.273 6.67 4.138 5.598 3.399 6.387 2.66 5.598 2.526 6.67 1.465 6.467 1.985 7.413 1.008 7.873 1.985 8.332 1.465 9.279 2.526 9.076 2.66 10.147 3.399 9.359 4.138 10.147 4.273 9.076 5.334 9.279 4.813 8.332"/>
    <polygon fill="#FFDA44" fill-rule="nonzero" points="1.446 2.005 1.771 2.46 2.304 2.291 1.972 2.741 2.297 3.195 1.767 3.019 1.435 3.468 1.439 2.91 .909 2.733 1.442 2.564"/>
    <polygon fill="#FFDA44" fill-rule="nonzero" points="1.446 12.277 1.771 12.732 2.304 12.563 1.972 13.013 2.297 13.467 1.767 13.291 1.435 13.74 1.439 13.182 .909 13.005 1.442 12.836"/>
    <polygon fill="#FFDA44" fill-rule="nonzero" points="10.083 7.141 9.758 7.596 9.226 7.427 9.557 7.877 9.232 8.331 9.762 8.155 10.094 8.604 10.09 8.046 10.62 7.869 10.087 7.7"/>
  </g>
</svg>
