<svg id="vector" xmlns="http://www.w3.org/2000/svg" width="24" height="24" viewBox="0 0 512 512"><path fill="#D80027" d="M256 512C397.217 512 511.727 397.658 512 256.505V256L256 224L0.000488281 256C0.000488281 397.385 114.616 512 256 512Z" id="path_0"/><path fill="#0052B4" d="M512 255.495V256H0.000488281C0.000488281 114.615 114.616 0 256 0C397.217 0 511.727 114.342 512 255.495Z" id="path_1"/><path fill="#EEEEEE" d="M0 245.585C2.66508 178.982 30.7761 118.927 74.8766 74.8767L256 256L74.8767 437.123C30.7761 393.073 2.66509 333.018 0 266.415V245.585Z" id="path_2"/><path fill="#FFC635" d="M70.9534 103.426L82.2778 116.685L98.3875 110.012L89.2767 124.88L100.601 138.139L83.6459 134.068L74.5351 148.936L73.167 131.552L56.2118 127.482L72.3215 120.809L70.9534 103.426Z" id="path_3"/><path fill="#FFC635" d="M70.9568 408.575L72.3249 391.192L56.2152 384.519L73.1704 380.449L74.5385 363.065L83.6493 377.933L100.605 373.862L89.2801 387.122L98.3909 401.989L82.2812 395.316L70.9568 408.575Z" id="path_4"/><path fill="#FFC635" d="M233.6 256L217.017 261.388L217.017 278.825L206.767 264.719L190.184 270.107L200.433 256L190.184 241.893L206.767 247.281L217.017 233.175L217.017 250.612L233.6 256Z" id="path_5"/><path fill="#FFC635" d="M106.799 184.808L110.765 188.774L104.851 218.505C109.799 219.484 114.4 221.431 118.446 224.14L135.29 198.932H140.899L120.451 225.579C121.104 226.081 121.74 226.604 122.358 227.146L147.101 198.932H154.061V205.891L125.846 230.634C126.389 231.252 126.911 231.888 127.413 232.541L154.061 212.094V217.702L128.852 234.546C131.562 238.593 133.508 243.193 134.487 248.142L164.219 242.228L168.185 246.194L134.886 250.578C134.992 251.389 135.072 252.208 135.125 253.034L172.571 250.58L177.492 255.501L172.571 260.422L135.125 257.967C135.072 258.794 134.992 259.613 134.886 260.424L168.185 264.808L164.219 268.774L134.487 262.859C133.508 267.808 131.561 272.408 128.852 276.454L154.061 293.299V298.907L127.412 278.459C126.911 279.112 126.388 279.748 125.846 280.366L154.061 305.11V312.069H147.101L122.358 283.854C121.739 284.397 121.104 284.919 120.451 285.421L140.898 312.069H135.29L118.446 286.86C114.399 289.569 109.799 291.516 104.851 292.495L110.765 322.228L106.799 326.194L102.415 292.894C101.604 293 100.785 293.08 99.9585 293.133L102.413 330.58L97.4921 335.501L92.5709 330.58L95.0254 293.133C94.1991 293.08 93.38 293 92.569 292.894L88.1849 326.194L84.219 322.228L90.1333 292.495C85.185 291.516 80.5847 289.569 76.538 286.86L59.6938 312.069H54.0851L74.5331 285.421C73.8802 284.919 73.2443 284.396 72.6262 283.854L47.8824 312.069H40.9235V305.109L69.1381 280.366C68.5956 279.748 68.073 279.112 67.5714 278.459L40.9235 298.907V293.298L66.1321 276.454C63.4229 272.408 61.4761 267.808 60.4973 262.859L30.7646 268.774L26.7987 264.808L60.0981 260.424C59.9924 259.613 59.9124 258.794 59.8591 257.967L22.4127 260.422L17.4919 255.501L22.4131 250.58L59.859 253.034C59.9123 252.208 59.9922 251.389 60.098 250.578L26.799 246.194L30.7649 242.228L60.497 248.142C61.4757 243.193 63.4225 238.593 66.1317 234.546L40.9235 217.703V212.094L67.5709 232.541C68.0726 231.888 68.5952 231.253 69.1376 230.634L40.9235 205.891V198.932L47.8824 198.932L72.6258 227.146C73.2439 226.604 73.8798 226.081 74.5326 225.579L54.0851 198.932H59.6938L76.5376 224.14C80.5843 221.431 85.1847 219.484 90.1332 218.505L84.2192 188.774L88.1852 184.808L92.5689 218.106C93.3799 218 94.1991 217.92 95.0254 217.867L92.5711 180.422L97.4921 175.501L102.413 180.422L99.9587 217.867C100.785 217.92 101.604 218 102.415 218.106L106.799 184.808Z" id="path_6"/></svg>