<svg xmlns="http://www.w3.org/2000/svg" viewBox="0 0 32 16">
  <g fill="none" fill-rule="evenodd">
    <rect width="32" height="16" fill="#FFF"/>
    <rect width="22" height="16" x="10" fill="#01411C"/>
    <g fill="#F2F2F2" fill-rule="nonzero" transform="translate(16 3)">
      <path d="M8.71013116,7.377259 C6.8780558,8.69130474 4.3197009,8.28228337 2.99600425,6.46369932 C1.67219447,4.64500296 2.08429404,2.10546539 3.9163694,0.791475803 C4.48759542,0.381780588 5.12941859,0.139590969 5.7823857,0.0554170206 C4.52617495,-0.131068425 3.19823568,0.149923195 2.0874053,0.946683804 C-0.167404464,2.56401406 -0.674651808,5.68956853 0.954569866,7.9279554 C2.58379154,10.1661738 5.73249252,10.6697575 7.98741541,9.05231496 C9.09835894,8.25555435 9.78402249,7.09244895 10,5.84983033 C9.7145567,6.4386549 9.28141374,6.96750763 8.71013116,7.377259 Z"/>
      <polygon points="8.227 0 9.286 1.128 10.699 .481 9.941 1.825 11 2.953 9.472 2.656 8.714 4 8.528 2.472 7 2.175 8.413 1.528"/>
    </g>
  </g>
</svg>
