<svg width="32" height="16" viewBox="0 0 32 16" fill="none" xmlns="http://www.w3.org/2000/svg">
<g clip-path="url(#clip0_3056_43860)">
<g clip-path="url(#clip1_3056_43860)">
<path fill-rule="evenodd" clip-rule="evenodd" d="M-2.62402 -0.181763H34.6174V16.1819H-2.62402V-0.181763Z" fill="#0C590B"/>
<path fill-rule="evenodd" clip-rule="evenodd" d="M-2.62402 -0.181763H6.71057V16.1819H-2.62402V-0.181763Z" fill="white"/>
</g>
<path fill-rule="evenodd" clip-rule="evenodd" d="M22.104 6.76137L21.0983 6.55044L20.5697 7.42295L20.4601 6.41301L19.4609 6.18289L20.3957 5.76741L20.3087 4.75427L20.9984 5.50853L21.9428 5.11223L21.4303 5.99433L22.1072 6.76137H22.104Z" fill="white"/>
<path fill-rule="evenodd" clip-rule="evenodd" d="M22.4812 9.33736C22.2666 9.80148 21.9617 10.219 21.5839 10.5659C21.2061 10.9127 20.7629 11.1821 20.2797 11.3585C19.7966 11.535 19.283 11.615 18.7685 11.5939C18.2541 11.5728 17.7489 11.4511 17.282 11.2358C16.3349 10.801 15.6007 10.0108 15.241 9.03926C14.8814 8.06768 14.9257 6.99423 15.3642 6.05504C15.582 5.57226 15.8993 5.14 16.2956 4.78608C16.692 4.43215 17.1586 4.16439 17.6656 4C17.5329 4.10958 17.4059 4.22585 17.2853 4.34837C16.6564 5.03892 16.3226 5.94464 16.3542 6.87453C16.3858 7.80442 16.7803 8.68581 17.4546 9.33285C18.1289 9.97989 19.0302 10.342 19.9686 10.3429C20.9069 10.3437 21.8089 9.98319 22.4844 9.33736H22.4812Z" fill="white"/>
</g>
<defs>
<clipPath id="clip0_3056_43860">
<rect width="32" height="16" fill="white"/>
</clipPath>
<clipPath id="clip1_3056_43860">
<rect width="33.1034" height="16.3636" fill="white" transform="translate(-0.551758 -0.181763)"/>
</clipPath>
</defs>
</svg>
