<svg id="vector" xmlns="http://www.w3.org/2000/svg" width="24" height="24" viewBox="0 0 512 512"><path fill="#496E2D" d="M512 256A256 256 0 0 1 0 256A256 256 0 0 1 512 256Z" id="path_0"/><path fill="#EEEEEE" d="M128 34.2483V477.752C51.4814 433.488 0 350.756 0 256C0 161.244 51.4814 78.5119 128 34.2483Z" fill-rule="evenodd" id="path_1"/><path fill="#EEEEEE" d="M373.801 298.337C341.414 321.738 296.188 314.454 272.788 282.068C249.386 249.68 256.671 204.455 289.058 181.055C299.156 173.759 310.502 169.446 322.045 167.947C299.838 164.626 276.363 169.63 256.726 183.819C216.866 212.621 207.899 268.282 236.7 308.144C265.501 348.003 321.163 356.971 361.025 328.167C380.664 313.978 392.785 293.265 396.603 271.136C391.557 281.622 383.9 291.04 373.801 298.337Z" id="path_2"/><path fill="#EEEEEE" d="M372.414 166.959L390.658 186.62L414.994 175.348L401.931 198.772L420.174 218.435L393.858 213.25L380.796 236.676L377.595 210.046L351.279 204.861L375.616 193.589L372.414 166.959Z" id="path_3"/></svg>