<svg xmlns="http://www.w3.org/2000/svg" viewBox="0 0 32 16">
  <g fill="none" fill-rule="evenodd">
    <rect width="32" height="16" fill="red" transform="matrix(1 0 0 -1 0 16)"/>
    <rect width="10" height="16" fill="#060"/>
    <g transform="translate(6 4)">
      <path fill="#FF0" fill-rule="nonzero" d="M4,0 C6.209139,0 8,1.790861 8,4 C8,6.209139 6.209139,8 4,8 C1.790861,8 0,6.209139 0,4 C0,1.790861 1.790861,0 4,0 Z M1.41402712,6.35749153 L1.52512627,6.47487373 C2.10354213,7.0532896 2.88346914,7.43019431 3.7505685,7.49124906 L3.75212472,6.74345939 C3.23086086,6.71728457 2.55811338,6.61257058 1.73130634,6.42972166 L1.41402712,6.35749153 Z M6.58801737,6.35633879 L6.41266754,6.39744593 C5.52019001,6.60016321 4.79993494,6.71564351 4.24886209,6.74340975 L4.25043621,7.49117817 C5.17503047,7.42580982 6.00044319,7.00131102 6.58801737,6.35633879 Z M3.75,4.467 L1.615,5.89 L1.64397165,5.89749724 C2.47309733,6.08760674 3.1461234,6.20065096 3.66044053,6.23703937 L3.75,6.242 L3.75,4.467 Z M4.25,4.467 L4.24834567,6.24278077 C4.71208209,6.21735053 5.3151452,6.12471425 6.05539194,5.96453562 L6.384,5.89 L4.25,4.467 Z M0.956162669,5.72895778 L3.173,4.25 L0.508821826,4.25043621 C0.546646253,4.78543893 0.704714236,5.28723382 0.956162669,5.72895778 Z M7.49117817,4.25043621 L4.826,4.25 L7.04383733,5.72895778 C7.29528576,5.28723382 7.45335375,4.78543893 7.49117817,4.25043621 Z M7.04383733,2.27104222 L4.826,3.75 L7.49124906,3.7505685 C7.4535516,3.2151893 7.29544316,2.71304268 7.04383733,2.27104222 Z M0.508750937,3.7505685 L3.173,3.75 L0.956162669,2.27104222 C0.704556839,2.71304268 0.546448401,3.2151893 0.508750937,3.7505685 Z M1.94460806,2.03546438 L1.615,2.109 L3.75,3.532 L3.75264784,1.75716484 C3.28877936,1.78251717 2.68538355,1.87517134 1.94460806,2.03546438 Z M4.25,1.757 L4.25,3.532 L6.384,2.109 L6.35602835,2.10250276 C5.52690267,1.91239326 4.8538766,1.79934904 4.33955947,1.76296063 L4.25,1.757 Z M1.41198263,1.64366121 L1.58733246,1.60255407 C2.48034282,1.39971577 3.200925,1.28421863 3.75212472,1.25654061 L3.7505685,0.508750937 C2.82556749,0.573882701 1.99976963,0.99845537 1.41198263,1.64366121 Z M4.25043621,0.508821826 L4.24886209,1.25659025 C4.83516998,1.28613183 5.6129864,1.41496277 6.58597288,1.64250847 C6.00044319,0.998688981 5.17503047,0.574190182 4.25043621,0.508821826 Z"/>
      <path fill="red" d="M2,2 L6,2 L6,4.5 C6,5.6045695 5.1045695,6.5 4,6.5 C2.8954305,6.5 2,5.6045695 2,4.5 L2,2 L2,2 Z"/>
      <path fill="#FFF" d="M3,3 L5,3 L5,4.5 C5,5.05228475 4.55228475,5.5 4,5.5 C3.44771525,5.5 3,5.05228475 3,4.5 L3,3 L3,3 Z"/>
    </g>
  </g>
</svg>
