<svg id="vector" xmlns="http://www.w3.org/2000/svg" width="32" height="16" viewBox="0 0 500.0 250.0"><path fill="#ff0000" fill-rule="evenodd" d="M0 250h500V0H0z" id="path_0"/><path fill="#060" fill-rule="evenodd" d="M0 250h150V0H0z" id="path_1"/><path fill="#FF0" fill-rule="evenodd" d="M198.9 163.78c-18.88-0.57-105.46-54.62-106.06-63.22l4.78-7.98c8.6 12.48 97.1 65.04 105.8 63.18l-4.52 8.01" id="path_2"/><path fill="#000" fill-rule="evenodd" d="M93.03 100.6c0.44 3.97 19.76 18.4 46.08 34.43 21.26 12.94 49.6 28.15 59.69 28.56l4.29-7.61c-5.45 0.27-30.15-12.85-52.7-26.28-22.88-13.62-47.9-30.2-52.75-36.79l-4.61 7.69zm105.87 63.35c-10.07-0.3-38.6-15.6-59.98-28.62a451.41 451.41 0 0 1-32.02-21.2c-6.4-4.73-14.05-10.93-14.24-13.56 0-0.04 0.01-0.07 0.03-0.1l4.78-7.98a0.18 0.18 0 0 1 0.15-0.09c0.06 0 0.12 0.03 0.15 0.08 4.4 6.4 29.7 23.15 52.8 36.92 27.27 16.23 48.96 27 52.81 26.18a0.2 0.2 0 0 1 0.18 0.07c0.04 0.06 0.05 0.13 0.01 0.2l-4.5 7.99a0.18 0.18 0 0 1-0.17 0.11z" id="path_3"/><path fill="#FF0" fill-rule="evenodd" d="M199.34 164.03c-0.32 0.58-0.91 0.6-2.05 0.47-7.06-0.78-28.5-11.2-53.85-26.38-29.5-17.67-53.87-33.76-51.23-37.97l0.72-1.27 0.14 0.05c-2.38 7.13 48.1 35.98 51.07 37.82 29.2 18.1 53.82 28.66 56 25.92l-0.8 1.36zM96.62 91.5c-1.7 4.56 22.6 19.57 51.81 37.35 29.22 17.77 54.42 28.75 56.29 27.18 0.11-0.2 0.92-1.6 0.84-1.58-0.35 0.53-1.2 0.7-2.53 0.3-7.9-2.27-28.48-11.72-53.98-27.18-25.5-15.47-47.69-29.72-51.14-35.77a3.67 3.67 0 0 1-0.37-1.78h-0.09l-0.73 1.28-0.1 0.2z" id="path_4"/><path fill="#000" fill-rule="evenodd" d="M96.78 91.58c-1.65 4.64 26.72 21.89 51.75 37.11 30.02 18.26 54.2 28.53 56.05 27.22l0.08-0.14 0.41-0.74c-0.5 0.18-1.22 0.15-2.09-0.1-8.68-2.5-30.02-12.65-54.03-27.2-41.68-25.3-49.25-32.44-51.2-35.84a3.81 3.81 0 0 1-0.38-1.37l-0.59 1.06zm107.3 64.76c-5 0-30.27-11.85-55.74-27.34-31.45-19.13-53.58-33.02-51.89-37.56v-0.02l0.11-0.2 0.74-1.3c0.03-0.05 0.1-0.08 0.16-0.08h0.08a0.18 0.18 0 0 1 0.18 0.19 3.5 3.5 0 0 0 0.35 1.68c3.65 6.4 29.2 22.45 51.07 35.7 23.98 14.54 45.28 24.68 53.94 27.18 1.16 0.33 2 0.25 2.33-0.24a0.17 0.17 0 0 1 0.12-0.08c0.07 0 0.14 0.02 0.18 0.08 0.08 0.12 0.1 0.13-0.74 1.6l-0.1 0.16a0.18 0.18 0 0 1-0.04 0.05c-0.14 0.12-0.4 0.18-0.75 0.18zM92.8 99.45l-0.44 0.8c-0.19 0.28-0.22 0.63-0.12 1.06 1.12 4.68 17.9 16.67 51.28 36.65 25.02 14.98 46.63 25.57 53.78 26.36 1.1 0.12 1.61 0.1 1.88-0.38v-0.02l0.44-0.75c-5.13 1.55-32.57-12-55.59-26.26l-1.97-1.17c-32.68-19.25-49.23-31.45-49.26-36.29zm105.37 65.3a7.7 7.7 0 0 1-0.9-0.07c-7.2-0.8-28.88-11.41-53.93-26.4-33.48-20.05-50.3-32.11-51.45-36.89a1.7 1.7 0 0 1 0.16-1.33l0.71-1.26a0.19 0.19 0 0 1 0.21-0.09l0.14 0.05a0.18 0.18 0 0 1 0.12 0.22c-1.84 5.51 29.92 25.2 49.01 36.45l1.98 1.17c28.83 17.86 53.65 28.62 55.77 25.95 0.05-0.07 0.16-0.09 0.24-0.03 0.07 0.05 0.1 0.15 0.05 0.23l-0.8 1.37v0.01c-0.27 0.48-0.7 0.61-1.3 0.61z" id="path_5"/><path fill="#FF0" fill-rule="evenodd" d="M150.1 105.77c18.9-0.15 42.22-2.58 55.65-7.93l-2.9-4.7c-7.93 4.39-31.38 7.28-52.9 7.7-25.46-0.23-43.43-2.6-52.44-8.64l-2.73 5c16.55 7 33.52 8.5 55.33 8.57" id="path_6"/><path fill="#000" fill-rule="evenodd" d="M95.03 97.12c16.54 6.95 33.34 8.4 55.07 8.47 26.67-0.21 46.05-4.17 55.38-7.84l-2.69-4.37c-6.18 3.31-25.25 7.1-52.84 7.65-27.22-0.25-43.88-2.98-52.38-8.57l-2.54 4.66zm55.08 8.83c-21.86-0.07-38.75-1.53-55.4-8.58a0.18 0.18 0 0 1-0.09-0.25l2.73-5a0.18 0.18 0 0 1 0.26-0.06c8.39 5.62 25.02 8.36 52.34 8.61 27.75-0.56 46.83-4.38 52.82-7.69a0.18 0.18 0 0 1 0.24 0.07l2.89 4.7a0.18 0.18 0 0 1-0.09 0.25c-9.28 3.7-28.79 7.73-55.7 7.95z" id="path_7"/><path fill="#FF0" fill-rule="evenodd" d="M203.99 93.18c-1.44 1.15-8.58 3.68-21.14 5.69a227.4 227.4 0 0 1-32.67 2.29c-12.94 0.01-23.5-0.86-31.55-2.03-12.76-1.67-19.55-4.67-22-5.55l0.75-1.26c1.9 0.96 8.46 3.62 21.4 5.45a225.87 225.87 0 0 0 31.4 1.96 226.3 226.3 0 0 0 32.43-2.3c12.63-1.75 19.43-4.97 20.46-5.78l0.92 1.53zm2.53 4.76c-0.46 0.74-9.21 3.76-22.1 5.99a228.65 228.65 0 0 1-34.38 2.48 244 244 0 0 1-32.93-2.08c-13.53-2.12-20.52-5.07-23.1-6.12l0.64-1.3a100 100 0 0 0 22.68 6.02c8.3 1.12 19.22 2.1 32.67 2.09a229.53 229.53 0 0 0 34.13-2.54c13.23-2.13 20.45-4.87 21.46-6.15l0.94 1.61z" id="path_8"/><path fill="#000" fill-rule="evenodd" d="M203.99 93.18zm-107.1 0.3l0.84 0.32c3.14 1.2 9.67 3.68 20.92 5.15a222.38 222.38 0 0 0 31.27 2.03h0.26a229.3 229.3 0 0 0 32.64-2.29c12.4-1.98 19.3-4.4 20.93-5.56l-0.74-1.23c-1.37 0.91-7.9 3.98-20.37 5.7a222.4 222.4 0 0 1-32.45 2.3h-0.3c-14.33 0-24.84-1.06-31.14-1.95-13.5-1.91-19.84-4.69-21.3-5.4l-0.55 0.94zm53.03 7.86c-11.36 0-22.18-0.7-31.31-2.03-11.3-1.48-17.85-3.97-21-5.17l-1.04-0.4a0.18 0.18 0 0 1-0.1-0.25l0.76-1.26a0.18 0.18 0 0 1 0.23-0.07c1.11 0.56 7.38 3.46 21.34 5.44 6.3 0.89 16.78 1.95 31.09 1.95h0.3a223.37 223.37 0 0 0 32.4-2.3c12.07-1.67 19.15-4.8 20.37-5.74a0.18 0.18 0 0 1 0.26 0.04l0.92 1.54c0.02 0.02 0.03 0.06 0.03 0.09 0 0.05-0.03 0.1-0.07 0.14-1.4 1.13-8.4 3.68-21.22 5.73a229.7 229.7 0 0 1-32.7 2.29h-0.26zm-55.66-3.22l0.1 0.04c2.66 1.08 9.73 3.95 22.78 6a244.38 244.38 0 0 0 32.63 2.08h0.27a230.6 230.6 0 0 0 34.35-2.49c12.77-2.2 21.02-5.1 21.92-5.83l-0.75-1.3c-1.45 1.3-8.16 3.9-21.4 6.04A231.3 231.3 0 0 1 150 105.2c-11.4 0.01-22.38-0.7-32.7-2.1a100.1 100.1 0 0 1-22.56-5.95l-0.3 0.6-0.18 0.37zm55.51 8.47c-11.48 0-22.47-0.7-32.68-2.08-13.1-2.05-20.2-4.93-22.87-6.02l-0.28-0.11a0.18 0.18 0 0 1-0.1-0.25l0.28-0.54 0.37-0.75a0.18 0.18 0 0 1 0.23-0.09 99.95 99.95 0 0 0 22.63 6 242.59 242.59 0 0 0 32.4 2.09H150a230.7 230.7 0 0 0 34.1-2.53c13.07-2.11 20.35-4.83 21.35-6.09a0.17 0.17 0 0 1 0.16-0.07c0.06 0 0.1 0.04 0.14 0.1l0.93 1.6a0.18 0.18 0 0 1-0.02 0.22c-0.72 0.9-9.73 3.88-22.21 6.03a230.89 230.89 0 0 1-34.41 2.5h-0.27z" id="path_9"/><path fill="#FF0" fill-rule="evenodd" d="M88.05 128.54c11.62 6.25 37.44 9.4 61.87 9.62 22.25 0.03 51.22-3.44 62.06-9.18l-0.3-6.26c-3.39 5.3-34.44 10.38-62 10.17-27.56-0.2-53.15-4.46-61.68-9.97l0.05 5.62" id="path_10"/><path fill="#000" fill-rule="evenodd" d="M88.23 128.43c8.33 4.44 28.87 9.26 61.7 9.55h0.33c21.8 0 50.61-3.4 61.54-9.11l-0.27-5.66c-4.67 5.24-34.63 10.07-61.85 9.86-26.85-0.2-52.57-4.32-61.5-9.83l0.05 5.19zm62.02 9.9h-0.33c-33-0.29-53.65-5.17-61.95-9.63a0.18 0.18 0 0 1-0.1-0.17l-0.05-5.61a0.18 0.18 0 0 1 0.28-0.15c8.6 5.55 34.5 9.74 61.58 9.94 27.31 0.2 58.52-4.88 61.85-10.09 0.05-0.06 0.13-0.1 0.2-0.07 0.08 0.02 0.13 0.08 0.13 0.16l0.3 6.26c0 0.07-0.03 0.13-0.1 0.16-10.9 5.78-39.9 9.2-61.8 9.2z" id="path_11"/><path fill="#FF0" fill-rule="evenodd" d="M212.58 122.33v1.5c-1.63 1.94-11.84 4.88-24.65 6.95-9.74 1.5-22.45 2.63-38.28 2.63-15.05 0-27.04-1.08-36.35-2.5-14.7-2.15-24.1-5.9-26-7.01l0.01-1.75c5.67 3.77 21.04 6.53 26.2 7.38 9.24 1.42 21.17 2.48 36.13 2.48 15.76 0 28.4-1.12 38.09-2.6 9.18-1.33 22.27-4.78 24.85-7.08zm0 5.3v1.5c-1.63 1.95-11.85 4.9-24.65 6.96-9.75 1.5-22.46 2.62-38.3 2.62-15.03 0-27.03-1.07-36.33-2.5-14.7-2.14-24.12-5.89-26-7v-1.75c5.68 3.77 21.04 6.53 26.2 7.38 9.25 1.42 21.17 2.48 36.14 2.48 15.76 0 28.4-1.12 38.08-2.6 9.19-1.33 22.28-4.78 24.85-7.08z" id="path_12"/><path fill="#000" fill-rule="evenodd" d="M87.48 123.8c1.68 0.93 10.72 4.73 25.85 6.93 10.79 1.66 23 2.5 36.31 2.5 14.06 0 26.93-0.88 38.27-2.62 12.27-1.99 22.75-4.92 24.5-6.86v-1.05c-3.2 2.32-15.8 5.6-24.66 6.88-11.28 1.73-24.1 2.61-38.1 2.61-13.26 0-25.43-0.84-36.17-2.49-4.63-0.75-20.02-3.48-26-7.22v1.31zm62.16 9.78c-13.32 0-25.56-0.84-36.36-2.5-14.09-2.05-23.8-5.69-26.07-7.03a0.18 0.18 0 0 1-0.09-0.16l0.01-1.74c0-0.06 0.04-0.12 0.1-0.15a0.18 0.18 0 0 1 0.18 0c5.7 3.8 21.44 6.58 26.13 7.35 10.72 1.65 22.87 2.48 36.1 2.48 14 0 26.8-0.87 38.06-2.6 9.12-1.32 22.2-4.75 24.76-7.04a0.18 0.18 0 0 1 0.28 0.06l0.02 0.08v1.5c0 0.03-0.01 0.07-0.04 0.1-1.7 2.03-12.1 4.98-24.76 7.03-11.35 1.74-24.24 2.62-38.32 2.62zm-62.16-4.48c1.67 0.94 10.71 4.73 25.84 6.94 10.8 1.66 23.02 2.5 36.32 2.5 14.05 0 26.92-0.89 38.26-2.62 12.27-1.99 22.75-4.92 24.5-6.86v-1.05c-3.2 2.32-15.8 5.6-24.65 6.88-11.29 1.73-24.11 2.6-38.11 2.6-13.26 0-25.42-0.83-36.16-2.48-4.64-0.76-20.04-3.5-26-7.22v1.31zm62.16 9.8a243.6 243.6 0 0 1-36.37-2.5c-14.09-2.06-23.8-5.7-26.06-7.04a0.18 0.18 0 0 1-0.1-0.16l0.02-1.74a0.18 0.18 0 0 1 0.27-0.15c5.69 3.78 21.44 6.58 26.13 7.35 10.72 1.65 22.87 2.48 36.1 2.48 14 0 26.8-0.87 38.06-2.6 9.12-1.32 22.2-4.75 24.76-7.03a0.2 0.2 0 0 1 0.17-0.05c0.08 0.02 0.13 0.1 0.13 0.18v1.49c0 0.04-0.01 0.08-0.04 0.11-1.69 2.03-12.1 4.98-24.75 7.03-11.36 1.74-24.25 2.62-38.32 2.62z" id="path_13"/><path fill="#FF0" fill-rule="evenodd" d="M149.87 162.7c-26.73-0.16-49.64-7.29-54.48-8.47l3.53 5.53c8.54 3.6 30.9 8.95 51.2 8.35 20.32-0.59 38.07-2.16 50.58-8.25l3.62-5.73c-8.53 4.02-37.54 8.53-54.45 8.57" id="path_14"/><path fill="#000" fill-rule="evenodd" d="M99.04 159.61c8.85 3.71 31.15 8.9 51.08 8.32 18.53-0.54 37.47-1.9 50.46-8.21l3.27-5.18c-9.07 3.91-37.28 8.3-53.98 8.34-23.6-0.14-44.28-5.72-52.07-7.83l-2.01-0.53 3.25 5.1zm47.95 8.73c-19.17 0-39.75-4.89-48.14-8.42a0.18 0.18 0 0 1-0.08-0.07l-3.53-5.52a0.18 0.18 0 0 1 0.2-0.27c0.57 0.14 1.4 0.37 2.45 0.65 7.78 2.1 28.43 7.67 51.98 7.81 17.01-0.04 45.98-4.6 54.37-8.55a0.18 0.18 0 1 1 0.23 0.26l-3.61 5.72a0.18 0.18 0 0 1-0.08 0.07c-13.05 6.35-32.06 7.73-50.65 8.27-1.04 0.03-2.09 0.05-3.14 0.05z" id="path_15"/><path fill="#FF0" fill-rule="evenodd" d="M205.2 153.4l0.04 0.05c-0.4 0.67-0.8 1.35-1.23 2.04-3.14 1.13-11.69 3.62-24.16 5.37-8.22 1.12-13.33 2.2-29.67 2.52-30.64-0.78-50.47-6.77-55.18-8.25l-0.7-1.34c17.75 4.64 35.89 7.87 55.88 8.2 14.95-0.31 21.32-1.42 29.47-2.53 14.54-2.26 21.87-4.65 24.07-5.34a1.63 1.63 0 0 0-0.1-0.13l1.58-0.59zm-3.14 5.17a82.6 82.6 0 0 1-1.62 2.4c-5.9 2.08-15.2 4.26-19.12 4.9-8.02 1.65-20.42 2.87-31.42 2.88-23.69-0.35-43.07-4.98-52.19-8.94l-0.74-1.26 0.12-0.2 1.25 0.49c16.22 5.8 34.43 8.12 51.69 8.53 10.96 0.04 21.93-1.25 30.8-2.84 13.61-2.73 19.12-4.78 20.8-5.71l0.43-0.24z" id="path_16"/><path fill="#000" fill-rule="evenodd" d="M205.2 153.4l0.13-0.1-0.13 0.1zM95.12 155c8.88 2.78 27.8 7.52 55.06 8.22 13.92-0.27 19.6-1.09 26.17-2.03l3.48-0.5c11.02-1.53 19.84-3.83 24.07-5.33l1-1.65-1.01 0.38v0.1a0.17 0.17 0 0 1-0.12 0.1l-0.24 0.08c-2.42 0.76-9.79 3.09-23.86 5.27l-2.58 0.36c-6.97 0.97-13.55 1.9-26.9 2.18-17.74-0.3-35.4-2.87-55.56-8.11l0.49 0.93zm55.06 8.56c-27.38-0.7-46.36-5.47-55.24-8.25a0.17 0.17 0 0 1-0.1-0.09l-0.7-1.34a0.17 0.17 0 0 1 0.02-0.18 0.17 0.17 0 0 1 0.18-0.06c20.29 5.3 38.03 7.9 55.84 8.2 13.33-0.3 19.9-1.2 26.86-2.18l2.58-0.36c14.04-2.18 21.4-4.5 23.8-5.26l0.03-0.01v-0.07c0.02-0.06 0.06-0.1 0.11-0.12l1.58-0.59c0.08-0.03 0.16 0 0.2 0.07l0.03 0.04c0.05 0.05 0.05 0.13 0.02 0.19l-1.23 2.04a0.17 0.17 0 0 1-0.09 0.07c-4.22 1.51-13.1 3.83-24.2 5.38l-3.47 0.49c-6.59 0.94-12.27 1.76-26.22 2.03zm-52.35-3.87c13.46 5.81 35.84 8.66 52.07 8.9 10.45 0 23.07-1.16 31.38-2.88 4.03-0.65 13.2-2.82 19.05-4.88 0.4-0.55 0.8-1.14 1.2-1.76-1.33 0.7-6.18 2.74-20.66 5.64a176.6 176.6 0 0 1-30.84 2.84c-19.83-0.47-37.24-3.35-51.75-8.54l-1.09-0.42 0.64 1.1zm52.07 9.24c-24.15-0.35-43.25-5.04-52.26-8.95a0.18 0.18 0 0 1-0.08-0.07l-0.73-1.27a0.17 0.17 0 0 1 0-0.18l0.12-0.19c0.04-0.07 0.13-0.1 0.2-0.06l1.25 0.48c14.47 5.18 31.85 8.04 51.63 8.52h0.49c11.88 0 23-1.54 30.29-2.84 15.18-3.04 19.71-5.13 20.74-5.7l0.43-0.23a0.17 0.17 0 0 1 0.2 0.03c0.06 0.06 0.07 0.14 0.03 0.2-0.55 0.85-1.1 1.66-1.63 2.4a0.17 0.17 0 0 1-0.08 0.07 141.84 141.84 0 0 1-19.16 4.91c-8.32 1.72-20.96 2.87-31.44 2.88z" id="path_17"/><path fill="#FF0" fill-rule="evenodd" d="M149.78 63.39c34.05 0 62.06 27.7 62.06 61.69 0 33.97-28 61.69-62.06 61.69s-61.83-27.72-61.83-61.7c0-33.97 27.77-61.68 61.83-61.68zm55.74 60.21c0.09 17.59-8.91 33.37-16.16 40.33a58.17 58.17 0 0 1-39.73 16.47c-17.73 0.33-34.45-11.23-38.94-16.3-8.76-9.94-15.9-22.54-16.13-39.53 1.08-19.2 8.62-32.57 19.54-41.73 10.92-9.17 25.47-13.64 37.58-13.32 13.97 0.37 30.3 7.23 41.57 20.83 7.4 8.92 10.6 18.6 12.27 33.25z" id="path_18"/><path fill="#000" fill-rule="evenodd" d="M150.44 69.68c-12.62 0-26.39 5.03-36.22 13.3-11.93 10-18.49 24-19.48 41.6 0.2 14.46 5.45 27.36 16.09 39.4 3.88 4.4 20 16.25 38.04 16.25h0.75a57.83 57.83 0 0 0 39.61-16.43c7.82-7.5 16.19-23.28 16.11-40.19-1.76-15.36-5.19-24.65-12.23-33.14-10.28-12.4-26.16-20.37-41.44-20.77l-1.23-0.02m-1.57 110.91c-18.17 0-34.4-11.95-38.31-16.38-10.7-12.1-15.98-25.07-16.18-39.64 1-17.7 7.6-31.8 19.6-41.87 10.23-8.58 24.67-13.7 37.7-13.36 15.38 0.4 31.36 8.42 41.71 20.9 7.09 8.55 10.54 17.9 12.3 33.34v0.02c0.1 17.02-8.34 32.9-16.2 40.46a58.18 58.18 0 0 1-40.62 16.53m0.9-117.02c-33.99 0-61.64 27.59-61.64 61.5 0 33.92 27.65 61.52 61.65 61.52a61.64 61.64 0 0 0 43.67-18.05 60.87 60.87 0 0 0 18.2-43.46 60.84 60.84 0 0 0-18.2-43.46 61.64 61.64 0 0 0-43.67-18.05m0 123.37c-34.2 0-62.01-27.75-62.01-61.86 0-34.12 27.82-61.87 62-61.87a62 62 0 0 1 43.93 18.15 61.22 61.22 0 0 1 18.32 43.72c0 16.46-6.5 31.99-18.32 43.71a62 62 0 0 1-43.92 18.15" id="path_19"/><path fill="#FF0" fill-rule="evenodd" d="M89.42 125.06c0 33.3 27.34 60.53 60.52 60.53 33.19 0 60.52-27.24 60.52-60.53 0-33.28-27.33-60.52-60.52-60.52-33.18 0-60.52 27.24-60.52 60.52zm60.52-61.88c34.09 0 61.89 27.8 61.89 61.88 0 34.09-27.8 61.9-61.89 61.9-34.08 0-61.88-27.8-61.88-61.9 0-34.08 27.8-61.88 61.88-61.88z" id="path_20"/><path fill="#000" fill-rule="evenodd" d="M149.94 64.72a59.9 59.9 0 0 0-42.57 17.72 59.9 59.9 0 0 0-17.77 42.62 59.9 59.9 0 0 0 17.77 42.62 59.9 59.9 0 0 0 42.57 17.73 59.9 59.9 0 0 0 42.58-17.73 59.9 59.9 0 0 0 17.77-42.62 59.9 59.9 0 0 0-17.77-42.62 59.9 59.9 0 0 0-42.58-17.72m0 121.05a60.26 60.26 0 0 1-42.83-17.83 60.25 60.25 0 0 1-17.87-42.88 60.25 60.25 0 0 1 17.87-42.87 60.26 60.26 0 0 1 42.83-17.83 60.3 60.3 0 0 1 42.84 17.83 60.25 60.25 0 0 1 17.86 42.87 60.25 60.25 0 0 1-17.86 42.88 60.26 60.26 0 0 1-42.84 17.83m0-122.42a61.78 61.78 0 0 0-61.7 61.71 61.78 61.78 0 0 0 61.7 61.71 61.78 61.78 0 0 0 61.7-61.7 61.78 61.78 0 0 0-61.7-61.72m0 123.78a62.13 62.13 0 0 1-62.06-62.07A62.13 62.13 0 0 1 149.94 63 62.13 62.13 0 0 1 212 125.06a62.13 62.13 0 0 1-62.06 62.07" id="path_21"/><path fill="#FF0" fill-rule="evenodd" d="M94.67 125c0 30.44 24.99 55.34 55.32 55.34 30.34 0 55.33-24.9 55.33-55.33s-25-55.33-55.33-55.33-55.32 24.9-55.32 55.33zM150 68.33c31.09 0 56.69 25.51 56.69 56.69 0 31.18-25.6 56.69-56.69 56.69-31.08 0-56.68-25.51-56.68-56.7 0-31.17 25.6-56.68 56.68-56.68z" id="path_22"/><path fill="#000" fill-rule="evenodd" d="M150 69.86a54.75 54.75 0 0 0-38.92 16.2 54.73 54.73 0 0 0-16.23 38.95 54.77 54.77 0 0 0 16.23 38.95 54.75 54.75 0 0 0 38.91 16.2 54.75 54.75 0 0 0 38.91-16.2A54.73 54.73 0 0 0 205.14 125c0-14.66-5.77-28.5-16.24-38.95a54.75 54.75 0 0 0-38.9-16.2m0 110.65a55.1 55.1 0 0 1-39.17-16.3A55.09 55.09 0 0 1 94.5 125a55.1 55.1 0 0 1 16.34-39.2A55.1 55.1 0 0 1 150 69.5a55.1 55.1 0 0 1 39.17 16.3A55.09 55.09 0 0 1 205.5 125c0 14.75-5.8 28.67-16.33 39.2A55.1 55.1 0 0 1 150 180.5m0-112.01c-15 0-29.15 5.9-39.87 16.6A56.09 56.09 0 0 0 93.5 125c0 15.03 5.9 29.2 16.63 39.92a56.1 56.1 0 0 0 39.87 16.6c15 0 29.16-5.9 39.87-16.6A56.09 56.09 0 0 0 206.5 125c0-15.02-5.91-29.2-16.64-39.91A56.1 56.1 0 0 0 150 68.5m0 113.38a56.45 56.45 0 0 1-40.12-16.7A56.44 56.44 0 0 1 93.13 125a56.44 56.44 0 0 1 16.74-40.16 56.45 56.45 0 0 1 40.12-16.71c15.1 0 29.34 5.93 40.13 16.7A56.44 56.44 0 0 1 206.86 125a56.44 56.44 0 0 1-16.74 40.16 56.45 56.45 0 0 1-40.13 16.7" id="path_23"/><path fill="#FF0" fill-rule="evenodd" d="M152.49 62.92h-5.3v124.36h5.32z" id="path_24"/><path fill="#000" fill-rule="evenodd" d="M147.37 187.1h4.96l-0.02-124h-4.95v124zm5.14 0.35h-5.32a0.18 0.18 0 0 1-0.18-0.18V62.93a0.18 0.18 0 0 1 0.17-0.18h5.3c0.1 0 0.19 0.08 0.19 0.18l0.02 124.34a0.18 0.18 0 0 1-0.18 0.18z" id="path_25"/><path fill="#FF0" fill-rule="evenodd" d="M146.7 62.22h1.35V188h-1.36V62.22zm5.26 0h1.35V188h-1.34l-0.01-125.78z" id="path_26"/><path fill="#000" fill-rule="evenodd" d="M152.15 187.82h0.99L153.13 62.4h-1l0.02 125.42zm1.17 0.36h-1.35a0.18 0.18 0 0 1-0.18-0.18l-0.01-125.78a0.18 0.18 0 0 1 0.18-0.18h1.35c0.1 0 0.18 0.08 0.18 0.18V188a0.18 0.18 0 0 1-0.17 0.18zm-6.45-0.36h1V62.4h-1v125.42zm1.19 0.36h-1.37a0.18 0.18 0 0 1-0.18-0.18V62.22c0-0.1 0.08-0.18 0.18-0.18h1.36c0.1 0 0.18 0.08 0.18 0.18V188a0.18 0.18 0 0 1-0.17 0.18z" id="path_27"/><path fill="#FF0" fill-rule="evenodd" d="M211.87 127.46v-4.6l-3.75-3.48-21.25-5.63-30.62-3.13-36.88 1.88-26.25 6.25-5.3 3.92v4.6l13.43-6.02 31.88-5h30.62l22.5 2.5 15.63 3.75z" id="path_28"/><path fill="#000" fill-rule="evenodd" d="M163.75 116.07l22.52 2.5 15.65 3.76 9.77 4.84v-4.23l-3.65-3.4-21.21-5.62-30.6-3.12-36.85 1.88-26.18 6.24-5.2 3.85V127l13.18-5.91a0.2 0.2 0 0 1 0.04-0.02l31.88-5h30.65zm48.12 11.57c-0.03 0-0.06 0-0.08-0.02l-10-4.96-15.58-3.74-22.48-2.5h-30.6l-31.83 5-13.4 6.02a0.18 0.18 0 0 1-0.17-0.02 0.18 0.18 0 0 1-0.08-0.15v-4.6c0-0.05 0.02-0.1 0.07-0.14l5.3-3.92a0.18 0.18 0 0 1 0.06-0.03l26.25-6.25 36.91-1.88 30.65 3.12 21.28 5.63c0.03 0 0.06 0.02 0.08 0.04l3.74 3.5c0.04 0.03 0.06 0.07 0.06 0.12v4.6a0.18 0.18 0 0 1-0.18 0.18z" id="path_29"/><path fill="#FF0" fill-rule="evenodd" d="M149.97 110.17c14.62-0.02 28.8 1.39 40.05 3.58 11.6 2.32 19.77 5.22 22.56 8.48v1.61c-3.37-4.05-14.36-7.03-22.83-8.72-11.16-2.18-25.24-3.58-39.78-3.55-15.33 0.03-29.54 1.48-40.54 3.63-8.52 1.61-20.77 5.23-22.13 8.66v-1.68c0.8-2.35 9.74-6.03 21.86-8.39 11.08-2.16 25.39-3.59 40.81-3.62zm0 5.31c14.61-0.03 28.8 1.39 40.04 3.58 11.6 2.32 19.77 5.22 22.57 8.48v1.61c-3.38-4.05-14.37-7.03-22.83-8.73-11.16-2.17-25.25-3.57-39.78-3.54-15.34 0.02-29.62 1.48-40.62 3.62-8.82 1.75-20.6 5.23-22.06 8.66v-1.68c0.8-2.37 9.57-5.92 21.86-8.38 11.09-2.16 25.4-3.6 40.82-3.62z" id="path_30"/><path fill="#000" fill-rule="evenodd" d="M150.4 111.39c13.64 0 27.61 1.26 39.39 3.55 6.81 1.37 18.63 4.25 22.61 8.44v-1.08c-2.7-3.09-10.45-5.98-22.42-8.38a212.9 212.9 0 0 0-40-3.57c-14.5 0.03-28.98 1.31-40.78 3.62-12.62 2.45-20.93 6.1-21.73 8.24v0.97c2.5-3.4 14.22-6.7 21.93-8.16 11.86-2.32 26.28-3.6 40.57-3.63h0.43m-63.1 12.65a0.18 0.18 0 0 1-0.18-0.18v-1.74c0.9-2.58 10.35-6.24 22-8.5 11.84-2.31 26.34-3.6 40.85-3.63h0.4c13.74 0 27.81 1.27 39.68 3.58 12.12 2.43 19.96 5.38 22.67 8.54a0.2 0.2 0 0 1 0.04 0.12v1.61c0 0.08-0.05 0.15-0.12 0.17a0.18 0.18 0 0 1-0.2-0.05c-3.56-4.29-15.76-7.27-22.72-8.67-11.87-2.31-25.97-3.57-39.74-3.54-14.28 0.02-28.67 1.31-40.52 3.62-9.75 1.85-20.77 5.47-22 8.55a0.18 0.18 0 0 1-0.16 0.12m63.08-7.34c13.65 0 27.62 1.25 39.4 3.55 6.82 1.36 18.63 4.25 22.61 8.43v-1.08c-2.7-3.08-10.44-5.98-22.42-8.37-11.83-2.3-25.88-3.57-39.59-3.57h-0.41c-14.48 0.03-28.97 1.31-40.78 3.61-9.81 1.97-20.73 5.52-21.72 8.24v1c2.62-3.54 14.75-6.78 21.85-8.18 11.86-2.32 26.3-3.6 40.65-3.63h0.4M87.3 129.34h-0.04a0.18 0.18 0 0 1-0.14-0.18v-1.68l0.01-0.05c0.87-2.55 10.12-6.13 22-8.5 11.84-2.32 26.34-3.6 40.85-3.63v0.18-0.18h0.41c13.73 0 27.8 1.27 39.66 3.58 12.12 2.42 19.96 5.38 22.67 8.54 0.03 0.03 0.04 0.08 0.04 0.12v1.61c0 0.08-0.05 0.14-0.12 0.17a0.18 0.18 0 0 1-0.2-0.05c-3.56-4.3-15.76-7.28-22.72-8.67-11.87-2.31-25.97-3.57-39.74-3.55-14.33 0.03-28.74 1.32-40.58 3.63-9.62 1.9-20.58 5.4-21.94 8.55-0.02 0.07-0.09 0.11-0.16 0.11" id="path_31"/><path fill="#FF0" fill-rule="evenodd" d="M149.68 83.1c23.03-0.12 43.11 3.22 52.3 7.93l3.36 5.8c-8-4.3-29.66-8.78-55.63-8.11-21.16 0.13-43.77 2.32-55.11 8.38l4-6.7c9.31-4.82 31.26-7.27 51.08-7.3" id="path_32"/><path fill="#000" fill-rule="evenodd" d="M98.73 90.54l-3.65 6.1c6.08-3.06 20.99-7.9 54.63-8.1 24.91-0.65 46.37 3.42 55.16 7.84l-3.01-5.22c-9.62-4.9-30.07-7.99-52.16-7.88h-0.02c-18.41 0.02-41.29 2.28-50.95 7.26m-4.13 6.74a0.18 0.18 0 0 1-0.15-0.27l4-6.7a0.18 0.18 0 0 1 0.07-0.07c9.69-5.02 32.66-7.3 51.13-7.32h0.02c22.19-0.1 42.75 3.01 52.4 7.95 0.03 0.01 0.05 0.04 0.07 0.07l3.35 5.8a0.18 0.18 0 0 1-0.24 0.25c-8.38-4.52-30.14-8.75-55.54-8.1-34.64 0.22-49.35 5.33-55.03 8.37a0.18 0.18 0 0 1-0.08 0.02" id="path_33"/><path fill="#FF0" fill-rule="evenodd" d="M149.98 82.58c12.57-0.03 24.98 0.67 34.65 2.41 7.63 1.49 15.18 3.8 17.94 5.87l1.46 2.3c-2.47-2.74-11.78-5.34-19.99-6.8-9.6-1.65-21.5-2.31-34.06-2.41-13.2 0.03-25.39 0.84-34.85 2.56-9.02 1.72-14.85 3.75-17.31 5.34l1.27-1.93c3.4-1.79 8.9-3.43 15.82-4.78 9.53-1.73 21.8-2.52 35.07-2.56zm0 5.3c13.14-0.03 25.83 0.71 35.92 2.53 9.4 1.75 18.37 4.38 19.65 5.8l1 1.75c-3.12-2.04-10.88-4.3-20.84-6.2-10-1.87-22.69-2.5-35.75-2.46-14.83-0.05-26.35 0.73-36.23 2.45-10.46 1.96-17.71 4.76-19.5 6.08l0.97-1.85c3.48-1.78 9-3.92 18.27-5.58 10.22-1.87 21.86-2.43 36.51-2.51z" id="path_34"/><path fill="#000" fill-rule="evenodd" d="M149.97 83.77c14.2 0.11 25.35 0.9 34.1 2.42 6.91 1.22 15.62 3.48 19.15 6.04l-0.78-1.25c-2.58-1.9-9.74-4.23-17.84-5.81-8.95-1.61-20.93-2.45-34.62-2.4-13.95 0.03-26.07 0.92-35.04 2.55-6.94 1.35-12.37 2.99-15.72 4.74L98.4 91.3c3.11-1.72 9.24-3.54 16.7-4.96 9.02-1.65 21.08-2.53 34.87-2.57m54.06 9.58a0.18 0.18 0 0 1-0.14-0.06c-2.54-2.83-12.3-5.4-19.88-6.75-8.73-1.5-19.86-2.3-34.04-2.42-13.77 0.04-25.8 0.93-34.8 2.57-8 1.52-14.46 3.5-17.26 5.31a0.18 0.18 0 1 1-0.25-0.25l1.29-1.93a0.17 0.17 0 0 1 0.06-0.06c3.38-1.77 8.86-3.43 15.86-4.8 9-1.63 21.14-2.52 35.1-2.55 13.74-0.03 25.73 0.8 34.7 2.4 8.18 1.6 15.42 3.97 18.01 5.9l0.04 0.05 1.46 2.31a0.18 0.18 0 0 1-0.15 0.28m-53.09-4.23c14.36 0 26.07 0.83 34.8 2.47 9.6 1.82 16.9 3.94 20.31 5.86l-0.65-1.16c-1.22-1.33-10.17-3.96-19.53-5.7-9.36-1.69-21.77-2.57-35.89-2.52-16.67 0.09-27.24 0.81-36.48 2.5-7.57 1.36-13.51 3.18-18.16 5.54l-0.64 1.2c2.51-1.45 9.42-3.94 19-5.73 9.9-1.73 21.42-2.5 36.26-2.46h0.98m55.6 9.02a0.18 0.18 0 0 1-0.1-0.03c-3.05-2-10.62-4.24-20.76-6.17-8.92-1.67-20.94-2.51-35.72-2.46-14.81-0.05-26.31 0.73-36.2 2.45-10.4 1.95-17.62 4.7-19.42 6.05a0.18 0.18 0 0 1-0.27-0.23l0.97-1.86a0.18 0.18 0 0 1 0.08-0.07c4.7-2.4 10.68-4.23 18.32-5.6 9.26-1.7 19.84-2.42 36.54-2.51 14.15-0.03 26.57 0.84 35.96 2.53 9.58 1.78 18.44 4.4 19.74 5.84l1.02 1.8a0.18 0.18 0 0 1-0.16 0.26" id="path_35"/><path fill="#FF0" fill-rule="evenodd" d="M180.72 150.79c-11.39-2.13-22.8-2.44-30.76-2.34-38.38 0.45-50.78 7.88-52.3 10.13l-2.86-4.68c9.77-7.08 30.67-11.05 55.37-10.65 12.82 0.21 23.89 1.06 33.2 2.87l-2.65 4.67" id="path_36"/><path fill="#000" fill-rule="evenodd" d="M95.04 153.95l2.64 4.31c1.02-1.19 4.54-3.5 12.26-5.6 9.9-2.68 23.73-4.2 40.02-4.4 11.33-0.13 21.65 0.65 30.67 2.33l2.46-4.34c-8.76-1.68-19.53-2.6-32.93-2.82-24.75-0.4-45.33 3.53-55.12 10.52m2.63 4.8a0.18 0.18 0 0 1-0.15-0.08L94.65 154a0.18 0.18 0 0 1 0.04-0.24c9.8-7.1 30.54-11.1 55.48-10.68 13.54 0.22 24.41 1.15 33.23 2.86a0.18 0.18 0 0 1 0.12 0.27l-2.65 4.67a0.18 0.18 0 0 1-0.2 0.08c-9.03-1.68-19.36-2.47-30.7-2.33-37.35 0.43-50.5 7.58-52.15 10.05a0.18 0.18 0 0 1-0.15 0.08" id="path_37"/><path fill="#FF0" fill-rule="evenodd" d="M150.22 142.41c11.06 0.21 22.49 0.72 33.59 2.92l-0.76 1.35c-10.03-2-19.6-2.66-32.76-2.86-14.21 0.03-29.28 1.04-42.99 5.03-4.42 1.28-12.06 4.07-12.31 6.28l-0.73-1.3c0.16-2 6.77-4.61 12.72-6.34 13.81-4.02 28.92-5.05 43.24-5.08zm-0.48 5.38c10.67 0.16 21.15 0.6 31.27 2.48l-0.73 1.3c-9.4-1.74-19.41-2.4-30.5-2.35-14.17-0.1-28.5 1.22-40.97 4.8-3.93 1.09-10.45 3.62-11.11 5.71l-0.73-1.2c0.2-1.24 4.14-3.8 11.5-5.87 14.3-4.09 27.66-4.78 41.27-4.87z" id="path_38"/><path fill="#000" fill-rule="evenodd" d="M94.43 153.8l0.5 0.89c1.25-2.71 11.14-5.67 12.32-6 11.7-3.41 25.37-5 43.04-5.04 11.92 0.18 22.04 0.74 32.67 2.84l0.58-1.03c-11.13-2.18-22.59-2.67-33.32-2.87-17.69 0.03-31.41 1.64-43.2 5.06-7.44 2.17-12.36 4.57-12.59 6.15m0.56 1.5a0.17 0.17 0 0 1-0.15-0.09l-0.73-1.3a0.16 0.16 0 0 1-0.02-0.09c0.21-2.62 9.88-5.64 12.84-6.5 11.81-3.43 25.57-5.04 43.3-5.08 10.82 0.2 22.38 0.7 33.61 2.92 0.06 0.01 0.1 0.05 0.13 0.1 0.02 0.05 0.02 0.1-0.01 0.16l-0.76 1.34a0.18 0.18 0 0 1-0.19 0.09c-10.65-2.12-20.78-2.67-32.73-2.86-17.63 0.04-31.27 1.63-42.93 5.02-5.72 1.67-11.98 4.3-12.2 6.14a0.17 0.17 0 0 1-0.16 0.15m2.16 3.2l0.52 0.86c1.18-2.09 7.3-4.46 11.1-5.51 11.52-3.3 25.32-4.92 41-4.8 11.64-0.05 21.58 0.7 30.42 2.33l0.55-0.98c-10.26-1.9-20.96-2.3-31-2.44h-0.02c-14.89 0.1-27.6 0.97-41.2 4.87-7.32 2.05-11.07 4.56-11.37 5.67m0.55 1.4a0.17 0.17 0 0 1-0.15-0.08l-0.73-1.2a0.17 0.17 0 0 1-0.02-0.12c0.23-1.4 4.4-3.97 11.63-6 13.65-3.91 26.38-4.78 41.3-4.89h0.03c10.13 0.16 20.92 0.56 31.28 2.5 0.05 0 0.1 0.04 0.12 0.1 0.03 0.04 0.02 0.1 0 0.15l-0.74 1.3c-0.03 0.06-0.1 0.09-0.18 0.08-8.84-1.64-18.8-2.41-30.47-2.34-15.67-0.14-29.42 1.48-40.91 4.78-4.2 1.17-10.39 3.68-11 5.6a0.17 0.17 0 0 1-0.16 0.12" id="path_39"/><path fill="#FF0" fill-rule="evenodd" d="M204.74 154.61l-4.61 7.16L186.88 150l-34.38-23.13-38.75-21.25-20.12-6.88 4.29-7.95L99.37 90l12.5 3.13 41.25 21.25 23.75 15 20 14.37 8.13 9.38z" id="path_40"/><path fill="#000" fill-rule="evenodd" d="M204.74 154.61zM93.89 98.64l19.92 6.82 38.78 21.26 34.39 23.13 13.1 11.65 4.49-6.95 0.24-1.37-8.07-9.31-19.97-14.35-23.74-15-41.24-21.24-12.4-3.09-1.34 0.74-4.16 7.71zm106.24 63.3a0.18 0.18 0 0 1-0.12-0.04l-13.25-11.77-34.36-23.1-38.74-21.25-20.09-6.87a0.18 0.18 0 0 1-0.1-0.1 0.18 0.18 0 0 1 0-0.15l4.3-7.95a0.17 0.17 0 0 1 0.06-0.07l1.46-0.8a0.17 0.17 0 0 1 0.13-0.01l12.5 3.12 41.29 21.27 23.76 15 20 14.38 8.17 9.4c0.03 0.05 0.05 0.1 0.04 0.16l-0.27 1.48c0 0.03 0 0.05-0.02 0.07l-4.61 7.15a0.18 0.18 0 0 1-0.15 0.09z" id="path_41"/><path fill="#FF0" fill-rule="evenodd" d="M205.68 154.51c2.23-4.4-21.82-22.53-51.64-40.17-30.51-17.3-52.5-27.47-56.52-24.43l-0.89 1.62c0 0.09 0.03-0.11 0.22-0.26 0.73-0.63 1.94-0.59 2.49-0.6 6.91 0.1 26.67 9.2 54.38 25.08 12.14 7.07 51.3 32.18 51.14 39.24 0.01 0.61 0.05 0.74-0.18 1.04l1-1.52zM92.91 98.93c3.53-2.4 29.46 9.16 56.6 25.52 27.06 16.41 52.92 34.95 50.58 38.42l-0.77 1.21-0.35 0.28c0.08-0.06 0.47-0.53-0.04-1.82-1.15-3.8-19.5-18.43-49.93-36.8-29.67-17.7-54.4-28.36-56.87-25.32l0.78-1.49z" id="path_42"/><path fill="#000" fill-rule="evenodd" d="M205.68 154.51zM99.34 90.5c6.97 0.1 26.82 9.26 54.47 25.1 8 4.66 51.4 31.7 51.23 39.4v0.16l0.48-0.73c2.04-4.07-20.61-21.6-51.58-39.93-32.58-18.46-52.56-27.15-56.28-24.46l-0.44 0.8a4.81 4.81 0 0 1 1.97-0.34h0.15zm105.34 65.71a0.18 0.18 0 0 1-0.15-0.28l0.1-0.15c0.07-0.12 0.07-0.24 0.06-0.55V155c0.14-7.03-39.76-32.51-51.06-39.1-27.6-15.81-47.39-24.95-54.3-25.05H99.2c-0.56 0-1.6 0.02-2.23 0.56a0.59 0.59 0 0 0-0.16 0.2c-0.04 0.08-0.15 0.14-0.23 0.11-0.08-0.02-0.13-0.12-0.13-0.2l0.02-0.08 0.9-1.62a0.18 0.18 0 0 1 0.05-0.06c4.82-3.64 33.5 11.27 56.7 24.42 26.93 15.93 54.2 35.5 51.72 40.41v0.02l-0.9 1.35a1.4 1.4 0 0 1-0.11 0.17 0.18 0.18 0 0 1-0.15 0.07zM93.8 99.75c6.81 0 29.8 10.62 55.3 25.83 29.73 17.96 48.78 32.87 50 36.91 0.2 0.5 0.27 0.9 0.27 1.19l0.57-0.9c0.12-0.19 0.15-0.42 0.08-0.72-1.11-5.07-26.9-23.08-50.6-37.45-26.44-15.94-52.7-27.85-56.38-25.55l-0.45 0.86c0.32-0.11 0.72-0.17 1.21-0.17zm105.17 64.79a0.18 0.18 0 0 1-0.14-0.07 0.18 0.18 0 0 1 0.03-0.25c0.03-0.03 0.37-0.43-0.1-1.61-1.18-3.9-20.58-19.05-49.85-36.72-31.13-18.56-54.42-28.1-56.64-25.35a0.18 0.18 0 0 1-0.24 0.03 0.18 0.18 0 0 1-0.06-0.23l0.78-1.5a0.18 0.18 0 0 1 0.06-0.06c3.7-2.5 29.7 9.18 56.79 25.52 24.36 14.77 49.62 32.46 50.77 37.68 0.1 0.4 0.05 0.73-0.13 1l-0.76 1.2a0.17 0.17 0 0 1-0.05 0.04l-0.35 0.28a0.18 0.18 0 0 1-0.1 0.04z" id="path_43"/><path fill="#FFF" fill-rule="evenodd" d="M112.88 131.88a36.7 36.7 0 0 0 10.9 26.09 36.94 36.94 0 0 0 26.14 10.99 37.1 37.1 0 0 0 26.26-10.87 36.88 36.88 0 0 0 10.9-26.18V82.42l-74.21-0.09v49.55z" id="path_44"/><path fill="#000" fill-rule="evenodd" d="M113.08 131.67v0.21c0 9.76 3.86 18.97 10.85 25.94a36.68 36.68 0 0 0 52.1 0.12 36.53 36.53 0 0 0 10.84-25.87V82.63l-73.8-0.09 0.01 49.13zm36.84 37.5c-9.8 0-19.13-3.93-26.28-11.05a36.82 36.82 0 0 1-10.97-26.03l-0.01-49.97 74.63 0.1v49.7c0 9.92-3.9 19.27-10.97 26.32a37.17 37.17 0 0 1-26.4 10.93z" id="path_45"/><path fill="#ff0000" fill-rule="evenodd" d="M171.15 98.36v30.55l-0.02 3.24a20.75 20.75 0 0 1-6.24 14.96 21.25 21.25 0 0 1-15.03 6.21 21.04 21.04 0 0 1-14.9-6.3 21.23 21.23 0 0 1-6.26-14.98l-0.01-33.76 42.46 0.08zm-56.89 33.59v0.03c0 9.72 4.03 18.58 10.49 25a35.54 35.54 0 0 0 50.27 0.05 35.24 35.24 0 0 0 10.44-25.02V83.99H114.3l-0.05 47.96z" id="path_46"/><path fill="#000" fill-rule="evenodd" d="M128.85 98.44v33.6c0 5.5 2.27 10.92 6.23 14.86a20.91 20.91 0 0 0 14.78 6.26c5.62 0 10.92-2.19 14.91-6.16a20.6 20.6 0 0 0 6.2-14.85l0.02-3.24v-30.4l-42.14-0.07zm21 55.04a21.22 21.22 0 0 1-15-6.36c-4.01-4-6.31-9.49-6.31-15.08l-0.01-33.92h0.16l42.53 0.08 0.09 0.1v30.61l-0.02 3.24a20.9 20.9 0 0 1-6.29 15.07 21.33 21.33 0 0 1-15.14 6.26zm0.03 14.1a35.6 35.6 0 0 1-25.24-10.48 35.24 35.24 0 0 1-10.54-25.12l0.32-0.03v0.03c0 9.35 3.7 18.2 10.44 24.9a35.28 35.28 0 0 0 25.02 10.39c9.44 0 18.33-3.67 25.03-10.34a34.95 34.95 0 0 0 10.39-24.8V84.16h-70.84l-0.04 47.8h-0.32l0.05-48.13 71.46 0.02V132c0 9.48-3.72 18.4-10.48 25.14a35.56 35.56 0 0 1-25.25 10.44z" id="path_47"/><path fill="#FF0" fill-rule="evenodd" d="M118.87 96.52c0.08-3.45 2.53-4.27 2.55-4.28 0.02-0.01 2.64 0.88 2.64 4.31l-5.2-0.03" id="path_48"/><path fill="#FF0" fill-rule="evenodd" d="M116.76 92.3l-0.43 3.97h2.59c0.02-3.27 2.48-3.82 2.54-3.8 0.06-0.01 2.5 0.72 2.56 3.8h2.6l-0.48-3.99-9.38 0.02z" id="path_49"/><path fill="#000" fill-rule="evenodd" d="M116.5 96.12h2.26a4.1 4.1 0 0 1 1.4-3.18c0.28-0.23 0.58-0.39 0.82-0.49l-4.08 0.01-0.4 3.66zm7.67 0h2.27l-0.43-3.68h-4.14c0.28 0.14 0.65 0.35 1 0.68a4.22 4.22 0 0 1 1.3 3zm-5.1 0.31h-2.91l0.45-4.17 0.03-0.11 9.64-0.02 0.51 4.3h-2.92v-0.15c-0.07-3-2.4-3.66-2.43-3.66 0 0-2.34 0.47-2.37 3.66v0.15z" id="path_50"/><path fill="#FF0" fill-rule="evenodd" d="M116.16 96.29h10.59c0.22 0 0.4 0.22 0.4 0.49s-0.18 0.49-0.4 0.49h-10.6c-0.22 0-0.4-0.22-0.4-0.5 0-0.26 0.18-0.48 0.4-0.48" id="path_51"/><path fill="#000" fill-rule="evenodd" d="M116.16 96.44c-0.14 0-0.25 0.16-0.25 0.34 0 0.18 0.11 0.33 0.25 0.33h10.59c0.13 0 0.25-0.15 0.25-0.33 0-0.18-0.12-0.34-0.25-0.34h-10.6zm10.59 0.98h-10.6c-0.3 0-0.56-0.29-0.56-0.64 0-0.36 0.26-0.65 0.57-0.65h10.59c0.3 0 0.56 0.3 0.56 0.65 0 0.35-0.25 0.64-0.56 0.64z" id="path_52"/><path fill="#FF0" fill-rule="evenodd" d="M120 96.27c0.02-2.07 1.42-2.66 1.43-2.66 0 0 1.46 0.6 1.47 2.66H120" id="path_53"/><path fill="#000" fill-rule="evenodd" d="M120.17 96.11h2.57c-0.07-1.59-1.05-2.2-1.31-2.32-0.24 0.12-1.2 0.73-1.26 2.32zm2.89 0.31h-3.05v-0.15h-0.16c0-1.34 0.57-2.1 1.04-2.5 0 0 0.42-0.33 0.56-0.31 0.11 0 1.6 0.71 1.6 2.8l0.01 0.16z" id="path_54"/><path fill="#FF0" fill-rule="evenodd" d="M116.38 90.66h10.15c0.22 0 0.4 0.2 0.4 0.44s-0.18 0.44-0.4 0.44h-10.15c-0.21 0-0.39-0.2-0.39-0.44s0.18-0.44 0.4-0.44" id="path_55"/><path fill="#000" fill-rule="evenodd" d="M116.38 90.81c-0.13 0-0.23 0.13-0.23 0.29 0 0.15 0.1 0.28 0.23 0.28h10.15c0.13 0 0.24-0.13 0.24-0.28 0-0.16-0.1-0.29-0.24-0.29h-10.15zm10.15 0.88h-10.15c-0.3 0-0.54-0.26-0.54-0.6 0-0.32 0.24-0.59 0.54-0.59h10.15c0.3 0 0.55 0.27 0.55 0.6 0 0.33-0.25 0.6-0.55 0.6z" id="path_56"/><path fill="#FF0" fill-rule="evenodd" d="M116.6 91.54h9.7c0.2 0 0.38 0.2 0.38 0.44 0 0.25-0.17 0.44-0.38 0.44h-9.7c-0.21 0-0.38-0.2-0.38-0.44s0.17-0.44 0.37-0.44" id="path_57"/><path fill="#000" fill-rule="evenodd" d="M116.6 91.7c-0.12 0-0.22 0.13-0.22 0.28 0 0.16 0.1 0.29 0.21 0.29h9.71c0.12 0 0.22-0.13 0.22-0.29 0-0.15-0.1-0.28-0.22-0.28h-9.7zm9.7 0.88h-9.7c-0.3 0-0.53-0.27-0.53-0.6 0-0.32 0.23-0.6 0.52-0.6h9.71c0.3 0 0.53 0.28 0.53 0.6 0 0.33-0.23 0.6-0.53 0.6z" id="path_58"/><path fill="#FF0" fill-rule="evenodd" d="M119.73 84.92h0.77v0.55h0.56v-0.56h0.78v0.56h0.56v-0.56h0.79v1.26c0 0.2-0.16 0.33-0.34 0.33h-2.76c-0.19 0-0.36-0.15-0.36-0.33v-1.24z" id="path_59"/><path fill="#000" fill-rule="evenodd" d="M119.89 85.08v1.09c0 0.09 0.1 0.17 0.2 0.17h2.76c0.09 0 0.18-0.05 0.18-0.17v-1.1h-0.47v0.56h-0.87v-0.56h-0.48v0.56h-0.87v-0.55h-0.45zm2.96 1.57h-2.76c-0.28 0-0.51-0.22-0.51-0.48v-1.33l0.1-0.07h0.97v0.54h0.25v-0.55h1.1v0.56h0.25v-0.56h1.1v1.41c0 0.28-0.22 0.48-0.5 0.48z" id="path_60"/><path fill="#FF0" fill-rule="evenodd" d="M122.62 86.6l0.17 4.04-2.69-0.01 0.18-4.03h2.34" id="path_61"/><path fill="#000" fill-rule="evenodd" d="M120.27 90.47l2.36 0.01-0.16-3.72h-2.04l-0.16 3.71zm2.69 0.33l-3.02-0.02 0.2-4.34 2.63 0.01 0.19 4.35z" id="path_62"/><path fill="#FF0" fill-rule="evenodd" d="M119.34 88.47l0.08 2.18h-2.58l0.07-2.18h2.43z" id="path_63"/><path fill="#000" fill-rule="evenodd" d="M117.06 88.63L117 90.5h2.26l-0.07-1.86h-2.13zm-0.38 2.18l0.08-2.5h2.73l0.1 2.5h-2.91z" id="path_64"/><path fill="#FF0" fill-rule="evenodd" d="M125.97 88.47l0.08 2.18h-2.58l0.07-2.18h2.43z" id="path_65"/><path fill="#000" fill-rule="evenodd" d="M123.7 88.63l-0.07 1.86h2.26l-0.07-1.86h-2.12zm-0.39 2.18l0.08-2.5h2.73l0.1 2.5h-2.91z" id="path_66"/><path fill="#FF0" fill-rule="evenodd" d="M116.44 86.9h0.75v0.55h0.55v-0.56h0.76v0.56h0.55v-0.56h0.77v1.26c0 0.2-0.15 0.32-0.33 0.32h-2.7c-0.18 0-0.35-0.15-0.35-0.33V86.9z" id="path_67"/><path fill="#000" fill-rule="evenodd" d="M116.6 87.06v1.08c0 0.1 0.09 0.18 0.19 0.18h2.7c0.08 0 0.17-0.06 0.17-0.17v-1.1h-0.45v0.55h-0.86v-0.55h-0.46v0.55h-0.86v-0.54h-0.44zm2.89 1.57h-2.7a0.5 0.5 0 0 1-0.5-0.49l-0.01-1.32 0.1-0.08h0.96v0.55h0.24v-0.56h1.08v0.56h0.24v-0.56h1.08v1.42c0 0.27-0.22 0.48-0.5 0.48z" id="path_68"/><path fill="#FF0" fill-rule="evenodd" d="M123.07 86.9h0.75v0.55h0.55v-0.56h0.76v0.56h0.55v-0.56h0.77v1.26c0 0.2-0.15 0.32-0.33 0.32h-2.7c-0.18 0-0.35-0.15-0.35-0.33V86.9z" id="path_69"/><path fill="#000" fill-rule="evenodd" d="M123.22 87.06v1.08c0 0.1 0.1 0.18 0.2 0.18h2.7c0.08 0 0.18-0.06 0.18-0.17v-1.1h-0.46v0.55h-0.86v-0.55h-0.46v0.55h-0.86v-0.54h-0.44zm2.9 1.57h-2.7a0.5 0.5 0 0 1-0.5-0.49v-1.32l0.1-0.08h0.95v0.55h0.24v-0.56h1.08v0.56h0.24v-0.56h1.08v1.42c0 0.27-0.22 0.48-0.5 0.48zm-4.93-0.75c-0.02-0.4 0.55-0.4 0.54 0v0.96h-0.54v-0.96m-3.33 1.4c0-0.38 0.52-0.4 0.51 0v0.74h-0.51v-0.74m6.64 0c0-0.38 0.53-0.4 0.52 0v0.74h-0.51v-0.74" id="path_70"/><path fill="#FF0" fill-rule="evenodd" d="M118.87 125.47c0.08-3.45 2.53-4.27 2.55-4.28 0.02-0.01 2.64 0.88 2.64 4.31l-5.2-0.03" id="path_71"/><path fill="#FF0" fill-rule="evenodd" d="M116.76 121.26l-0.43 3.96h2.59c0.02-3.27 2.48-3.82 2.54-3.8 0.06-0.01 2.5 0.72 2.56 3.8h2.6l-0.48-3.99-9.38 0.02z" id="path_72"/><path fill="#000" fill-rule="evenodd" d="M116.5 125.07h2.26a4.1 4.1 0 0 1 1.4-3.18c0.28-0.23 0.58-0.39 0.82-0.49l-4.08 0.01-0.4 3.66zm7.67 0h2.27l-0.43-3.68h-4.14c0.28 0.14 0.65 0.35 1 0.68a4.22 4.22 0 0 1 1.3 3zm-5.1 0.31h-2.91l0.45-4.17 0.03-0.11 9.64-0.02 0.51 4.3h-2.92v-0.15c-0.07-3-2.4-3.66-2.43-3.66 0 0-2.34 0.47-2.37 3.66v0.15z" id="path_73"/><path fill="#FF0" fill-rule="evenodd" d="M116.16 125.24h10.59c0.22 0 0.4 0.22 0.4 0.49s-0.18 0.49-0.4 0.49h-10.6c-0.22 0-0.4-0.22-0.4-0.5 0-0.26 0.18-0.48 0.4-0.48" id="path_74"/><path fill="#000" fill-rule="evenodd" d="M116.16 125.4c-0.14 0-0.25 0.15-0.25 0.33 0 0.18 0.11 0.33 0.25 0.33h10.59c0.13 0 0.25-0.15 0.25-0.33 0-0.18-0.12-0.34-0.25-0.34h-10.6zm10.59 0.97h-10.6c-0.3 0-0.56-0.29-0.56-0.64 0-0.36 0.26-0.65 0.57-0.65h10.59c0.3 0 0.56 0.3 0.56 0.65 0 0.35-0.25 0.64-0.56 0.64z" id="path_75"/><path fill="#FF0" fill-rule="evenodd" d="M120 125.22c0.02-2.07 1.42-2.66 1.43-2.66 0 0 1.46 0.6 1.47 2.66H120" id="path_76"/><path fill="#000" fill-rule="evenodd" d="M120.17 125.06h2.57c-0.07-1.59-1.05-2.2-1.31-2.32-0.24 0.12-1.2 0.73-1.26 2.32zm2.89 0.31h-3.05v-0.15h-0.16c0-1.34 0.57-2.1 1.04-2.5 0 0 0.42-0.33 0.56-0.31 0.11 0 1.6 0.71 1.6 2.8l0.01 0.16z" id="path_77"/><path fill="#FF0" fill-rule="evenodd" d="M116.38 119.6h10.15c0.22 0 0.4 0.2 0.4 0.45 0 0.24-0.18 0.44-0.4 0.44h-10.15c-0.21 0-0.39-0.2-0.39-0.44 0-0.25 0.18-0.44 0.4-0.44" id="path_78"/><path fill="#000" fill-rule="evenodd" d="M116.38 119.76c-0.13 0-0.23 0.13-0.23 0.29 0 0.15 0.1 0.28 0.23 0.28h10.15c0.13 0 0.24-0.13 0.24-0.28 0-0.16-0.1-0.29-0.24-0.29h-10.15zm10.15 0.88h-10.15c-0.3 0-0.54-0.26-0.54-0.6 0-0.32 0.24-0.59 0.54-0.59h10.15c0.3 0 0.55 0.27 0.55 0.6 0 0.33-0.25 0.6-0.55 0.6z" id="path_79"/><path fill="#FF0" fill-rule="evenodd" d="M116.6 120.5h9.7c0.2 0 0.38 0.2 0.38 0.43 0 0.25-0.17 0.44-0.38 0.44h-9.7c-0.21 0-0.38-0.2-0.38-0.44s0.17-0.44 0.37-0.44" id="path_80"/><path fill="#000" fill-rule="evenodd" d="M116.6 120.65c-0.12 0-0.22 0.13-0.22 0.28 0 0.16 0.1 0.29 0.21 0.29h9.71c0.12 0 0.22-0.13 0.22-0.29 0-0.15-0.1-0.28-0.22-0.28h-9.7zm9.7 0.88h-9.7c-0.3 0-0.53-0.27-0.53-0.6 0-0.33 0.23-0.6 0.52-0.6h9.71c0.3 0 0.53 0.28 0.53 0.6 0 0.33-0.23 0.6-0.53 0.6z" id="path_81"/><path fill="#FF0" fill-rule="evenodd" d="M119.73 113.87h0.77v0.55h0.56v-0.56h0.78v0.56h0.56v-0.56h0.79v1.26c0 0.2-0.16 0.33-0.34 0.33h-2.76c-0.19 0-0.36-0.15-0.36-0.33v-1.24z" id="path_82"/><path fill="#000" fill-rule="evenodd" d="M119.89 114.03v1.09c0 0.09 0.1 0.17 0.2 0.17h2.76c0.09 0 0.18-0.05 0.18-0.17v-1.1h-0.47v0.56h-0.87v-0.56h-0.48v0.56h-0.87v-0.55h-0.45zm2.96 1.57h-2.76c-0.28 0-0.51-0.22-0.51-0.48v-1.33l0.1-0.07h0.97v0.54h0.25v-0.55h1.1v0.56h0.25v-0.56h1.1v1.41c0 0.28-0.22 0.48-0.5 0.48z" id="path_83"/><path fill="#FF0" fill-rule="evenodd" d="M122.62 115.56l0.17 4.03-2.69-0.01 0.18-4.03h2.34" id="path_84"/><path fill="#000" fill-rule="evenodd" d="M120.27 119.42l2.36 0.01-0.16-3.72h-2.04l-0.16 3.71zm2.69 0.33l-3.02-0.02 0.2-4.34 2.63 0.01 0.19 4.35z" id="path_85"/><path fill="#FF0" fill-rule="evenodd" d="M119.34 117.42l0.08 2.18h-2.58l0.07-2.18h2.43z" id="path_86"/><path fill="#000" fill-rule="evenodd" d="M117.06 117.58l-0.06 1.86h2.26l-0.07-1.86h-2.13zm-0.38 2.18l0.08-2.5h2.73l0.1 2.5h-2.91z" id="path_87"/><path fill="#FF0" fill-rule="evenodd" d="M125.97 117.42l0.08 2.18h-2.58l0.07-2.18h2.43z" id="path_88"/><path fill="#000" fill-rule="evenodd" d="M123.7 117.58l-0.07 1.86h2.26l-0.07-1.86h-2.12zm-0.39 2.18l0.08-2.5h2.73l0.1 2.5h-2.91z" id="path_89"/><path fill="#FF0" fill-rule="evenodd" d="M116.44 115.85h0.75v0.55h0.55v-0.56h0.76v0.56h0.55v-0.56h0.77v1.26c0 0.2-0.15 0.32-0.33 0.32h-2.7c-0.18 0-0.35-0.15-0.35-0.33v-1.24z" id="path_90"/><path fill="#000" fill-rule="evenodd" d="M116.6 116v1.1c0 0.08 0.09 0.17 0.19 0.17h2.7c0.08 0 0.17-0.06 0.17-0.17V116h-0.45v0.55h-0.86V116h-0.46v0.55h-0.86v-0.54h-0.44zm2.89 1.58h-2.7a0.5 0.5 0 0 1-0.5-0.49l-0.01-1.32 0.1-0.08h0.96v0.55h0.24v-0.56h1.08v0.56h0.24v-0.56h1.08v1.42c0 0.27-0.22 0.48-0.5 0.48z" id="path_91"/><path fill="#FF0" fill-rule="evenodd" d="M123.07 115.85h0.75v0.55h0.55v-0.56h0.76v0.56h0.55v-0.56h0.77v1.26c0 0.2-0.15 0.32-0.33 0.32h-2.7c-0.18 0-0.35-0.15-0.35-0.33v-1.24z" id="path_92"/><path fill="#000" fill-rule="evenodd" d="M123.22 116v1.1c0 0.08 0.1 0.17 0.2 0.17h2.7c0.08 0 0.18-0.06 0.18-0.17V116h-0.46v0.55h-0.86V116h-0.46v0.55h-0.86v-0.54h-0.44zm2.9 1.58h-2.7a0.5 0.5 0 0 1-0.5-0.49v-1.32l0.1-0.08h0.95v0.55h0.24v-0.56h1.08v0.56h0.24v-0.56h1.08v1.42c0 0.27-0.21 0.48-0.5 0.48zm-4.93-0.75c-0.02-0.4 0.55-0.4 0.54 0v0.96h-0.54v-0.96m-3.33 1.39c0-0.37 0.52-0.38 0.51 0v0.75h-0.51v-0.75m6.64 0c0-0.37 0.53-0.38 0.52 0v0.75h-0.51v-0.75" id="path_93"/><path fill="#FF0" fill-rule="evenodd" d="M130.16 155.6c-2.4-2.49-1.25-4.8-1.24-4.82 0-0.02 2.49-1.26 4.91 1.16l-3.67 3.66" id="path_94"/><path fill="#FF0" fill-rule="evenodd" d="M125.68 154.13l2.51 3.1 1.83-1.83c-2.31-2.33-0.97-4.46-0.91-4.5 0.03-0.04 2.27-1.25 4.5 0.88l1.83-1.84-3.16-2.49-6.6 6.68z" id="path_95"/><path fill="#000" fill-rule="evenodd" d="M130.72 150.37c0.76 0 1.82 0.22 2.89 1.19l1.6-1.6-2.92-2.3-2.9 2.94a3.9 3.9 0 0 1 1.33-0.23zm-4.83 3.77l2.31 2.86 1.6-1.6c-1.19-1.26-1.35-2.46-1.27-3.25 0.04-0.35 0.13-0.67 0.23-0.91l-2.87 2.9zm2.3 3.32l-2.65-3.26-0.05-0.1 0.08-0.08 6.7-6.78 3.4 2.68-2.05 2.08-0.11-0.11c-2.18-2.07-4.29-0.87-4.31-0.86 0 0-1.32 1.99 0.93 4.26l0.11 0.1-2.06 2.07z" id="path_96"/><path fill="#FF0" fill-rule="evenodd" d="M128.08 157.36l7.46-7.51c0.16-0.16 0.45-0.13 0.64 0.06s0.22 0.47 0.06 0.63l-7.46 7.51c-0.16 0.16-0.45 0.14-0.64-0.05-0.19-0.2-0.22-0.48-0.06-0.64" id="path_97"/><path fill="#000" fill-rule="evenodd" d="M128.2 157.47c-0.1 0.1-0.08 0.29 0.05 0.42 0.13 0.12 0.32 0.15 0.41 0.05l7.47-7.51c0.1-0.1 0.07-0.29-0.06-0.41a0.39 0.39 0 0 0-0.24-0.12 0.2 0.2 0 0 0-0.18 0.06l-7.46 7.51zm0.31 0.84a0.69 0.69 0 0 1-0.48-0.2c-0.25-0.25-0.28-0.64-0.06-0.86l7.46-7.51a0.56 0.56 0 0 1 0.43-0.15c0.16 0.02 0.31 0.09 0.43 0.2 0.25 0.26 0.28 0.64 0.06 0.86l-7.46 7.51c-0.1 0.1-0.24 0.15-0.38 0.15z" id="path_98"/><path fill="#FF0" fill-rule="evenodd" d="M130.78 154.62c-1.46-1.47-0.89-2.88-0.88-2.88 0 0 1.46-0.61 2.92 0.82l-2.04 2.06" id="path_99"/><path fill="#000" fill-rule="evenodd" d="M130.02 151.86c-0.08 0.26-0.34 1.35 0.76 2.54l1.82-1.83c-1.18-1.07-2.3-0.8-2.58-0.7zm0.76 2.98l-0.11-0.11a3.16 3.16 0 0 1-1.04-2.4c0.01-0.28 0.09-0.64 0.17-0.71l0.04-0.03c0.06-0.02 1.58-0.62 3.1 0.86l0.1 0.11-2.26 2.28z" id="path_100"/><path fill="#FF0" fill-rule="evenodd" d="M124.24 153.24l7.16-7.2c0.15-0.16 0.41-0.14 0.58 0.03 0.18 0.17 0.2 0.43 0.04 0.58l-7.15 7.2c-0.15 0.16-0.42 0.14-0.59-0.03-0.17-0.17-0.19-0.43-0.04-0.58" id="path_101"/><path fill="#000" fill-rule="evenodd" d="M124.35 153.35c-0.08 0.09-0.07 0.25 0.04 0.36 0.11 0.11 0.28 0.13 0.37 0.04l7.15-7.2c0.1-0.1 0.07-0.26-0.04-0.37a0.3 0.3 0 0 0-0.21-0.1 0.2 0.2 0 0 0-0.15 0.06l-7.16 7.2zm0.26 0.77a0.62 0.62 0 0 1-0.44-0.19c-0.23-0.23-0.25-0.59-0.04-0.8l7.16-7.2a0.5 0.5 0 0 1 0.37-0.16 0.6 0.6 0 0 1 0.43 0.19c0.24 0.23 0.26 0.59 0.04 0.8l-7.15 7.2c-0.1 0.1-0.23 0.16-0.37 0.16z" id="path_102"/><path fill="#FF0" fill-rule="evenodd" d="M125.02 153.71l6.85-6.89c0.14-0.15 0.4-0.12 0.57 0.05 0.17 0.17 0.2 0.43 0.05 0.57l-6.84 6.9c-0.15 0.14-0.4 0.12-0.58-0.06-0.17-0.17-0.2-0.42-0.05-0.57" id="path_103"/><path fill="#000" fill-rule="evenodd" d="M132.11 146.88c-0.05 0-0.1 0.02-0.13 0.05l-6.85 6.9c-0.08 0.07-0.06 0.24 0.05 0.34 0.11 0.11 0.27 0.13 0.36 0.05l6.84-6.89a0.2 0.2 0 0 0 0.05-0.13 0.32 0.32 0 0 0-0.1-0.22 0.32 0.32 0 0 0-0.22-0.1m-6.7 7.7a0.63 0.63 0 0 1-0.45-0.18c-0.23-0.24-0.25-0.6-0.05-0.8l6.85-6.89c0.2-0.2 0.56-0.19 0.8 0.04 0.11 0.13 0.18 0.29 0.18 0.45a0.5 0.5 0 0 1-0.14 0.35l-6.84 6.9a0.5 0.5 0 0 1-0.36 0.13" id="path_104"/><path fill="#FF0" fill-rule="evenodd" d="M122.54 146.82l0.54-0.54 0.39 0.38 0.39-0.4-0.4-0.39 0.56-0.55 0.4 0.39 0.39-0.4-0.4-0.4 0.56-0.55 0.89 0.89c0.14 0.14 0.12 0.34-0.01 0.47l-1.94 1.95c-0.14 0.14-0.36 0.15-0.49 0.03l-0.88-0.88z" id="path_105"/><path fill="#000" fill-rule="evenodd" d="M122.76 146.82l0.77 0.77c0.06 0.06 0.2 0.05 0.26-0.02l1.95-1.96a0.2 0.2 0 0 0 0.06-0.14 0.16 0.16 0 0 0-0.05-0.11l-0.78-0.78-0.34 0.34 0.4 0.39-0.62 0.62-0.39-0.4-0.33 0.34 0.4 0.4-0.62 0.61-0.4-0.38-0.31 0.32zm0.88 1.12a0.47 0.47 0 0 1-0.33-0.13l-1-0.99 0.12-0.1 0.1 0.1-0.1-0.1 0.65-0.66 0.38 0.38 0.18-0.17-0.4-0.4 0.78-0.77 0.4 0.39 0.17-0.18-0.4-0.4 0.78-0.77 1 1c0.09 0.09 0.14 0.2 0.14 0.33s-0.05 0.26-0.15 0.36l-1.94 1.96c-0.1 0.1-0.24 0.15-0.38 0.15z" id="path_106"/><path fill="#FF0" fill-rule="evenodd" d="M125.77 145.96l2.98 2.71-1.9 1.9-2.74-2.96 1.66-1.65" id="path_107"/><path fill="#000" fill-rule="evenodd" d="M124.33 147.61l2.52 2.74 1.67-1.67-2.75-2.5-1.44 1.43zm2.51 3.2l-2.95-3.2 1.87-1.87 3.21 2.93-2.13 2.13z" id="path_108"/><path fill="#FF0" fill-rule="evenodd" d="M124.78 149.6l1.6 1.48-1.82 1.83-1.49-1.59 1.71-1.72z" id="path_109"/><path fill="#000" fill-rule="evenodd" d="M123.29 151.33l1.28 1.35 1.58-1.6-1.37-1.26-1.5 1.5zm1.27 1.8l-1.7-1.81 1.91-1.93 1.83 1.68-2.04 2.06z" id="path_110"/><path fill="#FF0" fill-rule="evenodd" d="M129.45 144.9l1.6 1.47-1.81 1.83-1.5-1.58 1.71-1.72z" id="path_111"/><path fill="#000" fill-rule="evenodd" d="M127.96 146.62l1.28 1.36 1.59-1.6-1.37-1.27-1.5 1.51zm1.27 1.8l-1.7-1.8 1.92-1.94 1.83 1.69-2.05 2.06z" id="path_112"/><path fill="#FF0" fill-rule="evenodd" d="M121.62 150.55l0.53-0.53 0.38 0.38 0.4-0.39-0.4-0.39 0.54-0.54 0.4 0.39 0.38-0.4-0.4-0.38 0.55-0.55 0.89 0.89c0.14 0.14 0.12 0.34 0 0.46l-1.9 1.92c-0.14 0.13-0.36 0.14-0.49 0.02l-0.88-0.88z" id="path_113"/><path fill="#000" fill-rule="evenodd" d="M121.84 150.55l0.77 0.76c0.07 0.07 0.19 0.06 0.26-0.01l1.9-1.92c0.06-0.06 0.09-0.16 0-0.24l-0.77-0.78-0.32 0.33 0.4 0.39-0.62 0.61-0.4-0.4-0.31 0.33 0.4 0.4-0.61 0.6-0.4-0.38-0.3 0.31zm0.89 1.12a0.47 0.47 0 0 1-0.34-0.13l-1-0.99 0.12-0.1 0.1 0.1-0.1-0.11 0.64-0.64 0.38 0.38 0.17-0.16-0.4-0.4 0.77-0.76 0.4 0.39 0.16-0.17-0.4-0.4 0.77-0.76 1 1c0.2 0.2 0.19 0.49 0 0.68l-1.9 1.92c-0.1 0.1-0.24 0.15-0.37 0.15z" id="path_114"/><path fill="#FF0" fill-rule="evenodd" d="M126.29 145.84l0.53-0.53 0.39 0.39 0.38-0.4-0.4-0.38 0.55-0.55 0.4 0.4 0.38-0.4-0.4-0.39 0.55-0.54 0.89 0.88c0.14 0.14 0.12 0.34 0 0.47l-1.9 1.91c-0.13 0.13-0.36 0.15-0.49 0.02l-0.88-0.87z" id="path_115"/><path fill="#000" fill-rule="evenodd" d="M126.51 145.84l0.77 0.77c0.07 0.06 0.2 0.05 0.26-0.02l1.9-1.91c0.06-0.06 0.1-0.16 0.01-0.25l-0.78-0.77-0.32 0.32 0.4 0.4-0.61 0.6-0.4-0.39-0.32 0.33 0.4 0.39-0.61 0.6-0.39-0.38-0.3 0.31zm0.89 1.13a0.47 0.47 0 0 1-0.34-0.14l-0.93-0.92v-0.13l0.69-0.69 0.39 0.39 0.16-0.17-0.4-0.4 0.77-0.76 0.4 0.4 0.16-0.18-0.4-0.39 0.77-0.76 1 1c0.2 0.19 0.2 0.48 0 0.68l-1.9 1.91c-0.1 0.1-0.24 0.16-0.37 0.16zm-1.74 0.9c-0.29-0.26 0.1-0.67 0.38-0.38l0.68 0.67-0.38 0.39-0.68-0.68m-1.36 3.35c-0.27-0.27 0.1-0.65 0.37-0.37l0.52 0.52-0.36 0.37-0.53-0.52m4.69-4.72c-0.27-0.27 0.1-0.65 0.36-0.37l0.53 0.52-0.36 0.37-0.53-0.52" id="path_116"/><path fill="#FF0" fill-rule="evenodd" d="M147.44 96.52c0.08-3.45 2.53-4.27 2.55-4.28 0.02-0.01 2.64 0.88 2.64 4.31l-5.19-0.03" id="path_117"/><path fill="#FF0" fill-rule="evenodd" d="M145.33 92.3l-0.43 3.97h2.59c0.02-3.27 2.48-3.82 2.54-3.8 0.06-0.01 2.5 0.72 2.56 3.8h2.6l-0.47-3.99-9.4 0.02z" id="path_118"/><path fill="#000" fill-rule="evenodd" d="M145.08 96.12h2.26c0.05-1.72 0.78-2.68 1.4-3.18 0.28-0.23 0.57-0.39 0.8-0.49l-4.07 0.01-0.4 3.66zm7.66 0h2.27l-0.43-3.68h-4.14c0.28 0.14 0.65 0.35 1 0.68a4.22 4.22 0 0 1 1.3 3zm-5.1 0.31h-2.91l0.44-4.28 9.69-0.02 0.5 4.3h-2.92v-0.15c-0.07-3-2.4-3.66-2.43-3.66 0 0-2.34 0.47-2.36 3.66v0.15z" id="path_119"/><path fill="#FF0" fill-rule="evenodd" d="M144.73 96.29h10.59c0.22 0 0.4 0.22 0.4 0.49s-0.18 0.49-0.4 0.49h-10.6c-0.22 0-0.4-0.22-0.4-0.5 0-0.26 0.18-0.48 0.4-0.48" id="path_120"/><path fill="#000" fill-rule="evenodd" d="M144.73 96.44c-0.14 0-0.25 0.16-0.25 0.34 0 0.18 0.11 0.33 0.25 0.33h10.59c0.13 0 0.25-0.15 0.25-0.33 0-0.18-0.12-0.34-0.25-0.34h-10.6zm10.59 0.98h-10.6c-0.3 0-0.55-0.29-0.55-0.64 0-0.36 0.25-0.65 0.56-0.65h10.59c0.3 0 0.56 0.3 0.56 0.65 0 0.35-0.25 0.64-0.56 0.64z" id="path_121"/><path fill="#FF0" fill-rule="evenodd" d="M148.58 96.27c0-2.07 1.41-2.66 1.42-2.66 0 0 1.46 0.6 1.47 2.66h-2.9" id="path_122"/><path fill="#000" fill-rule="evenodd" d="M148.74 96.11h2.57c-0.07-1.59-1.05-2.2-1.31-2.32-0.24 0.12-1.2 0.73-1.26 2.32zm2.9 0.31h-3.06v-0.15h-0.16c0-1.34 0.57-2.1 1.04-2.5 0 0 0.42-0.33 0.56-0.31 0.11 0 1.6 0.71 1.61 2.8v0.16z" id="path_123"/><path fill="#FF0" fill-rule="evenodd" d="M144.95 90.66h10.16c0.2 0 0.38 0.2 0.38 0.44s-0.17 0.44-0.38 0.44h-10.16c-0.21 0-0.39-0.2-0.39-0.44s0.18-0.44 0.4-0.44" id="path_124"/><path fill="#000" fill-rule="evenodd" d="M144.95 90.81c-0.12 0-0.23 0.13-0.23 0.29 0 0.15 0.1 0.28 0.23 0.28h10.16c0.12 0 0.23-0.13 0.23-0.28 0-0.16-0.1-0.29-0.23-0.29h-10.16zm10.16 0.88h-10.16c-0.3 0-0.54-0.26-0.54-0.6 0-0.32 0.24-0.59 0.54-0.59h10.16c0.3 0 0.54 0.27 0.54 0.6 0 0.33-0.24 0.6-0.54 0.6z" id="path_125"/><path fill="#FF0" fill-rule="evenodd" d="M145.16 91.54h9.72c0.2 0 0.37 0.2 0.37 0.44 0 0.25-0.17 0.44-0.37 0.44h-9.72c-0.2 0-0.37-0.2-0.37-0.44s0.17-0.44 0.37-0.44" id="path_126"/><path fill="#000" fill-rule="evenodd" d="M145.16 91.7c-0.11 0-0.21 0.13-0.21 0.28 0 0.16 0.1 0.29 0.21 0.29h9.72c0.11 0 0.21-0.13 0.21-0.29 0-0.15-0.1-0.28-0.21-0.28h-9.72zm9.72 0.88h-9.72c-0.29 0-0.52-0.27-0.52-0.6 0-0.32 0.23-0.6 0.52-0.6h9.72c0.29 0 0.52 0.28 0.52 0.6 0 0.33-0.23 0.6-0.52 0.6z" id="path_127"/><path fill="#FF0" fill-rule="evenodd" d="M148.3 84.92h0.77v0.55h0.56v-0.56h0.78v0.56h0.56v-0.56h0.8l-0.01 1.26c0 0.2-0.16 0.33-0.34 0.33h-2.76c-0.19 0-0.36-0.15-0.36-0.33v-1.24z" id="path_128"/><path fill="#000" fill-rule="evenodd" d="M148.46 85.08v1.09c0 0.09 0.1 0.17 0.2 0.17h2.76c0.09 0 0.18-0.05 0.18-0.17v-1.1h-0.47v0.56h-0.87v-0.56h-0.48v0.56h-0.87v-0.55h-0.45zm2.96 1.57h-2.76c-0.28 0-0.51-0.22-0.51-0.48v-1.33l0.1-0.07h0.98v0.54h0.24v-0.55h1.1v0.56h0.25v-0.56h1.1v1.41c0 0.28-0.22 0.48-0.5 0.48z" id="path_129"/><path fill="#FF0" fill-rule="evenodd" d="M151.19 86.6l0.17 4.04-2.69-0.01 0.18-4.03h2.34" id="path_130"/><path fill="#000" fill-rule="evenodd" d="M148.84 90.47l2.36 0.01-0.16-3.72H149l-0.16 3.71zm2.69 0.33l-3.02-0.02 0.2-4.34 2.63 0.01 0.19 4.35z" id="path_131"/><path fill="#FF0" fill-rule="evenodd" d="M147.9 88.47l0.09 2.18h-2.58l0.07-2.18h2.43z" id="path_132"/><path fill="#000" fill-rule="evenodd" d="M145.64 88.63l-0.07 1.86h2.26l-0.07-1.86h-2.12zm-0.39 2.18l0.08-2.5h2.73l0.1 2.5h-2.9z" id="path_133"/><path fill="#FF0" fill-rule="evenodd" d="M154.54 88.47l0.08 2.18h-2.58l0.08-2.18h2.42z" id="path_134"/><path fill="#000" fill-rule="evenodd" d="M152.27 88.63l-0.07 1.86h2.26l-0.07-1.86h-2.12zm-0.39 2.18l0.09-2.5h2.72l0.1 2.5h-2.9z" id="path_135"/><path fill="#FF0" fill-rule="evenodd" d="M145 86.9h0.76v0.55h0.55v-0.56h0.76v0.56h0.55v-0.56h0.77v1.26c0 0.2-0.15 0.32-0.33 0.32h-2.7c-0.18 0-0.35-0.15-0.35-0.33V86.9z" id="path_136"/><path fill="#000" fill-rule="evenodd" d="M145.16 87.06v1.08c0 0.1 0.1 0.18 0.2 0.18h2.7c0.08 0 0.18-0.06 0.18-0.17v-1.1h-0.46v0.55h-0.86v-0.55h-0.46v0.55h-0.86v-0.54h-0.44zm2.9 1.57h-2.7a0.5 0.5 0 0 1-0.5-0.49v-1.32l0.1-0.08h0.95v0.55h0.24v-0.56h1.08v0.56h0.24v-0.56h1.08v1.42c0 0.27-0.22 0.48-0.5 0.48z" id="path_137"/><path fill="#FF0" fill-rule="evenodd" d="M151.64 86.9h0.75v0.55h0.55v-0.56h0.77v0.56h0.55v-0.56h0.76v1.26c0 0.2-0.15 0.32-0.33 0.32h-2.7c-0.18 0-0.35-0.15-0.35-0.33V86.9z" id="path_138"/><path fill="#000" fill-rule="evenodd" d="M151.8 87.06v1.08c0 0.1 0.09 0.18 0.19 0.18h2.7c0.08 0 0.18-0.06 0.18-0.17v-1.1h-0.46v0.55h-0.86v-0.55h-0.46v0.55h-0.86v-0.54h-0.44zm2.89 1.57h-2.7a0.5 0.5 0 0 1-0.5-0.49v-1.32l0.1-0.08h0.95v0.55h0.24v-0.56h1.08v0.56h0.24v-0.56h1.08v1.42c0 0.27-0.22 0.48-0.5 0.48zm-4.93-0.75c-0.02-0.4 0.55-0.4 0.54 0v0.96h-0.54v-0.96m-3.33 1.4c0-0.38 0.52-0.4 0.51 0v0.74h-0.51v-0.74m6.65 0c0-0.38 0.52-0.4 0.51 0v0.74h-0.51v-0.74" id="path_139"/><path fill="#FF0" fill-rule="evenodd" d="M181 96.52c-0.08-3.45-2.53-4.27-2.55-4.28-0.02-0.01-2.64 0.88-2.64 4.31l5.2-0.03" id="path_140"/><path fill="#FF0" fill-rule="evenodd" d="M183.11 92.3l0.43 3.97h-2.59c-0.02-3.27-2.48-3.82-2.54-3.8-0.06-0.01-2.5 0.72-2.56 3.8h-2.6l0.47-3.99 9.4 0.02z" id="path_141"/><path fill="#000" fill-rule="evenodd" d="M178.9 92.45c0.23 0.1 0.53 0.26 0.8 0.5 0.62 0.5 1.35 1.44 1.4 3.17h2.27l-0.4-3.66h-4.08zm-5.47 3.67h2.27a4.22 4.22 0 0 1 1.3-3c0.35-0.33 0.72-0.54 1-0.67l-4.14-0.01-0.43 3.68zm7.37 0.31v-0.15c-0.03-3.2-2.37-3.66-2.4-3.66 0 0-2.33 0.66-2.4 3.66v0.15h-2.92l0.5-4.3 9.69 0.02v0.14l0.44 4.14h-2.91z" id="path_142"/><path fill="#FF0" fill-rule="evenodd" d="M183.71 96.29h-10.59c-0.22 0-0.4 0.22-0.4 0.49s0.18 0.49 0.4 0.49h10.6c0.22 0 0.4-0.22 0.4-0.5 0-0.26-0.18-0.48-0.4-0.48" id="path_143"/><path fill="#000" fill-rule="evenodd" d="M173.12 96.44c-0.13 0-0.25 0.16-0.25 0.34 0 0.18 0.12 0.33 0.25 0.33h10.6c0.13 0 0.24-0.15 0.24-0.33 0-0.18-0.11-0.34-0.25-0.34h-10.59zm10.6 0.98h-10.6c-0.3 0-0.56-0.29-0.56-0.64 0-0.36 0.25-0.65 0.56-0.65h10.6c0.3 0 0.56 0.3 0.56 0.65 0 0.35-0.26 0.64-0.57 0.64z" id="path_144"/><path fill="#FF0" fill-rule="evenodd" d="M179.86 96.27c0-2.07-1.41-2.66-1.42-2.66 0 0-1.46 0.6-1.47 2.66h2.9" id="path_145"/><path fill="#000" fill-rule="evenodd" d="M177.13 96.11h2.57c-0.06-1.6-1.04-2.2-1.26-2.33-0.2 0.1-1.24 0.7-1.31 2.33zm2.9 0.31h-3.22v-0.15c0.01-2.1 1.5-2.81 1.63-2.81 0.12-0.02 0.54 0.31 0.54 0.32 0.47 0.4 1.03 1.15 1.04 2.49v0.15z" id="path_146"/><path fill="#FF0" fill-rule="evenodd" d="M183.49 90.66h-10.15c-0.22 0-0.4 0.2-0.4 0.44s0.18 0.44 0.4 0.44h10.15c0.21 0 0.39-0.2 0.39-0.44s-0.18-0.44-0.4-0.44" id="path_147"/><path fill="#000" fill-rule="evenodd" d="M173.34 90.81c-0.13 0-0.24 0.13-0.24 0.29 0 0.15 0.1 0.28 0.24 0.28h10.15c0.12 0 0.23-0.13 0.23-0.28 0-0.16-0.1-0.29-0.23-0.29h-10.15zm10.15 0.88h-10.15c-0.3 0-0.55-0.26-0.55-0.6 0-0.32 0.24-0.59 0.55-0.59h10.15c0.3 0 0.54 0.27 0.54 0.6 0 0.33-0.24 0.6-0.54 0.6z" id="path_148"/><path fill="#FF0" fill-rule="evenodd" d="M183.28 91.54h-9.72c-0.2 0-0.37 0.2-0.37 0.44 0 0.25 0.17 0.44 0.37 0.44h9.72c0.2 0 0.37-0.2 0.37-0.44s-0.17-0.44-0.37-0.44" id="path_149"/><path fill="#000" fill-rule="evenodd" d="M173.57 91.7c-0.12 0-0.22 0.13-0.22 0.28 0 0.16 0.1 0.29 0.22 0.29h9.7c0.12 0 0.22-0.13 0.22-0.29 0-0.15-0.1-0.28-0.21-0.28h-9.71zm9.7 0.88h-9.7c-0.3 0-0.53-0.27-0.53-0.6 0-0.32 0.23-0.6 0.53-0.6h9.7c0.3 0 0.53 0.28 0.53 0.6 0 0.33-0.23 0.6-0.52 0.6z" id="path_150"/><path fill="#FF0" fill-rule="evenodd" d="M180.14 84.92h-0.77v0.55h-0.56v-0.56h-0.78v0.56h-0.56v-0.56h-0.79v1.26c0 0.2 0.16 0.33 0.34 0.33h2.76c0.19 0 0.36-0.15 0.36-0.33v-1.24z" id="path_151"/><path fill="#000" fill-rule="evenodd" d="M176.84 85.07v1.1c0 0.12 0.1 0.17 0.18 0.17h2.76c0.1 0 0.2-0.08 0.2-0.17v-1.09h-0.45v0.55h-0.87v-0.56h-0.48v0.56h-0.87v-0.56h-0.47zm2.94 1.58h-2.76c-0.28 0-0.5-0.2-0.5-0.48v-1.41h1.1v0.56h0.25v-0.56h1.1v0.55h0.25v-0.54h0.97l0.1 0.07v1.33a0.5 0.5 0 0 1-0.5 0.48z" id="path_152"/><path fill="#FF0" fill-rule="evenodd" d="M177.25 86.6l-0.17 4.04 2.69-0.01-0.18-4.03h-2.34" id="path_153"/><path fill="#000" fill-rule="evenodd" d="M177.4 86.76l-0.16 3.72h2.36l-0.16-3.73-2.04 0.01zm-0.49 4.04l0.2-4.35 2.63-0.01 0.19 4.34-3.02 0.02z" id="path_154"/><path fill="#FF0" fill-rule="evenodd" d="M180.53 88.47l-0.08 2.18h2.58l-0.07-2.18h-2.43z" id="path_155"/><path fill="#000" fill-rule="evenodd" d="M180.61 90.5h2.26l-0.07-1.87h-2.12l-0.07 1.86zm2.58 0.3h-2.9l0.1-2.48h2.72l0.08 2.49z" id="path_156"/><path fill="#FF0" fill-rule="evenodd" d="M173.9 88.47l-0.08 2.18h2.58l-0.07-2.18h-2.43z" id="path_157"/><path fill="#000" fill-rule="evenodd" d="M173.98 90.5h2.26l-0.07-1.87h-2.12l-0.07 1.86zm2.58 0.3h-2.9l0.1-2.48h2.72l0.08 2.49z" id="path_158"/><path fill="#FF0" fill-rule="evenodd" d="M183.43 86.9h-0.75v0.55h-0.55v-0.56h-0.76v0.56h-0.55v-0.56h-0.77v1.26c0 0.2 0.15 0.32 0.33 0.32h2.7c0.18 0 0.35-0.15 0.35-0.33V86.9z" id="path_159"/><path fill="#000" fill-rule="evenodd" d="M180.2 87.05v1.1c0 0.11 0.1 0.17 0.18 0.17h2.7c0.1 0 0.2-0.09 0.2-0.18v-1.08h-0.44v0.54h-0.86v-0.55h-0.46v0.55h-0.86v-0.55h-0.46zm2.88 1.58h-2.7a0.48 0.48 0 0 1-0.49-0.48v-1.42h1.08v0.56h0.24v-0.55h1.08v0.55h0.24v-0.54h0.95l0.11 0.07v1.32a0.5 0.5 0 0 1-0.5 0.49z" id="path_160"/><path fill="#FF0" fill-rule="evenodd" d="M176.8 86.9h-0.75v0.55h-0.55v-0.56h-0.76v0.56h-0.55v-0.56h-0.77v1.26c0 0.2 0.15 0.32 0.33 0.32h2.7c0.18 0 0.35-0.15 0.35-0.33V86.9z" id="path_161"/><path fill="#000" fill-rule="evenodd" d="M173.57 87.05v1.1c0 0.11 0.1 0.17 0.18 0.17h2.7c0.1 0 0.2-0.09 0.2-0.18v-1.08h-0.44v0.54h-0.86v-0.55h-0.46v0.55h-0.86v-0.55h-0.46zm2.88 1.58h-2.7a0.48 0.48 0 0 1-0.49-0.48v-1.42h1.08v0.56h0.24v-0.55h1.08v0.55h0.24v-0.54h0.95l0.1 0.07v1.32a0.5 0.5 0 0 1-0.5 0.49zm2.23-0.75c0.02-0.4-0.55-0.4-0.54 0v0.96h0.54v-0.96m3.33 1.4c0-0.38-0.52-0.4-0.51 0v0.74h0.51v-0.74m-6.65 0c0-0.38-0.52-0.4-0.51 0v0.74h0.51v-0.74" id="path_162"/><path fill="#FF0" fill-rule="evenodd" d="M181 125.47c-0.08-3.45-2.53-4.27-2.55-4.28-0.02-0.01-2.64 0.88-2.64 4.31l5.2-0.03" id="path_163"/><path fill="#FF0" fill-rule="evenodd" d="M183.11 121.26l0.43 3.96h-2.59c-0.02-3.27-2.48-3.82-2.54-3.8-0.06-0.01-2.5 0.72-2.56 3.8h-2.6l0.47-3.99 9.4 0.02z" id="path_164"/><path fill="#000" fill-rule="evenodd" d="M178.9 121.4c0.23 0.1 0.53 0.26 0.8 0.5 0.62 0.5 1.35 1.44 1.4 3.17h2.27l-0.4-3.66h-4.08zm-5.47 3.67h2.27a4.21 4.21 0 0 1 1.3-3c0.35-0.33 0.72-0.54 1-0.67l-4.14-0.01-0.43 3.68zm7.37 0.31v-0.15c-0.03-3.2-2.37-3.66-2.4-3.66 0 0-2.33 0.66-2.4 3.66v0.15h-2.92l0.5-4.3 9.69 0.02v0.14l0.44 4.14h-2.91z" id="path_165"/><path fill="#FF0" fill-rule="evenodd" d="M183.71 125.24h-10.59c-0.22 0-0.4 0.22-0.4 0.49s0.18 0.49 0.4 0.49h10.6c0.22 0 0.4-0.22 0.4-0.5 0-0.26-0.18-0.48-0.4-0.48" id="path_166"/><path fill="#000" fill-rule="evenodd" d="M173.12 125.4c-0.13 0-0.25 0.15-0.25 0.33 0 0.18 0.12 0.33 0.25 0.33h10.6c0.13 0 0.24-0.15 0.24-0.33 0-0.18-0.11-0.34-0.25-0.34h-10.59zm10.6 0.97h-10.6c-0.3 0-0.56-0.29-0.56-0.64 0-0.36 0.25-0.65 0.56-0.65h10.6c0.3 0 0.56 0.3 0.56 0.65 0 0.35-0.26 0.64-0.57 0.64z" id="path_167"/><path fill="#FF0" fill-rule="evenodd" d="M179.86 125.22c0-2.07-1.41-2.66-1.42-2.66 0 0-1.46 0.6-1.47 2.66h2.9" id="path_168"/><path fill="#000" fill-rule="evenodd" d="M177.13 125.06h2.57c-0.06-1.6-1.04-2.2-1.26-2.33-0.2 0.1-1.24 0.7-1.31 2.33zm2.9 0.31h-3.22v-0.15c0.01-2.1 1.5-2.81 1.63-2.81 0.12-0.03 0.54 0.31 0.54 0.32 0.47 0.4 1.03 1.15 1.04 2.49v0.15z" id="path_169"/><path fill="#FF0" fill-rule="evenodd" d="M183.49 119.6h-10.15c-0.22 0-0.4 0.2-0.4 0.45 0 0.24 0.18 0.44 0.4 0.44h10.15c0.21 0 0.39-0.2 0.39-0.44 0-0.25-0.18-0.44-0.4-0.44" id="path_170"/><path fill="#000" fill-rule="evenodd" d="M173.34 119.76c-0.13 0-0.24 0.13-0.24 0.29 0 0.15 0.1 0.28 0.24 0.28h10.15c0.12 0 0.23-0.13 0.23-0.28 0-0.16-0.1-0.29-0.23-0.29h-10.15zm10.15 0.88h-10.15c-0.3 0-0.55-0.26-0.55-0.6 0-0.32 0.24-0.59 0.55-0.59h10.15c0.3 0 0.54 0.27 0.54 0.6 0 0.33-0.24 0.6-0.54 0.6z" id="path_171"/><path fill="#FF0" fill-rule="evenodd" d="M183.28 120.5h-9.72c-0.2 0-0.37 0.2-0.37 0.43 0 0.25 0.17 0.44 0.37 0.44h9.72c0.2 0 0.37-0.2 0.37-0.44s-0.17-0.44-0.37-0.44" id="path_172"/><path fill="#000" fill-rule="evenodd" d="M173.57 120.65c-0.12 0-0.22 0.13-0.22 0.28 0 0.16 0.1 0.29 0.22 0.29h9.7c0.12 0 0.22-0.13 0.22-0.29 0-0.15-0.1-0.28-0.21-0.28h-9.71zm9.7 0.88h-9.7c-0.3 0-0.53-0.27-0.53-0.6 0-0.33 0.23-0.6 0.53-0.6h9.7c0.3 0 0.53 0.28 0.53 0.6 0 0.33-0.23 0.6-0.52 0.6z" id="path_173"/><path fill="#FF0" fill-rule="evenodd" d="M180.14 113.87h-0.77v0.55h-0.56v-0.56h-0.78v0.56h-0.56v-0.56h-0.79v1.26c0 0.2 0.16 0.33 0.34 0.33h2.76c0.19 0 0.36-0.15 0.36-0.33v-1.24z" id="path_174"/><path fill="#000" fill-rule="evenodd" d="M176.84 114.02v1.1c0 0.12 0.1 0.17 0.18 0.17h2.76c0.1 0 0.2-0.08 0.2-0.17v-1.09h-0.45v0.55h-0.87v-0.56h-0.48v0.56h-0.87v-0.56h-0.47zm2.94 1.58h-2.76c-0.28 0-0.5-0.2-0.5-0.48v-1.41h1.1v0.56h0.25v-0.56h1.1v0.55h0.25v-0.54h0.97l0.1 0.07v1.33a0.5 0.5 0 0 1-0.5 0.48z" id="path_175"/><path fill="#FF0" fill-rule="evenodd" d="M177.25 115.56l-0.17 4.03 2.69-0.01-0.18-4.03h-2.34" id="path_176"/><path fill="#000" fill-rule="evenodd" d="M177.4 115.71l-0.16 3.72h2.36l-0.16-3.73-2.04 0.01zm-0.49 4.04l0.2-4.35 2.63-0.01 0.19 4.34-3.02 0.02z" id="path_177"/><path fill="#FF0" fill-rule="evenodd" d="M180.53 117.42l-0.08 2.18h2.58l-0.07-2.18h-2.43z" id="path_178"/><path fill="#000" fill-rule="evenodd" d="M180.61 119.44h2.26l-0.07-1.86h-2.12l-0.07 1.86zm2.58 0.32h-2.9l0.1-2.5h2.72l0.08 2.5z" id="path_179"/><path fill="#FF0" fill-rule="evenodd" d="M173.9 117.42l-0.08 2.18h2.58l-0.07-2.18h-2.43z" id="path_180"/><path fill="#000" fill-rule="evenodd" d="M173.98 119.44h2.26l-0.07-1.86h-2.12l-0.07 1.86zm2.58 0.32h-2.9l0.1-2.5h2.72l0.08 2.5z" id="path_181"/><path fill="#FF0" fill-rule="evenodd" d="M183.43 115.85h-0.75v0.55h-0.55v-0.56h-0.76v0.56h-0.55v-0.56h-0.77v1.26c0 0.2 0.15 0.32 0.33 0.32h2.7c0.18 0 0.35-0.15 0.35-0.33v-1.24z" id="path_182"/><path fill="#000" fill-rule="evenodd" d="M180.2 116v1.1c0 0.11 0.1 0.17 0.18 0.17h2.7c0.1 0 0.2-0.09 0.2-0.18v-1.08h-0.44v0.54h-0.86V116h-0.46v0.55h-0.86V116h-0.46zm2.88 1.58h-2.7a0.48 0.48 0 0 1-0.49-0.48v-1.42h1.08v0.56h0.24v-0.55h1.08v0.55h0.24v-0.54h0.95l0.11 0.07v1.32a0.5 0.5 0 0 1-0.5 0.49z" id="path_183"/><path fill="#FF0" fill-rule="evenodd" d="M176.8 115.85h-0.75v0.55h-0.55v-0.56h-0.76v0.56h-0.55v-0.56h-0.77v1.26c0 0.2 0.15 0.32 0.33 0.32h2.7c0.18 0 0.35-0.15 0.35-0.33v-1.24z" id="path_184"/><path fill="#000" fill-rule="evenodd" d="M173.57 116v1.1c0 0.11 0.1 0.17 0.18 0.17h2.7c0.1 0 0.2-0.09 0.2-0.18v-1.08h-0.44v0.54h-0.86V116h-0.46v0.55h-0.86V116h-0.46zm2.88 1.58h-2.7a0.47 0.47 0 0 1-0.49-0.48v-1.42h1.08v0.56h0.24v-0.55h1.08v0.55h0.24v-0.54h0.95l0.1 0.07v1.32a0.5 0.5 0 0 1-0.5 0.49zm2.23-0.75c0.02-0.4-0.55-0.4-0.54 0v0.96h0.54v-0.96m3.33 1.39c0-0.37-0.52-0.38-0.51 0v0.75h0.51v-0.75m-6.65 0c0-0.37-0.52-0.38-0.51 0v0.75h0.51v-0.75" id="path_185"/><path fill="#FF0" fill-rule="evenodd" d="M169.71 155.6c2.4-2.49 1.25-4.8 1.24-4.82 0-0.02-2.48-1.26-4.91 1.16l3.67 3.66" id="path_186"/><path fill="#FF0" fill-rule="evenodd" d="M174.2 154.13l-2.52 3.1-1.83-1.83c2.31-2.33 0.97-4.46 0.91-4.5-0.03-0.04-2.27-1.25-4.5 0.88l-1.83-1.84 3.16-2.49 6.6 6.68z" id="path_187"/><path fill="#000" fill-rule="evenodd" d="M164.66 149.95l1.6 1.61a4.2 4.2 0 0 1 3.06-1.2c0.47 0.03 0.88 0.14 1.17 0.24l-2.91-2.94-2.92 2.3zm5.4 5.45l1.6 1.6 2.32-2.86-2.87-2.9c0.1 0.24 0.2 0.56 0.23 0.92 0.08 0.79-0.08 1.98-1.27 3.24zm1.63 2.06l-2.06-2.06 0.1-0.11c2.26-2.27 0.93-4.26 0.92-4.28-0.01 0-2.12-1.18-4.29 0.88l-0.1 0.1-2.07-2.07 3.42-2.68 6.79 6.88-0.09 0.11-2.62 3.23z" id="path_188"/><path fill="#FF0" fill-rule="evenodd" d="M171.79 157.36l-7.46-7.51c-0.16-0.16-0.45-0.13-0.64 0.06s-0.22 0.47-0.06 0.63l7.46 7.51c0.16 0.16 0.45 0.14 0.64-0.05 0.19-0.2 0.22-0.48 0.06-0.64" id="path_189"/><path fill="#000" fill-rule="evenodd" d="M164.06 149.9h-0.02a0.39 0.39 0 0 0-0.24 0.12c-0.13 0.12-0.15 0.31-0.06 0.4l7.46 7.52c0.1 0.1 0.29 0.07 0.42-0.05 0.13-0.13 0.15-0.32 0.06-0.42l-7.46-7.51a0.21 0.21 0 0 0-0.16-0.06m7.3 8.41a0.52 0.52 0 0 1-0.38-0.15l-7.46-7.51c-0.22-0.22-0.19-0.6 0.06-0.86a0.7 0.7 0 0 1 0.43-0.2c0.16-0.01 0.32 0.04 0.43 0.15l7.46 7.51c0.22 0.22 0.19 0.6-0.06 0.86a0.69 0.69 0 0 1-0.48 0.2" id="path_190"/><path fill="#FF0" fill-rule="evenodd" d="M169.09 154.62c1.46-1.47 0.89-2.88 0.88-2.88 0 0-1.46-0.61-2.92 0.82l2.04 2.06" id="path_191"/><path fill="#000" fill-rule="evenodd" d="M167.27 152.57l1.82 1.83c1.1-1.19 0.84-2.28 0.76-2.54-0.28-0.09-1.4-0.36-2.58 0.7zm1.82 2.27l-2.26-2.28 0.1-0.1c1.52-1.49 3.04-0.9 3.1-0.87l0.04 0.03c0.08 0.07 0.16 0.43 0.17 0.71 0.03 0.6-0.13 1.49-1.04 2.4l-0.11 0.11z" id="path_192"/><path fill="#FF0" fill-rule="evenodd" d="M175.63 153.24l-7.16-7.2c-0.15-0.16-0.41-0.14-0.58 0.03-0.18 0.17-0.2 0.43-0.04 0.58l7.15 7.2c0.15 0.16 0.42 0.14 0.59-0.03 0.17-0.17 0.19-0.43 0.04-0.58" id="path_193"/><path fill="#000" fill-rule="evenodd" d="M168.21 146.08a0.3 0.3 0 0 0-0.21 0.1c-0.11 0.1-0.13 0.27-0.04 0.36l7.15 7.2c0.1 0.1 0.26 0.08 0.37-0.03 0.1-0.1 0.12-0.27 0.04-0.36l-7.16-7.2a0.2 0.2 0 0 0-0.15-0.07zm7.05 8.04a0.52 0.52 0 0 1-0.37-0.15l-7.15-7.2c-0.22-0.22-0.2-0.58 0.04-0.81a0.62 0.62 0 0 1 0.43-0.19c0.15 0 0.28 0.06 0.37 0.15l7.16 7.2c0.2 0.22 0.2 0.58-0.04 0.81a0.62 0.62 0 0 1-0.44 0.19z" id="path_194"/><path fill="#FF0" fill-rule="evenodd" d="M174.85 153.71l-6.85-6.89c-0.14-0.15-0.4-0.12-0.57 0.05-0.17 0.17-0.2 0.43-0.05 0.57l6.84 6.9c0.15 0.14 0.4 0.12 0.58-0.06 0.17-0.17 0.2-0.42 0.05-0.57" id="path_195"/><path fill="#000" fill-rule="evenodd" d="M167.76 146.88h-0.02a0.33 0.33 0 0 0-0.2 0.1 0.32 0.32 0 0 0-0.1 0.22c0 0.04 0 0.09 0.05 0.13l6.84 6.9c0.08 0.07 0.25 0.05 0.36-0.06 0.1-0.1 0.13-0.27 0.05-0.35l-6.85-6.89a0.19 0.19 0 0 0-0.13-0.05m6.7 7.7a0.5 0.5 0 0 1-0.35-0.14l-6.84-6.89a0.49 0.49 0 0 1-0.14-0.35c0-0.16 0.07-0.32 0.19-0.45 0.1-0.1 0.25-0.17 0.4-0.18a0.5 0.5 0 0 1 0.4 0.14l6.84 6.9c0.2 0.2 0.18 0.55-0.05 0.79a0.63 0.63 0 0 1-0.44 0.18" id="path_196"/><path fill="#FF0" fill-rule="evenodd" d="M177.33 146.82l-0.54-0.54-0.39 0.38-0.39-0.4 0.4-0.39-0.56-0.55-0.4 0.39-0.39-0.4 0.4-0.4-0.56-0.55-0.89 0.89c-0.14 0.14-0.12 0.34 0.01 0.47l1.94 1.95c0.14 0.14 0.36 0.15 0.49 0.03l0.88-0.88z" id="path_197"/><path fill="#000" fill-rule="evenodd" d="M174.9 144.58l-0.78 0.78a0.16 0.16 0 0 0-0.05 0.11c0 0.05 0.02 0.1 0.06 0.14l1.95 1.96c0.07 0.07 0.2 0.08 0.26 0.02l0.77-0.77-0.32-0.32-0.39 0.38-0.61-0.62 0.4-0.39-0.34-0.33-0.4 0.39-0.6-0.62 0.39-0.4-0.34-0.33zm1.33 3.36a0.53 0.53 0 0 1-0.38-0.15l-1.94-1.96a0.51 0.51 0 0 1-0.15-0.36c0-0.13 0.05-0.24 0.14-0.33l1-1 0.78 0.78-0.4 0.39 0.18 0.18 0.4-0.4 0.77 0.78-0.4 0.4 0.18 0.17 0.38-0.38 0.68 0.7 0.05 0.1-0.96 0.95a0.47 0.47 0 0 1-0.33 0.13z" id="path_198"/><path fill="#FF0" fill-rule="evenodd" d="M174.1 145.96l-2.98 2.71 1.9 1.9 2.74-2.96-1.66-1.65" id="path_199"/><path fill="#000" fill-rule="evenodd" d="M171.35 148.68l1.67 1.67 2.52-2.74-1.44-1.44-2.75 2.51zm1.68 2.12l-2.13-2.13 3.21-2.93 1.87 1.86-2.95 3.2z" id="path_200"/><path fill="#FF0" fill-rule="evenodd" d="M175.1 149.6l-1.6 1.48 1.8 1.83 1.5-1.59-1.71-1.72z" id="path_201"/><path fill="#000" fill-rule="evenodd" d="M173.72 151.08l1.58 1.6 1.28-1.35-1.5-1.51-1.36 1.26zm1.59 2.05l-2.04-2.06 1.71-1.58 0.11 0.11 0.11-0.1 0.12 0.1 1.7 1.72-1.71 1.81z" id="path_202"/><path fill="#FF0" fill-rule="evenodd" d="M170.42 144.9l-1.6 1.47 1.81 1.83 1.5-1.58-1.71-1.72z" id="path_203"/><path fill="#000" fill-rule="evenodd" d="M169.04 146.38l1.6 1.6 1.27-1.36-1.5-1.5-1.37 1.26zm1.6 2.05l-2.05-2.06 1.83-1.69 1.92 1.93-1.7 1.82z" id="path_204"/><path fill="#FF0" fill-rule="evenodd" d="M178.25 150.55l-0.53-0.53-0.38 0.38-0.4-0.39 0.4-0.39-0.54-0.54-0.4 0.39-0.38-0.4 0.4-0.38-0.55-0.55-0.89 0.89a0.32 0.32 0 0 0 0 0.46l1.9 1.92c0.14 0.13 0.36 0.14 0.49 0.02l0.88-0.88z" id="path_205"/><path fill="#000" fill-rule="evenodd" d="M175.87 148.36l-0.78 0.78c-0.08 0.08-0.05 0.18 0 0.24l1.91 1.92c0.07 0.07 0.2 0.08 0.26 0.01l0.77-0.76-0.3-0.31-0.4 0.38-0.6-0.6 0.4-0.4-0.33-0.32-0.4 0.4-0.6-0.62 0.4-0.4-0.33-0.32zm1.27 3.31a0.52 0.52 0 0 1-0.36-0.15l-1.9-1.92c-0.2-0.2-0.2-0.49 0-0.68l1-1 0.76 0.77-0.4 0.39 0.17 0.17 0.4-0.4 0.76 0.77-0.4 0.4 0.17 0.16 0.38-0.38 0.69 0.68v0.14l-0.93 0.92a0.47 0.47 0 0 1-0.34 0.13z" id="path_206"/><path fill="#FF0" fill-rule="evenodd" d="M173.58 145.84l-0.53-0.53-0.39 0.39-0.38-0.4 0.4-0.38-0.55-0.55-0.4 0.4-0.38-0.4 0.4-0.39-0.55-0.54-0.89 0.88c-0.14 0.14-0.12 0.34 0 0.47l1.9 1.91c0.13 0.13 0.36 0.15 0.49 0.02l0.88-0.87z" id="path_207"/><path fill="#000" fill-rule="evenodd" d="M171.2 143.66l-0.78 0.77c-0.08 0.09-0.05 0.19 0 0.25l1.9 1.91c0.08 0.08 0.2 0.08 0.27 0.02l0.77-0.77-0.31-0.3-0.39 0.38-0.6-0.61 0.4-0.4-0.33-0.32-0.4 0.4-0.6-0.62 0.4-0.39-0.33-0.32zm1.27 3.3a0.51 0.51 0 0 1-0.36-0.15l-1.9-1.91c-0.2-0.2-0.2-0.5-0.01-0.69l1-1 0.76 0.77-0.4 0.4 0.18 0.16 0.39-0.39 0.76 0.77-0.4 0.39 0.17 0.17 0.4-0.39 0.7 0.7-0.04 0.14-0.91 0.9a0.47 0.47 0 0 1-0.34 0.14zm1.73 0.91c0.3-0.26-0.1-0.67-0.37-0.38l-0.68 0.67 0.38 0.39 0.68-0.68m1.36 3.35c0.27-0.27-0.1-0.65-0.37-0.37l-0.52 0.52 0.36 0.37 0.53-0.52m-4.69-4.72c0.27-0.27-0.1-0.65-0.36-0.37l-0.53 0.52 0.36 0.37 0.53-0.52" id="path_208"/><path fill="#039" fill-rule="evenodd" d="M145.4 126.5a5.2 5.2 0 0 0 1.38 3.56 4.53 4.53 0 0 0 3.31 1.49c1.3 0 2.47-0.57 3.32-1.48a5.21 5.21 0 0 0 1.37-3.56v-6.73h-9.37l-0.01 6.72" id="path_209"/><path fill="#FFF" fill-rule="evenodd" d="M147.55 121.4a0.93 0.93 0 1 1 0 1.86 0.93 0.93 0 0 1 0-1.85m5.2 0a0.93 0.93 0 1 1 0 1.86 0.93 0.93 0 0 1 0-1.86m-2.61 2.49a0.93 0.93 0 1 1 0 1.86 0.93 0.93 0 0 1 0-1.85m-2.59 2.61a0.93 0.93 0 1 1 0 1.86 0.93 0.93 0 0 1 0-1.86m5.19-0.01a0.93 0.93 0 1 1 0 1.86 0.93 0.93 0 0 1 0-1.86" id="path_210"/><path fill="#039" fill-rule="evenodd" d="M145.4 110.24a5.2 5.2 0 0 0 1.38 3.56 4.53 4.53 0 0 0 3.31 1.49c1.3 0 2.47-0.57 3.32-1.48a5.21 5.21 0 0 0 1.37-3.56v-6.73h-9.37l-0.01 6.72" id="path_211"/><path fill="#FFF" fill-rule="evenodd" d="M147.55 105.15a0.93 0.93 0 1 1 0 1.85 0.93 0.93 0 0 1 0-1.85m5.2 0a0.93 0.93 0 1 1 0 1.86 0.93 0.93 0 0 1 0-1.86m-2.61 2.5a0.93 0.93 0 1 1 0 1.85 0.93 0.93 0 0 1 0-1.85m-2.59 2.61a0.93 0.93 0 1 1 0 1.86 0.93 0.93 0 0 1 0-1.86m5.19-0.01a0.93 0.93 0 1 1 0 1.86 0.93 0.93 0 0 1 0-1.86" id="path_212"/><path fill="#039" fill-rule="evenodd" d="M132.4 126.5a5.2 5.2 0 0 0 1.38 3.56 4.53 4.53 0 0 0 3.31 1.49c1.3 0 2.47-0.57 3.32-1.48a5.21 5.21 0 0 0 1.38-3.56v-6.73h-9.37l-0.02 6.72" id="path_213"/><path fill="#FFF" fill-rule="evenodd" d="M134.55 121.4a0.93 0.93 0 1 1 0 1.86 0.93 0.93 0 0 1 0-1.85m5.2 0a0.93 0.93 0 1 1 0 1.86 0.93 0.93 0 0 1 0-1.86m-2.61 2.49a0.93 0.93 0 1 1 0 1.86 0.93 0.93 0 0 1 0-1.85m-2.59 2.61a0.93 0.93 0 1 1 0 1.86 0.93 0.93 0 0 1 0-1.86m5.19-0.01a0.93 0.93 0 1 1 0 1.86 0.93 0.93 0 0 1 0-1.86" id="path_214"/><path fill="#039" fill-rule="evenodd" d="M158.36 126.5c0 1.39 0.53 2.65 1.39 3.56a4.53 4.53 0 0 0 3.3 1.49c1.3 0 2.47-0.57 3.32-1.48a5.21 5.21 0 0 0 1.38-3.56v-6.73h-9.37l-0.02 6.72" id="path_215"/><path fill="#FFF" fill-rule="evenodd" d="M160.51 121.4a0.93 0.93 0 1 1 0 1.86 0.93 0.93 0 0 1 0-1.85m5.2 0a0.93 0.93 0 1 1 0 1.86 0.93 0.93 0 0 1 0-1.86m-2.61 2.49a0.93 0.93 0 1 1 0 1.86 0.93 0.93 0 0 1 0-1.85m-2.59 2.61a0.93 0.93 0 1 1 0 1.86 0.93 0.93 0 0 1 0-1.86m5.19-0.01a0.93 0.93 0 1 1 0 1.86 0.93 0.93 0 0 1 0-1.86" id="path_216"/><path fill="#039" fill-rule="evenodd" d="M145.4 142.62c0 1.38 0.53 2.64 1.38 3.56a4.53 4.53 0 0 0 3.31 1.48c1.3 0 2.47-0.56 3.32-1.47a5.21 5.21 0 0 0 1.37-3.56v-6.73l-9.37-0.01-0.01 6.73" id="path_217"/><path fill="#FFF" fill-rule="evenodd" d="M147.55 137.52a0.93 0.93 0 1 1 0 1.86 0.93 0.93 0 0 1 0-1.86m5.2 0.01a0.93 0.93 0 1 1 0 1.85 0.93 0.93 0 0 1 0-1.85m-2.61 2.49a0.93 0.93 0 1 1 0 1.86 0.93 0.93 0 0 1 0-1.86m-2.59 2.61a0.93 0.93 0 1 1 0 1.86 0.93 0.93 0 0 1 0-1.86m5.19 0a0.93 0.93 0 1 1 0 1.85 0.93 0.93 0 0 1 0-1.85" id="path_218"/></svg>