<svg xmlns="http://www.w3.org/2000/svg" width="32" height="16" fill="none" xmlns:v="https://vecta.io/nano"><style><![CDATA[.B{fill:#009b3a}.C{stroke:#000}.D{stroke-width:.754}.E{stroke-width:.602}.F{stroke-miterlimit:10}]]></style><path d="M0 0H324V162H0V0Z" fill="#0038a8"/><path d="M0 0H324V111H0V0Z" fill="#fff"/><path d="M0 0H324V51H0V0Z" fill="#d52b1e"/><path d="M184.174 80.556c0 12.465-10.109 22.568-22.587 22.568-12.473 0-22.587-10.103-22.587-22.568C139 68.096 149.115 58 161.587 58c12.478 0 22.587 10.096 22.587 22.556z" fill="#fff" stroke-width="3.687" class="C F"/><use href="#B" class="B"/><use href="#B" stroke-width=".985" class="C"/><path d="M147.416 89.588l-.193-.32c-.02-.036-.07-.094-.151-.182a.22.22 0 0 0-.149-.074c-.061-.009-.124.004-.176.036-.075.046-.125.107-.133.182-.014.076.022.181.106.323l.196.333.5-.298zm1.912-.11l-2.457 1.46-.75-1.259c-.139-.236-.224-.424-.257-.572a.64.64 0 0 1 .043-.433c.062-.142.175-.26.332-.354a.85.85 0 0 1 .399-.123c.138 0 .264.034.385.098.075.043.163.11.258.207-.023-.105-.035-.188-.03-.252a1.61 1.61 0 0 1 .059-.197 2 2 0 0 1 .085-.197l.496-.79.507.858-.507.851c-.063.108-.102.19-.107.248a.4.4 0 0 0 .053.218l.042.07.995-.592.454.758zm-4.325-1.999l-.75-2.239.578-.194.47 1.404.433-.146-.441-1.303.555-.181.437 1.296.532-.172-.481-1.444.614-.209.762 2.281-2.709.906zm.08-4.558l-.031-.21c-.019-.175-.062-.288-.127-.346-.032-.029-.071-.051-.112-.064s-.086-.017-.13-.012c-.087.014-.158.051-.213.112-.056.069-.075.181-.052.345l.024.252.641-.078zm-1.112 1.022l-.17-1.455c-.034-.312.011-.562.141-.737s.342-.279.619-.311c.286-.036.523.026.703.177s.291.409.334.761l.054.479 1.052-.122.103.88-2.836.328zm-.099-5.567l.091-.877 1.697.182c.159.018.315.062.461.13s.271.164.368.29.167.247.199.377c.043.171.055.382.027.623-.016.15-.042.299-.079.446a1.16 1.16 0 0 1-.16.396c-.074.109-.167.204-.275.278s-.223.124-.348.148a1.58 1.58 0 0 1-.49.03l-1.688-.178.091-.878 1.732.188a.49.49 0 0 0 .377-.092c.097-.077.151-.19.17-.338a.48.48 0 0 0-.092-.37c-.075-.096-.192-.15-.349-.168l-1.732-.187zm2.841-2.398l.153-.422c.046-.143.059-.254.027-.333-.015-.037-.038-.071-.068-.098s-.066-.047-.105-.058c-.085-.029-.155-.024-.223.018s-.133.135-.182.278l-.151.425.549.19zm-1.059-.371l.128-.358c.043-.131.055-.231.024-.298-.024-.064-.08-.115-.166-.14-.033-.014-.069-.02-.105-.019a.25.25 0 0 0-.104.028c-.062.037-.114.115-.156.241l-.134.368.513.177zm-1.349.473l.543-1.562c.094-.26.228-.433.407-.531.084-.045.177-.072.271-.079a.68.68 0 0 1 .28.038.69.69 0 0 1 .357.295c.049.092.079.213.079.353.113-.178.242-.291.387-.34s.307-.05.48.011a.79.79 0 0 1 .34.227c.086.108.143.226.171.36.013.086.006.202-.024.345l-.094.387-.503 1.438-2.694-.941zm1.456-3.656l.462-.753 1.839 1.113.716-1.175.599.366-1.167 1.927-2.449-1.478zm1.886-2.806l.568-.676 2.179 1.84-.569.676-2.178-1.84zm3.958-1.534l.742-.317a1.47 1.47 0 0 1 .157.576 1.09 1.09 0 0 1-.105.518 1.75 1.75 0 0 1-.414.49c-.243.197-.465.325-.675.382s-.441.041-.7-.041c-.25-.083-.488-.262-.718-.531-.299-.366-.437-.724-.407-1.076.03-.358.223-.679.574-.976.28-.231.539-.351.794-.371.249-.024.514.051.779.218l-.487.632c-.075-.049-.136-.081-.189-.092a.43.43 0 0 0-.237-.003c-.081.018-.155.055-.218.108-.155.13-.222.29-.199.481.013.143.104.31.263.508.205.243.382.379.528.406.153.032.295-.012.427-.122s.199-.226.201-.351a.88.88 0 0 0-.116-.438zm2.889-1.714l-.746-.771.188 1.058.558-.287zm.444.468l-.894.454.091.484-.803.408-.34-3.029.859-.438 2.253 2.056-.822.42-.344-.354zm3.473-2.973l.22 1.54.215-.032c.183-.023.312-.063.384-.114.07-.056.118-.128.147-.241.032-.105.032-.269-.001-.497-.042-.298-.122-.497-.233-.592s-.285-.128-.512-.094l-.22.03zm-.96-.516l1.297-.186c.255-.034.463-.032.629.016.172.048.314.127.438.243s.217.256.286.42c.074.172.124.353.148.539.046.299.046.54-.003.712-.04.169-.117.326-.225.463a.95.95 0 0 1-.362.277c-.163.075-.335.127-.512.156l-1.299.183-.397-2.822zm3.886-.553l2.356.174-.044.607-1.475-.11-.034.453 1.368.101-.05.578-1.361-.097-.04.556 1.518.113-.047.643-2.402-.177.211-2.841zm3.63.333l.848.236-.586 2.073 1.324.374-.193.672-2.174-.615.781-2.739zm4.817 3.164l.182.118c.141.093.26.132.346.123a.26.26 0 0 0 .121-.039c.037-.023.068-.054.089-.092.048-.072.065-.153.054-.241-.017-.084-.095-.169-.233-.259l-.21-.142-.349.533zm-.07-1.502l1.226.808c.266.174.422.371.47.583s0 .441-.158.675-.351.376-.587.417-.499-.035-.796-.231l-.404-.267-.58.883-.739-.489 1.568-2.378zm3.097 4.348l.497-.951-.944.51.447.441zm-.302.567l-.716-.703-.431.236-.641-.63 1.319-.608 1.452-.671.683.675-1.241 2.787-.656-.651.231-.436zm2.652 1.237l.201.317c.024.032.068.093.158.177.041.041.096.064.154.067s.119-.008.169-.042c.075-.049.117-.109.131-.186s-.029-.184-.118-.317l-.204-.325-.491.309zm-1.909.169l2.407-1.535.79 1.237c.146.228.239.416.284.562a.7.7 0 0 1-.037.433c-.059.144-.165.264-.316.362-.136.086-.267.135-.402.135-.129.008-.26-.025-.388-.079-.094-.058-.182-.126-.261-.203.025.105.041.19.038.249-.012.067-.029.132-.05.197-.021.07-.05.138-.086.202l-.465.806-.54-.841.484-.863c.065-.115.097-.198.097-.256.002-.078-.01-.151-.061-.217l-.039-.065-.979.623-.476-.747zm3.374 3.841l.856-.645-1.07.059.214.586zm-.519.382l-.343-.943-.487.034-.311-.846 3.051.036.329.9-2.316 1.983-.318-.871.395-.292zm1.366 3.033l.587-.077.17 1.359-1.207.146c-.204-.236-.36-.448-.443-.641-.093-.191-.153-.423-.187-.695-.043-.336-.021-.617.073-.842a1.19 1.19 0 0 1 .447-.561c.213-.14.465-.233.757-.269.308-.041.587-.009.83.092a1.25 1.25 0 0 1 .592.492c.118.183.196.433.233.758.044.311.044.548.002.709-.03.158-.105.304-.215.421-.116.127-.259.225-.42.286l-.256-.823c.102-.051.177-.116.222-.21s.058-.202.047-.325c-.032-.194-.112-.338-.257-.435-.15-.097-.37-.128-.658-.092-.307.038-.514.126-.635.253-.113.134-.156.305-.135.51.011.097.04.188.077.272.041.089.1.18.183.293l.268-.037-.075-.584zm1.807 4.276l-.1.873-1.688-.19c-.162-.017-.32-.062-.466-.133s-.267-.166-.365-.29-.163-.248-.195-.374a1.85 1.85 0 0 1-.024-.627l.078-.448a1.17 1.17 0 0 1 .167-.395c.074-.107.167-.199.273-.274.124-.077.238-.126.351-.146.186-.035.351-.047.49-.026l1.691.193-.101.871-1.729-.199a.5.5 0 0 0-.38.088c-.095.079-.152.189-.167.34s.011.277.088.37.19.151.345.174l1.732.192zm-2.627 3.246l1.075.038-.868-.632-.207.594zm-.638-.032l.325-.946-.398-.285.296-.851 2.347 1.948-.323.911-3.041.075.299-.874.495.021zm1.576 2.625l-.497.843-1.124.004.538.987-.493.833-.868-1.796-1.029-.606.452-.762 1.028.61 1.993-.113z" fill="#000"/><g class="C"><g stroke-width="1.475" class="F"><path d="M180.49 80.563c0 10.435-8.465 18.891-18.906 18.891s-18.909-8.457-18.909-18.891c0-10.427 8.464-18.882 18.908-18.882a18.9 18.9 0 0 1 18.907 18.881h0z"/><path d="M175.652 80.495c0 7.767-6.297 14.058-14.069 14.058s-14.072-6.291-14.072-14.058c0-7.759 6.3-14.052 14.072-14.052s14.069 6.293 14.069 14.052z"/></g><path d="M161.584 75.441l1.182 3.379 3.576.08-2.85 2.165 1.036 3.425-2.944-2.036-2.945 2.036 1.031-3.425-2.854-2.165 3.583-.08 1.185-3.379z" fill="#fedf00" class="E"/></g><path d="M168.081 90.198c-.119.1-.599.153-.726.175s-.633.022-.846.03l-.461.041c-1.034-.118 1.679-.101 2.033-.245m-2.708-.798c.067-.121.406-.874.528-1.088l.572-1.003c.087-.126.424-.492.504-.328-.587.507-1.05 1.392-1.297 1.988-.032.064-.225.396-.296.483s-.041.246-.149.259c-.114.014-.034.035-.034.035l.172-.345h0zm3.896.576s-.467-.07-.757-.172c-.288-.097-.772-.171-1.185-.161s-.783.129-1.117.256-.762.134-.762.134-.243.038-.129-.018c.108-.054.485-.348.485-.348l.244-.333c.07-.019 1.305-1.639 1.171-2.074.189-.32.411-.891.328-.99-.04-.04-.962.292-1.165.476-.234.202-.399.624-.469.866s-.424.441-.424.441c-.288.207-.497.863-.595 1.4-.099.53-1.406.823-1.406.823s-.363.135-.041.237c.055.016.199.258.314.262.16.019.972-.329 1.097-.301l.818.223c.309.105.565.159.781.079s.534-.049.769-.003.491.029.641-.017c.16-.049.581-.282.581-.282l.718-.32c.263-.123.103-.177.103-.177" class="B"/><g class="C"><path d="M168.081 90.198c-.119.1-.599.153-.726.175s-.633.022-.846.03l-.461.041c-1.034-.118 1.679-.101 2.033-.245m1.188-.223s-.467-.07-.757-.172c-.288-.097-.772-.171-1.185-.161s-.783.129-1.117.256-.762.134-.762.134-.243.038-.129-.018c.108-.054.485-.348.485-.348l.244-.333c.07-.019 1.305-1.639 1.171-2.074.189-.32.411-.891.328-.99-.04-.04-.962.292-1.165.476-.234.202-.399.624-.469.866s-.424.441-.424.441c-.288.207-.497.863-.595 1.4-.099.53-1.406.823-1.406.823s-.363.135-.041.237c.055.016.199.258.314.262.16.019.972-.329 1.097-.301l.818.223c.309.105.565.159.781.079s.534-.049.769-.003.491.029.641-.017c.16-.049.581-.282.581-.282l.718-.32c.263-.123.103-.177.103-.177m-3.896-.576c.067-.121.406-.874.528-1.088l.572-1.003c.087-.126.424-.492.504-.328-.587.507-1.05 1.392-1.297 1.988-.032.064-.225.396-.296.483s-.041.246-.149.259c-.114.014-.034.035-.034.035l.172-.345h0z" class="D"/><path d="M165.718 91.551l-1.896-.963c-.057-.008-.817-.426-1.164-.534-.252-.081-.598-.102-.723-.094-.296.021-.78.151-.78.151l.447.183.625.316c.294.155.307.343.307.343l1.629.716.331.237s.301-.415 1.224-.355z" class="B E"/></g><use href="#C" class="B"/><use href="#C" stroke-width=".794" class="C"/><path d="M170.79 88.571l-.776-.064c-.068 0-.459-.054-1.028-.054-.564 0-.776.195-.924.353-.16.176-.604.583-.604.583l.239-.021c.572-.444 1.016-.281 1.194-.294.185-.007.408.012.98-.19.58-.203.546-.013.483.006-.278.1-.568.158-.862.174-.431.024-.809.107-.979.107s-1.428.344-1.428.344l1.508.128c.145.059.374.032.563-.059.522-.24.757-.286.972-.334.215-.042.472-.187.472-.187s.138-.087.265-.317c.131-.236-.075-.172-.075-.172zm.668-3.725c.086-.213.301-.713.528-.909.139-.121.378-.177.505-.231.054-.018.445-.037-.043.097-.202.054-.476.173-.598.377-.17.473-.319.885-.636 1.188-.233.244-.38.562-.38.562l-.25.086c.458-.28.656-.799.874-1.17zm2.212-.266c-.26.087-.352.159-.352.159-.583.175-.822.54-1.077.838-.13.156-.312.272-.928.536-.562.241-.997.614-1.007.614 0 0-.178.036-.144.123.013.041.165.008.165.008s1.158-.165 1.641-.459c.308-.193.483-.334.775-.785.131-.199.278-.574.284-.333.023.64-.972 1.261-1.406 1.452-.232.098-.541.139-.946.206-.4.074-.643.051-.614-.036.041-.127.088-.154.193-.279.191-.227.651-.307.99-.466.401-.179.781-.443.971-.669s.262-.312.315-.505c.148-.504.156-.783.295-.963.489-.602.561-.796.585-1.065.005-.062-.254.143-.389.217-.264.156-.361.156-.901.297-.548.136-.536.489-.621.656-.025.067-.247.344-.353.395s-.367.43-.463.65c-.071.161-.199.277-.301.264-.106-.02.206-1.186.274-1.379.074-.192.089-.566.089-.692 0-.121.004-.438-.207-.474s-.221-.326-.221-.326c-.506.438-.223 1.21-.169 1.668s-.104 1.293-.104 1.293c.489.209.104.803-.048.995-.16.195-.463.231-.599.403-.144.177-1.169 1.603-1.169 1.603l1.275-.361s.119.021-.072-.123c-.193-.138.062-.673.227-.804.313-.245.737-.067.737-.067s.591.091 1.316-.197c.606-.239.866-.626 1.153-.917.157-.158.442-.685.622-.997.109-.18.303-.522.184-.482" class="B"/><g class="C"><path d="M173.67 84.58c-.26.087-.352.159-.352.159-.583.175-.822.54-1.077.838-.13.156-.312.272-.928.536-.562.241-.997.614-1.007.614 0 0-.178.036-.144.123.013.041.165.008.165.008s1.158-.165 1.641-.459c.308-.193.483-.334.775-.785.131-.199.278-.574.284-.333.023.64-.972 1.261-1.406 1.452-.232.098-.541.139-.946.206-.4.074-.643.051-.614-.036.041-.127.088-.154.193-.279.191-.227.651-.307.99-.466.401-.179.781-.443.971-.669s.262-.312.315-.505c.148-.504.156-.783.295-.963.489-.602.561-.796.585-1.065.005-.062-.254.143-.389.217-.264.156-.361.156-.901.297-.548.136-.536.489-.621.656-.025.067-.247.344-.353.395s-.367.43-.463.65c-.071.161-.199.277-.301.264-.106-.02.206-1.186.274-1.379.074-.192.089-.566.089-.692 0-.121.004-.438-.207-.474s-.221-.326-.221-.326c-.506.438-.223 1.21-.169 1.668s-.104 1.293-.104 1.293c.489.209.104.803-.048.995-.16.195-.463.231-.599.403-.144.177-1.169 1.603-1.169 1.603l1.275-.361s.119.021-.072-.123c-.193-.138.062-.673.227-.804.313-.245.737-.067.737-.067s.591.091 1.316-.197c.606-.239.866-.626 1.153-.917.157-.158.442-.685.622-.997.109-.18.303-.522.184-.482m-2.88 3.991l-.776-.064c-.068 0-.459-.054-1.028-.054-.564 0-.776.195-.924.353-.16.176-.604.583-.604.583l.239-.021c.572-.444 1.016-.281 1.194-.294.185-.007.408.012.98-.19.58-.203.546-.013.483.006-.278.1-.568.158-.862.174-.431.024-.809.107-.979.107s-1.428.344-1.428.344l1.508.128c.145.059.374.032.563-.059.522-.24.757-.286.972-.334.215-.042.472-.187.472-.187s.138-.087.265-.317c.131-.236-.075-.172-.075-.172zm.668-3.725c.086-.213.301-.713.528-.909.139-.121.378-.177.505-.231.054-.018.445-.037-.043.097-.202.054-.476.173-.598.377-.17.473-.319.885-.636 1.188-.233.244-.38.562-.38.562l-.25.086c.458-.28.656-.799.874-1.17z" class="D"/><path d="M170.054 88.004c.097-.039.112-.057.291-.251s.02-.522-.251-.509c-.133.009-.274-.022-.535.329-.253.351.12.48.262.494.06.003.14-.023.233-.063z" stroke-width=".84" class="B"/></g><use href="#D" class="B"/><use href="#D" stroke-width=".858" class="C"/><use href="#E" class="B"/><use href="#E" class="C D"/><use href="#F" class="B"/><g class="C"><use href="#F" stroke-width=".828"/><g class="B"><path d="M171.932 81.833c-.46.024-.686.849-.686.849s-.075.204-.32.362c-.261.161-.107.392-.107.804s-.287 1.138-.287 1.138l-.107.246s.01.185.178-.151c.285-.565.598-.428.715-1.037.075-.453.825-.597.825-.597l-.211-.039c-.779-.365.045-1.275.178-1.436.142-.161.277-.161-.178-.14z" stroke-width=".984"/><path d="M171.801 82.813c-.211.451.389.473.527.394.056-.032.183-.183.183-.183.243-.349.02-.585-.107-.619-.122-.04-.382-.072-.603.407z" stroke-width=".838"/></g></g><path d="M170.662 81.062c.158.293.597 1.107.7 1.056.065-.031.014-.198.014-.198s-.013-.22-.085-.487-.053-.613-.193-.833-.463-.481-.592-.829-.027-1.009-.016-1.09c.013-.076.051-.026-.017-.105-.068-.086-.623-.381-.623-.381s.032.215.019.605c-.006.094-.032.204-.047.368-.013.156.081.353.309.801l.531 1.091zm3.331-3.874l-.217.325a37.81 37.81 0 0 1-1.016.868c-.043.034-.516.185-.946 1.346s-.244 2.239-.244 2.239l.209-.026.035-.113.124-.675c.06-.287.383-.689.597-.985.204-.29.368-.707.368-.707.243-.488.36-.925.6-1.265.009.405-1.533 2.897-1.698 3.745l.457-.07c.364-.333.842-1.032 1.165-1.483s.464-1.16.523-1.473.043-1.726.043-1.726" class="B"/><path d="M173.993 77.188l-.217.325a37.81 37.81 0 0 1-1.016.868c-.043.034-.516.185-.946 1.346s-.244 2.239-.244 2.239l.209-.026.035-.113.124-.675c.06-.287.383-.689.597-.985.204-.29.368-.707.368-.707.243-.488.36-.925.6-1.265.009.405-1.533 2.897-1.698 3.745l.457-.07c.364-.333.842-1.032 1.165-1.483s.464-1.16.523-1.473.043-1.726.043-1.726m-3.331 3.873c.158.293.597 1.107.7 1.056.065-.031.014-.198.014-.198s-.013-.22-.085-.487-.053-.613-.193-.833-.463-.481-.592-.829-.027-1.009-.016-1.09c.013-.076.051-.026-.017-.105-.068-.086-.623-.381-.623-.381s.032.215.019.605c-.006.094-.032.204-.047.368-.013.156.081.353.309.801l.531 1.091z" class="C D"/><path d="M170.918 77.445c-.233-.215-.414-.28-.414-.28a6.76 6.76 0 0 0 .056.68l.009.922c-.009.23-.124.612.04.986.168.369.357.556.491.788.121.227.344 1.407.344 1.407l-.011-2.047c.065-.443.086-1.135-.013-1.481s-.274-.755-.502-.976zm1.065-1.558c.07-.136.234-.418.303-.848a4.84 4.84 0 0 0 .036-.682c-.006-.137-.06-.374 0-.39.052-.013.008.074.038.276.015.072-.035.272-.044.528-.012.204-.02.375-.111.652-.08.244-.008.515-.057.591s-.193.37-.193.37-.086.236-.071.451l.021.458s.102-.189.329-.22l.052-.484a8.27 8.27 0 0 1 .223-1.102c.104-.338.176-.927.013-1.611-.046-.185-.079-.763-.079-.763s-.218.175-.347.834c-.04.201.044.738.011 1.312-.013.316-.317 1.597-.358 1.678" class="B"/><g class="C D"><path d="M171.983 75.887c.07-.136.234-.418.303-.848a4.84 4.84 0 0 0 .036-.682c-.006-.137-.06-.374 0-.39.052-.013.008.074.038.276.015.072-.035.272-.044.528-.012.204-.02.375-.111.652-.08.244-.008.515-.057.591s-.193.37-.193.37-.086.236-.071.451l.021.458s.102-.189.329-.22l.052-.484a8.27 8.27 0 0 1 .223-1.102c.104-.338.176-.927.013-1.611-.046-.185-.079-.763-.079-.763s-.218.175-.347.834c-.04.201.044.738.011 1.312-.013.316-.317 1.597-.358 1.678m-.831.509c-.233-.215-.414-.28-.414-.28a6.76 6.76 0 0 0 .056.68l.009.922c-.009.23-.124.612.04.986.168.369.357.556.491.788.121.227.344 1.407.344 1.407l-.011-2.047c.065-.443.086-1.135-.013-1.481s-.274-.755-.502-.976z"/><path d="M171.983 75.887l-.014.027s.009-.008.014-.027z" class="B"/></g><use href="#G" class="B"/><use href="#G" class="C D"/><path d="M171.019 77.129s-.09-.2-.181-.302c-.184-.216-.431-.4-1.135-.743-.701-.349-.887-.922-1.244-1.158-.164-.113-.481-.167-.481-.167l.386.577c.095.189.118.317.504.677s.852.487 1.153.576c.426.132.998.54.998.54zm-2.21-3.315c.019.057.2.673.58 1.152.58.733 1.698 1.257 1.698 1.257-.104-.456-.287-.984-.431-1.217-.508-.82-1.851-1.222-1.851-1.222s-.023-.031.004.03zm1.603.346c.301-.658-.597-1.286-.851-1.745.094-.075.205.121.308.251l.561.76.129-.602-1.07-.972c-.013.141-.343.257-.343.257-.16.9 1.266 2.05 1.266 2.05" class="B"/><path d="M170.412 74.16c.301-.658-.597-1.286-.851-1.745.094-.075.205.121.308.251l.561.76.129-.602-1.07-.972c-.013.141-.343.257-.343.257-.16.9 1.266 2.05 1.266 2.05m.607 2.969s-.09-.2-.181-.302c-.184-.216-.431-.4-1.135-.743-.701-.349-.887-.922-1.244-1.158-.164-.113-.481-.167-.481-.167l.386.577c.095.189.118.317.504.677s.852.487 1.153.576c.426.132.998.54.998.54zm-2.21-3.315c.019.057.2.673.58 1.152.58.733 1.698 1.257 1.698 1.257-.104-.456-.287-.984-.431-1.217-.508-.82-1.851-1.222-1.851-1.222s-.023-.031.004.03z" class="C D"/><use href="#H" class="B"/><g class="C D"><use href="#H"/><g class="B"><path d="M164.625 71.88a3.73 3.73 0 0 0 .57.422c.232.139.899.531 1.398.626l.743.097c.025-.274.322-.298.322-.298l-.887-.097c-.716-.053-1.26-.352-1.684-.83.568.344 1.386.887 2.049.858 2.72-.267-.82-.334-1.127-.531-.326-.201-.603-.534-.603-.534l-.798-.036s-.392-.025.017.323z"/><path d="M167.828 73.427c.176-.013.299-.046.339-.239.035-.215-.047-.371-.306-.428-.144-.036-.397-.043-.5.213-.112.262.296.43.296.43a.37.37 0 0 0 .171.023zm.305-1.558c-.231 0-.309.188-.259.553.06.369.625.208.625.208l.105-.054s.077-.059.034-.353c-.04-.3-.274-.354-.505-.354zm.925.259h-.009z"/></g></g><use href="#I" class="B"/><g class="C"><g class="D"><use href="#I"/><path d="M165.863 71.751c.3.254.435.431 1.058.523.628.099.681.057.681.057s.326-.157.161-.295c-.924-.406-1.798-.888-2.242-1.431 0 0 .077-.075.397.245.185.188.31.282.424.37.336.235.481.302.816.484.178.097.624.202.624.202s.064-.135.12-.151-.034-.225-.422-.538c-.215-.178-.406-.385-.566-.614l-.956-.183c-.371-.059-1.068-.599-1.056-.453s.105.619.293.917.369.605.668.867z" class="B"/></g><path d="M160.672 90.517c-.272.08-2.315.846-2.315.846l-.57.228c.787-.177 1.391.219 1.391.219l2.274-1.052s-.006-.034-.063-.075-.442-.249-.717-.166z" class="B E"/><path d="M157.701 91.661c-.015.013-.03.067.009.084.114.063.083.088.599.149.519.056.858-.042.947-.14.104-.114-1.287-.327-1.555-.093z" stroke-width=".644" class="B"/><path d="M154.433 84.323l-.094-.638s-.119-1.724-.315-2.07c-.038-.077-.021-.256-.145-.259-.238-.018-.238.543-.267 1.051-.387 2.562 1.659 4.519 1.659 4.519l-.838-2.604z" stroke-width=".836" class="B"/><path d="M164.557 91.914s-.214-.048-.079-.215c.131-.159.517-.244.595-.244s.293.016.455.061.388.184.322.288c-.069.099-.289.222-.591.222-.258 0-.39-.007-.504-.039l-.198-.073z" stroke-width=".77" class="B"/><path d="M162.339 90.695l-1.368-.648c-.877-.428-1.932-1.022-2.666-2.112-.919-1.35-1.719-2.072-1.912-2.218s-.227-.2-.3-.097c-.066.089-.02.166.036.261l.82 1.194c.287.553.881 1.158.876 1.516 0 .05-.173-.036-.173-.036s-1.391-.476-1.954-2.159c-.411-1.22-.236-1.579-.331-2.188-.163-1.084-.196-1.171-.733-2.386-.015-.03-.329-.538-.371-.425-.058.146.053.689.053.689l.057.626-.045 1.473c0 .084-.35.951 1.138 2.408 0 0 .022.248-.177.03-.142-.156-1.207-.973-1.531-2.317-.334-1.345-.382-2.69-.13-3.249.229-.505.688-1.739.492-2.818-.022-.112-.054-.443-.125-.356-.031.042-.164.588-.245.777-.113.258-.287.512-.341.691-.105.303-.618.771-.518 1.633.114.99.179 1.145.298 1.498.041.128.14.456.076.489s-.27-.392-.27-.392-.943-1.85-.362-3.35c.588-1.494 2.062-2.911 2.062-2.911l1.441-1.223c.095-.089.072-.156.04-.146-.297.075-2.601.551-3.41 3.292 0 0-.042.115-.102.087-.074-.033 0-.162 0-.162s.507-1.943 1.928-2.825l1.883-1.13c.323-.201.615-.469.977-1.066.037-.067.183-.414.164-.474s-.086.022-.119.121c0 0-.439.678-1.097.906s-1.196-.097-1.859.635-1.192 1.755-1.192 1.755-.173.264-.212.256c-.072-.022.036-.28.036-.28s.886-1.878 1.598-2.26 1.348-.753 1.753-1.065c.493-.386 1.341-1.33 1.646-1.655l.621-.68c.06-.081.205-.2.181-.22-.065-.049-.496.159-.496.159s-2.348.646-3.808 2.85a3.74 3.74 0 0 1-.315.398c-.156.162-.234.431-.234.431-.095-.079.826-1.228.826-1.228l.161-.744s.273-1.117.846-1.906c.056-.072.395-.413.452-.484.114-.123-.216.108-.158.056 0 0-2.189 1.57-2.189 3.548 0 .355-.221.68-.527 1.121-.357.513-.476.828-.631 1.591l-.201.961s.021.282-.07.261-.062-.255-.062-.255l.382-1.928.257-.741s-.092-1.108.155-1.716c.209-.53.738-1.227.82-1.402.036-.076.28-.573.349-1.14.009-.076-.05-.013-.149.208-.241.542-.442.684-.838 1.194 0 0-1.015.735-1.382 2.92l-.136 2.091a8.48 8.48 0 0 0 .092 2.339c.068.323.196.325.117.364-.05.025.031.004-.084-.239-.14-.293-.248-.743-.248-1.365l.099-2.055s.075-1.842-.69-2.672c-.037-.043.134.373.211.787.094.514-.077 1.228-.127 1.506s-.559 1.497-.379 2.639c0 0 .431 1.938.987 2.877 0 0 .346.405.04.025s-.925-1.887-.979-2.015c-.048-.123-.494-1.062-.913-1.443-.217-.202-.814-.56-.814-.56s-.324-.247-.078.081c.194.259.456.723.579.925.259.418.489.852.689 1.301.2.438.664 1.728.664 1.728l.297.818s.498.276.769.578c.222.244.683.804 1.065 1.801.172.441.515.845.515.845s-.072.14-.378-.388c-.301-.536-.597-1.54-1.323-2.321-.552-.6-2.037-1.204-2.037-1.204l1.191 1.957 1.13 1.317 1.184 1.464c.209.277.347.399.456.511.237.252.938.711.993.783.01.073.024.013-.035-.031-.311-.185-.683-.478-1.066-.727s-1.859-.883-2.854-2.252c-.235-.405-.348-.566-.427-.525-.122.064.669 2.68 2.297 3.511l2.193 1.037c.219.131.659.325.863.489.116.096-.106.091-.121.088-.953-.075-2.323-.201-3.163-.688 0 0-.361-.253-.065.103.236.275.683.953 1.546 1.335a9.26 9.26 0 0 0 2.578.623l2.368.133c.302.102.815.43 1.109.525l1.073.395s.242.133.372.18c.145.058.749.053.792-.06.04-.101-.173-.255-.173-.255z" class="B E"/></g><use href="#J" class="B"/><use href="#J" class="C D"/><defs ><path id="B" d="M172.508 77.061c-.548-.022-.551.582-.551.582s.018-.178.003.024.09.689.495.729c.427.037.569-.462.573-.704 0-.096-.032-.619-.52-.631"/><path id="C" d="M167.528 87.818c.566-.504.842-1.221 1.308-1.618.076.054.076.144-.017.303-.088.157-.205.21-.256.292-.095.127-.379.362-.455.504-.068.134-.156.321-.403.463s-.169.38-.189.478c-.02.108-.399.379-.581.713-.035.349-.051.203-.263.327.386-.581.588-.955.856-1.462m-1.272 1.596c-.037.076-1.153.709-.804.615s1.379-.463 1.672-.593c.358-.156.573-.484.842-.751.275-.272 1.124-1.083 1.271-1.396.144-.322.274-.77-.302-1.775 0 0-.089.192-.304.38s-.528.405-.528.405l-.37.349-1.477 2.766"/><path id="D" d="M169.395 85.784c-.169.282-.259.607-.126.707.029.017.147.12.246.12s.376-.133.534-.377c.158-.236.288-.496-.036-.657-.294-.145-.496-.009-.618.207"/><path id="E" d="M170.36 82.336s.027-.043-.085-.159c-.176-.18-.396-.501-.396-.501-.351.191-.467.578-.467.732 0 .16.059.507.005.862-.019.121-.038.258-.211.697-.178.433.025.83.064.97.031.139.175.572.175.572s.137-.088.184-.098c.054-.015.241-.007.241-.007s.211-.381.218-.593c.004-.156-.02-.421-.095-.828-.103-.592-.096-.76-.026-1.091s.393-.556.393-.556"/><path id="F" d="M170.883 82.927s.199-.047.299-.228c.126-.217.093-.448.093-.448-.308-.597-.723-.115-.723-.115-.371.758.33.791.33.791"/><path id="G" d="M171.123 72.561c.116 0 .116.126.092.226-.018.102-.015.293-.015.332 0 .045.048.316.087.458s.115.191.083.484c-.021.184-.21.4-.144.712.036.164.153.336.212.477.048.098.022.339.035.536a.58.58 0 0 0 .111.321s-.131.244-.174-.061c-.048-.351-.064-.507-.131-.665-.11-.26-.211-.727-.04-1.088.029-.07.052-.199.052-.353s-.096-.423-.115-.588c-.016-.131-.005-.408-.005-.508m-.612 1.467c.028.198.091.311.315.741.069.142.225.504.249.619s.051.255.051.29.026.31.026.31v.113l-.891-.553c-.27-.194-.577-.461-.773-.622-.222-.183-.751-.81-.758-1.312l-.243-.22s-.186 1.116.69 1.839c.253.207.528.436 1.117.702.59.272.513.515.759 1.037l.424.975c.021.159-.067 2.389-.067 2.389l.021.202s.54-2.066.799-2.296c0 0-.515-.079-.474-.887l-.09-.533s-.103-.64.09-1.037c0 0 .229-.728.151-1.358l-.112-.85c-.07-.561-.296-1.364-.321-1.461-.077-.282-.103-.325-.193-.548-.027-.079-.077-.339-.16-.343-.048-.003-.121.334-.121.334l-.13.467c-.07.297-.235.546-.31 1.212l-.041.49a1.26 1.26 0 0 0-.008.301z"/><path id="H" d="M168.55 72.635c-.258.115-.35.115-.35.115l.144.381.084.103s.336.486.531.546c.082.03.388.084.695.215.386.164 1.017.715 1.017.715s-1.049-1.181-1.451-2.067l-.136-.51-.38.025s.105.358-.154.477"/><path id="I" d="M169.049 72.128c.006-.003.022-.011.082-.028.117-.044.237-.327.237-.327.059-.381-.214-.476-.214-.476-.461-.092-.473.312-.473.312-.127.526.3.521.368.518m-2.051-1.806c.026.175.274.428.313.471a6.09 6.09 0 0 1 .469.518c.107.149.464.821.464.821s.062-.01.088-.062c.062-.105-.238-.919-.269-.975-.11-.247-.29-.432-.471-.625-.042-.027-.19-.218-.353-.422.322.411 1.148 1.582 1.391 2.102l-.06-.852c-.103-.868-.329-1.137-.402-1.263-.128-.235-.454-.463-.687-.543l-.803-.294c-.304-.093-.07.181.042.418.141.279.253.53.279.707"/><path id="J" d="M172.771 77.076c.183.067.263.607.263.607l-.016-.462c0-.154-.075-.729-.075-.729l-.161.115c-.193.154-.301.425-.301.425s.111-.018.29.043"/></defs></svg>
