<svg id="vector" xmlns="http://www.w3.org/2000/svg" width="24" height="24" viewBox="0 0 512 512"><path fill="#EEEEEE" d="M477.752 384C499.534 346.346 512 302.629 512 256C512 209.371 499.534 165.654 477.752 128L34.2483 128C12.4665 165.654 0 209.371 0 256C0 302.629 12.4665 346.346 34.2482 384L477.752 384Z" id="path_0"/><path fill="#0052B4" d="M255.911 512C154.729 511.965 67.2685 453.23 25.7354 368L486.264 368C444.731 453.23 357.271 511.965 256.089 512C256.059 512 256.03 512 256 512C255.97 512 255.94 512 255.911 512Z" id="path_1"/><path fill="#D80027" d="M256 0C154.78 0 67.2808 58.7445 25.7354 144L486.264 144C444.719 58.7445 357.22 0 256 0Z" id="path_2"/><path fill="#6DA544" d="M343.332 225.589C339.897 208.316 331.416 192.45 318.963 179.997L293.778 205.182C301.25 212.654 306.338 222.174 308.399 232.537C310.461 242.901 309.403 253.643 305.359 263.405C301.315 273.168 294.468 281.512 285.682 287.382C276.896 293.253 266.567 296.386 256 296.386C245.433 296.386 235.104 293.253 226.318 287.382C217.532 281.512 210.684 273.168 206.641 263.405C202.597 253.643 201.539 242.901 203.6 232.537C205.662 222.174 210.75 212.654 218.222 205.182L193.037 179.997C180.584 192.45 172.103 208.316 168.668 225.589C165.232 242.861 166.995 260.765 173.735 277.036C180.474 293.306 191.887 307.213 206.53 316.997C221.173 326.781 238.389 332.004 256 332.004C273.611 332.004 290.827 326.781 305.47 316.997C320.113 307.213 331.526 293.306 338.265 277.036C345.005 260.765 346.768 242.861 343.332 225.589Z" fill-rule="evenodd" id="path_3"/><path fill="#FFC635" d="M256 206.049L264.287 231.554H291.105L269.409 247.318L277.696 272.823L256 257.06L234.304 272.823L242.591 247.318L220.894 231.554H247.713L256 206.049Z" id="path_4"/></svg>