<svg id="vector" xmlns="http://www.w3.org/2000/svg" width="32" height="16" viewBox="0 0 500 250"><path fill="#C7363D" fill-rule="evenodd" d="M0 0h499.425v249.545H0z" stroke-width="1" id="path_0"/><path fill="#0D4077" fill-rule="evenodd" d="M0 82.98h499.425v166.564H0z" stroke-width="1" id="path_1"/><path fill="#FFFFFF" fill-rule="evenodd" d="M0 165.738h499.425v83.807H0z" stroke-width="1" id="path_2"/><path fill="#EDB92F" d="M166.359 59.318c0.52-1.13 0.101-2.704-0.068-3.06-0.087-0.18 0.169-0.576 0.279-0.733 3.541-4.977 3.603-5.418 1.16-7.284-2.2-1.683-7.176-3.319-10.736-4.421-0.741-0.561-1.213-1.325-1.885-1.955 6.839 0.489 14.252 3.247 17.99 6.469 1.974 1.703-0.428 5.144-3.371 10.376-1.818 1.304-2.671 1.911-3.369 0.608z" stroke-width="0.666867675" stroke="#21231E" id="path_3"/><path fill="#EDB92F" d="M167.436 59.713c0.154-0.449 0.265-0.88 0.342-1.284 0.149-0.739 0.085-1.503-0.163-2.22 0.816-1.147 1.733-2.392 2.393-3.63 0.471-0.884 0.837-1.868 0.558-2.875-0.296-1.076-1.231-1.807-2.078-2.454-1.016-0.776-2.365-1.455-3.735-2.033-3.065-1.263-5.501-1.879-7.288-1.936l1.133 1.045c3.324 1.067 7.246 2.473 9.132 3.916 2.442 1.864 2.38 2.307-1.161 7.284-0.11 0.155-0.365 0.553-0.28 0.733 0.17 0.356 0.483 1.998-0.037 3.127 0.306 0.571 0.749 0.273 1.184 0.327z" stroke-width="0.666869997" stroke="#21231E" id="path_4"/><path fill="#EDB92F" d="M137.521 37.552c-0.031-0.63 0.011-0.522 0.106 0.449 0.102-0.196 0.236-0.285 0.398-0.281 0.288 0.006 0.463 0.441 0.49 1.422-0.016 0.253-0.035 0.502-0.053 0.752 9.072-0.201 14.449 1.166 15.836 3.79 1.141 2.16-0.799 5.736-3.726 9.818-0.354 0.495-0.345 0.452-0.002 0.86 0.497 0.588 1.029 1.586 0.628 2.46 1.773 0.971 3.885 1.209 5.726 0.406 0.308-0.808 0.969-1.191 1.507-1.556 0.11-0.074 0.503-0.267 0.543-0.393 0.967-3.09 1.94-5.949 2.771-8.609 2.619-8.356-20.641-9.122-24.224-9.118z" stroke-width="0.666869997" stroke="#21231E" id="path_5"/><path fill="#EDB92F" d="M161.475 73.5c0.898-1.796 1.839-3.56 3.098-5.088-3.223 2.381-4.917 2.023-5.153-1.077-0.191-0.067-0.451-0.067-0.708-0.067-2.46 3.807-4.852 3.279-7.176-1.582-3.167 4.995-5.884 4.906-8.017-0.306-3.653 4.556-6.73 4.57-9.232 0.097V64.91c0.141 0.062 0.044 0.082-0.283 0.035l-0.054-0.102c-0.096 0.019-0.187 0.036-0.269 0.05l-0.27-0.05-0.052 0.102c-0.327 0.047-0.424 0.027-0.285-0.035v0.569c-2.5 4.471-5.577 4.457-9.23-0.099-2.135 5.212-4.852 5.301-8.017 0.306-2.325 4.861-4.717 5.389-7.176 1.582-0.259 0-0.517 0-0.708 0.067-0.236 3.1-1.932 3.458-5.153 1.077 1.257 1.528 2.2 3.292 3.098 5.088 9.285-0.385 18.541-0.866 27.794-1.35 9.253 0.484 18.506 0.965 27.794 1.35h-0.001z" stroke-width="0.666869997" stroke="#21231E" stroke-linejoin="round" id="path_6"/><path fill="#EDB92F" d="M165.282 66.02l-1.011-0.168c-1.94 4.733-3.68 4.85-4.009 0.346 0.435-0.157 0.263-0.909 0.754-0.609 0.259 0.158 0.586-0.291 0.372-0.538-0.55-0.404-1.039-0.34-1.52 0.108-0.227-0.719-0.782-1.054-1.474-0.752-0.3 0.132-0.197 0.671 0.103 0.64 0.485-0.05 0.29 0.453 0.442 0.791-3.444 4.486-5.203 3.953-4.774-1.941-0.82-0.169-1.775-0.337-2.628-0.641-3.168 6.357-5.422 6.632-7.248 0.927 0.391-0.292 0.281-1.023 0.851-0.787 0.323 0.131 0.594-0.435 0.305-0.679-0.667-0.561-1.39-0.371-1.877 0.35-0.389-0.777-1.083-1.058-1.816-0.584-0.315 0.203-0.12 0.801 0.217 0.71 0.645-0.172 0.355 0.675 0.845 0.965-1.4 5.362-8.47 5.723-7.314-2.217l-1.818 0.066-1.82-0.066c1.157 7.941-5.911 7.579-7.311 2.217 0.489-0.29 0.199-1.137 0.845-0.965 0.334 0.091 0.532-0.507 0.215-0.71-0.733-0.474-1.426-0.193-1.816 0.584-0.486-0.721-1.209-0.911-1.876-0.35-0.288 0.244-0.017 0.81 0.304 0.679 0.572-0.236 0.46 0.495 0.852 0.787-1.825 5.704-4.08 5.43-7.247-0.927-0.855 0.304-1.809 0.472-2.628 0.641 0.429 5.894-1.333 6.427-4.775 1.941 0.151-0.338-0.043-0.841 0.441-0.791 0.302 0.031 0.404-0.508 0.104-0.64-0.692-0.302-1.249 0.033-1.473 0.752-0.482-0.448-0.971-0.512-1.52-0.108-0.215 0.248 0.112 0.696 0.369 0.538 0.491-0.3 0.321 0.452 0.754 0.609-0.326 4.504-2.067 4.387-4.006-0.346l-1.012 0.168c-0.031 1.112 0.358 2.295 1.044 3.165 2.911 3.692 5.077 2.855 5.156-1.28 3.809 4.465 6.691 3.899 7.207-0.808 3.206 5.939 8.35 3.098 8.456-0.505 1.412 5.235 9.236 5.198 9.737-0.82 0.5 6.018 8.323 6.055 9.736 0.82 0.106 3.603 5.25 6.444 8.455 0.505 0.518 4.707 3.399 5.273 7.209 0.808 0.079 4.135 2.243 4.972 5.155 1.28 0.687-0.87 1.075-2.053 1.044-3.165h0.001z" stroke-width="0.666869997" stroke="#21231E" stroke-linejoin="round" id="path_7"/><path fill="#EDB92F" d="M140.198 59.98c-0.429-0.269-0.514-0.197-0.652-0.373-0.178-0.227-0.179-0.6-0.123-0.956 0.224-1.438-0.642-1.237-1.615-0.601-0.486 0.317-0.977 1.056-1.394 1.442-0.418 0.385-0.766 0.418-0.871 0.571-0.011 0.551-0.015 1.029-0.011 1.245v0.002c-0.004 0.215 0 0.692 0.011 1.244 0.105 0.152 0.453 0.185 0.871 0.572 0.417 0.385 0.908 1.124 1.394 1.441 0.973 0.636 1.839 0.837 1.615-0.602-0.056-0.356-0.055-0.727 0.123-0.955 0.138-0.176 0.223-0.104 0.652-0.373 0.278-0.174 0.487-0.383 0.627-0.611 0.139-0.227 0.063-0.472 0.063-0.718 0-0.245 0.076-0.489-0.063-0.717-0.14-0.226-0.349-0.437-0.627-0.611z" stroke-width="0.665494322" stroke="#21231E" id="path_8"/><path fill="#21231E" d="M135.5 61.53l0.037 0.241c1.029 0.128 1.877 0.54 2.62 1.186-0.489-0.727-1.543-1.267-2.657-1.427m0-0.441l0.037-0.242c1.029-0.129 1.877-0.541 2.62-1.187-0.489 0.727-1.543 1.269-2.657 1.429" stroke-width="1" id="path_9"/><path fill="#EDB92F" d="M139.436 57.995c-0.313 0.128-0.653 0.265-0.941 0.543-0.439 0.424-0.155 1.124 0.412 1.805 0.179 0.212 0.264 0.591 0.263 0.968 0 0.378-0.089 0.753-0.263 0.96-0.567 0.678-0.851 1.38-0.412 1.804 0.288 0.278 0.628 0.414 0.941 0.543 0.029-0.164 0.027-0.379-0.015-0.655-0.056-0.356-0.054-0.727 0.124-0.954 0.137-0.178 0.222-0.106 0.651-0.375 0.279-0.174 0.488-0.383 0.627-0.611 0.139-0.226 0.064-0.472 0.064-0.717 0-0.246 0.075-0.49-0.064-0.718-0.139-0.226-0.348-0.437-0.627-0.611-0.429-0.267-0.514-0.197-0.651-0.371-0.178-0.228-0.18-0.6-0.124-0.957 0.042-0.275 0.044-0.49 0.015-0.654z" stroke-width="0.666869997" stroke="#21231E" id="path_10"/><path fill="#EDB92F" d="M101.004 59.319c-0.521-1.129-0.101-2.703 0.069-3.059 0.085-0.18-0.168-0.578-0.28-0.733-3.541-4.978-3.601-5.419-1.161-7.285 2.203-1.682 7.177-3.318 10.737-4.42 0.74-0.561 1.212-1.325 1.885-1.956-6.838 0.49-14.25 3.247-17.99 6.469-1.974 1.704 0.428 5.144 3.371 10.377 1.819 1.303 2.672 1.91 3.368 0.607h0.001z" stroke-width="0.666867675" stroke="#21231E" id="path_11"/><path fill="#EDB92F" d="M99.928 59.713c-0.155-0.449-0.265-0.88-0.341-1.284-0.149-0.739-0.085-1.503 0.161-2.22-0.816-1.147-1.731-2.392-2.392-3.63-0.47-0.884-0.836-1.868-0.559-2.875 0.298-1.076 1.234-1.807 2.081-2.454 1.013-0.776 2.365-1.455 3.734-2.033 3.065-1.263 5.502-1.879 7.286-1.936l-1.133 1.045c-3.322 1.067-7.244 2.473-9.129 3.916-2.443 1.864-2.381 2.307 1.16 7.284 0.11 0.155 0.365 0.553 0.278 0.733-0.168 0.356-0.481 1.998 0.039 3.127-0.306 0.571-0.75 0.273-1.185 0.327z" stroke-width="0.666869997" stroke="#21231E" id="path_12"/><path fill="#EDB92F" d="M129.843 37.552c0.031-0.63-0.014-0.522-0.107 0.449-0.104-0.196-0.238-0.285-0.4-0.281-0.286 0.006-0.46 0.441-0.489 1.422l0.052 0.752c-9.07-0.201-14.447 1.166-15.834 3.79-1.141 2.16 0.799 5.736 3.727 9.818 0.354 0.495 0.342 0.452 0 0.86-0.495 0.588-1.027 1.586-0.627 2.46-1.775 0.971-3.885 1.209-5.728 0.406-0.306-0.808-0.969-1.191-1.504-1.556-0.111-0.074-0.505-0.267-0.544-0.393-0.969-3.09-1.939-5.949-2.773-8.609-2.616-8.356 20.643-9.122 24.227-9.118z" stroke-width="0.666869997" stroke="#21231E" id="path_13"/><path fill="#EDB92F" d="M131.419 72.131l-0.325 9.056c8.985 0.251 19.626 0.657 28.609 0.908l1.793-8.456c-21.597-1.363-31.55-1.795-30.076-1.509l-0.001 0.001z" stroke-width="0.666875552" stroke="#21231E" id="path_14"/><path fill="#EDB92F" d="M131.417 72.134l-0.002 0.048c-4.798 0.213-13.301 0.686-25.547 1.46l1.792 8.456c8.136-0.228 17.628-0.582 26.021-0.835 8.391 0.253 17.886 0.607 26.021 0.835l1.791-8.456c-12.247-0.774-20.747-1.247-25.547-1.46l-0.002-0.048c0.485-0.095-0.267-0.113-2.263-0.043-1.997-0.07-2.748-0.052-2.264 0.043z" stroke-width="0.666869997" stroke="#21231E" id="path_15"/><path fill="#EDB92F" d="M133.684 73.134l-0.99 0.002-0.329 0.002h-0.168l-0.306 0.001-0.183 0.002h-0.12l-0.209 0.002-0.329 0.004-0.29 0.002-0.062 0.002-0.241 0.002-0.72 0.01h-0.079l-0.046 0.002-0.306 0.003-0.095 0.002-0.129 0.002-0.316 0.006h-0.011l-0.329 0.006-0.104 0.002-0.221 0.006h-0.071l-0.256 0.005-0.326 0.008h-0.016l-0.311 0.008-0.132 0.002-0.009 0.002c-0.389 0.008-0.776 0.019-1.163 0.029l-0.156 0.004-0.443 0.013-0.05 0.002-0.391 0.014-0.257 0.007-0.184 0.006-0.052 0.002-0.391 0.012-0.023 0.002-0.323 0.011-0.015 0.002-0.31 0.012-0.209 0.008-0.437 0.017h-0.001c-0.577 0.023-1.151 0.048-1.723 0.073l-0.082 0.004c-0.845 0.041-1.684 0.083-2.521 0.13l-0.049 0.004-0.125 0.006c-1.679 0.096-3.348 0.205-5.007 0.33l-0.062 0.004-0.021 0.004c-2.431 0.182-4.839 0.398-7.223 0.644-1.357 0.128-1.617-1.472 0-1.621 2.384-0.247 4.792-0.462 7.223-0.645l0.021-0.002c3.336-0.252 6.71-0.445 10.123-0.575l0.281-0.011h0.044l0.093-0.004 0.323-0.012 0.025-0.002c1.394-0.048 2.796-0.089 4.206-0.116l0.221-0.004 0.011-0.002 0.375-0.005h0.047l0.011-0.002 0.316-0.004 0.129-0.004 0.197-0.002 0.25-0.004 0.079-0.002 0.116-0.002 0.868-0.011 0.275-0.002h0.054l0.329-0.002c0.319-0.004 0.638-0.006 0.959-0.008h0.027l0.329-0.002 0.99-0.002 0.988 0.002 0.331 0.002h0.027c0.319 0.002 0.64 0.004 0.959 0.008l0.329 0.002h0.054l0.275 0.002 0.868 0.011 0.116 0.002 0.079 0.002 0.248 0.004 0.199 0.002 0.129 0.004 0.316 0.004 0.011 0.002h0.049l0.373 0.005 0.011 0.002 0.221 0.004c1.408 0.027 2.812 0.068 4.208 0.116l0.021 0.002 0.325 0.012 0.093 0.004h0.042l0.283 0.011c3.413 0.13 6.787 0.323 10.123 0.575l0.019 0.002c2.431 0.183 4.839 0.398 7.223 0.645 1.619 0.149 1.357 1.749 0 1.621-2.384-0.246-4.792-0.462-7.223-0.644l-0.019-0.004-0.062-0.004c-1.659-0.125-3.328-0.234-5.007-0.33l-0.125-0.006-0.047-0.004c-0.839-0.047-1.68-0.089-2.523-0.13l-0.082-0.004c-0.574-0.025-1.148-0.05-1.723-0.073h-0.001l-0.437-0.017-0.211-0.008-0.31-0.012-0.013-0.002-0.325-0.011-0.021-0.002-0.393-0.012-0.05-0.002-0.184-0.006-0.257-0.007-0.393-0.014-0.048-0.002-0.443-0.013-0.158-0.004c-0.385-0.01-0.774-0.021-1.161-0.029l-0.009-0.002-0.132-0.002-0.311-0.008h-0.016l-0.326-0.008-0.256-0.005h-0.071l-0.221-0.006-0.106-0.002-0.327-0.006h-0.011l-0.316-0.006-0.129-0.002-0.095-0.002-0.306-0.003-0.046-0.002h-0.079l-0.72-0.01-0.241-0.002-0.062-0.002-0.29-0.002-0.329-0.004-0.209-0.002h-0.12l-0.183-0.002-0.306-0.001h-0.168l-0.331-0.002c-0.329-0.002-0.659-0.002-0.988-0.002z" stroke-width="0.666869997" stroke="#21231E" id="path_16"/><path fill="#FFFFFF" d="M112.518 53.337c0.965 0 1.748 0.781 1.748 1.746s-0.784 1.746-1.748 1.746c-0.963 0-1.747-0.781-1.747-1.746s0.784-1.746 1.747-1.746z" stroke-width="0.666793332" stroke="#21231E" id="path_17"/><path fill="#FFFFFF" d="M97.636 56.995c0.895 0 1.622 0.727 1.622 1.622 0 0.896-0.727 1.623-1.622 1.623-0.896 0-1.623-0.727-1.623-1.623 0-0.895 0.727-1.622 1.623-1.622zm-1.55-2.965c0.896 0 1.623 0.725 1.623 1.622 0 0.895-0.727 1.623-1.623 1.623-0.895 0-1.622-0.728-1.622-1.623 0-0.897 0.727-1.622 1.622-1.622zm-1.46-2.995c0.895 0 1.622 0.727 1.622 1.622 0 0.897-0.727 1.623-1.622 1.623-0.895 0-1.623-0.726-1.623-1.623 0-0.895 0.728-1.622 1.623-1.622z" stroke-width="0.666969995" stroke="#21231E" id="path_18"/><path fill="#EDB92F" d="M133.685 59.188c1.17 0 2.122 0.95 2.122 2.12 0 1.171-0.952 2.123-2.122 2.123-1.171 0-2.121-0.952-2.121-2.123 0-1.17 0.95-2.12 2.121-2.12z" stroke-width="0.667163328" stroke="#21231E" id="path_19"/><path fill="#EDB92F" d="M123.295 56.602c0.938-0.064 0.706 1.605 0.52 1.976-0.241 0.486-0.466 0.501-0.769 0.053-0.234-0.345-0.687-1.965 0.249-2.029z" stroke-width="0.668158311" stroke="#21231E" id="path_20"/><path fill="#FFFFFF" d="M123.353 57.503c2.202-0.149 1.657 3.771 1.222 4.643-0.567 1.141-1.095 1.176-1.81 0.124-0.549-0.809-1.617-4.618 0.588-4.767z" stroke-width="0.666865527" stroke="#21231E" id="path_21"/><path fill="#EDB92F" d="M105.59 58.958c0.896-0.284 1.068 1.39 0.977 1.795-0.12 0.53-0.334 0.597-0.737 0.236-0.307-0.279-1.135-1.746-0.24-2.031z" stroke-width="0.668157264" stroke="#21231E" id="path_22"/><path fill="#FFFFFF" d="M105.864 59.82c2.106-0.671 2.51 3.265 2.295 4.218-0.28 1.241-0.783 1.402-1.731 0.549-0.725-0.652-2.668-4.098-0.564-4.767z" stroke-width="0.666869813" stroke="#21231E" id="path_23"/><path fill="#EDB92F" d="M128.759 39.07c-4.727-0.427-9.561 0.054-14.347 1.953-4.034 1.602-3.639 6.278 1.28 12.769-0.445 0.822-0.698 1.843-0.739 3.025 0.521-0.029 0.886-0.016 1.344-0.027-0.355-0.785 0.043-1.749 0.493-2.427 0.296-0.445 0.354-0.366 0-0.861-2.927-4.082-4.867-7.658-3.726-9.818 1.387-2.624 6.764-3.991 15.834-3.79l-0.049-0.725-0.09-0.099z" stroke-width="0.666869997" stroke="#21231E" stroke-linejoin="round" id="path_24"/><path fill="#FFFFFF" d="M105.819 40.4c0.932 0 1.686 0.755 1.686 1.685s-0.754 1.684-1.686 1.684c-0.929 0-1.683-0.754-1.683-1.684 0-0.93 0.754-1.685 1.683-1.685zm3.306-1.078c0.931 0 1.685 0.754 1.685 1.684 0 0.932-0.754 1.684-1.685 1.684-0.93 0-1.684-0.752-1.684-1.684 0-0.93 0.754-1.684 1.684-1.684z" stroke-width="0.666869997" stroke="#21231E" id="path_25"/><path fill="#EDB92F" d="M109.561 40.758c0.166 0.223 0.335 0.445 0.503 0.67-2.661 1.46-3.763 2.999-3.502 4.546 0.044 0.267 0.853 3.1 2.661 8.591 1.235 0.853 2.156 1.619 2.761 2.292-0.068 0.075 0.195 0.315 0.118 0.381 0.184 0.839-0.762 0.669-1.396 0.46-0.306-0.804-1.24-1.661-1.775-2.026-0.111-0.074-0.505-0.267-0.544-0.393-0.969-3.09-1.939-5.949-2.773-8.609-0.837-2.675 0.977-4.568 3.947-5.912z" stroke-width="0.666869997" stroke="#21231E" id="path_26"/><path fill="#EDB92F" d="M99.06 60.607l-0.1 0.539c-0.776 0.18-1.439 0.225-1.988 0.136 0.92-0.899 1.605-1.089 2.088-0.675z" stroke-width="0.666867273" stroke="#21231E" stroke-linejoin="round" id="path_27"/><path fill="#EDB92F" d="M98.976 59.376c0.486 0.109 0.532 0.19 0.743 0.226 0.272 0.047 0.648 0.028 0.905-0.199 1.054-0.63 1.077 0.507 0.667 1.358-0.296 0.617-0.143 1.315 0.137 1.843 0.335 0.624 0.265 0.909 0.029 1.077-0.164 0.108-0.321 0.209-0.462 0.298-0.282 0.334-0.499 0.276-0.537-0.161-1.052-0.433-1.401-1.441-1.714-2.328-0.462-1.298-2.133-1.605 0.232-2.114z" stroke-width="0.667386535" stroke="#21231E" id="path_28"/><path fill="#EDB92F" d="M99.388 59.421c0.917 0.325 1.019-0.182 1.636-0.157-0.244 1.4-0.489 2.125-1.951 1.375-0.805-0.416-1.837 0.191-2.034 0.642-0.07 0.164-0.54-0.178-0.712-0.553-0.718-1.568 1.835-1.744 3.061-1.307z" stroke-width="0.666403297" stroke="#21231E" id="path_29"/><path fill="#FFFFFF" d="M127.29 35.452c0.926 0 1.676 0.75 1.676 1.678 0 0.927-0.75 1.675-1.676 1.675-0.927 0-1.677-0.748-1.677-1.675 0-0.928 0.75-1.678 1.677-1.678zm-3.436 0c0.926 0 1.677 0.75 1.677 1.678 0 0.927-0.751 1.675-1.677 1.675s-1.679-0.748-1.679-1.675c0-0.928 0.753-1.678 1.679-1.678zm-3.436 0.271c0.927 0 1.677 0.748 1.677 1.676 0 0.927-0.75 1.677-1.677 1.677-0.926 0-1.676-0.75-1.676-1.677 0-0.928 0.75-1.676 1.676-1.676z" stroke-width="0.66704333" stroke="#21231E" id="path_30"/><path fill="#FFFFFF" d="M117.25 36.328c0.926 0 1.679 0.752 1.679 1.679 0 0.926-0.753 1.676-1.679 1.676s-1.676-0.75-1.676-1.676c0-0.927 0.75-1.679 1.676-1.679z" stroke-width="0.66704333" stroke="#21231E" id="path_31"/><path fill="#FFFFFF" d="M96.413 44.968c0.93 0 1.684 0.754 1.684 1.685 0 0.93-0.754 1.684-1.684 1.684-0.93 0-1.684-0.754-1.684-1.684 0-0.931 0.754-1.685 1.684-1.685z" stroke-width="0.666869997" stroke="#21231E" id="path_32"/><path fill="#FFFFFF" d="M99.299 43.149c0.932 0 1.684 0.754 1.684 1.684 0 0.93-0.752 1.684-1.684 1.684-0.93 0-1.684-0.754-1.684-1.684 0-0.93 0.754-1.684 1.684-1.684zm3.282-1.54c0.93 0 1.684 0.755 1.684 1.683 0 0.932-0.754 1.686-1.684 1.686-0.93 0-1.684-0.754-1.684-1.686 0-0.928 0.754-1.683 1.684-1.683zm-8.401 6.097c0.931 0 1.685 0.755 1.685 1.685s-0.755 1.684-1.685 1.684-1.684-0.754-1.684-1.684c0-0.93 0.754-1.685 1.684-1.685z" stroke-width="0.666869997" stroke="#21231E" id="path_33"/><path fill="#EDB92F" d="M127.442 76.757l6.238-3.121 6.24 3.121-6.24 3.119z" stroke-width="0.666819998" stroke="#21231E" id="path_34"/><path fill="#0D4077" d="M133.683 74.846c1.551 0 2.806 0.839 2.806 1.872 0 1.034-1.255 1.871-2.806 1.871-1.551 0-2.808-0.837-2.808-1.871 0-1.033 1.257-1.872 2.808-1.872z" stroke-width="0.665321337" stroke="#21231E" id="path_35"/><path fill="#EDB92F" d="M113.574 77.543l6.037-3.492 6.418 2.732-6.037 3.492z" stroke-width="0.666823058" stroke="#21231E" id="path_36"/><path fill="#C7363D" d="M119.683 75.254c1.549-0.097 2.854 0.664 2.915 1.696 0.064 1.031-1.139 1.945-2.688 2.038-1.547 0.096-2.852-0.664-2.916-1.697-0.062-1.031 1.141-1.945 2.689-2.037z" stroke-width="0.665323687" stroke="#21231E" id="path_37"/><path fill="#EDB92F" d="M106.314 75.035l6.522 2.469-5.385 3.603c-1.396-0.464-2.503-5.208-1.137-6.073v0.001z" stroke-width="0.666869997" stroke="#21231E" id="path_38"/><path fill="#0D4077" d="M106.437 76.238c1.544-0.159 2.88 0.547 2.984 1.576 0.105 1.028-1.061 1.99-2.605 2.146-1.001 0.103-1.624-0.773-1.732-1.705-0.11-0.929 0.298-1.911 1.353-2.017z" stroke-width="0.666869997" stroke="#21231E" id="path_39"/><path fill="#FFFFFF" d="M126.912 77.911c0.483 0 0.876 0.392 0.876 0.878 0 0.483-0.393 0.874-0.876 0.874s-0.876-0.391-0.876-0.874c0-0.486 0.393-0.878 0.876-0.878zm-13.376 0.742c0.484 0 0.876 0.391 0.876 0.876 0 0.484-0.392 0.875-0.876 0.875-0.483 0-0.876-0.391-0.876-0.875 0-0.485 0.393-0.876 0.876-0.876zm-0.47-4.044c0.483 0 0.876 0.392 0.876 0.876 0 0.483-0.393 0.876-0.876 0.876-0.484 0-0.876-0.393-0.876-0.876 0-0.484 0.392-0.876 0.876-0.876zm13.811-0.569c0.484 0 0.876 0.392 0.876 0.876 0 0.483-0.392 0.876-0.876 0.876-0.483 0-0.876-0.393-0.876-0.876 0-0.484 0.393-0.876 0.876-0.876z" stroke-width="0.666869997" stroke="#21231E" id="path_40"/><path fill="#EDB92F" d="M103.176 66.193c0.661-0.201 1.7 1.265 1.945 1.24 0.325-0.84-0.338-2.843-1.518-4.429-0.8-0.261-0.872-0.775-1.038-1.968-0.049-0.356-0.735-0.111-0.747 0.497-0.013 0.649-0.063 1.011 0.082 1.566 0.056 0.22 0.025 0.429-0.219 0.628 1.247 0.496 1.553 1.101 1.495 2.466z" stroke-width="0.667506528" stroke="#21231E" id="path_41"/><path fill="#EDB92F" d="M102.582 61.054c-0.114 0.277-0.149 0.501-0.176 0.919-0.021 0.317 0.097 0.615 0.3 0.878 0.205 0.265 0.497 0.499 0.824 0.688 0.205 0.118 0.439 0.443 0.622 0.813 0.184 0.367 0.317 0.781 0.327 1.077 0.025 0.974 0.217 1.825 0.663 1.993 0.29 0.111 0.408 0.093 0.635 0.041-0.064-0.176-0.041-0.422-0.198-0.667-0.203-0.315-0.38-0.677-0.396-0.992-0.013-0.248-0.13-0.412-0.035-0.896 0.062-0.315 0.267-0.433 0.23-0.723-0.069-0.563-0.514-1.64-1.164-1.64-0.642-0.002-0.943-0.069-1.276-0.918-0.112-0.288-0.259-0.428-0.356-0.573z" stroke-width="0.667506528" stroke="#21231E" stroke-linejoin="round" id="path_42"/><path fill="#EDB92F" d="M100.159 63.389c0.174-0.135 0.387-0.234 0.586-0.309 0.336-0.132 0.696-0.153 1.044-0.049 1.539 0.464 2.215 3.179 0.527 3.831-0.331 0.041-0.638-0.257-0.936-0.914-0.353-0.867-0.726-1.468-1.128-1.835-0.244-0.31-0.254-0.569-0.093-0.724z" stroke-width="0.669845911" stroke="#21231E" id="path_43"/><path fill="#EDB92F" d="M100.934 63.569c1.479-0.572 2.569 2.241 1.188 2.775-0.743 0.288-0.814-0.634-0.958-1.146-0.195-0.691-1.649-1.077-0.23-1.629z" stroke-width="0.669414671" stroke="#21231E" id="path_44"/><path fill="#0D4077" d="M101.092 63.986c0.721-0.278 1.711 1.398 0.808 1.779-0.609 0.257-1.09-0.081-1.286-0.586-0.197-0.506-0.029-0.998 0.478-1.193z" stroke-width="0.66686907" stroke="#21231E" id="path_45"/><path fill="#EDB92F" d="M153.79 77.544l-6.037-3.494-6.416 2.732 6.035 3.494z" stroke-width="0.666823058" stroke="#21231E" id="path_46"/><path fill="#C7363D" d="M147.679 75.254c-1.547-0.094-2.852 0.666-2.916 1.697-0.063 1.033 1.14 1.945 2.689 2.039 1.547 0.095 2.852-0.666 2.916-1.698 0.063-1.031-1.142-1.944-2.689-2.038z" stroke-width="0.665323687" stroke="#21231E" id="path_47"/><path fill="#EDB92F" d="M161.05 75.035l-6.523 2.469 5.386 3.603c1.396-0.464 2.502-5.208 1.137-6.073v0.001z" stroke-width="0.666869997" stroke="#21231E" id="path_48"/><path fill="#0D4077" d="M160.926 76.238c-1.541-0.159-2.878 0.547-2.982 1.576-0.104 1.028 1.062 1.99 2.603 2.146 1.004 0.103 1.626-0.773 1.734-1.705 0.109-0.929-0.297-1.911-1.355-2.017z" stroke-width="0.666869997" stroke="#21231E" id="path_49"/><path fill="#FFFFFF" d="M140.456 77.911c-0.483 0-0.878 0.392-0.878 0.878 0 0.483 0.395 0.874 0.878 0.874 0.484 0 0.876-0.391 0.876-0.874 0-0.486-0.392-0.878-0.876-0.878zm13.371 0.742c-0.485 0-0.876 0.391-0.876 0.876 0 0.484 0.391 0.875 0.876 0.875 0.484 0 0.874-0.391 0.874-0.875 0-0.485-0.39-0.876-0.874-0.876zm0.475-4.044c-0.483 0-0.876 0.392-0.876 0.876 0 0.483 0.393 0.876 0.876 0.876 0.484 0 0.876-0.393 0.876-0.876 0-0.484-0.392-0.876-0.876-0.876zm-13.816-0.569c-0.484 0-0.876 0.392-0.876 0.876 0 0.483 0.392 0.876 0.876 0.876 0.483 0 0.876-0.393 0.876-0.876 0-0.484-0.393-0.876-0.876-0.876z" stroke-width="0.666869997" stroke="#21231E" id="path_50"/><path fill="#FFFFFF" d="M111.171 50.475c0.963 0 1.746 0.783 1.746 1.748 0 0.963-0.783 1.747-1.746 1.747-0.965 0-1.748-0.784-1.748-1.747 0-0.965 0.783-1.748 1.748-1.748z" stroke-width="0.666793332" stroke="#21231E" id="path_51"/><path fill="#FFFFFF" d="M109.894 47.573c0.965 0 1.746 0.783 1.746 1.748s-0.781 1.747-1.746 1.747-1.746-0.782-1.746-1.747c0-0.965 0.781-1.748 1.746-1.748z" stroke-width="0.666793332" stroke="#21231E" id="path_52"/><path fill="#FFFFFF" d="M114.076 37.351c0.932 0 1.686 0.754 1.686 1.684 0 0.93-0.754 1.685-1.686 1.685-0.928 0-1.683-0.755-1.683-1.685s0.755-1.684 1.683-1.684z" stroke-width="0.666869997" stroke="#21231E" id="path_53"/><path fill="#FFFFFF" d="M111.245 38.637c0.965 0 1.748 0.781 1.748 1.746s-0.783 1.747-1.748 1.747-1.746-0.782-1.746-1.747c0-0.965 0.781-1.746 1.746-1.746z" stroke-width="0.666793332" stroke="#21231E" id="path_54"/><path fill="#FFFFFF" d="M109.161 41.104c0.963 0 1.746 0.784 1.746 1.749 0 0.965-0.783 1.746-1.746 1.746-0.965 0-1.748-0.781-1.748-1.746s0.783-1.749 1.748-1.749z" stroke-width="0.666793332" stroke="#21231E" id="path_55"/><path fill="#FFFFFF" d="M108.825 44.214c0.965 0 1.746 0.783 1.746 1.746 0 0.965-0.782 1.748-1.746 1.748-0.967 0-1.749-0.783-1.749-1.748 0-0.963 0.782-1.746 1.749-1.746z" stroke-width="0.666793332" stroke="#21231E" id="path_56"/><path fill="#EDB92F" d="M134.536 24.669c0.46-0.011 0.829-0.388 0.829-0.853 0-0.464-0.369-0.841-0.831-0.852-0.002-0.47-0.383-0.849-0.853-0.849s-0.851 0.381-0.853 0.849c-0.462 0.011-0.833 0.388-0.833 0.852 0 0.465 0.371 0.842 0.831 0.853v1.75h-1.506c-0.004-0.468-0.383-0.847-0.853-0.847-0.466 0-0.843 0.37-0.853 0.832-0.47 0.002-0.851 0.383-0.851 0.853s0.381 0.851 0.851 0.853c0.01 0.46 0.387 0.833 0.853 0.833 0.456 0 0.829-0.362 0.853-0.814h1.506v5.821h1.71v-5.821h1.506c0.023 0.452 0.396 0.814 0.853 0.814 0.464 0 0.841-0.373 0.853-0.833 0.469-0.002 0.849-0.383 0.849-0.853s-0.379-0.851-0.849-0.853c-0.012-0.462-0.389-0.832-0.853-0.832-0.47 0-0.851 0.379-0.853 0.847h-1.506v-1.75z" stroke-width="0.666869997" stroke="#21231E" id="path_57"/><path fill="#0D4077" d="M133.685 30.163c2.601 0 4.709 2.11 4.709 4.713 0 2.601-2.108 4.709-4.709 4.709-2.6 0-4.71-2.108-4.71-4.709 0-2.603 2.109-4.713 4.71-4.713z" stroke-width="0.66701333" stroke="#21231E" id="path_58"/><path fill="#EDB92F" d="M133.684 30.163c0.292 0 0.576 0.027 0.855 0.078v3.709h-1.71v-3.709c0.279-0.051 0.563-0.078 0.855-0.078z" stroke-width="0.667139993" stroke="#21231E" id="path_59"/><path fill="#EDB92F" d="M138.293 33.919c0.064 0.307 0.097 0.628 0.097 0.955 0 0.226-0.016 0.449-0.047 0.667-1.549-0.052-3.1-0.089-4.662-0.089-1.563 0-3.114 0.037-4.663 0.089-0.03-0.218-0.048-0.441-0.048-0.667 0-0.327 0.035-0.648 0.097-0.955 1.533-0.054 3.069-0.089 4.614-0.089s3.08 0.035 4.612 0.089z" stroke-width="0.666869997" stroke="#21231E" id="path_60"/><path fill="#EDB92F" d="M130.026 37.817c-0.998-0.613-1.172 0.339-1.147 1.296 0.095 3.603 0.787 7.031-0.184 11.444-0.388 1.766-1.015 2.76-0.406 3.1 1.557 0.866 2.271 1.661 2.023 2.088 0.46 0.876 1.607 0.706 3.369 0.426 1.761 0.28 2.908 0.45 3.368-0.426-0.247-0.427 0.466-1.222 2.021-2.088 0.611-0.34-0.015-1.334-0.404-3.1-0.971-4.413-0.279-7.842-0.184-11.444 0.023-0.957-0.149-1.909-1.147-1.296-1.962 1.211-5.323 1.224-7.309 0z" stroke-width="0.666869997" stroke="#21231E" stroke-linejoin="round" id="path_61"/><path fill="#FFFFFF" d="M133.685 51.381c1.033 0 1.872 0.838 1.872 1.872 0 1.035-0.839 1.872-1.872 1.872-1.032 0-1.871-0.837-1.871-1.872 0-1.034 0.839-1.872 1.871-1.872z" stroke-width="0.666873331" stroke="#21231E" id="path_62"/><path fill="#FFFFFF" d="M133.685 48.136c1.033 0 1.872 0.839 1.872 1.872 0 1.034-0.839 1.871-1.872 1.871-1.032 0-1.871-0.837-1.871-1.871 0-1.033 0.839-1.872 1.871-1.872z" stroke-width="0.666873331" stroke="#21231E" id="path_63"/><path fill="#FFFFFF" d="M133.685 45.019c1.033 0 1.872 0.837 1.872 1.872 0 1.032-0.839 1.87-1.872 1.87-1.032 0-1.871-0.838-1.871-1.87 0-1.035 0.839-1.872 1.871-1.872zm0-8.859c1.033 0 1.872 0.837 1.872 1.87 0 1.034-0.839 1.872-1.872 1.872-1.032 0-1.871-0.838-1.871-1.872 0-1.033 0.839-1.87 1.871-1.87z" stroke-width="0.666873331" stroke="#21231E" id="path_64"/><path fill="#FFFFFF" d="M133.685 38.904c1.033 0 1.872 0.837 1.872 1.872 0 1.032-0.839 1.872-1.872 1.872-1.032 0-1.871-0.84-1.871-1.872 0-1.035 0.839-1.872 1.871-1.872z" stroke-width="0.666873331" stroke="#21231E" id="path_65"/><path fill="#FFFFFF" d="M133.685 41.9c1.033 0 1.872 0.837 1.872 1.871 0 1.033-0.839 1.87-1.872 1.87-1.032 0-1.871-0.837-1.871-1.87 0-1.034 0.839-1.871 1.871-1.871z" stroke-width="0.666873331" stroke="#21231E" id="path_66"/><path fill="#EDB92F" d="M131.561 55.479c-0.741-1.371-1.528-2.247-2.359-2.628 1.147-3.584 1.415-8.209 0.742-13.914-0.067-0.853-0.28-1.22-0.607-1.214-0.286 0.005-0.46 0.44-0.489 1.421 0.209 3.14 0.464 5.884 0.321 8.214-0.128 2.081-0.619 3.812-1.162 5.761-0.076 0.271 0.118 0.484 1.062 1.011 0.696 0.393 1.133 0.876 1.28 1.381 0.201-0.079 0.33-0.056 0.404-0.035 0.698 0.201 0.994 0.147 0.808 0.002v0.001zm4.245-0.001c0.74-1.369 1.528-2.247 2.359-2.628-1.147-3.583-1.415-8.208-0.743-13.913 0.068-0.853 0.281-1.22 0.608-1.215 0.288 0.006 0.46 0.441 0.489 1.424-0.209 3.138-0.464 5.882-0.321 8.212 0.127 2.081 0.621 3.812 1.162 5.761 0.075 0.271-0.118 0.483-1.062 1.011-0.696 0.393-1.133 0.876-1.28 1.381-0.201-0.079-0.331-0.056-0.404-0.035-0.698 0.201-0.994 0.147-0.808 0.002z" stroke-width="0.666870452" stroke="#21231E" stroke-linejoin="round" id="path_67"/><path fill="#EDB92F" d="M135.012 54.792c0.269 0.429 0.197 0.514 0.373 0.652 0.226 0.178 0.6 0.18 0.955 0.124 1.439-0.225 1.238 0.642 0.604 1.614-0.319 0.488-1.058 0.977-1.445 1.394-0.385 0.418-0.418 0.766-0.57 0.871-0.553 0.013-1.029 0.015-1.246 0.011-0.216 0.004-0.692 0.002-1.245-0.011-0.153-0.105-0.186-0.453-0.571-0.871-0.384-0.417-1.125-0.906-1.442-1.394-0.638-0.972-0.837-1.839 0.601-1.614 0.358 0.056 0.729 0.054 0.956-0.124 0.176-0.138 0.104-0.223 0.373-0.652 0.174-0.278 0.383-0.487 0.611-0.626 0.228-0.14 0.472-0.064 0.717-0.064 0.244 0 0.49-0.076 0.718 0.064 0.228 0.139 0.437 0.348 0.611 0.626z" stroke-width="0.665497641" stroke="#21231E" id="path_68"/><path fill="#21231E" d="M133.465 59.49l-0.241-0.035c-0.13-1.028-0.542-1.879-1.188-2.622 0.727 0.491 1.267 1.545 1.429 2.657m0.436 0l0.244-0.035c0.127-1.028 0.539-1.879 1.185-2.622-0.725 0.491-1.267 1.545-1.429 2.657" stroke-width="1" id="path_69"/><path fill="#EDB92F" d="M136.991 55.55c-0.128 0.313-0.265 0.655-0.543 0.943-0.424 0.437-1.124 0.153-1.803-0.414-0.214-0.178-0.593-0.265-0.971-0.263-0.377 0.002-0.752 0.091-0.959 0.263-0.678 0.567-1.38 0.851-1.804 0.414-0.278-0.288-0.414-0.63-0.541-0.943 0.164-0.029 0.377-0.028 0.653 0.015 0.356 0.056 0.729 0.054 0.956-0.124 0.175-0.137 0.104-0.222 0.373-0.65 0.174-0.278 0.383-0.489 0.611-0.628 0.228-0.139 0.472-0.064 0.717-0.064 0.246 0 0.49-0.075 0.718 0.064 0.228 0.139 0.437 0.35 0.611 0.628 0.267 0.428 0.197 0.513 0.373 0.65 0.226 0.178 0.598 0.18 0.955 0.124 0.277-0.043 0.49-0.044 0.654-0.015z" stroke-width="0.666869997" stroke="#21231E" id="path_70"/><path fill="#EDB92F" d="M127.168 59.98c0.43-0.269 0.515-0.197 0.652-0.373 0.178-0.227 0.18-0.6 0.124-0.956-0.225-1.438 0.64-1.237 1.613-0.601 0.487 0.317 0.976 1.056 1.396 1.442 0.417 0.385 0.764 0.418 0.868 0.571 0.014 0.551 0.015 1.029 0.014 1.245v0.002c0.001 0.215 0 0.692-0.014 1.244-0.104 0.152-0.451 0.185-0.868 0.572-0.42 0.385-0.909 1.124-1.396 1.441-0.973 0.636-1.838 0.837-1.613-0.602 0.056-0.356 0.054-0.727-0.124-0.955-0.137-0.176-0.222-0.104-0.652-0.373-0.278-0.174-0.489-0.383-0.626-0.611-0.141-0.227-0.064-0.472-0.064-0.718 0-0.245-0.077-0.489 0.064-0.717 0.137-0.226 0.348-0.437 0.626-0.611z" stroke-width="0.665494322" stroke="#21231E" id="path_71"/><path fill="#21231E" d="M131.866 61.53l-0.036 0.241c-1.029 0.128-1.88 0.54-2.621 1.186 0.49-0.727 1.543-1.267 2.657-1.427m0-0.441l-0.036-0.242c-1.029-0.129-1.88-0.541-2.621-1.187 0.49 0.727 1.543 1.269 2.657 1.429" stroke-width="1" id="path_72"/><path fill="#EDB92F" d="M127.927 57.995c0.313 0.128 0.655 0.265 0.944 0.543 0.439 0.424 0.154 1.124-0.412 1.805-0.18 0.212-0.267 0.591-0.263 0.968 0 0.378 0.089 0.753 0.263 0.96 0.566 0.678 0.851 1.38 0.412 1.804-0.289 0.278-0.631 0.414-0.944 0.543-0.029-0.164-0.025-0.379 0.017-0.655 0.056-0.356 0.054-0.727-0.124-0.954-0.137-0.178-0.222-0.106-0.651-0.375-0.279-0.174-0.487-0.383-0.627-0.611-0.141-0.226-0.064-0.472-0.064-0.717 0-0.246-0.077-0.49 0.064-0.718 0.14-0.226 0.348-0.437 0.627-0.611 0.429-0.267 0.514-0.197 0.651-0.371 0.178-0.228 0.18-0.6 0.124-0.957-0.042-0.275-0.046-0.49-0.017-0.654z" stroke-width="0.666869997" stroke="#21231E" id="path_73"/><path fill="#EDB92F" d="M140.198 62.637c-0.429 0.269-0.514 0.197-0.652 0.373-0.178 0.228-0.179 0.599-0.123 0.955 0.224 1.439-0.642 1.238-1.615 0.602-0.486-0.317-0.977-1.056-1.394-1.443-0.418-0.385-0.766-0.418-0.871-0.57-0.011-0.552-0.015-1.029-0.011-1.246v-0.002c-0.004-0.214 0-0.692 0.011-1.243 0.105-0.153 0.453-0.186 0.871-0.571 0.417-0.386 0.908-1.125 1.394-1.442 0.973-0.636 1.839-0.838 1.615 0.601-0.056 0.356-0.055 0.729 0.123 0.956 0.138 0.176 0.223 0.104 0.652 0.373 0.278 0.174 0.487 0.383 0.627 0.611 0.139 0.226 0.063 0.472 0.063 0.717 0 0.246 0.076 0.491-0.063 0.718-0.14 0.228-0.349 0.437-0.627 0.611z" stroke-width="0.665494322" stroke="#21231E" id="path_74"/><path fill="#21231E" d="M135.5 61.089l0.037-0.242c1.029-0.129 1.877-0.541 2.62-1.187-0.489 0.727-1.543 1.269-2.657 1.429m0 0.441l0.037 0.241c1.029 0.128 1.877 0.54 2.62 1.186-0.489-0.727-1.543-1.267-2.657-1.427" stroke-width="1" id="path_75"/><path fill="#EDB92F" d="M139.436 64.619c-0.313-0.128-0.653-0.265-0.941-0.544-0.439-0.423-0.155-1.125 0.412-1.804 0.179-0.213 0.264-0.592 0.263-0.969 0-0.377-0.089-0.752-0.263-0.959-0.567-0.68-0.851-1.381-0.412-1.804 0.288-0.278 0.628-0.416 0.941-0.543 0.029 0.164 0.027 0.379-0.015 0.653-0.056 0.358-0.054 0.729 0.124 0.957 0.137 0.174 0.222 0.105 0.651 0.372 0.279 0.174 0.488 0.385 0.627 0.611 0.139 0.228 0.064 0.472 0.064 0.717 0 0.246 0.075 0.491-0.064 0.718-0.139 0.228-0.348 0.437-0.627 0.611-0.429 0.269-0.514 0.197-0.651 0.375-0.178 0.226-0.18 0.597-0.124 0.953 0.042 0.277 0.044 0.491 0.015 0.656z" stroke-width="0.666869997" stroke="#21231E" id="path_76"/><path fill="#EDB92F" d="M133.685 59.188c1.17 0 2.122 0.95 2.122 2.12 0 1.171-0.952 2.123-2.122 2.123-1.171 0-2.121-0.952-2.121-2.123 0-1.17 0.95-2.12 2.121-2.12z" stroke-width="0.667163328" stroke="#21231E" id="path_77"/><path fill="#EDB92F" d="M133.68 59.748c0.861 0 1.559 0.698 1.559 1.56 0 0.861-0.698 1.559-1.559 1.559-0.86 0-1.558-0.698-1.558-1.559 0-0.862 0.698-1.56 1.558-1.56z" stroke-width="0.666803332" stroke="#21231E" id="path_78"/><path fill="#0D4077" d="M133.685 60.327c0.542 0 0.983 0.439 0.983 0.98 0 0.544-0.441 0.983-0.983 0.983-0.543 0-0.982-0.439-0.982-0.983 0-0.541 0.439-0.98 0.982-0.98z" stroke-width="0.666923331" stroke="#21231E" id="path_79"/><path fill="#21231E" d="M100.446 63.163l0.185-0.079c-0.421-0.586-0.512-1.145-0.352-1.706-0.359 0.445-0.272 1.145 0.167 1.785" stroke-width="1" id="path_80"/><path fill="#EDB92F" d="M114.091 55.99c0.365 0.458 0.321 0.569 0.518 0.7 0.259 0.17 0.609 0.112 0.934-0.011 1.332-0.507 1.334 0.545 0.946 1.75-0.188 0.584-0.757 1.218-1.01 1.715-0.249 0.485-0.195 0.851-0.307 0.975-0.484 0.079-0.898 0.137-1.087 0.16h-0.002c-0.186 0.029-0.598 0.081-1.073 0.132-0.155-0.087-0.275-0.434-0.714-0.815-0.445-0.379-1.208-0.792-1.62-1.258-0.836-0.948-1.281-1.855 0.033-1.824 0.328 0.008 0.655-0.05 0.8-0.284 0.116-0.182 0.029-0.265 0.141-0.797 0.074-0.35 0.203-0.629 0.37-0.83 0.168-0.203 0.413-0.158 0.64-0.201 0.228-0.042 0.435-0.176 0.688-0.048 0.252 0.126 0.507 0.336 0.743 0.636z" stroke-width="0.666869997" stroke="#21231E" id="path_81"/><path fill="#21231E" d="M113.901 61.307c-0.072-0.002-0.143-0.006-0.217-0.01-0.375-1.044-0.961-1.887-1.73-2.597 0.773 0.429 1.525 1.476 1.947 2.607m0.381-0.055l0.203-0.063c-0.137-1.087 0.02-2.052 0.422-2.965-0.538 0.648-0.758 1.855-0.625 3.028" stroke-width="1" id="path_82"/><path fill="#EDB92F" d="M116.165 56.549c-0.049 0.387-0.099 0.805-0.294 1.176-0.292 0.559-1.01 0.344-1.779-0.189-0.242-0.168-0.611-0.207-0.953-0.147-0.341 0.06-0.654 0.214-0.791 0.439-0.437 0.719-0.963 1.121-1.457 0.711-0.326-0.272-0.547-0.622-0.754-0.947 0.134-0.056 0.319-0.085 0.573-0.079 0.328 0.007 0.655-0.051 0.8-0.285 0.116-0.182 0.029-0.263 0.141-0.796 0.076-0.351 0.203-0.627 0.37-0.83 0.168-0.203 0.414-0.157 0.64-0.199 0.228-0.043 0.435-0.178 0.688-0.052 0.252 0.127 0.507 0.338 0.743 0.638 0.365 0.458 0.319 0.568 0.518 0.702 0.259 0.168 0.609 0.108 0.934-0.014 0.252-0.095 0.456-0.135 0.621-0.128z" stroke-width="0.666869997" stroke="#21231E" id="path_83"/><path fill="#EDB92F" d="M108.886 61.782c0.213-0.256 0.298-0.2 0.337-0.36 0.048-0.209-0.076-0.536-0.234-0.845-0.64-1.246 0.04-1.139 0.963-0.65 0.234 0.124 0.506 0.346 0.775 0.574 0.271 0.229 0.542 0.468 0.766 0.631 0.458 0.327 0.741 0.336 0.874 0.468 0.203 0.504 0.369 0.943 0.441 1.139v0.002c0.079 0.197 0.244 0.634 0.423 1.137-0.029 0.141-0.292 0.18-0.487 0.541-0.195 0.352-0.346 0.994-0.582 1.304-0.346 0.454-0.665 0.725-0.911 0.68-0.247-0.044-0.421-0.402-0.489-1.193-0.025-0.307-0.201-0.634-0.404-0.826-0.161-0.15-0.196-0.087-0.59-0.305-0.253-0.143-0.47-0.319-0.644-0.511-0.172-0.187-0.197-0.4-0.278-0.611-0.08-0.211-0.213-0.417-0.192-0.617 0.019-0.203 0.095-0.394 0.232-0.558z" stroke-width="0.674086445" stroke="#21231E" id="path_84"/><path fill="#21231E" d="M112.931 63.129c0.019 0.089 0.042 0.174 0.062 0.257-0.397 0.093-0.726 0.255-0.998 0.478-0.275 0.222-0.493 0.508-0.665 0.852 0.059-0.381 0.251-0.721 0.529-0.994 0.279-0.272 0.65-0.479 1.072-0.593m-0.159-0.456c-0.038-0.085-0.079-0.168-0.12-0.253-0.441-0.037-0.868-0.149-1.284-0.329-0.414-0.178-0.82-0.423-1.22-0.727 0.317 0.354 0.731 0.654 1.184 0.878 0.458 0.228 0.959 0.379 1.44 0.431" stroke-width="1" id="path_85"/><path fill="#EDB92F" d="M108.779 59.772c0.273 0.101 0.454 0.225 0.768 0.482 0.239 0.195 0.369 0.479 0.415 0.802 0.047 0.325 0.01 0.695-0.081 1.058-0.056 0.226 0.014 0.613 0.147 0.992 0.134 0.377 0.335 0.752 0.538 0.953 0.671 0.668 1.141 1.373 0.953 1.809-0.122 0.286-0.215 0.359-0.406 0.489-0.079-0.163-0.271-0.31-0.336-0.584-0.084-0.358-0.217-0.729-0.43-0.952-0.164-0.172-0.201-0.367-0.609-0.62-0.265-0.163-0.489-0.093-0.667-0.312-0.348-0.425-0.805-1.464-0.36-1.939 0.441-0.468 0.598-0.733 0.226-1.538-0.125-0.274-0.121-0.473-0.158-0.64z" stroke-width="0.666869997" stroke="#21231E" stroke-linejoin="round" id="path_86"/><path fill="#EDB92F" d="M120.493 63.157c-0.351 0.299-0.44 0.239-0.536 0.419-0.126 0.232-0.067 0.58 0.039 0.909 0.42 1.294-0.375 1.179-1.329 0.683-0.476-0.247-1.03-0.878-1.459-1.194-0.433-0.315-0.738-0.314-0.856-0.445-0.119-0.511-0.217-0.96-0.256-1.165h-0.002c-0.046-0.207-0.142-0.663-0.242-1.203 0.061-0.16 0.358-0.234 0.653-0.668 0.296-0.439 0.595-1.26 0.981-1.662 0.79-0.819 1.583-1.17 1.625 0.406 0.01 0.381 0.079 0.768 0.283 0.977 0.161 0.165 0.228 0.08 0.679 0.301 0.292 0.143 0.525 0.331 0.693 0.546 0.168 0.215 0.133 0.47 0.171 0.716 0.037 0.245 0.145 0.48 0.048 0.719-0.097 0.238-0.26 0.464-0.49 0.661h-0.002z" stroke-width="0.665341243" stroke="#21231E" id="path_87"/><path fill="#21231E" d="M116.054 62.168c-0.005-0.077-0.013-0.156-0.019-0.236 0.88-0.239 1.563-0.742 2.12-1.479-0.314 0.787-1.155 1.437-2.101 1.715m0.09 0.411l0.079 0.225c0.92 0.017 1.748 0.321 2.522 0.856-0.565-0.638-1.598-1.042-2.601-1.081" stroke-width="1" id="path_88"/><path fill="#EDB92F" d="M120.114 65.082c-0.296-0.091-0.623-0.188-0.923-0.416-0.456-0.352-0.323-1.031 0.068-1.731 0.126-0.224 0.141-0.601 0.076-0.971-0.066-0.371-0.211-0.735-0.408-0.922-0.644-0.615-1.037-1.296-0.712-1.793 0.22-0.334 0.516-0.526 0.789-0.709 0.06 0.17 0.097 0.4 0.104 0.696 0.012 0.381 0.078 0.767 0.285 0.976 0.16 0.165 0.228 0.08 0.678 0.3 0.292 0.143 0.526 0.331 0.695 0.545 0.168 0.215 0.133 0.47 0.17 0.716 0.038 0.244 0.147 0.481 0.05 0.719-0.097 0.238-0.259 0.462-0.491 0.66-0.35 0.301-0.439 0.241-0.538 0.421-0.124 0.232-0.064 0.58 0.043 0.909 0.081 0.25 0.118 0.447 0.114 0.6z" stroke-width="0.675283226" stroke="#21231E" id="path_89"/><path fill="#EDB92F" d="M114.041 60.495c1.106-0.052 2.172 0.907 2.328 2.081 0.157 1.174-0.614 2.084-1.674 2.098-1.06 0.01-2.042-0.849-2.245-1.982-0.201-1.131 0.487-2.141 1.591-2.197z" stroke-width="0.666869997" stroke="#21231E" id="path_90"/><path fill="#EDB92F" d="M114.135 61.069c0.807-0.034 1.582 0.66 1.7 1.518 0.12 0.859-0.435 1.54-1.222 1.551-0.778 0.014-1.514-0.636-1.657-1.464-0.147-0.845 0.371-1.57 1.179-1.605z" stroke-width="0.666869997" stroke="#21231E" id="path_91"/><path fill="#0D4077" d="M114.224 61.658c0.505-0.021 0.988 0.41 1.068 0.95 0.077 0.538-0.271 0.971-0.766 0.98-0.495 0.012-0.959-0.396-1.048-0.926-0.089-0.528 0.242-0.986 0.746-1.004z" stroke-width="0.666869997" stroke="#21231E" id="path_92"/><path fill="#FFFFFF" d="M154.848 53.337c-0.965 0-1.746 0.781-1.746 1.746s0.781 1.746 1.746 1.746 1.749-0.781 1.749-1.746-0.784-1.746-1.749-1.746z" stroke-width="0.666793332" stroke="#21231E" id="path_93"/><path fill="#FFFFFF" d="M169.728 56.995c-0.896 0-1.621 0.727-1.621 1.622 0 0.896 0.725 1.623 1.621 1.623 0.897 0 1.622-0.727 1.622-1.623 0-0.895-0.725-1.622-1.622-1.622zm1.549-2.965c-0.895 0-1.622 0.725-1.622 1.622 0 0.895 0.727 1.623 1.622 1.623 0.895 0 1.622-0.728 1.622-1.623 0-0.897-0.727-1.622-1.622-1.622zm1.46-2.995c-0.895 0-1.622 0.727-1.622 1.622 0 0.897 0.727 1.623 1.622 1.623 0.896 0 1.623-0.726 1.623-1.623 0-0.895-0.727-1.622-1.623-1.622z" stroke-width="0.666969995" stroke="#21231E" id="path_94"/><path fill="#EDB92F" d="M144.075 56.6c-0.937-0.062-0.705 1.605-0.52 1.978 0.24 0.486 0.464 0.499 0.77 0.052 0.232-0.344 0.686-1.966-0.25-2.028V56.6z" stroke-width="0.668158311" stroke="#21231E" id="path_95"/><path fill="#FFFFFF" d="M144.012 57.501c-2.205-0.147-1.658 3.771-1.224 4.645 0.568 1.139 1.094 1.176 1.811 0.122 0.55-0.807 1.615-4.618-0.587-4.767z" stroke-width="0.666865527" stroke="#21231E" id="path_96"/><path fill="#EDB92F" d="M161.775 58.959c-0.896-0.286-1.07 1.39-0.977 1.796 0.117 0.528 0.332 0.596 0.734 0.234 0.31-0.278 1.136-1.744 0.243-2.03z" stroke-width="0.668157264" stroke="#21231E" id="path_97"/><path fill="#FFFFFF" d="M161.501 59.82c-2.104-0.669-2.508 3.266-2.295 4.218 0.28 1.243 0.783 1.404 1.73 0.551 0.726-0.652 2.669-4.1 0.565-4.769z" stroke-width="0.666869813" stroke="#21231E" id="path_98"/><path fill="#EDB92F" d="M138.605 39.07c4.728-0.427 9.562 0.054 14.348 1.953 4.034 1.602 3.638 6.278-1.28 12.769 0.445 0.822 0.698 1.843 0.737 3.025-0.52-0.029-0.884-0.016-1.344-0.027 0.356-0.785-0.043-1.749-0.493-2.427-0.294-0.445-0.352-0.366 0.002-0.861 2.928-4.082 4.867-7.658 3.726-9.818-1.386-2.624-6.764-3.991-15.836-3.79 0.018-0.24 0.035-0.481 0.051-0.725l0.089-0.099z" stroke-width="0.666869997" stroke="#21231E" stroke-linejoin="round" id="path_99"/><path fill="#FFFFFF" d="M161.54 40.4c-0.93 0-1.685 0.755-1.685 1.685s0.755 1.684 1.685 1.684 1.684-0.754 1.684-1.684c0-0.93-0.754-1.685-1.684-1.685z" stroke-width="0.666869997" stroke="#21231E" id="path_100"/><path fill="#FFFFFF" d="M158.243 39.322c-0.93 0-1.685 0.754-1.685 1.684 0 0.932 0.755 1.684 1.685 1.684s1.684-0.752 1.684-1.684c0-0.93-0.754-1.684-1.684-1.684z" stroke-width="0.666869997" stroke="#21231E" id="path_101"/><path fill="#EDB92F" d="M157.802 40.758c-0.166 0.223-0.334 0.445-0.505 0.67 2.661 1.46 3.764 2.999 3.504 4.546-0.044 0.267-0.854 3.1-2.66 8.591-1.236 0.853-2.157 1.619-2.764 2.292 0.07 0.075-0.195 0.315-0.116 0.381-0.184 0.839 0.762 0.669 1.396 0.46 0.306-0.804 1.24-1.661 1.776-2.026 0.11-0.074 0.504-0.267 0.543-0.393 0.969-3.09 1.94-5.949 2.773-8.609 0.837-2.675-0.977-4.568-3.947-5.912z" stroke-width="0.666869997" stroke="#21231E" id="path_102"/><path fill="#EDB92F" d="M168.303 60.609l0.103 0.539c0.773 0.178 1.437 0.225 1.988 0.134-0.922-0.898-1.607-1.089-2.091-0.673z" stroke-width="0.666867273" stroke="#21231E" stroke-linejoin="round" id="path_103"/><path fill="#EDB92F" d="M168.388 59.376c-0.485 0.109-0.532 0.19-0.742 0.226-0.273 0.047-0.648 0.028-0.905-0.199-1.054-0.63-1.077 0.507-0.667 1.358 0.297 0.617 0.145 1.315-0.14 1.843-0.332 0.624-0.261 0.909-0.025 1.077 0.165 0.108 0.319 0.209 0.46 0.298 0.283 0.334 0.499 0.276 0.54-0.161 1.05-0.433 1.398-1.441 1.713-2.328 0.46-1.298 2.131-1.605-0.234-2.114z" stroke-width="0.667386535" stroke="#21231E" id="path_104"/><path fill="#EDB92F" d="M167.976 59.421c-0.915 0.325-1.017-0.182-1.634-0.157 0.242 1.4 0.489 2.125 1.951 1.375 0.805-0.416 1.837 0.191 2.032 0.642 0.072 0.164 0.542-0.178 0.714-0.553 0.717-1.568-1.835-1.744-3.063-1.307z" stroke-width="0.666403297" stroke="#21231E" id="path_105"/><path fill="#FFFFFF" d="M140.076 35.452c-0.926 0-1.676 0.75-1.676 1.678 0 0.927 0.75 1.675 1.676 1.675 0.927 0 1.677-0.748 1.677-1.675 0-0.928-0.75-1.678-1.677-1.678zm3.436 0c-0.926 0-1.677 0.75-1.677 1.678 0 0.927 0.751 1.675 1.677 1.675s1.677-0.748 1.677-1.675c0-0.928-0.751-1.678-1.677-1.678zm3.436 0.271c-0.927 0-1.677 0.748-1.677 1.676 0 0.927 0.75 1.677 1.677 1.677 0.926 0 1.678-0.75 1.678-1.677 0-0.928-0.752-1.676-1.678-1.676z" stroke-width="0.66704333" stroke="#21231E" id="path_106"/><path fill="#FFFFFF" d="M150.116 36.328c-0.926 0-1.679 0.752-1.679 1.679 0 0.926 0.753 1.676 1.679 1.676s1.676-0.75 1.676-1.676c0-0.927-0.75-1.679-1.676-1.679z" stroke-width="0.66704333" stroke="#21231E" id="path_107"/><path fill="#FFFFFF" d="M170.95 44.968c-0.93 0-1.684 0.754-1.684 1.685 0 0.93 0.754 1.684 1.684 1.684 0.93 0 1.685-0.754 1.685-1.684 0-0.931-0.755-1.685-1.685-1.685z" stroke-width="0.666869997" stroke="#21231E" id="path_108"/><path fill="#FFFFFF" d="M168.064 43.149c-0.932 0-1.686 0.754-1.686 1.684 0 0.93 0.754 1.684 1.686 1.684 0.928 0 1.685-0.754 1.685-1.684 0-0.93-0.757-1.684-1.685-1.684zm-3.282-1.54c-0.93 0-1.684 0.755-1.684 1.683 0 0.932 0.754 1.686 1.684 1.686 0.93 0 1.684-0.754 1.684-1.686 0-0.928-0.754-1.683-1.684-1.683zm8.406 6.097c-0.932 0-1.686 0.755-1.686 1.685s0.754 1.684 1.686 1.684c0.93 0 1.682-0.754 1.682-1.684 0-0.93-0.752-1.685-1.682-1.685z" stroke-width="0.666869997" stroke="#21231E" id="path_109"/><path fill="#EDB92F" d="M164.192 66.193c-0.664-0.201-1.7 1.265-1.946 1.24-0.327-0.84 0.339-2.843 1.518-4.429 0.799-0.261 0.872-0.775 1.037-1.968 0.05-0.356 0.737-0.111 0.748 0.497 0.014 0.649 0.064 1.011-0.081 1.566-0.058 0.22-0.027 0.429 0.219 0.628-1.248 0.496-1.555 1.101-1.495 2.466z" stroke-width="0.667506528" stroke="#21231E" id="path_110"/><path fill="#EDB92F" d="M164.786 61.054c0.116 0.277 0.15 0.501 0.177 0.919 0.022 0.317-0.096 0.615-0.299 0.878-0.205 0.265-0.497 0.499-0.826 0.688-0.203 0.118-0.437 0.443-0.621 0.813-0.183 0.367-0.319 0.781-0.327 1.077-0.025 0.974-0.216 1.825-0.663 1.993-0.292 0.111-0.408 0.093-0.634 0.041 0.062-0.176 0.038-0.422 0.197-0.667 0.203-0.315 0.381-0.677 0.396-0.992 0.014-0.248 0.13-0.412 0.035-0.896-0.062-0.315-0.269-0.433-0.232-0.723 0.072-0.563 0.515-1.64 1.166-1.64 0.642-0.002 0.944-0.069 1.275-0.918 0.114-0.288 0.261-0.428 0.355-0.573h0.001z" stroke-width="0.667506528" stroke="#21231E" stroke-linejoin="round" id="path_111"/><path fill="#EDB92F" d="M167.207 63.39c-0.176-0.135-0.387-0.234-0.586-0.31-0.336-0.131-0.698-0.153-1.044-0.048-1.54 0.462-2.215 3.178-0.529 3.831 0.333 0.04 0.64-0.258 0.938-0.915 0.352-0.866 0.726-1.468 1.128-1.835 0.244-0.309 0.253-0.568 0.093-0.723z" stroke-width="0.669845911" stroke="#21231E" id="path_112"/><path fill="#EDB92F" d="M166.428 63.57c-1.479-0.575-2.568 2.238-1.186 2.772 0.743 0.289 0.813-0.632 0.958-1.144 0.193-0.693 1.65-1.079 0.228-1.628z" stroke-width="0.669414671" stroke="#21231E" id="path_113"/><path fill="#0D4077" d="M166.272 63.988c-0.721-0.281-1.711 1.398-0.808 1.779 0.609 0.257 1.093-0.082 1.286-0.586 0.197-0.507 0.029-0.998-0.478-1.193z" stroke-width="0.66686907" stroke="#21231E" id="path_114"/><path fill="#FFFFFF" d="M156.195 50.475c-0.965 0-1.746 0.783-1.746 1.748 0 0.963 0.781 1.747 1.746 1.747s1.748-0.784 1.748-1.747c0-0.965-0.783-1.748-1.748-1.748z" stroke-width="0.666793332" stroke="#21231E" id="path_115"/><path fill="#FFFFFF" d="M157.472 47.573c-0.963 0-1.744 0.783-1.744 1.748s0.781 1.747 1.744 1.747c0.965 0 1.748-0.782 1.748-1.747 0-0.965-0.783-1.748-1.748-1.748z" stroke-width="0.666793332" stroke="#21231E" id="path_116"/><path fill="#FFFFFF" d="M153.287 37.351c-0.93 0-1.684 0.754-1.684 1.684 0 0.93 0.754 1.685 1.684 1.685 0.931 0 1.685-0.755 1.685-1.685s-0.754-1.684-1.685-1.684z" stroke-width="0.666869997" stroke="#21231E" id="path_117"/><path fill="#FFFFFF" d="M156.121 38.637c-0.967 0-1.748 0.781-1.748 1.746s0.781 1.747 1.748 1.747c0.963 0 1.746-0.782 1.746-1.747 0-0.965-0.783-1.746-1.746-1.746z" stroke-width="0.666793332" stroke="#21231E" id="path_118"/><path fill="#FFFFFF" d="M158.205 41.104c-0.965 0-1.746 0.784-1.746 1.749 0 0.965 0.781 1.746 1.746 1.746s1.748-0.781 1.748-1.746-0.783-1.749-1.748-1.749z" stroke-width="0.666793332" stroke="#21231E" id="path_119"/><path fill="#FFFFFF" d="M158.541 44.214c-0.965 0-1.746 0.783-1.746 1.746 0 0.965 0.781 1.748 1.746 1.748s1.749-0.783 1.749-1.748c0-0.963-0.784-1.746-1.749-1.746z" stroke-width="0.666793332" stroke="#21231E" id="path_120"/><path fill="#21231E" d="M166.921 63.163l-0.188-0.079c0.424-0.586 0.515-1.145 0.354-1.706 0.36 0.445 0.271 1.145-0.166 1.785" stroke-width="1" id="path_121"/><path fill="#EDB92F" d="M153.268 55.99c-0.364 0.458-0.319 0.569-0.517 0.7-0.259 0.17-0.609 0.112-0.934-0.011-1.332-0.507-1.334 0.545-0.947 1.75 0.189 0.584 0.758 1.218 1.011 1.715 0.248 0.485 0.195 0.851 0.306 0.975 0.485 0.079 0.899 0.137 1.088 0.16h0.002c0.184 0.029 0.598 0.081 1.072 0.132 0.156-0.087 0.276-0.434 0.715-0.815 0.443-0.379 1.209-0.792 1.621-1.258 0.835-0.948 1.28-1.855-0.035-1.824-0.327 0.008-0.654-0.05-0.801-0.284-0.114-0.182-0.027-0.265-0.139-0.797-0.073-0.35-0.203-0.629-0.369-0.83-0.169-0.203-0.414-0.158-0.64-0.201-0.229-0.042-0.435-0.176-0.689-0.048-0.251 0.126-0.506 0.336-0.742 0.636h-0.002z" stroke-width="0.666869997" stroke="#21231E" id="path_122"/><path fill="#21231E" d="M153.46 61.307c0.074-0.002 0.145-0.006 0.219-0.01 0.375-1.044 0.959-1.887 1.729-2.597-0.772 0.429-1.526 1.476-1.948 2.607m-0.376-0.055l-0.203-0.063c0.137-1.087-0.019-2.052-0.421-2.965 0.537 0.648 0.758 1.855 0.624 3.028" stroke-width="1" id="path_123"/><path fill="#EDB92F" d="M151.198 56.549c0.049 0.387 0.099 0.805 0.294 1.176 0.292 0.559 1.01 0.344 1.778-0.189 0.243-0.168 0.612-0.207 0.955-0.147 0.34 0.06 0.653 0.214 0.789 0.439 0.439 0.719 0.965 1.121 1.456 0.711 0.327-0.272 0.549-0.622 0.756-0.947-0.133-0.056-0.319-0.085-0.574-0.079-0.327 0.007-0.654-0.051-0.801-0.285-0.114-0.182-0.027-0.263-0.141-0.796-0.074-0.351-0.201-0.627-0.367-0.83-0.169-0.203-0.414-0.157-0.641-0.199-0.228-0.043-0.435-0.178-0.688-0.052-0.251 0.127-0.507 0.338-0.744 0.638-0.364 0.458-0.32 0.568-0.519 0.702-0.257 0.168-0.607 0.108-0.932-0.014-0.251-0.095-0.456-0.135-0.621-0.128z" stroke-width="0.666869997" stroke="#21231E" id="path_124"/><path fill="#EDB92F" d="M158.475 61.782c-0.211-0.256-0.296-0.2-0.334-0.36-0.051-0.209 0.073-0.536 0.234-0.845 0.64-1.246-0.041-1.139-0.963-0.65-0.234 0.124-0.507 0.346-0.776 0.574-0.271 0.229-0.541 0.468-0.768 0.631-0.458 0.327-0.738 0.336-0.872 0.468-0.203 0.504-0.371 0.943-0.441 1.139l-0.001 0.002c-0.078 0.197-0.242 0.634-0.424 1.137 0.031 0.141 0.292 0.18 0.489 0.541 0.194 0.352 0.346 0.994 0.582 1.304 0.348 0.454 0.664 0.725 0.911 0.68 0.246-0.044 0.422-0.402 0.487-1.193 0.028-0.307 0.204-0.634 0.409-0.826 0.158-0.15 0.193-0.087 0.587-0.305 0.254-0.143 0.47-0.319 0.644-0.511 0.171-0.187 0.198-0.4 0.277-0.611 0.081-0.211 0.215-0.417 0.193-0.617-0.019-0.203-0.096-0.394-0.232-0.558h-0.002z" stroke-width="0.674086445" stroke="#21231E" id="path_125"/><path fill="#21231E" d="M154.431 63.129l-0.06 0.257c0.396 0.093 0.725 0.255 0.998 0.478 0.274 0.222 0.493 0.508 0.665 0.852-0.06-0.381-0.252-0.721-0.53-0.994-0.278-0.272-0.65-0.479-1.073-0.593m0.163-0.456c0.039-0.085 0.077-0.168 0.118-0.253 0.441-0.037 0.868-0.149 1.286-0.329 0.414-0.178 0.818-0.423 1.22-0.727-0.317 0.354-0.731 0.654-1.185 0.878-0.457 0.228-0.957 0.379-1.439 0.431" stroke-width="1" id="path_126"/><path fill="#EDB92F" d="M158.589 59.772c-0.272 0.101-0.454 0.225-0.767 0.482-0.24 0.195-0.37 0.479-0.416 0.802-0.047 0.325-0.012 0.695 0.079 1.058 0.058 0.226-0.011 0.613-0.145 0.992-0.135 0.377-0.334 0.752-0.538 0.953-0.671 0.668-1.14 1.373-0.955 1.809 0.124 0.286 0.217 0.359 0.408 0.489 0.08-0.163 0.271-0.31 0.337-0.584 0.081-0.358 0.216-0.729 0.427-0.952 0.166-0.172 0.201-0.367 0.611-0.62 0.263-0.163 0.487-0.093 0.667-0.312 0.348-0.425 0.805-1.464 0.36-1.939-0.441-0.468-0.599-0.733-0.226-1.538 0.125-0.274 0.122-0.473 0.158-0.64z" stroke-width="0.666869997" stroke="#21231E" stroke-linejoin="round" id="path_127"/><path fill="#EDB92F" d="M146.872 63.159c0.351 0.299 0.44 0.239 0.536 0.421 0.125 0.229 0.069 0.578-0.039 0.907-0.418 1.296 0.375 1.181 1.329 0.684 0.476-0.246 1.03-0.879 1.461-1.195 0.433-0.316 0.736-0.314 0.854-0.446 0.121-0.51 0.217-0.959 0.258-1.164 0.046-0.205 0.142-0.664 0.242-1.201-0.059-0.161-0.358-0.236-0.651-0.669-0.298-0.44-0.595-1.262-0.983-1.661-0.79-0.821-1.583-1.172-1.625 0.404-0.01 0.381-0.077 0.768-0.283 0.977-0.161 0.165-0.229 0.08-0.677 0.301-0.294 0.143-0.527 0.331-0.695 0.546-0.168 0.215-0.133 0.472-0.17 0.717-0.036 0.244-0.146 0.48-0.049 0.72 0.097 0.236 0.262 0.462 0.492 0.659z" stroke-width="0.665341243" stroke="#21231E" id="path_128"/><path fill="#21231E" d="M151.307 62.168c0.006-0.077 0.013-0.156 0.017-0.236-0.88-0.239-1.56-0.742-2.117-1.479 0.313 0.787 1.154 1.437 2.1 1.715m-0.089 0.411l-0.079 0.225c-0.923 0.017-1.749 0.321-2.522 0.856 0.565-0.638 1.597-1.042 2.601-1.081" stroke-width="1" id="path_129"/><path fill="#EDB92F" d="M147.252 65.082c0.298-0.091 0.625-0.188 0.923-0.416 0.458-0.352 0.325-1.031-0.068-1.731-0.125-0.224-0.139-0.601-0.075-0.971 0.066-0.371 0.213-0.735 0.41-0.922 0.644-0.615 1.036-1.296 0.709-1.795-0.218-0.332-0.516-0.524-0.789-0.707-0.058 0.17-0.094 0.4-0.102 0.696-0.012 0.381-0.079 0.767-0.284 0.976-0.161 0.165-0.228 0.08-0.679 0.3-0.292 0.143-0.526 0.331-0.694 0.545-0.169 0.215-0.134 0.47-0.172 0.716-0.037 0.243-0.147 0.481-0.049 0.719 0.097 0.238 0.259 0.462 0.49 0.66 0.351 0.301 0.439 0.241 0.537 0.421 0.124 0.232 0.066 0.58-0.041 0.909-0.081 0.25-0.117 0.447-0.116 0.6z" stroke-width="0.675283226" stroke="#21231E" id="path_130"/><path fill="#EDB92F" d="M153.322 60.495c-1.106-0.052-2.173 0.907-2.328 2.081-0.157 1.174 0.615 2.084 1.673 2.098 1.059 0.01 2.044-0.849 2.247-1.982 0.201-1.131-0.488-2.141-1.592-2.197z" stroke-width="0.666869997" stroke="#21231E" id="path_131"/><path fill="#EDB92F" d="M153.233 61.069c-0.808-0.035-1.582 0.66-1.702 1.518-0.118 0.859 0.435 1.54 1.224 1.551 0.778 0.014 1.515-0.636 1.658-1.464 0.147-0.845-0.372-1.57-1.18-1.605z" stroke-width="0.666869997" stroke="#21231E" id="path_132"/><path fill="#0D4077" d="M153.139 61.658c-0.505-0.021-0.986 0.41-1.066 0.95-0.079 0.537 0.271 0.971 0.766 0.98 0.495 0.012 0.959-0.396 1.048-0.926 0.089-0.528-0.241-0.986-0.748-1.004z" stroke-width="0.666869997" stroke="#21231E" id="path_133"/><path fill="#EDB92F" d="M159.688 81.495c0.549 0.083 0.84 0.427 0.82 0.779 0.02 0.354-0.271 0.698-0.822 0.78-0.123 0.034-0.263 0.06-0.419 0.073-16.677 1.425-34.493 1.425-51.172 0-0.155-0.013-0.294-0.039-0.42-0.073-0.549-0.082-0.839-0.426-0.82-0.78-0.019-0.352 0.271-0.696 0.82-0.779 0.126-0.033 0.265-0.058 0.42-0.071 16.677-1.428 34.493-1.428 51.172 0 0.156 0.013 0.296 0.038 0.421 0.071z" stroke-width="0.666869997" stroke="#21231E" id="path_134"/><path fill="none" fill-rule="evenodd" d="M114.485 82.597c2.129-0.134 4.262-0.244 6.393-0.331 2.133-0.089 4.266-0.153 6.399-0.195 2.135-0.043 4.268-0.062 6.403-0.062 2.135 0.002 4.27 0.025 6.403 0.071 2.133 0.045 4.268 0.112 6.399 0.201 2.133 0.087 4.266 0.198 6.397 0.329" stroke-width="0.668672937" stroke="#21231E" stroke-linecap="round" id="path_135"/><path fill="#C7363D" d="M86.891 83.373v75.626c0 13.533 5.254 25.82 13.73 34.725 8.476 8.903 20.173 14.424 33.058 14.424h0.002c12.884 0 24.582-5.521 33.058-14.424 8.475-8.905 13.729-21.192 13.729-34.727V83.371l-93.577 0.002z" stroke-width="1.3325135" stroke="#FFFFFF" id="path_136"/><path fill="#FFFFFF" d="M134.109 204.241c0.404-0.068 1.092 0.017 1.609-0.389 0.69-0.542 0.418-2.729 0.356-4.111-0.319-7.068-0.61-18.965-0.969-35.673-0.588-0.079-1.019-0.039-1.422 0.023-0.404-0.062-0.833-0.102-1.423-0.023-0.359 16.708-0.65 28.604-0.967 35.673-0.062 1.382-0.334 3.569 0.354 4.111 0.518 0.406 1.205 0.321 1.611 0.389h0.851z" stroke-width="0.666273381" stroke="#21231E" id="path_137"/><path fill="#FFFFFF" d="M138.54 204.04c-0.41-0.029-1.086 0.12-1.639-0.24-0.735-0.476-0.797-2.711-0.859-4.096-0.325-7.066-0.98-18.906-2.135-35.578 0.58-0.135 1.011-0.131 1.418-0.108l0.193-0.044c2.661 16.493 3.664 28.192 5.486 35.249 0.251 0.974 0.793 3.417-0.048 4.209-0.48 0.451-1.17 0.428-1.571 0.532l-0.845 0.076z" stroke-width="0.666869997" stroke="#21231E" id="path_138"/><path fill="#FFFFFF" d="M143.748 203.297c-0.412 0.008-1.071 0.215-1.655-0.091-0.776-0.408-0.745-2.641-1.091-3.982-1.821-7.058-2.825-18.761-5.486-35.258 0.565-0.186 0.994-0.223 1.402-0.236l0.058-0.02c4.229 16.037 5.498 27.344 8.782 34.327 0.303 0.967 1.131 3.537 0.34 4.432-0.437 0.495-1.127 0.534-1.514 0.673l-0.836 0.155z" stroke-width="0.666869997" stroke="#21231E" id="path_139"/><path fill="#FFFFFF" d="M148.982 201.817c-0.41 0.048-1.1 0.431-1.711 0.183-0.812-0.331-0.938-2.717-1.522-3.963-3.295-7.018-4.553-18.395-8.82-34.552 0.544-0.239 0.969-0.318 1.373-0.37 0.37-0.17 0.3-0.257 0.89-0.344 4.959 15.958 6.568 27.057 11.251 33.946 0.758 1.112 1.31 3.339 0.795 4.05-0.385 0.533-1.068 0.641-1.441 0.817l-0.815 0.233z" stroke-width="0.666270146" stroke="#21231E" id="path_140"/><path fill="#FFFFFF" d="M128.823 204.04c0.41-0.029 1.085 0.12 1.638-0.24 0.737-0.476 0.796-2.711 0.86-4.096 0.325-7.066 0.981-18.906 2.135-35.578-0.58-0.135-1.011-0.131-1.419-0.108l-0.192-0.044c-2.661 16.493-3.664 28.192-5.486 35.249-0.253 0.974-0.792 3.417 0.049 4.209 0.479 0.451 1.17 0.428 1.568 0.532l0.847 0.076z" stroke-width="0.666869997" stroke="#21231E" id="path_141"/><path fill="#FFFFFF" d="M123.615 203.297c0.412 0.008 1.071 0.215 1.653-0.091 0.778-0.408 0.747-2.641 1.093-3.982 1.822-7.058 2.825-18.761 5.486-35.258-0.565-0.186-0.994-0.223-1.402-0.236l-0.058-0.02c-4.231 16.037-5.498 27.344-8.781 34.327-0.304 0.967-1.134 3.537-0.341 4.432 0.437 0.495 1.128 0.534 1.514 0.673l0.836 0.155z" stroke-width="0.666869997" stroke="#21231E" id="path_142"/><path fill="#FFFFFF" d="M118.377 201.819c0.41 0.048 1.101 0.429 1.712 0.181 0.812-0.331 0.938-2.718 1.522-3.963 3.295-7.018 4.553-18.395 8.821-34.552-0.545-0.239-0.969-0.318-1.373-0.37-0.371-0.17-0.302-0.258-0.889-0.344-4.961 15.958-6.57 27.057-11.254 33.946-0.755 1.112-1.309 3.338-0.794 4.05 0.385 0.533 1.068 0.641 1.441 0.817l0.814 0.235z" stroke-width="0.666270146" stroke="#21231E" id="path_143"/><path fill="#FFFFFF" d="M146.172 189.778c-0.373 0.022-0.939 0.249-1.526-0.033-0.78-0.373-1.283-2.531-1.699-3.872-3.312-6.57-6.318-18.23-11.258-34.438 0.484-0.2 0.869-0.252 1.238-0.278 0.327-0.144 0.685-0.274 1.223-0.321 5.325 16.038 7.704 27.634 12.932 34.03 0.863 1.057 1.501 3.356 1.088 4.02-0.311 0.5-0.934 0.564-1.263 0.712l-0.735 0.18z" stroke-width="0.664723284" stroke="#21231E" id="path_144"/><path fill="#FFFFFF" d="M141.973 190.595c-0.377-0.008-0.963 0.174-1.516-0.151-0.735-0.434-0.995-2.619-1.256-3.986-1.338-6.983-3.811-18.704-7.319-35.158 0.503-0.162 0.892-0.184 1.263-0.182 0.344-0.117 0.713-0.22 1.255-0.226 4.148 16.352 5.106 28.595 9.032 34.882 0.716 1.145 1.115 3.458 0.63 4.086-0.368 0.476-0.994 0.489-1.339 0.613l-0.75 0.122z" stroke-width="0.666684422" stroke="#21231E" id="path_145"/><path fill="#FFFFFF" d="M137.651 191.082c-0.373-0.036-0.978 0.099-1.491-0.269-0.68-0.491-0.688-2.686-0.79-4.069-0.528-7.058-1.637-18.92-3.234-35.578 0.52-0.122 0.909-0.112 1.278-0.079 0.356-0.091 0.737-0.163 1.275-0.124 2.245 16.604 3.549 28.629 4.97 35.44 0.284 1.356 0.713 3.529 0.156 4.117-0.418 0.443-1.044 0.406-1.402 0.503l-0.762 0.059z" stroke-width="0.666379709" stroke="#21231E" id="path_146"/><path fill="#FFFFFF" d="M121.192 189.778c0.375 0.022 0.938 0.249 1.526-0.033 0.78-0.373 1.285-2.529 1.699-3.87 3.311-6.572 6.318-18.23 11.26-34.44-0.484-0.202-0.869-0.251-1.24-0.279-0.328-0.143-0.684-0.273-1.222-0.32-5.325 16.04-7.705 27.636-12.933 34.03-0.862 1.057-1.5 3.355-1.086 4.022 0.311 0.5 0.933 0.562 1.263 0.712l0.733 0.178z" stroke-width="0.664723284" stroke="#21231E" id="path_147"/><path fill="#FFFFFF" d="M125.389 190.594c0.375-0.006 0.963 0.176 1.516-0.149 0.735-0.434 0.995-2.621 1.256-3.986 1.338-6.985 3.809-18.704 7.319-35.158-0.503-0.164-0.891-0.184-1.265-0.182-0.342-0.117-0.711-0.22-1.253-0.226-4.148 16.352-5.106 28.595-9.032 34.882-0.716 1.145-1.117 3.458-0.63 4.086 0.366 0.474 0.994 0.487 1.339 0.613l0.75 0.12z" stroke-width="0.666684422" stroke="#21231E" id="path_148"/><path fill="#FFFFFF" d="M129.714 191.081c0.371-0.037 0.977 0.098 1.491-0.269 0.681-0.49 0.686-2.687 0.79-4.069 0.528-7.057 1.635-18.921 3.234-35.577-0.52-0.124-0.911-0.112-1.28-0.081-0.356-0.091-0.735-0.162-1.274-0.123-2.245 16.604-3.55 28.628-4.971 35.44-0.282 1.357-0.713 3.529-0.156 4.117 0.42 0.442 1.044 0.407 1.402 0.502l0.764 0.06z" stroke-width="0.666379709" stroke="#21231E" id="path_149"/><path fill="#FFFFFF" d="M134.064 191.229c0.366-0.068 0.985 0.019 1.453-0.389 0.622-0.541 0.375-2.728 0.321-4.113-0.289-7.066-0.55-18.962-0.872-35.673-0.534-0.079-0.921-0.038-1.285 0.024-0.363-0.062-0.752-0.103-1.284-0.024-0.323 16.711-0.586 28.607-0.872 35.673-0.056 1.385-0.301 3.572 0.321 4.113 0.468 0.408 1.087 0.321 1.453 0.389h0.765z" stroke-width="0.664573275" stroke="#21231E" id="path_150"/><path fill="#FFFFFF" d="M143.319 180.037c-0.286 0.021-0.717 0.25-1.168-0.029-0.6-0.371-0.994-2.524-1.318-3.864-2.557-6.557-4.903-18.206-8.746-34.397 0.369-0.202 0.663-0.254 0.948-0.282 0.251-0.143 0.523-0.277 0.935-0.326 4.136 16.02 6 27.606 10.029 33.981 0.663 1.053 1.162 3.351 0.848 4.017-0.237 0.501-0.714 0.566-0.965 0.717l-0.563 0.183z" stroke-width="0.665267298" stroke="#21231E" id="path_151"/><path fill="#FFFFFF" d="M140.019 180.883c-0.287-0.008-0.737 0.175-1.16-0.152-0.563-0.431-0.76-2.619-0.96-3.986-1.022-6.984-2.905-18.704-5.586-35.159 0.387-0.164 0.685-0.185 0.969-0.183 0.263-0.116 0.548-0.218 0.961-0.224 3.168 16.353 3.893 28.596 6.897 34.883 0.547 1.146 0.852 3.459 0.478 4.089-0.278 0.473-0.76 0.487-1.023 0.61l-0.576 0.122z" stroke-width="0.665192264" stroke="#21231E" id="path_152"/><path fill="#FFFFFF" d="M136.726 181.367c-0.286-0.038-0.75 0.097-1.14-0.271-0.524-0.489-0.528-2.686-0.607-4.068-0.406-7.057-1.255-18.921-2.48-35.577 0.397-0.124 0.696-0.112 0.979-0.081 0.272-0.089 0.562-0.16 0.976-0.124 1.722 16.606 2.722 28.628 3.812 35.44 0.217 1.357 0.545 3.529 0.118 4.117-0.321 0.443-0.801 0.408-1.074 0.504l-0.584 0.06z" stroke-width="0.666531802" stroke="#21231E" id="path_153"/><path fill="#FFFFFF" d="M124.046 180.034c0.286 0.024 0.719 0.253 1.17-0.027 0.598-0.372 0.992-2.526 1.315-3.865 2.56-6.558 4.904-18.206 8.748-34.396-0.37-0.204-0.664-0.254-0.947-0.282-0.251-0.145-0.525-0.277-0.937-0.326-4.136 16.02-6 27.606-10.027 33.981-0.665 1.051-1.162 3.349-0.848 4.015 0.235 0.501 0.712 0.568 0.963 0.717l0.563 0.183z" stroke-width="0.665267298" stroke="#21231E" id="path_154"/><path fill="#FFFFFF" d="M127.342 180.878c0.289-0.006 0.739 0.175 1.161-0.15 0.562-0.434 0.759-2.619 0.959-3.986 1.022-6.986 2.907-18.707 5.586-35.161-0.387-0.164-0.685-0.183-0.969-0.181-0.263-0.118-0.547-0.22-0.961-0.224-3.166 16.351-3.893 28.597-6.897 34.884-0.546 1.145-0.852 3.456-0.48 4.086 0.283 0.474 0.762 0.487 1.025 0.61l0.576 0.122z" stroke-width="0.665192264" stroke="#21231E" id="path_155"/><path fill="#FFFFFF" d="M130.639 181.371c0.285-0.039 0.751 0.096 1.141-0.271 0.524-0.489 0.528-2.686 0.607-4.067 0.405-7.06 1.255-18.922 2.48-35.58-0.399-0.122-0.697-0.112-0.979-0.079-0.273-0.091-0.565-0.162-0.976-0.124-1.722 16.606-2.722 28.628-3.812 35.44-0.217 1.357-0.545 3.529-0.118 4.117 0.321 0.442 0.799 0.406 1.073 0.502l0.584 0.062z" stroke-width="0.666531802" stroke="#21231E" id="path_156"/><path fill="#FFFFFF" d="M133.979 181.51c0.28-0.068 0.754 0.017 1.114-0.389 0.476-0.541 0.286-2.728 0.244-4.113-0.219-7.068-0.42-18.963-0.67-35.671-0.406-0.081-0.703-0.04-0.982 0.022-0.278-0.062-0.574-0.103-0.982-0.022-0.248 16.708-0.449 28.603-0.667 35.671-0.045 1.385-0.234 3.572 0.243 4.113 0.358 0.406 0.832 0.321 1.114 0.389h0.586z" stroke-width="0.666959981" stroke="#21231E" id="path_157"/><path fill="#EDB92F" d="M114.136 162.363c-0.893 0.039-1.99 0.548-5.196 3.324-1.402 2.853-2.813 5.724-4.758 8.198-0.663 0.437-1.184 0.742-1.71 0.914-0.547 0.181-4.589 0.045-4.687-0.125-1.256-1.14-3.179-0.328-2.538 0.875-0.497 0.471 0.599 2.199 1.481 1.484 0.808-0.659 3.626-0.035 4.564-0.375-0.357 0.845-2.902 1.393-4.681 1.521-1.624 0.069-1.517 1.69-0.849 2.933 0.762 0.486 0.138-0.127 0.414 0.227 0.727 1.079 2.283 0.939 2.336-0.115 0.055-1.09 3.852-2.51 4.421-3.347-0.697 1.657-2.303 3.203-3.101 4.823-0.857 0.859-1.375 1.03-0.27 2.764 1.228-0.139 1.3-0.466 2.055 0.25 1.679-0.182 1.952-0.681 1.68-2.01-0.287-1.404 0.888-3.94 1.281-4.658 0.36-0.661 0.449-1.347 0.799-1.761 0.61-0.721 3.511-2.16 4.254-1.763 1.369 0.728 2.411 0.289 2.584-1.035-0.441-0.341-0.107-2.22-1.055-2.302-0.773-0.064-1.232 0.173-1.944 0.753-1.12 0.914-1.694 1.399-2.064 1.299-0.872-0.243 1.583-1.444 3.818-4.371 3.097-4.055 3.31-6.114 3.166-7.503z" stroke-width="0.665228259" stroke="#21231E" stroke-linejoin="round" id="path_158"/><path fill="#EDB92F" d="M95.438 176.298c-1.121-0.656-1.763-0.631-2.198-0.143-0.24 0.268-0.544 0.129-0.366-0.292 0.745-1.76 1.932-1.979 2.999-1.155 0.298 0.277 0.538 0.515 0.778 0.753-0.178 0.264-1.068 0.634-1.213 0.837z" stroke-width="0.666752572" stroke="#21231E" id="path_159"/><path fill="#EDB92F" d="M111.48 174.729c1.19-0.81 2.304-0.969 2.915-0.516 0.335 0.249 0.668 0.069 0.371-0.344-1.235-1.734-2.68-1.819-3.77-0.841-0.295 0.321-0.531 0.594-0.766 0.869 0.375 0.408 1.2 0.867 1.25 0.832z" stroke-width="0.662503937" stroke="#21231E" id="path_160"/><path fill="#EDB92F" d="M102.114 184.661c-0.729 1.443-1.114 2.431-0.796 3.205 0.184 0.452-0.025 0.868-0.484 0.473-1.858-1.593-1.863-3.42-0.674-4.662 0.397-0.414 0.82-0.681 1.197-0.982 0.484 0.452 0.794 1.896 0.757 1.966z" stroke-width="0.666522065" stroke="#21231E" id="path_161"/><path fill="#EDB92F" d="M97.474 180.871c-1.106 0.456-1.486 1.038-1.448 1.8 0.023 0.419-0.254 0.576-0.408 0.088-1.349-3.136 0.053-3.72 2.078-3.605 0.114 0.546-0.173 1.696-0.222 1.717z" stroke-width="0.666131595" stroke="#21231E" id="path_162"/><path fill="none" fill-rule="evenodd" d="M106.984 173.892c-0.728-0.424-0.77-0.894-0.581-1.209 0.405-0.669 0.811-0.346 1.573 0.271" stroke-width="0.666864911" stroke="#21231E" id="path_163"/><path fill="none" fill-rule="evenodd" d="M107.927 172.867c-0.727-0.424-0.769-0.894-0.58-1.209 0.404-0.667 0.811-0.346 1.572 0.271" stroke-width="0.666864911" stroke="#21231E" id="path_164"/><path fill="none" fill-rule="evenodd" d="M108.985 171.896c-0.802-0.549-0.851-1.16-0.64-1.572 0.445-0.868 0.894-0.451 1.733 0.352" stroke-width="0.672532251" stroke="#21231E" id="path_165"/><path fill="none" fill-rule="evenodd" d="M110.125 170.673c-0.851-0.622-0.903-1.311-0.679-1.777 0.472-0.982 0.95-0.508 1.841 0.398" stroke-width="0.67512055" stroke="#21231E" id="path_166"/><path fill="none" fill-rule="evenodd" d="M111.325 169.376c-0.793-0.659-1.04-1.313-0.679-1.887 0.567-0.899 0.95-0.54 1.841 0.423" stroke-width="0.668548785" stroke="#21231E" id="path_167"/><path fill="#EDB92F" d="M122.075 98.879c-0.568 0.495-2.444 0.503-5.012 0.667-4.139 0.146-6.534-1.102-7.066-3.747 1.555 1.847 3.405 2.761 5.509 2.241 2.837-0.702 4.461-1.205 5.109-1.081 0.435 0.155 1.072 0.944 1.46 1.92z" stroke-width="0.666897644" stroke="#21231E" stroke-linejoin="round" id="path_168"/><path fill="#FFFFFF" d="M131.654 155.277c-0.023 1.186-0.036 2.514-0.046 3.879l-0.012 0.004-2.956 0.613c-0.008 1.348 3.326 15.451 5.043 15.451s5.049-14.113 5.044-15.46l-2.957-0.603-0.012-0.004c-0.009-1.366-0.025-2.694-0.046-3.88-0.621 0.517-1.307 1.414-2.029 2.226-0.723-0.812-1.408-1.709-2.028-2.226h-0.001z" stroke-width="0.666869997" stroke="#21231E" id="path_169"/><path fill="#FFFFFF" d="M128.229 161.268l-2.65-1.498c-1.113 0.798-1.939 3.767-0.034 6.192 2.374 3.022 3.335 5.213 3.916 7.659 1.728-2.21 2.324-4.534 1.226-6.803-1.48-3.059-2.445-4.784-2.458-5.55z" stroke-width="0.666869763" stroke="#21231E" stroke-linejoin="round" id="path_170"/><path fill="#FFFFFF" d="M130.394 159.15l-2.649-1.498c-1.116 0.798-3.444 3.674-1.539 6.099 2.375 3.02 4.84 5.306 5.42 7.752 1.729-2.21 2.466-4.534 1.368-6.803-1.48-3.057-2.586-4.782-2.599-5.549l-0.001-0.001zm8.74 2.115l2.649-1.499c1.116 0.8 1.94 3.769 0.035 6.194-2.372 3.022-3.335 5.211-3.916 7.66-1.728-2.211-2.322-4.537-1.224-6.804 1.48-3.059 2.443-4.784 2.456-5.552v0.001z" stroke-width="0.666869763" stroke="#21231E" stroke-linejoin="round" id="path_171"/><path fill="#FFFFFF" d="M136.968 159.146l2.652-1.496c1.114 0.798 3.444 3.672 1.539 6.097-2.375 3.022-4.84 5.308-5.423 7.754-1.726-2.21-2.463-4.534-1.365-6.803 1.48-3.059 2.586-4.784 2.597-5.551v-0.001zm-12.423-1.069l-2.649-1.499c-1.114 0.801-1.94 3.769-0.033 6.194 2.373 3.023 3.336 5.214 3.916 7.66 1.727-2.21 2.322-4.537 1.224-6.803-1.481-3.059-2.444-4.784-2.458-5.552z" stroke-width="0.666869763" stroke="#21231E" stroke-linejoin="round" id="path_172"/><path fill="#FFFFFF" d="M142.818 158.073l2.651-1.498c1.114 0.8 1.938 3.767 0.033 6.194-2.375 3.022-3.336 5.211-3.916 7.657-1.727-2.208-2.322-4.535-1.224-6.803 1.479-3.059 2.444-4.784 2.456-5.55z" stroke-width="0.666869763" stroke="#21231E" stroke-linejoin="round" id="path_173"/><path fill="#FFFFFF" d="M112.277 130.155c0.05 2.419-0.379 18.553-0.514 20.833-0.134 2.27-1.141 3.817-2.216 4.705-0.985-1.352-1.572-3.176-1.712-5.341-0.073-1.103 0.132-16.37 0.217-19.508 1.81-4.783 3.152-4.964 4.225-0.689z" stroke-width="0.665238178" stroke="#21231E" id="path_174"/><path fill="#FFFFFF" d="M101.772 126.209l-0.684 22.183c-0.217 1.968 2.349 13.677 3.751 15.988 3.473-1.483 4.206-9.427 3.553-17.168-0.652-7.743 0.11-14.428 0.64-15.818 0.046-1.752-0.248-3.579-0.265-5.403-2.212 0.134-4.782 0.085-6.995 0.219v-0.001z" stroke-width="0.665238178" stroke="#21231E" id="path_175"/><path fill="#FFFFFF" d="M97.658 129.835l0.47 22.19c-0.112 1.976 3.062 13.531 4.583 15.758 3.522-2.726 2.814-13.882 2.275-17.257-1.076-6.725-0.894-14.517-0.523-15.781-0.044-1.752-0.09-3.849-0.203-5.67l-6.602 0.76z" stroke-width="0.665238178" stroke="#21231E" id="path_176"/><path fill="#FFFFFF" d="M94.604 135.091l5.84-0.149c-0.497 2.422-0.101 9.94 0.907 15.67 0.946 5.374 2.264 19.309-3.34 22.654-3.473-7.352-0.827-14.497-2.579-20.883-1.368-6.785-1.636-12.451-0.828-17.292zm22.327-9.01c-0.024 2.421-0.942 18.534-1.145 20.808-0.205 2.264-1.259 3.778-2.359 4.629-0.944-1.381-1.476-3.222-1.551-5.389-0.037-1.107 0.63-16.36 0.81-19.495 1.953-4.722 3.301-4.862 4.245-0.553zm-10.377-13.144c-0.156 5.196-0.245 16.476-0.212 17.433 0.073 2.168 0.93 4.926 1.874 6.309 1.1-0.851 2.152-2.365 2.357-4.632 0.166-1.86 0.226-11.005 0.253-15.588-1.176-0.756-2.392-1.702-3.372-2.709 0 0-0.865-0.768-0.9-0.812v-0.001z" stroke-width="0.665238178" stroke="#21231E" id="path_177"/><path fill="#FFFFFF" d="M110.723 116.287c-0.105 5.601-0.043 14.422-0.018 15.138 0.074 2.168 0.606 4.011 1.549 5.394 1.101-0.853 2.263-2.422 2.466-4.686 0.126-1.394 0.514-7.371 0.549-11.96-1.479-0.468-3.347-2.891-4.546-3.885v-0.001zm-3.589-3.818l-3.976-5.722c-0.803 2.824-1.783 23.072-0.633 24.731 0.074 2.168 0.857 4.003 1.801 5.386 1.1-0.853 2.744-2.386 2.268-4.678-0.474-2.291 0.058-17.354 0.54-19.717z" stroke-width="0.665238178" stroke="#21231E" id="path_178"/><path fill="#FFFFFF" d="M98.985 125.204c-0.18 3.133-0.307 5.254-0.269 6.359 0.074 2.167 0.606 4.01 1.549 5.393 1.101-0.853 2.503-2.363 2.358-4.633-0.555-8.768 0.406-17.027 1.523-24.967-0.943-0.693-2.533-1.437-3.477-2.129-1.885 10.691-2.515 17.328-1.684 19.978v-0.001z" stroke-width="0.665238178" stroke="#21231E" id="path_179"/><path fill="#FFFFFF" d="M95.005 130.943l1.079 4.079c0.073 2.167 1.416 3.958 2.357 5.341 1.101-0.855 2.1-2.255 1.82-4.51-1.613-12.952-1.037-21.521 1.684-32.075-6.153 4.194-9.005 13.041-6.94 27.165z" stroke-width="0.665238178" stroke="#21231E" stroke-linejoin="round" id="path_180"/><path fill="#FFFFFF" d="M95.322 134.953l-5.647-1.871c-0.717 5.636 0.387 12.716 1.909 22.053 1.305 8.015 0.619 14.36-0.379 18.431 6.024-0.824 8.57-8.579 5.55-23.163-0.791-3.818-1.586-8.696-1.433-15.449v-0.001z" stroke-width="0.665238178" stroke="#21231E" id="path_181"/><path fill="none" fill-rule="evenodd" d="M95.151 162.233c0.131-3.734-0.495-7.811-1.205-11.245-0.977-4.709-1.478-9.223-1.509-13.964" stroke-width="0.666869997" stroke="#21231E" stroke-linecap="round" id="path_182"/><path fill="#FFFFFF" d="M95.099 101.794l3.705 0.623c-0.182 0.792-1.121 5.662-1.294 6.491-1.384 6.766-2.299 14.739-1.251 23.484 0.389 3.245 1.077 5.898 2.089 7.95-4.065-0.462-6.67-4.425-6.333-11.336-0.708-8.073-0.397-14.494 0.912-19.32 0.383-1.416 1.617-6.749 2.172-7.892z" stroke-width="0.665238178" stroke="#21231E" stroke-linejoin="round" id="path_183"/><path fill="#FFFFFF" d="M92.851 102.671l1.82 2.073c-0.516 0.369 0.36 1.959-0.112 5.047-0.304 1.752-1.35 3.819-1.564 6.056-0.718 7.413-0.72 16.695 1.512 22.63-4.065-0.462-5.461-4.14-5.593-11.059-0.108-5.722-0.127-12.468 1.311-20.255 0.292-1.82 1.168-3.272 2.626-4.492z" stroke-width="0.665238178" stroke="#21231E" id="path_184"/><path fill="#FFFFFF" d="M103.002 108.126l-3.752-0.434c-0.688 3.541-1.212 6.046-1.341 7.307-0.249 2.475 0.505 4.743 1.365 6.432 1.384-0.834 2.024-2.654 2.604-5.203 0.58-2.563 0.725-5.354 1.124-8.102z" stroke-width="0.666277588" stroke="#21231E" id="path_185"/><path fill="#FFFFFF" d="M112.742 116.105l-3.33 0.034c-0.115 3.055-0.196 5.122-0.142 6.2 0.106 2.111 0.633 3.9 1.536 5.238 1.012-0.841 1.969-2.328 2.12-4.536 0.151-2.218-0.163-4.579-0.184-6.937v0.001z" stroke-width="0.666074096" stroke="#21231E" id="path_186"/><path fill="#FFFFFF" d="M116.328 117.681L113 117.833c-0.007 3.057-0.019 5.126 0.074 6.2 0.179 2.105 0.768 3.877 1.717 5.183 0.981-0.878 1.887-2.394 1.962-4.606 0.074-2.224-0.323-4.572-0.425-6.929z" stroke-width="0.666082064" stroke="#21231E" id="path_187"/><path fill="#FFFFFF" d="M109.349 114.388l-3.32-0.234c-0.361 3.036-0.611 5.089-0.646 6.167-0.063 2.113 0.318 3.939 1.109 5.347 1.077-0.758 2.15-2.16 2.481-4.35 0.33-2.198 0.206-4.579 0.376-6.93z" stroke-width="0.666074848" stroke="#21231E" id="path_188"/><path fill="#FFFFFF" d="M106.235 110.808l-3.643-1.51c-0.619 2.46-1.459 10.555 0.034 13.974 1.212-0.822 2.436-2.368 2.844-4.802 0.41-2.445 0.532-5.044 0.765-7.662z" stroke-width="0.666278774" stroke="#21231E" id="path_189"/><path fill="#FFFFFF" d="M101.421 106.794l-5.823 0.514c-1.341 3.336-2.22 6.292-2.648 8.972 2.699-0.476 4.657-1.8 5.36-4.217 0.948-3.26 2.616-4.693 3.111-5.269z" stroke-width="0.674560191" stroke="#21231E" stroke-linecap="round" stroke-linejoin="round" id="path_190"/><path fill="#EDB92F" d="M107.322 194.873c2.224 1.779 4.258-2.29 2.286-7.67-1.459-3.979-8.591-2.434-4.618 2.92 0.187 0.254 0.454 0.134 0.415-0.154-0.224-1.099 0.476-1.735 1.557-1.534 2.955 0.553 3.048 6.152-0.164 4.877-0.588-0.037-0.062 1.091 0.524 1.561zm7.297 0c-2.224 1.779-4.258-2.29-2.286-7.67 1.46-3.979 8.59-2.434 4.618 2.92-0.19 0.254-0.453 0.134-0.416-0.154 0.226-1.099-0.476-1.735-1.557-1.534-2.952 0.553-3.045 6.152 0.165 4.877 0.586-0.037 0.062 1.091-0.524 1.561z" stroke-width="0.592206972" stroke="#21231E" id="path_191"/><path fill="#EDB92F" d="M110.757 177.587l-0.002 0.037c-0.29 0.934-1.371 2.1-2.21 2.976-1.303 1.357-0.996 3.413-0.093 4.506 0.983 1.191 1.422 2.533 1.619 3.577 0.149 0.642 0.412 2.083 0.22 4.322-0.094 1.103-0.762 1.671-1.388 2.164-0.317 0.252 0.135 0.851 1.185 1.64 0.116 0.085 0.432 0.302 0.582 0.847 0.058 0.132 0.546 0.132 0.604 0 0.151-0.545 0.466-0.762 0.582-0.847 1.05-0.789 1.502-1.388 1.185-1.64-0.626-0.493-1.293-1.061-1.388-2.164-0.192-2.239 0.073-3.68 0.218-4.322 0.199-1.044 0.638-2.386 1.623-3.577 0.901-1.093 1.21-3.148-0.093-4.506-0.841-0.876-1.922-2.042-2.212-2.976v-0.037c-0.016-0.182-0.116-0.273-0.217-0.273-0.101 0-0.201 0.091-0.215 0.273z" stroke-width="0.592206972" stroke="#21231E" id="path_192"/><path fill="#EDB92F" d="M109.366 190.497h3.214c0.553 0 1.006 0.445 1.006 0.986 0 0.544-0.453 0.987-1.006 0.987h-3.214c-0.553 0-1.005-0.443-1.005-0.987 0-0.541 0.452-0.986 1.005-0.986z" stroke-width="0.615881753" stroke="#21231E" id="path_193"/><path fill="#EDB92F" d="M152.743 194.873c2.222 1.779 4.256-2.29 2.285-7.67-1.46-3.979-8.591-2.434-4.619 2.92 0.189 0.254 0.454 0.134 0.417-0.154-0.226-1.099 0.476-1.735 1.555-1.534 2.955 0.553 3.048 6.152-0.164 4.877-0.586-0.037-0.062 1.091 0.526 1.561zm7.297 0c-2.224 1.779-4.259-2.29-2.286-7.67 1.458-3.979 8.59-2.434 4.618 2.92-0.188 0.254-0.453 0.134-0.416-0.154 0.226-1.099-0.476-1.735-1.557-1.534-2.953 0.553-3.045 6.152 0.167 4.877 0.586-0.037 0.06 1.091-0.526 1.561z" stroke-width="0.592206972" stroke="#21231E" id="path_194"/><path fill="#EDB92F" d="M156.173 177.587l-0.002 0.037c-0.29 0.934-1.371 2.1-2.21 2.976-1.303 1.357-0.996 3.413-0.093 4.506 0.983 1.191 1.423 2.533 1.619 3.577 0.149 0.642 0.412 2.083 0.22 4.322-0.095 1.103-0.762 1.671-1.388 2.164-0.317 0.252 0.135 0.851 1.185 1.64 0.116 0.085 0.431 0.302 0.582 0.847 0.058 0.132 0.546 0.132 0.604 0 0.15-0.545 0.468-0.762 0.582-0.847 1.05-0.789 1.502-1.388 1.185-1.64-0.625-0.493-1.294-1.061-1.388-2.164-0.192-2.239 0.073-3.68 0.22-4.322 0.197-1.044 0.636-2.386 1.621-3.577 0.901-1.093 1.208-3.148-0.093-4.506-0.841-0.876-1.922-2.042-2.213-2.976v-0.037c-0.015-0.182-0.116-0.273-0.216-0.273-0.101 0-0.201 0.091-0.215 0.273z" stroke-width="0.592206972" stroke="#21231E" id="path_195"/><path fill="#EDB92F" d="M154.787 190.497h3.214c0.553 0 1.004 0.445 1.004 0.986 0 0.544-0.451 0.987-1.004 0.987h-3.214c-0.553 0-1.005-0.443-1.005-0.987 0-0.541 0.452-0.986 1.005-0.986z" stroke-width="0.615881753" stroke="#21231E" id="path_196"/><path fill="#FFFFFF" d="M155.089 130.155c-0.05 2.419 0.377 18.553 0.513 20.833 0.135 2.27 1.142 3.817 2.218 4.705 0.984-1.352 1.572-3.176 1.711-5.341 0.072-1.103-0.131-16.37-0.217-19.508-1.81-4.783-3.152-4.964-4.225-0.689z" stroke-width="0.665238178" stroke="#21231E" id="path_197"/><path fill="#FFFFFF" d="M165.594 126.209l0.687 22.183c0.216 1.968-2.352 13.677-3.754 15.988-3.473-1.483-4.206-9.427-3.552-17.168 0.653-7.743-0.109-14.428-0.638-15.818-0.047-1.752 0.247-3.579 0.264-5.403 2.213 0.134 4.783 0.085 6.993 0.219v-0.001z" stroke-width="0.665238178" stroke="#21231E" id="path_198"/><path fill="#FFFFFF" d="M169.708 129.835l-0.472 22.19c0.114 1.976-3.061 13.531-4.581 15.758-3.522-2.726-2.814-13.882-2.274-17.257 1.075-6.725 0.893-14.517 0.522-15.781 0.044-1.752 0.089-3.849 0.201-5.67l6.604 0.76z" stroke-width="0.665238178" stroke="#21231E" id="path_199"/><path fill="#FFFFFF" d="M172.762 135.091l-5.838-0.149c0.497 2.422 0.099 9.94-0.909 15.67-0.943 5.374-2.262 19.309 3.34 22.654 3.475-7.352 0.83-14.497 2.582-20.883 1.365-6.785 1.636-12.453 0.825-17.292zm-22.326-9.01c0.021 2.421 0.941 18.534 1.144 20.808 0.205 2.264 1.259 3.778 2.36 4.629 0.943-1.381 1.475-3.222 1.549-5.389 0.038-1.107-0.629-16.36-0.809-19.495-1.953-4.722-3.301-4.862-4.244-0.553zm10.376-13.144c0.157 5.196 0.245 16.476 0.213 17.433-0.076 2.168-0.931 4.926-1.874 6.309-1.101-0.851-2.155-2.365-2.358-4.632-0.166-1.86-0.226-11.005-0.255-15.588 1.178-0.756 2.392-1.702 3.373-2.709 0 0 0.866-0.768 0.901-0.812v-0.001z" stroke-width="0.665238178" stroke="#21231E" id="path_200"/><path fill="#FFFFFF" d="M156.639 116.287c0.102 5.601 0.042 14.422 0.017 15.138-0.073 2.168-0.605 4.011-1.549 5.394-1.1-0.853-2.262-2.422-2.466-4.686-0.125-1.394-0.514-7.371-0.551-11.96 1.48-0.468 3.35-2.891 4.549-3.885v-0.001zm3.589-3.818l3.974-5.722c0.804 2.824 1.785 23.072 0.634 24.731-0.074 2.168-0.859 4.003-1.802 5.386-1.101-0.853-2.743-2.386-2.267-4.678 0.474-2.291-0.058-17.354-0.539-19.717z" stroke-width="0.665238178" stroke="#21231E" id="path_201"/><path fill="#FFFFFF" d="M168.381 125.204c0.178 3.133 0.308 5.254 0.269 6.359-0.074 2.167-0.605 4.01-1.549 5.393-1.1-0.853-2.502-2.363-2.359-4.633 0.555-8.768-0.404-17.027-1.522-24.967 0.944-0.693 2.533-1.437 3.477-2.129 1.885 10.691 2.516 17.328 1.684 19.978v-0.001z" stroke-width="0.665238178" stroke="#21231E" id="path_202"/><path fill="#FFFFFF" d="M172.356 130.943l-1.079 4.079c-0.075 2.167-1.415 3.958-2.357 5.341-1.102-0.855-2.1-2.255-1.82-4.51 1.613-12.952 1.037-21.521-1.686-32.075 6.156 4.194 9.008 13.041 6.942 27.165z" stroke-width="0.665238178" stroke="#21231E" stroke-linejoin="round" id="path_203"/><path fill="#FFFFFF" d="M172.04 134.953l5.646-1.871c0.719 5.636-0.387 12.716-1.907 22.053-1.305 8.015-0.618 14.36 0.379 18.431-6.023-0.824-8.57-8.579-5.55-23.163 0.789-3.818 1.584-8.696 1.431-15.449l0.001-0.001z" stroke-width="0.665238178" stroke="#21231E" id="path_204"/><path fill="none" fill-rule="evenodd" d="M172.213 162.233c-0.132-3.734 0.493-7.811 1.204-11.245 0.975-4.709 1.478-9.223 1.509-13.964" stroke-width="0.666869997" stroke="#21231E" stroke-linecap="round" id="path_205"/><path fill="#FFFFFF" d="M172.267 101.794l-3.707 0.623c0.184 0.792 1.124 5.662 1.294 6.491 1.386 6.767 2.301 14.739 1.253 23.484-0.389 3.245-1.079 5.898-2.088 7.95 4.064-0.462 6.669-4.425 6.333-11.336 0.706-8.073 0.396-14.494-0.913-19.32-0.383-1.416-1.617-6.749-2.172-7.892z" stroke-width="0.665238178" stroke="#21231E" stroke-linejoin="round" id="path_206"/><path fill="#FFFFFF" d="M174.515 102.671l-1.822 2.073c0.518 0.369-0.358 1.959 0.112 5.047 0.306 1.752 1.35 3.819 1.567 6.056 0.717 7.413 0.719 16.695-1.512 22.63 4.064-0.462 5.46-4.14 5.592-11.059 0.108-5.722 0.128-12.468-1.311-20.255-0.292-1.82-1.168-3.272-2.626-4.492z" stroke-width="0.665238178" stroke="#21231E" id="path_207"/><path fill="#FFFFFF" d="M164.364 108.124l3.752-0.434c0.687 3.541 1.211 6.046 1.338 7.309 0.25 2.473-0.502 4.741-1.362 6.431-1.384-0.835-2.025-2.655-2.605-5.204-0.582-2.563-0.725-5.353-1.123-8.102z" stroke-width="0.666277588" stroke="#21231E" id="path_208"/><path fill="#FFFFFF" d="M154.621 116.1l3.33 0.035c0.115 3.055 0.199 5.122 0.145 6.197-0.106 2.112-0.634 3.901-1.537 5.241-1.011-0.841-1.969-2.328-2.12-4.536-0.151-2.218 0.164-4.579 0.182-6.936V116.1z" stroke-width="0.666074096" stroke="#21231E" id="path_209"/><path fill="#FFFFFF" d="M151.038 117.68l3.328 0.15c0.006 3.058 0.017 5.127-0.074 6.202-0.179 2.104-0.769 3.876-1.718 5.181-0.982-0.876-1.886-2.393-1.962-4.606-0.074-2.221 0.324-4.571 0.426-6.926v-0.001z" stroke-width="0.666082064" stroke="#21231E" id="path_210"/><path fill="#FFFFFF" d="M158.015 114.385l3.323-0.235c0.359 3.038 0.611 5.091 0.643 6.169 0.066 2.111-0.317 3.939-1.108 5.347-1.075-0.758-2.15-2.161-2.479-4.35-0.332-2.198-0.208-4.579-0.379-6.93v-0.001z" stroke-width="0.666074848" stroke="#21231E" id="path_211"/><path fill="#FFFFFF" d="M161.128 110.805l3.644-1.51c0.62 2.459 1.459 10.554-0.032 13.973-1.214-0.822-2.437-2.367-2.846-4.802-0.408-2.444-0.532-5.045-0.766-7.662v0.001z" stroke-width="0.666278774" stroke="#21231E" id="path_212"/><path fill="#FFFFFF" d="M165.943 106.791l5.821 0.516c1.344 3.333 2.223 6.289 2.651 8.969-2.702-0.474-4.659-1.8-5.362-4.215-0.949-3.262-2.615-4.694-3.11-5.271v0.001z" stroke-width="0.674560191" stroke="#21231E" stroke-linecap="round" stroke-linejoin="round" id="path_213"/><path fill="#FFFFFF" d="M148.822 115.074c0.445-0.093 0.898-0.22 1.356-0.381-2.131-1.334-3.897-2.949-5.999-6.167-2.15-3.297 0.944-9.185 2.212-12.308 2.653-1.961 5.152-4.844 5.947-8.644 0.313-2.044-5.332-1.305-9.215 0.526-4.745 2.239-5.391 1.619-7.083 1.996-0.604 2.906 0.657 3.15 1.868 3.009-2.615 4.188-3.706 8.358-4.228 14.354-0.522-5.996-1.612-10.166-4.227-14.354 1.211 0.141 2.47-0.103 1.868-3.009-1.692-0.377-2.338 0.243-7.085-1.996-3.881-1.831-9.528-2.57-9.213-0.526 0.795 3.8 3.293 6.683 5.945 8.644 1.27 3.123 4.364 9.011 2.214 12.308-2.102 3.218-3.87 4.833-6.001 6.167 0.461 0.161 0.913 0.288 1.356 0.381-0.321 0.439-3.084 1.3-3.409 1.072-2.114-1.495-4.175-5.005-5.974-7.043-5.093-5.775-7.636-10.23-6.737-13.825 1.28-3.872 5.844-8.217-0.203-7.465-6.045 0.751-11.058 9.039-12.667 19.009-0.597 3.7-0.943 6.796-1.348 9.331 3.301-1.178 4.763-2.35 5.639-3.798-0.392 1.377-0.688 2.682-0.887 3.928 2.699-0.478 4.658-1.803 5.36-4.22 0.282-0.978 0.632-1.793 0.994-2.467 0.831 0.293 1.907 0.276 3.214-0.043 0.497 1.183 4.218 5.324 6.215 8.365 2.257 3.435 5.648 6.059 6.764 6.204 0.561 0.071 0.733-1.168 0.609-2.878 5.898 0.041 11.793 0.076 17.573-0.12 5.78 0.196 11.674 0.161 17.572 0.12-0.124 1.71 0.048 2.949 0.607 2.878 1.118-0.145 4.51-2.769 6.764-6.204 2-3.041 5.72-7.182 6.215-8.365 1.31 0.319 2.385 0.336 3.214 0.043 0.364 0.674 0.712 1.489 0.996 2.467 0.702 2.417 2.661 3.742 5.36 4.22-0.199-1.246-0.495-2.551-0.889-3.928 0.878 1.448 2.34 2.62 5.639 3.798-0.402-2.535-0.748-5.631-1.346-9.331-1.609-9.97-6.621-18.259-12.668-19.009-6.045-0.752-1.482 3.593-0.202 7.465 0.9 3.595-1.643 8.05-6.737 13.825-1.8 2.038-3.86 5.548-5.976 7.043-0.322 0.228-3.086-0.633-3.409-1.072h0.002z" stroke-width="0.666869997" stroke="#21231E" stroke-linejoin="round" id="path_214"/><path fill="#EDB92F" d="M145.29 98.874c0.569 0.497 2.445 0.505 5.013 0.67 4.138 0.143 6.534-1.105 7.066-3.75-1.553 1.849-3.404 2.763-5.51 2.243-2.837-0.702-4.461-1.206-5.109-1.081-0.435 0.155-1.071 0.942-1.46 1.919v-0.001z" stroke-width="0.666897644" stroke="#21231E" stroke-linejoin="round" id="path_215"/><path fill="#EDB92F" d="M154.97 88.005c4.639 0.501 4.417 3.533 0.08 7.816-0.83 0.82-1.116 0.795-1.292-0.058-0.31-1.489-1.961-2.368-2.827-1.233-0.59 0.771-0.459 1.214-2.423 0.939-2.481 2.079-4.502 3.541-1.253 3.421 1.427-0.054 2.527 0.778 4.389 0.704-0.551 1.068-0.65 1.191-0.947 1.282-1.805 0.356-3.705-0.769-5.525-0.435-3.99 0.735 6.389-10.767 6.261-11.223-0.328-1.157 2.495-3.232 3.537-1.213z" stroke-width="0.672293672" stroke="#21231E" id="path_216"/><path fill="none" fill-rule="evenodd" d="M154.861 87.904c-0.384 1.093-1.117 2.094-2.2 3.009" stroke-width="0.671961492" stroke="#21231E" stroke-linecap="round" id="path_217"/><path fill="#21231E" fill-rule="evenodd" d="M155.851 90.129c-0.029-0.207-0.226-0.36-0.438-0.337-0.215 0.022-0.364 0.209-0.333 0.42 0.029 0.207 0.226 0.36 0.439 0.336 0.215-0.021 0.363-0.209 0.332-0.419" stroke-width="1" id="path_218"/><path fill="none" fill-rule="evenodd" d="M116.21 89.166c1.245-0.066 2.522 0.48 4.179 1.079 0.466 0.17 2.088 0.808 2.581 0.733" stroke-width="0.888982949" stroke="#21231E" stroke-linecap="round" id="path_219"/><path fill="none" fill-rule="evenodd" d="M129.523 93.119c-1.354-0.223-2.098-0.397-2.735-0.575" stroke-width="0.66686626" stroke="#21231E" stroke-linecap="round" id="path_220"/><path fill="none" fill-rule="evenodd" d="M117.199 89.258c0.524 0.957 1.144 2.256 2.247 2.873 0.829 0.464 1.752-0.268 2.425-1.527" stroke-width="0.888988131" stroke="#21231E" id="path_221"/><path fill="#21231E" fill-rule="evenodd" d="M119.005 91.668l-0.611-0.611c-0.298-0.377-0.126-0.878 0.518-1.504 0.47 0.203 0.845 0.359 1.222 0.516-0.249 0.847-0.626 1.381-1.129 1.599" stroke-width="1" id="path_222"/><path fill="none" fill-rule="evenodd" d="M150.167 89.257c-0.524 0.958-1.142 2.257-2.245 2.874-0.829 0.466-1.752-0.269-2.425-1.526" stroke-width="0.888988131" stroke="#21231E" id="path_223"/><path fill="#21231E" fill-rule="evenodd" d="M148.356 91.668l0.612-0.611c0.299-0.377 0.127-0.878-0.517-1.504-0.472 0.203-0.847 0.359-1.222 0.516 0.249 0.847 0.627 1.381 1.127 1.599" stroke-width="1" id="path_224"/><path fill="none" fill-rule="evenodd" d="M151.158 89.167c-1.245-0.068-2.522 0.479-4.177 1.079-0.468 0.168-2.088 0.806-2.584 0.732" stroke-width="0.888982949" stroke="#21231E" stroke-linecap="round" id="path_225"/><path fill="none" fill-rule="evenodd" d="M137.838 93.119c1.357-0.22 2.1-0.396 2.736-0.572" stroke-width="0.66686626" stroke="#21231E" stroke-linecap="round" id="path_226"/><path fill="none" fill-rule="evenodd" d="M117.185 114.693c2.647 0.928 5.041 0.745 6.836-1.023 0.284-0.278 0.555-0.545 0.808-0.799" stroke-width="0.666869997" stroke="#21231E" stroke-linecap="round" stroke-linejoin="round" id="path_227"/><path fill="none" fill-rule="evenodd" d="M125.15 111.257c-0.246 1.785-0.702 3.209-1.333 4.622 1.866-0.485 3.342-1.34 4.243-2.628m5.589 3.482c-1.456-1.768-2.351-3.812-2.452-6.103" stroke-width="0.666869997" stroke="#21231E" stroke-linecap="round" stroke-linejoin="round" id="path_228"/><path fill="none" fill-rule="evenodd" d="M127.689 110.995c0.165 1.787 0.675 3.315 1.505 4.498 0.897-0.679 1.767-1.789 2.166-3.378m18.819 2.578c-2.648 0.928-5.04 0.745-6.836-1.023-0.283-0.278-0.553-0.545-0.807-0.799" stroke-width="0.666869997" stroke="#21231E" stroke-linecap="round" stroke-linejoin="round" id="path_229"/><path fill="none" fill-rule="evenodd" d="M142.214 111.257c0.245 1.785 0.703 3.209 1.334 4.622-1.868-0.485-3.342-1.34-4.243-2.628" stroke-width="0.666869997" stroke="#21231E" stroke-linecap="round" stroke-linejoin="round" id="path_230"/><path fill="none" fill-rule="evenodd" d="M139.669 110.995c-0.162 1.787-0.673 3.315-1.502 4.498-0.9-0.679-1.768-1.789-2.166-3.378m-2.287 4.618c1.456-1.768 2.351-3.812 2.452-6.103" stroke-width="0.666869997" stroke="#21231E" stroke-linecap="round" stroke-linejoin="round" id="path_231"/><path fill="none" fill-rule="evenodd" d="M99.228 100.621c-2.098 1.499-5.966 12.347-6.264 15.531-0.688 7.362-0.659 16.474 1.542 22.327m73.628-37.858c2.1 1.499 5.967 12.347 6.265 15.531 0.686 7.362 0.659 16.474-1.541 22.327" stroke-width="0.665238178" stroke="#21231E" stroke-linecap="round" id="path_232"/><path fill="#EDB92F" fill-rule="evenodd" d="M112.396 88.005c-4.641 0.501-4.419 3.533-0.081 7.816 0.829 0.82 1.116 0.795 1.292-0.058 0.309-1.489 1.96-2.368 2.827-1.233 0.59 0.771 0.458 1.214 2.423 0.94 2.483 2.078 4.504 3.54 1.255 3.42-1.429-0.054-2.531 0.778-4.392 0.704 0.551 1.068 0.65 1.191 0.948 1.282 1.804 0.356 3.705-0.769 5.527-0.435 3.989 0.735-6.392-10.767-6.264-11.223 0.329-1.157-2.494-3.232-3.535-1.213z" stroke-width="0.672293672" stroke="#21231E" stroke-linejoin="round" id="path_233"/><path fill="none" fill-rule="evenodd" d="M112.505 87.904c0.383 1.093 1.118 2.094 2.199 3.009" stroke-width="0.671961492" stroke="#21231E" stroke-linecap="round" id="path_234"/><path fill="#21231E" fill-rule="evenodd" d="M111.515 90.129c0.031-0.207 0.228-0.36 0.441-0.337 0.214 0.022 0.363 0.209 0.332 0.42-0.029 0.207-0.226 0.36-0.439 0.336-0.214-0.021-0.363-0.209-0.334-0.419" stroke-width="1" id="path_235"/><path fill="#FFFFFF" d="M115.528 160.872l0.106-3.042c-1.222-0.619-4.237 0.017-5.51 2.825-1.587 3.502-3.088 5.366-4.991 7.008 2.76 0.514 5.096-0.031 6.602-2.05 2.032-2.724 3.117-4.374 3.792-4.741h0.001z" stroke-width="0.666872694" stroke="#21231E" stroke-linejoin="round" id="path_236"/><path fill="#FFFFFF" d="M117.766 161.274l-3.291-1.385c-1.35 2.748-2.269 4.603-2.652 5.61-0.748 1.977-0.953 3.839-0.607 5.448 1.336-0.342 2.88-1.294 3.924-3.249 1.046-1.965 1.692-4.258 2.626-6.424z" stroke-width="0.666865951" stroke="#21231E" id="path_237"/><path fill="#FFFFFF" d="M118.718 161.272l-3.529-0.54c-0.639 2.994-1.077 5.018-1.201 6.088-0.246 2.1 0.009 3.954 0.738 5.43 1.215-0.655 2.478-1.957 3.013-4.107 0.536-2.162 0.602-4.545 0.979-6.871z" stroke-width="0.666872686" stroke="#21231E" id="path_238"/><path fill="#FFFFFF" d="M119.238 156.474l2.104-0.016c1.23 0.61 2.52 3.406 1.029 6.105-1.858 3.365-2.456 5.683-2.636 8.189-2.059-1.904-3.02-4.103-2.301-6.518 0.971-3.257 1.915-7 1.804-7.761v0.001z" stroke-width="0.66686605" stroke="#21231E" stroke-linejoin="round" id="path_239"/><path fill="#FFFFFF" d="M120.18 155.008l-3.364-1.193c-1.19 2.819-2 4.724-2.325 5.753-0.636 2.017-0.735 3.885-0.296 5.47 1.315-0.414 2.982-1.274 3.91-3.287 0.934-2.021 1.267-4.527 2.075-6.743z" stroke-width="0.66687499" stroke="#21231E" id="path_240"/><path fill="#FFFFFF" d="M117.893 152.663l-0.737-4.572c-0.775-0.211-1.802 1.597-2.807 2.651-0.231 0.244-0.497 0.472-0.7 0.77-0.422 0.626-0.764 1.373-0.954 2.218-0.841 3.751-2.067 5.703-3.594 7.698 2.805-0.058 4.981-1.067 6.044-3.351 1.435-3.082 2.162-4.918 2.748-5.414z" stroke-width="0.666871722" stroke="#21231E" stroke-linejoin="round" id="path_241"/><path fill="#EDB92F" d="M153.226 162.361c0.893 0.037 1.992 0.549 5.196 3.324 1.402 2.853 2.813 5.722 4.758 8.196 0.663 0.437 1.184 0.742 1.71 0.916 0.549 0.182 4.589 0.044 4.687-0.124 1.257-1.14 3.179-0.329 2.54 0.874 0.497 0.472-0.598 2.199-1.481 1.482-0.81-0.657-3.626-0.034-4.566-0.374 0.357 0.845 2.902 1.392 4.681 1.521 1.626 0.069 1.519 1.691 0.849 2.933-0.762 0.486-0.136-0.126-0.412 0.229-0.728 1.079-2.285 0.939-2.338-0.115-0.055-1.091-3.852-2.51-4.421-3.347 0.697 1.657 2.303 3.201 3.101 4.823 0.857 0.858 1.375 1.03 0.27 2.763-1.226-0.14-1.299-0.465-2.053 0.249-1.681-0.183-1.952-0.68-1.682-2.008 0.288-1.404-0.888-3.941-1.281-4.658-0.36-0.661-0.449-1.348-0.799-1.763-0.61-0.719-3.511-2.158-4.254-1.762-1.366 0.728-2.411 0.29-2.584-1.035 0.441-0.34 0.109-2.222 1.055-2.301 0.773-0.065 1.234 0.173 1.944 0.753 1.12 0.912 1.694 1.399 2.064 1.296 0.872-0.24-1.583-1.442-3.818-4.368-3.096-4.055-3.308-6.115-3.166-7.503v-0.001z" stroke-width="0.665228259" stroke="#21231E" stroke-linejoin="round" id="path_242"/><path fill="#EDB92F" d="M171.929 176.304c1.119-0.657 1.765-0.63 2.198-0.143 0.24 0.269 0.544 0.129 0.366-0.292-0.745-1.76-1.934-1.978-3-1.154-0.297 0.276-0.537 0.514-0.777 0.75 0.178 0.265 1.07 0.636 1.213 0.839z" stroke-width="0.666752572" stroke="#21231E" id="path_243"/><path fill="#EDB92F" d="M155.884 174.725c-1.188-0.808-2.302-0.968-2.913-0.514-0.337 0.249-0.668 0.069-0.371-0.344 1.233-1.734 2.68-1.821 3.77-0.841 0.293 0.321 0.531 0.594 0.764 0.867-0.373 0.41-1.198 0.869-1.25 0.832z" stroke-width="0.662503937" stroke="#21231E" id="path_244"/><path fill="#EDB92F" d="M165.256 184.662c0.729 1.441 1.113 2.429 0.798 3.203-0.186 0.452 0.023 0.868 0.481 0.473 1.859-1.593 1.865-3.42 0.676-4.662-0.398-0.414-0.822-0.681-1.197-0.982-0.485 0.452-0.793 1.896-0.758 1.968z" stroke-width="0.666522065" stroke="#21231E" id="path_245"/><path fill="#EDB92F" d="M169.894 180.866c1.104 0.458 1.486 1.038 1.446 1.799-0.021 0.42 0.255 0.577 0.41 0.089 1.349-3.134-0.054-3.72-2.078-3.605-0.116 0.546 0.173 1.696 0.222 1.717z" stroke-width="0.666131595" stroke="#21231E" id="path_246"/><path fill="none" fill-rule="evenodd" d="M160.379 173.888c0.727-0.421 0.771-0.891 0.58-1.207-0.404-0.669-0.81-0.346-1.572 0.271" stroke-width="0.666864911" stroke="#21231E" id="path_247"/><path fill="none" fill-rule="evenodd" d="M159.438 172.869c0.727-0.424 0.772-0.894 0.582-1.209-0.406-0.667-0.812-0.346-1.574 0.271" stroke-width="0.666864911" stroke="#21231E" id="path_248"/><path fill="none" fill-rule="evenodd" d="M158.379 171.896c0.803-0.549 0.851-1.16 0.64-1.572-0.445-0.868-0.893-0.451-1.733 0.352" stroke-width="0.672532251" stroke="#21231E" id="path_249"/><path fill="none" fill-rule="evenodd" d="M157.239 170.673c0.851-0.622 0.903-1.311 0.681-1.777-0.474-0.982-0.95-0.508-1.841 0.398" stroke-width="0.67512055" stroke="#21231E" id="path_250"/><path fill="none" fill-rule="evenodd" d="M156.04 169.376c0.793-0.659 1.04-1.313 0.681-1.887-0.567-0.899-0.95-0.54-1.841 0.423" stroke-width="0.668548785" stroke="#21231E" id="path_251"/><path fill="#FFFFFF" fill-rule="evenodd" d="M151.839 160.874l-0.109-3.042c1.225-0.619 4.239 0.017 5.512 2.825 1.586 3.502 3.088 5.367 4.991 7.008-2.759 0.515-5.095-0.029-6.602-2.049-2.032-2.725-3.119-4.374-3.792-4.742z" stroke-width="0.666872694" stroke="#21231E" stroke-linejoin="round" id="path_252"/><path fill="#FFFFFF" fill-rule="evenodd" d="M149.595 161.272l3.291-1.385c1.35 2.748 2.268 4.603 2.651 5.611 0.751 1.976 0.956 3.838 0.608 5.447-1.337-0.342-2.88-1.294-3.922-3.249-1.048-1.964-1.694-4.26-2.628-6.424z" stroke-width="0.666865951" stroke="#21231E" id="path_253"/><path fill="#FFFFFF" fill-rule="evenodd" d="M148.648 161.27l3.53-0.539c0.638 2.993 1.077 5.018 1.2 6.087 0.246 2.101-0.009 3.955-0.738 5.431-1.215-0.656-2.479-1.957-3.013-4.108-0.536-2.162-0.601-4.542-0.979-6.87v-0.001z" stroke-width="0.666872686" stroke="#21231E" id="path_254"/><path fill="#FFFFFF" fill-rule="evenodd" d="M148.12 156.472l-2.104-0.015c-1.228 0.609-2.519 3.405-1.028 6.104 1.858 3.365 2.456 5.684 2.635 8.192 2.06-1.905 3.021-4.106 2.302-6.521-0.971-3.256-1.915-7-1.805-7.76z" stroke-width="0.66686605" stroke="#21231E" stroke-linejoin="round" id="path_255"/><path fill="#FFFFFF" fill-rule="evenodd" d="M147.186 155.01l3.365-1.193c1.191 2.817 2.001 4.724 2.326 5.753 0.636 2.017 0.733 3.885 0.294 5.47-1.315-0.415-2.98-1.274-3.91-3.287-0.934-2.023-1.267-4.529-2.075-6.743z" stroke-width="0.66687499" stroke="#21231E" id="path_256"/><path fill="#FFFFFF" fill-rule="evenodd" d="M149.476 152.662l0.737-4.573c0.775-0.209 1.802 1.597 2.806 2.651 0.232 0.244 0.498 0.472 0.701 0.772 0.422 0.624 0.764 1.371 0.954 2.218 0.841 3.749 2.067 5.7 3.595 7.696-2.806-0.058-4.982-1.067-6.045-3.351-1.435-3.08-2.162-4.917-2.748-5.412v-0.001z" stroke-width="0.666871722" stroke="#21231E" stroke-linejoin="round" id="path_257"/><path fill="#C7363D" d="M152.399 117.064v30.26c0 5.411-2.102 10.325-5.492 13.885-3.39 3.558-8.069 5.766-13.223 5.766h-0.002c-5.153 0-9.831-2.208-13.221-5.766-3.39-3.56-5.492-8.474-5.492-13.885v-30.26h37.43z" stroke-width="1.3023319" stroke="#21231E" id="path_258"/><path fill="#FFFFFF" d="M152.397 135.624v7.799H137.58v23.12c-1.259 0.282-2.563 0.431-3.899 0.431h-0.002c-1.334 0-2.639-0.149-3.896-0.431v-23.12h-14.817v-7.799h14.817v-18.561h7.796v18.561h14.818z" stroke-width="0.650415213" stroke="#21231E" id="path_259"/><path fill="#FFFFFF" d="M127.255 121.49v10.963c-2.39 0.642-8.209 2.961-8.513-2.121-0.139-2.35 2.917-3.899 3.74-1.824 0.389 0.982-0.034 1.677-0.609 1.903-0.621 0.242-1.235-0.259-1.073-1.008-2.473 1.294 2.212 4.038 4.326 0.466 0.617-1.042-1.039-2.125-1.041-2.896-0.001-0.772 1.627-1.926 1.041-2.897-2.141-3.555-6.799-0.828-4.326 0.464-0.162-0.747 0.452-1.249 1.073-1.008 0.575 0.227 0.998 0.921 0.609 1.903-0.823 2.075-3.879 0.526-3.74-1.823 0.304-5.081 6.123-2.764 8.513-2.122z" stroke-width="0.675469383" stroke="#21231E" stroke-linejoin="round" id="path_260"/><path fill="#FFFFFF" d="M140.111 121.49v10.963c2.39 0.642 8.209 2.961 8.513-2.121 0.141-2.35-2.916-3.899-3.738-1.824-0.393 0.982 0.033 1.677 0.607 1.903 0.621 0.242 1.238-0.259 1.073-1.008 2.473 1.294-2.21 4.038-4.326 0.466-0.617-1.042 1.041-2.125 1.043-2.896 0.002-0.772-1.629-1.926-1.043-2.897 2.141-3.555 6.799-0.828 4.326 0.464 0.165-0.747-0.452-1.249-1.073-1.008-0.574 0.227-1 0.921-0.607 1.903 0.822 2.075 3.879 0.526 3.738-1.823-0.304-5.081-6.123-2.764-8.513-2.122zm-12.856 36.074V146.6c-2.39-0.642-8.209-2.959-8.513 2.123-0.139 2.35 2.917 3.899 3.74 1.824 0.389-0.983-0.034-1.679-0.609-1.903-0.621-0.242-1.235 0.259-1.073 1.008-2.473-1.292 2.212-4.038 4.326-0.467 0.617 1.041-1.039 2.126-1.041 2.897-0.001 0.772 1.627 1.926 1.041 2.897-2.141 3.556-6.799 0.828-4.326-0.464-0.162 0.746 0.452 1.247 1.073 1.006 0.575-0.225 0.998-0.921 0.609-1.903-0.823-2.075-3.879-0.524-3.74 1.823 0.304 5.084 6.123 2.766 8.513 2.124v-0.001zm12.856 0V146.6c2.39-0.642 8.209-2.959 8.513 2.123 0.141 2.35-2.916 3.899-3.738 1.824-0.393-0.983 0.033-1.679 0.607-1.903 0.621-0.242 1.238 0.259 1.073 1.008 2.473-1.292-2.21-4.038-4.326-0.467-0.617 1.041 1.041 2.126 1.043 2.897 0.002 0.772-1.629 1.926-1.043 2.897 2.141 3.556 6.799 0.828 4.326-0.464 0.165 0.746-0.452 1.247-1.073 1.006-0.574-0.225-1-0.921-0.607-1.903 0.822-2.075 3.879-0.524 3.738 1.823-0.304 5.084-6.123 2.766-8.513 2.124v-0.001z" stroke-width="0.670605004" stroke="#21231E" stroke-linejoin="round" id="path_261"/><path fill="none" fill-rule="evenodd" d="M152.399 117.064v30.26c0 5.411-2.102 10.325-5.492 13.885-3.39 3.558-8.069 5.766-13.223 5.766h-0.002c-5.153 0-9.831-2.208-13.221-5.766-3.39-3.56-5.492-8.474-5.492-13.885v-30.26h37.43z" stroke-width="1.3023319" stroke="#21231E" id="path_262"/></svg>