<svg id="vector" xmlns="http://www.w3.org/2000/svg" width="32" height="16" viewBox="0 0 500 250"><path fill="#E62319" d="M0 0h500v250H0z" stroke-width="1" id="path_0"/><path fill="#0F378C" d="M0 0h500v166.7H0z" stroke-width="1" id="path_1"/><path fill="#FFFFFF" d="M0 0h500v83.3H0z" stroke-width="1" id="path_2"/><path fill="#0F378C" d="M154.712 87.691l2.626-38.746c-20.466-9.703-44.218-9.703-64.685 0l2.627 38.746c1.177 17.413 13.014 32.265 29.716 37.31 16.715-5.045 28.539-19.91 29.716-37.31" stroke-width="1" id="path_3"/><path fill="#FFFFFF" d="M100.739 92.93c2.82 12.666 12.006 22.951 24.257 27.168 12.264-4.217 21.449-14.502 24.257-27.155l-12.122-16.171-4.852 6.469-7.283-14.568-7.271 14.555-4.851-6.469-12.135 16.171" stroke-width="1" id="path_4"/><path fill="#0F378C" d="M101.839 96.99c2.264 3.881 7.18 5.175 11.061 2.976 2.523-1.423 5.563-1.423 8.085 0 2.523 1.423 5.563 1.423 8.086 0 2.523-1.423 5.563-1.423 8.086 0 3.881 2.264 8.797 0.905 11.061-2.976v2.329c-2.264 3.881-7.18 5.175-11.061 2.975-2.523-1.423-5.563-1.423-8.086 0-2.523 1.423-5.563 1.423-8.086 0-2.522-1.423-5.562-1.423-8.085 0-3.881 2.264-8.797 0.906-11.061-2.975V96.99zm0 6.898c2.264 3.881 7.18 5.175 11.061 2.976 2.523-1.423 5.563-1.423 8.085 0 2.523 1.423 5.563 1.423 8.086 0 2.523-1.423 5.563-1.423 8.086 0 3.881 2.264 8.797 0.905 11.061-2.976v2.329c-2.264 3.881-7.18 5.175-11.061 2.975-2.523-1.423-5.563-1.423-8.086 0-2.523 1.423-5.563 1.423-8.086 0-2.522-1.423-5.562-1.423-8.085 0-3.881 2.264-8.797 0.906-11.061-2.975v-2.329z" stroke-width="1" id="path_5"/><path fill="#FAD214" d="M125.002 57.548l0.611 1.979 2.008-0.466-1.426 1.514 1.426 1.514-2.008-0.466-0.611 1.979-0.611-1.979-2.008 0.466 1.426-1.514-1.426-1.514 2.008 0.466zm-13.477-17.931l0.611 1.979 2.008-0.466-1.426 1.514 1.426 1.514-2.008-0.466-0.611 1.979-0.611-1.979-2.008 0.466 1.426-1.514-1.426-1.514 2.008 0.466zm26.925 0l0.611 1.979 2.008-0.466-1.426 1.514 1.426 1.514-2.008-0.466-0.611 1.979-0.582-1.979-2.008 0.466 1.426-1.514-1.426-1.514 2.008 0.466z" stroke-width="1" id="path_6"/><path fill="#E62319" d="M94.93 47.91l2.678 39.613c1.1 16.184 11.954 30.052 27.388 35.02 15.434-4.968 26.288-18.836 27.388-35.02l2.678-39.613c0.75 0.349 1.513 0.698 2.264 1.035l-2.614 38.733c-1.177 17.413-13.014 32.265-29.716 37.31-16.702-5.045-28.539-19.91-29.716-37.31l-2.627-38.733c0.764-0.337 1.527-0.673 2.277-1.035" stroke-width="1" id="path_7"/></svg>