<svg id="vector" xmlns="http://www.w3.org/2000/svg" width="24" height="24" viewBox="0 0 512 512"><path fill="#0052B4" d="M482.19 376C501.219 340.208 512 299.363 512 256C512 212.637 501.219 171.792 482.19 136H29.8097C10.7813 171.792 0 212.637 0 256C0 299.363 10.7813 340.208 29.8097 376H482.19Z" id="path_0"/><path fill="#D80027" d="M496.474 344C460.589 442.034 366.465 512 256 512C145.535 512 51.4113 442.034 15.5261 344H496.474Z" id="path_1"/><path fill="#EEEEEE" d="M496.474 168H15.5264C51.4116 69.9657 145.535 0 256 0C366.465 0 460.589 69.9657 496.474 168Z" id="path_2"/><path fill="#0052B4" d="M222.609 202.709V100.173H89.043V202.709H222.609Z" id="path_3"/><path fill="#EEEEEE" d="M89.043 166.957V189.217C89.043 240.338 155.826 256.001 155.826 256.001C155.826 256.001 222.609 240.338 222.609 189.217V166.957L200.348 189.218L155.826 155.827L111.304 189.218L89.043 166.957Z" id="path_4"/></svg>