<svg xmlns="http://www.w3.org/2000/svg" viewBox="0 0 32 16">
  <g fill="none" fill-rule="evenodd">
    <rect width="32" height="16" fill="#0B4EA2" transform="matrix(1 0 0 -1 0 16)"/>
    <rect width="32" height="5" fill="#FFF"/>
    <rect width="32" height="5" y="11" fill="#EE1C25"/>
    <g fill-rule="nonzero" transform="translate(4 4)">
      <path fill="#FFF" d="M0,0 L0,5.16310661 C0,8.10007682 4.00002107,9 4.00002107,9 C4.00002107,9 8,8.10007682 8,5.16310661 L8,0 L0,0 Z"/>
      <path fill="#EE1C25" d="M1,0 L1,5.01574959 C1,7.30005975 4.00001581,8 4.00001581,8 C4.00001581,8 7,7.30005975 7,5.01574959 L7,0 L1,0 Z"/>
      <polygon fill="#FFF" points="6 3.5 4.5 3.5 4.5 2.5 5.5 2.5 5.5 1.5 4.5 1.5 4.5 .5 3.5 .5 3.5 1.5 2.5 1.5 2.5 2.5 3.5 2.5 3.5 3.5 2 3.5 2 4.5 3.5 4.5 3.5 7 4.5 7 4.5 4.5 6 4.5"/>
      <path fill="#0052B4" d="M4,5 C4.71368223,5 5.32696441,5.3728587 5.597131,5.90654848 C5.72462384,5.88073609 5.85722176,5.86668137 5.99371567,5.86668137 C6.27625772,5.86668137 6.54297624,5.92529189 6.77899192,6.02906019 C6.28231146,7.08754727 5.08287524,7.63811657 4.43406348,7.86732054 L4.26919847,7.92245701 L4.00001581,8 L4.00001581,8 L3.73071197,7.92244131 L3.73071197,7.92244131 L3.68801416,7.90893173 C3.08019487,7.7092684 1.75080849,7.15811307 1.22270254,6.03099169 C1.45738498,5.92521254 1.7239336,5.86668137 2.00628433,5.86668137 C2.14273346,5.86668137 2.27537616,5.88073609 2.402869,5.90654848 C2.6729908,5.3728587 3.28631777,5 4,5 Z"/>
    </g>
  </g>
</svg>
