<svg xmlns="http://www.w3.org/2000/svg" viewBox="0 0 32 16">
  <g fill="none" fill-rule="evenodd">
    <rect width="32" height="16" fill="#FE0000"/>
    <rect width="10" height="8" fill="#010066"/>
    <path fill="#FFF" fill-rule="nonzero" d="M5.94774691,5.20817592 L5.7845503,6.5004655 L4.89460797,5.54987878 L5.0646504,5.54231648 C5.39265376,5.51097384 5.6949792,5.39163372 5.94774691,5.20817592 Z M3.83355517,5.2073128 C4.12959758,5.42254687 4.49375427,5.54977276 4.88759004,5.55055528 L3.99756213,6.5004655 L3.83355517,5.2073128 Z M6.60360817,4.30817759 L7.22988948,5.4500139 L5.95012258,5.20644873 C6.25334161,4.98561997 6.48496184,4.67240456 6.60360817,4.30817759 Z M3.17927914,4.30939494 C3.29788954,4.67262729 3.52888199,4.98504872 3.83118096,5.20558371 L2.55226073,5.44993833 L3.17927914,4.30939494 Z M4.89108536,2.35216219 C5.66196762,2.35216219 6.28914567,2.97932789 6.28914567,3.75019497 C6.28909061,4.52106205 5.66185751,5.14822774 4.89108536,5.14822774 C4.1202031,5.14822774 3.49308011,4.52106205 3.49308011,3.75019497 C3.49308011,2.97932789 4.12025816,2.35216219 4.89108536,2.35216219 Z M6.60479421,3.19548882 L7.782188,3.75019497 L6.60400436,4.30695986 C6.66099517,4.13157955 6.691798,3.94438999 6.691798,3.75000604 C6.691798,3.55652202 6.66127972,3.37016592 6.60479421,3.19548882 Z M3.17769607,3.19548882 C3.12121056,3.37016592 3.09069227,3.55652202 3.09069227,3.75000604 C3.09069227,3.94394003 3.12135267,4.1307129 3.17809057,4.30574175 L2,3.75019497 L3.17769607,3.19548882 Z M7.22992727,2.0504516 L6.60400436,3.19305222 C6.48563243,2.82878112 6.2542836,2.51545602 5.95130931,2.29442838 L7.22992727,2.0504516 Z M2.55226073,2.0504516 L3.83118096,2.29442838 C3.52854433,2.51520969 3.2973736,2.82808284 3.17888211,3.1918345 L2.55226073,2.0504516 Z M3.99759992,1 L4.88735332,1.9491509 L4.71783988,1.9576956 C4.38932241,1.98908737 4.08656341,2.10875269 3.83355517,2.29269929 L3.99759992,1 Z M5.78458808,1 L5.94774691,2.29183616 C5.65192496,2.07712978 5.28822502,1.95024377 4.89492579,1.94945686 L5.78458808,1 Z"/>
  </g>
</svg>
