<svg id="vector" xmlns="http://www.w3.org/2000/svg" width="32" height="16" viewBox="0 0 500.0 250.0"><path fill="#B22234" d="M0 0h500v250H0z" id="path_0"/><path fill="#FFF" d="M0 19.5h500V39H0V19.5zM0 58h500v19.5H0V58zm0 38h500v19.5H0V96zm0 38.5h500V154H0v-19.5zm0 39h500V193H0v-19.5zm0 38h500V231H0v-19.5z" id="path_1"/><path fill="#3C3B6E" d="M0 0h190v134.5H0z" id="path_2"/><path fill="#FFF" d="M63.35 18.95l4.51 13.89-11.83-8.59h14.63l-11.83 8.59 4.52-13.9zm0 26.88l4.51 13.9-11.83-8.6h14.63l-11.83 8.6 4.52-13.9zm0 26.89l4.51 13.9-11.83-8.6h14.63l-11.83 8.59 4.52-13.9zm0 26.88l4.51 13.9-11.83-8.59h14.63l-11.83 8.59 4.52-13.9zM15.87 5.5l4.52 13.9-11.84-8.6h14.63l-11.83 8.6 4.52-13.9zm0 26.88l4.52 13.9L8.55 37.7h14.63l-11.83 8.6 4.52-13.9zm0 26.89l4.52 13.9-11.84-8.59h14.63l-11.83 8.59 4.52-13.9zm0 26.89l4.52 13.9-11.84-8.6h14.63l-11.83 8.6 4.52-13.9zm0 26.89l4.52 13.9-11.84-8.6h14.63l-11.83 8.59 4.52-13.9zm15.83-94.1l4.52 13.89-11.84-8.59h14.63l-11.83 8.59 4.52-13.9zm0 26.88l4.52 13.9-11.84-8.6h14.63l-11.83 8.6 4.52-13.9zm0 26.89l4.52 13.9-11.84-8.6h14.63l-11.83 8.59 4.52-13.9zm0 26.88l4.52 13.9-11.84-8.59h14.63l-11.83 8.59 4.52-13.9zM47.52 5.5l4.52 13.9-11.83-8.59h14.63L43 19.39 47.52 5.5zm0 26.88l4.52 13.9-11.83-8.59h14.63L43 46.3l4.52-13.9zm0 26.89l4.52 13.9-11.83-8.59h14.63L43 73.17l4.52-13.9zm0 26.89l4.52 13.9-11.83-8.6h14.63L43 100.06l4.52-13.9zm0 26.89l4.52 13.9-11.83-8.6h14.63L43 126.95l4.52-13.9zM79.17 5.5l4.52 13.9-11.83-8.59h14.63l-11.83 8.58L79.17 5.5zm0 26.88l4.52 13.9-11.83-8.59h14.63l-11.83 8.6 4.52-13.9zm0 26.89l4.52 13.9-11.83-8.59h14.63l-11.83 8.59 4.52-13.9zm0 26.89l4.52 13.9-11.83-8.6h14.63l-11.83 8.6 4.52-13.9zm0 26.89l4.52 13.9-11.83-8.6h14.63l-11.83 8.59 4.52-13.9zM95 18.95l4.52 13.89-11.83-8.59h14.63l-11.84 8.59L95 18.94zm0 26.88l4.52 13.9-11.83-8.6h14.63l-11.84 8.6L95 45.83zm0 26.89l4.52 13.9-11.83-8.6h14.63l-11.84 8.59L95 72.71zm0 26.88l4.52 13.9-11.83-8.59h14.63l-11.84 8.59L95 99.6zm15.83-94.1l4.52 13.9-11.83-8.59h14.62l-11.84 8.58 4.53-13.89zm0 26.88l4.52 13.9-11.83-8.59h14.62l-11.84 8.6 4.53-13.9zm0 26.89l4.52 13.9-11.83-8.59h14.62l-11.83 8.59 4.52-13.9zm0 26.89l4.52 13.9-11.83-8.6h14.62l-11.83 8.6 4.52-13.9zm0 26.89l4.52 13.9-11.83-8.6h14.62l-11.83 8.59 4.52-13.9zm15.82-94.1l4.52 13.89-11.83-8.59h14.63l-11.83 8.59 4.51-13.9zm0 26.88l4.52 13.9-11.83-8.6h14.63l-11.83 8.6 4.51-13.9zm0 26.89l4.52 13.9-11.83-8.6h14.63l-11.83 8.59 4.51-13.9zm0 26.88l4.52 13.9-11.83-8.59h14.63l-11.83 8.59 4.51-13.9zm15.83-94.1L147 19.4l-11.84-8.59h14.63l-11.83 8.58 4.52-13.89zm0 26.88l4.52 13.9-11.84-8.59h14.63l-11.83 8.6 4.52-13.9zm0 26.89l4.52 13.9-11.84-8.59h14.63l-11.83 8.59 4.52-13.9zm0 26.89l4.52 13.89-11.84-8.59h14.63l-11.83 8.59 4.52-13.89zm0 26.89l4.52 13.9-11.84-8.6h14.63l-11.83 8.59 4.52-13.9zm15.83-94.1l4.51 13.89L151 24.25h14.62l-11.84 8.59 4.53-13.9zm0 26.88l4.51 13.9-11.82-8.6h14.62l-11.84 8.6 4.53-13.9zm0 26.89l4.51 13.9-11.82-8.6h14.62l-11.84 8.59 4.53-13.9zm0 26.88l4.51 13.9-11.82-8.59h14.62l-11.84 8.59 4.53-13.9zm15.82-94.1l4.52 13.9-11.83-8.59h14.63l-11.84 8.58 4.52-13.89zm0 26.88l4.52 13.9-11.83-8.59h14.63l-11.84 8.6 4.52-13.9zm0 26.89l4.52 13.9-11.83-8.59h14.63l-11.84 8.59 4.52-13.9zm0 26.89l4.52 13.9-11.83-8.6h14.63l-11.84 8.6 4.52-13.9zm0 26.89l4.52 13.9-11.83-8.6h14.63l-11.84 8.59 4.52-13.9z" id="path_3"/></svg>