<svg id="vector" xmlns="http://www.w3.org/2000/svg" width="32" height="16" viewBox="0 0 32 16"><defs><clipPath id="clip_path_0"><path d="M0,0h32v16h-32z"/></clipPath></defs><g id="g_0"><g clip-path="url(#clip_path_0)"><path fill="#ffffff" d="M-0.552,-0.182H32.552V16.182H-0.552V-0.182Z"/><path fill="#0038A8" d="M13.207,1.635H32.552V3.456H13.207V1.635ZM13.207,5.273H32.552V7.09H13.207V5.273ZM-0.552,8.91H32.552V10.727H-0.552V8.91ZM-0.552,12.544H32.552V14.365H-0.552V12.544Z"/></g><path fill="#FCD116" d="M6.415,4.019L6.718,4.468C5.471,5.363 6.233,5.892 5.349,6.179C5.899,5.647 5.262,5.602 5.725,4.493"/><path fill="#000000" d="M6.423,3.977L6.759,4.476L6.736,4.493C6.426,4.715 6.243,4.913 6.128,5.089C6.012,5.265 5.964,5.421 5.926,5.559C5.922,5.575 5.918,5.59 5.914,5.605C5.882,5.725 5.852,5.837 5.785,5.934C5.708,6.045 5.583,6.134 5.358,6.207L5.234,6.247L5.327,6.157C5.463,6.026 5.522,5.928 5.545,5.839C5.568,5.75 5.556,5.666 5.539,5.557L5.539,5.556C5.523,5.448 5.504,5.319 5.518,5.147C5.532,4.975 5.58,4.761 5.697,4.482L5.709,4.454L5.765,4.477L5.753,4.505C5.638,4.78 5.592,4.987 5.578,5.152C5.565,5.317 5.583,5.44 5.599,5.548L5.6,5.551C5.616,5.657 5.63,5.752 5.603,5.854C5.583,5.933 5.54,6.013 5.46,6.105C5.6,6.045 5.682,5.976 5.735,5.899C5.796,5.812 5.823,5.711 5.856,5.59C5.86,5.575 5.864,5.56 5.868,5.544C5.906,5.403 5.957,5.24 6.077,5.056C6.194,4.877 6.377,4.68 6.677,4.461L6.373,4.011L6.423,3.977Z" fill-rule="evenodd"/><path fill="#000000" d="M5.718,5.448C5.767,5.119 5.832,4.685 6.172,4.131L6.223,4.162C5.89,4.706 5.827,5.13 5.778,5.457C5.777,5.465 5.776,5.473 5.775,5.48C5.75,5.645 5.727,5.789 5.67,5.91C5.613,6.033 5.521,6.131 5.362,6.206L5.336,6.152C5.483,6.082 5.564,5.994 5.615,5.884C5.668,5.773 5.69,5.638 5.715,5.471C5.716,5.464 5.717,5.456 5.718,5.448Z" fill-rule="evenodd"/><path fill="#FCD116" d="M6.622,3.13H7.227L6.622,6.43L6.017,3.13H6.622V6.43Z"/><path fill="#000000" d="M5.981,3.1H7.264L6.622,6.598L5.981,3.1ZM6.053,3.16L6.592,6.097V3.16H6.053ZM6.653,3.16V6.097L7.191,3.16H6.653Z" fill-rule="evenodd"/><path fill="#FCD116" d="M6.622,4.23C7.235,4.23 7.731,3.738 7.731,3.13C7.731,2.523 7.235,2.03 6.622,2.03C6.009,2.03 5.513,2.523 5.513,3.13C5.513,3.738 6.009,4.23 6.622,4.23Z"/><path fill="#000000" d="M6.622,2.06C6.026,2.06 5.543,2.539 5.543,3.13C5.543,3.721 6.026,4.2 6.622,4.2C7.218,4.2 7.701,3.721 7.701,3.13C7.701,2.539 7.218,2.06 6.622,2.06ZM5.482,3.13C5.482,2.506 5.993,2 6.622,2C7.251,2 7.762,2.506 7.762,3.13C7.762,3.754 7.251,4.26 6.622,4.26C5.993,4.26 5.482,3.754 5.482,3.13Z" fill-rule="evenodd"/><path fill="#000000" d="M7.438,2.69C7.368,2.77 7.328,2.63 7.075,2.63C6.823,2.63 6.783,2.78 6.743,2.75C6.702,2.72 6.954,2.54 7.035,2.53C7.116,2.52 7.348,2.6 7.438,2.69ZM7.146,2.78C7.217,2.84 7.156,2.97 7.086,2.97C7.015,2.97 6.884,2.85 6.944,2.77"/><path fill="#000000" d="M6.813,2.87C6.824,2.75 6.924,2.73 7.086,2.73C7.247,2.73 7.318,2.85 7.378,2.88C7.308,2.88 7.247,2.78 7.086,2.78C6.924,2.78 6.924,2.78 6.813,2.88M6.844,2.9C6.884,2.84 6.935,2.96 7.045,2.96C7.156,2.96 7.217,2.93 7.287,2.88C7.358,2.83 7.187,3 7.076,3C6.965,3 6.813,2.94 6.844,2.9Z"/><path fill="#000000" d="M7.186,2.96C7.318,2.89 7.237,2.79 7.186,2.77C7.207,2.79 7.287,2.89 7.186,2.96ZM6.622,3.56C6.682,3.56 6.702,3.54 6.783,3.54C6.864,3.54 7.055,3.65 7.166,3.61C6.934,3.7 7.025,3.64 6.622,3.64H6.571M7.207,3.7C7.166,3.63 7.176,3.65 7.096,3.54C7.176,3.6 7.197,3.63 7.207,3.7ZM6.622,3.8C6.874,3.8 6.833,3.75 7.166,3.61C6.924,3.64 6.874,3.72 6.622,3.72H6.571M6.622,3.43C6.692,3.43 6.712,3.38 6.793,3.38C6.874,3.38 6.985,3.41 7.035,3.45C7.045,3.46 7.005,3.37 6.924,3.36C6.844,3.35 6.874,3.22 6.783,3.2C6.783,3.24 6.813,3.23 6.823,3.29C6.823,3.34 6.733,3.34 6.712,3.29C6.733,3.37 6.672,3.37 6.622,3.37"/><path fill="#000000" d="M6.622,3.89C6.571,3.89 6.44,3.92 6.622,3.92C6.803,3.92 6.672,3.89 6.622,3.89Z"/></g></svg>