<svg width="32" height="16" viewBox="0 0 32 16" fill="none" xmlns="http://www.w3.org/2000/svg">
<g clip-path="url(#clip0_3056_43854)">
<g clip-path="url(#clip1_3056_43854)">
<path d="M-0.551758 -0.181763H32.5517V16.1819H-0.551758V-0.181763Z" fill="white"/>
<path d="M13.2069 1.63525H32.5517V3.45571H13.2069V1.63525ZM13.2069 5.27275H32.5517V7.0898H13.2069V5.27275ZM-0.551758 8.91025H32.5517V10.7273H-0.551758V8.91025ZM-0.551758 12.5443H32.5517V14.3648H-0.551758V12.5443Z" fill="#0038A8"/>
</g>
<path d="M6.41489 4.01889L6.7184 4.46826C5.47127 5.36315 6.23266 5.89234 5.34887 6.17879C5.89855 5.64688 5.26231 5.60205 5.72545 4.49339" fill="#FCD116"/>
<path fill-rule="evenodd" clip-rule="evenodd" d="M6.42289 3.97726L6.75946 4.47559L6.73582 4.49255C6.4264 4.71458 6.243 4.91289 6.12763 5.08911C6.01236 5.26516 5.96399 5.42063 5.92629 5.55948C5.92209 5.57492 5.91802 5.59023 5.91398 5.60541C5.88206 5.72538 5.85247 5.83662 5.78491 5.93356C5.70755 6.04457 5.58282 6.13442 5.35796 6.2073L5.23438 6.24735L5.32742 6.15731C5.46282 6.02629 5.52189 5.92838 5.54486 5.8395C5.56798 5.74999 5.55576 5.66592 5.53938 5.55678L5.53931 5.55635C5.52305 5.44801 5.5037 5.31904 5.51806 5.14716C5.53243 4.97514 5.58041 4.76143 5.69718 4.4819L5.70876 4.45419L5.76467 4.47715L5.75309 4.50486C5.63829 4.77967 5.59213 4.9873 5.57836 5.15212C5.5646 5.31685 5.58304 5.44009 5.59923 5.54795L5.59967 5.55086C5.61557 5.65682 5.62988 5.75218 5.60348 5.85439C5.58327 5.93259 5.53994 6.01272 5.46013 6.1052C5.60017 6.04496 5.68156 5.97632 5.73513 5.89946C5.79627 5.81172 5.82309 5.71126 5.85554 5.58976C5.85953 5.57479 5.86361 5.5595 5.86786 5.54388C5.90617 5.40277 5.95652 5.24025 6.07687 5.05644C6.19407 4.87743 6.3767 4.67963 6.67677 4.46099L6.37261 4.01064L6.42289 3.97726Z" fill="black"/>
<path fill-rule="evenodd" clip-rule="evenodd" d="M5.71815 5.4484C5.76745 5.11893 5.83232 4.68542 6.17177 4.13068L6.2235 4.1618C5.8904 4.70618 5.82697 5.12999 5.77796 5.4575C5.77683 5.46504 5.77571 5.47253 5.77459 5.47996C5.74987 5.6447 5.72692 5.78881 5.6702 5.90974C5.61253 6.03268 5.52066 6.13057 5.36159 6.20585L5.33553 6.1517C5.4826 6.0821 5.56391 5.99406 5.61533 5.88444C5.6677 5.77281 5.68974 5.63774 5.71474 5.47113C5.71587 5.46361 5.717 5.45603 5.71815 5.4484Z" fill="black"/>
<path d="M6.6222 3.13H7.22731L6.6222 6.43L6.01709 3.13H6.6222V6.43Z" fill="#FCD116"/>
<path fill-rule="evenodd" clip-rule="evenodd" d="M5.98096 3.09998H7.26368L6.62232 6.59768L5.98096 3.09998ZM6.05346 3.15998L6.59206 6.09727V3.15998H6.05346ZM6.65258 3.15998V6.09727L7.19118 3.15998H6.65258Z" fill="black"/>
<path d="M6.62207 4.23003C7.23475 4.23003 7.73143 3.73754 7.73143 3.13003C7.73143 2.52252 7.23475 2.03003 6.62207 2.03003C6.00938 2.03003 5.5127 2.52252 5.5127 3.13003C5.5127 3.73754 6.00938 4.23003 6.62207 4.23003Z" fill="#FCD116"/>
<path fill-rule="evenodd" clip-rule="evenodd" d="M6.62205 2.06C6.02607 2.06 5.54293 2.53905 5.54293 3.13C5.54293 3.72094 6.02607 4.2 6.62205 4.2C7.21803 4.2 7.70116 3.72094 7.70116 3.13C7.70116 2.53905 7.21803 2.06 6.62205 2.06ZM5.48242 3.13C5.48242 2.50592 5.99265 2 6.62205 2C7.25144 2 7.76167 2.50592 7.76167 3.13C7.76167 3.75408 7.25144 4.26 6.62205 4.26C5.99265 4.26 5.48242 3.75408 5.48242 3.13Z" fill="black"/>
<path d="M7.43849 2.69002C7.3679 2.77002 7.32756 2.63002 7.07543 2.63002C6.8233 2.63002 6.78296 2.78002 6.74262 2.75002C6.70228 2.72002 6.95441 2.54002 7.03509 2.53002C7.11577 2.52002 7.34773 2.60002 7.43849 2.69002ZM7.14602 2.78002C7.21662 2.84002 7.15611 2.97002 7.08551 2.97002C7.01492 2.97002 6.88381 2.85002 6.94432 2.77002" fill="black"/>
<path d="M6.81348 2.86998C6.82356 2.74998 6.92441 2.72998 7.08577 2.72998C7.24714 2.72998 7.31773 2.84998 7.37824 2.87998C7.30765 2.87998 7.24714 2.77998 7.08577 2.77998C6.92441 2.77998 6.92441 2.77998 6.81348 2.87998M6.84373 2.89998C6.88407 2.83998 6.9345 2.95998 7.04543 2.95998C7.15637 2.95998 7.21688 2.92998 7.28748 2.87998C7.35807 2.82998 7.18662 2.99998 7.07569 2.99998C6.96475 2.99998 6.81348 2.93998 6.84373 2.89998Z" fill="black"/>
<path d="M7.18648 2.96002C7.31759 2.89002 7.2369 2.79002 7.18648 2.77002C7.20665 2.79002 7.28733 2.89002 7.18648 2.96002ZM6.62171 3.56001C6.68222 3.56001 6.7024 3.54001 6.78308 3.54001C6.86376 3.54001 7.05537 3.65001 7.16631 3.61001C6.93435 3.70001 7.02512 3.64001 6.62171 3.64001H6.57129M7.20665 3.70001C7.16631 3.63001 7.17639 3.65001 7.09571 3.54001C7.17639 3.60001 7.19656 3.63001 7.20665 3.70001ZM6.62171 3.80001C6.87384 3.80001 6.8335 3.75001 7.16631 3.61001C6.92427 3.64001 6.87384 3.72001 6.62171 3.72001H6.57129M6.62171 3.43001C6.69231 3.43001 6.71248 3.38001 6.79316 3.38001C6.87384 3.38001 6.98478 3.41001 7.0352 3.45001C7.04529 3.46001 7.00495 3.37001 6.92427 3.36001C6.84359 3.35001 6.87384 3.22001 6.78308 3.20001C6.78308 3.24001 6.81333 3.23001 6.82342 3.29001C6.82342 3.34001 6.73265 3.34001 6.71248 3.29001C6.73265 3.37001 6.67214 3.37001 6.62171 3.37001" fill="black"/>
<path d="M6.6219 3.89001C6.57148 3.89001 6.44037 3.92001 6.6219 3.92001C6.80344 3.92001 6.67233 3.89001 6.6219 3.89001Z" fill="black"/>
</g>
<defs>
<clipPath id="clip0_3056_43854">
<rect width="32" height="16" fill="white"/>
</clipPath>
<clipPath id="clip1_3056_43854">
<rect width="33.1034" height="16.3636" fill="white" transform="translate(-0.551758 -0.181763)"/>
</clipPath>
</defs>
</svg>
