<svg xmlns="http://www.w3.org/2000/svg" viewBox="0 0 32 16"><defs><clipPath id="a"><path d="M0 0h324v162H0Z"/></clipPath><clipPath id="d"><path d="M0 0h324v162H0Z"/></clipPath><clipPath id="e"><path d="M0 0h324v162H0Z"/></clipPath><clipPath id="f"><path d="M0 0h324v162H0Z"/></clipPath><clipPath id="g"><path d="M0 0h324v162H0Z"/></clipPath><clipPath id="h"><path d="M0 0h324v162H0Z"/></clipPath><clipPath id="i"><path d="M0 0h324v162H0Z"/></clipPath><clipPath id="j"><path d="M0 0h324v162H0Z"/></clipPath><clipPath id="k"><path d="M0 0h324v162H0Z"/></clipPath><clipPath id="l"><path d="M0 0h324v162H0Z"/></clipPath><clipPath id="m"><path d="M0 0h324v162H0Z"/></clipPath><clipPath id="n"><path d="M0 0h324v162H0Z"/></clipPath><clipPath id="b"><path d="M-5.589-1.843h335.168v165.686H-5.589Z"/></clipPath><clipPath id="c"><path d="M-5.589-1.843h335.168v165.686H-5.589Z"/></clipPath></defs><g clip-path="url(#a)"><path clip-path="url(#b)" d="M-5.589-1.843h335.178v165.686H-5.589z" fill="#fff"/><path clip-path="url(#c)" d="M133.721 16.554h195.868v18.438H133.721zm0 36.835h195.868v18.397H133.721zM-5.589 90.214h335.178v18.397H-5.589zm0 36.794h335.178v18.438H-5.589z" fill="#0038a8"/></g><path clip-path="url(#d)" d="m64.952 40.692 3.068 4.547C55.394 54.3 63.109 59.657 54.159 62.562c5.568-5.386-.881-5.842 3.807-17.07" fill="#fcd116"/><path clip-path="url(#e)" d="m65.033 40.267 3.402 5.052-.233.173c-3.139 2.247-4.992 4.252-6.156 6.034-1.175 1.782-1.66 3.362-2.045 4.759-.041.162-.081.314-.122.466-.324 1.215-.627 2.349-1.306 3.331-.779 1.124-2.045 2.025-4.323 2.764l-1.256.405.942-.911c1.377-1.327 1.974-2.319 2.207-3.22s.112-1.752-.061-2.855v-.01c-.162-1.094-.354-2.4-.212-4.142.141-1.741.628-3.908 1.812-6.733l.122-.283.567.233-.122.283c-1.164 2.785-1.63 4.88-1.772 6.551-.131 1.671.051 2.916.213 4.009l.01.031c.162 1.073.304 2.035.03 3.068-.202.8-.637 1.61-1.448 2.541 1.418-.607 2.248-1.306 2.785-2.086.617-.881.891-1.903 1.225-3.128.041-.152.081-.304.121-.466.385-1.428.902-3.078 2.117-4.941 1.184-1.812 3.037-3.807 6.075-6.024l-3.078-4.557z" fill-rule="evenodd"/><path clip-path="url(#f)" d="M57.895 55.161c.496-3.331 1.154-7.725 4.597-13.335l.516.314c-3.372 5.508-4.01 9.801-4.506 13.112l-.03.233c-.253 1.671-.486 3.129-1.063 4.354-.577 1.245-1.509 2.237-3.119 2.997l-.263-.547c1.488-.709 2.309-1.6 2.825-2.714.537-1.123.759-2.49 1.012-4.181z" fill-rule="evenodd"/><path clip-path="url(#g)" d="M67.048 31.691h6.125l-6.125 33.413-6.126-33.413zv33.413Z" fill="#fcd116"/><path clip-path="url(#h)" d="M60.558 31.387h12.99l-6.5 35.418zm.729.608 5.457 29.737V31.995zm6.075 0v29.737l5.447-29.737z" fill-rule="evenodd"/><path clip-path="url(#i)" d="M67.048 42.829c6.206 0 11.228-4.982 11.228-11.138 0-6.146-5.022-11.137-11.228-11.137-6.207 0-11.229 4.991-11.229 11.137 0 6.156 5.022 11.138 11.229 11.138" fill="#fcd116"/><path clip-path="url(#j)" d="M67.048 20.858c-6.035 0-10.925 4.849-10.925 10.833s4.89 10.834 10.925 10.834c6.034 0 10.925-4.85 10.925-10.834s-4.891-10.833-10.925-10.833M55.505 31.691c0-6.318 5.174-11.441 11.543-11.441S78.59 25.373 78.59 31.691s-5.174 11.442-11.542 11.442c-6.369 0-11.543-5.124-11.543-11.442" fill-rule="evenodd"/><path clip-path="url(#k)" d="M75.31 27.236c-.709.81-1.114-.607-3.676-.607-2.551 0-2.956 1.519-3.361 1.215-.415-.304 2.136-2.126 2.956-2.228.82-.101 3.169.709 4.081 1.62m-2.957.912c.719.607.101 1.923-.607 1.923-.719 0-2.045-1.215-1.438-2.025"/><path clip-path="url(#l)" d="M68.982 29.059c.111-1.215 1.124-1.418 2.764-1.418 1.63 0 2.349 1.215 2.956 1.519-.709 0-1.326-1.012-2.956-1.012-1.64 0-1.64 0-2.764 1.012m.314.203c.405-.608.921.607 2.035.607 1.123 0 1.741-.304 2.45-.81.719-.506-1.013 1.215-2.137 1.215-1.123 0-2.662-.608-2.348-1.012"/><path clip-path="url(#m)" d="M72.758 29.97c1.337-.709.517-1.721 0-1.924.213.203 1.023 1.215 0 1.924m-5.71 6.075c.607 0 .81-.202 1.63-.202s2.754 1.113 3.878.708c-2.349.911-1.428.304-5.508.304h-.517m6.44.607c-.415-.708-.314-.506-1.124-1.619.81.607 1.023.911 1.124 1.619m-5.923 1.013c2.551 0 2.136-.506 5.508-1.924-2.45.304-2.957 1.114-5.508 1.114h-.517m.517-2.936c.709 0 .911-.507 1.731-.507s1.944.304 2.45.709c.102.101-.303-.81-1.123-.911-.81-.101-.507-1.418-1.428-1.62 0 .405.304.304.405.911 0 .507-.911.507-1.124 0 .213.81-.405.81-.911.81"/><path clip-path="url(#n)" d="M67.048 39.386c-.517 0-1.843.304 0 .304 1.832 0 .506-.304 0-.304"/><path d="M0 0h324v162H0Z" fill="#1e1e1e"/><path d="M0 0h324v162H0z" fill="#fff"/><path d="M90 18h234v18H90zm0 36h234v18H90zM0 90h324v18H0zm0 36h324v18H0z" fill="#0038a8"/><path d="m42.958 53.801 2.984 4.451c-12.246 8.864-4.772 14.102-13.441 16.93 5.394-5.267-.71-6.074 3.829-17.056" fill="#fcd116"/><path d="m42.958 53.801 2.984 4.451c-12.246 8.864-4.772 14.102-13.441 16.93 5.394-5.267-.71-6.074 3.829-17.056" stroke="#7b3f00" stroke-width="2.305" stroke-linecap="square" stroke-miterlimit="20"/><path d="m37.337 49.78-1.04 5.252c-14.92-2.39-13.341 6.597-21.48 2.47 7.539.091 3.964-4.867 14.94-9.414" fill="#fcd116"/><path d="m37.337 49.78-1.04 5.252c-14.92-2.39-13.341 6.597-21.48 2.47 7.539.091 3.964-4.867 14.94-9.414" stroke="#7b3f00" stroke-width="2.31" stroke-linecap="square" stroke-miterlimit="20"/><path d="m37.337 49.78-2.349-.419.02.099c-6.275 1.538-9.678 4.137-12.344 6.109-1.335.993-2.487 1.834-3.735 2.287a5.6 5.6 0 0 1-2.592.313c6.48 2.297 6.05-5.367 19.96-3.137z" fill="#fcd116" stroke="#7b3f00" stroke-width="1.039" stroke-linecap="square" stroke-miterlimit="20"/><path d="M34.939 49.166c-12.648 3.096-13.844 10.556-20.122 8.335" stroke="#7b3f00" stroke-width="2.31" stroke-miterlimit="20"/><path d="m44.999 44.996-4.198-4.199-18.903 27.3 27.3-18.903zL21.898 68.097z" fill="#fcd116"/><path d="m44.999 44.996-4.198-4.199-18.903 27.3m23.101-23.101 4.199 4.198-27.3 18.903m23.101-23.101L21.898 68.097" stroke="#7b3f00" stroke-width="2.305" stroke-miterlimit="20"/><path d="m36.201 42.961-4.449 2.98c-8.859-12.243-14.098-4.769-16.933-13.445 5.265 5.396 6.132-.706 17.107 3.84" fill="#fcd116"/><path d="m36.201 42.961-4.449 2.98c-8.859-12.243-14.098-4.769-16.933-13.445 5.265 5.396 6.132-.706 17.107 3.84" stroke="#7b3f00" stroke-width="2.31" stroke-linecap="square" stroke-miterlimit="20"/><path d="m36.2 42.961-1.364-1.958-.056.084c-5.524-3.35-9.767-3.918-13.047-4.408-1.646-.243-3.055-.462-4.258-1.025a5.6 5.6 0 0 1-2.054-1.612c2.958 6.209 8.072.483 16.331 11.899z" fill="#fcd116" stroke="#7b3f00" stroke-width="1.04" stroke-linecap="square" stroke-miterlimit="20"/><path d="M34.94 40.831c-11.133-6.754-17.253-2.324-20.122-8.335" stroke="#7b3f00" stroke-width="2.31" stroke-miterlimit="20"/><path d="M45 44.999v-5.94l-32.668 5.94L45 50.939zH12.332z" fill="#fcd116"/><path d="M45 44.999v-5.94l-32.668 5.94L45 50.939zm0 0H12.332" stroke="#7b3f00" stroke-width="2.31" stroke-miterlimit="20"/><path d="M45 44.999v5.94zH12.332L45 50.939m-4.782-13.603-5.252-1.04c2.392-14.921-6.598-13.34-2.468-21.48-.092 7.539 5.126 4.563 9.672 15.539" fill="#fcd116"/><path d="m40.218 37.336-5.252-1.04c2.392-14.921-6.598-13.34-2.468-21.48-.092 7.539 5.126 4.563 9.672 15.539" stroke="#7b3f00" stroke-width="2.31" stroke-linecap="square" stroke-miterlimit="20"/><path d="m40.218 37.335.42-2.349-.099.02c-1.538-6.275-4.137-9.677-6.109-12.343-.993-1.336-1.834-2.487-2.287-3.736a5.6 5.6 0 0 1-.313-2.592c-2.298 6.481 5.367 6.05 3.136 19.961z" fill="#fcd116" stroke="#7b3f00" stroke-width="1.04" stroke-linecap="square" stroke-miterlimit="20"/><path d="M40.833 34.938c-3.096-12.648-10.557-13.844-8.335-20.122" stroke="#7b3f00" stroke-width="2.31" stroke-miterlimit="20"/><path d="m45 44.999 4.2-4.2-27.301-18.901L40.8 49.199zL21.899 21.898z" fill="#fcd116"/><path d="m45 44.999 4.2-4.2-27.301-18.901L40.8 49.199zm0 0L21.899 21.898" stroke="#7b3f00" stroke-width="2.31" stroke-miterlimit="20"/><path d="m45 44.999-4.2 4.2zL21.899 21.898 40.8 49.199m6.239-13-2.98-4.449c12.242-8.858 4.766-14.097 13.443-16.932-5.396 5.265.685 6.134-3.86 17.109" fill="#fcd116"/><path d="m47.039 36.199-2.98-4.449c12.242-8.858 4.766-14.097 13.443-16.932-5.396 5.265.685 6.134-3.86 17.109" stroke="#7b3f00" stroke-width="2.31" stroke-linecap="square" stroke-miterlimit="20"/><path d="m47.039 36.199 1.958-1.364-.084-.056c3.349-5.524 3.917-9.767 4.407-13.047.242-1.646.462-3.055 1.024-4.258a5.6 5.6 0 0 1 1.612-2.054c-6.209 2.957-.482 8.073-11.897 16.33z" fill="#fcd116" stroke="#7b3f00" stroke-width="1.039" stroke-linecap="square" stroke-miterlimit="20"/><path d="M49.167 34.938c6.754-11.132 2.325-17.252 8.335-20.12" stroke="#7b3f00" stroke-width="2.31" stroke-miterlimit="20"/><path d="M45 44.999h5.94L45 12.331l-5.939 32.668zV12.331z" fill="#fcd116"/><path d="M45 44.999h5.94L45 12.331l-5.939 32.668zm0 0V12.331" stroke="#7b3f00" stroke-width="2.31" stroke-miterlimit="20"/><path d="M45 44.999h-5.939zV12.331l-5.939 32.668m13.602-4.781 1.039-5.253c14.921 2.392 13.34-6.597 21.48-2.467-7.539-.092-4.178 4.891-15.153 9.437" fill="#fcd116"/><path d="m52.663 40.218 1.039-5.253c14.921 2.392 13.34-6.597 21.48-2.467-7.539-.092-4.178 4.891-15.153 9.437" stroke="#7b3f00" stroke-width="2.31" stroke-linecap="square" stroke-miterlimit="20"/><path d="m52.663 40.218 2.35.42-.02-.1C61.267 39 64.67 36.402 67.335 34.43c1.336-.993 2.487-1.834 3.735-2.287a5.6 5.6 0 0 1 2.592-.313c-6.48-2.298-6.049 5.367-19.96 3.135z" fill="#fcd116" stroke="#7b3f00" stroke-width="1.039" stroke-linecap="square" stroke-miterlimit="20"/><path d="M55.061 40.832c12.647-3.096 13.843-10.556 20.121-8.335" stroke="#7b3f00" stroke-width="2.31" stroke-miterlimit="20"/><path d="m45 44.999 4.2 4.2 18.9-27.3-27.3 18.9zl23.1-23.1z" fill="#fcd116"/><path d="m45 44.999 4.2 4.2 18.9-27.3-27.3 18.9zm0 0 23.1-23.1" stroke="#7b3f00" stroke-width="2.31" stroke-miterlimit="20"/><path d="m45 44.999-4.2-4.2zl23.1-23.1-27.3 18.9m13 6.237 4.449-2.979c8.86 12.242 14.099 4.768 16.935 13.444-5.266-5.396-6.257.644-17.233-3.902" fill="#fcd116"/><path d="m53.8 47.036 4.449-2.979c8.86 12.242 14.099 4.768 16.935 13.444-5.266-5.396-6.257.644-17.233-3.902" stroke="#7b3f00" stroke-width="2.31" stroke-linecap="square" stroke-miterlimit="20"/><path d="m53.8 47.036 1.365 1.958.056-.083c5.524 3.349 9.768 3.917 13.048 4.407 1.646.243 3.056.462 4.259 1.025.802.368 1.506.92 2.054 1.611-2.958-6.207-8.073-.482-16.333-11.897z" fill="#fcd116" stroke="#7b3f00" stroke-width="1.04" stroke-linecap="square" stroke-miterlimit="20"/><path d="M55.062 49.166c11.133 6.754 17.254 2.325 20.122 8.334" stroke="#7b3f00" stroke-width="2.31" stroke-miterlimit="20"/><path d="M45 44.999v5.939l32.671-5.939L45 39.059zh32.671z" fill="#fcd116"/><path d="M45 44.999v5.939l32.671-5.939L45 39.059zm0 0h32.671" stroke="#7b3f00" stroke-width="2.31" stroke-miterlimit="20"/><path d="M45 44.999v-5.94zh32.671L45 39.059m4.782 13.604 5.252 1.039c-2.392 14.921 6.598 13.341 2.468 21.48.092-7.539-4.87-4.047-9.416-15.023" fill="#fcd116"/><path d="m49.782 52.663 5.252 1.039c-2.392 14.921 6.598 13.341 2.468 21.48.092-7.539-4.87-4.047-9.416-15.023" stroke="#7b3f00" stroke-width="2.31" stroke-linecap="square" stroke-miterlimit="20"/><path d="m49.782 52.663-.42 2.349.099-.02c1.538 6.275 4.137 9.677 6.109 12.343.993 1.336 1.834 2.487 2.287 3.736.307.827.414 1.715.313 2.592 2.298-6.481-5.367-6.049-3.136-19.961z" fill="#fcd116" stroke="#7b3f00" stroke-width="1.04" stroke-linecap="square" stroke-miterlimit="20"/><path d="M49.167 55.06c3.096 12.648 10.557 13.844 8.335 20.122" stroke="#7b3f00" stroke-width="2.31" stroke-miterlimit="20"/><path d="m45 44.999-4.2 4.2L68.101 68.1 49.2 40.799zL68.101 68.1z" fill="#fcd116"/><path d="m45 44.999-4.2 4.2L68.101 68.1 49.2 40.799zm0 0L68.101 68.1" stroke="#7b3f00" stroke-width="2.31" stroke-miterlimit="20"/><path d="m45 44.999 4.2-4.2zL68.101 68.1 49.2 40.799" fill="#fcd116"/><path d="m42.968 53.801-1.963 1.361.087.048c-3.343 5.52-3.917 9.768-4.403 13.053-.243 1.642-.466 3.051-1.03 4.256a5.6 5.6 0 0 1-1.613 2.051c6.2-2.955.486-8.067 11.896-16.328z" fill="#7b3f00" stroke="#7b3f00" stroke-width="1.058" stroke-miterlimit="20"/><path d="M40.83 55.065c-6.755 11.127-2.323 17.25-8.339 20.117" stroke="#7b3f00" stroke-width="2.305" stroke-miterlimit="20"/><path d="M44.999 44.996h-5.938l5.938 32.674 5.938-32.674zV77.67z" fill="#fcd116"/><path d="M44.999 44.996h-5.938l5.938 32.674m0-32.674h5.938L44.999 77.67m0-32.674V77.67" stroke="#7b3f00" stroke-width="2.305" stroke-miterlimit="20"/><path d="M44.999 44.996V77.67l5.938-32.674" fill="#7b3f00"/><path d="M44.999 44.996 21.898 68.097l27.3-18.903" fill="#7b3f00"/><path d="M44.999 55.89c6.017 0 10.895-4.877 10.895-10.894s-4.878-10.895-10.895-10.895-10.895 4.878-10.895 10.895S38.982 55.89 44.999 55.89Z" fill="#fcd116" stroke="#7b3f00" stroke-width="2.305"/><path d="M53.017 40.642c-.69.787-1.089-.593-3.567-.593s-2.867 1.487-3.265 1.186 2.079-2.08 2.867-2.177a7 7 0 0 1 3.955 1.584m-2.867.894a1.165 1.165 0 0 1-.593 1.885c-.69 0-1.982-1.185-1.389-1.982" fill="#7b3f00"/><path d="M46.884 42.42c.097-1.185 1.089-1.389 2.673-1.389s2.274 1.185 2.867 1.486c-.69 0-1.283-.991-2.867-.991s-1.584 0-2.673.991m.301.195c.399-.593.895.593 1.983.593a3.6 3.6 0 0 0 2.371-.788c.691-.495-.991 1.186-2.079 1.186s-2.576-.593-2.275-.991m-7.726-1.283c-.495.194-1.283 1.186 0 1.885-.991-.69-.194-1.681 0-1.885" fill="#7b3f00"/><path d="M50.548 41.439c.195.194.992 1.185 0 1.885 1.283-.69.496-1.681 0-1.885m-7.123 4.257c-.895.194-.593 1.486-1.39 1.584-.797.097-1.186.991-1.089.894.496-.399 1.584-.69 2.372-.69s.991.495 1.681.495.894-.495 1.681-.495c.788 0 1.886.301 2.372.69.097.097-.302-.787-1.089-.894s-.495-1.39-1.39-1.584c0 .398.302.301.399.894 0 .495-.894.495-1.089 0 .195.787-.398.787-.894.787-.495 0-1.088 0-.894-.787-.194.495-1.088.495-1.088 0 .097-.593.398-.496.398-.894zm-3.072 3.362c-.787.593-.991.894-1.088 1.584a7 7 0 0 1 .534-.826l-.136-.058.166.019z" fill="#7b3f00"/><path d="m39.819 49.777-.01.02c.126.029.253.039.389.039zm.379.059q.787.143 1.545.398c.554-.039 1.322-.185 3.256-.185s2.702.136 3.256.185q.758-.255 1.545-.398c-1.089 0-2.546-.778-3.217-.778-.787 0-.991.194-1.584.194s-.787-.194-1.584-.194c-.671 0-2.129.778-3.217.778m9.602 0c.136 0 .272-.01.389-.039l-.01-.02z" fill="#7b3f00"/><path d="m50.179 49.777.165-.019-.136.058q.296.395.535.826c-.097-.69-.302-.991-1.089-1.584z" fill="#7b3f00"/><path d="M50.208 49.807c-1.04.388-1.399.456-1.953.417-.943.302-1.711.613-3.256.613s-2.313-.311-3.256-.613c-.554.039-.913-.029-1.944-.427 3.101 1.341 2.77 1.827 5.2 1.827 2.429 0 2.099-.486 5.209-1.817m-10.409-.01c-.038-.029-.097-.039-.145-.049zm10.409 0 .146-.049a.7.7 0 0 1-.156.039zm-13.23-9.155c.694.792 1.09-.595 3.566-.595s2.872 1.486 3.268 1.189-2.08-2.08-2.872-2.179c-.793-.099-3.07.693-3.962 1.585m2.872.891c-.693.594-.099 1.881.594 1.881.694 0 1.981-1.188 1.387-1.98" fill="#7b3f00"/><path d="M43.118 42.424c-.099-1.188-1.089-1.386-2.674-1.386s-2.277 1.188-2.872 1.485c.694 0 1.288-.99 2.872-.99 1.585 0 1.585 0 2.674.99m-.297.198c-.396-.594-.891.594-1.98.594-1.09 0-1.684-.297-2.377-.792s.99 1.189 2.08 1.189c1.089 0 2.574-.595 2.277-.991m2.178 9.807c-.496 0-1.779.301 0 .301s.496-.301 0-.301" fill="#7b3f00"/></svg>
