<svg xmlns="http://www.w3.org/2000/svg" viewBox="0 0 32 16">
  <g fill="none" fill-rule="evenodd">
    <rect width="32" height="16" fill="#FC0" transform="matrix(1 0 0 -1 0 16)"/>
    <rect width="32" height="5" y="11" fill="#CF142B" transform="matrix(1 0 0 -1 0 27)"/>
    <rect width="32" height="5" y="6" fill="#00247D" transform="matrix(1 0 0 -1 0 17)"/>
    <path fill="#FFF" fill-rule="nonzero" d="M21.0109062,9.5226875 L21.1943437,10.0265625 L21.7302187,10.007875 L21.3076875,10.3380625 L21.4910625,10.8418438 L21.0464687,10.5420625 L20.6239062,10.8721875 L20.7716562,10.3567188 L20.327125,10.0568438 L20.8630312,10.0381563 L21.0109062,9.5226875 Z M10.739125,9.52275 L10.8870937,10.03825 L11.4229375,10.0569688 L10.978375,10.3568438 L11.126125,10.8722813 L10.703625,10.5421563 L10.2590312,10.8419375 L10.4424375,10.3380625 L10.0198125,10.007875 L10.5558125,10.0265625 L10.739125,9.52275 Z M19.806375,7.92384375 L20.1510312,8.3346875 L20.6481562,8.1338125 L20.3640625,8.58859375 L20.7087812,8.99928125 L20.1884375,8.86971875 L19.90425,9.324375 L19.8667812,8.78946875 L19.3465,8.6596875 L19.84375,8.45878125 L19.806375,7.92384375 Z M11.9436562,7.9239375 L11.906375,8.45896875 L12.4035,8.659875 L11.8832187,8.78953125 L11.84575,9.324375 L11.5616875,8.86971875 L11.0413437,8.999375 L11.3860312,8.58859375 L11.1018125,8.1338125 L11.5990937,8.3346875 L11.9436562,7.9239375 Z M18.9904375,6.74278125 L18.879,7.2673125 L19.343375,7.5354375 L18.8100937,7.59165625 L18.6985937,8.11603125 L18.4804687,7.62621875 L17.947125,7.6821875 L18.3456875,7.323375 L18.1275937,6.8335625 L18.5919687,7.101625 L18.9904375,6.74278125 Z M12.7595312,6.74278125 L13.1580937,7.101625 L13.622375,6.8335625 L13.4043437,7.3235625 L13.8028125,7.6823125 L13.2695312,7.62621875 L13.0513437,8.11603125 L12.94,7.5915625 L12.4066875,7.5355625 L12.8710625,7.267375 L12.7595312,6.74278125 Z M16.9569375,6.00271875 L17.0316562,6.53375 L17.5596875,6.6268125 L17.07775,6.862 L17.1524062,7.393 L16.7799062,7.00725 L16.2978437,7.2423125 L16.5496562,6.76878125 L16.177125,6.38309375 L16.70525,6.4761875 L16.9569375,6.00271875 Z M14.7930312,6.00271875 L15.0448125,6.4761875 L15.5728125,6.38303125 L15.2004062,6.768875 L15.4520625,7.242375 L14.970125,7.00725 L14.5975625,7.39290625 L14.6722812,6.862 L14.1903125,6.6269375 L14.7184062,6.53375 L14.7930312,6.00271875 Z"/>
  </g>
</svg>
