<svg width="70" height="70" viewBox="0 0 70 70" fill="none" xmlns="http://www.w3.org/2000/svg">
<path d="M59.4461 50.1297L38.9577 16.3951C38.5574 15.655 37.9729 15.0307 37.2607 14.5826C36.5485 14.1346 35.7327 13.8779 34.8923 13.8374C34.0517 13.8767 33.2362 14.1361 32.5275 14.5897C31.8187 15.0433 31.2416 15.6752 30.8538 16.422L10.6884 49.6989C10.2076 50.364 9.91041 51.144 9.82689 51.9605C9.74118 52.7839 9.89054 53.6147 10.2577 54.3566C10.7515 55.0957 11.4334 55.6898 12.2331 56.0778C13.0328 56.4659 13.9215 56.6338 14.8077 56.5643H54.95C55.8257 56.6465 56.7079 56.5043 57.5134 56.151C58.3189 55.7977 59.0211 55.245 59.5538 54.5451C59.9178 53.8572 60.103 53.0887 60.0923 52.3105C60.0907 51.5488 59.8762 50.8028 59.473 50.1566L59.4461 50.1297ZM31.9577 46.6566C31.9592 45.8564 32.2668 45.087 32.8175 44.5063C33.3682 43.9256 34.1201 43.5776 34.9192 43.5336C35.3068 43.5341 35.6903 43.6131 36.0466 43.7658C36.4029 43.9185 36.7245 44.1417 36.9923 44.422C37.5633 45.0259 37.8812 45.8256 37.8807 46.6566C37.9047 47.4596 37.6092 48.2394 37.0591 48.8248C36.5089 49.4103 35.7491 49.7537 34.9461 49.7797H34.8923C34.5153 49.7777 34.1425 49.7005 33.7958 49.5525C33.4491 49.4046 33.1353 49.1889 32.873 48.9182C32.298 48.3039 31.9718 47.4979 31.9577 46.6566ZM32.7115 26.9489C32.9744 26.6339 33.304 26.3811 33.6765 26.2088C34.049 26.0366 34.455 25.9491 34.8654 25.9528H35.0538C35.4632 25.9553 35.8672 26.0455 36.2387 26.2173C36.6103 26.3892 36.9407 26.6386 37.2077 26.9489C37.8232 27.6669 38.1495 28.5882 38.123 29.5336C37.833 33.1886 37.3114 36.8215 36.5615 40.4105H33.3846C32.6258 36.822 32.0952 33.1891 31.7961 29.5336C31.7922 28.5873 32.1264 27.6707 32.7384 26.9489H32.7115Z" fill="#E04239"/>
</svg>
