<svg height="14" viewBox="0 0 14 14" width="14" xmlns="http://www.w3.org/2000/svg"><g fill="none" fill-rule="evenodd" transform="translate(1 1)"><path d="m5.83182434 11.6636487c3.22082765 0 5.83182436-2.61099671 5.83182436-5.83182436s-2.61099671-5.83182434-5.83182436-5.83182434-5.83182434 2.61099669-5.83182434 5.83182434 2.61099669 5.83182436 5.83182434 5.83182436zm0 1c-3.7731124 0-6.83182434-3.05871196-6.83182434-6.83182436s3.05871194-6.83182434 6.83182434-6.83182434 6.83182436 3.05871194 6.83182436 6.83182434-3.05871196 6.83182436-6.83182436 6.83182436z" fill="#df4744" fill-rule="nonzero"/><circle cx="5.832" cy="5.832" fill="#fc5753" r="5.832"/><path d="m5.93670134 5.13969309 2.45068661-2.45068661c.22265389-.22265389.57472226-.21782646.7948489.00230017.21368888.21368889.22115646.57599261.00230017.7948489l-2.45068661 2.45068662 2.45068661 2.45068661c.21885629.21885629.21138871.58116001-.00230017.7948489-.22012664.22012663-.57219501.22495406-.7948489.00230017l-2.45068661-2.45068661-2.45068662 2.45068661c-.22265389.22265389-.57472226.21782646-.7948489-.00230017-.21368888-.21368889-.22115646-.57599261-.00230017-.7948489l2.45068661-2.45068661-2.45068661-2.45068662c-.21885629-.21885629-.21138871-.58116001.00230017-.7948489.22012664-.22012663.57219501-.22495406.7948489-.00230017z" fill="#000" opacity=".503"/></g></svg>