<svg fill="none" height="28" viewBox="0 0 28 28" width="28" xmlns="http://www.w3.org/2000/svg"><g clip-rule="evenodd" fill="#fff" fill-rule="evenodd"><path d="m7.3818 7.46819c.29371-.29208.76859-.29074 1.06066.00297l11.93294 12.00004c.2921.2937.2908.7685-.003 1.0606-.2937.2921-.7685.2908-1.0606-.003l-11.93297-11.99996c-.29207-.29371-.29074-.76858.00297-1.06065z"/><path d="m20.3724 7.46819c.2938.29207.2951.76694.003 1.06065l-11.93294 11.99996c-.29207.2938-.76695.2951-1.06066.003s-.29504-.7669-.00297-1.0606l11.93297-12.00004c.2921-.29371.7669-.29505 1.0606-.00297z"/></g></svg>