<svg width="16" height="16" viewBox="0 0 16 16" xmlns="http://www.w3.org/2000/svg">
    <path d="m9 0 .268 2.134a5.966 5.966 0 0 1 1.983.822l1.699-1.32 1.414 1.414-1.32 1.699c.385.597.668 1.267.822 1.984L16 7v2l-2.134.268a5.966 5.966 0 0 1-.822 1.983l1.32 1.699-1.414 1.414-1.699-1.32a5.966 5.966 0 0 1-1.983.822L9 16H7l-.267-2.134a5.966 5.966 0 0 1-1.984-.822l-1.699 1.32-1.414-1.414 1.32-1.699a5.966 5.966 0 0 1-.822-1.983L0 9V7l2.134-.267a5.966 5.966 0 0 1 .822-1.984L1.636 3.05 3.05 1.636l1.699 1.32a5.966 5.966 0 0 1 1.984-.822L7 0h2zM8 4a4 4 0 1 0 0 8 4 4 0 0 0 0-8z" fill="#fff" fill-rule="evenodd"/>
</svg>
