<svg width="16" height="16" viewBox="0 0 16 16" xmlns="http://www.w3.org/2000/svg">
    <path d="M4.999.582v2.221a6 6 0 0 0 3 11.197v2A8 8 0 0 1 5 .582zm8.42 8.644.042.082L15 12.998V13l.962 2.308a.5.5 0 0 1-.88.464l-.043-.08L14.333 14h-2.666l-.706 1.693a.5.5 0 0 1-.567.297l-.086-.028a.5.5 0 0 1-.297-.567l.027-.086 2.5-6a.5.5 0 0 1 .88-.082zm-.42 1.574-.916 2.199h1.833l-.916-2.2zM8 0a1 1 0 0 1 1 1v7a1 1 0 0 1-2 0V1a1 1 0 0 1 1-1zm3 .582A8.003 8.003 0 0 1 16 8h-2c0-2.22-1.206-4.16-3-5.197V.582z" fill="#FFF" fill-rule="evenodd"/>
</svg>
