<svg width="16" height="16" viewBox="0 0 16 16" xmlns="http://www.w3.org/2000/svg">
    <path d="M0 12a4 4 0 0 1 4 4H0v-4zm0-4a8 8 0 0 1 8 8H6a6 6 0 0 0-6-6V8zm0-4c6.627 0 12 5.373 12 12h-2C10 10.477 5.523 6 0 6V4zm14.424 5.067A15.935 15.935 0 0 1 16 16h-2c0-2.06-.445-4.016-1.244-5.778l.838-.547c.289-.19.566-.392.83-.608zM12.5 0l.086.086a4.828 4.828 0 0 0 3.159 1.407L16 1.5v1.692A5.775 5.775 0 0 1 12.5 8.5 5.775 5.775 0 0 1 9 3.192V1.5c1.28 0 2.509-.509 3.414-1.414L12.5 0zM0 0c2.51 0 4.887.578 7.002 1.61L7 1.533c0 .87.116 1.723.338 2.542A13.925 13.925 0 0 0 0 2V0z" fill="#FFF" fill-rule="evenodd"/>
</svg>
