<?xml version="1.0" encoding="UTF-8"?>
<svg width="16px" height="16px" viewBox="0 0 16 16" version="1.1" xmlns="http://www.w3.org/2000/svg" xmlns:xlink="http://www.w3.org/1999/xlink">
    <!-- Generator: Sketch 48.1 (47250) - http://www.bohemiancoding.com/sketch -->
    <title>CALIBRATE_ICON</title>
    <desc>Created with Sketch.</desc>
    <defs></defs>
    <g id="Artboard-Copy-3" stroke="none" stroke-width="1" fill="none" fill-rule="evenodd" transform="translate(-558.000000, -856.000000)">
        <path d="M565,869.917042 C562.487495,869.495523 560.504477,867.512505 560.082958,865 L558,865 L558,863 L560.082958,863 C560.504477,860.487495 562.487495,858.504477 565,858.082958 L565,856 L567,856 L567,858.082958 C569.512505,858.504477 571.495523,860.487495 571.917042,863 L574,863 L574,865 L571.917042,865 C571.495523,867.512505 569.512505,869.495523 567,869.917042 L567,872 L565,872 L565,869.917042 Z M566,868 C568.209139,868 570,866.209139 570,864 C570,861.790861 568.209139,860 566,860 C563.790861,860 562,861.790861 562,864 C562,866.209139 563.790861,868 566,868 Z M566,866 C564.895431,866 564,865.104569 564,864 C564,862.895431 564.895431,862 566,862 C567.104569,862 568,862.895431 568,864 C568,865.104569 567.104569,866 566,866 Z" id="CALIBRATE_ICON" fill="#FFFFFF"></path>
    </g>
</svg>