<svg width="16" height="16" viewBox="0 0 16 16" fill="none" xmlns="http://www.w3.org/2000/svg">
<path fill-rule="evenodd" clip-rule="evenodd" d="M7 1C6.44772 1 6 1.44775 6 2V7V7.5C6 7.77612 5.77615 8 5.5 8C5.22385 8 5 7.77612 5 7.5V7V5C5 4.44775 4.55228 4 4 4C3.44772 4 3 4.44775 3 5V7V10.1633C3 10.5199 3.0386 10.8674 3.11182 11.202L0.511931 13.4305C0.197417 13.7002 0.161009 14.1736 0.430571 14.4882C0.700133 14.8026 1.17361 14.839 1.4881 14.5695L15.4881 2.56946C15.8026 2.29993 15.839 1.82642 15.5695 1.51196C15.2999 1.19739 14.8264 1.16101 14.5119 1.43054L11 4.4408V3C11 2.44775 10.5523 2 10 2C9.44772 2 9 2.44775 9 3V6.15503L8 7.01221V7V2C8 1.44775 7.55228 1 7 1ZM7.8367 15C6.49451 15 5.28 14.4532 4.40372 13.5703L11 7.91638V9L12 7.5C12.6129 6.88708 13.5194 6.6731 14.3416 6.94727L14.5 7L12.2679 12.1019C11.4977 13.8624 9.75833 15 7.8367 15Z" fill="white"/>
</svg>
