<svg width="17" height="17" viewBox="0 0 17 17" xmlns="http://www.w3.org/2000/svg">
    <path d="m15 1 1.414 1.414-2.1 2.102a6.969 6.969 0 0 1 1.393 4.191 6.969 6.969 0 0 1-1.394 4.192L16.414 15 15 16.414l-2.1-2.1a6.969 6.969 0 0 1-4.193 1.393 6.969 6.969 0 0 1-4.191-1.393l-2.102 2.1L1 15l2.101-2.1a6.969 6.969 0 0 1-1.394-4.193c0-1.572.519-3.024 1.394-4.192L1 2.415 2.414 1l2.1 2.1a6.969 6.969 0 0 1 4.193-1.393c1.573 0 3.025.519 4.193 1.394L15 1zm-6.293 9.121L5.95 12.879c.79.523 1.738.828 2.757.828 1.02 0 1.967-.305 2.758-.828L8.707 10.12zm-5-1.414c0 1.02.305 1.968.83 2.759l2.756-2.759L4.536 5.95a4.977 4.977 0 0 0-.829 2.757zM12.88 5.95 10.12 8.707l2.758 2.758c.523-.79.828-1.739.828-2.758s-.305-1.967-.828-2.757zM8.707 3.707c-1.019 0-1.967.305-2.757.829l2.757 2.757 2.759-2.757a4.977 4.977 0 0 0-2.759-.829z" fill="#FFF" fill-rule="nonzero"/>
</svg>
