<svg xmlns="http://www.w3.org/2000/svg" width="16" height="16" viewBox="0 0 16 16">
    <path fill="#FFF" fill-rule="evenodd" d="M9 14V9h3c-.276 2.398-1.478 4.373-3 5zM4 9h3v5c-1.522-.627-2.724-2.602-3-5zm4-7c1.972 0 3.667 2.204 4 5H4c.333-2.796 2.028-5 4-5zm8 7V7h-2.052a9.922 9.922 0 0 0-.687-2.847L16 1.414 14.586 0l-2.343 2.343C11.157.895 9.657 0 8 0 6.343 0 4.843.895 3.757 2.343L1.414 0 0 1.414l2.739 2.74A9.883 9.883 0 0 0 2.052 7H0v2h2.052a9.875 9.875 0 0 0 .687 2.846L0 14.586 1.414 16l2.343-2.343C4.843 15.104 6.343 16 8 16c1.657 0 3.157-.895 4.243-2.343L14.586 16 16 14.586l-2.739-2.74A9.908 9.908 0 0 0 13.948 9H16z"/>
</svg>
