<svg xmlns="http://www.w3.org/2000/svg" width="16" height="16" viewBox="0 0 16 16">
  <path fill="#FFF" fill-rule="evenodd" d="M282.585786,2 L279,2 L279,0 L286,0 L286,7 L284,7 L284,3.41421356 L278,9.41421356 L276.585786,8 L282.585786,2 Z M277,0.0618937549 L277,2.08295844 C274.162287,2.55903653 272,5.02700371 272,8 C272,11.3137085 274.686292,14 278,14 C280.972996,14 283.440963,11.8377133 283.917042,9 L285.938106,9 C285.446008,12.9463116 282.079618,16 278,16 C273.581722,16 270,12.418278 270,8 C270,3.92038235 273.053688,0.553991843 277,0.0618937549 Z" opacity="1" transform="translate(-270)"/>
</svg>
