<svg width="16" height="16" viewBox="0 0 16 16" xmlns="http://www.w3.org/2000/svg">
    <path d="M8 16c-4.418 0-8-1.567-8-3.5v-9C0 1.567 3.582 0 8 0c4.32 0 7.84 1.498 7.995 3.372L16 3.5v9c0 1.933-3.582 3.5-8 3.5zm0-9c-2.39 0-4.535-.458-6-1.185V8l.055.052c.183.163.458.338.811.507l.184.084C4.272 9.177 6.11 9.5 8 9.5c1.889 0 3.73-.323 4.951-.857.444-.194.781-.401.995-.59L14 8l.002-2.186C12.536 6.541 10.39 7 8 7zm0-5c-1.889 0-3.633.323-4.855.857-.444.194-.781.401-.995.59l-.055.053.055.052c.183.163.458.338.811.507l.184.084C4.367 4.677 6.11 5 8 5c1.889 0 3.633-.323 4.855-.857.444-.194.781-.401.995-.59l.054-.053-.054-.052a3.556 3.556 0 0 0-.811-.507l-.184-.084C11.633 2.323 9.89 2 8 2zm0 9.5c-2.39 0-4.535-.458-6-1.185V12.5l.055.052c.183.163.458.338.811.507l.184.084C4.272 13.677 6.11 14 8 14c1.889 0 3.73-.323 4.951-.857.444-.194.781-.401.995-.59L14 12.5l.002-2.186C12.536 11.041 10.39 11.5 8 11.5z" fill="#FFF" fill-rule="nonzero"/>
</svg>
