<svg width="16" height="16" viewBox="0 0 16 16" xmlns="http://www.w3.org/2000/svg">
    <path d="M13 0a3 3 0 0 1 3 3v10a3 3 0 0 1-3 3h-2v-2h2a1 1 0 0 0 .993-.883L14 13V3a1 1 0 0 0-.883-.993L13 2H3a1 1 0 0 0-.993.883L2 3v2H0V3a3 3 0 0 1 3-3h10zM2.113 7.71l.094.083L4.5 10.085l2.293-2.292.094-.083a1 1 0 0 1 1.32 1.497L5.915 11.5l2.292 2.293a1 1 0 0 1-1.32 1.497l-.094-.083L4.5 12.915l-2.293 2.292-.094.083a1 1 0 0 1-1.32-1.497L3.085 11.5.793 9.207a1 1 0 0 1 1.32-1.497z" fill="#FFF" fill-rule="nonzero"/>
</svg>
