<svg width="16" height="16" viewBox="0 0 16 16" xmlns="http://www.w3.org/2000/svg">
    <path d="M10 5c2.761 0 5 2.462 5 5.5S12.761 16 10 16a4.6 4.6 0 0 1-2-.458A4.601 4.601 0 0 1 6 16c-2.761 0-5-2.462-5-5.5S3.239 5 6 5a4.6 4.6 0 0 1 2 .458A4.588 4.588 0 0 1 10 5zm0 2c-.329 0-.648.061-.951.181l-.18.079-.867.418-.868-.418A2.599 2.599 0 0 0 6 7c-1.612 0-3 1.527-3 3.5S4.388 14 6 14c.33 0 .65-.062.953-.181l.181-.08.866-.415.866.416c.358.171.74.26 1.134.26 1.612 0 3-1.527 3-3.5S11.612 7 10 7zm3-7a4 4 0 0 1-4 4H8a4 4 0 0 1 4-4h1z" fill="#FFF" fill-rule="nonzero"/>
</svg>
