<svg width="16" height="16" viewBox="0 0 16 16" xmlns="http://www.w3.org/2000/svg">
    <path d="m12.33 7.442.064.11 3.5 7a1 1 0 0 1-1.73.996l-.059-.101-.724-1.448H9.618l-.724 1.448a1 1 0 0 1-1.234.493l-.107-.046a1 1 0 0 1-.494-1.234l.047-.107 3.5-7a1 1 0 0 1 1.725-.11zM4 0a1 1 0 0 1 .993.883L5 1l-.001 3.999L6.468 5c.021-.32.032-.653.032-1a1 1 0 1 1 2 0c0 .342-.01.676-.03 1H9a1 1 0 0 1 .117 1.993L9 7h-.801c-.41 1.855-1.24 3.3-2.473 4.312l.981.98a1 1 0 0 1-1.32 1.498l-.094-.083-1.348-1.348c-.842.342-1.799.556-2.868.638a1 1 0 0 1-.154-1.994c.517-.04.996-.115 1.439-.228l-1.07-1.068a1 1 0 0 1 1.32-1.497l.095.083L4.3 9.884C5.185 9.223 5.798 8.268 6.148 7H1a1 1 0 0 1-.117-1.993L1 5l1.999-.001L3 1a1 1 0 0 1 1-1zm7.5 10.236-.882 1.763h1.764l-.882-1.763z" fill="#FFF" fill-rule="nonzero"/>
</svg>
