<svg width="16" height="16" viewBox="0 0 16 16" fill="none" xmlns="http://www.w3.org/2000/svg">
<path fill-rule="evenodd" clip-rule="evenodd" d="M9.99999 4.92705V13.5729L13 12.0729V3.42705L9.99999 4.92705ZM11.5 2.5L8.49999 4V12.5V14V14.3229V16L9.99999 15.25L14.5 13V2.67705V1.69231V1H13H3.49999H1.99999V2.5V7.5L3.49999 6V2.5H6.99999H8.49999H11.5ZM4.53032 8.96967C4.82321 9.26256 4.82321 9.73744 4.53032 10.0303L3.31065 11.25H5.99999C6.4142 11.25 6.74999 11.5858 6.74999 12C6.74999 12.4142 6.4142 12.75 5.99999 12.75H3.31065L4.53032 13.9697C4.82321 14.2626 4.82321 14.7374 4.53032 15.0303C4.23743 15.3232 3.76255 15.3232 3.46966 15.0303L0.969661 12.5303L0.439331 12L0.969661 11.4697L3.46966 8.96967C3.76255 8.67678 4.23743 8.67678 4.53032 8.96967Z" fill="#121A23"/>
</svg>
