<svg width="16" height="16" viewBox="0 0 16 16" xmlns="http://www.w3.org/2000/svg">
    <path d="M3.5 9a3.5 3.5 0 1 1 0 7 3.5 3.5 0 0 1 0-7zm12.125-.78a1 1 0 0 1 .228 1.302l-.072.103-4.698 5.872-2.79-2.79a1 1 0 0 1 1.32-1.497l.094.083 1.21 1.209 3.302-4.127a1 1 0 0 1 1.406-.156zM3.5 11a1.5 1.5 0 1 0 0 3 1.5 1.5 0 0 0 0-3zm0-11a3.5 3.5 0 1 1 0 7 3.5 3.5 0 0 1 0-7zm9 0a3.5 3.5 0 1 1 0 7 3.5 3.5 0 0 1 0-7zm-9 2a1.5 1.5 0 1 0 0 3 1.5 1.5 0 0 0 0-3zm9 0a1.5 1.5 0 1 0 0 3 1.5 1.5 0 0 0 0-3z" fill="#FFF" fill-rule="nonzero"/>
</svg>
