<svg width="16" height="17" viewBox="0 0 16 17" xmlns="http://www.w3.org/2000/svg">
    <path d="M11.961 7.246H13v-2l3 3-3 3v-2l-1.039.001c-.216 2.772-1.319 5.104-2.84 6.246L7.7 14.274C9.011 13.073 10 10.863 10 8.246 10 5.63 9.011 3.42 7.7 2.22L9.12 1c1.521 1.142 2.624 3.474 2.84 6.246zM9 8.246c0 2.305-.866 4.307-2.137 5.312L5.559 12.44C6.378 11.566 7 10.05 7 8.246c0-1.803-.622-3.319-1.44-4.193l1.304-1.117C8.134 3.941 9 5.942 9 8.246zm-5.5-4c1.38 0 2.5 1.791 2.5 4 0 2.21-1.12 4-2.5 4-.925 0-1.733-.804-2.165-2h.083c.3.627.715 1 1.082 1 .534 0 1.17-.79 1.406-2H0v-2h1.079c.278-1.725 1.256-3 2.421-3zm-1 1c-.534 0-1.17.791-1.406 2h2.812c-.237-1.209-.872-2-1.406-2z" fill="#FFF" fill-rule="nonzero"/>
</svg>
