<svg width="16" height="16" viewBox="0 0 16 16" fill="none" xmlns="http://www.w3.org/2000/svg">
<path d="M8 0C7.44771 0 7 0.447693 7 1V9C7 9.55231 7.44771 10 8 10C8.55229 10 9 9.55231 9 9V1C9 0.447693 8.55229 0 8 0Z" fill="#FF3B3B"/>
<path d="M8 16C12.4183 16 16 12.4183 16 8C16 5.21265 14.5744 2.75818 12.4126 1.32599C11.7753 0.903748 11 1.41632 11 2.18091C11 2.56567 11.2098 2.91528 11.5212 3.14136C13.0233 4.23181 14 6.00189 14 8C14 11.3137 11.3137 14 8 14C4.68629 14 2 11.3137 2 8C2 6.00189 2.97675 4.23181 4.47882 3.14136C4.79022 2.91528 5 2.56567 5 2.18091C5 1.41632 4.22472 0.903748 3.58736 1.32599C1.42555 2.75818 0 5.21265 0 8C0 12.4183 3.58173 16 8 16Z" fill="#FF3B3B"/>
</svg>
