<svg width="16" height="16" viewBox="0 0 16 16" fill="none" xmlns="http://www.w3.org/2000/svg">
<path fill-rule="evenodd" clip-rule="evenodd" d="M8 0C7.44772 0 7 0.447715 7 1V7C7 7.55228 7.44772 8 8 8C8.55229 8 9 7.55228 9 7V1C9 0.447715 8.55229 0 8 0ZM0 8C0 12.4183 3.58172 16 8 16C12.4183 16 16 12.4183 16 8C16 4.64262 13.9318 1.76829 11 0.581517V2.80269C12.7934 3.84012 14 5.77915 14 8C14 11.3137 11.3137 14 8 14C4.68629 14 2 11.3137 2 8C2 5.77915 3.2066 3.84012 5 2.80269V0.581517C2.06817 1.76829 0 4.64262 0 8Z" fill="#121A23"/>
</svg>
