<?xml version="1.0" encoding="UTF-8"?>
<svg width="16px" height="16px" viewBox="0 0 16 16" version="1.1" xmlns="http://www.w3.org/2000/svg" xmlns:xlink="http://www.w3.org/1999/xlink">
    <!-- Generator: Sketch 48.1 (47250) - http://www.bohemiancoding.com/sketch -->
    <title>VIEW_LOG_ICON</title>
    <desc>Created with Sketch.</desc>
    <defs></defs>
    <g id="desktop_flow_04" stroke="none" stroke-width="1" fill="none" fill-rule="evenodd" transform="translate(-825.000000, -7792.000000)">
        <path d="M830.998554,7802.00239 C833.20716,7802.00239 834.99759,7800.2111 834.99759,7798.00143 C834.99759,7795.79177 833.20716,7794.00048 830.998554,7794.00048 C828.789947,7794.00048 826.999518,7795.79177 826.999518,7798.00143 C826.999518,7800.2111 828.789947,7802.00239 830.998554,7802.00239 Z M836.112696,7801.13956 L840.617954,7805.73588 C841.130905,7806.2592 841.12681,7807.09798 840.608772,7807.61626 C840.097542,7808.12774 839.268475,7808.12794 838.756999,7807.61671 C838.753836,7807.61355 838.75069,7807.61037 838.74756,7807.60718 L834.266125,7803.03515 C833.32603,7803.64724 832.203802,7804.00287 830.998554,7804.00287 C827.685644,7804.00287 825,7801.31593 825,7798.00143 C825,7794.68693 827.685644,7792 830.998554,7792 C834.311464,7792 836.997108,7794.68693 836.997108,7798.00143 C836.997108,7799.15176 836.673621,7800.2265 836.112696,7801.13956 Z" id="VIEW_LOG_ICON" fill="#FFFFFF" fill-rule="nonzero"></path>
    </g>
</svg>