<?xml version="1.0" encoding="UTF-8"?>
<svg width="82px" height="82px" viewBox="0 0 82 82" version="1.1" xmlns="http://www.w3.org/2000/svg" xmlns:xlink="http://www.w3.org/1999/xlink">
    <!-- Generator: Sketch 61.2 (89653) - https://sketch.com -->
    <title>RING_CONNECTED</title>
    <desc>Created with Sketch.</desc>
    <g id="Page-1" stroke="none" stroke-width="1" fill="none" fill-rule="evenodd">
        <g id="Connected-wifi" transform="translate(-503.000000, -194.000000)" fill="#61FF8A" fill-rule="nonzero">
            <g id="RING_CONNECTED" transform="translate(503.000000, 194.000000)">
                <path d="M41,0 C63.6436747,0 82,18.3563253 82,41 C82,49.141546 79.6269566,56.7288379 75.5348164,63.1079292 C75.0332723,63.0362019 74.5208639,63 74,63 C73.0364129,63 72.1017638,63.1238982 71.2111145,63.3566328 C75.8443528,57.1090971 78.5833333,49.3744101 78.5833333,41 C78.5833333,20.2432982 61.7567018,3.41666667 41,3.41666667 C20.2432982,3.41666667 3.41666667,20.2432982 3.41666667,41 C3.41666667,61.7567018 20.2432982,78.5833333 41,78.5833333 C49.3744101,78.5833333 57.1090971,75.8443528 63.3571035,71.2133491 C63.1238982,72.1017638 63,73.0364129 63,74 C63,74.5208639 63.0362019,75.0332723 63.1062268,75.5348465 C56.7288379,79.6269566 49.141546,82 41,82 C18.3563253,82 0,63.6436747 0,41 C0,18.3563253 18.3563253,0 41,0 Z M74,66 C78.418278,66 82,69.581722 82,74 C82,78.418278 78.418278,82 74,82 C69.581722,82 66,78.418278 66,74 C66,69.581722 69.581722,66 74,66 Z M73,70 L69,70 L69,74 L70.468,72.532 L73,75.4142136 L73,79 L75,79 L75,75.4142136 L77.532,72.532 L79,74 L79,70 L75,70 L76.473,71.473 L74,73.689 L71.527,71.473 L73,70 Z" id="Combined-Shape"></path>
            </g>
        </g>
    </g>
</svg>