<svg xmlns="http://www.w3.org/2000/svg" viewBox="0 0 32 16">
  <g fill="none" fill-rule="evenodd">
    <polygon fill="#E41E20" fill-rule="nonzero" points="32 0 0 0 0 16 32 16"/>
    <path fill="#000" fill-rule="nonzero" d="M21,4.9504062 L17.795823,4.9504062 C17.9936176,4.74328158 18.115356,4.46286512 18.115356,4.15383685 C18.115356,3.51660211 17.5987539,3 16.9615192,3 C16.5600554,3 16.2066581,3.20512041 15.9999827,3.51615289 C15.7933073,3.20512041 15.4398755,3 15.0384463,3 C14.4012115,3 13.8846094,3.51660211 13.8846094,4.15383685 C13.8846094,4.46286512 14.0063478,4.74331614 14.2041425,4.9504062 L11,4.9504062 C11,5.80008708 11.7400714,6.48884381 12.5896832,6.48884381 L12.5384031,6.48884381 C12.5384031,7.33855925 13.2271943,8.02735054 14.0769098,8.02735054 C14.0769098,8.30254915 14.1494414,8.5605392 14.2760521,8.78390482 L12.999924,10.0600675 L13.9790146,11.039089 L15.3678622,9.65027592 C15.4222522,9.67021435 15.4785429,9.68621346 15.5366649,9.69709839 L14.6974198,11.5919396 L15.9999827,13 L17.3025457,11.5918705 L16.4633005,9.69702928 C16.5214571,9.68614435 16.5777132,9.67017979 16.6321033,9.65020681 L18.0209509,11.0390199 L19.0000415,10.0599639 L17.7238788,8.78380115 C17.850524,8.56047009 17.9230557,8.30244548 17.9230557,8.02724687 C18.7727365,8.02724687 19.4615278,7.33849014 19.4615278,6.48874015 L19.4102823,6.48874015 C20.2598941,6.48880926 21,5.80008708 21,4.9504062 Z"/>
  </g>
</svg>
