<?xml version="1.0" encoding="UTF-8"?>
<svg width="32px" height="16px" viewBox="0 0 32 16" version="1.1" xmlns="http://www.w3.org/2000/svg" xmlns:xlink="http://www.w3.org/1999/xlink">
    <!-- Generator: Sketch 51.3 (57544) - http://www.bohemiancoding.com/sketch -->
    <title>Albania</title>
    <desc>Created with Sketch.</desc>
    <defs></defs>
    <g id="Page-1" stroke="none" stroke-width="1" fill="none" fill-rule="evenodd">
        <g id="Albania">
            <polygon id="bg" fill="#E41E20" fill-rule="nonzero" points="32 0 0 0 0 16 32 16"></polygon>
            <path d="M16.5937873,11.9100769 C16.7315217,12.0295198 15.9999965,12.7889715 15.9999965,12.7889715 C15.9999965,12.7889715 15.2684712,12.0295198 15.4062056,11.9100769 C15.5439401,11.7906343 15.7109388,11.5487559 15.7085964,11.315623 C15.6962527,11.1417721 15.5770338,11.0407849 15.5000028,11.2529853 C15.3910962,11.4872372 15.1575026,11.8745668 14.8356273,11.6473463 C14.6950026,11.544122 14.6971901,11.3921623 14.8900027,11.4095795 C15.1281275,11.393281 15.2743775,11.2622537 15.3809404,10.9249375 C15.4003151,10.739422 15.3231275,10.7440559 15.2154715,10.8634191 C15.0770337,11.0222495 14.8015649,11.2622537 14.4976589,11.133623 C14.3287523,11.0628364 14.281096,10.9167884 14.5362525,10.8808358 C14.7778148,10.8843497 14.9750027,10.7277573 15.1712526,10.4888722 C15.278909,10.3567262 15.1201589,10.2233019 15.0248462,10.3357937 C14.9398462,10.4088177 14.8207838,10.5433602 14.7187524,10.5618958 C14.6007837,10.5850651 14.4545338,10.5735605 14.2925024,10.4877534 C14.1178147,10.3415457 14.1745337,10.2360849 14.3865648,10.2117969 C14.5509402,10.2199463 14.6404714,10.2824238 14.8525025,10.1410103 C15.2335963,9.88342979 15.536565,9.53924284 15.583909,9.12522836 C15.6150028,8.85294702 15.4685964,8.77049517 15.3468773,8.80181421 C15.0157838,8.88698191 14.7992212,9.505687 14.5701588,9.84555906 C14.4951587,9.94351076 14.4262525,9.9451082 14.3775024,9.9149082 C14.2856272,9.83613218 14.2122515,9.77135649 14.1203769,9.68331199 C14.1203769,9.68331199 13.4464683,9.80437186 13.079489,9.92398948 L13.488099,10.0692081 C13.642811,9.98378117 13.8295522,10.075897 13.8295522,10.2241143 C13.9759628,10.3253688 13.964174,10.4440481 13.9010041,10.558621 C13.8817369,10.478843 13.8652956,10.3752523 13.7496453,10.3614676 C13.5845819,10.4297441 13.3922568,10.3323076 13.3922568,10.2033911 L12.9102365,10.0139405 L12.4232582,10.2896347 C12.4232582,10.4760155 12.246668,10.5350581 12.0629573,10.4847179 C11.9763701,10.5384891 11.9206923,10.6317695 11.8913915,10.7315279 C11.8371588,10.5876651 11.8484904,10.4860968 11.9333902,10.4155275 C11.8846603,10.2295435 12.1452987,10.0506817 12.3470409,10.1697962 L12.6973917,9.96862565 L12.097708,9.95183428 C12.0281493,10.0750429 11.7765806,10.081817 11.7031975,9.95183428 C11.6404964,9.93465316 11.5874842,9.92372036 11.4651972,10.0146173 C11.5037319,9.86754563 11.5787204,9.8046733 11.6911963,9.8046733 C11.7767012,9.65322015 12.0860341,9.65393215 12.1307051,9.8244237 L12.7552368,9.84180066 L12.384678,9.57795709 C12.2463496,9.65963039 12.0522683,9.56884605 12.0133915,9.42046938 C11.9582424,9.35492601 11.8902517,9.32412728 11.7563915,9.36861337 C11.825378,9.24641878 11.9225745,9.20994966 12.0981538,9.29287927 C12.2583397,9.17154197 12.4694086,9.31873272 12.4373932,9.44092122 L12.9303917,9.77635137 C13.288267,9.66958623 13.9364089,9.50329244 13.9364089,9.50329244 C13.859221,9.42211898 13.78094,9.34669848 13.7039087,9.26440695 C13.6760779,9.21620278 13.718596,9.16006421 13.7776588,9.14839988 C14.3559402,9.02903698 14.6870337,8.79590413 14.887659,8.20340418 C14.9715649,7.95525149 14.7901588,7.88110907 14.7278148,8.03290878 C14.6415648,8.24399106 14.546409,8.47472743 14.2867213,8.65337163 C14.19719,8.71600908 13.9306271,8.66487627 14.0882835,8.51531336 C14.2515648,8.38077093 14.3218771,8.32292708 14.4023459,7.99583773 C14.4023459,7.83013594 14.23344,7.75583417 14.1392211,7.9146646 C14.0384399,8.24047522 14.0281273,8.38077093 13.8456271,8.59073417 C13.7073458,8.74956524 13.5270334,8.85630447 13.4375022,8.85390767 C13.2764087,8.85166766 13.1142209,8.67765963 13.3296897,8.55126632 C13.6460958,8.42487302 13.7617212,8.25214018 13.8082834,8.08739743 C13.859221,7.79993593 13.803596,7.66075927 13.6301586,7.80217273 C13.3842209,8.08164479 12.9146896,8.60223881 12.668752,8.84463982 C12.393127,9.05572179 12.0768767,9.06259283 11.8251582,8.84815342 C11.6810955,8.68229195 11.7321895,8.50380712 11.9578142,8.54199688 C12.4668767,8.58498025 12.8523456,8.332193 13.2753147,7.64909302 C13.3581272,7.49489587 13.3807835,7.27342767 13.1981271,7.43817042 C12.9873456,7.72339512 12.6800022,7.96579549 12.3942207,8.07013823 C12.1073455,8.17320257 11.8705064,8.11626304 11.7785956,8.02603646 C11.6679134,7.9153542 11.6970331,7.63646966 11.8885957,7.70374104 C12.046252,7.75934745 12.2684396,7.77324953 12.4996895,7.68392695 C12.7310957,7.59348597 12.9714087,7.39870257 13.2265646,7.06825771 C13.3139086,6.88162375 13.2854711,6.7239114 13.1085959,6.82010502 C12.6901584,7.17499757 12.1504709,7.46245875 11.8750021,7.28972655 C11.6720331,7.16333261 11.6685956,6.83864038 11.9259397,6.85957287 C12.4442207,6.93019976 12.6403145,6.8154711 13.1381271,6.37604957 C13.2514087,6.29136155 13.2435959,6.07676375 13.0632833,6.21370362 C12.6448457,6.48390751 12.0734395,6.58936865 11.8489083,6.44795518 C11.647033,6.32156156 11.6765643,5.93534996 12.0167208,6.07212983 C12.2889084,6.23799162 12.5893769,6.2333577 13.1914087,5.80320434 C13.3432833,5.67681103 13.2300023,5.51206764 13.1053146,5.58285453 C12.6210956,5.85881107 11.9157832,5.97705525 11.7321895,5.41587434 C11.6607831,5.20143653 11.790002,5.07616163 11.9793768,5.22460614 C12.395471,5.60953998 12.8671898,5.4205089 13.1312522,5.22684614 C13.2068769,5.18226469 13.345627,4.95664193 13.1018769,4.99850689 C12.4714086,5.14231748 11.8478142,5.01704226 11.7343767,4.57059065 C11.6685956,4.42566102 11.7979707,4.16935921 12.0281269,4.38395605 C12.3307833,4.68308251 12.6517209,4.69346843 13.0553146,4.69123163 C13.260627,4.64824826 13.2628145,4.42214582 13.0904711,4.38858997 C12.7718768,4.39546101 12.4578143,4.25628467 12.2060956,4.11487088 C11.9600021,3.97345677 11.7559396,3.77515817 11.6912519,3.50032003 C11.6515643,3.2545637 11.8885957,2.99362761 12.0314085,3.2545637 C12.2423455,3.6359815 12.7095334,3.99550797 13.2289086,4.06038223 C13.2559399,4.01516238 13.3240647,3.89915499 13.407971,3.9317518 C13.5604709,3.99087405 13.7421896,4.07000943 13.9292796,4.15885265 C14.3325571,4.35035668 14.5006371,4.44265014 14.4521901,4.77352317 C14.4016384,5.11876964 14.6678148,5.33694088 14.887659,5.27670055 C15.0793774,5.22508838 15.1851589,5.05187618 15.1507838,4.7514726 C15.1232837,4.51210712 14.8829713,4.22256882 14.6121901,4.07076879 C14.4368771,3.97265805 14.17219,3.91896844 13.8535961,3.84818186 C13.6596898,3.80999242 13.56094,3.7345716 13.5496897,3.65563559 C13.5496897,3.65563559 13.6821899,3.75262792 13.8943772,3.73808712 C13.9946898,3.7308964 14.0618771,3.68679463 14.08719,3.64173382 C14.0134399,3.62671238 13.8796898,3.64413062 13.7595336,3.64413062 C13.5996898,3.64285062 13.2285959,3.60705926 13.1301585,3.38207553 C13.0995335,3.23363121 13.1970334,3.20694622 13.2878145,3.30202131 C13.3853147,3.40476578 13.4254712,3.49712419 13.6210958,3.53163876 C13.7401586,3.55257124 13.859221,3.57685925 14.0123458,3.53978788 C13.9260959,3.4373629 13.7890648,3.3325408 13.6721899,3.35187552 C13.6337522,3.35826721 13.5826587,3.39374049 13.5417211,3.45749635 C13.5167211,3.29514995 13.5610958,3.11187157 13.9953148,3.18841082 C13.9884399,3.06553272 14.2470336,3.01216307 14.4023459,3.01455987 C14.4907837,3.01679699 14.6710961,3.06904808 14.801409,3.13152546 C15.0078148,3.19544145 15.2118773,3.24178065 15.4523461,3.2591973 C15.3128149,3.37856033 15.2867215,3.38559137 15.1473461,3.48641827 C15.3581276,3.56519461 15.5214092,3.72754088 15.595159,3.8342801 C15.595159,3.8342801 15.3490651,3.82740906 15.2867215,3.85521291 C15.5442213,3.9304734 15.6598463,3.97569389 15.7959404,4.11487088 C15.7482838,4.12301968 15.6768774,4.13692176 15.6462527,4.14858608 C15.6143785,4.16009105 15.6226601,4.18102353 15.6484415,4.20067729 C15.7039103,4.24302194 15.933119,4.50923128 15.9999965,4.57298681 C16.0668739,4.50923128 16.2960826,4.24302194 16.3515514,4.20067729 C16.3773329,4.18102353 16.3856145,4.16009105 16.3537402,4.14858608 C16.3231156,4.13692176 16.2517092,4.12301968 16.2040525,4.11487088 C16.3401466,3.97569389 16.4557716,3.9304734 16.7132715,3.85521291 C16.6509278,3.82740906 16.404834,3.8342801 16.404834,3.8342801 C16.4785838,3.72754088 16.6418654,3.56519461 16.8526469,3.48641827 C16.7132715,3.38559137 16.6871781,3.37856033 16.5476468,3.2591973 C16.7881157,3.24178065 16.9921781,3.19544145 17.1985839,3.13152546 C17.3288969,3.06904808 17.5092093,3.01679699 17.597647,3.01455987 C17.7529594,3.0121631 18.011553,3.06553272 18.0046782,3.18841082 C18.4388971,3.11187157 18.4832719,3.29514995 18.4582719,3.45749635 C18.4173342,3.39374049 18.3662408,3.35826721 18.327803,3.35187552 C18.2109281,3.3325408 18.0738971,3.4373629 17.9876471,3.53978788 C18.1407719,3.57685925 18.2598344,3.55257124 18.3788971,3.53163876 C18.5745218,3.49712419 18.6146783,3.40476578 18.7121785,3.30202131 C18.8029596,3.20694622 18.9004595,3.23363121 18.8698345,3.38207553 C18.771397,3.60705926 18.4003032,3.64285062 18.2404593,3.64413062 C18.1203031,3.64413062 17.986553,3.62671238 17.9128029,3.64173382 C17.9381159,3.68679463 18.0053031,3.7308964 18.1056158,3.73808712 C18.317803,3.75262792 18.4503032,3.65563559 18.4503032,3.65563559 C18.439053,3.7345716 18.3403032,3.80999242 18.1463969,3.84818186 C17.8278029,3.91896844 17.5631158,3.97265805 17.3878028,4.07076879 C17.1170217,4.22256882 16.8767093,4.51210712 16.8492091,4.7514726 C16.8148341,5.05187618 16.9206155,5.22508838 17.112334,5.27670055 C17.3321782,5.33694088 17.5983546,5.11876964 17.5478029,4.77352317 C17.4993558,4.44265014 17.6674359,4.35035668 18.0707134,4.15885265 C18.2578033,4.07000943 18.4395221,3.99087405 18.592022,3.9317518 C18.6759282,3.89915499 18.744053,4.01516238 18.7710844,4.06038223 C19.2904595,3.99550797 19.7576475,3.6359815 19.9685845,3.2545637 C20.1113973,2.99362761 20.3484287,3.2545637 20.308741,3.50032003 C20.2440533,3.77515817 20.0399909,3.97345677 19.7938974,4.11487088 C19.5421786,4.25628467 19.2281162,4.39546101 18.9095219,4.38858997 C18.7371785,4.42214582 18.739366,4.64824826 18.9446783,4.69123163 C19.348272,4.69347003 19.6692097,4.68308251 19.9718661,4.38395605 C20.2020223,4.16935921 20.3313973,4.42566102 20.2656162,4.57059065 C20.1521788,5.01704226 19.5285844,5.14231748 18.8981161,4.99850689 C18.654366,4.95664193 18.7931161,5.18226469 18.8687407,5.22684614 C19.1328032,5.4205089 19.604522,5.60953998 20.0206162,5.22460614 C20.2099909,5.07616163 20.3392098,5.20143653 20.2678034,5.41587434 C20.0842098,5.97705525 19.3788973,5.85881107 18.8946783,5.58285453 C18.7699906,5.51206764 18.6567097,5.67681103 18.8085842,5.80320434 C19.410616,6.2333577 19.7110846,6.23799162 19.9832722,6.07212983 C20.3234287,5.93534996 20.3529599,6.32156156 20.1510847,6.44795518 C19.9265534,6.58936865 19.3551472,6.48390751 18.9367097,6.21370362 C18.756397,6.07676375 18.7485842,6.29136155 18.8618659,6.37604957 C19.3596784,6.8154711 19.5557722,6.93019976 20.0740533,6.85957287 C20.3313973,6.83864038 20.3279599,7.16333261 20.1249909,7.28972655 C19.849522,7.46245875 19.3098346,7.17499757 18.8913971,6.82010502 C18.7145218,6.7239114 18.6860844,6.88162375 18.7734284,7.06825771 C19.0285843,7.39870257 19.2688973,7.59348597 19.5003034,7.68392695 C19.7315534,7.77324953 19.953741,7.75934745 20.1113973,7.70374104 C20.3029599,7.63646966 20.3320796,7.9153542 20.2213973,8.02603646 C20.1294866,8.11626304 19.8926475,8.17320257 19.6057722,8.07013823 C19.3199907,7.96579549 19.0126473,7.72339512 18.8018658,7.43817042 C18.6192095,7.27342767 18.6418658,7.49489587 18.7246783,7.64909302 C19.1476473,8.332193 19.5331162,8.58498025 20.0421787,8.54199688 C20.2678034,8.50380712 20.3188975,8.68229195 20.1748348,8.84815342 C19.9231163,9.06259283 19.606866,9.05572179 19.331241,8.84463982 C19.0853033,8.60223881 18.615772,8.08164479 18.3698344,7.80217273 C18.1963969,7.66075927 18.1407719,7.79993433 18.1917096,8.08739743 C18.2382718,8.25214018 18.3538971,8.42487302 18.6703033,8.55126632 C18.8857721,8.67765963 18.7235842,8.85166766 18.5624908,8.85390767 C18.4729595,8.85630319 18.2926472,8.74956524 18.1543659,8.59073417 C17.9718657,8.38077093 17.961553,8.24047522 17.8607719,7.9146646 C17.766553,7.75583417 17.597647,7.83013594 17.597647,7.99583773 C17.6781159,8.32292708 17.7484282,8.38077093 17.9117095,8.51531336 C18.0693659,8.66487627 17.8028029,8.71600908 17.7132717,8.65337163 C17.453584,8.47472743 17.3584281,8.24399106 17.2721782,8.03290878 C17.2098342,7.88110907 17.028428,7.95525149 17.112334,8.20340418 C17.3129593,8.79590413 17.6440528,9.02903698 18.2223342,9.14839988 C18.2813969,9.16006421 18.323915,9.21620278 18.2960843,9.26440695 C18.2190529,9.34669848 18.1407719,9.42211898 18.0635841,9.50329244 C18.0635841,9.50329244 18.711726,9.66958623 19.0696013,9.77635137 L19.5625998,9.44092122 C19.5305844,9.31873272 19.7416532,9.17154197 19.9018392,9.29287927 C20.0774184,9.20994966 20.1746149,9.24641878 20.2436015,9.36861337 C20.1097413,9.32412728 20.0417506,9.35492601 19.9866014,9.42046938 C19.9477246,9.56884605 19.7536433,9.65963039 19.615315,9.57795709 L19.2447562,9.84180066 L19.8692878,9.8244237 C19.9139589,9.65393215 20.2232917,9.65322015 20.3087967,9.8046733 C20.4212726,9.8046733 20.4962611,9.86754563 20.5347958,10.0146173 C20.4125087,9.92372036 20.3594966,9.93465316 20.2967954,9.95183428 C20.2234124,10.081817 19.9718437,10.0750429 19.9022849,9.95183428 L19.3026013,9.96862565 L19.6529521,10.1697962 C19.8546942,10.0506817 20.1153327,10.2295435 20.0666027,10.4155275 C20.1515026,10.4860968 20.1628341,10.5876651 20.1086015,10.7315279 C20.0793007,10.6317695 20.0236229,10.5384891 19.9370357,10.4847179 C19.7533249,10.5350581 19.5767348,10.4760155 19.5767348,10.2896347 L19.0897565,10.0139405 L18.6077362,10.2033911 C18.6077362,10.3323076 18.415411,10.4297441 18.2503477,10.3614676 C18.1346974,10.3752523 18.1182561,10.478843 18.0989889,10.558621 C18.035819,10.4440481 18.0240302,10.3253688 18.1704408,10.2241143 C18.1704408,10.075897 18.3571819,9.98378117 18.5118939,10.0692081 L18.9205039,9.92398948 C18.5535247,9.80437186 17.8796161,9.68331199 17.8796161,9.68331199 C17.7877415,9.77135649 17.7143658,9.83613218 17.6224906,9.9149082 C17.5737405,9.9451082 17.5048342,9.94351076 17.4298342,9.84555906 C17.2007718,9.505687 16.9842092,8.88698191 16.6531157,8.80181421 C16.5313966,8.77049517 16.3849902,8.85294702 16.4160839,9.12522836 C16.4634279,9.53924284 16.7663966,9.88342979 17.1474905,10.1410103 C17.3595216,10.2824238 17.4490528,10.2199463 17.6134282,10.2117969 C17.8254592,10.2360849 17.8821783,10.3415457 17.7074906,10.4877534 C17.5454592,10.5735605 17.3992092,10.5850651 17.2812406,10.5618958 C17.1792092,10.5433602 17.0601468,10.4088177 16.9751468,10.3357937 C16.8798341,10.2233019 16.721084,10.3567262 16.8287403,10.4888722 C17.0249903,10.7277573 17.2221782,10.8843497 17.4637405,10.8808358 C17.718897,10.9167884 17.6712407,11.0628364 17.5023341,11.133623 C17.1984281,11.2622537 16.9229592,11.0222495 16.7845214,10.8634191 C16.6768654,10.7440559 16.5996779,10.739422 16.6190526,10.9249375 C16.7256155,11.2622537 16.8718655,11.393281 17.1099903,11.4095795 C17.3028028,11.3921623 17.3049903,11.544122 17.1643657,11.6473463 C16.8424904,11.8745668 16.6088968,11.4872372 16.4999902,11.2529853 C16.4229591,11.0407849 16.3037402,11.1417721 16.2913965,11.315623 C16.2890541,11.5487559 16.4560529,11.7906343 16.5937873,11.9100769 Z M17.5740995,3.30979251 C17.4602285,3.30979251 17.3898838,3.3497104 17.3898838,3.39809985 C17.3898838,3.44720706 17.4602285,3.48726851 17.5740995,3.48726851 C17.6872685,3.48726851 17.7591578,3.44361762 17.7591578,3.39436641 C17.7591578,3.34597696 17.6872685,3.30979251 17.5740995,3.30979251 Z M14.4258934,3.30979251 C14.3127245,3.30979251 14.2408352,3.34597696 14.2408352,3.39436641 C14.2408352,3.44361762 14.3127245,3.48726851 14.4258934,3.48726851 C14.5397645,3.48726851 14.6101092,3.44720706 14.6101092,3.39809985 C14.6101092,3.3497104 14.5397645,3.30979251 14.4258934,3.30979251 Z" id="path3035" fill="#000000"></path>
        </g>
    </g>
</svg>