<svg viewBox="0 0 32 16" xmlns="http://www.w3.org/2000/svg" xmlns:xlink="http://www.w3.org/1999/xlink"><defs><path d="M13.65 9.823c.257.345.587.634.967.845l-.441.895.106.074-.542 1.103a5.32 5.32 0 002.196.528v.126l.128.003v-.127c.133 0 .265-.005.396-.014l-.067-.09.106-.105-.016-.315h.122l.075-.21.084-.038-.068-.105.106-.036-.016-.158-.106-.053.138-.016-.085-.383-.212-.21-.128.052.053.173-.382-.001v1.509c-.043 0-.086 0-.128-.002v-1.537l-.301-.126-.143-.069-.706-.157-.053.084-.249.02h-.069l-.106.174-.027-.02.448-.91c.36.18.762.291 1.187.316h.019v.688l.07.031.058-.001v-.715l.032.002c.43 0 .838-.088 1.209-.248l.978 1.99a5.311 5.311 0 01-1.721.457l.176.109c-.221.027-.446.041-.674.041v2.54h-.128v-2.543l-.09-.001a5.446 5.446 0 01-2.162-.539l.056-.114a5.308 5.308 0 01-.114-.057l.55-1.12-.169-.116-.16.053.022.141-.393-.21-.016.137-.387-.174-.02.016-.192.074-.037-.142-.461-.226-.309-.1zM5.55.057l6.205 4.649a5.424 5.424 0 00-.076.1l.102.077c-.223.3-.415.626-.57.97l.341.162.105.052.037.032.282.336.159-.073L13.3 6.1l.013-.07-1.532-1.147c.025-.034.05-.068.077-.102l-.103-.075a5.456 5.456 0 011.814-1.503L12.028.067l.144.005 1.512 3.074a5.438 5.438 0 00-.115.057l.057.114a5.326 5.326 0 00-1.768 1.464l1.48 1.109-.025.14.317.237a2.985 2.985 0 00-.569 1.588l-.002.081h-2.063l-.013.126 2.073.001c.006.613.197 1.182.52 1.655l-1.672 1.25.15.048-.223.168a5.326 5.326 0 001.795 1.5l-.057.113c.038.02.076.039.115.057l-1.513 3.077-.143.002 1.54-3.136a5.454 5.454 0 01-1.839-1.536l.102-.077a5.292 5.292 0 01-.077-.103l.15-.113-.035-.01-.09-.405v-.09l-.19-.346.084-.42-.159-.053-.053-.18.265-.03h-.122l.016-.264-.387.121-.016-.105-.053.195-.205.08c.17.589.442 1.135.795 1.62l-.102.077c.025.035.051.07.077.103l-6.24 4.673-.204-.007 6.367-4.769a5.351 5.351 0 01-.895-1.965l-.001-.007-.009-.037a5.372 5.372 0 01-.123-1.086H0v-.126l10.625-.001.003-.153c.011-.28.044-.553.096-.82l-.037-.106-.127.174-.032-.121-.16.052-.105.053.084-.316-.069-.037.038-.089-.09.021-.016-.179h.334l-.016-.084h-.106l-.197-.336-.106.037-.069-.121-.037.105-.106-.074.106-.068-.159-.053.037-.09-.127-.067-.032-.28-.127-.036.074-.053-.143-.368.016-.12.053-.369h.106l-.032.227.265.368.191.247.393.105V5.4l.053-.09.212.247.106.121.053.053.144.068a5.326 5.326 0 00-.372 1.164l.048.136.07-.071a5.2 5.2 0 01.37-1.175l-.116-.054c.159-.353.355-.685.583-.993L5.348.067l.202-.01zm14.42.011l-1.515 3.083c.5.243.958.561 1.358.938l.186.066.106-.032.037.19.143.02-.037-.089h.122l.037.194.143-.157.156.097-.371.279.078.1-.103.076c.351.462.627.984.81 1.546l-.024.021-.016.21-.159.194.175.121-.069.053.16.158.12.017c.046.276.069.559.069.847l-.001-.065h.129V8l-.001.062-.127.001a5.218 5.218 0 01-1.038 3.067l.102.077-.077.1.54.406.071.155-.18.173-.281.053-.09.157.212.106-.403.368.122.194-.318-.068-.356.21-.477.226-.106.158-.069-.053.069-.157-.318.12-.07-.12-.051.029 1.312 2.669-.144-.002-1.279-2.602.111-.065-.204-.415a5.455 5.455 0 001.909-1.541l-.103-.076.078-.102-1.779-1.33a2.986 2.986 0 00.577-1.768l-.001.03 2.24.001.001-.063-.001-.065h-2.24a2.987 2.987 0 00-.634-1.748l1.81-1.354a5.299 5.299 0 00-.078-.1l.102-.076a5.445 5.445 0 00-.522-.568l-.313-.108a5.323 5.323 0 00-1.102-.716l.057-.114a5.435 5.435 0 00-.116-.055L19.825.073l.145-.005zm6.506-.01l.201.008-5.856 4.384.063.041.09.384-.143.037.037.294.053.09.372.93-.069.061c.098.29.172.591.219.901l.062.09.069.136.175.074.212-.142.143.016-.175.247.125.326L32 7.936v.127l-9.897-.001.001.004-.212.174.09.278-.053.248.106.141.281.053-.281.384.053.068.069.074-.122.19.122.073-.62.504.143.353-.037.21-.213.068-.053.18-.244.104-.074.226-.053.121.25.126-.214.017 5.699 4.269-.204.006-5.634-4.22-.019-.04.158-.015-.602-.451a5.343 5.343 0 001.06-2.99l.003-.155h.6l-.049-.127h-.55a5.393 5.393 0 00-.061-.747l-.013-.016-.122-.019a5.2 5.2 0 00-.188-.774l.104-.092a5.368 5.368 0 00-.811-1.53l.408-.307-.115-.072 5.77-4.32zM18.482 9.9l1.778 1.332a5.326 5.326 0 01-1.862 1.503l.056.114a5.435 5.435 0 01-.116.055l.209.425-.314.184-.213-.068-.387.068-.106-.052-.105-.053-.143-.084-.424.105-.117-.073a5.435 5.435 0 001.6-.452l-.055-.114.115-.055-.977-1.988c.415-.2.778-.49 1.061-.847zm-1.999 3.298v.056l-.023.002.023.032v-.034l.079-.007-.079-.049zm-.419-4.92l1.185 2.407a2.923 2.923 0 01-1.153.235.307.307 0 01-.032 0V8.279zm-.128-.005v2.644a2.913 2.913 0 01-1.15-.304l1.15-2.34zm.207-.123l2.237 1.674a2.92 2.92 0 01-1.015.808L16.143 8.15zm-.305.034l-1.164 2.37a2.92 2.92 0 01-.922-.808l2.086-1.562zm3.17-.12a2.859 2.859 0 01-.551 1.66L16.24 8.062zm-5.823-.002l2.6.001-2.108 1.578a2.86 2.86 0 01-.493-1.609l.001.03zm-2.201-1.173l-.142.139a5.253 5.253 0 00-.09.909l-.127-.001-.001.064v.063l.129-.001.003.155c.009.205.029.407.06.606l-.113.084.044.242.01.044.052.135.143.137a7.226 7.226 0 01-.136-.642l.009-.005.053.068.037-.084-.09-.63.143.031.015-.141h-.23L10.752 8v-.063l.244-.001.041-.395.021-.022.138-.084-.175.016-.069-.158.318-.352-.286-.052zm2.748-.544l2.126 1.592h-2.672c.019-.594.219-1.142.546-1.592zm4.668-.08c.381.488.608 1.101.608 1.767l-.003-.097-2.838.001zm-1.06-.847c.378.178.712.434.98.748l-2.134 1.598zm-2.643.079l1.097 2.233-1.985-1.487a2.92 2.92 0 01.888-.746zm1.239-.351v2.581l-1.125-2.29c.388-.189.824-.295 1.285-.295l-.16.004zm.16-.004c.4 0 .78.08 1.126.224l-1.158 2.357V5.142zM16.064.063v2.54l-.128.001v.128l-.091.002c-.066.003-.13.007-.196.012l.038.199.249.057V5.02a3.042 3.042 0 00-1.181.304l-.659-1.34v-.108h.122l.143-.21.175-.053.021-.194.244-.295.106.053.499-.18.053-.052.106-.105-.018-.085.102-.01-.015-.078h-.106l.019.088a5.31 5.31 0 00-1.807.505l.356.724v.26l-.007.016.552 1.123c-.362.197-.68.464-.934.783l-.369-.276.084.036-.016-.068.053-.037.25-.09V5.49l.085-.09.106-.404-.053-.158.242-.578-.463-.943.114-.057-.056-.114a5.448 5.448 0 012.252-.542V.063h.128zm0 2.54c.812 0 1.583.177 2.275.493l-.056.114.115.055-.147.298.072.013.244-.084.02.158.107.068.085-.158h.106l.074.405.085.016-.016.142-.016.016h.032l.212-.105.196-.069.048.016c.269.226.514.478.733.753L18.422 6.09c-.28-.33-.63-.599-1.026-.785l.855-1.742-.125-.019-.007-.001.164-.333a5.327 5.327 0 00-2.219-.48v.302l.169.04.09-.09.037.016.478.105.016-.016.249-.142.016.158.212.021.175.137.037.037.265.226.311.019-.84 1.71a3.045 3.045 0 00-1.004-.232l-.179-.005h-.032V3.032l-.128-.03v-.27l.128-.002v-.127z" id="a"/></defs><g fill-rule="nonzero" fill="none"><path fill="#072B5F" d="M0 .063h32v15.873H0z"/><path d="M16.064 15.746c4.312 0 7.808-3.468 7.808-7.746 0-4.278-3.496-7.746-7.808-7.746C11.752.254 8.256 3.722 8.256 8c0 4.278 3.496 7.746 7.808 7.746zm0 .127c-4.383 0-7.936-3.525-7.936-7.873 0-4.348 3.553-7.873 7.936-7.873S24 3.652 24 8c0 4.348-3.553 7.873-7.936 7.873z" fill="#FFF"/><use fill="#FFF" xlink:href="#a"/></g></svg>