<svg xmlns="http://www.w3.org/2000/svg" xmlns:xlink="http://www.w3.org/1999/xlink" viewBox="0 0 32 16"><defs><path id="a" d="M0 0h4.8v4.8H0z"/></defs><g fill="none" fill-rule="evenodd"><path fill="#74ACDF" fill-rule="nonzero" d="M0 0h32v16H0z"/><path fill="#FFF" fill-rule="nonzero" d="M0 5.31h32v5.38H0z"/><path fill="#F6B40E" d="M18.37 8l-1.4-.05v-.02c.23-.04.4-.17.63-.15.29.03.45-.13.57-.16.1-.04.17.04.2 0 0-.03-.08-.1-.24-.08-.16.02-.2.15-.56.12-.3-.03-.4.1-.63.1v-.02l1.26-.58s.04-.01.03-.04c-.01-.03-.05-.01-.05-.01l-1.3.48-.01-.01c.2-.13.3-.3.52-.38.27-.08.36-.3.45-.37.1-.08.18-.03.19-.07 0-.03-.11-.07-.25.02-.14.08-.13.2-.47.32-.29.09-.34.24-.54.34l-.01-.02.94-1.02s.03-.03.01-.05c-.02-.02-.05 0-.05 0l-1.02.95c.12-.2.15-.4.33-.55.22-.19.22-.42.28-.52.05-.1.15-.1.14-.14-.01-.03-.13-.02-.22.11-.1.13-.05.25-.32.48-.22.2-.21.35-.36.52l-.02-.01.48-1.3s.02-.05 0-.06c-.04 0-.05.03-.05.03l-.58 1.26h-.02c.05-.23 0-.43.1-.63.14-.26.06-.47.06-.59.01-.12.11-.15.09-.18-.03-.03-.13.03-.17.19-.04.15.06.24-.1.56-.14.26-.07.4-.15.61h-.02l-.05-1.38s0-.05-.03-.05-.03.04-.03.04l-.05 1.4h-.02c-.04-.23-.17-.4-.15-.63.03-.29-.13-.45-.16-.56-.04-.12.04-.18 0-.2-.03-.02-.1.07-.08.23.02.16.15.21.12.56-.03.3.1.4.1.63h-.02l-.58-1.26s-.01-.04-.04-.03c-.03.01-.01.05-.01.05l.48 1.3-.01.01c-.13-.2-.3-.3-.38-.52-.08-.27-.3-.36-.37-.45-.08-.1-.03-.18-.07-.19-.03 0-.07.11.02.25.08.14.2.14.32.47.09.29.24.34.33.54l-.01.01-1.02-.94s-.03-.03-.05-.01c-.02.02 0 .05 0 .05l.95 1.02v.01c-.2-.13-.4-.15-.55-.34-.19-.22-.42-.22-.52-.28-.1-.05-.1-.15-.14-.14-.03.01-.02.13.11.22.13.1.25.05.48.32.2.23.35.21.52.36l-.01.02-1.3-.48s-.05-.02-.06.01c0 .03.03.04.03.04l1.26.58v.02c-.23-.05-.43 0-.63-.1-.26-.14-.47-.05-.59-.06-.12-.01-.15-.1-.18-.08-.03.02.03.12.19.16.15.04.24-.05.56.1.26.14.4.07.61.15v.02L13.7 8s-.05 0-.05.03.04.03.04.03l1.4.05v.02c-.23.04-.4.17-.63.15-.29-.03-.45.13-.56.17-.12.03-.18-.04-.2-.01-.02.03.07.1.23.08.16-.02.21-.14.56-.12.3.03.4-.1.63-.1v.02l-1.26.58s-.04.01-.03.04c.01.03.05.01.05.01l1.3-.48.01.01c-.2.13-.3.3-.52.38-.27.09-.36.3-.45.37-.1.08-.18.03-.19.07 0 .04.11.07.25-.01.14-.09.14-.22.47-.33.29-.09.34-.24.54-.33l.01.01-.94 1.02s-.03.03-.01.05c.02.02.05 0 .05 0l1.02-.95h.01c-.13.2-.15.4-.34.56-.22.18-.22.4-.28.51-.05.1-.15.1-.14.14.01.03.13.02.22-.11.1-.13.05-.25.32-.48.23-.2.21-.35.36-.51h.02l-.48 1.3s-.02.05.01.06c.03.01.04-.03.04-.03l.58-1.26h.02c-.05.23 0 .43-.1.64-.14.25-.05.46-.06.58-.01.12-.1.15-.08.18.02.03.12-.03.16-.18.04-.16-.05-.25.1-.56.14-.27.07-.41.15-.62h.02l.05 1.39s0 .04.03.04.03-.04.03-.04l.05-1.4h.02c.04.23.17.4.15.63-.03.29.13.45.17.57.03.1-.04.17-.01.2.03 0 .1-.08.08-.24-.02-.16-.14-.2-.12-.56.03-.3-.1-.4-.1-.63h.02l.58 1.26s.01.04.04.03c.03-.01.01-.05.01-.05l-.48-1.3.01-.01c.13.2.3.3.38.52.09.27.3.36.37.45.08.1.03.18.07.19.04 0 .07-.11-.01-.25-.09-.14-.22-.13-.33-.47-.09-.29-.24-.34-.33-.54l.01-.01 1.02.94s.03.03.05.01c.02-.02 0-.05 0-.05l-.95-1.02c.2.12.4.15.56.33.18.22.4.22.51.28.1.05.1.15.14.14.03-.01.02-.13-.11-.22-.13-.1-.25-.05-.48-.32-.2-.22-.35-.21-.51-.36v-.02l1.3.48s.05.02.06 0c.01-.04-.03-.05-.03-.05l-1.26-.58V8.3c.23.05.43 0 .64.1.25.14.46.06.58.06.12.01.15.11.18.09.03-.03-.03-.13-.18-.17-.16-.04-.25.06-.56-.1-.27-.14-.41-.07-.62-.15v-.02l1.39-.05s.04 0 .04-.03-.04-.03-.04-.03"/><g transform="translate(13.63 5.63)"><mask id="b" fill="#fff"><use xlink:href="#a"/></mask><path fill="#85340A" d="M4.73 2.41l-1.36.05v-.03l.64-.03-.63-.02v-.04l1.35.05h.02v.01l-.02.01zm-1.15.16c.11 0 .22.01.37.1.22.1.33.1.43.1a.33.33 0 0 1 .14 0c.11.03.16.09.17.11v.02l-.01-.02c-.03-.02-.07-.06-.15-.06h-.12a.74.74 0 0 1-.46-.06.85.85 0 0 0-.39-.08c-.07 0-.14 0-.22-.02l.01-.04c.23.04.4-.02.61.1-.15-.14-.35-.07-.6-.15v-.04c.08.03.15.03.22.04zm.98.72l.02.01h-.03l-1.27-.47.01-.03.6.22-.58-.27.01-.03 1.24.57zM3.43 3c.1.05.2.1.3.23.16.18.27.22.36.25.05.02.09.03.13.06.09.07.11.14.11.18v.01l-.01-.02a.23.23 0 0 0-.11-.12l-.11-.04a.74.74 0 0 1-.4-.23c-.1-.12-.21-.17-.33-.23a1.53 1.53 0 0 1-.2-.1 1 1 0 0 0 .03-.03c.19.12.37.13.52.32-.09-.18-.3-.2-.5-.36l.02-.04a1 1 0 0 0 .19.12zm.63 1.04v.02l-.02-.01-1-.93.03-.02.46.43-.43-.46.03-.03.93 1zm-.94-.7c.07.09.14.17.2.34.07.22.15.3.22.37l.1.1c.06.1.05.18.04.2v.02l-.01-.03c0-.03 0-.1-.06-.15a.66.66 0 0 0-.09-.08.7.7 0 0 1-.27-.37.85.85 0 0 0-.23-.33c-.04-.05-.1-.1-.14-.17l.04-.02c.13.19.3.27.36.5-.01-.2-.2-.3-.32-.53l.03-.02.13.18zm.18 1.2v.03l-.02-.02-.56-1.23.03-.02.26.58-.22-.6.04-.01.47 1.28zm-.6-1c.03.11.07.22.05.39-.02.24.03.34.07.43l.05.13c.02.12-.02.18-.04.2l-.01.01a.23.23 0 0 0 .01-.16.67.67 0 0 0-.05-.1c-.06-.11-.14-.25-.12-.46.02-.14-.03-.26-.07-.39a1.52 1.52 0 0 1-.07-.2l.04-.02c.05.23.17.37.14.6.07-.19-.06-.35-.09-.6l.04-.01c0 .08.03.14.05.2zm-.3 1.19v.02l-.01-.02-.05-1.36h.03L2.4 4l.02-.63h.04l-.05 1.36zm-.17-1.16a.7.7 0 0 1-.1.38c-.1.21-.1.32-.1.42.01.05.01.1 0 .14-.03.11-.09.16-.11.17H1.9l.02-.01a.23.23 0 0 0 .06-.15v-.11a.74.74 0 0 1 .06-.46.85.85 0 0 0 .08-.4c0-.07 0-.14.02-.22l.04.01c-.04.23.02.4-.1.62.14-.16.07-.36.15-.6h.04a.95.95 0 0 0-.04.21zm-.72.98s0 .03-.01.02v-.03l.47-1.27.03.01-.22.6.26-.58.04.02-.57 1.23zm.28-1.13c-.05.1-.1.2-.23.3a.73.73 0 0 0-.25.36c-.02.05-.03.09-.06.13-.07.1-.14.12-.17.12h-.02l.02-.02a.21.21 0 0 0 .12-.1.66.66 0 0 0 .04-.12.74.74 0 0 1 .23-.4c.12-.1.17-.2.23-.33l.1-.2.03.03c-.12.2-.13.37-.32.52.18-.09.2-.3.36-.5l.04.03-.12.18zm-1.04.63s-.01.02-.02.01l.01-.02.93-1 .02.02-.43.47.46-.43.03.02-1 .93zm.7-.94c-.09.07-.17.14-.34.2a.7.7 0 0 0-.37.23l-.1.09c-.1.06-.18.05-.2.04H.42h.03c.03-.01.1-.01.15-.06a.66.66 0 0 0 .08-.1c.07-.08.17-.21.37-.27a.96.96 0 0 0 .33-.22l.17-.15.02.04c-.19.13-.27.3-.5.36.2-.01.3-.2.53-.32l.02.03a.95.95 0 0 0-.18.13zm-1.2.18H.21l.02-.01 1.23-.57.02.03L.9 3l.6-.21.01.03-1.28.47zm1-.6a.89.89 0 0 1-.39.06c-.24-.02-.34.02-.43.07a.46.46 0 0 1-.13.04c-.12.02-.18-.01-.2-.04H.08.1c.03 0 .09.03.16 0a.66.66 0 0 0 .1-.05c.11-.05.25-.13.46-.11.14 0 .26-.03.39-.08l.2-.07.02.05c-.23.04-.37.17-.6.14.19.06.35-.07.6-.1a1 1 0 0 0 .01.04.95.95 0 0 0-.2.05zm-1.2-.28H.04c0-.02.02-.02.02-.02l1.36-.05a.9.9 0 0 0 0 .04L.8 2.4l.63.02v.04L.06 2.41zm1.16-.17a.93.93 0 0 1-.38-.1.72.72 0 0 0-.42-.1H.28C.17 2 .12 1.93.1 1.91V1.9l.01.02c.03.02.07.06.15.07l.11-.01a.74.74 0 0 1 .46.06c.14.07.26.08.4.08.07 0 .14 0 .22.02a1 1 0 0 0-.01.04c-.23-.04-.4.02-.62-.1.16.14.36.08.6.15v.04a.95.95 0 0 0-.21-.03zm-.98-.72S.2 1.5.22 1.5h.03l1.27.47a.9.9 0 0 0-.01.04l-.6-.22.58.26-.02.03-1.23-.56zm1.13.28a.86.86 0 0 1-.3-.23C.9 1.38.8 1.35.7 1.3a.2.2 0 0 1-.12-.05c-.1-.07-.12-.14-.12-.17v-.02l.02.02c.01.04.04.09.1.12l.12.04c.11.03.27.08.4.24.1.11.2.16.33.22l.2.1a1 1 0 0 0-.03.04c-.2-.13-.37-.14-.52-.33.09.18.3.2.5.37l-.03.03c-.06-.05-.12-.08-.18-.11zM.74.76V.74H.72h.02l1 .93-.02.02-.47-.43.43.47-.02.03-.93-1zm.94.69a.99.99 0 0 1-.2-.33.67.67 0 0 0-.23-.37l-.09-.1C1.1.54 1.11.46 1.12.43v.02c.01.04.01.1.06.15l.1.08c.08.07.21.17.27.37.05.14.13.23.22.33l.15.17a.98.98 0 0 0-.04.02c-.13-.19-.3-.27-.36-.5.01.2.2.3.32.53a.97.97 0 0 0-.03.02.95.95 0 0 0-.13-.17zM1.5.25V.22l.01.02.57 1.24h-.03L1.79.93 2 1.5l-.03.01L1.5.25zm.6 1a.84.84 0 0 1-.06-.39.72.72 0 0 0-.07-.42L1.93.3c-.03-.1.01-.18.04-.2V.09.1a.23.23 0 0 0 0 .16c0 .03.03.07.05.1.05.11.13.25.11.46 0 .15.03.27.08.39l.07.21h-.05c-.04-.22-.17-.35-.14-.6-.06.2.07.36.1.62a1 1 0 0 0-.04 0c0-.07-.03-.14-.05-.2zM2.39.06V.05c.02 0 .02.01.02.02l.05 1.36a.9.9 0 0 0-.04 0L2.4.78l-.02.63a.9.9 0 0 0-.04 0L2.39.08zm.17 1.15c.01-.11.02-.22.1-.37.1-.22.1-.33.1-.43V.28c.04-.11.1-.16.12-.17h.02l-.02.01c-.02.03-.06.07-.07.15l.01.12c.01.11.03.27-.06.46a.85.85 0 0 0-.08.39c0 .07 0 .14-.02.22l-.04-.01c.04-.23-.02-.4.1-.61-.14.15-.08.35-.15.6h-.04l.03-.22zm.72-.98L3.3.22v.03l-.47 1.27a.96.96 0 0 0-.04-.01l.22-.6-.26.58-.03-.01.56-1.24zM3 1.37c.05-.1.1-.2.23-.3A.72.72 0 0 0 3.5.7a.46.46 0 0 1 .06-.13c.07-.09.14-.11.17-.11h.02l-.02.01A.23.23 0 0 0 3.6.6a.67.67 0 0 0-.04.11.74.74 0 0 1-.24.4c-.11.1-.16.21-.22.33l-.1.2a.92.92 0 0 0-.04-.03c.13-.19.14-.37.33-.52-.18.09-.2.3-.37.5l-.03-.02c.05-.06.08-.13.11-.19zM4.04.74h.02v.02l-.93 1-.02-.03.43-.46-.47.43a.96.96 0 0 0-.03-.03l1-.93zm-.69.94a.87.87 0 0 1 .33-.2c.23-.07.3-.15.37-.22a.46.46 0 0 1 .1-.1c.1-.06.18-.05.21-.04h.01l-.02.01c-.04 0-.1 0-.15.06l-.08.08a.66.66 0 0 1-.37.28.85.85 0 0 0-.33.23c-.05.04-.1.1-.17.14a.9.9 0 0 0-.02-.04c.19-.13.27-.3.5-.36-.2.01-.3.2-.53.32a.97.97 0 0 0-.02-.03.95.95 0 0 0 .17-.13zm1.2-.18h.03l-.02.02-1.24.56v-.03l.56-.26L3.3 2l-.01-.04 1.27-.47zm-1 .6c.1-.03.21-.07.39-.05a.7.7 0 0 0 .42-.07.46.46 0 0 1 .14-.05c.11-.02.18.02.2.04l.01.01H4.7a.24.24 0 0 0-.16-.01.67.67 0 0 0-.1.05.74.74 0 0 1-.46.12.85.85 0 0 0-.39.07l-.21.07v-.04c.22-.05.35-.17.6-.14-.2-.07-.36.06-.62.09a1 1 0 0 0 0-.04c.07 0 .14-.03.2-.05zm1.21.26h-.02L3.43 2.3a2 2 0 0 0 .16-.05.81.81 0 0 1 .38-.08c.21.02.36-.06.47-.12l.1-.05c.06-.02.1 0 .14.01.02.01.05.02.07 0l-.01-.06c-.03-.04-.12-.08-.25-.06l-.14.05c-.09.04-.18.09-.41.07a.9.9 0 0 0-.4.05l-.19.05 1.23-.56.02-.01c.02-.02.02-.04.01-.06a.04.04 0 0 0-.02-.02h-.05l-1.23.46a2 2 0 0 0 .13-.12c.1-.08.19-.17.32-.2.2-.07.31-.2.4-.3a.65.65 0 0 1 .06-.08c.05-.05.1-.05.13-.05s.06 0 .06-.04L4.4 1.1c-.05-.02-.14-.02-.25.04a.5.5 0 0 0-.12.1.65.65 0 0 1-.35.22.9.9 0 0 0-.34.2.96.96 0 0 1-.16.12l.91-.99c.03-.02.04-.05.01-.07C4.1.71 4.09.7 4.07.7c-.02 0-.04.02-.04.03l-.96.88.08-.15c.05-.12.1-.23.2-.32.17-.14.22-.3.26-.42a.64.64 0 0 1 .03-.1c.03-.06.07-.08.1-.1.03 0 .06-.02.05-.05 0-.01-.02-.03-.04-.03-.06 0-.14.03-.22.13L3.45.7a.65.65 0 0 1-.24.33.89.89 0 0 0-.24.32l-.1.17.47-1.26c0-.03 0-.06-.02-.07h-.04c-.02 0-.03.03-.03.03l-.55 1.2.02-.18c0-.13 0-.25.07-.38.1-.19.08-.36.07-.48v-.1c0-.07.03-.1.05-.13.02-.02.04-.05.02-.07 0 0-.02-.02-.05-.01-.05.01-.12.08-.15.2v.15c0 .1 0 .2-.1.4a.76.76 0 0 0-.1.4l-.03.19L2.45.07C2.45.04 2.43 0 2.4 0a.04.04 0 0 0-.04.04.1.1 0 0 0-.01.02L2.3 1.37a1.99 1.99 0 0 0-.05-.16.82.82 0 0 1-.08-.38C2.2.62 2.11.47 2.05.36L2 .26C1.98.2 2 .16 2 .12c.02-.02.03-.05 0-.07l-.05.01c-.04.03-.08.12-.06.25 0 .05.03.1.05.14.04.09.08.18.07.41-.02.18.02.29.05.4l.05.19L1.55.22C1.54.2 1.51.17 1.48.2c-.02 0-.03.02-.03.04l.01.03.45 1.23a2 2 0 0 0-.1-.13.77.77 0 0 1-.22-.32c-.07-.2-.2-.31-.3-.4a.65.65 0 0 1-.08-.06.2.2 0 0 1-.04-.13c0-.03 0-.06-.04-.06 0 0-.03 0-.04.02-.03.05-.03.14.04.25a.5.5 0 0 0 .1.12c.07.06.15.13.22.35a.9.9 0 0 0 .2.34l.12.16L.78.72C.76.69.73.68.7.7v.08l.89.96a2 2 0 0 0-.15-.08.83.83 0 0 1-.32-.2.77.77 0 0 0-.42-.26.64.64 0 0 1-.1-.03.2.2 0 0 1-.1-.1c0-.03-.02-.06-.05-.05-.01 0-.03.02-.03.04-.01.06.03.14.13.22l.14.07c.08.03.18.07.33.24a.9.9 0 0 0 .32.24l.17.1-1.26-.47c-.03 0-.06 0-.08.02v.04l.04.03 1.19.55-.17-.02c-.13 0-.25 0-.38-.07a.77.77 0 0 0-.48-.07h-.1a.17.17 0 0 1-.12-.05C.13 1.87.1 1.85.08 1.87c-.01 0-.02.02-.01.05 0 .05.08.12.2.15h.15c.1 0 .2 0 .4.1.17.09.28.1.4.1l.19.03-1.35.05c-.03 0-.06.02-.06.05 0 .02.01.04.03.04l.03.01 1.3.05-.16.05c-.12.05-.23.1-.37.08-.22-.02-.36.06-.47.12a.64.64 0 0 1-.1.05c-.06.02-.1 0-.14 0-.02-.02-.05-.03-.07 0v.05c.04.04.13.08.25.06.06 0 .1-.03.15-.05a.7.7 0 0 1 .4-.07c.19.02.3-.02.4-.05a.95.95 0 0 1 .2-.05l-1.23.56c-.03.01-.05.04-.04.07.01.02.03.03.05.03l.03-.01 1.22-.45a2 2 0 0 0-.13.11c-.1.09-.18.17-.31.21a.82.82 0 0 0-.4.3l-.07.08a.2.2 0 0 1-.13.04c-.02 0-.05 0-.06.04 0 0 0 .03.03.04.04.03.14.03.25-.04a.5.5 0 0 0 .11-.1.7.7 0 0 1 .36-.22c.17-.05.25-.13.34-.2l.16-.12-.92.99c-.02.02-.03.05 0 .08l.02.01h.03a.1.1 0 0 0 .02-.02l.96-.9a2 2 0 0 0-.08.16.75.75 0 0 1-.21.32c-.17.14-.21.3-.25.42l-.03.1c-.03.06-.08.08-.1.1-.03 0-.06.02-.05.05 0 .01.01.03.04.03.05.01.14-.03.22-.13a.35.35 0 0 0 .06-.14c.04-.08.07-.18.25-.33.13-.12.19-.22.24-.32.03-.06.05-.11.1-.17l-.47 1.26c-.01.03-.01.06.02.08a.04.04 0 0 0 .03 0c.03-.01.04-.04.04-.04l.54-1.19v.17c-.01.13-.02.25-.08.38-.1.2-.08.36-.07.48v.11c0 .06-.03.1-.05.12-.02.02-.04.05-.02.07 0 .01.02.02.05.01.05 0 .12-.08.15-.2a.5.5 0 0 0 0-.15c0-.1 0-.2.1-.4.08-.17.1-.28.1-.4l.03-.19.05 1.35c0 .03.02.06.05.06.02 0 .03-.01.04-.04a.1.1 0 0 0 0-.02l.06-1.3.05.16c.05.12.09.23.08.37-.02.22.06.36.12.47l.05.1c.02.06 0 .1-.01.14-.01.02-.02.05 0 .07h.06c.04-.04.08-.13.06-.25l-.05-.15c-.04-.08-.09-.18-.07-.4a.75.75 0 0 0-.06-.4l-.04-.2.56 1.23.01.02c.02.02.04.03.06.02l.02-.03v-.05l-.46-1.22a2 2 0 0 0 .12.13c.08.1.17.18.2.31.07.21.2.32.3.4.04.02.07.04.08.07.05.04.05.1.05.13 0 .02 0 .05.04.06 0 0 .02 0 .04-.03.02-.04.02-.14-.04-.25a.36.36 0 0 0-.1-.11c-.07-.07-.15-.14-.22-.36-.05-.17-.13-.25-.2-.34l-.12-.16.99.92c.02.02.05.03.07 0 .02 0 .02-.03.01-.05a.1.1 0 0 0-.02-.02l-.88-.96.15.08c.12.05.23.1.32.21.14.17.3.21.42.25l.1.03c.06.03.08.08.1.1 0 .03.02.05.04.05h.01c.01 0 .03-.01.03-.04 0-.05-.03-.14-.13-.22l-.14-.06c-.09-.04-.19-.07-.33-.25a1.02 1.02 0 0 0-.32-.24c-.06-.03-.12-.05-.17-.1l1.26.47c.03.01.06.01.07-.02v-.03c0-.03-.03-.04-.03-.04l-1.2-.54h.18c.13.01.25.02.38.08.19.1.36.08.48.07h.1c.07 0 .1.03.13.05.02.01.03.03.05.03l.02-.01s.02-.02.01-.05c-.01-.05-.08-.12-.2-.15h-.15c-.1 0-.2 0-.4-.1a.9.9 0 0 0-.4-.1.96.96 0 0 1-.19-.03l1.34-.05c.03 0 .07-.02.07-.05 0-.02-.02-.03-.04-.04z" mask="url(#b)"/></g><path fill="#F6B40E" d="M16.13 7.73a.29.29 0 0 0-.06.12.4.4 0 0 0 .08.26l-.03.02a.52.52 0 0 1-.06-.34l.02-.08c.17-.13.39-.15.55.07-.17-.14-.38-.16-.5-.05m.45.13c-.01.01-.08-.1-.22-.1-.04 0-.08 0-.13.04-.04.04-.07.05-.09.06l-.01-.02c0-.01.03 0 .07-.04.05-.04.07-.06.16-.06.15 0 .24.12.22.12m-.4.01c.04-.06.1-.08.17-.08s.13.02.18.07c-.1.09-.27.08-.34.01m.03.08c-.08-.05-.08-.06-.06-.06l.09.05c.05.03.14.03.29-.04-.13.1-.25.1-.32.05m-.2.58c-.16 0-.08-.09-.24-.1h.03a.5.5 0 0 1 .12-.03l.1.01c.04 0 .07-.03.21.01h.03c-.16.02-.08.1-.24.1m0 .04a.14.14 0 0 0-.14.1.13.13 0 0 1 .27 0 .14.14 0 0 0-.13-.1m-.08-.24a.2.2 0 0 1 .08.02.2.2 0 0 1 .07-.02c.07 0 .1.06.17.1-.04 0-.07-.04-.12-.07-.05-.03-.1 0-.12 0-.03 0-.08-.03-.13 0l-.12.08c.07-.05.1-.11.17-.11m-.43-.42c.15.07.24.07.3.04l.08-.05c.02 0 .02.01-.06.06-.07.05-.2.06-.32-.05m.35-.04a.32.32 0 0 1-.17.06.25.25 0 0 1-.17-.05c.04-.06.1-.08.16-.08.07 0 .14.02.18.07m-.17-.12c.1 0 .12.02.16.06.04.04.07.03.07.04l-.01.02c-.02-.01-.05-.02-.09-.06-.04-.04-.09-.04-.13-.04-.13 0-.2.11-.22.1-.02 0 .07-.12.22-.12m.28-.03l.02.08c.02.11 0 .23-.06.34l-.03-.02c.07-.09.1-.18.08-.26a.29.29 0 0 0-.06-.12c-.11-.11-.33-.1-.5.05.17-.22.39-.2.55-.07m.05.51a.1.1 0 0 0 .1-.06c0 .03.01.05.04.05.02 0 .04-.02.04-.05a.04.04 0 0 0-.03-.04.07.07 0 1 1-.07.1.14.14 0 0 1-.07.02h-.01c-.02 0-.06 0-.08-.02a.07.07 0 1 1-.07-.1.04.04 0 0 0-.03.04.04.04 0 0 0 .09 0c0 .02.04.06.1.06m0-1.11a.92.92 0 1 0 0 1.84.92.92 0 0 0 0-1.84"/></g></svg>
