<svg xmlns="http://www.w3.org/2000/svg" viewBox="0 0 32 16">
  <g fill="none" fill-rule="evenodd">
    <rect width="32" height="16" fill="#00008B" transform="matrix(1 0 0 -1 0 16)"/>
    <polygon fill="#FFF" points="16 0 16 1 12.8 2.5 16 2.5 16 5.5 13.334 5.5 16 6.75 16 8 14.934 8 9.6 5.5 9.5 5.5 9.5 8 6.5 8 6.5 5.5 6.4 5.5 1.067 8 0 8 0 6.75 2.667 5.5 0 5.5 0 2.5 3.2 2.5 0 1 0 0 1.6 0 6.5 2.297 6.5 0 9.5 0 9.5 2.297 14.4 0"/>
    <polygon fill="red" points="9 0 9 3 16 3 16 5 9 5 9 8 7 8 7 5 0 5 0 3 7 3 7 0"/>
    <polygon fill="red" fill-rule="nonzero" points="5.399 5.5 .087 8 0 8 0 7.489 4.226 5.5"/>
    <polygon fill="red" fill-rule="nonzero" points="12.274 5.5 16 7.253 16 7.805 11.101 5.5"/>
    <polygon fill="red" fill-rule="nonzero" points=".086 0 5.4 2.5 4.226 2.5 0 .511 0 0"/>
    <polygon fill="red" fill-rule="nonzero" points="16 0 16 .276 11.274 2.5 10.1 2.5 15.415 0"/>
    <g fill="#FFF" transform="translate(5 2)">
      <polygon points="2.327 8.032 2.787 9.459 4.193 8.928 3.361 10.177 4.653 10.942 3.156 11.072 3.362 12.558 2.327 11.471 1.291 12.558 1.497 11.072 0 10.942 1.293 10.177 .461 8.928 1.866 9.459"/>
      <polygon points="18.263 10.645 18.484 11.329 19.158 11.075 18.759 11.673 19.378 12.039 18.661 12.101 18.759 12.813 18.263 12.292 17.766 12.813 17.865 12.101 17.147 12.039 17.767 11.673 17.368 11.075 18.042 11.329"/>
      <polygon points="14.311 4.335 14.531 5.018 15.205 4.764 14.807 5.362 15.426 5.728 14.708 5.791 14.807 6.502 14.311 5.981 13.814 6.502 13.913 5.791 13.195 5.728 13.815 5.362 13.416 4.764 14.09 5.018"/>
      <polygon points="18.263 0 18.484 .684 19.158 .429 18.759 1.027 19.378 1.394 18.661 1.456 18.759 2.167 18.263 1.647 17.766 2.167 17.865 1.456 17.147 1.394 17.767 1.027 17.368 .429 18.042 .684"/>
      <polygon points="21.833 3.251 22.053 3.935 22.727 3.68 22.328 4.278 22.948 4.645 22.23 4.707 22.329 5.418 21.833 4.898 21.336 5.418 21.435 4.707 20.717 4.645 21.337 4.278 20.938 3.68 21.612 3.935"/>
      <polygon points="19.888 6.438 20.064 6.867 20.526 6.901 20.172 7.2 20.282 7.649 19.888 7.405 19.494 7.649 19.605 7.2 19.251 6.901 19.713 6.867"/>
    </g>
  </g>
</svg>
