<svg xmlns="http://www.w3.org/2000/svg" viewBox="0 0 32 16"><g fill="none" fill-rule="evenodd"><path fill="#00008B" d="M0 16h32V0H0z"/><path fill="#000" d="M7.97 3.98L15.94 0 7.97 3.98zm0 0L0 0l7.97 3.98zm0 0l7.97 3.99-7.97-3.99zM0 7.97l7.97-3.99L0 7.97z"/><path fill="#FFF" d="M13.93 0L7.97 2.98 2 0H0v1l5.97 2.98L0 6.97v1h2l5.97-2.98 5.96 2.98h2l.01-1-5.97-2.99L15.93 1V0z"/><path fill="#000" d="M15.94 0L7.97 3.98 15.94 0zM7.97 3.98L0 0l7.97 3.98zM0 7.97l7.97-3.99L0 7.97zm7.97-3.99l7.97 3.99-7.97-3.99z"/><path fill="red" d="M14.6 0L7.97 3.32v.66L0 0v.67l6.63 3.31h1.34L0 7.97h1.33l6.64-3.32v-.67L15.93 0H14.6zM7.97 3.98l7.96 3.99V7.3L9.3 3.98H7.97z"/><path fill="#FFF" d="M6.48 0v2.49H0v2.99h6.48v2.49h2.98V5.48h6.48V2.49H9.46V0z"/><path fill="red" d="M7.1 0v3.07H0v1.86h7.1V8h1.73V4.93h7.11V3.07H8.83V0z"/><path fill="#FFF" d="M8 9.56l.46 1.43 1.41-.53-.84 1.25 1.3.76-1.5.13.21 1.49L8 13l-1.04 1.09.21-1.49-1.5-.13 1.3-.76-.84-1.25 1.41.53zm15.94 2.62l.22.68.67-.26-.4.6.62.37-.72.06.1.71-.49-.52-.5.52.1-.71-.72-.06.62-.37-.4-.6.68.26zm-3.96-6.32l.22.69.68-.26-.4.6.62.37-.72.06.1.71-.5-.52-.49.52.1-.71-.72-.06.62-.37-.4-.6.67.26zm3.96-4.33l.22.68.67-.25-.4.6.62.36-.72.07.1.71-.49-.52-.5.52.1-.71-.72-.07.62-.36-.4-.6.68.25zm3.57 3.25l.22.68.67-.25-.4.6.62.36-.72.07.1.71-.49-.52-.5.52.1-.71-.72-.07.62-.36-.4-.6.68.25zm-1.95 3.19l.18.43.46.03-.35.3.11.45-.4-.24-.39.24.11-.45-.36-.3.47-.03z"/></g></svg>