<svg xmlns="http://www.w3.org/2000/svg" viewBox="0 0 32 16">
  <g fill="none" fill-rule="evenodd">
    <rect width="32" height="16" fill="#ED2939" transform="matrix(1 0 0 -1 0 16)"/>
    <rect width="32" height="5" fill="#00B9E4" transform="matrix(1 0 0 -1 0 5)"/>
    <rect width="32" height="5" y="11" fill="#3F9C35" transform="matrix(1 0 0 -1 0 27)"/>
    <g fill="#F0F0F0" fill-rule="nonzero" transform="translate(12 5)">
      <path d="M3.86256974,5.43755264 C2.54200709,5.43755264 1.47143783,4.34621475 1.47143783,3.00003369 C1.47143783,1.65385263 2.54200709,0.56251474 3.86256974,0.56251474 C4.27431189,0.56251474 4.66176198,0.66864324 5,0.855496782 C4.46934243,0.326505172 3.74368737,0 2.9429087,0 C1.31755506,0 0,1.34314882 0,3 C0,4.65685118 1.31758811,6 2.9429087,6 C3.74372042,6 4.46937548,5.67349483 5,5.14450322 C4.66176198,5.33142414 4.27431189,5.43755264 3.86256974,5.43755264 Z"/>
      <polygon points="6 1 6.383 2.076 7.414 1.586 6.924 2.617 8 3 6.924 3.383 7.414 4.414 6.383 3.924 6 5 5.617 3.924 4.586 4.414 5.076 3.383 4 3 5.076 2.617 4.586 1.586 5.617 2.076"/>
    </g>
  </g>
</svg>
