<?xml version="1.0" encoding="UTF-8"?>
<svg width="32px" height="16px" viewBox="0 0 32 16" version="1.1" xmlns="http://www.w3.org/2000/svg" xmlns:xlink="http://www.w3.org/1999/xlink">
    <!-- Generator: Sketch 51.3 (57544) - http://www.bohemiancoding.com/sketch -->
    <title>Bosnia-small</title>
    <desc>Created with Sketch.</desc>
    <defs></defs>
    <g id="Page-1" stroke="none" stroke-width="1" fill="none" fill-rule="evenodd">
        <g id="Bosnia-small">
            <rect id="Rectangle-8" fill="#002395" x="0" y="0" width="32" height="16"></rect>
            <polygon id="Path-5" fill="#FECB00" points="24.5410628 15.9613527 8.57971014 0 24.5410628 0"></polygon>
            <path d="M22.1835749,16 L21.0241546,16 L20.173913,15.3816425 L21.2560386,15.3816425 L21.6038647,14.3768116 L21.9903382,15.3816425 L23.0338164,15.3816425 L22.1835749,16 Z M18.9758454,15.0724638 L19.2463768,14.0289855 L18.3961353,13.3719807 L19.4782609,13.3719807 L19.826087,12.3671498 L20.2125604,13.3719807 L21.2560386,13.3719807 L20.4057971,14.0289855 L20.7149758,15.0724638 L19.826087,14.4541063 L18.9758454,15.0724638 Z M16.8888889,12.9855072 L17.1594203,11.942029 L16.3091787,11.2850242 L17.3913043,11.2850242 L17.7391304,10.2801932 L18.1256039,11.2850242 L19.1690821,11.2850242 L18.3188406,11.942029 L18.6280193,12.9855072 L17.7391304,12.3671498 L16.8888889,12.9855072 Z M14.8792271,10.9758454 L15.1497585,9.93236715 L14.2995169,9.27536232 L15.3816425,9.27536232 L15.7294686,8.2705314 L16.115942,9.27536232 L17.1594203,9.27536232 L16.3091787,9.93236715 L16.6183575,10.9758454 L15.7294686,10.3574879 L14.8792271,10.9758454 Z M12.7922705,8.88888889 L13.0628019,7.84541063 L12.2125604,7.1884058 L13.294686,7.1884058 L13.6425121,6.18357488 L14.0289855,7.1884058 L15.0724638,7.1884058 L14.2222222,7.84541063 L14.531401,8.88888889 L13.6425121,8.2705314 L12.7922705,8.88888889 Z M10.8599034,6.95652174 L11.1304348,5.91304348 L10.2801932,5.25603865 L11.3623188,5.25603865 L11.7101449,4.25120773 L12.0966184,5.25603865 L13.1400966,5.25603865 L12.2898551,5.91304348 L12.5990338,6.95652174 L11.7101449,6.33816425 L10.8599034,6.95652174 Z M8.85024155,4.9468599 L9.12077295,3.90338164 L8.2705314,3.24637681 L9.352657,3.24637681 L9.70048309,2.24154589 L10.0869565,3.24637681 L11.1304348,3.24637681 L10.2801932,3.90338164 L10.589372,4.9468599 L9.70048309,4.32850242 L8.85024155,4.9468599 Z M6.9178744,3.01449275 L7.1884058,1.97101449 L6.33816425,1.31400966 L7.42028986,1.31400966 L7.76811594,0.309178744 L8.15458937,1.31400966 L9.19806763,1.31400966 L8.34782609,1.97101449 L8.65700483,3.01449275 L7.76811594,2.39613527 L6.9178744,3.01449275 Z M4.90821256,1.00483092 L5.17874396,-9.23705556e-14 L6.33816425,-9.23705556e-14 L6.647343,1.00483092 L5.75845411,0.38647343 L4.90821256,1.00483092 Z" id="Combined-Shape" fill="#FFFFFF"></path>
        </g>
    </g>
</svg>