<svg xmlns="http://www.w3.org/2000/svg" viewBox="0 0 32 16">
  <g fill="none" fill-rule="evenodd">
    <rect width="32" height="16" fill="#002395" transform="matrix(1 0 0 -1 0 16)"/>
    <g transform="translate(6)">
      <polygon fill="#FECB00" points="20 16 4 0 20 0"/>
      <path fill="#FFF" d="M16.6956522,14.3768116 L17.0821256,15.3816425 L18.1256039,15.3816425 L17.2753623,16 L16.115942,16 L15.2657005,15.3816425 L16.3478261,15.3816425 L16.6956522,14.3768116 Z M14.9178744,12.3671498 L15.3043478,13.3719807 L16.3478261,13.3719807 L15.4975845,14.0289855 L15.8067633,15.0724638 L14.9178744,14.4541063 L14.0676329,15.0724638 L14.3381643,14.0289855 L13.4879227,13.3719807 L14.5700483,13.3719807 L14.9178744,12.3671498 Z M12.8309179,10.2801932 L13.2173913,11.2850242 L14.2608696,11.2850242 L13.410628,11.942029 L13.7198068,12.9855072 L12.8309179,12.3671498 L11.9806763,12.9855072 L12.2512077,11.942029 L11.4009662,11.2850242 L12.4830918,11.2850242 L12.8309179,10.2801932 Z M10.821256,8.2705314 L11.2077295,9.27536232 L12.2512077,9.27536232 L11.4009662,9.93236715 L11.7101449,10.9758454 L10.821256,10.3574879 L9.97101449,10.9758454 L10.2415459,9.93236715 L9.39130435,9.27536232 L10.47343,9.27536232 L10.821256,8.2705314 Z M8.73429952,6.18357488 L9.12077295,7.1884058 L10.1642512,7.1884058 L9.31400966,7.84541063 L9.62318841,8.88888889 L8.73429952,8.2705314 L7.88405797,8.88888889 L8.15458937,7.84541063 L7.30434783,7.1884058 L8.38647343,7.1884058 L8.73429952,6.18357488 Z M6.80193237,4.25120773 L7.1884058,5.25603865 L8.23188406,5.25603865 L7.38164251,5.91304348 L7.69082126,6.95652174 L6.80193237,6.33816425 L5.95169082,6.95652174 L6.22222222,5.91304348 L5.37198068,5.25603865 L6.45410628,5.25603865 L6.80193237,4.25120773 Z M4.79227053,2.24154589 L5.17874396,3.24637681 L6.22222222,3.24637681 L5.37198068,3.90338164 L5.68115942,4.9468599 L4.79227053,4.32850242 L3.94202899,4.9468599 L4.21256039,3.90338164 L3.36231884,3.24637681 L4.44444444,3.24637681 L4.79227053,2.24154589 Z M2.85990338,0.309178744 L3.24637681,1.31400966 L4.28985507,1.31400966 L3.43961353,1.97101449 L3.74879227,3.01449275 L2.85990338,2.39613527 L2.00966184,3.01449275 L2.28019324,1.97101449 L1.42995169,1.31400966 L2.51207729,1.31400966 L2.85990338,0.309178744 Z M1.42995169,-4.4408921e-14 L1.73913043,1.00483092 L0.850241546,0.38647343 L1.59872116e-14,1.00483092 L0.270531401,-4.4408921e-14 L1.42995169,-4.4408921e-14 Z"/>
    </g>
  </g>
</svg>
