<svg xmlns="http://www.w3.org/2000/svg" viewBox="0 0 32 16"><g fill="none"><path fill="red" d="M0 0h32v16H0z"/><path fill="#FFF" d="M8 0h16v16H8z"/><path fill="red" d="M16 1.5l-1.1 2.04c-.12.22-.34.2-.56.07l-.79-.4.59 3.12c.12.57-.27.57-.47.33L12.29 5.1l-.22.79c-.03.1-.14.2-.31.18L10 5.71l.46 1.67c.1.37.18.52-.1.62l-.62.3 3 2.43c.13.1.18.26.14.41l-.26.86c1.03-.12 1.96-.3 2.99-.4.1-.02.24.14.24.24L15.73 15h.5l-.08-3.15c0-.1.14-.27.23-.26 1.03.11 1.96.3 3 .41l-.27-.86a.4.4 0 0 1 .14-.4l3-2.45-.62-.29c-.28-.1-.2-.25-.1-.62l.46-1.67-1.75.37c-.17.03-.28-.08-.3-.18l-.23-.79-1.38 1.55c-.2.24-.6.24-.47-.33l.59-3.13-.79.41c-.22.13-.44.15-.57-.07"/></g></svg>