<svg viewBox="0 0 32 16" version="1.1" xmlns="http://www.w3.org/2000/svg" xmlns:xlink="http://www.w3.org/1999/xlink">
    <g id="Page-1" stroke="none" stroke-width="1" fill="none" fill-rule="evenodd">
        <g id="CYPRUS" fill-rule="nonzero">
            <rect id="Rectangle-path" fill="#FFFFFF" x="0" y="0" width="32" height="16"></rect>
            <g id="Group-7" transform="translate(9.408000, 2.752000)">
                <path d="M6.07738347,10.7610819 C6.07258347,10.7587885 6.07157013,10.7578285 6.06813013,10.7545485 L6.0647968,10.7514285 C6.0561568,10.7435085 6.0418368,10.7295085 6.02261013,10.7076152 C5.98709013,10.6672685 5.9394368,10.6082019 5.89754347,10.5560152 C5.8144768,10.4524685 5.7458368,10.3632685 5.73290347,10.3464685 L5.7117568,10.3189485 L5.5046368,10.2550819 L5.35341013,10.1845752 L5.43421013,10.0937485 L5.7117568,10.2125752 L5.9188768,10.2550819 L6.30189013,10.5367885 L6.3015968,10.5370285 C6.30082347,10.5376685 6.24589013,10.5833752 6.19130347,10.6330019 C6.1669568,10.6551352 6.13626347,10.6835619 6.11458347,10.7072152 C6.10458347,10.7180952 6.09578347,10.7288952 6.08978347,10.7376152 C6.08610347,10.7429752 6.08405013,10.7478285 6.08306347,10.7501752 L6.10685013,10.7353752 L6.1326368,10.7554285 L6.0801568,10.7603352 L6.0777568,10.7608685 L6.07738347,10.7610819 Z M4.65498347,10.3338819 C4.47426347,10.3338552 4.2957568,10.2839085 4.12445013,10.1854285 L4.12426347,10.1853219 L4.12434347,10.1851085 C4.12434347,10.1851085 4.14674347,10.1424152 4.20109013,10.1025485 C4.25285013,10.0645485 4.34621013,10.0191352 4.49709013,10.0185485 L4.50021013,10.0185485 C4.67890347,10.0185485 4.89757013,10.0792952 5.1501568,10.1991085 C5.14162347,10.2047619 4.94333013,10.3338819 4.65506347,10.3338819 L4.65533013,10.3341485 L4.65498347,10.3338819 Z M3.87178347,10.1602819 C3.83837013,10.1602819 3.80834347,10.1476419 3.78725013,10.1247352 C3.76994347,10.1059085 3.75754347,10.0808419 3.74933013,10.0479885 C3.73589013,9.9941752 3.7395968,9.9406552 3.73997013,9.9355352 C3.7539968,9.92964187 3.76829013,9.9264152 3.78162347,9.9260952 L3.78461013,9.92604187 C3.85157013,9.92604187 3.90434347,9.98412187 3.9269568,10.0416952 C3.93978347,10.0744152 3.94226347,10.1019352 3.93426347,10.1234819 C3.92626347,10.1450819 3.9011968,10.1600152 3.87186347,10.1600152 L3.87178347,10.1602819 Z M5.2499168,10.0005485 C4.78701013,9.93444187 4.5907968,9.76708187 4.50770347,9.6383352 C4.41909013,9.50102853 4.4372768,9.3740152 4.43746347,9.3727352 L4.43754347,9.37236187 L4.43789013,9.3722552 C4.43802347,9.3722552 4.46618347,9.3646552 4.50877013,9.36444187 C4.6319168,9.36444187 4.94690347,9.42638853 5.25005013,10.0002285 L5.2502368,10.0006019 L5.24970347,10.0003352 L5.2499168,10.0005485 Z M4.3011168,9.9088152 C4.1033568,9.90878853 3.9527968,9.87468187 3.8535968,9.8073752 C3.79658347,9.76870853 3.76869013,9.72622853 3.75530347,9.6973752 C3.74277013,9.6703352 3.7399168,9.64788187 3.73946347,9.64342853 C3.74469013,9.64102853 3.82565013,9.60508187 3.94653013,9.59942853 C3.95674347,9.59894853 3.9670368,9.5986552 3.9778368,9.59862853 C4.13069013,9.59862853 4.3631168,9.6484952 4.6083968,9.8860952 L4.6086368,9.8863352 L4.60834347,9.88636187 C4.49634347,9.90102853 4.3928768,9.90876187 4.3008768,9.90876187 L4.3011168,9.9088152 Z M3.3435168,9.8720152 C3.13498347,9.8720152 2.84850347,9.8083352 2.6698368,9.6296952 L2.66965013,9.62948187 L2.67018347,9.62934853 C2.67205013,9.62886853 2.86597013,9.57966853 3.08413013,9.57436187 C3.09714347,9.57404187 3.1102368,9.5738552 3.12346347,9.5738552 C3.31898347,9.5738552 3.4686368,9.6117752 3.5683168,9.68652187 C3.6031168,9.71262853 3.62213013,9.73692187 3.6263968,9.7607352 C3.62997013,9.78062853 3.61946347,9.80206853 3.5982368,9.81806853 C3.5533568,9.85196187 3.4731168,9.87004187 3.35970347,9.8718552 L3.34370347,9.87238853 L3.3435168,9.8720152 Z M2.66778347,9.52534853 C2.64210347,9.52534853 2.6179968,9.51398853 2.6016768,9.49422853 C2.58818347,9.4778552 2.5787968,9.45646853 2.57213013,9.4269752 C2.56098347,9.3776952 2.56434347,9.32948187 2.56437013,9.32900187 L2.5643968,9.32852187 C2.57410347,9.3239352 2.5849568,9.32148187 2.59685013,9.32118853 L2.59693013,9.32118853 C2.62778347,9.32118853 2.65130347,9.33798853 2.66597013,9.35206853 C2.6855168,9.37086853 2.7015168,9.3959352 2.71098347,9.42260187 C2.7207168,9.45006853 2.72229013,9.4730552 2.71578347,9.49286853 C2.71045013,9.50860187 2.6923168,9.5251352 2.66778347,9.5251352 L2.66778347,9.52534853 Z M4.22858347,9.49014853 C4.19517013,9.49014853 4.16514347,9.47750853 4.14405013,9.45460187 C4.12674347,9.4357752 4.11434347,9.41070853 4.10613013,9.3778552 C4.09269013,9.32404187 4.0963968,9.27052187 4.09677013,9.26540187 C4.1107968,9.25950853 4.12509013,9.25628187 4.13842347,9.25596187 L4.14141013,9.25590853 C4.20837013,9.25590853 4.26114347,9.31398853 4.2837568,9.37156187 C4.29658347,9.40428187 4.29906347,9.43180187 4.29106347,9.45334853 C4.28306347,9.4752152 4.25773013,9.48988187 4.22866347,9.48988187 L4.22858347,9.49014853 Z M3.4683168,9.45868187 C3.04866347,9.44390853 2.8308768,9.32462853 2.7220768,9.2271352 C2.66082347,9.1722552 2.62677013,9.1178552 2.60901013,9.08188187 C2.59226347,9.04790853 2.5859168,9.02190853 2.5847968,9.01686853 L2.5853568,9.01662853 C2.5854368,9.01662853 2.62506347,9.00244187 2.6889568,9.00118853 L2.69877013,9.00108187 C2.84029013,9.00108187 3.1283968,9.06052187 3.4681568,9.4584952 L3.4681568,9.45876187 L3.4683168,9.45868187 Z M3.92405013,9.41628187 C3.58642347,9.36486853 3.39514347,9.2199352 3.29413013,9.10734853 C3.1882368,8.98934853 3.15653013,8.8794552 3.1551168,8.8743352 C3.15573013,8.87414853 3.19698347,8.86340187 3.2591168,8.86182853 C3.26362347,8.8616952 3.2683168,8.86164187 3.27309013,8.86164187 C3.2779168,8.86164187 3.28282347,8.8616952 3.2878368,8.86182853 C3.45765013,8.8655352 3.7660768,8.94244187 3.92397013,9.4160952 L3.9242368,9.4160952 L3.92405013,9.41628187 Z M2.1907168,9.25414853 C2.0800768,9.25414853 1.97274347,9.24134853 1.87173013,9.2160952 C1.6949568,9.17188187 1.6191168,9.10438853 1.5866368,9.0555352 C1.56818347,9.02780187 1.56149013,9.00348187 1.55914347,8.98796187 C1.5568768,8.9731352 1.5580768,8.96132187 1.5583168,8.95934853 L1.55914347,8.9590552 C1.5595968,8.95894853 1.6764768,8.92612187 1.83818347,8.92364187 C1.8445568,8.9235352 1.85098347,8.92348187 1.8575168,8.92348187 C1.93557013,8.92348187 2.0123968,8.93092187 2.08589013,8.9456152 C2.36685013,9.00180187 2.5125568,9.21388187 2.51397013,9.2160152 L2.51410347,9.2162552 L2.5137568,9.2163352 C2.5121568,9.21660187 2.37829013,9.25420187 2.1905568,9.25420187 L2.1907168,9.25414853 Z M2.97445013,8.96934853 C2.94061013,8.96934853 2.91058347,8.95700187 2.88986347,8.9345752 C2.87282347,8.91614853 2.86042347,8.89076187 2.8519968,8.85702853 C2.83850347,8.8032952 2.84226347,8.75030853 2.8426368,8.74542853 C2.85666347,8.7395352 2.8709568,8.73630853 2.88429013,8.73598853 L2.8872768,8.7359352 C2.95410347,8.7359352 3.0069568,8.79404187 3.02965013,8.8516152 C3.04213013,8.8832952 3.0443168,8.9104952 3.03613013,8.93252187 C3.02786347,8.95492187 3.0035968,8.96932187 2.97453013,8.96932187 L2.97445013,8.96934853 Z M2.3851168,8.88854853 C2.38258347,8.8879352 2.22573013,8.84758853 2.0659968,8.7492152 C1.9181568,8.65820187 1.73730347,8.4972152 1.71525013,8.24708187 L1.71525013,8.24694853 L1.71562347,8.24684187 C1.71565013,8.24684187 1.72938347,8.24350853 1.74970347,8.2427352 C1.75250347,8.24262853 1.75549013,8.2425752 1.75861013,8.2425752 C1.80277013,8.2425752 1.89317013,8.25500187 2.00253013,8.33814853 C2.14173013,8.44428187 2.27026347,8.62934853 2.3851968,8.8888152 L2.3851168,8.88854853 Z M2.7699168,8.8744152 C2.76893013,8.8740152 2.65714347,8.82926853 2.51741013,8.7121752 C2.38722347,8.6030552 2.20418347,8.4065752 2.07165013,8.09004187 C2.07173013,8.0900152 2.10210347,8.07382853 2.14861013,8.0708952 C2.15130347,8.07070853 2.15402347,8.0706552 2.15677013,8.0706552 C2.16077013,8.0706552 2.16490347,8.07078853 2.1691168,8.0708952 C2.23341013,8.07270853 2.33133013,8.09942853 2.43989013,8.2165752 C2.56458347,8.35116187 2.67589013,8.57230853 2.77066347,8.8739352 L2.77093013,8.87478853 L2.77013013,8.87452187 L2.7699168,8.8744152 Z M1.77285013,8.84534853 C1.64429013,8.84534853 1.60029013,8.7756152 1.58733013,8.7456152 C1.56605013,8.69630853 1.57250347,8.64724187 1.5725568,8.64676187 L1.5726368,8.64622853 C1.5934368,8.64102853 1.6154368,8.63814853 1.63658347,8.6378552 L1.64098347,8.63782853 C1.74229013,8.63782853 1.82226347,8.68926853 1.8565568,8.7402552 C1.8633568,8.75036187 1.88421013,8.78542853 1.8669568,8.8128152 C1.85309013,8.8344152 1.82162347,8.84534853 1.77282347,8.84534853 L1.77285013,8.84534853 Z M1.48805013,8.48614853 C1.41626347,8.48614853 1.30642347,8.48174853 1.1909568,8.46076187 C1.07645013,8.4399352 1.01154347,8.3425752 0.9772768,8.26460187 C0.939970133,8.17966853 0.9294368,8.0986552 0.929330133,8.09782853 L0.929650133,8.09782853 C1.2838368,8.10822853 1.4511168,8.21172187 1.52906347,8.29668187 C1.60954347,8.3844152 1.6143168,8.47550853 1.6145568,8.48126853 L1.6143168,8.4812952 C1.61378347,8.4812952 1.5639168,8.4860952 1.4879168,8.4860952 L1.48805013,8.48614853 Z M1.85685013,8.1176152 C1.85637013,8.11702853 1.8159168,8.06700187 1.77597013,8.00486853 C1.73402347,7.93966853 1.69522347,7.87164187 1.69522347,7.81596187 C1.69522347,7.76220187 1.68258347,7.64886853 1.6750368,7.58612187 C1.66549013,7.50652187 1.6558368,7.43838853 1.6550368,7.43260187 L1.65538347,7.43270853 C1.66437013,7.43598853 1.87693013,7.51574853 1.87693013,7.7151352 C1.87693013,7.91484187 1.85725013,8.11550853 1.85706347,8.11750853 L1.8570368,8.11780187 L1.85677013,8.11780187 L1.85685013,8.1176152 Z M1.58138347,8.09868187 C1.57914347,8.09868187 1.57693013,8.09846853 1.5747168,8.09812187 C1.51189013,8.08764187 1.40149013,8.0396152 1.2794368,7.96964187 C1.1439168,7.8919352 1.03386347,7.80868187 0.969570133,7.7352152 C0.9109568,7.66822853 0.8761568,7.56302853 0.866103467,7.42252187 C0.858983467,7.3228152 0.8675168,7.23974853 0.868423467,7.23150853 C0.879410133,7.2278552 0.891090133,7.22606853 0.903490133,7.22606853 C0.950530133,7.22684187 1.00074347,7.2480152 1.06853013,7.29470853 C1.1213568,7.33110853 1.1795968,7.38060187 1.2415968,7.44174853 C1.34858347,7.54726853 1.43274347,7.65326853 1.43357013,7.65430853 L1.43442347,7.6553752 C1.44149013,7.66804187 1.5020768,7.77726853 1.5492768,7.88358853 C1.57925013,7.95110853 1.5963968,7.9997752 1.60325013,8.0368152 C1.60717013,8.05790853 1.6083168,8.07174853 1.60314347,8.08430853 C1.60098347,8.08950853 1.5968768,8.0943352 1.5928768,8.0962552 C1.58914347,8.0978552 1.58541013,8.0986552 1.58114347,8.0986552 L1.58138347,8.09868187 Z" id="branch" fill="#4E5B31"></path>
                <g id="branch-link" transform="translate(7.874667, 8.994667) scale(-1, 1) translate(-7.874667, -8.994667) translate(5.141333, 7.221333)" fill="#4E5B31">
                    <path d="M5.22938347,3.53974853 C5.22458347,3.5374552 5.22357013,3.5364952 5.22013013,3.5332152 L5.2167968,3.5300952 C5.2081568,3.5221752 5.1938368,3.5081752 5.17461013,3.48628187 C5.13909013,3.4459352 5.0914368,3.38686853 5.04954347,3.33468187 C4.9664768,3.2311352 4.8978368,3.1419352 4.88490347,3.1251352 L4.8637568,3.0976152 L4.6566368,3.03374853 L4.50541013,2.96324187 L4.58621013,2.8724152 L4.8637568,2.99124187 L5.0708768,3.03374853 L5.45389013,3.3154552 L5.4535968,3.3156952 C5.45282347,3.3163352 5.39789013,3.36204187 5.34330347,3.41166853 C5.3189568,3.43380187 5.28826347,3.46222853 5.26658347,3.48588187 C5.25658347,3.49676187 5.24778347,3.50756187 5.24178347,3.51628187 C5.23810347,3.52164187 5.23605013,3.5264952 5.23506347,3.52884187 L5.25885013,3.51404187 L5.2846368,3.5340952 L5.2321568,3.53900187 L5.2297568,3.5395352 L5.22938347,3.53974853 Z M3.80698347,3.11254853 C3.62626347,3.11252187 3.4477568,3.0625752 3.27645013,2.9640952 L3.27626347,2.96398853 L3.27634347,2.9637752 C3.27634347,2.9637752 3.29874347,2.92108187 3.35309013,2.8812152 C3.40485013,2.8432152 3.49821013,2.79780187 3.64909013,2.7972152 L3.65221013,2.7972152 C3.83090347,2.7972152 4.04957013,2.85796187 4.3021568,2.9777752 C4.29362347,2.98342853 4.09533013,3.11254853 3.80706347,3.11254853 L3.80733013,3.1128152 L3.80698347,3.11254853 Z M3.02378347,2.93894853 C2.99037013,2.93894853 2.96034347,2.92630853 2.93925013,2.90340187 C2.92194347,2.8845752 2.90954347,2.85950853 2.90133013,2.8266552 C2.88789013,2.77284187 2.8915968,2.71932187 2.89197013,2.71420187 C2.9059968,2.70830853 2.92029013,2.70508187 2.93362347,2.70476187 L2.93661013,2.70470853 C3.00357013,2.70470853 3.05634347,2.76278853 3.0789568,2.82036187 C3.09178347,2.85308187 3.09426347,2.88060187 3.08626347,2.90214853 C3.07826347,2.92374853 3.0531968,2.93868187 3.02386347,2.93868187 L3.02378347,2.93894853 Z M4.4019168,2.7792152 C3.93901013,2.71310853 3.7427968,2.54574853 3.65970347,2.41700187 C3.57109013,2.2796952 3.5892768,2.15268187 3.58946347,2.15140187 L3.58954347,2.15102853 L3.58989013,2.15092187 C3.59002347,2.15092187 3.61818347,2.14332187 3.66077013,2.14310853 C3.7839168,2.14310853 4.09890347,2.2050552 4.40205013,2.7788952 L4.4022368,2.77926853 L4.40170347,2.77900187 L4.4019168,2.7792152 Z M3.4531168,2.68748187 C3.2553568,2.6874552 3.1047968,2.65334853 3.0055968,2.58604187 C2.94858347,2.5473752 2.92069013,2.5048952 2.90730347,2.47604187 C2.89477013,2.44900187 2.8919168,2.42654853 2.89146347,2.4220952 C2.89669013,2.4196952 2.97765013,2.38374853 3.09853013,2.3780952 C3.10874347,2.3776152 3.1190368,2.37732187 3.1298368,2.3772952 C3.28269013,2.3772952 3.5151168,2.42716187 3.7603968,2.66476187 L3.7606368,2.66500187 L3.76034347,2.66502853 C3.64834347,2.6796952 3.5448768,2.68742853 3.4528768,2.68742853 L3.4531168,2.68748187 Z M2.4955168,2.65068187 C2.28698347,2.65068187 2.00050347,2.58700187 1.8218368,2.40836187 L1.82165013,2.40814853 L1.82218347,2.4080152 C1.82405013,2.4075352 2.01797013,2.3583352 2.23613013,2.35302853 C2.24914347,2.35270853 2.2622368,2.35252187 2.27546347,2.35252187 C2.47098347,2.35252187 2.6206368,2.39044187 2.7203168,2.46518853 C2.7551168,2.4912952 2.77413013,2.51558853 2.7783968,2.53940187 C2.78197013,2.5592952 2.77146347,2.5807352 2.7502368,2.5967352 C2.7053568,2.63062853 2.6251168,2.64870853 2.51170347,2.65052187 L2.49570347,2.6510552 L2.4955168,2.65068187 Z M1.81978347,2.3040152 C1.79410347,2.3040152 1.7699968,2.2926552 1.7536768,2.2728952 C1.74018347,2.25652187 1.7307968,2.2351352 1.72413013,2.20564187 C1.71298347,2.15636187 1.71634347,2.10814853 1.71637013,2.10766853 L1.7163968,2.10718853 C1.72610347,2.10260187 1.7369568,2.10014853 1.74885013,2.0998552 L1.74893013,2.0998552 C1.77978347,2.0998552 1.80330347,2.1166552 1.81797013,2.1307352 C1.8375168,2.1495352 1.8535168,2.17460187 1.86298347,2.20126853 C1.8727168,2.2287352 1.87429013,2.25172187 1.86778347,2.2715352 C1.86245013,2.28726853 1.8443168,2.30380187 1.81978347,2.30380187 L1.81978347,2.3040152 Z M3.38058347,2.2688152 C3.34717013,2.2688152 3.31714347,2.2561752 3.29605013,2.23326853 C3.27874347,2.21444187 3.26634347,2.1893752 3.25813013,2.15652187 C3.24469013,2.10270853 3.2483968,2.04918853 3.24877013,2.04406853 C3.2627968,2.0381752 3.27709013,2.03494853 3.29042347,2.03462853 L3.29341013,2.0345752 C3.36037013,2.0345752 3.41314347,2.0926552 3.4357568,2.15022853 C3.44858347,2.18294853 3.45106347,2.21046853 3.44306347,2.2320152 C3.43506347,2.25388187 3.40973013,2.26854853 3.38066347,2.26854853 L3.38058347,2.2688152 Z M2.6203168,2.23734853 C2.20066347,2.2225752 1.9828768,2.1032952 1.8740768,2.00580187 C1.81282347,1.95092187 1.77877013,1.89652187 1.76101013,1.86054853 C1.74426347,1.8265752 1.7379168,1.8005752 1.7367968,1.7955352 L1.7373568,1.7952952 C1.7374368,1.7952952 1.77706347,1.78110853 1.8409568,1.7798552 L1.85077013,1.77974853 C1.99229013,1.77974853 2.2803968,1.83918853 2.6201568,2.23716187 L2.6201568,2.23742853 L2.6203168,2.23734853 Z M3.07605013,2.19494853 C2.73842347,2.1435352 2.54714347,1.99860187 2.44613013,1.8860152 C2.3402368,1.7680152 2.30853013,1.65812187 2.3071168,1.65300187 C2.30773013,1.6528152 2.34898347,1.64206853 2.4111168,1.6404952 C2.41562347,1.64036187 2.4203168,1.64030853 2.42509013,1.64030853 C2.4299168,1.64030853 2.43482347,1.64036187 2.4398368,1.6404952 C2.60965013,1.64420187 2.9180768,1.72110853 3.07597013,2.19476187 L3.0762368,2.19476187 L3.07605013,2.19494853 Z M1.3427168,2.0328152 C1.2320768,2.0328152 1.12474347,2.0200152 1.02373013,1.99476187 C0.8469568,1.95054853 0.7711168,1.8830552 0.7386368,1.83420187 C0.720183467,1.80646853 0.713490133,1.78214853 0.711143467,1.76662853 C0.7088768,1.75180187 0.7100768,1.73998853 0.7103168,1.7380152 L0.711143467,1.73772187 C0.7115968,1.7376152 0.8284768,1.70478853 0.990183467,1.70230853 C0.9965568,1.70220187 1.00298347,1.70214853 1.0095168,1.70214853 C1.08757013,1.70214853 1.1643968,1.70958853 1.23789013,1.72428187 C1.51885013,1.78046853 1.6645568,1.99254853 1.66597013,1.99468187 L1.66610347,1.99492187 L1.6657568,1.99500187 C1.6641568,1.99526853 1.53029013,2.03286853 1.3425568,2.03286853 L1.3427168,2.0328152 Z M2.12645013,1.7480152 C2.09261013,1.7480152 2.06258347,1.73566853 2.04186347,1.71324187 C2.02482347,1.6948152 2.01242347,1.66942853 2.0039968,1.6356952 C1.99050347,1.58196187 1.99426347,1.5289752 1.9946368,1.5240952 C2.00866347,1.51820187 2.0229568,1.5149752 2.03629013,1.5146552 L2.0392768,1.51460187 C2.10610347,1.51460187 2.1589568,1.57270853 2.18165013,1.63028187 C2.19413013,1.66196187 2.1963168,1.68916187 2.18813013,1.71118853 C2.17986347,1.73358853 2.1555968,1.74798853 2.12653013,1.74798853 L2.12645013,1.7480152 Z M1.5371168,1.6672152 C1.53458347,1.66660187 1.37773013,1.6262552 1.2179968,1.52788187 C1.0701568,1.43686853 0.889303467,1.27588187 0.867250133,1.02574853 L0.867250133,1.0256152 L0.867623467,1.02550853 C0.867650133,1.02550853 0.881383467,1.0221752 0.901703467,1.02140187 C0.904503467,1.0212952 0.907490133,1.02124187 0.910610133,1.02124187 C0.954770133,1.02124187 1.04517013,1.03366853 1.15453013,1.1168152 C1.29373013,1.22294853 1.42226347,1.4080152 1.5371968,1.66748187 L1.5371168,1.6672152 Z M1.9219168,1.65308187 C1.92093013,1.65268187 1.80914347,1.6079352 1.66941013,1.49084187 C1.53922347,1.38172187 1.35618347,1.18524187 1.22365013,0.868708533 C1.22373013,0.868681867 1.25410347,0.8524952 1.30061013,0.849561867 C1.30330347,0.8493752 1.30602347,0.849321867 1.30877013,0.849321867 C1.31277013,0.849321867 1.31690347,0.8494552 1.3211168,0.849561867 C1.38541013,0.8513752 1.48333013,0.8780952 1.59189013,0.995241867 C1.71658347,1.12982853 1.82789013,1.3509752 1.92266347,1.65260187 L1.92293013,1.6534552 L1.92213013,1.65318853 L1.9219168,1.65308187 Z M0.924850133,1.6240152 C0.796290133,1.6240152 0.752290133,1.55428187 0.739330133,1.52428187 C0.718050133,1.4749752 0.724503467,1.42590853 0.7245568,1.42542853 L0.7246368,1.4248952 C0.7454368,1.4196952 0.7674368,1.4168152 0.788583467,1.41652187 L0.792983467,1.4164952 C0.894290133,1.4164952 0.974263467,1.4679352 1.0085568,1.51892187 C1.0153568,1.52902853 1.03621013,1.5640952 1.0189568,1.59148187 C1.00509013,1.61308187 0.973623467,1.6240152 0.924823467,1.6240152 L0.924850133,1.6240152 Z M0.640050133,1.2648152 C0.568263467,1.2648152 0.458423467,1.2604152 0.3429568,1.23942853 C0.228450133,1.21860187 0.163543467,1.12124187 0.1292768,1.04326853 C0.0919701333,0.9583352 0.0814368,0.877321867 0.0813301333,0.8764952 L0.0816501333,0.8764952 C0.4358368,0.8868952 0.6031168,0.990388533 0.681063467,1.07534853 C0.761543467,1.16308187 0.7663168,1.2541752 0.7665568,1.2599352 L0.7663168,1.25996187 C0.765783467,1.25996187 0.7159168,1.26476187 0.6399168,1.26476187 L0.640050133,1.2648152 Z M1.00885013,0.896281867 C1.00837013,0.8956952 0.9679168,0.845668533 0.927970133,0.7835352 C0.886023467,0.7183352 0.847223467,0.650308533 0.847223467,0.594628533 C0.847223467,0.540868533 0.834583467,0.4275352 0.8270368,0.364788533 C0.817490133,0.285188533 0.8078368,0.2170552 0.8070368,0.211268533 L0.807383467,0.2113752 C0.816370133,0.2146552 1.02893013,0.2944152 1.02893013,0.493801867 C1.02893013,0.693508533 1.00925013,0.8941752 1.00906347,0.8961752 L1.0090368,0.896468533 L1.00877013,0.896468533 L1.00885013,0.896281867 Z M0.733383467,0.877348533 C0.731143467,0.877348533 0.728930133,0.8771352 0.7267168,0.876788533 C0.663890133,0.866308533 0.553490133,0.818281867 0.4314368,0.748308533 C0.2959168,0.670601867 0.185863467,0.587348533 0.121570133,0.513881867 C0.0629568,0.4468952 0.0281568,0.3416952 0.0181034667,0.201188533 C0.0109834667,0.101481867 0.0195168,0.0184152 0.0204234667,0.0101752 C0.0314101333,0.00652186667 0.0430901333,0.0047352 0.0554901333,0.0047352 C0.102530133,0.00550853333 0.152743467,0.0266818667 0.220530133,0.0733752 C0.2733568,0.1097752 0.3315968,0.159268533 0.3935968,0.2204152 C0.500583467,0.3259352 0.584743467,0.4319352 0.585570133,0.4329752 L0.586423467,0.434041867 C0.593490133,0.446708533 0.6540768,0.5559352 0.7012768,0.6622552 C0.731250133,0.7297752 0.7483968,0.778441867 0.755250133,0.815481867 C0.759170133,0.8365752 0.7603168,0.8504152 0.755143467,0.8629752 C0.752983467,0.8681752 0.7488768,0.873001867 0.7448768,0.874921867 C0.741143467,0.876521867 0.737410133,0.877321867 0.733143467,0.877321867 L0.733383467,0.877348533 Z" id="branch"></path>
                </g>
                <path d="M13.1181835,0.0204418667 L13.0553835,0.0454552 L13.0307701,0.0552685333 L12.9546635,0.0510818667 L12.8833835,0.0852952 L12.7569835,0.171668533 L12.7514101,0.175668533 L12.7042901,0.187961867 L12.6605301,0.169081867 L12.6356768,0.180388533 L12.6271168,0.231588533 L12.6034635,0.268361867 L12.5743435,0.2888152 L12.4734635,0.2991352 L12.3883968,0.343001867 L12.2777301,0.3133752 L12.2263168,0.333508533 L12.1170101,0.431961867 L12.0611435,0.4584152 L12.0416235,0.4572952 L11.9675435,0.453481867 L11.9362635,0.463721867 L11.8895435,0.508868533 L11.8011435,0.515748533 L11.7735968,0.5348152 L11.7304501,0.621748533 L11.6837035,0.669961867 L11.6569568,0.6756152 L11.6279701,0.665001867 L11.6061835,0.668841867 L11.5963168,0.724468533 L11.5751701,0.7477752 L11.5159968,0.768148533 L11.4687168,0.8075352 L11.4272235,0.828841867 L11.3716501,0.8274552 L11.3588768,0.8274552 L11.3035168,0.8580152 L11.1993835,0.8671352 L11.1560768,0.908441867 L11.1465301,0.917268533 L11.1263168,0.929481867 L11.0932501,0.9492152 L11.0851435,0.954121867 L11.0452768,0.947001867 L10.9986101,0.965481867 L10.9797301,0.936441867 L10.9474368,0.955828533 L10.9046635,0.957668533 L10.8513835,0.933961867 L10.8107968,0.915881867 L10.7811168,0.9201752 L10.7707968,0.971908533 L10.7697568,0.977401867 L10.7385568,1.01892187 L10.6803168,1.05420187 L10.6723968,1.06452187 L10.6061301,1.15006853 L10.4802101,1.2824952 L10.3737301,1.3365752 L10.2633568,1.37014853 L10.1861035,1.4336152 L9.98346347,1.53406853 L9.66362347,1.69318853 L9.59821013,1.71414853 L9.50434347,1.7291352 L9.33693013,1.79078853 L9.18922347,1.83534853 L9.18101013,1.8378552 L9.15178347,1.84670853 L8.9435168,1.90972187 L8.84658347,1.89948187 L8.78917013,1.9203352 L8.63970347,1.90374853 L8.53578347,1.90580187 L8.4699968,1.91948187 L8.34634347,1.97878853 L8.13762347,2.07910853 L8.06866347,2.14220187 L7.9612768,2.19822853 L7.83554347,2.23804187 L7.8358368,2.1852152 L7.83509013,2.1829752 L7.79146347,2.19676187 L7.75997013,2.20670853 L7.65797013,2.22244187 L7.60122347,2.22244187 L7.5659968,2.21220187 L7.5605568,2.21404187 L7.3520768,2.2827352 L7.11957013,2.30518853 L7.00322347,2.3424952 L6.91629013,2.34110853 L6.86194347,2.3572952 L6.75541013,2.37030853 L6.71733013,2.36014853 L6.70874347,2.35780187 L6.39541013,2.37140187 L6.2521568,2.3552152 L6.18378347,2.37076187 L6.06922347,2.33222853 L5.90205013,2.31284187 L5.86298347,2.3011352 L5.7751168,2.2750552 L5.7353568,2.29796187 L5.7055968,2.3011352 L5.6344768,2.27534853 L5.6088768,2.27468187 L5.5501568,2.29590853 L5.51637013,2.28724187 L5.48498347,2.26222853 L5.4113568,2.25126853 L5.36650347,2.21356187 L5.11578347,2.24678853 L5.0477568,2.22678853 L4.81965013,2.1603352 L4.7833568,2.1621752 L4.73813013,2.19606853 L4.67018347,2.22084187 L4.6111968,2.2361752 L4.5308768,2.2389752 L4.43762347,2.2144952 L4.34146347,2.16788187 L4.3059168,2.15942853 L4.22661013,2.16742853 L4.20234347,2.16964187 L4.05658347,2.0914552 L3.8687968,1.9740152 L3.74138347,1.91278853 L3.69354347,1.90502853 L3.6871168,1.9277752 L3.71085013,2.0025752 L3.71893013,2.07654853 L3.71650347,2.1448952 L3.7151968,2.1872152 L3.72709013,2.2252152 L3.77309013,2.27620187 L3.79226347,2.32740187 L3.80629013,2.46830853 L3.80613013,2.6112952 L3.7837568,2.83932187 L3.77621013,2.87404187 L3.7495168,2.9921752 L3.72514347,3.10068187 L3.63058347,3.38956187 L3.60461013,3.4253752 L3.54085013,3.46886853 L3.39634347,3.5672152 L3.28994347,3.6285752 L3.25626347,3.64252187 L3.16989013,3.6490552 L3.1160768,3.6462552 L3.04906347,3.60996187 L2.9832768,3.59302853 L2.89709013,3.5310552 L2.80122347,3.5112152 L2.69613013,3.45046853 L2.66877013,3.41758853 L2.61154347,3.41220187 L2.53218347,3.38838853 L2.5322368,3.3882552 L2.50309013,3.3795352 L2.4829568,3.37366853 L2.4829568,3.37364187 L2.38173013,3.37086853 L2.28733013,3.3272952 L2.23762347,3.3152952 L2.16970347,3.3118552 L2.09861013,3.3448952 L2.09858347,3.34478853 L2.0625568,3.36156187 L2.0170368,3.34348187 L1.98410347,3.3455352 L1.9467968,3.4019352 L1.94122347,3.41068187 L1.9155168,3.42428187 L1.8835168,3.42382853 L1.8584768,3.42316187 L1.83138347,3.43500187 L1.79490347,3.4508152 L1.79490347,3.4508952 L1.76269013,3.46494853 L1.7469568,3.47174853 L1.74669013,3.47148187 L1.73701013,3.47342853 L1.71981013,3.4764152 L1.6984768,3.4804952 L1.6608768,3.45852187 L1.6408768,3.4467352 L1.6073568,3.43990853 L1.58930347,3.45294853 L1.5857568,3.51430853 L1.5692768,3.5510552 L1.51698347,3.5972952 L1.4638368,3.6440952 L1.4267968,3.69868187 L1.32877013,3.9224152 L1.2673568,4.01268187 L1.24829013,4.03372187 L1.1840768,4.10454853 L1.1271168,4.1487352 L0.995863467,4.25046853 L0.871623467,4.2968952 L0.764610133,4.31876187 L0.712583467,4.3189752 L0.614023467,4.3058552 L0.525410133,4.2786552 L0.4280768,4.21780187 L0.321330133,4.1320152 L0.166823467,3.9793752 L0.1449568,3.96622853 L0.1403968,3.96318853 L0.0917301333,3.93206853 L0.0556234667,3.93300187 L0.0414901333,3.95630853 L0.0337568,3.98998853 L0.0272234667,4.0198552 L0.0095168,4.18964187 L0.0108234667,4.19948187 L0.0201301333,4.26940187 L0.137490133,4.43340187 L0.173703467,4.52052187 L0.179650133,4.53046853 L0.203863467,4.5711352 L0.222290133,4.60214853 L0.224130133,4.6052952 L0.2642368,4.7249752 L0.236050133,4.79254853 L0.250290133,4.83780187 L0.214663467,4.8654552 L0.208130133,4.90452187 L0.313490133,5.03660187 L0.3364768,5.09486853 L0.3107968,5.17564187 L0.2698368,5.22020187 L0.2583968,5.23238853 L0.2641568,5.26652187 L0.3126368,5.31012187 L0.395010133,5.3834552 L0.438930133,5.4924152 L0.472343467,5.52164187 L0.511170133,5.5133752 L0.532770133,5.5298552 L0.5655168,5.5292952 L0.597730133,5.56150853 L0.618583467,5.5716152 L0.651543467,5.58804187 L0.6775968,5.62196187 L0.6833568,5.7262552 L0.731943467,5.8558552 L0.732690133,5.92612187 L0.7329568,5.9360952 L0.7631968,5.98804187 L0.772690133,6.0290552 L0.756583467,6.13756187 L0.7951168,6.17238853 L0.836903467,6.1638552 L0.863890133,6.16812187 L0.907250133,6.20422853 L0.9597568,6.2842552 L1.0111168,6.2767352 L1.04370347,6.29244187 L1.20109013,6.43468187 L1.2367968,6.45270853 L1.23877013,6.45382853 L1.26445013,6.46670853 L1.29637013,6.49892187 L1.34586347,6.46606853 L1.3513568,6.46550853 L1.40517013,6.46076187 L1.4287968,6.47668187 L1.4742368,6.50732187 L1.53381013,6.50654853 L1.66298347,6.54614853 L1.71949013,6.56062853 L1.8331168,6.63124187 L1.88141013,6.66110853 L1.9099968,6.6843352 L1.94797013,6.7152952 L2.0238368,6.7479352 L2.08890347,6.76350853 L2.1241568,6.77188187 L2.15069013,6.78212187 L2.1513568,6.78046853 L2.15173013,6.7805752 L2.15109013,6.7822552 L2.2919968,6.83620187 L2.3683168,6.8540152 L2.43893013,6.8800152 L2.4903168,6.89876187 L2.52802347,6.8993752 L2.5813568,6.85452187 L2.63301013,6.8515352 L2.6759168,6.86222853 L2.71778347,6.8552152 L2.78405013,6.81438853 L2.79698347,6.7952152 L2.84397013,6.77284187 L3.0024768,6.75316187 L3.0487968,6.76820187 L3.16773013,6.71646853 L3.24741013,6.73862853 L3.31794347,6.7136152 L3.47205013,6.7478552 L3.51301013,6.77668187 L3.5587968,6.82908187 L3.5643968,6.82932187 L3.61538347,6.83030853 L3.5940768,6.86580187 L3.6613568,6.93638853 L3.72213013,7.0282552 L3.7262368,7.04038853 L3.77042347,7.1700952 L3.8032768,7.21604187 L3.82626347,7.2801752 L3.82738347,7.32198853 L3.79165013,7.34924187 L3.78578347,7.36478853 L3.7837568,7.37054853 L3.79101013,7.3880152 L3.80450347,7.3806552 L3.83018347,7.36644187 L3.8612768,7.3616152 L3.91637013,7.36748187 L3.95274347,7.3712952 L4.01018347,7.34278853 L4.0482368,7.3238552 L4.10938347,7.3501752 L4.17658347,7.34942853 L4.2047968,7.36198853 L4.28466347,7.39820187 L4.3254368,7.40204187 L4.34050347,7.39214853 L4.35010347,7.36932187 L4.34517013,7.34276187 L4.3146368,7.30748187 L4.24714347,7.2291352 L4.2195168,7.18886853 L4.1984768,7.1305752 L4.19194347,7.05606853 L4.18730347,7.00580187 L4.1956768,6.93974853 L4.21381013,6.9161752 L4.22714347,6.8636952 L4.22738347,6.8636952 L4.23082347,6.84996187 L4.2683168,6.80020187 L4.36762347,6.73638853 L4.47429013,6.64086853 L4.55861013,6.58526853 L4.64554347,6.5476152 L4.64786347,6.5370552 L4.65754347,6.54094853 L4.87866347,6.4657752 L4.8823168,6.46534853 L4.98077013,6.44820187 L5.64530347,6.49500187 L5.66994347,6.48756187 L5.67005013,6.48740187 L5.69218347,6.42526853 L5.70410347,6.41374853 L5.71202347,6.40622853 L5.78509013,6.37406853 L5.81925013,6.36918853 L5.9140768,6.39260187 L5.95290347,6.4021752 L6.01509013,6.36732187 L6.0591968,6.36806853 L6.1503168,6.31830853 L6.20661013,6.31972187 L6.22802347,6.31116187 L6.3376768,6.23236187 L6.44330347,6.2020952 L6.47077013,6.18748187 L6.48045013,6.1821752 L6.5887168,6.12500187 L6.65749013,6.0721752 L6.71685013,6.04062853 L6.78186347,6.0238552 L6.9519968,6.01188187 L6.98621013,5.95486853 L7.05938347,5.94510853 L7.10357013,5.89524187 L7.15413013,5.87468187 L7.19037013,5.82246853 L7.22074347,5.77870853 L7.26317013,5.75414853 L7.39917013,5.7456152 L7.56037013,5.76558853 L7.5816768,5.7526552 L7.61810347,5.6226552 L7.6562368,5.5982552 L7.75893013,5.44860187 L7.7592768,5.39406853 L7.75938347,5.34852187 L7.77626347,5.28366853 L7.7647968,5.1665752 L7.7783968,5.0480152 L7.8422368,4.89734853 L7.8984768,4.8365752 L7.98917013,4.7752152 L8.0352768,4.7551352 L8.10058347,4.74414853 L8.10058347,4.74398853 L8.11018347,4.74236187 L8.12682347,4.73950853 L8.35170347,4.7364152 C8.35482347,4.7340952 8.43349013,4.7352952 8.43349013,4.7352952 L8.5084768,4.73428187 L8.69818347,4.76804187 L8.7116768,4.77038853 L8.77581013,4.79116187 L8.84978347,4.84868187 L8.9280768,4.92516187 L8.94277013,4.93942853 L8.99349013,4.96078853 L9.00882347,4.96748187 L9.0507168,4.96078853 L9.11037013,4.92972187 L9.15538347,4.89166853 L9.21674347,4.85814853 L9.2182368,4.8560152 L9.25277013,4.80406853 L9.25381013,4.80300187 L9.2545568,4.80318853 L9.2546368,4.8028952 L9.25405013,4.80276187 L9.2676768,4.7820952 L9.38626347,4.73588187 L9.52573013,4.7277752 L9.54141013,4.7192952 L9.55013013,4.71462853 L9.58698347,4.67134853 L9.6215168,4.6710552 L9.7051168,4.7012952 L9.76389013,4.68964187 L9.8105568,4.70828187 L9.84682347,4.70398853 L9.91522347,4.69588187 L9.98866347,4.74756187 L10.0314635,4.75302853 L10.1823435,4.8412952 L10.1901835,4.8425752 L10.1942368,4.84332187 L10.2028768,4.8447352 L10.2207701,4.83942853 L10.2473835,4.83172187 L10.2509035,4.83068187 L10.2542635,4.83532187 L10.2714101,4.85950853 L10.2949301,4.86286853 L10.3227701,4.82572187 L10.3117035,4.80886853 L10.3075168,4.8027352 L10.2536235,4.7917752 L10.2052235,4.70902853 L10.2513035,4.65940187 L10.1790101,4.57070853 L10.1670101,4.5560152 L10.1629301,4.5497752 L10.1379435,4.51182853 L10.0113835,4.3188952 L9.84653013,4.1872952 L9.8464768,4.18740187 L9.78874347,4.1412152 L9.78837013,4.14094853 L9.7681568,4.1250552 L9.68010347,4.03550853 L9.61722347,3.95204187 L9.60898347,3.93406853 L9.5959968,3.90574853 L9.5583168,3.82366853 L9.49266347,3.77310853 L9.43917013,3.71468187 L9.4365568,3.71124187 L9.3261568,3.5612152 L9.30802347,3.53606853 L9.28194347,3.52100187 L9.22685013,3.52062853 L9.22165013,3.51540187 L9.2185568,3.5121752 L9.22042347,3.51020187 L9.24685013,3.4839352 L9.2763168,3.47652187 L9.28901013,3.44748187 L9.2327968,3.28470853 L9.23242347,3.27902853 L9.2282368,3.22702853 L9.27405013,2.9908952 L9.2799168,2.96212187 L9.3579968,2.80324187 L9.40637013,2.7636152 L9.45917013,2.65982853 L9.5043968,2.59348187 L9.54773013,2.5512952 L9.55530347,2.5468152 L9.63354347,2.4994552 L9.6992768,2.49020187 L9.76189013,2.4813752 L9.8711968,2.51508187 L9.97522347,2.5130552 L9.9955168,2.5108952 L10.0427168,2.50548187 L10.1203435,2.48102853 L10.1569835,2.4584152 L10.1759968,2.42926853 L10.2156501,2.29628187 L10.2283968,2.25396187 L10.2528501,2.20798853 L10.3943435,2.04510853 L10.5013035,1.9461752 L10.7418101,1.76982853 L10.8595435,1.6994552 L10.9196501,1.6635352 L11.4563435,1.4249752 L11.5958101,1.28358853 L11.6684768,1.21006853 L11.7970368,1.12380187 L11.9474635,1.0621752 L12.0769035,0.959721867 L12.1051701,0.924148533 L12.1407968,0.809401867 L12.1704768,0.802228533 L12.1972768,0.7442552 L12.2049035,0.7277752 L12.3105301,0.653321867 L12.3224768,0.6473752 L12.7328235,0.4417752 L12.7924501,0.449961867 L12.8243701,0.402148533 L12.9437568,0.382121867 L12.9657301,0.378388533 L12.9951701,0.3636952 L13.0202101,0.3210552 L13.0202101,0.312628533 L13.0236501,0.198681867 L13.0491435,0.167881867 L13.0630368,0.0927885333 L13.0761301,0.0754552 L13.0898101,0.0574285333 L13.1236235,0.0336685333 L13.1177568,0.0195085333 L13.1181835,0.0204418667 Z" id="Shape" fill="#D57800"></path>
            </g>
        </g>
    </g>
</svg>