<svg xmlns="http://www.w3.org/2000/svg" xmlns:xlink="http://www.w3.org/1999/xlink" viewBox="0 0 32 16"><defs><path id="a" d="M0 16h24V0H0z"/></defs><g fill="none" fill-rule="evenodd"><path fill="#C60B1E" d="M0 16h32V0H0z"/><path fill="#FFC400" d="M0 12h32V4H0z"/><mask id="b" fill="#fff"><use xlink:href="#a"/></mask><path fill="#CCC" d="M5.36 10.19h.52V7.64h-.52z" mask="url(#b)"/><path fill="#000" d="M5.37 10.18h.5V7.64h-.5v2.54zm-.01.01h.53V7.63h-.53v2.56z" mask="url(#b)"/><path fill="#AD1519" d="M6.41 8.6a1.65 1.65 0 0 0-.77-.08c-.32.06-.55.18-.53.28v.01l-.12-.27c-.02-.11.24-.25.59-.31.1-.02.21-.03.3-.02.22 0 .42.02.53.07v.31" mask="url(#b)"/><path fill="#000" d="M5.87 8.21l-.3.03c-.26.04-.49.14-.56.23L5 8.54l.1.24c0-.02 0-.03.02-.04.06-.1.27-.18.51-.22a1.62 1.62 0 0 1 .78.06v-.3a1.68 1.68 0 0 0-.54-.07m-.76.6l-.13-.27c0-.02 0-.05.02-.07.07-.1.3-.2.58-.25l.3-.02a1.67 1.67 0 0 1 .54.08v.31a1.66 1.66 0 0 0-.78-.06c-.25.04-.45.13-.51.21-.02.02-.02.04-.02.06v.02" mask="url(#b)"/><path fill="#AD1519" d="M5.04 9.4c-.02-.04.12-.12.32-.2l.26-.1c.28-.12.48-.26.46-.31v-.01l.03.26c.03.05-.16.19-.41.31l-.34.13c-.14.05-.29.15-.27.18l-.05-.26" mask="url(#b)"/><path fill="#000" d="M6.08 8.82a1.3 1.3 0 0 1-.46.28l-.02.02-.23.1c-.23.07-.34.15-.33.18l.05.24a.68.68 0 0 1 .27-.16l.33-.14c.22-.1.4-.22.42-.28v-.01l-.03-.23m-1 .85v-.01l-.05-.26c-.01-.05.16-.14.33-.2l.24-.1h.02c.24-.11.43-.23.45-.3v-.01h.01v.01a2.23 2.23 0 0 1 .04.28c-.02.06-.2.18-.42.29l-.34.13c-.13.04-.25.12-.27.16v.01" mask="url(#b)"/><path fill="#CCC" d="M10.14 10.19h.52V7.64h-.52z" mask="url(#b)"/><path fill="#000" d="M10.14 10.18h.51V7.64h-.5v2.54zm0 .01h.52V7.63h-.53v2.56z" mask="url(#b)"/><path fill="#AD1519" d="M9.6 8.6a1.65 1.65 0 0 1 .78-.08c.31.06.55.18.53.28v.01l.12-.27c.02-.11-.24-.25-.59-.31-.1-.02-.21-.03-.3-.02-.23 0-.42.02-.53.07v.31" mask="url(#b)"/><path fill="#000" d="M10.13 8.5c.08 0 .17 0 .25.02.25.04.46.13.52.22a.1.1 0 0 1 .02.04l.1-.24c0-.02 0-.04-.02-.07-.06-.1-.29-.19-.56-.23l-.3-.03c-.21 0-.4.03-.53.07v.3c.12-.05.32-.08.52-.08m.78.32V8.8c0-.03 0-.05-.02-.07-.06-.08-.27-.17-.5-.2a1.6 1.6 0 0 0-.8.05l.01-.31a1.83 1.83 0 0 1 .84-.05c.28.04.5.14.57.24.02.02.03.05.02.07a10.23 10.23 0 0 1-.12.28" mask="url(#b)"/><path fill="#AD1519" d="M10.98 9.4c.01-.04-.13-.12-.32-.2l-.26-.1c-.28-.12-.48-.26-.46-.31v-.01l-.03.26c-.03.05.16.19.41.31l.34.13c.14.05.29.15.27.18l.05-.26" mask="url(#b)"/><path fill="#000" d="M9.94 8.82a3.36 3.36 0 0 0-.03.24c.02.06.2.18.42.28l.33.14c.12.04.24.1.27.16l.04-.24c.02-.03-.1-.1-.32-.19a3.37 3.37 0 0 1-.23-.1h-.03c-.23-.1-.41-.23-.45-.3m1 .86h-.01v-.02c-.02-.04-.14-.12-.28-.16a4.53 4.53 0 0 1-.33-.13c-.22-.11-.4-.23-.42-.3v-.02a2.27 2.27 0 0 1 .04-.26h.01v.02c.02.07.21.19.45.3h.02l.24.1c.17.06.34.15.33.2l-.05.26" mask="url(#b)"/><path fill="#AD1519" d="M7.99 5.85c.21 0 .4.03.52.08A1.07 1.07 0 0 0 9 6a.91.91 0 0 1 .59.24l-.05.04-.01.12-.14.16-.07.06-.16.13h-.09l-.02.08L8 6.7l-1.06.13-.03-.07-.08-.01-.16-.13-.07-.06-.14-.16-.01-.12-.05-.05a.92.92 0 0 1 .25-.16.86.86 0 0 1 .34-.08 1.07 1.07 0 0 0 .48-.07c.13-.05.3-.08.52-.08" mask="url(#b)"/><path fill="#000" d="M6.83 6.75l.09.01.02.07L8 6.71l1.05.12.02-.07h.09l.16-.13.07-.06.13-.16.02-.13.05-.04a.92.92 0 0 0-.25-.15A.87.87 0 0 0 9 6a1.07 1.07 0 0 1-.49-.08A1.51 1.51 0 0 0 8 5.85c-.2 0-.38.03-.51.08a1.07 1.07 0 0 1-.49.08h-.01c-.1 0-.22.03-.33.08-.1.04-.19.1-.25.15l.05.04.02.13.13.16.07.06.16.12zm2.22.1L8 6.71l-1.06.12-.03-.07h-.08l-.16-.14-.07-.06-.14-.16-.02-.12-.05-.05a.93.93 0 0 1 .25-.16A.87.87 0 0 1 7 6a1.07 1.07 0 0 0 .48-.08c.13-.05.32-.08.52-.08s.4.03.53.08a1.07 1.07 0 0 0 .5.08c.09 0 .2.03.32.08.1.04.2.1.25.16l-.04.05-.02.12-.14.16-.07.06-.16.13h-.08l-.03.08z" mask="url(#b)"/><path fill="#C8B100" d="M7.21 6.13l.05.03.06-.1a.25.25 0 0 1-.12-.25c0-.13.18-.25.4-.25a.5.5 0 0 1 .28.08v-.06a.58.58 0 0 0-.29-.07c-.24 0-.44.14-.45.3a.3.3 0 0 0 .1.26l-.03.06" mask="url(#b)"/><path fill="#000" d="M7.22 6.12l.03.03.06-.1a.25.25 0 0 1-.11-.24c0-.14.18-.26.4-.26.1 0 .2.03.27.08v-.05a.58.58 0 0 0-.28-.07c-.24 0-.43.14-.44.3a.29.29 0 0 0 .1.25l-.03.06zm.04.05l-.06-.04.04-.06a.3.3 0 0 1-.1-.26c0-.17.2-.3.45-.3a.6.6 0 0 1 .3.07.9.9 0 0 0 0 .06l-.01.01a.5.5 0 0 0-.29-.08c-.2 0-.38.1-.38.24v.03c0 .09.04.16.12.2v.01l-.07.12z" mask="url(#b)"/><path fill="#C8B100" d="M6.47 6.24a.3.3 0 0 1-.05-.33c.07-.14.29-.24.54-.24.07 0 .14 0 .2.02a.33.33 0 0 0-.04.05.85.85 0 0 0-.16-.01c-.23 0-.43.09-.48.2a.24.24 0 0 0-.03.11c0 .07.04.14.1.19l-.1.13-.04-.03.06-.1" mask="url(#b)"/><path fill="#000" d="M6.42 6.33l.04.03.07-.13a.25.25 0 0 1-.08-.19c0-.04 0-.07.02-.1.06-.13.26-.22.49-.22l.16.01.02-.03a.88.88 0 0 0-.18-.02c-.24 0-.46.1-.53.24a.29.29 0 0 0 .05.32l-.06.09zm.04.04l-.06-.04.06-.1a.3.3 0 0 1-.04-.32c.07-.15.29-.24.54-.24a.9.9 0 0 1 .2.02.32.32 0 0 0-.03.05.85.85 0 0 0-.17 0c-.22 0-.42.08-.48.2a.23.23 0 0 0-.02.1c0 .07.03.14.09.18l-.09.15z" mask="url(#b)"/><path fill="#C8B100" d="M8.79 6.13l-.04.03-.07-.1a.25.25 0 0 0 .12-.25c0-.13-.18-.25-.4-.25a.5.5 0 0 0-.27.08l-.01-.06a.58.58 0 0 1 .29-.07c.25 0 .44.14.45.3v.03a.3.3 0 0 1-.1.23l.03.06" mask="url(#b)"/><path fill="#000" d="M8.69 6.05l.06.1.03-.03-.03-.05a.3.3 0 0 0 .1-.25c0-.17-.2-.3-.44-.3-.1 0-.2.02-.28.06v.05a.51.51 0 0 1 .28-.08c.21 0 .39.12.4.26v.03c0 .09-.05.17-.12.21zm.05.12l-.07-.12a.24.24 0 0 0 .12-.23c0-.14-.17-.25-.38-.25a.5.5 0 0 0-.28.08h-.01v-.07a.59.59 0 0 1 .29-.08c.24 0 .44.14.45.31v.03a.3.3 0 0 1-.1.23l.04.06-.06.04z" mask="url(#b)"/><path fill="#C8B100" d="M9.53 6.24a.3.3 0 0 0 .05-.33c-.07-.14-.28-.24-.54-.24-.07 0-.13 0-.2.02l.04.05.16-.01c.23 0 .43.09.48.2.02.04.03.07.03.11 0 .07-.04.14-.1.19l.1.13.04-.03-.06-.1" mask="url(#b)"/><path fill="#000" d="M9.47 6.23l.07.13.04-.03-.06-.1a.29.29 0 0 0 .05-.31c-.07-.14-.28-.24-.53-.24-.06 0-.12 0-.18.02l.02.03.16-.01c.23 0 .43.09.49.22.02.03.02.06.02.1 0 .07-.03.14-.08.19zm.07.14l-.09-.14a.24.24 0 0 0 .1-.19l-.03-.1c-.06-.12-.25-.2-.48-.2h-.16a.32.32 0 0 0-.04-.04v-.01a.9.9 0 0 1 .2-.02c.25 0 .47.1.54.24a.3.3 0 0 1-.04.33l.06.09-.06.04z" mask="url(#b)"/><path fill="#CCC" d="M8.02 11.02c-.42 0-.84-.1-1.19-.27a.76.76 0 0 1-.42-.68V9h3.2v1.07c0 .3-.16.55-.42.68a2.7 2.7 0 0 1-1.17.27" mask="url(#b)"/><path fill="#000" d="M6.41 9.01v1.06c0 .28.17.54.43.67a2.73 2.73 0 0 0 2.35 0 .75.75 0 0 0 .42-.67V9h-3.2zm1.6 2.02c-.4 0-.82-.1-1.18-.28a.76.76 0 0 1-.43-.68V8.99h3.23v1.08c0 .29-.17.55-.43.68a2.7 2.7 0 0 1-1.18.28z" mask="url(#b)"/><path fill="#CCC" d="M8.01 9h1.61V7.22H8.01z" mask="url(#b)"/><path fill="#000" d="M8.02 9h1.6V7.22h-1.6v1.76zM8 9h1.63V7.2H8V9z" mask="url(#b)"/><path fill="#AD1519" d="M8.01 10.07c0 .42-.36.76-.8.76a.78.78 0 0 1-.8-.76V9H8v1.07M6.4 9h1.61V7.22H6.4z" mask="url(#b)"/><path fill="#000" d="M6.41 9h1.6V7.22H6.4v1.76zM6.4 9h1.62V7.2H6.4V9z" mask="url(#b)"/><path fill="#000" d="M6.41 9v1.07c0 .41.36.75.8.75.44 0 .8-.34.8-.75V9H6.4zm.8 1.84a.8.8 0 0 1-.81-.77V8.99h1.62v1.08a.8.8 0 0 1-.81.77z" mask="url(#b)"/><path fill="#AD1519" d="M9.62 9v1.07c0 .42-.36.76-.8.76a.78.78 0 0 1-.81-.76V9h1.61" mask="url(#b)"/><path fill="#000" d="M8.02 9v1.07c0 .41.36.75.8.75.43 0 .8-.34.8-.75V9h-1.6zm.8 1.84a.8.8 0 0 1-.82-.77V8.99h1.63v1.08a.8.8 0 0 1-.81.77z" mask="url(#b)"/><path fill="#C8B100" d="M8.83 10.32l-.1-.02v-.14l.1-.02v.18zm0 0l.1-.02v-.14l-.1-.02v.18zm-.06.27a.05.05 0 1 1 .1 0 .05.05 0 0 1-.1 0zm.4-.74l-.03.1H9l-.01-.1h.18zm-.71 0l.01.1h.15l.02-.1h-.18zm.67.29l.03-.05-.1-.1-.05.01.12.14zm-.05.03l-.05.02-.1-.1.04-.05.11.13zm.08.31a.58.58 0 0 1-.16.09l.04.04.13-.07-.01-.06zm-.03-.04a.52.52 0 0 1-.16.08l-.01-.05c.05-.02.1-.04.13-.07l.04.04zm.22-.46l-.09.01v.15l.08.02a.3.3 0 0 0 .01-.1v-.08zm.01.18l.09-.01.01-.15-.08-.02v.09c0 .03 0 .06-.02.09zm-.04.15a.05.05 0 1 0-.08.06.05.05 0 0 0 .08-.06zm-.23.16l.03.04a.56.56 0 0 0 .12-.1.1.1 0 0 0 .08-.02.08.08 0 0 0 .01-.11.5.5 0 0 0 .04-.17H9.3c0 .05-.01.1-.03.14a.1.1 0 0 0-.05 0l-.13-.15-.05.04.14.15a.08.08 0 0 0 0 .09.5.5 0 0 1-.1.09zm-.6-.33l-.03-.05.1-.1.05.01-.12.14zm.04.03l.05.02.1-.1-.03-.05-.12.13zm-.07.31c.04.04.1.07.16.09l-.04.04a.62.62 0 0 1-.14-.07l.02-.06zm.02-.04l.16.08.02-.05a.46.46 0 0 1-.14-.07l-.04.04zm-.18-.46l.09.01v.15l-.08.02a.3.3 0 0 1-.01-.1v-.08zm-.01.18l-.09-.01-.01-.15.08-.02v.09c0 .03 0 .06.02.09zm.03.15a.05.05 0 1 1 .08.07.05.05 0 0 1-.08-.07zm.2.16l-.02.04a.56.56 0 0 1-.12-.1.1.1 0 0 1-.09-.02.08.08 0 0 1 0-.11.5.5 0 0 1-.05-.17h.06c0 .05.02.1.03.14a.1.1 0 0 1 .05 0l.14-.15.04.04-.14.15c.02.03.02.06 0 .09a.5.5 0 0 0 .1.09zm.37.07l.12-.03.03.04a.59.59 0 0 1-.14.04.1.1 0 0 1-.09.07.09.09 0 0 1-.08-.07.58.58 0 0 1-.16-.04l.03-.04.13.03a.08.08 0 0 1 .05-.04v-.23h.06v.23c.02 0 .04.02.05.04zm.22-.74v.05h.15a.1.1 0 0 0 .06.05v.13h.05V9.9a.08.08 0 0 0 .06-.08V9.8h-.05v.02c0 .02-.02.04-.04.04s-.03-.02-.03-.04v-.01h-.2zm-.08 0v.05h-.14v.01l.15.18-.04.03-.16-.17v.29h-.06v-.3l-.16.18-.04-.03.15-.18v-.01h-.14V9.8h.44zm-.73 0v.02c0 .02-.01.04-.03.04a.04.04 0 0 1-.04-.04v-.01h-.05v.01c0 .04.03.07.06.08v.13h.06V9.9c.02 0 .04-.03.05-.05h.15V9.8h-.2z" mask="url(#b)"/><path fill="#C8B100" d="M8.84 9.37l.1.02v.14l-.1.02v-.18zm-.01 0l-.1.02v.14l.1.02v-.18zm.15-.12l.01-.1h.16l.01.1h-.18zm0 0l.01.1h.16l.01-.1h-.18zm-.21 0c0-.03.02-.06.05-.06a.05.05 0 1 1-.05.05zm.54 0a.05.05 0 1 1 .1 0 .05.05 0 0 1-.1 0zm-.15.6l-.02-.1H9l-.01.1h.18zm-.52-.6l-.02-.1h-.15l-.02.1h.19zm0 0l-.02.1h-.15l-.02-.1h.19zm-.4 0c0-.03.02-.06.04-.06a.05.05 0 1 1-.05.05zm.22.6l.01-.1h.15l.02.1h-.18zm.67-.35l.04.04-.1.11-.05-.02.11-.13zm-.04-.04l-.05-.02-.1.11.03.05.12-.14zm-.61.04l-.03.05.1.1.05-.02-.12-.13zm.04-.03l.05-.03.1.11-.03.05-.12-.13zm.85-.03l.1.01v.15l-.1.01v-.17zm-.01 0l-.1.01v.15l.1.01v-.17zm-1.06 0l.1.01v.15l-.1.01v-.17zm-.01 0l-.1.01v.15l.1.01v-.17zm.55-.13v.1h-.06v-.1a.09.09 0 0 1-.06-.05H8.6V9.2h.13a.09.09 0 0 1 .09-.05c.04 0 .07.02.08.05h.13v.06H8.9c0 .02-.03.04-.05.05zm.53 0v.17h-.05v-.17H9.3l-.2.22-.04-.03.2-.23v-.01h-.15V9.2h.15a.09.09 0 0 1 .08-.05c.05 0 .1.03.1.08 0 .04-.03.07-.07.08zm-1.06 0l.2.22.04-.03-.2-.22v-.02h.15V9.2h-.14a.09.09 0 0 0-.09-.05.09.09 0 0 0-.09.08c0 .04.03.07.06.08v.17h.06v-.17zm1 .5c0-.02.02-.02.03-.02.02 0 .03 0 .04.02h.05a.09.09 0 0 0-.06-.07v-.17h-.05v.17a.08.08 0 0 0-.06.06h-.15.2zm-.72 0V9.8h.14v-.02l-.17-.18.05-.04.16.19h.01V9.5h.06v.24l.17-.18.04.03-.17.19.01.02h.14-.44zm-.4 0c0-.03.02-.06.05-.07v-.17h.06v.17a.1.1 0 0 1 .05.06h.15-.2a.04.04 0 0 0-.06 0h-.06z" mask="url(#b)"/><path fill="#C8B100" d="M8.3 9.3l.2.23.04-.03-.2-.22.01-.03h.15v-.04h-.15a.08.08 0 0 0-.08-.06.09.09 0 0 0-.08.08c0 .03.02.06.05.07v.18h.05V9.3h.01zm.2.24l-.2-.23v.18h-.06V9.3a.09.09 0 0 1-.06-.08c0-.05.04-.09.1-.09a.1.1 0 0 1 .08.06h.15v.06h-.15v.02l.2.22-.05.04zm.29.65h.04v-.3h.01l.16.18.03-.03-.15-.18v-.01h.14V9.8H8.9v-.02h-.01l.16-.19-.03-.02-.17.18V9.5H8.8v.25h-.02l-.16-.18-.04.03.17.18v.02H8.6v.04h.13v.02h.01l-.16.18.04.03.15-.18h.01v.3zm.05 0h-.06V9.9l-.16.18-.05-.04.16-.18h-.14v-.07h.13l-.16-.2.05-.03.16.18V9.5h.07v.25l.16-.2.05.04-.16.19v.01h.14v.06H8.9l-.01.01.15.18-.04.04-.16-.18v.3zm-.47.1a.05.05 0 0 0-.05.06l.01.04a.05.05 0 0 0 .09-.04.05.05 0 0 0-.05-.05zm-.01.1l-.03-.01a.05.05 0 0 1-.01-.07.05.05 0 1 1 .04.08zm-.11-.37h.04V9.9a.1.1 0 0 0 .06-.05h.15V9.8h-.15a.08.08 0 0 0-.05-.05v-.18h-.05v.17a.08.08 0 0 0-.06.08c0 .04.02.07.05.08v.12zm0 .11h.1a.5.5 0 0 1 0-.05v-.05h-.1v.1zm.06 0v.02l.1-.02-.02-.06V10l-.09-.01v.08a.3.3 0 0 0 0 .06zm-.1.01l.08.01v-.04l-.01-.04v-.08l-.09.02.02.13zm.24.34l.05.03.02-.04a.51.51 0 0 1-.1-.09.07.07 0 0 0 0-.1l.13-.14-.03-.03-.14.15a.1.1 0 0 0-.04 0 .45.45 0 0 1-.04-.1.35.35 0 0 1 0-.04h-.05a.52.52 0 0 0 .04.15v.01a.08.08 0 0 0 0 .11c.03.02.06.02.08.02l.08.07zm.17.03h.02l.01-.04a.46.46 0 0 1-.13-.06l-.03.03.13.07zm-.12.01a.6.6 0 0 0 .08.05l.02-.05a.56.56 0 0 1-.07-.05l-.03.05zm-.05.02l.12.06.04-.03-.04-.01a.52.52 0 0 1-.1-.06l-.02.04zm.18.03a.6.6 0 0 0 .1.02c0 .04.04.06.08.06s.07-.02.08-.06c.05 0 .1-.02.14-.04l-.02-.04a.52.52 0 0 1-.12.04.08.08 0 0 0-.05-.05v-.22h-.05v.22a.08.08 0 0 0-.05.04.53.53 0 0 1-.13-.03l-.03.04a.6.6 0 0 0 .04.01zm.18.1a.1.1 0 0 1-.09-.07.6.6 0 0 1-.1-.03l-.04.04a.63.63 0 0 1-.14-.07l.01-.05a.57.57 0 0 1-.08-.08.1.1 0 0 1-.08-.01.09.09 0 0 1-.03-.06c0-.03 0-.05.02-.07a.52.52 0 0 1-.03-.1l-.06-.02V10l.05-.02V9.9a.09.09 0 0 1-.06-.08c0-.04.02-.07.06-.08v-.18h.06v.18c.03 0 .05.03.06.05h.14v.06h-.14c-.01.03-.03.04-.06.05v.08l.06.01v.15l-.05.02c0 .03.02.06.03.08a.1.1 0 0 1 .04 0l.14-.14.05.04-.14.15c.02.03.01.06 0 .09a.5.5 0 0 0 .05.05l.04-.03c.04.03.09.05.14.06l-.01.06.08.02a.09.09 0 0 1 .05-.05v-.22h.06v.22a.1.1 0 0 1 .05.05c.04 0 .08-.02.12-.04l.04.05a.59.59 0 0 1-.15.05.1.1 0 0 1-.09.06z" mask="url(#b)"/><path fill="#C8B100" d="M8.79 9.41h.04v-.1a.09.09 0 0 0 .06-.06h.13v-.04H8.9a.08.08 0 0 0-.08-.06.08.08 0 0 0-.08.06H8.6v.04h.13c0 .03.03.05.05.06v.1zm.05 0h-.06v-.1a.09.09 0 0 1-.06-.05H8.6V9.2h.13a.1.1 0 0 1 .09-.06.1.1 0 0 1 .08.06h.14v.06H8.9c0 .02-.03.04-.05.05v.1zm-.65.18l.1.02v-.17l-.1.02v.13zm.1.03l-.1-.02v-.15l.1-.02v.19zm.01-.18v.17l.1-.02v-.13l-.1-.02zm0 .18v-.19l.1.02v.15l-.1.02zm-.01.17zm-.01.1a.05.05 0 1 1 0-.1.05.05 0 0 1 0 .1zm.18.2l.03.04.11-.12-.05-.02-.09.1zm.03.05l-.04-.05.1-.11.06.02-.12.14zm.05.03l.04.02.1-.1-.03-.05-.11.13zm.04.03l-.06-.03.13-.14.04.05-.1.12zm.7.1l-.03.01a.05.05 0 1 0 .03-.01zm0 .1a.05.05 0 0 1-.04-.1.05.05 0 1 1 .03.1zm-.21-.9l.03.02.2-.22h.02v.18h.05V9.3a.08.08 0 0 0 .06-.08c0-.04-.04-.08-.09-.08a.08.08 0 0 0-.07.06h-.15v.04h.14l.01.01-.2.24zm.2.1h.1v-.16l-.1.02v.13zm-.15.24h.14c.01.03.03.05.06.06v.12h.05V9.9a.08.08 0 0 0 .06-.08.08.08 0 0 0-.06-.07v-.18h-.05v.18a.08.08 0 0 0-.06.05h-.14v.04zm.2.2v.04a.5.5 0 0 1 0 .05h.1v-.1h-.1zm-.06.1l.08.01.02-.08v-.08h-.09a5.5 5.5 0 0 0 0 .08l-.01.06zm.12-.03l-.01.04h.08l.02-.14-.09-.02v.12zm-.28.36l.02.04.04-.03a.56.56 0 0 0 .08-.07c.03 0 .06 0 .08-.02a.08.08 0 0 0 0-.11v-.01a.51.51 0 0 0 .04-.1v-.05h-.04c0 .04-.02.09-.04.13a.1.1 0 0 0-.05 0l-.13-.14-.04.03.14.15a.07.07 0 0 0 0 .09.5.5 0 0 1-.1.09zm-.14 0l.01.05c.06-.02.1-.05.15-.08l-.03-.03a.46.46 0 0 1-.13.06zm.04.1l.04.03a.62.62 0 0 0 .13-.06l-.01-.05a.59.59 0 0 1-.15.08zm.04.04l-.05-.04a.58.58 0 0 0 .12-.06l-.02-.04a.53.53 0 0 1-.12.06l-.02-.06.14-.07.04.03a.5.5 0 0 0 .06-.05.08.08 0 0 1 0-.1l-.14-.14.05-.04.13.15a.1.1 0 0 1 .05 0 .44.44 0 0 0 .02-.1l-.05-.01v-.15l.06-.01V9.9a.09.09 0 0 1-.05-.05H9.1V9.8h.15c0-.02.03-.04.05-.05v-.12l-.05-.02v-.15l.05-.02v-.12l-.2.23-.05-.04.2-.23v-.01H9.1V9.2h.15a.1.1 0 0 1 .08-.06c.05 0 .1.04.1.09 0 .04-.03.07-.06.08v.18h-.06v.07h.05v.18c.04.01.07.04.07.08s-.03.07-.07.08v.08l.06.02v.15l-.06.01-.04.11a.08.08 0 0 1 0 .13.1.1 0 0 1-.09.01.57.57 0 0 1-.08.08l.01.05a.63.63 0 0 1-.13.07z" mask="url(#b)"/><path fill="#C8B100" d="M8.46 9.26h.17l-.01-.1h-.15l-.01.1zm.18-.01h-.2l.03-.1h.15l.02.1zm.34 0h.18l-.02-.1H9l-.02.1zm.19 0h-.2l.02-.1h.16l.02.1zm-.88-.05zm0 .1a.05.05 0 1 1 0-.11.05.05 0 0 1 0 .1zm.53-.1zm0 .1a.05.05 0 1 1 0-.1.05.05 0 0 1 0 .1zm.54-.1zm0 .1a.05.05 0 1 1 0-.1.05.05 0 0 1 0 .1zm-.89.06h.15l.01-.1h-.17l.01.1zm.15 0h-.15l-.02-.1h.2l-.03.1zm.38 0h.14l.02-.1h-.18l.02.1zm.15 0h-.16l-.02-.1h.2l-.02.1zm-.2.19l.02.04.12-.13-.05-.02-.1.11zm.02.05l-.03-.05.1-.12.06.03-.13.14zm-.44-.13l.1.12.03-.04-.09-.1-.04.02zm.1.14l-.12-.15.06-.02.1.11-.03.06zm.74-.17v.17l.1-.02v-.13l-.1-.02zm0 .18v-.19l.1.02v.15l-.1.02zm-.35 0l.05.03.1-.1-.04-.05-.1.13zm.05.04l-.06-.03.12-.14.04.05-.1.12zm-.62-.11l.1.1.04-.02-.11-.12-.03.04zm.1.11l-.11-.11.04-.06.12.14-.06.03zm-.09.19h.17l-.01-.1h-.14l-.02.1zm.19-.01h-.2l.02-.1h.16l.02.1zm.33 0h.17v-.1H9l-.02.1zm.19 0h-.2l.02-.1h.16l.02.1zm.2-.05zm-.02.1a.05.05 0 1 1 0-.1.05.05 0 0 1 0 .1zm-.87.06h.14l.01-.1h-.17l.02.1zm.15 0h-.16l-.02-.1h.2l-.02.1zm.37 0h.14l.01-.1h-.17l.02.1zm.15 0h-.16l-.02-.1h.2l-.02.1zM9 10l.12.12.02-.04-.1-.1L9 10zm.12.13L9 10l.06-.02.1.11-.03.05zm-.2-.06l.1.1.05-.01-.11-.13-.03.04zm.1.12l-.1-.12.04-.05.12.14-.06.03zm-.19-.05v.16l.1-.01v-.14l-.1-.01zm0 .17v-.18l.1.02v.14l-.1.02zm-.11-.02l.1.01v-.16l-.1.01v.14zm.1.02l-.1-.02v-.14l.1-.02v.18zm0 .22zm-.01.1a.05.05 0 1 1 0-.1.05.05 0 0 1 0 .1z" mask="url(#b)"/><path fill="#ED72AA" d="M9.07 7.58v.13l.02.03s-.02 0-.03-.02l-.02-.01a7.27 7.27 0 0 0 .02.07l.04.04v.05l-.03-.03-.04-.02s.03.03.03.05l-.01.05-.03-.03L9 7.86l.01.06V8l-.03-.03-.03-.03.02.04c0 .02 0 .08.06.15.03.04.07.12.17.1.1-.03.07-.16.05-.23a.56.56 0 0 1-.03-.15l.01-.1v-.11l.04-.08.01-.04v-.05l.03.05v.05s0-.04.03-.06l.07-.04.01-.02s0 .06-.02.09l-.06.06h.07s-.02 0-.04.05c-.03.03-.02.04-.04.07l-.05.05c-.04.02-.02.14-.02.15.01.02.07.16.07.19s0 .1-.05.15c-.04.03-.1.03-.11.04-.02.01-.04.04-.04.1 0 .05.02.06.03.07l.04.02.02.03v.02l-.03.06-.03.08v.04s.04.04.02.04h-.03l-.04.01v-.02l-.01-.02h-.02v.04l-.03-.02L9 8.74l.02-.04c.02 0 .03 0 .02-.01h-.02L9 8.68v-.05h.05c.02 0 .03 0 .04-.02v-.05l-.04-.02-.01-.03v.07l-.02-.03L9 8.51v.07l-.03-.03-.03-.03-.02-.05v-.05l.02-.03h-.1v.1l.02.07-.02.03H8.8l-.04-.01h-.05l-.03-.01c-.01 0-.03 0-.02.02 0 .02-.01.02-.02.02h-.03c-.01 0-.03 0-.03-.02l.02-.02v-.02h-.02l-.03.02-.01-.04c0-.02-.03-.04 0-.03h.04v-.03c-.02 0-.03 0-.01-.02l.02-.02.02-.02c.02.01 0 .03.02.05.02.02.04.03.07.02l.04-.01V8.4l-.02.02-.01.03v-.11l-.02.03v.04s-.02-.02-.02-.05V8.3c.01 0 .03-.05.07-.05h.1l.06-.01-.12-.07a.32.32 0 0 1-.07-.06.26.26 0 0 1-.02-.05h-.03a.16.16 0 0 0-.06.07v-.07l-.03.06c-.03.01-.05.04-.05.04V8.1s0 .02-.03.02c-.02 0-.06 0-.06.02v.05l-.02.01h-.05v-.03l.01-.02h-.05V8.1l.05-.01s-.01-.02-.03-.02c-.02 0-.03-.02-.02-.03l.02-.02s0-.02.02-.01c.02 0 .02.02.03.03h.07L8.52 8l.05-.03-.03-.03-.03-.03-.06-.02a.38.38 0 0 1-.06-.02l.03-.01.02-.02h-.03l-.05-.02h-.02l.04-.01h.04l-.04-.03-.02-.03-.02-.02c-.01 0-.03.02-.04.01l-.01-.02v-.01c-.01-.01-.03-.03-.01-.03h.04l-.02-.03c-.02 0-.04-.02-.03-.03l.03-.02s.01-.03.02-.02c.02 0 .03.04.04.04v-.04c0-.01 0-.03.02-.03 0 0 .01.02.03.02h.03c0 .02 0 .03-.02.04a.05.05 0 0 0 0 .05l.03.04.06.03.07.05h.16c0-.01.03-.02.03-.04l-.05-.04c0-.02.02-.02.04-.02.03 0 .06 0 .07-.03 0-.03 0-.05-.03-.06-.03 0-.06 0-.06-.03-.01-.03-.02-.03 0-.04l.04-.01.06-.01s0-.02.02-.03l.05-.01.09.05a.5.5 0 0 1 .07.07" mask="url(#b)"/><path fill="#000" d="M9.09 8.72v.02c0 .02 0 .03.02.03l.02-.02h.03v-.02c-.02-.01-.01-.03-.01-.05l.02-.08a.2.2 0 0 1 .03-.03.1.1 0 0 0 .01-.03v-.02l-.02-.02-.01-.01-.03-.01c-.02-.02-.04-.03-.04-.09s.04-.09.04-.1h.03l.09-.03a.15.15 0 0 0 .04-.15.85.85 0 0 0-.06-.19s-.03-.12.01-.16l.02-.01a.1.1 0 0 0 .04-.04l.01-.03.02-.04a.32.32 0 0 1 .04-.04h-.06l.06-.07.01-.06-.04.04h-.02c-.03.02-.03.06-.03.06h-.02a.2.2 0 0 0 0-.05l-.01-.02v.02l-.01.03a.42.42 0 0 0-.02.03l-.02.06a.26.26 0 0 0 0 .1l-.01.06a.5.5 0 0 0 0 .05c-.01.02 0 .09.02.15.03.09.03.15.01.19a.09.09 0 0 1-.05.04c-.1.03-.15-.05-.18-.09a.36.36 0 0 1-.07-.16.11.11 0 0 0-.02-.03v-.01h.01l.02.01.02.01.01.02v-.06l-.01-.06v-.02.01l.05.03.02.03v-.04l-.02-.04v-.01l.05.02.01.01v-.02l-.02-.04h-.01a.1.1 0 0 1-.02-.05V7.7a.4.4 0 0 0 .04.03V7.7l-.01-.02v-.1a.49.49 0 0 0-.16-.13l-.05.02c0 .02-.01.02-.02.03h-.05l-.04.01v.04c0 .01.02.02.05.02h.01c.05.01.04.04.03.07 0 .04-.03.04-.06.04h-.04l.02.02.02.03v.01l-.04.03c-.01.01-.05 0-.07 0h-.02l-.03.01h-.03a.24.24 0 0 1-.05-.04l-.02-.01a.2.2 0 0 0-.03-.02l-.03-.01a.13.13 0 0 1-.04-.05V7.6a.08.08 0 0 0 .03-.03h-.03l-.03-.01v-.01.02s0 .04-.02.04l-.02-.02-.02-.01H8.3v.02h-.02l-.01.02.02.01.03.03-.03.01h-.02v.02l.01.02.01.02h.02l.02-.01.02.01.01.02.01.02.04.02-.04.01h-.01l.03.02a.3.3 0 0 0 .05 0v.02l-.03.01-.01.01h.04l.06.03.02.02.01.01.04.03v.01a.74.74 0 0 1-.1.07.14.14 0 0 1-.08 0l-.02-.01V8h-.02v.01l-.02.03.01.01c.02 0 .03.01.03.02v.01l-.03.01h-.01v.04a.16.16 0 0 0 0 .01h.05v.02h-.02v.02h.08v-.05c0-.02.03-.02.05-.02h.02c.02 0 .03-.03.03-.03h.01a.35.35 0 0 0 0 .05l.03-.03c.02-.01.03-.05.03-.05h.02v.05c.02 0 .03-.02.05-.03l.03-.01h.01l.02.05.06.07.12.06.02.01H8.9a1.1 1.1 0 0 1-.1.01h-.06c-.03 0-.05.03-.05.05l-.01.03v.05l.02-.03v-.02.02l.02.03v.02a.2.2 0 0 0 0 .03v-.01l.02-.02.01-.01v.08c0 .01-.02.02-.05.02-.04 0-.05 0-.07-.03a.04.04 0 0 1-.01-.03l-.01-.01H8.6v.02h-.02l-.01.01v.02c.02 0 .03.02.02.03h-.06l.01.03.01.03h.02v-.01h.03v.03l-.01.01h.01l.01.01h.04v-.02l.03-.02h.03v.01h.05l.04.01h.02l.03-.02-.01-.05-.01-.02c-.01-.05-.02-.08 0-.1l.03-.01h.07v.01l-.01.04v.04l.01.05.04.03.01.01V8.5H9l.02.04.01.01V8.5h.02v.02l.02.01.02.02v.05c0 .02-.02.02-.04.03h-.04v.04h.05v.01l-.02.02-.02.02.01.01h.01l.01.01.02.01v-.02c0-.02.01-.02.02-.02m.01.06l-.01-.03v-.02l-.01.01-.01.03h-.03v-.01h-.01L9 8.73c0-.02.02-.04.03-.04h-.02L9 8.67v-.06h.05l.03-.01v-.04l-.02-.02h-.01v.05l-.02-.02-.02-.02v-.02.05c-.01 0-.02 0-.03-.02l-.01-.01a.12.12 0 0 1-.04-.04l-.01-.04v-.09h-.07l.01.1v.02l.02.05-.03.03h-.12v-.01h-.05v.03l-.02.01h-.03L8.6 8.6h-.02v-.04a.06.06 0 0 0 .02-.01h-.02c-.01 0-.02.02-.03.01l-.02-.04v-.04h.05v-.01h-.01l-.02-.02.01-.02h.02v-.01c.01-.02.02-.03.04-.02v.02l.02.02c.02.02.03.03.06.03l.04-.01v-.05h-.01l-.02.03v.01-.08H8.7v.05h-.02s-.02-.03-.01-.06v-.07c.01-.02.03-.06.07-.06a.78.78 0 0 1 .1 0h.04a1.73 1.73 0 0 1-.1-.06.32.32 0 0 1-.07-.07.24.24 0 0 1-.02-.05l-.03.01a.15.15 0 0 0-.03.03l-.03.03v-.04l-.03.03a.89.89 0 0 0-.05.04v.01-.01a.46.46 0 0 0 0-.04l-.03.01h-.02l-.04.01v.05l-.01.02h-.05v-.04h-.04v-.07h.04l-.02-.01c-.02 0-.03-.01-.03-.02v-.02a.06.06 0 0 0 .03-.02V8h.03l.01.02.02.01h.06L8.5 8h.02l.04-.03a.31.31 0 0 1-.04-.04l-.02-.02-.05-.02a.36.36 0 0 1-.06-.01l-.02-.01h.02l.02-.02H8.4l-.01-.01-.03-.01h-.02v-.01a.15.15 0 0 1 .05-.02l-.02-.01v-.02l-.02-.01v-.01l-.01-.01h-.02l-.02.01c-.01 0-.02-.01-.02-.03V7.7c-.01-.01-.02-.02-.01-.03v-.01h.04l-.02-.02-.02-.02v-.01l.01-.01.01-.01.03-.03.03.03.01.01v-.06h.03l.02.01h.04v.02l-.02.03-.01.05.04.04.02.01.03.02.02.01.05.03.03.01h.12l.03-.03-.02-.03c-.01 0-.03-.01-.02-.02 0-.02.02-.02.04-.02h.01c.03 0 .05 0 .05-.03s0-.05-.02-.05c-.03-.01-.05-.02-.06-.04v-.04c0-.01.02-.02.05-.02h.05v-.02l.02-.01a.2.2 0 0 1 .05-.02l.1.06.07.07v.13l.01.03v.01l-.03-.02a2.35 2.35 0 0 0 0 .05h.01l.03.04v.07-.02l-.03-.02-.02-.01.01.03v.05l-.01.02v-.01l-.03-.04H9v.14V8l-.03-.03h-.01v.01c0 .05.03.1.06.15.04.05.08.11.17.09.02 0 .04-.02.05-.04.02-.03.02-.1-.01-.17a.57.57 0 0 1-.03-.16V7.8l.02-.06a.27.27 0 0 1 .02-.17.3.3 0 0 0 .02-.03v-.03a.4.4 0 0 0 0-.04h.02l.02.05v.01l.03-.02.02-.02a.28.28 0 0 0 .05-.03v-.01h.02s0 .06-.02.09l-.05.05h.07-.01l-.05.06a.12.12 0 0 0-.02.04l-.01.03-.04.04-.02.01c-.03.03-.01.13 0 .15v.04c.03.05.06.12.06.15 0 .04 0 .11-.06.16-.02.02-.06.02-.08.03h-.03c0 .01-.04.03-.04.1 0 .04.02.05.03.06.01.02.02.02.03.02h.02v.01l.01.02s.02.02.01.03l-.01.03-.02.03a.5.5 0 0 0-.03.08v.04l.02.04-.01.01H9.1" mask="url(#b)"/><path fill="#C8B100" d="M7.38 7.72h.11-.11zm-.23-.18h.12-.12zm-.22.18h.11-.11zm.28-.06v-.1.1zm0 .12v-.1.1zm0 .18v-.1.1zm0 .12v-.1.1zm0 .23v-.1.1zm0-.11v-.1.1zm0 .23v-.1.1zm.23-.69v.1-.1zm-.12.12v.1-.1zm.23 0v.1-.1zm-.06.06v.1-.1zm-.11 0v.1-.1zm-.11 0v.1-.1zm.05.06v.1-.1zm.12 0v.1-.1zm.1 0v.1-.1zm-.05.06v.1-.1zm-.11 0v.1-.1zm-.11 0v.1-.1zm.05.06v.1-.1zm-.05.05v.1-.1zm0 .12v.1-.1zm.05.16v-.1.1zm-.05-.03v.1-.1zm.1 0v.1-.1zm.12 0v.1-.1zm-.17.16v-.1.1zm.06-.05v.1-.1zm.23.1v-.1.1zm-.12 0v-.1.1zm-.05-.18v-.1.1zm0 .13v-.1.1zm0 .12v-.1.1zm0 .11v-.1.1zm.05-.06v-.1.1zm.12-.1v.1-.1zm-.06.05v-.1.1zm0 .11v-.1.1zm0-1.12h-.23.23zm-.06.07h-.11.11zm-.5 0v.1-.1zm.1.12v.1-.1zm-.22 0v.1-.1zm.06.06v.1-.1zm.11 0v.1-.1zm.11 0v.1-.1zm-.05.06v.1-.1zm-.12 0v.1-.1zm-.1 0v.1-.1zm.05.06v.1-.1zm.11 0v.1-.1zm.11 0v.1-.1zm-.05.06v.1-.1zm.05.05v.1-.1zm0 .12v.1-.1zm-.05.16v-.1.1zm.05-.03v.1-.1zm-.1 0v.1-.1zm-.12 0v.1-.1zm.17.16v-.1.1zm-.06-.05v.1-.1zm-.23.1v-.1.1zm.12 0v-.1.1zm.05-.18v-.1.1zm0 .13v-.1.1zm0 .12v-.1.1zm0 .11v-.1.1zm-.05-.06v-.1.1zm-.12-.1v.1-.1zm.06.05v-.1.1zm0 .11v-.1.1zm0-1.12h.23-.23zm.06.07h.11-.11zm.17-.25h.22-.22zm.05.07h.12-.12zm0 .06h.12-.12zm0 .06h.12-.12zm0 .06h.12-.12zm-.22.06h.56-.56zm-.12.06h.8-.8zm0 .06h.8-.8zm0 .06h.8-.8zm0 .06h.8-.8zm.06.06h.68-.68zm0 .05h.68-.68zm0 .06h.68-.68zm0 .06h.68-.68zm0 .06h.68-.68zm0 .07h.68-.68zm0 .06h.68-.68zm-.11.05h.9-.9zm0 .07h.9-.9zm0 .05h.9-.9zm0 .06h.9-.9zm0 .06h.9-.9zm.2-1.12h-.03V7.6h-.06v.12h.06v.08H6.8v.24h.06v.47h-.11v.24h.9v-.24h-.11v-.47h.06V7.8h-.12v-.08h.06V7.6h-.06v.03h-.02V7.6H7.4v.03h-.03V7.6h-.06v.12h.06v.08h-.11v-.26h.05v-.12h-.05v.03h-.03v-.03h-.06v.03h-.03v-.03H7.1v.12h.05v.26h-.1v-.08h.05V7.6h-.06v.03h-.03V7.6h-.06v.03z" mask="url(#b)"/><path fill="#000" d="M7.1 7.53h.22v-.1h-.05v.06h-.04v-.06h-.04v.06h-.04v-.06H7.1v.1zm.17.07h.05v-.1H7.1v.1h.17zm-.1-.03h.1v-.02h-.1v.02zm0 .1h.1v-.1h-.1v.1zm.04 0h.1v-.1h-.1v.1zm-.33.04h.2v-.1h-.03v.05h-.04v-.05h-.05v.05h-.04v-.05h-.04v.1zm.45 0h.2v-.1H7.5v.05h-.04v-.05h-.04v.05h-.05v-.05h-.04v.1zm-.17.02h.1v-.1h-.1v.1zm-.12.04h.05v-.1h-.2v.1h.15zm.45 0h.05v-.1h-.2v.1h.15zm-.56-.02h.1v-.02h-.1v.02zm.23.04h.1v-.1h-.1v.1zm.05 0h.1v-.1h-.1v.1zm.17-.04h.1v-.02h-.1v.02zm-.45.1h.1v-.1h-.1v.1zm.06 0h.1v-.1H7v.1zm.17 0h.1v-.1h-.1v.1zm.22 0h.1v-.1h-.1v.1zm.06 0h.1v-.1h-.1v.1zm-.62.06h.78v-.1h-.78v.1zm0 .06h.1v-.1h-.1v.1zm.06 0h.2v-.1h-.2v.1zm.22 0h.1v-.1h-.1v.1zm.11 0h.1v-.1h-.1v.1zm.12 0h.2v-.1h-.2v.1zm.22 0h.1v-.1h-.1v.1zm-.73.05h.1v-.1h-.1v.1zm.11 0h.1v-.1h-.1v.1zm.12 0h.1v-.1h-.1v.1zm.11 0h.1v-.1h-.1v.1zm.11 0h.1v-.1h-.1v.1zm.11 0h.1v-.1h-.1v.1zm.12 0h.1v-.1h-.1v.1zm-.68.06h.1v-.1h-.1v.1zm.06 0h.1v-.1h-.1v.1zm.11 0h.1v-.1H7v.1zm.11 0h.1v-.1h-.1v.1zm.11 0h.1v-.1h-.1v.1zm.12 0h.1v-.1h-.1v.1zm.11 0h.1v-.1h-.1v.1zm.11 0h.1v-.1h-.1v.1zm-.67.06h.1v-.1h-.1v.1zm.05 0h.1v-.1h-.1v.1zm.12 0h.1v-.1h-.1v.1zm.11 0h.1v-.1h-.1v.1zm.11 0h.1v-.1h-.1v.1zm.11 0h.1v-.1h-.1v.1zm.12 0h.1v-.1h-.1v.1zm-.62.06h.2v-.1h-.2v.1zm.22 0h.1v-.1h-.1v.1zm.11 0h.1v-.1h-.1v.1zm.12 0h.2v-.1h-.2v.1zm-.45.06h.27v-.1h-.27v.1zm.28 0h.1v-.1h-.1v.1zm.11 0h.27v-.1h-.27v.1zm-.39.06h.32v-.1h-.32v.1zm.33 0h.33v-.1H7.2v.1zm-.33.06h.27v-.1h-.27v.1zm.28 0h.1v-.1h-.1v.1zm.11 0h.27v-.1h-.27v.1zm-.39.06h.1v-.1h-.1v.1zm.11 0h.1v-.1H7v.1zm.11 0h.1v-.1h-.1v.1zm.11 0h.1v-.1h-.1v.1zm.12 0h.1v-.1h-.1v.1zm.11 0h.1v-.1h-.1v.1zm-.56.07h.1v-.1h-.1v.1zm.05 0h.1v-.1h-.1v.1zm.12 0h.1v-.1h-.1v.1zm.11 0h.1v-.1h-.1v.1zm.11 0h.1v-.1h-.1v.1zm.11 0h.1v-.1h-.1v.1zm.12 0h.1v-.1h-.1v.1zm-.62.05h.1v-.1h-.1v.1zm.11 0h.1v-.1H7v.1zm.11 0h.22v-.1H7.1v.1zm.23 0h.1v-.1h-.1v.1zm.11 0h.1v-.1h-.1v.1zm-.68.06h.1v-.1h-.1v.1zm.06 0h.1v-.1h-.1v.1zm.11 0h.1v-.1h-.1v.1zm.12 0h.32v-.1h-.32v.1zm.33 0h.1v-.1h-.1v.1zm.12 0h.1v-.1h-.1v.1zm.11 0h.1v-.1h-.1v.1zm-.85.06h.1v-.1h-.1v.1zm.12 0h.1v-.1h-.1v.1zm.11 0h.44v-.1h-.44v.1zm.45 0h.1v-.1h-.1v.1zm.11 0h.1v-.1h-.1v.1zm-.79.06h.1v-.1h-.1v.1zm.06 0h.1v-.1h-.1v.1zm.11 0h.56v-.1h-.56v.1zm.57 0h.1v-.1h-.1v.1zm.11 0h.1v-.1h-.1v.1zm-.85.06h.1v-.1h-.1v.1zm.12 0h.1v-.1h-.1v.1zm.11 0h.44v-.1h-.44v.1zm.45 0h.1v-.1h-.1v.1zm.11 0h.1v-.1h-.1v.1zm.12-.04h-.92V8.5h.12v-.46H6.8V7.8h.1v-.06h-.04V7.6h.06v.03h.02V7.6h.07v.03h.02V7.6h.06v.14h-.05v.06h.1v-.24h-.06V7.4h.07v.03h.02V7.4h.06v.03h.02V7.4h.07v.14h-.06v.24h.1v-.06h-.05v-.14h.06v.03h.03V7.6h.06v.03h.02V7.6h.06v.14H7.5v.06h.11v.25h-.06v.46h.12v.26z" mask="url(#b)"/><path fill="#AD1519" d="M7.5 9c0-.33.23-.6.51-.6.3 0 .52.27.52.6 0 .32-.23.58-.52.58-.28 0-.52-.26-.52-.59" mask="url(#b)"/><path fill="#000" d="M8.01 8.42c-.28 0-.5.25-.5.57 0 .32.22.58.5.58.29 0 .51-.26.51-.58 0-.32-.22-.57-.5-.57m0 1.17c-.3 0-.54-.27-.54-.6 0-.33.24-.6.53-.6.3 0 .53.27.53.6 0 .33-.23.6-.53.6" mask="url(#b)"/><path fill="#005BBF" d="M7.65 9c0-.25.16-.44.36-.44.2 0 .37.2.37.43 0 .24-.16.43-.37.43-.2 0-.36-.2-.36-.43" mask="url(#b)"/><path fill="#000" d="M8.01 8.57c-.2 0-.35.19-.35.42 0 .23.16.42.35.42.2 0 .36-.19.36-.42 0-.23-.16-.42-.36-.42m0 .86c-.2 0-.37-.2-.37-.44s.17-.44.37-.44c.21 0 .38.2.38.44s-.17.44-.38.44" mask="url(#b)"/></g></svg>