<svg xmlns="http://www.w3.org/2000/svg" viewBox="0 0 32 16">
  <g fill="none" fill-rule="evenodd">
    <rect width="32" height="16" fill="#00247D" transform="matrix(1 0 0 -1 0 16)"/>
    <polygon fill="#FFF" points="32.001 0 32.001 2 25.601 5 32.001 5 32.001 11 26.668 11 32.001 13.5 32.001 16 29.868 16 19.201 11 19.001 11 19.001 16 13.001 16 13.001 11 12.801 11 2.134 16 .001 16 .001 13.5 5.334 11 .001 11 .001 5 6.401 5 .001 2 .001 0 3.201 0 13.001 4.594 13.001 0 19.001 0 19.001 4.594 28.801 0"/>
    <polygon fill="#CF142B" points="18.001 0 18.001 6 32.001 6 32.001 10 18.001 10 18.001 16 14.001 16 14.001 10 .001 10 .001 6 14.001 6 14.001 0"/>
    <polygon fill="#CF142B" fill-rule="nonzero" points="10.798 11 .174 16 .001 16 0 14.977 8.452 11"/>
    <polygon fill="#CF142B" fill-rule="nonzero" points="24.549 11 32 14.506 32 15.61 22.202 11"/>
    <polygon fill="#CF142B" fill-rule="nonzero" points=".173 0 10.8 5 8.452 5 0 1.022 .001 0"/>
    <polygon fill="#CF142B" fill-rule="nonzero" points="32.001 0 32 .552 22.549 5 20.2 5 30.829 0"/>
  </g>
</svg>
