<?xml version="1.0" encoding="UTF-8"?>
<svg width="32px" height="16px" viewBox="0 0 32 16" version="1.1" xmlns="http://www.w3.org/2000/svg" xmlns:xlink="http://www.w3.org/1999/xlink">
    <g id="Page-1" stroke="none" stroke-width="1" fill="none" fill-rule="evenodd">
        <g id="Georgia">
            <rect id="Rectangle-2" fill="#FFFFFF" x="0" y="0" width="32" height="16"></rect>
            <polygon id="Path-2" fill="#FF0000" points="6.69866667 4.864 7.76533333 4.864 7.60123077 3.63323077 8.832 3.79733333 8.832 2.73066667 7.60123077 2.89476923 7.76533333 1.664 6.69866667 1.664 6.86276923 2.89476923 5.632 2.73066667 5.632 3.79733333 6.86276923 3.63323077"></polygon>
            <polygon id="Path-2-Copy-2" fill="#FF0000" points="24.2346667 4.864 25.3013333 4.864 25.1372308 3.63323077 26.368 3.79733333 26.368 2.73066667 25.1372308 2.89476923 25.3013333 1.664 24.2346667 1.664 24.3987692 2.89476923 23.168 2.73066667 23.168 3.79733333 24.3987692 3.63323077"></polygon>
            <polygon id="Path-2-Copy" fill="#FF0000" points="6.69866667 14.336 7.76533333 14.336 7.60123077 13.1052308 8.832 13.2693333 8.832 12.2026667 7.60123077 12.3667692 7.76533333 11.136 6.69866667 11.136 6.86276923 12.3667692 5.632 12.2026667 5.632 13.2693333 6.86276923 13.1052308"></polygon>
            <polygon id="Path-2-Copy-3" fill="#FF0000" points="24.2346667 14.336 25.3013333 14.336 25.1372308 13.1052308 26.368 13.2693333 26.368 12.2026667 25.1372308 12.3667692 25.3013333 11.136 24.2346667 11.136 24.3987692 12.3667692 23.168 12.2026667 23.168 13.2693333 24.3987692 13.1052308"></polygon>
            <rect id="Rectangle-3" fill="#FF0000" x="14.528" y="0" width="2.944" height="16"></rect>
            <rect id="Rectangle-3-Copy" fill="#FF0000" x="0" y="6.528" width="32" height="2.944"></rect>
        </g>
    </g>
</svg>