<svg xmlns="http://www.w3.org/2000/svg" viewBox="0 0 32 16">
  <g fill="none" fill-rule="evenodd">
    <rect width="32" height="16" fill="#FFF" transform="matrix(1 0 0 -1 0 16)"/>
    <g fill-rule="nonzero" transform="translate(13 5.146)">
      <polygon fill="#ACABB1" points="5.146 0 5.854 .707 3.707 2.854 4.854 4 4.146 4.707 3 3.561 1.854 4.707 1.146 4 2.293 2.854 .146 .707 .854 0 3 2.147"/>
      <path fill="#6DA544" d="M0.878679656,0.732233047 L1.58578644,1.43933983 C1.22385763,1.80126864 1,2.30126864 1,2.85355339 C1,3.95812289 1.8954305,4.85355339 3,4.85355339 C4.1045695,4.85355339 5,3.95812289 5,2.85355339 C5,2.30126864 4.77614237,1.80126864 4.41421356,1.43933983 L5.12132034,0.732233047 C5.66421356,1.27512627 6,2.02512627 6,2.85355339 C6,4.51040764 4.65685425,5.85355339 3,5.85355339 C1.34314575,5.85355339 0,4.51040764 0,2.85355339 C0,2.09416186 0.282153882,1.4006709 0.747345544,0.872196609 L0.878679656,0.732233047 Z"/>
    </g>
    <rect width="11" height="16" fill="#4997D0"/>
    <rect width="11" height="16" x="21" fill="#4997D0"/>
  </g>
</svg>
