<svg xmlns="http://www.w3.org/2000/svg" viewBox="0 0 32 16">
  <g fill="none" fill-rule="evenodd">
    <rect width="32" height="16" fill="#DE2910" transform="matrix(1 0 0 -1 0 16)"/>
    <path fill="#FFF" fill-rule="nonzero" d="M18.38175,9.70971875 C18.7490312,10.5971875 18.3272812,11.6144062 17.4398125,11.9817187 C16.9211562,10.7283125 16.5865,10.8292187 16.3204375,10.1864062 C16.0229375,9.46775 16.3690625,9.3945 16.1097187,8.76784375 C16.9971875,8.4005625 18.0144375,8.82225 18.38175,9.70971875 Z M15.3145937,8.5766875 C15.9381875,9.30721875 15.8514375,10.4049687 15.1209375,11.0285625 C14.390375,11.6521562 13.292625,11.5653125 12.669125,10.8348437 C13.7008125,9.954125 13.5014062,9.66696875 14.0305625,9.215375 C14.6221562,8.7104375 14.7986875,9.017 15.3145937,8.5766875 Z M12.2855312,5.9430625 C13.4419687,6.6521875 13.653375,6.37384375 14.2464687,6.7375 C14.9095,7.1440625 14.6725,7.40678125 15.2506875,7.761375 C14.7485625,8.58015625 13.6777812,8.836875 12.8589687,8.33478125 C12.0401875,7.8326875 11.7834062,6.76184375 12.2855312,5.9430625 Z M20.0049062,7.79878125 C18.6525,7.9048125 18.6450312,8.25428125 17.9515625,8.308625 C17.1761562,8.36946875 17.213375,8.01759375 16.5372812,8.07065625 C16.4621875,7.1131875 17.177625,6.27596875 18.1351562,6.2008125 C19.0926562,6.12584375 19.9298437,6.84121875 20.0049062,7.79878125 Z M16.8193437,4.0666875 C16.50225,5.38565625 16.8323437,5.50078125 16.6696875,6.177125 C16.487875,6.93334375 16.1648437,6.789125 16.0063125,7.448625 C15.0724687,7.22409375 14.4973437,6.28503125 14.721875,5.351125 C14.9463125,4.41728125 15.8854687,3.84215625 16.8193437,4.0666875 Z"/>
  </g>
</svg>
