<svg xmlns="http://www.w3.org/2000/svg" viewBox="0 0 32 16"><g fill="none"><path fill="#DE2910" d="M0 0h32v16H0z"/><path fill="#FFF" d="M16.07 8.02C13.24 6.84 14.5 3.2 17.2 3.38c-.55.28-.63.8-.31 1.28.35.54-.04 1.4-.5 1.61-.79.35-.94 1.27-.32 1.75z"/><path fill="#DE2910" d="M15.92 5.4l-.16.24-.06-.3-.3-.06.27-.14-.02-.3.22.2.28-.1-.13.26.19.23zm.17 2.6a1.54 1.54 0 0 1-.74-.98 1.8 1.8 0 0 1 .22-1.46l-.06-.03c-.29.45-.37 1-.23 1.51.13.46.4.83.77 1.01L16.1 8z"/><path fill="#FFF" d="M16.08 8.05c.26-3.06 4.12-3 4.78-.37-.44-.43-.96-.35-1.32.1-.4.5-1.35.4-1.7.02-.56-.63-1.5-.5-1.76.25z"/><path fill="#DE2910" d="M18.55 7.09l-.3-.08.27-.14-.03-.3.23.2.27-.1-.13.26.2.23-.3-.04-.16.26zm-2.43.96c.06-.38.32-.75.7-1 .42-.28.96-.37 1.45-.25l.02-.06a1.9 1.9 0 0 0-1.52.25c-.4.26-.66.65-.72 1.05l.07.01z"/><path fill="#FFF" d="M16.09 7.99c2.98-.71 4.1 2.97 1.81 4.41.28-.54.04-1.01-.5-1.22-.6-.22-.8-1.15-.53-1.6.42-.73 0-1.57-.78-1.6z"/><path fill="#DE2910" d="M17.75 10.02v-.29l.21.2.28-.11-.13.26.19.23-.3-.04-.16.26-.05-.29-.29-.07zm-1.65-2c.37-.06.8.07 1.16.35.4.32.65.8.68 1.3h.07a1.89 1.89 0 0 0-.7-1.36c-.38-.3-.82-.42-1.23-.36l.01.07z"/><path fill="#FFF" d="M16.12 8.04c1.6 2.62-1.56 4.83-3.64 3.1.6.09.98-.28 1-.86.04-.64.86-1.11 1.36-1 .83.17 1.5-.48 1.28-1.24z"/><path fill="#DE2910" d="M14.7 10.26l.27-.1-.12.27.2.22-.3-.04-.15.25-.06-.3-.3-.07.26-.13-.02-.3zm1.39-2.2c.18.34.19.8.03 1.22-.18.48-.56.86-1.04 1.05l.03.07c.5-.2.89-.6 1.07-1.1.17-.44.16-.9-.03-1.27l-.06.03z"/><path fill="#FFF" d="M16.07 8.01c-2 2.32-5.09 0-4.08-2.51.1.6.57.84 1.12.7.63-.18 1.33.46 1.39.97.09.85.92 1.28 1.57.84z"/><path fill="#DE2910" d="M13.51 7.34l.2.23-.3-.04-.16.26-.06-.3-.28-.07.25-.14-.01-.3.21.2.28-.1zm2.54.64c-.28.28-.7.43-1.16.4-.51-.02-1-.26-1.32-.65l-.06.04c.34.41.85.66 1.38.69.48.02.92-.14 1.2-.43l-.04-.05z"/></g></svg>