<svg xmlns="http://www.w3.org/2000/svg" viewBox="0 0 32 16">
  <g fill="none" fill-rule="evenodd">
    <rect width="32" height="16" fill="#FFF" transform="matrix(1 0 0 -1 0 16)"/>
    <rect width="32" height="5" fill="red" transform="matrix(1 0 0 -1 0 5)"/>
    <rect width="32" height="5" y="11" fill="#171796" transform="matrix(1 0 0 -1 0 27)"/>
    <g transform="translate(12 3)">
      <path fill="#FFF" d="M0,0 L8,0 L8,6 C8,8.209139 6.209139,10 4,10 C1.790861,10 2.705415e-16,8.209139 0,6 L0,0 L0,0 Z"/>
      <path fill="red" d="M5,7 L5.00090072,8.82897577 C4.6878673,8.93973023 4.35097203,9 4,9 L4,9 L3.82372721,8.99490731 C3.5364707,8.97826328 3.26005727,8.92120208 3.00008893,8.82932572 L3,7 L5,7 Z M7,5 L7,6 L6.99490731,6.17627279 C6.97824216,6.46389383 6.92105719,6.74064427 6.82897577,7.00090072 L5,7 L5,5 L7,5 Z M3,5 L3,7 L1.17102423,7.00090072 C1.06026977,6.6878673 1,6.35097203 1,6 L1,6 L1,5 L3,5 Z M5,3 L5,5 L3,5 L3,3 L5,3 Z M3,1 L3,3 L1,3 L1,1 L3,1 Z M7,1 L7,3 L5,3 L5,1 L7,1 Z"/>
    </g>
  </g>
</svg>
