<svg xmlns="http://www.w3.org/2000/svg" viewBox="0 0 32 16"><g fill="none" fill-rule="evenodd"><path fill="#171796" fill-rule="nonzero" d="M0 0h32v16H0z"/><path fill="#FFF" fill-rule="nonzero" d="M0 0h32v10.6667H0z"/><path fill="red" fill-rule="nonzero" d="M0 0h32v5.3333H0z"/><g fill-rule="nonzero"><path fill="red" d="M16.001 12.1383c1.7107 0 3.1103-1.3997 3.1103-3.1103V5.3321h-6.2207V9.028c0 1.7107 1.3997 3.1103 3.1103 3.1103z"/><path fill="#FFF" d="M16.001 12.0884c1.678 0 3.051-1.373 3.051-3.051V5.392H12.95v3.6455c0 1.678 1.373 3.051 3.051 3.051z"/><g fill="red"><path d="M14.2377 5.5067h-1.174v1.29h1.174zM14.2377 8.0867h1.1742v-1.29h-1.1742z"/><path d="M13.0636 9.0303c0 .1171.0073.2327.0208.3463h1.1534v-1.29h-1.1742v.9437zM16.5861 8.0867H15.412v1.29h1.1742z"/><path d="M16.5861 10.6666h1.1742v-1.29h-1.1742zM17.7603 11.3723a2.973 2.973 0 0 0 .6703-.7056h-.6703v.7056zM14.2378 10.6666h1.1742v-1.29h-1.1742zM13.5664 10.6666c.1833.2708.4106.5098.6714.7065v-.7065h-.6714zM16.2035 11.9566a2.919 2.919 0 0 0 .3825-.0522v-1.2378H15.412v1.238a2.902 2.902 0 0 0 .3814.052c.1368.0084.2735.008.4101 0h.0001z"/><path d="M18.9125 9.3766a2.937 2.937 0 0 0 .0208-.3475v-.9424h-1.1731v1.29h1.1523zM16.5861 8.0867h1.1742v-1.29h-1.1742zM16.5861 5.5067h-1.174v1.29h1.174zM18.9333 6.7967v-1.29h-1.173v1.29z"/></g></g><path fill="#FFF" fill-rule="nonzero" d="M18.999 5.2943l.728-1.6503-.5546-.8956-.919.3402-.6451-.7375-.8501.4871-.758-.6208-.7581.6208-.8502-.4871-.6452.7374-.919-.3402-.5547.8959L13 5.2947a7.258 7.258 0 0 1 3.0002-.6457 7.258 7.258 0 0 1 2.999.6453h-.0002z"/><path fill="#0093DD" fill-rule="nonzero" d="M13.767 3.1614l-.0014.0016-.9113-.3375-.51.8234.1954.4441.4948 1.1234a7.3224 7.3224 0 0 1 1.1528-.3987l-.4203-1.6562v-.0001z"/><path fill="#FFF" fill-rule="nonzero" d="M13.7286 3.9681a.4579.4579 0 0 1 .053.2142.4623.4623 0 0 1-.4614.4614.4626.4626 0 0 1-.453-.3732l-.0188-.0967.0485.0858a.432.432 0 0 0 .3759.22.4325.4325 0 0 0 .4259-.5015l.0158-.0026.0141-.0074z"/><path fill="#000" fill-rule="nonzero" d="M13.2728 4.5116a.463.463 0 0 1-.3445-.1538.4308.4308 0 0 0 .3919.2539.4303.4303 0 0 0 .4155-.5378.4646.4646 0 0 1-.463.4377zm.4667-.536l-.0248-.0001.0248.0001zm-.0109-.0075a.4579.4579 0 0 1 .053.2142.4623.4623 0 0 1-.4614.4614.4626.4626 0 0 1-.453-.3732l-.0188-.0967.0485.0858a.432.432 0 0 0 .3759.22.4325.4325 0 0 0 .4259-.5015l.0158-.0026.0141-.0074zM13.3063 3.3593l-.0015.0073-.031.16.1226.1071.0056.005-.0071.0023-.154.0531-.0314.1598-.0015.0074-.0056-.005-.123-.1068-.154.0526-.0072.0024.0015-.0074.031-.1598-.1226-.1072-.0057-.0049.007-.0025.154-.053.0316-.1598.0015-.0073.0056.005.1229.1067.154-.0526z"/><g fill-rule="nonzero"><path fill="#171796" d="M15.25 2.9135l-.0016.0013-.843-.4831-.6385.7297.4203 1.6562a7.326 7.326 0 0 1 1.204-.2011l-.1413-1.703z"/><g fill="red"><path d="M14.083 4.4065a7.7417 7.7417 0 0 1 1.2731-.2126l-.0357-.4305a8.185 8.185 0 0 0-1.3438.2244l.1063.4187zM13.8717 3.5742a8.5985 8.5985 0 0 1 1.4134-.2361l-.035-.4226a9.024 9.024 0 0 0-1.4828.2476l.1044.411z"/></g></g><g><path fill="#0093DD" fill-rule="nonzero" d="M16.7536 2.9138l-.0018.001L16 2.2993l-.7501.6144.1412 1.703a7.3955 7.3955 0 0 1 .609-.0255c.206 0 .4099.009.6116.0257l.1418-1.703z"/><path fill="#000" fill-rule="nonzero" d="M15.9985 3.6796c-.0015-.0001-.0035.0008-.0055.0036-.0147.0197-.0283.037-.043.0568-.0154.0049-.0192.0143-.0132.0275-.0206-.002-.023.0153-.0239.0342-.0197-.03-.0412-.0381-.0643-.0243-.0008-.0182-.0147-.0267-.0347-.031a.0655.0655 0 0 1-.0344-.0114c-.0047-.0033-.0087-.005-.0134-.0084-.01-.007-.0179-.0004-.0136.0059.021.0342.0423.0685.0633.1028-.001.0063.0005.012.007.0161l.011.0314-.0025.0089c-.0174-.0083-.035-.0093-.0524-.0105-.0134-.0006-.0227-.004-.0285-.0108-.0043-.005-.0072-.002-.0073.0065-.0002.0421.0128.08.0473.1178a2.1272 2.1272 0 0 0-.0548.0017c-.0062.0004-.0075.003-.0058.0082.01.024.0268.0457.065.0605a.0516.0516 0 0 0-.0282.041c-.0008.0177-.006.0302-.0168.036-.0047.0025-.0064.0051-.0019.0084.02.0146.0446.0152.0707.0088a.1104.1104 0 0 0-.0156.0671c.0164.0045.0325.0012.0485-.004a.0772.0772 0 0 0-.0041.0243.0635.0635 0 0 1-.0083.0271c-.0025.0026-.005.0067.0004.0081a.117.117 0 0 0 .0722-.0037c0 .0192.0002.0385.006.0574.0015.0046.0056.008.01.002a.1429.1429 0 0 1 .0415-.0408.0292.0292 0 0 0 .0124.017c.0075.0044.0116.0134.012.0271 0 .0024-.0001.0047.0028.0071.0118.0006.0406-.03.0465-.0471.0163.0095.0225.0194.0347.0364.0044.006.0078.0023.0101-.002a.2227.2227 0 0 0 .0052-.0572.117.117 0 0 0 .0723.0037c.0055-.0015.0028-.0055.0003-.008a.0748.0748 0 0 1-.009-.0289c-.0006-.0105-.001-.0178-.0033-.0226.016.0053.032.0085.0485.004a.1103.1103 0 0 0-.0167-.067c.0261.0062.0518.0057.0718-.009.0045-.0032.0027-.0058-.002-.0083-.0107-.0058-.016-.0182-.0167-.036a.0515.0515 0 0 0-.0282-.041c.0382-.0148.055-.0366.065-.0605.0017-.0052.0004-.0078-.0058-.0082-.0183-.0008-.038-.002-.0562-.0022.0345-.0377.0479-.0759.0477-.118 0-.0086-.003-.0116-.0072-.0065-.0059.0069-.0142.0108-.0275.0115-.0176.0012-.0344.002-.0518.0101-.001-.003-.0017-.0059-.0026-.0089.0037-.0104.0084-.0205.0121-.031.0065-.0042.008-.0098.007-.0162.021-.0342.0405-.0685.0616-.1028.0043-.0062-.0036-.0128-.0135-.0058-.0047.0033-.0086.005-.0134.0083a.0664.0664 0 0 1-.0345.0115c-.0198.0042-.033.0132-.0338.0313-.0232-.0138-.0446-.0057-.0643.0243-.0009-.0189-.0032-.0361-.0239-.0341.006-.0133.0014-.023-.014-.0278-.0147-.0198-.0362-.0372-.0509-.057-.0024-.0027-.004-.0036-.0054-.0035v.0001z"/><g><path fill="#000" fill-rule="nonzero" d="M15.6553 2.913c-.0014-.0002-.0035.0009-.0053.0037-.014.0203-.027.038-.0409.0585-.0152.0054-.0185.0149-.0121.028-.0207-.0013-.0224.016-.0226.035-.0208-.0292-.0426-.0366-.0651-.0219-.0016-.018-.0158-.026-.0359-.0296a.0655.0655 0 0 1-.0348-.0101c-.0049-.0032-.0089-.0048-.0137-.0079-.0102-.0066-.0179.0003-.0134.0064l.0672.1003c-.0009.0064.001.012.0076.0159l.0122.0309-.0022.009c-.0177-.0076-.0353-.008-.0528-.0085-.0134-.0001-.0228-.0031-.0289-.0097-.0044-.0049-.0073-.0018-.007.0067.0013.0422.0158.0796.0517.116a2.1272 2.1272 0 0 0-.0547.0037c-.0062.0007-.0074.0034-.0054.0084.0108.0237.0285.0447.0671.058a.0516.0516 0 0 0-.0266.0422c0 .0177-.0048.0303-.0153.0365-.0047.0027-.0062.0054-.0016.0084.0205.0139.0452.0136.071.0062a.1104.1104 0 0 0-.0131.0677c.0166.0038.0325 0 .0483-.006a.0772.0772 0 0 0-.0032.0246.0635.0635 0 0 1-.0072.0274c-.0024.0027-.0049.0068.0006.008a.117.117 0 0 0 .0721-.0064c.0007.0191.0016.0384.0082.0571.0016.0045.0058.0079.01.0017a.1429.1429 0 0 1 .04-.0424.0292.0292 0 0 0 .013.0165c.0077.004.012.013.013.0266.0001.0024 0 .0048.003.007.0119.0001.0395-.0315.0448-.0489.0166.009.0231.0186.036.0351.0046.0058.008.002.01-.0023a.2227.2227 0 0 0 .003-.0574.117.117 0 0 0 .0724.001c.0054-.0017.0027-.0057 0-.008a.0748.0748 0 0 1-.01-.0286c-.001-.0104-.0017-.0178-.0042-.0225.0161.0048.0323.0073.0486.0023a.1103.1103 0 0 0-.0192-.0665c.0263.0054.052.0038.0713-.0115.0044-.0034.0026-.006-.0022-.0083-.011-.0054-.0167-.0177-.018-.0353a.0515.0515 0 0 0-.0298-.04c.0376-.0162.0535-.0386.0626-.063.0015-.0052.0002-.0077-.006-.0079-.0183 0-.038-.0005-.0563 0 .033-.039.045-.0777.0432-.1198-.0004-.0085-.0034-.0114-.0075-.0062-.0056.007-.0137.0113-.027.0126-.0175.0018-.0343.0032-.0514.012l-.0029-.0088c.0032-.0105.0076-.0208.011-.0315.0062-.0044.0076-.01.0062-.0163.0198-.035.038-.07.0578-.1051.004-.0064-.0041-.0127-.0137-.0054-.0046.0035-.0085.0054-.0131.0089a.0664.0664 0 0 1-.034.0128c-.0197.005-.0325.0144-.0327.0326-.0236-.013-.0447-.0041-.0633.0266-.0016-.0188-.0046-.0359-.0251-.0331.0054-.0135.0004-.023-.0151-.0273-.0155-.0192-.0376-.0357-.053-.0549-.0026-.0027-.0042-.0036-.0056-.0033z"/></g><g><path fill="#000" fill-rule="nonzero" d="M16.3428 2.9127c-.0014-.0002-.0035.0006-.0056.0033-.0154.0192-.0297.036-.0452.0552-.0156.0042-.0196.0135-.0142.027-.0205-.0029-.0236.0143-.0251.0332-.0186-.0307-.0398-.0396-.0634-.0267-.0001-.0182-.0137-.0272-.0334-.0323a.0655.0655 0 0 1-.034-.0127c-.0046-.0035-.0085-.0054-.0131-.0089-.0097-.0073-.0178-.001-.0138.0053l.0594.1052c-.0014.0063 0 .012.0063.0164.0033.0106.0065.0212.0099.0317l-.0029.0089c-.0171-.009-.0346-.0107-.052-.0125-.0134-.0012-.0225-.0049-.0281-.012-.004-.005-.0071-.0023-.0075.0063-.0018.042.0097.0805.0428.1195a2.1272 2.1272 0 0 0-.0548-.0004c-.0063.0002-.0077.0028-.0061.008.009.0244.025.0467.0626.063a.0516.0516 0 0 0-.0298.0399c-.0014.0176-.007.03-.018.0353-.005.0023-.0067.0048-.0023.0083.0194.0153.044.0169.0703.0115a.1104.1104 0 0 0-.0182.0665c.0163.005.0325.0024.0486-.0023a.0772.0772 0 0 0-.005.0243.0635.0635 0 0 1-.0092.0267c-.0027.0025-.0054.0064 0 .008a.117.117 0 0 0 .0723-.0009c-.0007.0192-.0013.0385.0039.0576.0012.0047.0052.0083.0097.0025a.1429.1429 0 0 1 .0432-.0393.0292.0292 0 0 0 .0117.0175c.0074.0046.011.0138.011.0275 0 .0024-.0003.0047.0025.0072.0117.001.0417-.0284.0483-.0453.0159.0101.0217.0202.0332.0377.0042.0061.0078.0026.0102-.0016a.2227.2227 0 0 0 .0074-.057.117.117 0 0 0 .072.0065c.0056-.0013.0031-.0054.0007-.008a.0748.0748 0 0 1-.0078-.0292c-.0003-.0105-.0004-.0179-.0025-.0228.0157.006.0316.0098.0483.006a.1103.1103 0 0 0-.0141-.0678c.0258.0073.0514.0078.072-.006.0046-.0031.003-.0058-.0016-.0085-.0105-.0062-.0153-.0189-.0154-.0366a.0515.0515 0 0 0-.0266-.042c.0387-.0134.0563-.0345.0672-.058.002-.0052.0008-.0079-.0055-.0085-.0182-.0015-.0378-.0033-.056-.0043.036-.0364.0507-.074.0522-.1161.0002-.0086-.0026-.0117-.007-.0068-.0061.0066-.0146.0103-.028.0105-.0175.0005-.0344.0006-.0521.0081l-.0022-.009c.004-.0103.0092-.0202.0133-.0306.0066-.0039.0084-.0094.0075-.0158.0224-.0335.0431-.067.0656-.1004.0045-.006-.0032-.013-.0133-.0064-.0049.0032-.0089.0047-.0137.0079a.0664.0664 0 0 1-.035.0101c-.02.0035-.0334.012-.035.03-.0225-.0146-.0442-.0074-.0651.0219-.0002-.019-.0019-.0362-.0225-.035.0064-.013.0022-.023-.013-.0284-.014-.0203-.0348-.0384-.0487-.0587-.0023-.0029-.0039-.0039-.0053-.0038z"/></g></g><g><path fill="#171796" fill-rule="nonzero" d="M18.2366 3.1623l-.002.0007-.6398-.7313-.8412.4821-.1419 1.703a7.3227 7.3227 0 0 1 1.2039.2015l.4209-1.656z"/><path fill="#000" fill-rule="nonzero" d="M16.9195 3.2671c.0293-.007.058-.0086.086.0086a.059.059 0 0 1 .0272.0198.3849.3849 0 0 1 .0398-.0275.2204.2204 0 0 1 .0599-.0338.2492.2492 0 0 1 .0904-.0272.4196.4196 0 0 1 .096-.0038.1727.1727 0 0 1 .0769.023l.0667.0333a.7307.7307 0 0 0 .0706.0349c.0299.0118.0635.0157.0992.017a.174.174 0 0 0 .0517-.0038c.0137-.0036.0222.005.0071.0143-.1106.0678-.1972.0075-.2712-.0195a.5365.5365 0 0 1 .0711.0566.3812.3812 0 0 0 .1152.08.2787.2787 0 0 0 .1176.0277.2951.2951 0 0 0 .0518-.0035c.0094-.0015.0134-.0006.0136.0043.0002.0033-.0007.01-.0063.0136-.0285.0191-.0554.0242-.0853.026-.057.0037-.118-.015-.1738-.045-.0446-.024-.0747-.0532-.1103-.0794-.0354-.0261-.066-.0407-.099-.0476a.1978.1978 0 0 0-.0972.003.0373.0373 0 0 1 .0209.0112c.0152.009.0348.013.0632.0162.0147.0017.0102.012-.0126.0242a.0588.0588 0 0 1-.055.0248c-.0326.0215-.0442.0085-.055-.0056a.0975.0975 0 0 1-.008.0261.02.02 0 0 1-.0004.0142c.0052.008.0078.0159.006.0245a.0206.0206 0 0 0 .0073.0131.0338.0338 0 0 1 .012.022c0 .0057.0032.0105.0078.0147.0066.0055.0134.0103.02.0184.0197.0072.0287.0222.032.0417.0148.0049.021.0156.024.0284.0084.0036.0161.0078.0205.0153.0304.0001.06.0001.0877.003.026.0028.0472.019.0661.04a.103.103 0 0 0 .039-.0004.1375.1375 0 0 1 .0439-.012c.026-.0021.052-.0035.0768.0024.0169.004.03.013.0407.0252.0155.0176.0393.0152.0597.0065.0277-.0117.0507-.0114.079.001a.0777.0777 0 0 1 .0362-.0056.0425.0425 0 0 1 .0326-.0143c.0184-.0006.0318.0023.0283.0259-.001.0064-.0047.0125-.0096.0147-.0084.0183-.0245.0237-.045.022a.0417.0417 0 0 1-.0156.0278c.0094.029.0004.0406-.021.0402-.0045.0084-.0113.0136-.0227.012a.046.046 0 0 1-.029.017c.0012.0077.0044.0112.0098.0193.0146.0222-.0073.031-.0274.0314a.0946.0946 0 0 1 .004.0438c.0204.0124.0232.0255.0043.0384.0138.0241.0084.0419-.0175.0548-.0004.0136-.0017.0271-.0107.0347-.0062.0052-.015.0062-.0092.016.0105.0174.0082.0393-.0073.04-.0033-.0004-.0063.0001-.0066.0054 0 .0018-.0016.0036-.0046.0054a.3215.3215 0 0 0-.0522.0347c-.0023.0016-.0047.0027-.007.0006-.0118.0254-.0336.0512-.0577.0772a.0487.0487 0 0 1-.0324.0388.0137.0137 0 0 1-.0107.011c.01.011.0138.0218.0041.0324-.012.013-.0276.0257-.0433.0297-.0335.0086-.0544.007-.0678-.0058-.0119-.0113-.0072-.0198.0003-.0234-.0206.0017-.0248-.0092-.0243-.0238.0012-.0072.0037-.0063.011-.006.0112.0003.0213-.0058.0319-.0093a.0624.0624 0 0 1 .016-.018c.0038-.0234.0186-.0363.0386-.044.0162-.0061.0317-.0218.0467-.042l.0278-.0478a.0412.0412 0 0 1-.0084-.0253.0493.0493 0 0 1-.0186-.0173c-.0145-.001-.0205-.0075-.0227-.0166a.0345.0345 0 0 1-.0109-.0014c-.007.0045-.0143.0086-.0232.0082a.2298.2298 0 0 1-.0363.0303c-.0044.012-.013.0168-.0235.0183-.0299.0036-.0477.0408-.0641.056-.0067.0048-.0108.0135-.0137.024-.0014.0195-.0048.0349-.0156.0352-.0096-.0004-.011-.0014-.0114-.0025a.0395.0395 0 0 0-.0126.0006c.008.0088.0094.02.002.0298-.0075.0096-.0182.0126-.0284.0133a.1192.1192 0 0 1-.0545-.007c-.0152-.0062-.017-.0153-.0165-.0241-.011-.0052-.0132-.0104-.012-.0156.0015-.0066.0075-.01.0152-.0079a.0816.0816 0 0 1 .0199-.0065c.0193-.0208.0391-.0386.0609-.047a.099.099 0 0 1 .0227-.0204c.0025-.0186.0147-.0333.0297-.047a.0674.0674 0 0 1 .0074-.0202c-.0009-.004.0002-.006.0003-.0097-.006-.0113-.0097-.025-.0052-.0362a.0438.0438 0 0 1-.0017-.018c-.0358.0213-.0469.014-.051-.0033-.0131.011-.0253.0162-.0341.0004-.0127.0038-.0255.008-.0382.003a.0866.0866 0 0 1-.0263.0068.1018.1018 0 0 1-.016.023.0936.0936 0 0 1-.0164.0483.309.309 0 0 1-.0232.0516.0328.0328 0 0 1-.0036.0166c.0028.0199-.0039.0295-.0148.0344a.0803.0803 0 0 1-.0139.024l-.0008.0079c.0043.0117.005.0233-.0068.035a.3407.3407 0 0 1-.0299.0173c-.012.0058-.023.003-.033-.0006-.0176-.0063-.0163-.0124-.014-.0184a.0215.0215 0 0 1-.0174-.0003c-.0042-.0027-.007-.0054-.0112-.0082-.0038-.0069-.0051-.0131.0041-.018a.0795.0795 0 0 0 .0287-.0183c.0032-.0071.0072-.0125.0129-.014.0055-.0129.0123-.0217.0215-.024.0068-.016.014-.0338.0227-.049.003-.0047.0052-.0096.0038-.0148-.0002-.0044.0002-.0085.0038-.011.002-.0017.0057-.0033.001-.0057a.0453.0453 0 0 1 .0055-.0385c.0094-.014.0198-.048.01-.0647a.0948.0948 0 0 1-.0025-.0287c-.0034-.0002-.006.0003-.0094-.002-.0075-.0047-.0139-.0003-.0196.0081-.0042.0106-.0084.02-.0126.02-.004.0273-.0174.0485-.0313.054a.0973.0973 0 0 0-.0036.0376c.0014.0137 0 .023-.0063.0246-.007.0017-.0134.0058-.0175.017a.0341.0341 0 0 0-.0024.0111c.0096.01.0067.0224-.0025.0315-.0209.0206-.0468.0176-.0742.0095-.0198-.0078-.0247-.016-.0227-.0245-.0281-.0024-.0225-.024.0008-.0305.025-.007.0453-.023.062-.046.0015-.027.0078-.0456.0224-.0485a.127.127 0 0 1 .0136-.0459.066.066 0 0 0 .0093-.0442c-.0156-.0097-.0162-.0198-.002-.03.0048-.0028.0043-.0056-.0016-.0085-.0095-.001-.0083-.01-.0076-.0186-.0004-.0044-.0027-.0067-.007-.0067-.021-.0031-.0157-.0117-.0067-.021.0038-.0043.0063-.0106.0024-.0132-.0033-.002-.0055-.0092-.0062-.0155-.0129-.0097-.0073-.0197 0-.0293a.0368.0368 0 0 1-.0117-.0256c-.024-.001-.0328-.0132-.0199-.031a.1144.1144 0 0 1 .021-.0215c.0055-.0089.0108-.0178.0082-.0267-.0068-.0175.0151-.0307.034-.0443a.0293.0293 0 0 1-.0042-.0136c-.0106-.0102-.0079-.0197.0038-.0287a.0355.0355 0 0 1-.0043-.014c-.0263.0053-.0262-.0104-.014-.0357-.0152-.0088-.011-.0243.0167-.048a.0318.0318 0 0 1 .003-.0126.0639.0639 0 0 0-.0333.0101c-.0105.0069-.021.006-.0314.0017a.0499.0499 0 0 0-.014-.0137.0207.0207 0 0 1-.0073-.021c-.031.0017-.0369-.0212-.0183-.0347a.0572.0572 0 0 0 .0208-.0262c.0083-.0212.0261-.0357.0434-.0505 0-.0061.0013-.0122.0032-.0184a.0517.0517 0 0 0-.0245-.0095.0392.0392 0 0 0-.0191-.0213c-.0058-.0034-.0077-.0067-.0042-.0145-.0164-.0147-.0123-.0236-.008-.032l-.0002-.0002z"/><path fill="#F7DB17" fill-rule="nonzero" d="M16.9653 3.7643c.0014-.0025.0048-.0056.0059-.0054l.0006-.0001a.2006.2006 0 0 1 .0116-.0193.1327.1327 0 0 1 .0166-.02c.0007-.0006.0013-.0012.0025 0 .0012.0013.0005.0018 0 .0025a.1303.1303 0 0 0-.0162.0194.194.194 0 0 0-.0114.019c.0012.0015.0017.004.0011.0057.0012.0108.0026.017.0074.0232a.0067.0067 0 0 1 .0017-.0012.0458.0458 0 0 1 .008-.0128.055.055 0 0 1 .015-.0117.0597.0597 0 0 0 .0165-.0214c.0003-.0008.0006-.0016.0023-.001.0016.0007.0012.0015.001.0023a.053.053 0 0 1-.0068.0117.0685.0685 0 0 1-.0109.0111l-.0003.0002a.0529.0529 0 0 0-.0142.011.0416.0416 0 0 0-.007.0109c.0025.0018.0036.0068.0012.01-.0072.0103-.0157.0164-.0023.0252a.0212.0212 0 0 0 .0063.017c.0031.0033.0028.0146-.0048.0227-.007.0072-.0016.0053.0057.0062l.0017.0006V3.87a.085.085 0 0 1 .0093-.0142.1447.1447 0 0 1 .0109-.0121.067.067 0 0 0 .0125-.0167.0422.0422 0 0 0 .005-.0169c0-.0009 0-.0017.0018-.0016.0018.0001.0017.001.0016.0018a.047.047 0 0 1-.0054.0184.0702.0702 0 0 1-.013.0174.126.126 0 0 0-.0106.0118.0866.0866 0 0 0-.009.0137c.0089.0053.006.015.0074.0238a.0156.0156 0 0 1 .0046.0013.0017.0017 0 0 1 .0003-.0005l.0052-.0082.0082-.013c.0005-.0008.001-.0015.0024-.0006.0015.001.001.0017.0005.0024l-.0082.013-.0052.0082-.0002.0004c.0054.0044.0058.0125-.001.0187-.0131.01-.0094.013.003.0209a.0769.0769 0 0 1-.001.0308l.0002.0009.0008.0098.0008.0098c0 .0009.0002.0018-.0016.002-.0017 0-.0018-.0008-.0019-.0017l-.0008-.0098-.0001-.0026-.002.0048c-.009.0193-.018.0351-.02.0569-.0213.005-.0182.026-.0193.0444-.0168.0226-.0362.0407-.0631.0497-.0051.0017-.0173.0047-.0185.011-.0002.0024.0082.0073.0136.0044.0148-.0142.0222-.0063.0052.0082-.0014.0028-.0003.0059.0027.0085.0154.0138.0535.0183.0709.0073.0129-.008.0196-.0169.0084-.0291.0007-.0174.0075-.0344.0258-.0393.0021-.004.0015-.0113.0005-.0153a.115.115 0 0 1 .0044-.043c.0006-.0019.002-.0034.005-.0042.007-.0014.0203-.0215.0244-.0409.001-.0042.0017-.0085.0025-.0129.0011-.0067.0037-.0079.0071-.0039.0032-.0043.0032-.007.0051-.012.0071-.0103.0174-.0186.0294-.0127a.1012.1012 0 0 1-.002-.0621c.0004-.0017.001-.0032.0036-.0029l.0103-.0245.0105-.0247c.0003-.0008.0006-.0016.0022-.001.0016.0006.0012.0015.001.0023a7.8183 7.8183 0 0 0-.0105.0247l-.0103.0245c.0015.0011.001.0025.0005.004a.0907.0907 0 0 0 .0045.0632c.0004.0008.0009.0017.0007.0026.0057.0033.0056.004.0054.0116a.0834.0834 0 0 0 .002.019c.0113.0208-.0004.0557-.0114.0731a.0362.0362 0 0 0-.0045.0279c.0068.0065.0024.0133-.0036.0179-.0005.0016 0 .0034 0 .005a.028.028 0 0 1-.0053.018c-.0093.0167-.0164.0345-.0238.052-.0134.0037-.0162.0115-.0216.024-.0078.0022-.0086.0045-.0119.0117a.0903.0903 0 0 1-.0291.0198c-.0096.0043-.0004.0085.0064.013.006.0046.014-.0052.019-.0126.0054-.0083.011-.0058.0074.0006a.0648.0648 0 0 0-.0072.0224c-.002.0057.0196.01.0233.0102.0132.0006.0298-.0122.0402-.0188.0086-.0088.0072-.0164.0034-.027l.0001-.0008a.0657.0657 0 0 1-.0159-.0016.1144.1144 0 0 1-.0186-.0061c-.0008-.0003-.0016-.0007-.001-.0023.0007-.0016.0015-.0013.0023-.001a.105.105 0 0 0 .0181.006.0627.0627 0 0 0 .0156.0015l.0009-.0083a.09.09 0 0 0 .0153-.0269c.0146-.0069.0147-.014.0127-.0296a.0296.0296 0 0 0 .0037-.0172.3361.3361 0 0 0 .0241-.0533.0672.0672 0 0 0 .0157-.048c.001-.0071.0036-.0111.0089-.0109a.1273.1273 0 0 0 .0102-.0168.0153.0153 0 0 0 .002.0001.0562.0562 0 0 1 .0035-.0122.0266.0266 0 0 1 .0046-.0075.0306.0306 0 0 0 .0024-.0152.0368.0368 0 0 0-.0051-.0147.0164.0164 0 0 1-.0039-.0062c-.0007-.0025-.0002-.0049.0022-.0073.0006-.0007.0013-.0012.0025 0 .0012.0012.0006.0018 0 .0024-.0015.0013-.0017.0026-.0013.0039a.0152.0152 0 0 0 .0032.005l.0002.0003a.0405.0405 0 0 1 .0057.0163.0339.0339 0 0 1-.0028.0172l-.0003.0005a.024.024 0 0 0-.0043.0067.0563.0563 0 0 0-.0033.0103l-.0001.0006a.051.051 0 0 0 .0231-.0064l.0005-.0005a.048.048 0 0 0 .0116-.0142.063.063 0 0 0 .0066-.0192c.0002-.001.0003-.0017.002-.0015.0017.0004.0016.0012.0015.002a.0674.0674 0 0 1-.007.0203.0523.0523 0 0 1-.009.0122c.0126.0038.0236 0 .0356-.0037a.1453.1453 0 0 1 .0003-.0398.0533.0533 0 0 1 .0104-.0246c.0005-.0007.001-.0014.0024-.0003.0013.001.0009.0017.0003.0024a.0496.0496 0 0 0-.0096.023.139.139 0 0 0-.0004.0383l.0006-.0001c.005.0086.0078.0148.0181.008.0038-.0024.0077-.005.011-.0083.001-.0012.0007-.002.0016-.003a.4416.4416 0 0 1 .0297-.029.2159.2159 0 0 1 .0299-.0223c.0007-.0005.0015-.001.0024.0005.0008.0015.0001.002-.0006.0024a.215.215 0 0 0-.0294.022.405.405 0 0 0-.0253.0244.0401.0401 0 0 1 .001.0081c.0008.0117.003.0187.0196.0123a.0848.0848 0 0 0 .0189-.009.0442.0442 0 0 1 .0102-.0053.2663.2663 0 0 1 .0162-.0119.1904.1904 0 0 1 .016-.0096.096.096 0 0 1 .0043-.0184.1378.1378 0 0 1 .0246-.0425l.0006-.0005a.0754.0754 0 0 0 .0359-.0391c.0002-.0008.0005-.0016.0022-.001.0016.0007.0013.0015.001.0023a.0819.0819 0 0 1-.0372.0407.1334.1334 0 0 0-.0237.0412.0887.0887 0 0 0-.004.0158c.0004 0 .0007.0004.001.001.0008.0016 0 .002-.0007.0023a.0032.0032 0 0 0-.0007.0004.0936.0936 0 0 0 .0008.0268c.0073-.0002.0148-.0043.0223-.0104a.2223.2223 0 0 0 .0241-.0245c.0001-.0002.0001-.0004.0004-.0005a.0567.0567 0 0 1 .0078-.0168.0316.0316 0 0 1 .0132-.0109c.0008-.0003.0016-.0007.0023.001.0007.0015 0 .0019-.001.0023a.0287.0287 0 0 0-.0118.0097.0554.0554 0 0 0-.0075.0162c0 .0124-.0002.0247-.0003.037l.0013-.001a.1127.1127 0 0 1 .0308-.0164c.0012-.0004.0025.0007.0023.002a.0983.0983 0 0 0-.0009.032.0458.0458 0 0 0 .0145.0263.0927.0927 0 0 1 .0156-.0205.1352.1352 0 0 1 .0104-.0095.3157.3157 0 0 0 .0075-.007l.0076-.007c.0007-.0007.0013-.0013.0025 0 .0012.0013.0005.0019-.0001.0025l-.0076.007-.0076.007a.1037.1037 0 0 0-.0094.0085l.0004.0096.0002.0052a.0575.0575 0 0 0 .019.002c.0025.0145.0037.0168.0164.0171a.1081.1081 0 0 1 .0005-.0152.0672.0672 0 0 1 .0038-.0164c.0003-.0008.0006-.0016.0022-.001.0017.0006.0014.0014.001.0021a.063.063 0 0 0-.0036.0156.1033.1033 0 0 0-.0005.015h.001a.038.038 0 0 0 .0219.0201.0575.0575 0 0 0 .0066-.0142.0456.0456 0 0 0 .0019-.0158c0-.001 0-.0018.0016-.0019.0017 0 .0018.0007.0019.0016a.0469.0469 0 0 1-.002.017.0632.0632 0 0 1-.0084.017c-.0003.0005-.0006.001-.0012.001a.0416.0416 0 0 0 .0037.0151.1074.1074 0 0 1 .0051-.01.0571.0571 0 0 1 .0093-.0123c.0006-.0006.0011-.0012.0024 0 .0012.0012.0006.0018 0 .0025a.0557.0557 0 0 0-.0087.0116.1328.1328 0 0 0-.006.012.0735.0735 0 0 0 .0044.0065c-.0203.0347-.042.0827-.0818.0985-.0206.0082-.0296.0187-.0337.0407a.0709.0709 0 0 0-.0184.0205c-.0134.0045-.0254.0112-.04.0106 0 .0094.0032.0135.0126.0135.0179-.009.022-.0106.0235-.0094.0022.002-.0025.0148-.0174.0252-.0023.0015-.0022.0023-.0008.0047.0125.0197.0454.0126.0631.008.0127-.0033.0355-.0183.0418-.031.0025-.0058-.003-.0133-.0086-.0195-.0253.0039-.0204-.0204.0013-.0103.0073-.0022.0083-.0022.0103-.0104.0194-.0075.0274-.0156.0319-.0364.0195-.021.039-.0427.0531-.0678.0039-.0048.0062-.0132.005-.0175a.036.036 0 0 0 .0067-.014.0549.0549 0 0 0 .0019-.0152c0-.0008 0-.0017.0017-.0018.0017 0 .0017.0008.0018.0017a.0587.0587 0 0 1-.002.016.1493.1493 0 0 1-.004.0123c.0012.0032.0019.0053.0046.0046.017-.0136.034-.0232.0522-.0345.0013-.0077.0063-.0115.014-.0118.003 0 .0041-.001.0052-.0037.0043-.0107-.001-.018-.0062-.0269-.0047-.0132.0037-.0164.0122-.0227.0088-.0065.0082-.024.0085-.034a.0874.0874 0 0 0-.004-.0158c-.0003-.0007-.0005-.0016.001-.0021.0017-.0006.002.0002.0023.001a.0991.0991 0 0 1 .0031.0111l.001.0042c.0084-.0043.0172-.0094.0205-.0188.003-.0104-.0027-.0203-.0078-.0291a.3188.3188 0 0 1-.0198.0085c-.0008.0003-.0016.0006-.0022-.001-.0007-.0015.0001-.002.001-.0022a.3406.3406 0 0 0 .0228-.01.043.043 0 0 0 .0105-.0088c.006-.0088-.0103-.0167-.016-.0203v-.0007l-.0245-.0226c-.0006-.0005-.0013-.0012 0-.0024.0011-.0013.0017-.0007.0024-.0001l.0227.0209a.0925.0925 0 0 0-.0026-.038c-.0012-.0041-.0027-.0082-.0042-.0122a.0372.0372 0 0 1-.016-.0133.0346.0346 0 0 1-.0052-.0165c0-.0008 0-.0017.0016-.0019.0018 0 .0018.0008.002.0017a.0305.0305 0 0 0 .0046.0148.0342.0342 0 0 0 .0137.0117c.007.0036.0214.0018.0297-.0023.0117-.0065-.0035-.0198-.007-.0276-.0026-.0056-.0032-.0114-.0043-.0174l.0031-.0005a.0348.0348 0 0 0-.0046-.005.02.02 0 0 0-.0063-.0037c-.0008-.0003-.0016-.0006-.001-.0022.0006-.0017.0014-.0014.0022-.001a.0237.0237 0 0 1 .0074.0044.0407.0407 0 0 1 .0062.0068.0512.0512 0 0 0 .0034-.0006c.0115-.0023.0178-.0087.0247-.017a.1199.1199 0 0 0-.0125-.0128.3363.3363 0 0 0-.0142-.012c-.0006-.0005-.0013-.0011-.0002-.0024.001-.0014.0017-.0008.0024-.0003a.3071.3071 0 0 1 .0144.0122.134.134 0 0 1 .0131.0137c.0004.0004.0008.0009.0005.0015.0105.001.0122-.0012.0175-.0106a.051.051 0 0 0-.0063-.0136.0834.0834 0 0 0-.0105-.0129c-.0006-.0006-.0012-.0013 0-.0024.0013-.0012.0019-.0006.0025 0a.0902.0902 0 0 1 .0109.0134.0511.0511 0 0 1 .0067.0144c.0049.0001.0102.0004.0143-.0022.0092-.0054.0015-.025-.0009-.0326a.0014.0014 0 0 0 .0004-.0003.092.092 0 0 0-.0036-.0023L17.8 3.7534c-.0007-.0005-.0014-.001-.0006-.0024.001-.0015.0017-.001.0024-.0005l.0065.004.0047.003.0021-.0016c.0068-.0054.0091-.0125.0112-.0199.0031-.0114.0038-.0063.017-.0083.0143-.0022.022-.0038.0305-.0205.0045-.0022.0067-.0041.0075-.0096.0015-.0098.0007-.0149-.0106-.0158-.0158-.0012-.0255.002-.0361.0124l.0042.0064c.0005.0007.001.0015-.0004.0025-.0015.001-.002.0002-.0024-.0005l-.004-.0062a.0818.0818 0 0 0-.0394.006l-.004-.0017a.0623.0623 0 0 1 .0067.011.0382.0382 0 0 1 .0037.0144c0 .001 0 .0018-.0017.0019-.0017 0-.0017-.0008-.0018-.0017a.0345.0345 0 0 0-.0033-.0132.0614.0614 0 0 0-.01-.0148.0873.0873 0 0 0-.032-.0059.3197.3197 0 0 0 .0052.0051l.0068.0067c.0007.0006.0013.0012 0 .0024-.0012.0013-.0018.0007-.0024 0a.5446.5446 0 0 1-.0136-.0132l-.0006-.0007a.0919.0919 0 0 0-.0284.0073.0954.0954 0 0 1-.0193.006.0637.0637 0 0 1 .0119.0155.0753.0753 0 0 1 .0075.02c.0001.0008.0004.0016-.0013.002-.0016.0004-.0019-.0005-.002-.0012a.0716.0716 0 0 0-.0072-.0192.063.063 0 0 0-.0118-.0151c-.0005-.0004-.0009-.0009-.0007-.0015a.0593.0593 0 0 1-.0175 0l.007.0117c.0004.0008.0007.0015-.0008.0023-.0016.0007-.002 0-.0023-.0008l-.0065-.0136a.0482.0482 0 0 1-.0158-.0063.1614.1614 0 0 1 .004.0201.2711.2711 0 0 1 .0022.03c0 .0009 0 .0018-.0017.0018s-.0017-.001-.0017-.0017a.2616.2616 0 0 0-.0022-.0296.1566.1566 0 0 0-.005-.0237.0554.0554 0 0 1-.0071-.0067.07.07 0 0 0-.019-.0147.0314.0314 0 0 1-.0069.0242c-.0006.0007-.001.0014-.0025.0003-.0013-.001-.0008-.0017-.0003-.0024a.0282.0282 0 0 0 .0059-.024.1043.1043 0 0 0-.035-.0085.182.182 0 0 1 .0182.029.0272.0272 0 0 1 .009.0144.0771.0771 0 0 1 .002.0167c0 .001 0 .0018-.0016.0019-.0018 0-.0018-.0008-.0019-.0017a.0695.0695 0 0 0-.0018-.016.0238.0238 0 0 0-.008-.0127.1537.1537 0 0 0-.0204-.0316l-.0002-.0001c-.0042-.0003-.0083-.0003-.0125-.0003a.0387.0387 0 0 1 .002.003.0192.0192 0 0 1 .0029.0082c0 .0008.0001.0017-.0016.0019-.0018.0001-.0018-.0007-.002-.0016a.0166.0166 0 0 0-.0023-.0068.0225.0225 0 0 0-.0037-.0046.4398.4398 0 0 0-.0256.0017.1704.1704 0 0 1 .021.0345c.006.0132.01.0268.0123.0408.0002.0009.0004.0018-.0014.002-.0016.0003-.0018-.0006-.002-.0014a.1597.1597 0 0 0-.034-.0756h-.0013a.1145.1145 0 0 0-.02.004.0714.0714 0 0 1 .015.0127c.0006.0007.0012.0014-.0002.0025-.0013.001-.0019.0005-.0024-.0003a.0524.0524 0 0 0-.007-.007.08.08 0 0 0-.01-.0067.1592.1592 0 0 0-.0102.0037l-.0056.002a.1303.1303 0 0 1 .0348.0353c.0005.0007.001.0014-.0004.0024-.0015.001-.002.0002-.0025-.0005a.1265.1265 0 0 0-.0174-.0209.1556.1556 0 0 0-.0188-.0152.0856.0856 0 0 1-.0215.0017.1919.1919 0 0 1 .0112.0266.122.122 0 0 1 .006.0292c.0002.0009.0002.0017-.0015.0019-.0017.0001-.0018-.0007-.0019-.0016a.1192.1192 0 0 0-.006-.0284.2074.2074 0 0 0-.0119-.0278.2584.2584 0 0 1-.0131-.0014.3085.3085 0 0 1 .012.0552c0 .001.0001.0018-.0015.002-.0018.0003-.0019-.0006-.002-.0015a.3082.3082 0 0 0-.0127-.0572c-.0124-.0135-.0263-.0267-.0432-.0337a.058.058 0 0 1 .0125.0374c0 .001 0 .0018-.0017.0017-.0018 0-.0018-.001-.0017-.0017a.0544.0544 0 0 0-.0157-.0398.065.065 0 0 0-.012-.0024.5207.5207 0 0 0-.0333-.0022c.0086.0077.0153.0148.0147.0234-.0001.0009-.0002.0018-.002.0016-.0017-.0001-.0016-.001-.0015-.0019.0005-.008-.0074-.0152-.0166-.0234l-.02-.0004a.083.083 0 0 1 .0093.0112.0454.0454 0 0 1 .0071.0151v.0003a.0468.0468 0 0 0 .0061.0204.033.033 0 0 0 .015.013c.0008.0004.0016.0007.0009.0023-.0007.0016-.0015.0012-.0023.0009a.0365.0365 0 0 1-.0165-.0144.0501.0501 0 0 1-.0066-.0217.0418.0418 0 0 0-.0065-.0139.0892.0892 0 0 0-.0115-.0132h-.0222a.158.158 0 0 1 .0068.0269.2584.2584 0 0 1 .0027.0343c0 .0008 0 .0017-.0017.0017-.0018 0-.0018-.0009-.0018-.0016a.238.238 0 0 0-.0026-.0339.1491.1491 0 0 0-.007-.0274h-.002a.0334.0334 0 0 0-.0163-.0147l-.0004.0023a.0201.0201 0 0 1-.0032.0071c-.0004.0008-.001.0015-.0024.0005-.0014-.001-.001-.0016-.0005-.0023a.0165.0165 0 0 0 .003-.009l-.0035-.0016c-.0036-.0148-.007-.021-.0188-.026a.079.079 0 0 1-.001.0127.0446.0446 0 0 1-.006.016c-.0005.0007-.001.0015-.0024.0006-.0015-.001-.001-.0017-.0005-.0024a.0406.0406 0 0 0 .0054-.0148.0784.0784 0 0 0 .001-.0135l-.002-.0007c-.0032-.0207-.007-.0324-.0285-.0406a.0454.0454 0 0 1-.0028.0225c-.0004.0008-.0007.0017-.0023.001-.0015-.0006-.0012-.0014-.001-.0021a.0429.0429 0 0 0 .0028-.0133.0633.0633 0 0 0-.0007-.0123c-.0045-.0052-.0111-.0101-.0167-.0157a.0787.0787 0 0 1-.003.023.102.102 0 0 1-.0129.0277c-.0005.0007-.001.0015-.0024.0006-.0015-.001-.001-.0017-.0005-.0024a.1.1 0 0 0 .0125-.0268.0733.0733 0 0 0 .0027-.0258.0346.0346 0 0 1-.006-.0087.0155.0155 0 0 1-.0004.0011l-.0026.0057c-.0004.0008-.0007.0016-.0023.001-.0015-.0007-.0012-.0015-.0009-.0023l.0025-.0057.002-.0046a.0326.0326 0 0 1-.0004-.003.0251.0251 0 0 0-.009-.016l-.0002-.0001a.0503.0503 0 0 1-.0083.0159c-.0006.0007-.001.0013-.0025.0003-.0013-.0011-.0008-.0018-.0003-.0025a.0402.0402 0 0 0 .0083-.0166.032.032 0 0 1-.005-.0082.0265.0265 0 0 1-.0034.0057.0388.0388 0 0 1-.0065.0066c-.0006.0005-.0013.001-.0024-.0003-.0011-.0013-.0004-.0019.0002-.0024a.0342.0342 0 0 0 .0059-.006.0216.0216 0 0 0 .0032-.0058c.0011-.003.0015-.001.0005-.006.0018-.0099-.0018-.0157-.007-.0238a.0024.0024 0 0 1 .0003-.0007.0297.0297 0 0 0-.0105.0028.0955.0955 0 0 0-.0152.0088c-.0007.0005-.0014.001-.0024-.0004-.001-.0015-.0003-.002.0005-.0024a.1053.1053 0 0 1 .0157-.009.03.03 0 0 1 .0133-.0032.0123.0123 0 0 0 .0004-.0075.1377.1377 0 0 1-.0383.0092.0546.0546 0 0 1-.0253-.0039c-.0008-.0004-.0016-.0007-.0009-.0023.0007-.0015.0015-.0012.0023-.001a.0501.0501 0 0 0 .0237.0037.1337.1337 0 0 0 .0377-.0091c0-.0002 0-.0004-.0002-.0005a.1154.1154 0 0 0 .0068-.0187.0568.0568 0 0 1-.0167.0013h-.0011c-.0009 0-.0017 0-.0017-.0017 0-.0018.0009-.0018.0017-.0018h.0011c.0058.0001.0117.0003.0175-.0016l.001-.0062c.0008-.0069.009-.0085.0146-.0024.0047.005.009.0105.0137.0127.0095.0045.0202.0004.0278-.0057l-.007-.0023c-.0009-.0002-.0016-.0006-.0011-.0021.0006-.0017.0013-.0015.0021-.0011l.009.0029a.0514.0514 0 0 0 .002-.0022c.0197.0017.0324-.0024.045-.015a.2309.2309 0 0 1-.0297-.001.0724.0724 0 0 1-.0231-.006c-.0008-.0003-.0016-.0007-.0008-.0022.0008-.0016.0016-.0012.0023-.0008a.0677.0677 0 0 0 .022.0055.2326.2326 0 0 0 .0325.001h.0002l.0034-.004a.0383.0383 0 0 0 .0146-.0091.1785.1785 0 0 1-.065-.0176.0447.0447 0 0 0-.0226-.0116.075.075 0 0 0-.0447.0091c-.0036-.0033-.0064-.0063-.0098-.0095-.0052-.0007-.0101-.0034-.0154-.004-.007-.0009-.0142.0005-.0211-.0003-.0009 0-.0018-.0002-.0015-.002.0001-.0016.001-.0016.0019-.0014.007.0008.0142-.0006.0211.0002.0068.0008.0132.0037.0199.0045.0224-.0084.041-.013.057-.0124a.1893.1893 0 0 1 .0576-.0072l-.0007-.0007c-.0023-.0023-.0012-.0034 0-.0045.0105-.0107.013-.0205.0095-.0294-.0035-.0091-.013-.0177-.0261-.0256-.014.0016-.0276-.0022-.0425-.0006a.1327.1327 0 0 0-.0275.0061.045.045 0 0 1 .0194.0134.068.068 0 0 1 .014.032c.0002.0015.0005.0032-.0027.0037-.0031.0007-.0035-.001-.0038-.0026a.0618.0618 0 0 0-.0125-.0289c-.0062-.009-.0205-.0124-.025-.0142a.2899.2899 0 0 0-.0424.0065.0662.0662 0 0 0-.0246.0109.043.043 0 0 1 .0284.0027.0407.0407 0 0 1 .0197.0244c.0006.0015.001.003-.002.004-.0031.0011-.0037-.0004-.0041-.002a.0338.0338 0 0 0-.0165-.0207c-.0136-.0068-.0418-.0008-.0537.008a.141.141 0 0 0-.0208.0198c-.0013.0015-.0026.0029-.0056.0004-.0029-.0027-.0016-.004-.0003-.0055a.1452.1452 0 0 1 .022-.0209.0623.0623 0 0 1 .0225-.011.0653.0653 0 0 1 .0331-.0175.2955.2955 0 0 1 .0436-.0067.0347.0347 0 0 0-.0169-.0174.0474.0474 0 0 0-.0241-.0028.2001.2001 0 0 0-.0505.0273l.0042.0001c.0047.0003.0089-.0004.0127.0011.0015.0006.0031.0011.002.0042-.0013.0037-.0115.0014-.015.0012a.045.045 0 0 0-.0134.0012c-.0007.0002-.0015.0004-.0022.0002-.0192.0119-.033.0239-.049.0374l-.0026.001c-.0142-.0006-.024.0013-.0299.0058-.0053.004-.0057.0103-.0046.0188-.0025.008-.0056.0168-.0064.0261-.0166.0143-.0352.0286-.0438.0494a.0474.0474 0 0 1-.0092.0163.018.018 0 0 1 .0083.0033.0131.0131 0 0 1 .0022.002.0768.0768 0 0 1 .0018-.0105.0441.0441 0 0 1 .0052-.013c.0005-.0007.001-.0014.0024-.0005.0015.001.001.0017.0005.0024a.0386.0386 0 0 0-.0048.012.0827.0827 0 0 0-.0022.017c0 .0017-.0032.0019-.0035.0001a.0096.0096 0 0 0-.0037-.0067.0174.0174 0 0 0-.009-.0028.1048.1048 0 0 1-.0116.0105c-.0033.0027-.0065.0057-.0072.01-.0005.0076.0089.009.0177.0095.0201.0012.0041.0126.0152.0226a.0569.0569 0 0 1 .0141.0134c.0077.0028.0124.0021.0176-.0002.001-.0137-.0001-.0207.0059-.0207h.0006a.0256.0256 0 0 1 .006-.0128c.0005-.0007.0011-.0014.0024-.0003.0014.0011.0008.0018.0003.0025a.025.025 0 0 0-.0055.0125c.001.002.0008.006.0007.0132a.0801.0801 0 0 1 .0336-.0076c.0219-.0255.0312-.019.012-.0004l-.003.0058a.0469.0469 0 0 0-.0062.02c-.0056.005-.0331.0276-.0229.036.0072-.001.0117-.0008.009.0046-.0034.0072-.0137.0221-.0103.0303.0013.003.0057.0027.01.0017l.001-.0009a.1989.1989 0 0 0 .0219-.0204.1267.1267 0 0 0 .0188-.0264c.0008-.0014.0015-.0028.0035-.0023a.3022.3022 0 0 1 .0075-.0236.418.418 0 0 1 .0098-.0246c.0006-.0012.0022-.0014.003-.0003a.0376.0376 0 0 0 .0089.0095.013.013 0 0 0 .0077.0028.014.014 0 0 0 .0077-.0026.037.037 0 0 0 .0087-.009c.0004-.0008.001-.0015.0024-.0005.0014.001.001.0017.0004.0025a.0393.0393 0 0 1-.0095.0099.0163.0163 0 0 1-.0097.0032.0168.0168 0 0 1-.0097-.0035.0378.0378 0 0 1-.008-.008.4068.4068 0 0 0-.0161.0456c.0018.0015.001.003.0003.0044a.1379.1379 0 0 1-.02.028.1949.1949 0 0 1-.0187.0178.0594.0594 0 0 0 .005.017.3796.3796 0 0 0 .033-.0314.1992.1992 0 0 0 .025-.0336c.0004-.0007.0008-.0015.0023-.0006.0015.0009.001.0016.0007.0024a.189.189 0 0 1-.0117.0176c.0008.0012.0001.0016-.0005.0022-.0013.001-.002.0051-.0023.0104a.1312.1312 0 0 0 .0008.0225c0 .0009.0002.0018-.0015.002-.0017.0002-.0018-.0006-.002-.0015-.0008-.0067-.0012-.0159-.0008-.0231a.048.048 0 0 1 .0005-.0053.3712.3712 0 0 1-.0415.0412l-.0004.0003.0012.002c-.0106.0076-.0192.0103-.0074.0205l.0119-.0085.0126-.009c.0007-.0006.0014-.0011.0024.0003.001.0014.0004.0019-.0004.0025l-.0127.009-.0122.0088a.0208.0208 0 0 0 .003.012.0176.0176 0 0 1 .0026-.0002l.0265-.0192c.0007-.0006.0015-.001.0025.0004s.0003.0019-.0004.0024c-.0085.0063-.0172.0125-.0258.0187a.0238.0238 0 0 1-.003.004c-.0087.0062-.039.025-.0358.0379a.1164.1164 0 0 0 .0215-.008.0806.0806 0 0 0 .0208-.0155c.0006-.0007.0012-.0012.0025 0 .0011.0012.0006.0018 0 .0024a.0852.0852 0 0 1-.0217.016v.0004l-.0001.0035-.0002.0036c0 .0008 0 .0017-.0018.0016-.0018 0-.0017-.001-.0017-.0018l.0002-.0035v-.002a.1207.1207 0 0 1-.0187.0067c.0027.0122-.0037.0227-.0103.0333-.0037.003-.034.0275-.0214.0349a.0327.0327 0 0 0 .011.0028l.0004-.0003z"/></g><g><path fill="#0093DD" fill-rule="nonzero" d="M18.9645 5.2158l.6913-1.5668-.51-.8234-.9093.3367-.421 1.656a7.3117 7.3117 0 0 1 1.149.3976z"/><path fill="#FFF" fill-rule="nonzero" d="M18.083 3.7665a8.3892 8.3892 0 0 1 1.3194.4567l-.2667.6048a7.7305 7.7305 0 0 0-1.2156-.4207l.1628-.6408z"/><path fill="red" fill-rule="nonzero" d="M19.1786 4.7309l.1782-.4039a8.2839 8.2839 0 0 0-1.3017-.4505l-.105.4131a7.8619 7.8619 0 0 1 1.2346.4274l-.0061.0139z"/><path fill="#000" fill-rule="nonzero" d="M18.1834 4.1911c.012-.0075.0247-.0056.0374-.0036a.0912.0912 0 0 1 .0353-.0047.0646.0646 0 0 1 .0192-.0065c.0038-.003.004-.0062.0005-.0097a.0207.0207 0 0 1-.0053-.0118c-.0205-.012-.028-.03-.036-.0481-.0116-.003-.017-.007-.0183-.0115a1.1107 1.1107 0 0 1-.017-.0017c-.0265.003-.0334-.0057-.0429-.0127a.0315.0315 0 0 1-.0192-.0152l-.0087-.0111c-.0073-.0092-.0051-.0215.0059-.0208a.0435.0435 0 0 0 .0225-.0022.0673.0673 0 0 1 .03-.0028c.0112-.0007.0182-.0079.029-.018v-.013c-.0018-.0046.0004-.0066.0065-.006a.0327.0327 0 0 1 .029.0169.055.055 0 0 1 .039.0251c.0223.0001.0374.0085.0392.0168.0014.0061-.0052.013-.0153.0205l.0002.0046a.042.042 0 0 1 .012.0155.1221.1221 0 0 1 .0358.0208c.032-.0037.0859.0195.1588.066a.6193.6193 0 0 1 .1373.0406l.0279.001c.079-.0118.1556-.0028.2267.0516a.2802.2802 0 0 1 .0743.0213.1797.1797 0 0 0 .0527.0115.2643.2643 0 0 1 .0868.0233c.0324.0073.0628.0175.0816.0402.0133.0162.01.031-.007.0372-.0102.0216-.0306.0226-.0613.0119-.021.0039-.0443-.013-.0654-.029-.0293-.0093-.0562-.0262-.0828-.0442a.1074.1074 0 0 0-.0414-.0199c-.0107-.0022-.0202-.0037-.0266 0-.0032.002-.0028.003 0 .0053a.0427.0427 0 0 1 .0143.0268c.0015.0099-.0001.0213.0004.0333.0007.0128.0083.022.0211.0299a.0852.0852 0 0 0 .0343.0132c.0072.0014.0092.0056.009.011.004.0193.0077.0388.0148.0562.002.005.0057.0074.0114.0115.0195.0141.0094.0298-.0084.0332-.0155.0138-.029.023-.0449.0266-.0127.0043-.018-.001-.0222-.0072a.0161.0161 0 0 1-.0148-.0082c-.0155-.0114-.0023-.0313.035-.0228.0007-.0043.0039-.0057.007-.0056a.0495.0495 0 0 1 .0008-.0304c-.0033-.0021-.0062-.0048-.011-.0064a.0936.0936 0 0 1-.0362-.0198c-.019-.018-.0488-.033-.0775-.048-.0237-.0012-.0413-.0121-.0598-.0214l-.0252-.0003c-.0073-.0025-.0133 0-.0177.0054-.0075.009-.016.0075-.0263.0063-.0116-.0014-.0235-.0005-.0352-.0006-.0058.0014-.0114.0032-.0177.0033-.0132-.0007-.026-.0009-.0348.0065-.0073.0076-.0145.007-.0218.0042a.0326.0326 0 0 1-.0117-.008c-.0092-.002-.015-.0042-.017-.007-.0155-.0043-.0198-.0087-.0191-.013-.0205-.005-.0107-.021.0025-.0216.0157-.0006.03.0024.0453.0045a.0427.0427 0 0 0 .0392-.008c.0068-.0061.0094-.0114.0177-.016-.0265-.0017-.046-.0064-.0604-.0155-.0387-.0244-.0697-.0303-.0943-.0096-.0066.0037-.0117.0052-.0187.0025a.0354.0354 0 0 0-.0194-.001.0732.0732 0 0 1-.0418-.0036.1363.1363 0 0 1-.0613.002c-.0173.0092-.03.0102-.038.0032a.2849.2849 0 0 1-.0216-.0132c-.011-.0017-.0157-.0044-.0162-.008-.014-.0017-.0158-.0068-.0157-.0124-.0058-.0067-.0036-.0119.0022-.0162a.037.037 0 0 1 .0333.0002.0872.0872 0 0 1 .0168.0101c.008-.0009.0148 0 .0208.0023.0045-.007.017-.0073.0308-.0065a.0535.0535 0 0 1 .0256-.0088l-.0009-.0049c-.0138-.0036-.021-.0136-.0278-.0238-.0213-.0004-.0365-.0093-.0517-.0186a.052.052 0 0 1-.0322-.009.0764.0764 0 0 1-.025-.0011.0852.0852 0 0 1-.0466 0c-.0104.001-.0187 0-.0272-.0009-.0097.0112-.0206.0131-.0325.0074a.05.05 0 0 0-.0277-.0168c-.009-.0029-.0117-.0068-.0133-.011-.0109-.0067-.0086-.0133.0019-.0184.0079-.0037.0177-.0045.0327.003a.0604.0604 0 0 0 .0165.0035h-.0002zM18.7612 3.1565l.0014.0074.031.1611-.1237.108-.0057.005.0072.0024.1552.0537.0315.1611.0015.0074.0057-.0049.124-.1076.1553.0533.0072.0024-.0014-.0074-.0311-.1612.1238-.1079.0056-.005-.0071-.0024-.1552-.0537-.0315-.1612-.0015-.0074-.0057.005-.1241.1076-.1553-.0534z"/></g></g></svg>