<svg xmlns="http://www.w3.org/2000/svg" viewBox="0 0 32 16">
  <g fill="none" fill-rule="evenodd">
    <rect width="32" height="16" fill="#FFF" transform="matrix(1 0 0 -1 0 16)"/>
    <rect width="32" height="2" y="1" fill="#0038B8" transform="matrix(1 0 0 -1 0 4)"/>
    <rect width="32" height="2" y="13" fill="#0038B8" transform="matrix(1 0 0 -1 0 28)"/>
    <path fill="#0038B8" fill-rule="nonzero" d="M16,4 L17.167,6 L19.5,6 L18.333,8 L19.5,10 L17.167,10 L16,12 L14.833,10 L12.5,10 L13.667,8 L12.5,6 L14.833,6 L16,4 Z M16.298,10 L15.701,10 L16,10.512 L16.298,10 Z M14.1,8.743 L13.805,9.25 L14.396,9.25 L14.1,8.743 Z M16.736,6.75 L15.263,6.75 L14.534,8 L15.263,9.25 L16.736,9.25 L17.464,8 L16.736,6.75 Z M17.899,8.745 L17.604,9.25 L18.194,9.25 L17.899,8.745 Z M14.396,6.75 L13.805,6.75 L14.1,7.257 L14.396,6.75 Z M18.194,6.75 L17.604,6.75 L17.899,7.255 L18.194,6.75 Z M16,5.488 L15.701,6 L16.299,6 L16,5.488 Z"/>
  </g>
</svg>
