<svg xmlns="http://www.w3.org/2000/svg" viewBox="0 0 32 16">
  <g fill="none" fill-rule="evenodd">
    <rect width="32" height="16" fill="#FFF" transform="matrix(1 0 0 -1 0 16)"/>
    <rect width="32" height="5" fill="#F93" transform="matrix(1 0 0 -1 0 5)"/>
    <rect width="32" height="5" y="11" fill="#128807" transform="matrix(1 0 0 -1 0 27)"/>
    <path fill="#0052B4" fill-rule="nonzero" d="M3,0 C4.65685425,0 6,1.34314575 6,3 C6,4.65685425 4.65685425,6 3,6 C1.34314575,6 0,4.65685425 0,3 C0,1.34314575 1.34314575,0 3,0 Z M3,4.3069092 L2.45008615,4.92344858 C2.62480081,4.97330532 2.80928296,5 3,5 C3.19071704,5 3.37519919,4.97330532 3.54991385,4.92344858 L3,4.3069092 Z M2.26945043,4.05763392 L1.42210042,4.22906257 C1.66221236,4.53688428 1.9904294,4.77262179 2.36884893,4.89837248 L2.26945043,4.05763392 Z M3.73054957,4.05763392 L3.63115107,4.89837248 C4.0095706,4.77262179 4.33778764,4.53688428 4.57789958,4.22906257 L3.73054957,4.05763392 Z M1,3 C1,3.4509885 1.14927144,3.86711279 1.40110261,4.20166115 L1.81719924,3.40408315 L1,3 L1.81722538,2.59588938 L1.40110261,1.79833885 C1.14927144,2.13288721 1,2.5490115 1,3 Z M4.59889739,1.79833885 L4.18280076,2.59591685 L5,3 L4.18277462,3.40411062 L4.59889739,4.20166115 C4.85072856,3.86711279 5,3.4509885 5,3 C5,2.5490115 4.85072856,2.13288721 4.59889739,1.79833885 Z M3.63115107,1.10162752 L3.73054957,1.94236608 L4.57789958,1.77093743 C4.33778764,1.46311572 4.0095706,1.22737821 3.63115107,1.10162752 Z M1.42210042,1.77093743 L2.2694243,1.94236608 L2.36884893,1.10162752 C1.9904294,1.22737821 1.66221236,1.46311572 1.42210042,1.77093743 Z M3,1 C2.80928296,1 2.62480081,1.02669468 2.45008615,1.07655142 L3,1.6930908 L3.54991385,1.07655142 C3.37519919,1.02669468 3.19071704,1 3,1 Z" transform="translate(13 5)"/>
  </g>
</svg>
