<svg xmlns="http://www.w3.org/2000/svg" viewBox="0 0 32 16"><g fill="none" fill-rule="evenodd"><path fill="#F93" fill-rule="nonzero" d="M0 0h32v16H0z"/><path fill="#FFF" fill-rule="nonzero" d="M0 5.31h32v5.38H0z"/><path fill="#128807" fill-rule="nonzero" d="M0 10.62h32V16H0z"/><path fill="#008" d="M17.85 8.24c-.01.06.03.1.08.11l-.04.16-1.1-.37-.4-.06a.4.4 0 0 0 0-.06l.4.05L17.96 8v.16a.1.1 0 0 0-.11.08m-.13.47a.1.1 0 0 0 .05.13l-.07.14-.98-.64-.37-.16a.4.4 0 0 0 .03-.06l.37.15 1.14.24-.04.15a.1.1 0 0 0-.13.05m-.24.42a.1.1 0 0 0 .01.14l-.1.12-.78-.88-.32-.25a.4.4 0 0 0 .04-.04l.32.23 1.05.53-.09.13a.1.1 0 0 0-.13.02m-.35.35a.1.1 0 0 0-.02.13l-.13.09-.53-1.05-.23-.32a.4.4 0 0 0 .04-.04l.25.32.88.78-.12.1a.1.1 0 0 0-.14-.01m-.42.24a.1.1 0 0 0-.05.13l-.15.04-.24-1.14-.15-.37a.4.4 0 0 0 .06-.03l.16.37.64.98-.14.07a.1.1 0 0 0-.13-.05m-.47.13a.1.1 0 0 0-.08.1 2 2 0 0 1-.16.01l.07-1.17-.05-.4a.4.4 0 0 0 .06 0l.06.4.37 1.1-.16.04a.1.1 0 0 0-.1-.08m-.5 0a.1.1 0 0 0-.1.08l-.16-.04.37-1.1.06-.4a.4.4 0 0 0 .06 0l-.05.4.07 1.17a2 2 0 0 1-.16 0 .1.1 0 0 0-.08-.11m-.47-.13a.1.1 0 0 0-.13.05l-.14-.07.64-.98.16-.37a.4.4 0 0 0 .06.03l-.15.37-.24 1.14-.15-.04a.1.1 0 0 0-.05-.13m-.42-.24a.1.1 0 0 0-.14.01 1.97 1.97 0 0 1-.12-.1l.88-.78.25-.32a.4.4 0 0 0 .04.04l-.23.32-.53 1.05a1.96 1.96 0 0 1-.13-.09.1.1 0 0 0-.02-.13m-.35-.35a.1.1 0 0 0-.13-.02 1.97 1.97 0 0 1-.09-.13l1.05-.53.32-.23a.4.4 0 0 0 .04.04l-.32.25-.78.88a1.97 1.97 0 0 1-.1-.12.1.1 0 0 0 .01-.14m-.24-.42a.1.1 0 0 0-.13-.05l-.04-.15 1.14-.24.37-.15.03.06-.37.16-.98.64-.07-.14a.1.1 0 0 0 .05-.13m-.13-.47a.1.1 0 0 0-.1-.08L14.04 8l1.17.07.4-.05a.4.4 0 0 0 0 .06l-.4.06-1.1.37-.04-.16a.1.1 0 0 0 .08-.1m0-.5a.1.1 0 0 0-.08-.1l.04-.16 1.1.37.4.06a.4.4 0 0 0 0 .06l-.4-.05-1.17.07v-.16a.1.1 0 0 0 .11-.08m.13-.47a.1.1 0 0 0-.05-.13l.07-.14.98.64.37.16a.4.4 0 0 0-.03.06l-.37-.15-1.14-.24.04-.15c.05.02.1 0 .13-.05m.24-.42a.1.1 0 0 0-.01-.14l.1-.12.78.88.32.25a.4.4 0 0 0-.04.04l-.32-.23-1.05-.53.09-.13c.04.03.1.02.13-.02m.35-.35a.1.1 0 0 0 .02-.13l.13-.09.53 1.05.23.32a.4.4 0 0 0-.04.04l-.25-.32-.88-.78.12-.1c.03.04.1.05.14.01m.42-.24a.1.1 0 0 0 .05-.13l.15-.04.24 1.14.15.37a.4.4 0 0 0-.06.03l-.16-.37-.64-.98.14-.07a.1.1 0 0 0 .13.05m.47-.13a.1.1 0 0 0 .08-.1 2 2 0 0 1 .16-.01l-.07 1.17.05.4a.4.4 0 0 0-.06 0l-.06-.4-.37-1.1.16-.04c0 .05.05.1.1.08m.5 0a.1.1 0 0 0 .1-.08l.16.04-.37 1.1-.06.4a.4.4 0 0 0-.06 0l.05-.4L16 6.04a2 2 0 0 1 .16 0c0 .06.03.1.08.11m.47.13c.05.02.1 0 .13-.05l.14.07-.64.98-.16.37a.4.4 0 0 0-.06-.03l.15-.37.24-1.14.15.04a.1.1 0 0 0 .05.13m.42.24c.05.04.1.03.14-.01l.12.1-.88.78-.25.32a.4.4 0 0 0-.04-.04l.23-.32.53-1.05.13.09a.1.1 0 0 0 .02.13m.35.35a.1.1 0 0 0 .13.02l.09.13-1.05.53-.32.23a.4.4 0 0 0-.04-.04l.32-.25.78-.88.1.12a.1.1 0 0 0-.01.14m.24.42a.1.1 0 0 0 .13.05l.04.15-1.14.24-.37.15a.4.4 0 0 0-.03-.06l.37-.16.98-.64.07.14a.1.1 0 0 0-.05.13m.13.47c0 .05.05.09.1.08l.01.16-1.17-.07-.4.05a.4.4 0 0 0 0-.06l.4-.06 1.1-.37.04.16a.1.1 0 0 0-.08.1M16 5.77a2.24 2.24 0 1 0 0 4.48 2.24 2.24 0 0 0 0-4.48"/></g></svg>