<svg xmlns="http://www.w3.org/2000/svg" viewBox="0 0 32 16">
  <g fill="none" fill-rule="evenodd">
    <polygon fill="#060" fill-rule="nonzero" points="32 8 0 8 0 16 32 16"/>
    <polygon fill="#000" fill-rule="nonzero" points="32 0 0 0 0 8 32 8"/>
    <polygon fill="#FFF" fill-rule="nonzero" points="32 5 0 5 0 11 32 11"/>
    <polygon fill="#B00" fill-rule="nonzero" points="32 6 0 6 0 10 32 10"/>
    <g transform="translate(12 3)">
      <path fill="#FFF" fill-rule="nonzero" d="M0.722649902,0.0839748528 C0.926884875,-0.0521817957 1.19485937,-0.018253969 1.35946839,0.152337337 L1.41602515,0.222649902 L7.41602515,9.2226499 C7.56920138,9.45241425 7.50711444,9.76284892 7.2773501,9.91602515 C7.07311513,10.0521818 6.80514063,10.018254 6.64053161,9.84766266 L6.58397485,9.7773501 L0.583974853,0.777350098 C0.430798623,0.547585754 0.492885558,0.237151082 0.722649902,0.0839748528 Z"/>
      <path fill="#FFF" fill-rule="nonzero" d="M0.722649902,0.0839748528 C0.926884875,-0.0521817957 1.19485937,-0.018253969 1.35946839,0.152337337 L1.41602515,0.222649902 L7.41602515,9.2226499 C7.56920138,9.45241425 7.50711444,9.76284892 7.2773501,9.91602515 C7.07311513,10.0521818 6.80514063,10.018254 6.64053161,9.84766266 L6.58397485,9.7773501 L0.583974853,0.777350098 C0.430798623,0.547585754 0.492885558,0.237151082 0.722649902,0.0839748528 Z" transform="matrix(-1 0 0 1 8 0)"/>
      <path fill="#000" d="M4,10 C6,8.50761583 7,6.84094917 7,5 C7,3.15905083 6,1.49238417 4,0 C2,1.49238417 1,3.15905083 1,5 C1,6.84094917 2,8.50761583 4,10 Z"/>
      <path fill="#FFF" d="M4,0 C4.36728778,0.274067237 4.70085049,0.554012166 5.00068812,0.839834785 L5.00068812,9.16016521 C4.70085049,9.44598783 4.36728778,9.72593276 4,10 C3.6326191,9.72586328 3.29898038,9.44584589 2.99908384,9.15994782 L2.99908384,0.84005218 C3.29898038,0.554154115 3.6326191,0.274136721 4,0 Z"/>
      <path fill="#A2001D" d="M2.99800137,0.841084288 L2.99800137,9.15891571 C2.60710537,8.78614645 2.27356657,8.40338082 1.99738497,8.01061885 L1.99738497,1.98938115 C2.27356657,1.59661918 2.60710537,1.21385355 2.99800137,0.841084288 Z M6.00050528,1.98638262 L6,8 L6.00963144,8.00062094 C5.73205064,8.39693968 5.39611952,8.78308897 5.00183807,9.15906882 L5.00218164,0.841258813 C5.39200395,1.21302432 5.7247785,1.59473226 6.00050528,1.98638262 Z"/>
    </g>
  </g>
</svg>
