<svg xmlns="http://www.w3.org/2000/svg" viewBox="0 0 32 16"><g fill="none" fill-rule="evenodd"><path fill="#FFF" d="M0 16h32V0H0z"/><path fill="#C60C30" d="M12.69 5.79a3.99 3.99 0 1 1 6.65 4.44 4 4 0 1 1-6.65-4.44"/><path fill="#003478" d="M12.69 5.79A2 2 0 0 0 16 8a2 2 0 1 1 3.33 2.22 4 4 0 1 1-6.65-4.44"/><path fill="#000" d="M9.37 5.98l.54.36L12.13 3l-.55-.36zm-.29-.19l2.22-3.33-.55-.36-2.21 3.33zm1.39-3.89l-.55-.36-2.21 3.33.54.36zm11.17 9.67l1.01-1.53-.54-.36-1.02 1.53zm-.73-.09L19.89 13l.55.37 1.02-1.53zm2.58-.88l-.55-.36-1.01 1.52.54.37zm-1.75 1.44l-1.01 1.53.54.36 1.02-1.53zm-.18 2.08l.54.37 1.02-1.53-.55-.37zm1.2-1.8l.54.36 1.02-1.53-.55-.36zM7.71 11.16l2.21 3.33.55-.37-2.22-3.33zm1.66-1.12l2.21 3.34.55-.37-2.22-3.33zm.18 2.09l.55-.36-1.02-1.53-.54.36zm.19.27l1.01 1.53.55-.36-1.02-1.53zm13.75-6.97L21.27 2.1l-.54.36 2.21 3.33zm-2.03-1.25l-1.02-1.53-.55.36 1.02 1.53zm1.19 1.8l-1.01-1.53-.55.37 1.02 1.52zm.47-2.91L22.1 1.54l-.54.36 1.01 1.53zm.65 2.16l.55-.36-1.02-1.53-.54.37z"/></g></svg>