<svg xmlns="http://www.w3.org/2000/svg" viewBox="0 0 32 16">
  <g fill="none" fill-rule="evenodd">
    <rect width="32" height="16" fill="#000" transform="matrix(1 0 0 -1 0 16)"/>
    <rect width="32" height="4" fill="#E70013" transform="matrix(1 0 0 -1 0 4)"/>
    <rect width="32" height="4" y="12" fill="#239E46" transform="matrix(1 0 0 -1 0 28)"/>
    <g fill="#FFF" fill-rule="nonzero" transform="translate(12 5)">
      <polygon points="5.454 1.35 6.11 2.254 7.173 1.909 6.516 2.813 7.172 3.718 6.109 3.372 5.452 4.275 5.453 3.158 4.39 2.812 5.453 2.467"/>
      <path d="M3.86259527,5.43755264 C2.54202389,5.43755264 1.47144755,4.34621475 1.47144755,3.00003369 C1.47144755,1.65385263 2.54202389,0.56251474 3.86259527,0.56251474 C4.27434014,0.56251474 4.66175975,0.668676931 5,0.855496782 C4.46937197,0.32647148 3.74367907,0 2.94292815,0 C1.31756377,0 0,1.34314882 0,3 C0,4.65685118 1.31759682,6 2.94292815,6 C3.74374517,6 4.46940502,5.67349483 5,5.14450322 C4.66175975,5.33139045 4.27434014,5.43755264 3.86259527,5.43755264 Z"/>
    </g>
  </g>
</svg>
