<svg xmlns="http://www.w3.org/2000/svg" viewBox="0 0 32 16">
  <g fill="none" fill-rule="evenodd">
    <rect width="32" height="16" fill="#C1272D" transform="matrix(1 0 0 -1 0 16)"/>
    <path fill="#006233" fill-rule="nonzero" d="M16.1250193,5 L16.8631925,7.3885026 L19.25,7.3885026 L17.3189439,8.86317468 L18.0565974,11.25 L16.1250133,9.77493285 L14.1934399,11.25 L14.9310905,8.86318839 L13,7.3885026 L15.3868461,7.3885026 L16.1250193,5 Z M16.1250193,6.41125216 L15.6882312,7.82456467 L14.2768034,7.82456467 L15.4187266,8.69659933 L14.9823566,10.1085634 L16.1250123,9.23595752 L17.2676834,10.1085634 L16.8313082,8.6965869 L17.9732054,7.82456467 L16.5618074,7.82456467 L16.1250193,6.41125216 Z M16.8631925,7.3885026 L17.3189439,8.86317468 L16.1250133,9.77493285 L14.9310905,8.86318839 L15.3868461,7.3885026 L16.8631925,7.3885026 Z M16.5618074,7.82456467 L15.6882312,7.82456467 L15.4187266,8.69659933 L16.1250123,9.23595752 L16.8313082,8.6965869 L16.5618074,7.82456467 Z"/>
  </g>
</svg>
