<svg xmlns="http://www.w3.org/2000/svg" viewBox="0 0 32 16"><g fill="none"><path fill="#CC092F" d="M0 0h32v16H0z"/><path fill="#FFD200" d="M0 0h21.31v16H0z"/><path fill="#000" d="M15.06 3.46c-.06 0-.1.01-.13.04a.1.1 0 0 1 .08.1v.14h-.14a.11.11 0 0 1-.1-.08.23.23 0 0 0-.04.14c0 .05.01.1.03.13a.11.11 0 0 1 .11-.08h.14v.64a.1.1 0 0 1-.08.1c.06.01.12.1.13.14.02-.05.07-.13.13-.14a.11.11 0 0 1-.07-.1v-.64h.13c.05 0 .1.03.11.08a.25.25 0 0 0 0-.27.11.11 0 0 1-.1.08h-.14V3.6c0-.06.03-.1.08-.11a.23.23 0 0 0-.14-.04z"/><path fill="#F5D402" d="M15.06 3.49l-.08.01c.03.03.05.06.05.1v.16h-.16a.14.14 0 0 1-.1-.04.24.24 0 0 0 0 .15.14.14 0 0 1 .1-.05h.16v.67c0 .04-.02.07-.05.1.02 0 .04.02.06.04l.02.05.03-.05a.21.21 0 0 1 .05-.04.13.13 0 0 1-.05-.1v-.66h.16c.04 0 .08.01.1.04a.24.24 0 0 0 0-.15.14.14 0 0 1-.1.05h-.16V3.6c0-.05.02-.08.05-.1a.25.25 0 0 0-.08-.02"/><path fill="#000" d="M16.72 5.78a.7.7 0 0 1-.2-.2 1.2 1.2 0 0 1-.16-.63c0-.1.1-.2.1-.28V4.5c.03 0 .1.07.1.07s0-.2-.06-.23c0 0 .02-.02.11-.03-.02-.06-.15-.14-.15-.14l.03-.03a.4.4 0 0 1 .11-.03l-.12-.04a2.9 2.9 0 0 1-.34-.14 1 1 0 0 0-.46-.1c-.06 0-.15 0-.2.04-.06.03-.05.07-.07.09-.04.03-.11.03-.15.03-.22 0-.23.24-.23.24s.06-.09.16-.09c.17 0 .3.1.3.13l-.03.01c-.1 0-.27-.06-.36-.06v.04c.2.07.4.16.4.59 0 .26-.04.53-.17.75a.7.7 0 0 1-.2.2l.8.14.79-.15z"/><path fill="#000" d="M15.93 5.6l-.8.18c-.03 0-.2-.06-.32-.13-.2-.11-.31-.23-.56-.24v-.19c0-.1.03-.19.03-.28-.1-.03-.4-.39-.66-.54-.4.25-.7.67-.7.86v5.57c0 .08-.05.2-.05.2.15-.06.41-.42.47-.56v.07c.21-.1.37-.36.44-.5v.07c.2-.17.45-1.17.45-1.17l.41.4s-.15.3-.2.36h.08c-.03.04-.24.34-.3.45-.06.1-.1.06-.2.06-.08 0-.25.13-.28.17a.36.36 0 0 0-.05.17c0 .06.06.14.06.14 0-.03.02-.04.02-.04l.18.23c.02.02.1.03.13 0 .07-.06.14-.1.2-.2.04-.05.04-.1.08-.16l.44-.59V10c.07-.13.4-.38.4-.38l.32.15s-.62 1.42-1.16 1.63a8.5 8.5 0 0 0 .66.33l.11-.15c.18-.23.35-.5.35-.5.01.07-.08.29-.24.55l-.1.17.12.07c.3.17.56.37.66.56l.08-.18-.08-.18V5.84l.04-.09-.03-.14z"/><path fill="#B07F55" d="M15.92 12.06c-.1-.11-.31-.25-.55-.37.29-.52.43-1.35.37-1.51 0 0-.12.43-.27.67-.13.23-.3.48-.46.67-.13-.06-.26-.1-.37-.14.48-.37.97-1.6.97-1.6l-.5-.23s-.2.22-.26.26l-.04-.15s-.07.06-.11.06l-.02-.12c-.06.03-.14.02-.14.02.07-.03.16-.24.16-.24l-.48-.65s-.18.82-.37.99V6.19l.15.14.24-.21v-.17l-.2.2v-.5l.06-.12c.03.06.14.24.27.35.02-.09.16-.17.16-.17s.04.14.12.17a.95.95 0 0 1 .18-.15s-.13.02-.19.07c-.04 0-.05-.2-.05-.2s-.2.1-.24.17c-.04 0-.1-.16-.12-.22h.15c.06 0 .13.02.2.06l.25.12c.1.05.26.06.3.06l-.17.1s.24 0 .41-.09l.18-.12a.64.64 0 0 1-.12.2.55.55 0 0 0 .4-.2c.02.04.05.1.1.16H16v6.04l-.09.18zm-1.81-7.11v.45c-.08-.03-.2-.18-.25-.26V5.1c0-.04.02-.08.04-.1h-.05a.16.16 0 0 0-.04.1v.03l-.16.17-.16-.24V5c0-.04.03-.08.05-.11l-.05-.02a.21.21 0 0 0-.05.13v.04l-.18.19-.1-.2c.11-.15.3-.32.46-.44 0 0 .37.33.5.37z"/><path fill="#D10429" d="M14.65 9.82l.11-.07.02.08-.46.63c-.04.05-.07.17-.07.17s-.05-.03-.05-.07v-.1s-.03.05-.1.05c0-.05.1-.1.11-.18-.08.06-.14.03-.23.05-.1.03-.12.07-.15.07-.02 0-.03-.03-.03-.05.01-.03.13-.12.21-.13.02 0 .18.03.21-.02a4680.07 4680.07 0 0 1 .4-.56s0 .1.03.13z"/><path fill="#000" d="M15.92 5.6l.8.18c.03 0 .2-.06.32-.13.2-.11.31-.23.56-.24v-.19c0-.1-.03-.19-.03-.28.1-.03.4-.39.66-.54.4.25.7.67.7.86 0 0-.02 4.13 0 5.57 0 .08.05.2.05.2-.15-.06-.41-.42-.47-.56v.07c-.21-.1-.37-.36-.44-.5v.07c-.2-.17-.45-1.17-.45-1.17l-.41.4s.15.3.2.36h-.08c.03.04.24.34.3.45.06.1.1.06.2.06.08 0 .25.13.28.17a.4.4 0 0 1 .05.17c0 .06-.06.14-.06.14 0-.03-.02-.04-.02-.04l-.18.23c-.02.02-.1.03-.13 0-.07-.06-.14-.1-.2-.2-.04-.05-.04-.1-.08-.16l-.44-.59V10a2.04 2.04 0 0 0-.4-.38l-.32.15s.62 1.42 1.16 1.63c0 0-.23.1-.53.26l-.13.07-.11-.15c-.18-.23-.35-.5-.35-.5-.01.07.08.29.24.55l.1.17-.12.07c-.3.17-.56.37-.67.56l-.07-.18.07-.18V5.84l-.03-.09.03-.14z"/><path fill="#B07F55" d="M15.92 12.06c.1-.11.32-.25.56-.37a3.08 3.08 0 0 1-.37-1.51 3.45 3.45 0 0 0 .73 1.34c.13-.06.26-.1.37-.14a5.1 5.1 0 0 1-.97-1.6l.5-.23s.2.22.26.26l.04-.15s.07.06.11.06l.02-.12c.05.03.14.02.14.02-.08-.03-.16-.24-.16-.24l.48-.65s.18.82.37.99V6.19l-.15.14-.24-.21v-.17l.2.2v-.5a1.68 1.68 0 0 1-.06-.12c-.03.06-.14.24-.27.35-.02-.09-.16-.17-.16-.17s-.04.14-.12.17a.95.95 0 0 0-.19-.15s.14.02.2.07c.04 0 .05-.2.05-.2s.2.1.24.17c.04 0 .1-.16.12-.22h-.15a.54.54 0 0 0-.2.06l-.26.12a.92.92 0 0 1-.3.06l.18.1s-.24 0-.41-.09l-.18-.12c.03.06.06.14.12.2a.55.55 0 0 1-.4-.2.67.67 0 0 1-.1.16h-.08v6.04l.08.18zm1.82-7.11v.45c.08-.03.2-.18.25-.26V5.1a.13.13 0 0 0-.04-.1H18c.02.02.04.06.04.1v.03l.16.17.16-.24V5c0-.04-.03-.08-.05-.11l.05-.02c.03.04.05.08.05.13v.04l.18.19.1-.2a2.2 2.2 0 0 0-.46-.44 3 3 0 0 1-.5.37z"/><path fill="#D10429" d="M17.2 9.82l-.11-.07-.02.08.46.63c.04.05.07.17.07.17s.05-.03.05-.07v-.1s.03.05.1.05c0-.05-.1-.1-.11-.18.08.06.14.03.23.05.1.03.12.07.15.07.02 0 .03-.03.03-.05-.01-.03-.13-.12-.21-.13-.02 0-.18.03-.21-.02a4680.07 4680.07 0 0 0-.4-.56s0 .1-.03.13z"/><path fill="#B07F55" d="M15.74 3.88c.2 0 .35.09.54.17l.14.06a.17.17 0 0 0-.05.06s.09.02.12.1c0 0-.08 0-.1.05.05 0 .1.06.1.12l-.12-.04s.03.13.03.27c0 .08-.1.16-.1.28 0 .4.1.54.16.66.03.05.05.1.1.14-.2-.1-.35-.24-.35-.36v-.47h-.05v.47c0 .09.02.13.02.13.03.1.1.25.14.31-.19-.1-.28-.22-.28-.27v-.64h-.05v.7a.38.38 0 0 1-.06.08.39.39 0 0 1-.07-.08v-.7h-.05v.64c0 .05-.09.17-.27.27.04-.06.1-.21.13-.31 0 0 .02-.04.02-.13v-.47h-.05v.47c0 .12-.15.25-.35.36.05-.04.07-.1.1-.14.07-.13.17-.3.17-.77a.8.8 0 0 0-.08-.38c-.01-.03-.03-.1.08-.1.05 0 .18.1.18.1s0-.08-.07-.13c-.01 0-.03-.03-.03-.05 0-.02.03-.06.05-.07.02 0-.22-.04-.22-.15 0-.02.02-.03.07-.03.06 0 .16.07.25.07l.17-.01c.08 0 .26.15.32.15-.07-.04-.18-.2-.34-.2l-.17.01c-.06 0-.13-.06-.2-.06l-.12-.01c-.01-.03 0-.04.01-.06.03-.03.1-.04.17-.04h.11z"/><g fill="#000"><path d="M12.9 7.64l-.1.05 1.16 2.57h.13l-1.2-2.62zm1.38 3.03l-.09.09.06.11.1-.04-.07-.16z"/><path d="M12.56 7.14s-.03.17.02.27c.04.1.07.11.07.11-.09-.06-.22-.06-.22-.06s.05.19.16.28c.12.08.29.06.29.06s.12-.15.1-.31c0-.17-.13-.34-.13-.34s-.05.1-.06.18c-.03-.08-.23-.2-.23-.2z"/></g><path fill="#000" d="M19.35 7.35l.02.04-.05.05c-.02.03.01.08.01.08s-.2-.02-.22 0c-.03.02.01.15 0 .26-.03.16-.1.15-.1.18s.03.07.03.07l-.05.03v.1l-.3.56c0 .03-.03.03-.05.07v.06s-.06 0-.08.04c-.02.04 0 .1 0 .1s-.04 0-.05.03c-.02.04 0 .06 0 .07l-.32.62c-.03.06-.13.07-.19.19-.05.11.03.2.03.2s-.09 0-.11.04c-.02.05 0 .12.06.15s.12 0 .15-.04c.02-.04-.03-.12-.03-.12s.12.02.18-.1c.06-.1 0-.2.04-.25l.31-.63c.01-.01.04 0 .06-.03.02-.04 0-.07 0-.07s.05-.02.07-.06c.02-.03 0-.08 0-.08s.03-.01.05-.04l.01-.08.29-.57c.01-.03.06-.04.07-.06V8.1s.05 0 .08-.03c.02-.02-.03-.06.08-.17.08-.08.21-.13.21-.16a.85.85 0 0 0-.13-.18s.06 0 .07-.04c.02-.03.01-.07.01-.07l.05-.01V7.2l-.2.15zm-1.75 3.48v.06s-.06-.02-.08-.01c-.02 0 0 .3 0 .3s.25-.15.25-.18c0-.02-.06-.06-.06-.06.02 0 .04-.02.05-.03 0-.02 0-.07-.05-.1a.1.1 0 0 0-.06 0 .06.06 0 0 0-.05.02z"/><path fill="#F5D402" d="M18.5 9.16s-.21.43-.3.58c-.02.05-.12.08-.16.16-.05.09-.02.16.04.19.05.03.13 0 .17-.08.04-.08 0-.18.03-.23l.3-.59s.02-.03-.02-.05h-.02c-.02 0-.03.02-.03.02zm-.84-3.03c0-.12.15-.23.15-.23h-3.77s.15.11.15.23v2.8c0 .08.02.13.06.18a.8.8 0 0 0 .2.17c.24.16.66.33.97.47.26.12.37.17.5.34.14-.17.25-.22.51-.34.31-.14.73-.3.98-.47a.8.8 0 0 0 .19-.17c.04-.05.06-.1.06-.17v-2.8z"/><path fill="#D10429" d="M14.28 7.72V6.13c0-.09-.04-.14-.04-.14h3.38s-.05.05-.05.14v1.59l-1.64.5-1.65-.5z"/><path fill="#0B45BB" d="M17.57 7.72l-1.02-.02H15.3l-1.02.02v1.22c0 .06.06.2.43.39.6.3 1.08.44 1.22.61.14-.17.6-.31 1.2-.61.38-.19.44-.33.44-.4v-1.2z"/><g fill="#000"><path d="M16.53 7.66s.58-.15.58-.78c0-.49-.58-.73-.6-.85-.06.2.2.48.2.81 0 .43-.32.45-.32.45-.07 0-.1.06-.13.06-.07-.01-.1-.09-.16-.09-.05 0-.1.09-.17.09-.08 0-.12-.09-.18-.09s-.1.08-.16.09c-.02 0-.05-.06-.13-.06 0 0-.31-.02-.31-.45 0-.33.25-.6.2-.8-.02.1-.61.35-.61.84 0 .63.58.78.58.78l-.16.3s.24.01.37.12c.15.14.14.42.14.62 0 .16-.02.33-.1.4-.12.1-.19.1-.19.21 0 .1.07.11.19.17.14.08.14.18.36.18.21 0 .2-.1.36-.18.11-.06.18-.08.18-.17 0-.1-.07-.12-.18-.21-.09-.07-.1-.24-.1-.4 0-.2-.02-.48.13-.62.13-.1.37-.12.37-.12l-.16-.3z"/><path d="M15.93 6.07l-.1.3-.28-.14.13.28-.3.1.3.1-.13.28.28-.13.1.28.1-.28.28.13-.13-.28.29-.1-.3-.1.14-.28-.28.13zM15.3 7.7s-.36-.09-.5-.27c-.24.22-.52.29-.52.29s.3.13.52.3c.1-.15.5-.32.5-.32zm1.25 0s.4.17.5.32c.22-.17.52-.3.52-.3s-.28-.07-.52-.29c-.14.18-.5.27-.5.27zm-1.75.73a.17.17 0 0 0-.1.24.16.16 0 0 0-.06 0 .17.17 0 1 0 .03.33l-.02.03c-.03.08 0 .18.1.22a.17.17 0 0 0 .22-.14l.03.03c.07.06.18.05.24-.02a.17.17 0 0 0-.06-.25l.04-.02c.08-.05.1-.15.05-.23a.17.17 0 0 0-.23-.05.17.17 0 0 0-.03.02v-.04a.17.17 0 0 0-.21-.12zm1.78.49c.01.17.15.3.32.35a.38.38 0 0 1-.05-.16c-.02-.2.13-.36.35-.36h.1a.44.44 0 0 0-.37-.2c-.22 0-.37.16-.35.37z"/></g><path fill="#FFD200" d="M15.06 6.84c0 .33.17.52.4.52.05 0 .1.06.13.06.07 0 .12-.08.16-.08.05 0 .08.08.18.08.09 0 .12-.08.17-.08.04 0 .09.08.16.08.04 0 .09-.06.13-.06.23 0 .4-.2.4-.52 0-.26-.22-.58-.2-.63 0 0 .44.3.44.67 0 .59-.6.73-.6.73l.13.3s-.18.03-.3.12c-.14.12-.14.45-.14.67 0 .26 0 .37.1.44.1.08.17.1.17.17 0 .06-.07.09-.17.13-.12.05-.13.14-.3.14-.16 0-.17-.09-.28-.14-.1-.04-.18-.07-.18-.13 0-.08.07-.1.17-.17s.1-.18.1-.44c0-.22 0-.55-.15-.67-.1-.09-.3-.12-.3-.12l.14-.3s-.6-.14-.6-.73c0-.36.44-.67.44-.67.02.05-.2.37-.2.63zm.64 2.42c-.12 0-.2.03-.2.06 0 .04.08.06.2.06.03 0 .07-.02.07-.06 0-.04-.04-.06-.07-.06zm.45 0c-.03 0-.07.02-.07.06 0 .04.04.06.07.06.12 0 .2-.02.2-.06 0-.03-.08-.06-.2-.06z"/><path fill="#FFD200" d="M15.92 6.27l.07.18.17-.08-.08.18.18.06-.18.07.08.17-.17-.08-.07.18-.06-.18-.18.08.08-.17-.18-.07.18-.06-.08-.18.18.08.06-.18z"/><path fill="#0046AE" d="M0 0h10.69v16H0z"/></g></svg>