<svg xmlns="http://www.w3.org/2000/svg" viewBox="0 0 32 16">
  <g fill="none" fill-rule="evenodd">
    <rect width="32" height="16" fill="#FFD200" transform="matrix(1 0 0 -1 0 16)"/>
    <rect width="10" height="16" fill="#0046AE"/>
    <rect width="10" height="16" x="22" fill="#CC092F"/>
    <g transform="translate(12 4)">
      <path fill="#B07F55" fill-rule="nonzero" d="M8,1.35066196 L5.25000281,1.35066196 C5.25000281,0.604705911 4.69036308,0 4,0 C3.30963692,0 2.74999719,0.604705911 2.74999719,1.35066196 L0,1.35066196 C0,2.08511413 0.592118415,2.6804519 1.27174511,2.6804519 L1.23077614,2.6804519 C1.23077614,3.41495261 1.78179082,4.01038747 2.46155228,4.01038747 C2.46155228,4.66067203 2.89379289,5.20101448 3.46466314,5.31653864 L2.49479465,7.68245416 C2.95951394,7.88656303 3.46740339,8 4,8 C4.53255169,8 5.04048606,7.88656303 5.50516043,7.68245416 L4.53533686,5.31653864 C5.10620711,5.20101448 5.53844772,4.66067203 5.53844772,4.01038747 C6.21820918,4.01038747 6.76922386,3.41495261 6.76922386,2.6804519 L6.72820997,2.6804519 C7.40792651,2.6804519 8,2.08506559 8,1.35066196 Z"/>
      <path fill="#0046AE" d="M6,4 L6,4.76393202 C6,5.52147614 5.57199525,6.21400238 4.89442719,6.5527864 L4,7 L4,7 L3.10557281,6.5527864 C2.42800475,6.21400238 2,5.52147614 2,4.76393202 L2,4 L2,4 L6,4 Z"/>
      <rect width="4" height="2" x="2" y="2" fill="#CC092F"/>
    </g>
  </g>
</svg>
