<svg xmlns="http://www.w3.org/2000/svg" viewBox="0 0 32 16"><g fill="none" fill-rule="evenodd"><path fill="#FFF" fill-rule="nonzero" d="M0 0h32v16H0z"/><path fill="#CE1126" fill-rule="nonzero" d="M32 0H21.5v16H32z"/><path fill="#006847" fill-rule="nonzero" d="M0 0h10.5v16H0z"/><g fill-rule="nonzero"><path fill="#9CA168" d="M19.47 8c-.01.16-.18.25-.26.31a.4.4 0 0 0-.13.14l-.03.1-.01.06v.3l.12-.08.08-.03h.03s-.1.09-.13.19c-.04.1-.1.31-.23.38s-.21.04-.25.08l-.05.05-.05.07-.05.06-.04.02-.02.02-.01.08-.03.1.05-.02h.06l-.03.06c0 .03 0 .2-.16.3-.16.1-.58.09-.58.09l-.08.03-.08.06-.06.07-.01.02-.09.09-.12.08h.1l.15.07s-.1 0-.16.02c-.06.03-.36.2-.5.2-.14-.01-.34-.22-.34-.22l-.1-.07-.15-.03h-.19v-.03l.01-.03h.17c.08.01.11.04.19.05a.3.3 0 0 0 .15-.01c.03-.01.26-.2.26-.2l.25-.1.1.02h.05l.04.02-.05.05a.32.32 0 0 1-.06.04l.03.03.16-.03.06.02h.01l.02-.05.15-.13.06-.04c.02-.01.07-.15.07-.15v-.07l.19-.17.12-.13.05-.15v-.03s.04.05.03.14c0 .1-.03.12-.03.12l.19-.11a.2.2 0 0 1 .1-.02.3.3 0 0 0 .1-.08l.04-.09a5 5 0 0 1 0-.12v-.31l.1-.23.15-.14.03-.02-.01.06v.06s.07-.1.11-.13H19a.3.3 0 0 0 .03-.1l.01-.13v-.13l-.02-.1-.07-.19v-.25l-.06-.07s.05 0 .12.09c.06.09.08.21.08.21l.14-.44s.04.05.07.14c.03.09.03.14.03.14l.06-.12v.05c.02.04.1.09.1.26zm-2.94 2.84s-.03-.07-.17-.14-.24-.08-.24-.08v.05l.22.1.1.09.09-.02z"/><path fill="#717732" d="M17.53 10.42c.01-.02.13-.12.19-.15s.14-.04.14-.04c.08-.01.1 0 .29-.1.19-.11.23-.24.27-.27l.1-.03-.15.17c-.07.08-.14.13-.25.2-.1.07-.33.07-.33.07a.33.33 0 0 0-.18.1.51.51 0 0 0-.09.1v-.05zm.53-.55c-.18.16-.24.3-.24.3l.24-.2c.08-.08.2-.12.24-.17.06-.04.06-.08.1-.12.02-.03.05-.04.05-.04s-.08-.06-.4.23zm-.38.37s.08-.03.1-.1l.05-.12.25-.26c.12-.13.06-.25.06-.25s.02.06-.03.12-.29.23-.32.32c-.03.1-.01.1-.02.15-.03.11-.09.14-.09.14zm-.12.46s-.1-.06-.2-.05c-.21.01-.39.14-.53.14s-.2-.06-.3-.14c-.12-.07-.4-.06-.4-.06v.01s.19 0 .27.03c.16.04.25.2.43.2.24-.02.43-.16.53-.16.16 0 .2.03.2.03zm-1.05-.1s.16.02.29-.07c.13-.1.28-.22.36-.23l.18.02s-.11-.05-.2-.05a.5.5 0 0 0-.25.06c-.08.05-.12.14-.2.2a.56.56 0 0 1-.18.06zm-.03.22h-.06l-.13-.08c-.07-.04-.17-.06-.17-.06s-.02 0 0 0l.17.07c.06.03.11.09.12.1 0 0 .02.03.07.03.04 0 .05-.02.05-.04s-.03-.02-.05-.02zm.11-.16s.07.03.18.03c.23 0 .37-.16.52-.22.15-.06.23 0 .23 0v-.02a.3.3 0 0 0-.17-.05c-.25 0-.49.16-.6.2a.64.64 0 0 1-.16.06zm2.45-1.75c-.08.08-.2.34-.24.4-.06.08-.12.1-.15.13l-.14.18c-.02.03-.02.02-.04.03-.01.02-.02.02 0 .01.03 0 .04-.02.08-.07.03-.04.03-.06.1-.11.05-.06.16-.12.22-.19.05-.06.17-.32.22-.39.07-.07.18-.1.18-.1s-.09-.03-.23.11zm-.4.49s0-.05.06-.12c.06-.06.08-.05.12-.15.05-.1.07-.2.1-.3.04-.11.1-.21.1-.21s-.05 0-.11.08a1.5 1.5 0 0 0-.21.38c-.05.15-.05.32-.05.32zm-.07.1s.03-.02.03-.14c0-.13 0-.31.03-.4.04-.1.23-.3.23-.3s-.08.01-.2.1c-.1.1-.16.2-.15.3 0 .08.05.18.06.26v.17zm.47-.89l.06-.21c.02-.05.02-.07.12-.18.06-.06.12-.1.14-.2.02-.08.02-.33.02-.33l-.04.07c-.03.04-.01.2-.05.27a1.3 1.3 0 0 1-.16.29v-.25c.02-.13.07-.16.08-.25.02-.08.01-.3.01-.3s-.07.08-.1.16a1.09 1.09 0 0 0-.02.58c0 .06 0 .1-.02.16l-.03.09-.03.11h.02zm-.16-.94s.06.07.05.16c0 .08-.04.2 0 .28.03.09.08.1.09.15l.01.15s.03-.19.01-.24L19 8.09c-.03-.06 0-.2-.02-.3-.02-.08-.09-.12-.09-.12z"/><path fill="#9CA168" d="M15.7 10.51c-.15 0-.23.04-.26.05-.01 0-.03.02-.05 0-.04 0-.07-.06-.07-.06l-.03-.03-.01.11-.22-.19-.03.13-.02.06-.22-.21v.16h-.06l-.15-.1-.05.01.05.1-.2.01-.04.04-.04.04v.02h.08l.03-.02s.01.05.04.04c.03 0 .12-.07.18-.04.08.04-.1.09-.07.14.01.05.13.03.17.01.03-.02.12-.13.16-.09.05.06-.11.11-.08.17.03.06.12.05.16.02.04-.02.15-.18.17-.15.04.06-.09.12-.06.16.04.05.1 0 .15-.03.05-.03.07-.11.13-.15.06-.03.06-.02.08-.02l.06-.05.15-.06h.08l.04.02.07.01.01-.06s-.09-.04-.15-.04zm-1.2 0l.03-.05-.02-.03-.1-.08a.3.3 0 0 0-.08-.07l-.1-.06-.04-.12-.01-.04-.06.02-.08-.26-.01-.05H14l-.07.16-.06-.1-.02-.22-.05.04-.05.06-.1-.2-.01.01c0 .02-.02.08-.01.12a1.1 1.1 0 0 1-.26-.23l-.04-.1.04-.1.02-.11-.1.04-.01-.25-.02-.08-.11.17-.05-.08v-.15l-.03-.01-.05.09-.06-.12-.01-.2c-.03-.08-.06-.13-.05-.2 0-.07.04-.08.04-.11s-.06.02-.04-.02c.02-.05.17-.14.14-.2-.04-.05-.18.09-.15 0 .04-.09.18-.1.18-.21.01-.08-.13.04-.14 0-.01-.03.08-.11.08-.16s.02-.06 0-.08c-.03-.03-.12.1-.12.1l-.09-.03-.03.13-.03.11-.11-.07.03.14.03.13-.12-.03.06.11.08.09.05.07.04.02.05.04.01.08.03.08v.25c-.02 0-.06-.03-.07-.01-.02.02.07.09.05.1-.01.02-.14-.02-.14.02-.01.04 0 .09.08.1.07.02.23.06.2.1-.02.03-.2-.1-.2 0 .01.08.08.12.12.14.05.02.22 0 .21.04 0 .04-.14-.01-.15.05-.02.06.09.07.11.07l.13.01.19.18c.05.05.17.13.2.15-.04 0-.1 0-.12.02-.01.03.27.13.19.16-.08.03-.17-.09-.2-.01-.02.07.06.13.1.15.05.03.3 0 .25.07-.05.05-.23-.04-.23.02 0 .07.12.18.18.17.06 0 .13-.1.16-.04.03.05-.05.07.01.09.06.01.1-.07.18-.05.07.01.17.06.24.11l.12.12z"/><path fill="#717732" d="M15.47 10.8c.04 0 .05.02.06.02l.14-.1c.07-.04.17-.06.17-.06s-.11.04-.17.08c-.08.05-.14.08-.14.1 0 0-.03.02-.07.02-.04 0-.06-.02-.06-.04 0 0 .03-.03.07-.03zm.37-.2h-.05a.19.19 0 0 0-.12-.04.27.27 0 0 0-.17.08l-.06.05.08-.05a.32.32 0 0 1 .16-.05.1.1 0 0 1 .1.03h.06v-.01zm-2.2-.9v-.03a.7.7 0 0 1-.1-.05l-.22-.16a5.36 5.36 0 0 0 .3.24h.02zm1.55 1.1s.03-.02.07-.09l.08-.1-.03-.06v-.05s0 .04.04.06l.05.04s.05 0 .06-.02c0 0 0-.02-.02-.02h-.04c-.06-.03-.08-.11-.12-.11-.03 0 0 .09-.02.09-.05 0-.1-.2-.22-.2-.08 0-.1.01-.1.03 0 .02.1.14.07.15-.04.02-.16-.18-.24-.18-.09 0-.1.03-.09.05 0 .02.1.03.07.1-.02.05-.1-.1-.18-.09-.08 0-.09.01-.1.04 0 .02.04.05.02.06 0 0-.06 0-.1.03l-.1.1s.06-.07.13-.08h.24l-.05-.03-.04-.07.07.06.08.06.08.01c0 .01 0 .03-.03.06l-.07.07.08-.07c.02 0 .07-.05.07-.05h.06l-.03-.06-.08-.12.1.1c.04.06.03.1.05.1h.06c.02 0 .02.03-.01.07a.48.48 0 0 0-.05.11l.06-.08c.04-.04.05-.08.07-.08h.06l-.03-.07c-.03-.05-.03-.12-.03-.12s.02.06.06.11l.05.08h.08c0 .03-.01.04-.03.08l-.05.1zm-.94-.54l.08.02s-.08-.04-.1-.1c-.02-.07 0-.2-.03-.2s-.05.1-.08.08c-.03-.02.01-.19-.02-.26-.04-.08-.12-.13-.14-.1-.02.03-.01.18-.06.15-.05-.03 0-.17-.01-.23-.02-.06-.05-.1-.08-.1-.03.02 0 .14-.04.14s-.03-.08-.05-.09c-.02 0-.03.02-.04 0-.01-.02 0-.07-.03-.07-.02 0-.02.05-.01.08l.03.08c.01.01.05.03.04.05l-.04.02h-.08l.08.02.07.01.07.09.01-.1v-.12l.02.12-.02.13s.05.04.04.05h-.13l-.14-.01.13.04.17.01.07.1s.04-.07.05-.14V9.8l.01.12-.02.17-.08.04-.16.02s.1.02.17 0c.06-.01.07-.03.1-.02l.03.03.06.04-.05.03-.07.03.1-.03.05-.02.02.02v-.06l-.02-.08.04.07a.4.4 0 0 1 0 .07l.06.03zM12.9 8.7s.02-.07.02-.16a.62.62 0 0 0-.07-.22l-.02-.03.04-.06-.05.04s-.03 0-.05-.02l-.04-.04.05.03h.03l-.02-.08-.08-.04a.61.61 0 0 1-.11-.08l.12.06.07.02s.05-.01.07-.03l.08-.05-.08.04h-.07l-.02-.1-.04-.05-.07-.12.07.08.06.06.07-.05.12-.08-.11.06c-.07.03-.08.02-.08.02v-.06l.04-.07c0-.02-.02-.01-.03-.03l.02-.12v.06c0 .02 0 .04.02.04.03 0 .15-.11.16-.14.02-.02.04-.08-.02-.05-.07.02-.05.07-.1.07-.02 0-.03-.07-.05-.05-.02.01-.07.05-.07.1-.01.05 0 .12-.02.14-.03.02-.05-.08-.1-.07-.05.02-.06.09-.05.11 0 .03.12.16.08.18-.03.01-.12-.11-.17-.03-.04.09.15.17.17.2.03.02 0 .02.04.06.03.05.08.06.1.09.03.03.1.16.1.25v.12zm.51.75s-.04-.06-.03-.15c.02-.09.08-.25.06-.27-.02-.02-.09.1-.1.07-.02-.02.03-.18 0-.25-.02-.07-.03-.1-.08-.1-.06 0-.08.2-.11.16-.03-.03.01-.12 0-.16-.02-.05-.03-.06-.06-.06-.03.01-.04.1-.06.1-.02 0-.06-.1-.1-.1-.04.02.1.2.1.2s.03-.02.04-.05l.02-.07s.02.06 0 .09l-.01.07h-.1a.39.39 0 0 1-.1-.03s.04.03.1.04l.12.04a2.54 2.54 0 0 0 .09.11L13.2 9l.06-.15-.03.17-.03.13-.11-.01-.16-.04a1.64 1.64 0 0 0 .28.09l.06.08.04-.06.05-.08-.03.1-.04.06h-.18l.11.03.08.01s0 .03.03.06l.06.06z"/></g><path fill="#FFF" fill-rule="nonzero" d="M15.74 11.09l-.07-.05-.05-.02h-.01l.03-.09.24-.23.04-.23h.15v.32l.04.02.27.16v.07l-.04.01-.03.02-.1.01-.18-.13-.08-.08-.13.18-.08.04z"/><path fill="#30C2DC" fill-rule="nonzero" stroke="#0872A7" stroke-width=".7" d="M17.07 10.02s-.16-.06-.14-.12c0-.05.36-.15.36-.15v-.09s-.05 0-.14.03c-.08.03-.22.06-.37.06a80.94 80.94 0 0 0-1.5-.1c-.17 0-.27-.25-.27-.25l-.08.01s.02.12-.02.14c-.08.02-.6-.27-.6-.27l-.03.12s.32.17.3.24c0 .06-.1.06-.1.06l.04.07c.02 0 .54.03.55.18 0 .07-.13.1-.13.1l.04.06v.02s.29 0 .37.05c.08.04.12.1.22.16s.75.05.86.02c.11-.04.19-.17.38-.23l.25-.06.01-.05z"/><g fill="#F9AA51" fill-rule="nonzero" stroke="#953220" stroke-linecap="round" stroke-linejoin="round" stroke-width=".7"><path d="M16.06 9.58l-.04-.02h-.27l.15.43.18.26.07.02h.13l.03-.08-.06-.41-.19-.2z"/><path d="M15.57 9.6v-.04h.19s.1.12.13.2c.03.08.07.21.12.3.04.08.14.21.14.21h-.18l-.08-.03-.25-.39-.07-.24z"/><path d="M15.47 9.55h.1c.02.01.13.11.18.24.04.12.02.14.08.27s.14.22.14.22l-.27-.01c-.1-.02-.13-.02-.15-.04a.4.4 0 0 0-.08-.06h-.1l.03-.14-.03-.3v-.16l.1-.02zm1.02.08l-.16-.06-.3-.02.01.16c.02.07.07.25.12.33l.12.22c.03.03.2-.05.2-.05l.12-.01-.02-.13-.01-.03.02-.36-.02-.05h-.08z"/></g><g fill-rule="nonzero"><path fill="#8CBEBF" stroke="#04534E" stroke-width=".7" d="M16.98 9.23l-.13.13s.29.16.51.16a.9.9 0 0 0 .5-.22.45.45 0 0 0-.03-.24c-.03-.05-.19-.17-.24-.16-.06 0-.16.08-.26.17-.1.1-.08.17-.22.17l-.13-.01z"/><path fill="#0C8489" d="M16.94 9.28s.31.05.4-.03c.1-.08.19-.23.25-.27.06-.03.1-.03.1-.03l.06.05.08.06.02.15v.08l-.1.08-.17.08-.17.05h-.14l-.3-.09-.07-.05-.02-.02.06-.06z"/><path fill="#8CBEBF" stroke="#04534E" stroke-width=".7" d="M14.35 8.74s.03-.27-.18-.46c-.22-.18-.36-.14-.43-.07s-.14.3.09.5.51.13.51.13v-.1z"/><path fill="#0C8489" d="M13.69 8.46s0-.15.06-.2a.3.3 0 0 1 .41.14c.11.22.12.33.09.43h-.12l-.19-.07-.15-.12-.1-.18z"/><path fill="#8CBEBF" stroke="#04534E" stroke-width=".7" d="M15.17 8.92s-.22-.32-.56-.34c-.27-.01-.36.23-.35.3.01.08.11.24.48.26.36.03.42-.17.43-.18.02 0 0-.04 0-.04z"/><path fill="#8CBEBF" stroke="#04534E" stroke-width=".7" d="M15.1 9.04c0-.1.15-.35.33-.35.07 0 .21.04.33.1.1.04.13.09.19.1.06.02.16 0 .16 0l.22-.02-.17.25-.06.05s-.06.11-.21.17c-.16.06-.42.02-.54-.01-.12-.03-.25-.14-.25-.29z"/><path fill="#04534E" d="M15.1 9.04h.01l.03-.1a.53.53 0 0 1 .11-.16.26.26 0 0 1 .17-.07c.04 0 .1 0 .15.02l.18.06.1.07.1.04.08.01h.08l.2-.02-.16.22-.06.06s-.06.1-.2.16a.55.55 0 0 1-.2.03c-.13 0-.26-.03-.33-.04a.37.37 0 0 1-.17-.1.25.25 0 0 1-.08-.17h-.02c0 .07.03.14.08.19a.4.4 0 0 0 .18.1c.08.02.2.04.34.04.07 0 .14 0 .2-.03a.41.41 0 0 0 .22-.17h-.01l.06-.05.19-.27-.24.02a.71.71 0 0 1-.16 0 .24.24 0 0 1-.08-.04l-.1-.07a1.27 1.27 0 0 0-.34-.09.24.24 0 0 0-.14.04.5.5 0 0 0-.2.32z"/><path fill="#0C8489" d="M16.15 9.08l-.06.01c-.02 0-.5-.3-.65-.28-.16.01-.3.08-.3.23 0 .16.03.16.06.2.03.04.33.1.33.1h.18l.14-.01.13-.07.07-.06.05-.05.05-.07z"/><path fill="#0C8489" stroke="#04534E" stroke-width=".7" d="M16.01 9.76c0 .02.03.04.05.04h.07l.16-.01.05-.07.03-.14.05-.05.14-.08.13-.04h.08l.1-.04.09-.04.03-.06.04-.08-.04-.1-.08-.12-.15-.06h-.12l-.14.05-.24.06s-.13.05-.18.16c-.06.1-.06.13-.07.26v.32z"/><path fill="#8CBEBF" d="M16.08 9.7c.04 0 0-.07.06-.16a.9.9 0 0 1 .13-.2h.04c.02 0 .05-.03.05-.03 0-.01 0-.06.04-.1l.12-.08h.05c0 .01-.02.03 0 .04.02 0 .06 0 .07-.03V9.1s.04-.02.09-.01c.05 0 .06 0 .06.03 0 .02-.02.02-.02.03v.03c.01 0 .02.04.05.04.04 0 .05-.02.05-.02l.01-.02v-.05c.02.01.07.08.09.05.02-.03.02-.07 0-.08l-.07-.12-.14-.05-.18.02-.17.1-.15.08s-.01.13-.04.1c-.03-.02-.07-.08-.08-.06l-.06.16a.98.98 0 0 0-.06.25c0 .05.04.12.06.12z"/><path fill="#04534E" d="M16.06 9.79s.23 0 .24-.04c.02-.03-.02-.15.12-.25.14-.1.25-.1.32-.1.08-.01.24-.06.27-.2.01-.09-.1-.1-.15-.18-.04-.08-.16-.05-.16-.05s-.13 0-.2.06c-.03.03-.02.08-.04.1-.02.02-.17 0-.19.02v.09c-.02.01-.05-.03-.05-.03l.01-.13.2-.11.22-.12h.15l.15.08.08.08.02.1-.01.1a.32.32 0 0 1-.3.21.62.62 0 0 0-.3.11c-.06.04-.1.24-.1.26 0 .02-.28 0-.28 0z"/></g><path fill="#A8AC71" fill-rule="nonzero" d="M14.48 6.2s-.16.02-.28 0c-.12-.02-.1-.32-.1-.32 0-.01-.06-.08-.05-.15 0-.07.22-.24.25-.25l.06.01s.06-.05.08-.05l.03.04c0 .01-.08.06-.09.09 0 .03 0 .07-.02.1l-.07.1v.06c.03.01.1 0 .16-.02.06-.03.08-.07.1-.06 0 0-.04.07-.1.1-.08.03-.12.06-.15.06 0 0-.04.08.07.09.12 0 .18-.03.18-.03l-.07.24zm-.65.7s.09.04.09.14-.1.18-.1.35c0 .17.03.18.26.36 0 0 .06.06.07.11.01.06.05.39.27.39.22 0 .25-.14.25-.14l-.09-.14s-.08.02-.12.01a.15.15 0 0 1-.1-.09c-.02-.05-.03-.18-.07-.23-.09-.14-.25-.17-.26-.31 0-.15.1-.16.08-.34-.03-.17-.24-.25-.24-.25l-.08-.04-.03.18h.07z"/><path fill="#A8AC71" fill-rule="nonzero" d="M14.57 7.62l-.04-.03c-.02-.02-.14-.12-.12-.4.02-.3.48-.47.5-.6.04-.14.14-.2-.22-.48l-.09.1.15.11s.04-.02.04.03c0 .04-.04.07-.05.1-.01.04-.24.2-.26.21l-.13.1s-.05.06-.1.18c-.06.13-.04.28-.04.28s0 .34.36.4z"/><path fill="#FFF" fill-rule="nonzero" d="M13.86 7.21l-.01.03s.05-.03.1-.02c.04 0 .1.05.1.05v-.04s-.06-.05-.1-.06c-.03 0-.09.04-.09.04zm.03-.25l.02.01s0-.04.06-.06c.06-.03.09 0 .09 0s-.01-.04-.04-.05c-.02 0-.05 0-.08.02s-.05.08-.05.08zm.2.19s-.03-.06-.08-.07c-.04-.01-.1.02-.1.02l-.01.03s.06-.03.1-.02a.1.1 0 0 1 .07.08l.02-.04zm-.22-.23l.02.03s-.01-.07.02-.1l.06-.04-.03-.01s-.05.02-.06.05a.12.12 0 0 0-.01.07zm-.02-.1c.01-.03.06-.04.06-.04l-.01-.01h-.03s-.03.01-.04.04c-.02.04-.02.09-.02.09l.03.01v-.09zm.34-.83l.06-.02s-.05.06-.03.13l-.04.1h.03l.02-.08c.03.06.08.1.08.1l.05-.01s0-.06.02-.1c.05.05.1.06.1.06v-.02s-.06-.03-.09-.07a.18.18 0 0 1 .08-.07l.03.02h.01l-.02-.04h-.03l-.08.08a.4.4 0 0 1-.03-.07h-.02s-.05 0-.09.07c0-.05.05-.1.05-.1v-.03l-.1.03a.15.15 0 0 0-.08.05v.03L14.2 6zm.06.09c.03-.04.09-.06.09-.06s0 .03.03.07l-.03.1s-.05-.03-.09-.09v-.02zm-.33.94v.04s.04-.05.09-.05c.05 0 .1.05.1.05L14.1 7s-.05-.04-.09-.04c-.04 0-.1.06-.1.06zm.94-.5a.44.44 0 0 1-.02-.05l.02-.01a.55.55 0 0 0 .07-.07l-.01-.03h-.13c0-.01 0-.05.02-.08l.02-.06-.02-.02s0 .02-.04.03c-.04 0-.12-.04-.12-.04v.02l.11.03c.02 0 .04 0 .05-.02l-.02.06-.01.04v.05h.06l.08.01s-.04.05-.08.06h-.01l-.05-.06v.02l.03.05h-.06l-.02.02v.1a1.17 1.17 0 0 1-.08-.02l-.01.01-.02.01-.02.14c-.06-.01-.1-.05-.1-.05l-.02.01v.14c-.05-.01-.1-.06-.1-.06l-.03.02.03.19v.01h-.03a.14.14 0 0 1-.1-.05l-.01.04s.02.12.09.17l.01.01a.29.29 0 0 1-.13.06v.04a1.95 1.95 0 0 0 .1.06c-.03.03-.07.04-.07.04l.01.03.08-.06.08.02v-.02l-.06-.01.06-.09v-.04l-.05-.02c.08-.06.08-.08.08-.08l.02-.03s-.03-.01-.05-.05a.95.95 0 0 0 .13-.04h.01s-.03-.05-.04-.12l.12.03.02-.02-.02-.1h.16s-.05-.09-.04-.14a3.4 3.4 0 0 1 .17 0l.01-.02s-.06-.04-.07-.07zm-.46.67l-.06.09-.01.01-.03-.01-.06-.06.11-.07.05.04zm.03-.14l-.08.09-.02-.02c-.04-.05-.08-.1-.08-.17 0 0 .03.05.1.05l.04-.01.04.06zm.1-.1l-.12.02-.01-.02c-.02-.07-.02-.17-.02-.17s.04.03.11.05l.03.11zm-.03-.14V6.7s.04.03.1.04l.02.1-.12-.02zm.26-.1s-.05.02-.13.01v-.16l.1.04c0 .07.03.12.03.12zm0-.13h-.01v-.12s.04.01.07 0l.02.06.05.06h-.14zm-.34.81v-.02s-.04.03-.05.06h-.02a6.06 6.06 0 0 1-.09-.04l.01.02.08.03h.01l-.02.07v.01l.03-.07h.05v.04l-.02.06.02.01h.09l-.02-.01h-.08l.02-.06.01-.03-.01-.04-.05.01.04-.04zm-.5-.05c.06 0 .11.03.11.03v-.02s-.05-.06-.1-.06-.1.05-.1.05v.06s.04-.06.1-.06zm.6.85l-.13.02s.02-.02.03-.07c.12-.03.14-.1.14-.1V8s-.04.07-.13.1l.04-.14h-.03l-.09.07c.03-.06.03-.12.03-.12v-.03s-.04.03-.09.04h-.02l.08-.14-.01-.02s-.04.1-.08.14l-.01.02-.1-.05v.02l.09.04a1.2 1.2 0 0 1-.06.05v.05l.13.02a.32.32 0 0 1-.09.09l.02.02.17-.02a.41.41 0 0 1-.06.08s.1 0 .17-.03a.2.2 0 0 0 .08-.07l-.02-.02s-.01.05-.07.08zM14.2 8l.05-.07c.07.02.09 0 .09 0s.01.03-.03.1c-.05 0-.11-.03-.11-.03zm.06.13l.06-.07v-.01c.07 0 .11-.06.11-.06l-.02.12c-.08.03-.15.02-.15.02zm-.08-.43a.5.5 0 0 1 .14.03V7.7l-.13-.02c.02-.05.06-.07.06-.07l-.02-.02s-.02 0-.06.07v.01a.18.18 0 0 0-.12.04v.01l.1-.02-.03.1.01.04.05-.14zm-.13-.27l-.02-.03s-.06-.03-.12 0c-.05.02-.08.08-.08.08l.02.04s.03-.06.08-.08h.12zm.13.1l-.05-.02s-.07.02-.1.05c-.02.02-.04.1-.04.1l.03.04s.02-.07.05-.1l.1-.07zm-.17-.02l.08-.04-.03-.02s-.06 0-.1.04l-.07.1.03.03.09-.1zm.22-1.95c.04-.05.07-.05.09-.05h.02a.4.4 0 0 0-.03.1c-.01.06-.03.06-.05.1-.01.02-.05.07-.05.12 0 .04.01.06.02.07.02 0 .04-.02.04-.03h-.03v-.04c-.01-.03.02-.1.04-.12.01-.02.04-.05.04-.09 0-.04.03-.11.03-.11l-.05-.01a.12.12 0 0 0-.09.05c-.02.03-.07.05-.07.05s.06 0 .1-.04z"/><path fill="#78732E" fill-rule="nonzero" d="M14.64 8.17a.4.4 0 0 1-.21.06.3.3 0 0 1-.15-.04.17.17 0 0 1-.07-.07l-.04-.18a.47.47 0 0 0-.05-.16c-.04-.05-.1-.09-.16-.14a.32.32 0 0 1-.13-.26.5.5 0 0 1 .05-.2c.02-.06.05-.1.05-.15V7a.16.16 0 0 0-.07-.09l-.05-.03-.04-.01.03.02c.02 0 .04.02.06.04.03.02.05.04.05.07v.02c0 .04-.02.08-.04.14a.51.51 0 0 0-.05.24c0 .12.07.19.13.24.06.05.13.09.16.14.03.05.04.14.06.22 0 .04.01.08.03.11.02.04.04.07.07.09.06.03.11.04.16.04.12 0 .22-.07.22-.07l-.01-.01z"/><path fill="#78732E" fill-rule="nonzero" d="M14.54 7.95s-.02.02-.05.02a.1.1 0 0 1-.08-.04.18.18 0 0 1-.05-.1.33.33 0 0 0-.04-.14c-.03-.06-.1-.11-.15-.16-.07-.05-.12-.1-.13-.15v-.03l.03-.14a.47.47 0 0 0 .04-.2c0-.1-.07-.16-.14-.2a.62.62 0 0 0-.12-.07v.02a.6.6 0 0 1 .14.08c.05.04.1.1.1.17v.03c0 .06-.01.12-.03.17a.43.43 0 0 0-.04.14v.03c.02.06.08.11.14.16.06.05.12.1.15.16l.04.14c0 .04.02.07.05.1a.12.12 0 0 0 .15.02z"/><path fill="#816C2A" fill-rule="nonzero" d="M14.74 6.31c.02 0 .03.01.03.02v.04h.01c-.07.15-.21.22-.34.31a.6.6 0 0 0-.17.17.52.52 0 0 0-.07.3c0 .22.1.34.19.4.09.07.19.08.23.08h.01l.06-.01a1.56 1.56 0 0 1 .21 0l.04.01.01.03-.03.05a.17.17 0 0 1-.03.03v.01l.04-.03.03-.06v-.04l-.06-.02h-.08l-.19.01h-.01c-.04 0-.14 0-.23-.06s-.17-.18-.17-.4v-.02c0-.12.02-.2.07-.27.06-.1.16-.17.26-.23.1-.07.19-.14.24-.25v-.06l-.05-.02v.01z"/><path stroke="#78732E" stroke-width=".3" d="M14.48 6.2s-.16.02-.28 0c-.12-.02-.1-.32-.1-.32 0-.01-.06-.08-.05-.15 0-.07.22-.24.25-.25l.06.01s.06-.05.08-.05l.03.04c0 .01-.08.06-.09.09 0 .03 0 .07-.02.1l-.07.1v.06c.03.01.1 0 .16-.02.06-.03.08-.07.1-.06 0 0-.04.07-.1.1-.08.03-.12.06-.15.06 0 0-.04.08.07.09.12 0 .18-.03.18-.03l-.07.24z"/><g fill-rule="nonzero"><path fill="#AB6D29" stroke="#4D2A15" stroke-width=".51" d="M15.92 4.95s-.3-.06-.3.2c0 .08.02.1.08.13.07.01.2.02.3.12.12.1.13.17.13.23s-.03.11-.03.11l.07.34.07.25.2-.12.13-.37-.16-.67-.49-.22z"/><path fill="#4D2A15" d="M16.23 6.24s.1-.04.13-.13c0-.02-.1-.13-.11-.13l.09.06.06.03s.05-.12.03-.14a.24.24 0 0 0-.09-.12c-.04-.03-.1-.02-.1-.02s.08-.03.12 0l.05.04c0-.01 0-.13-.03-.17-.02-.04-.03-.05-.08-.06h-.1s.06-.05.12-.03c.05 0 .05.04.06.03l-.04-.13a.3.3 0 0 0-.1-.08h-.1s.04-.04.09-.03c.05 0 .05.02.06.02l-.04-.03c-.03-.03-.18-.1-.18-.1h-.14s0-.03.04-.04h.05a.55.55 0 0 0-.12-.04h-.1l-.13.02.03-.04a.15.15 0 0 1 .06-.03c.05-.01-.02-.05-.02-.05l.03-.05.17.01.36.21.17.15.11.27-.03.47-.24.2h-.1l.02-.1z"/><path fill="#8F4620" d="M16.27 6.28l-.08.02.05.33.31.53.16-.03.06-.1.04.02c.02.02.08.13.13.15.06.02.08.01.13.05l.22.3-.01-.11-.05-.15-.07-.1v-.03h.08l.05.03.09.07.04.05.02.05.01.05.02.07.05.1.05.09.02-.04-.03-.1-.08-.27-.05-.1.08.06c.02 0 .08.1.08.1l.04.1.03.08.02.08.03.08.05-.03-.01-.06-.04-.18-.02-.2s.02 0 .05.03c.03.03.05.1.05.1l.02.18.03.17.05.16.06.1.04.07v-.1l-.07-.7v-.03s.02 0 .04.03l.05.09.02.1v.08l.02.14.02.16.07.16.04.1.02-.11-.03-.75.01-.02.06.05c0 .02.03.05.03.05l.03.16.02.47.01.12.14-1.23.09-.02v-.02l-.05-.05-.14-.22-.1-.2-.17-.32-.28-.35-.23-.18-.08-.06.01-.04.05-.08h-.04l-.1.01-.1-.03-.19-.13-.2-.1-.12-.04-.3-.07-.28-.04h-.13l-.12.02s-.06.02-.08.06c-.02.04-.02.06-.01.12 0 .05.04.08.12.11.08.03.27.16.27.16l.1.1.02.04.01.03.06.49-.12.26-.09.05z"/><path fill="#4D2A15" d="M18.4 8.17l-.07-.2-.02-.15-.02-.4v-.14l-.08-.1-.03-.03.02-.01.03.01c.01-.01 0-.08-.03-.2-.02-.1-.16-.36-.16-.36l.01.01.04.04.08.07.18.06.1.02.06.12s.05.22.04.33c0 .1 0 .2-.05.3-.04.11-.05.46-.06.51l-.02.1-.02.02zm-.7-.52s.01-.11-.02-.21c-.02-.1-.04-.18-.08-.2a1.53 1.53 0 0 1-.18-.23l-.17-.22v-.14l.1.06.1.06.04.16.05.12.08.1.05.05.03.18.02.1.04.14-.01.07-.04-.04zm-.12 0l-.05-.04s.03-.03.02-.08a.68.68 0 0 0-.06-.17l-.04-.1a5.4 5.4 0 0 0-.2-.18l-.16-.14-.08-.03-.02-.18s.06.08.1.1l.08.02.13.22.04.06.11.09.05.1.04.1.04.15v.1-.02z"/><path fill="#4D2A15" d="M18.04 6.59s.13.16.17.01c.01-.07-.05-.2-.05-.2s-.12-.22-.17-.27l-.25-.32-.15-.07.05.09s.12.11.26.36c.15.25.12.4.12.4h.02zm-.78-1.01s.27.23.44.48c.17.24.24.4.2.44-.04.03-.15-.02-.2-.09-.04-.07-.07-.19-.23-.37-.17-.19-.24-.21-.24-.21l-.12-.2.15-.05zm-.14.55a3.43 3.43 0 0 0 .4.42l.07.06s-.04-.07-.02-.09c.02-.02.05-.01.05-.01l-.5-.53v.15z"/><path fill="#4D2A15" d="M16.4 6.68s.11.11.18 0c.07-.1.01-.22.01-.22s.17.25.22.02c0-.04-.1-.2-.1-.2l.04-.04.08.14s.08-.03.08-.13-.08-.23-.08-.23l.08.09s.15 0 .16-.1c0-.09-.13-.19-.13-.19s.1 0 .1-.05c0-.07-.14-.1-.15-.15 0-.04.05-.1.11-.07.07.04.16.07.2 0 .03-.07 0-.09 0-.09l-.1-.02-.15-.08-.12-.04-.12-.02.05.1.03.24v.12l.02.25-.06.2-.03.05-.02.02-.05.11-.08.08-.09.12-.08.1z"/><path fill="#D2A567" d="M16.44 6.79s.04.04.07.02c.07-.02.17-.07.17-.17 0-.06-.08-.11-.08-.13v-.05l.07.02.02.1s.03.03.05.01c.03 0 .11-.07.1-.13 0-.05-.09-.12-.1-.15a.1.1 0 0 1 0-.06l.07.02.02.08s.02.03.06.02c.04 0 .1-.08.09-.1l-.07-.13v-.03l.03.01s.02.01.07 0c.05-.02.1-.05.1-.09 0-.03-.04-.07-.04-.09v-.02h.03l.04.05.01.06-.01.06-.06.06-.06.03H17l.04.06-.02.1-.05.04-.07.05-.01.08-.04.09-.1.05h-.02l-.01.05-.06.09-.1.07h-.08l-.04-.05v-.02z"/><path fill="#202020" d="M17.22 6.84s0 .1.05.17l.2.2c.03.02.05.15.08.25.04.11.05.2.07.23.01.03.04.07.02.07s-.05-.03-.06-.07c-.02-.04-.01-.04-.01-.1 0-.05-.08-.32-.12-.35a1.72 1.72 0 0 1-.28-.27c-.07-.1-.05-.13-.05-.13h.1z"/><path fill="#202020" d="M17.5 7.52c-.04-.07-.05-.14-.06-.19a.58.58 0 0 0-.2-.18c-.02-.01-.07 0-.1-.02a3.78 3.78 0 0 1-.16-.17s-.02.02-.01.03l.2.2c.05.06.08.17.12.26.04.08.02.06.03.1 0 .05.03.07.05.07.03 0 .04-.01.03-.02a.45.45 0 0 1-.1-.15c-.03-.07-.06-.21-.11-.26l-.01-.02h.06c.03 0 .18.13.19.17.01.04 0 .05.06.18zm-.23-.87s.1.07.13.07l.06.02a.6.6 0 0 0 .23.44s0 .21.06.36c.06.14.07.31.05.34 0 .03-.06-.08-.09-.18l-.08-.28a.57.57 0 0 0-.11-.19c-.03-.03 0-.02.01 0a.5.5 0 0 1 .11.19c.04.1.05.22.07.22.02 0 .03-.02.03-.04l-.04-.18a.77.77 0 0 0-.05-.2l-.11-.15a.87.87 0 0 1-.1-.24c-.02-.05 0-.04-.02-.05l-.07-.03c-.05-.03-.08-.1-.08-.1zm.78-.06c0-.01.04.07.16.12.13.05.25.04.26.06.02 0 .1.2.1.44 0 .25-.05.23-.08.44-.04.21-.04.65-.07.71 0 .03-.02.04-.03.08-.02.04 0 .12-.03.12-.04 0-.05-.06-.05-.1 0-.02.04-.14.04-.26s-.02-.13-.04-.27c-.02-.15-.02-.6-.03-.64l-.1-.13s.09.05.1.1c.03.07.03.57.05.67.02.1.02-.02.03-.08l.03-.44c0-.13-.06-.41-.1-.46l.04.1.04.02.04.02-.04-.01c-.02 0-.03-.02-.03-.02.03.08.06.19.06.35 0 .23-.03.72 0 .72.04.01.03-.26.07-.49.04-.22.09-.25.07-.43-.02-.18-.06-.38-.1-.4-.04-.03-.15-.02-.25-.08s-.15-.13-.14-.14z"/><path fill="#202020" d="M16.48 6.84s.04.02.08 0 .15-.11.15-.15v-.07s0 .02.03.02.12-.06.13-.1V6.4c-.01-.02.02.02.04 0s.1-.08.1-.13a.2.2 0 0 0-.04-.11h.07c.02-.01.1-.06.1-.11s-.03-.13-.1-.14h.1c.05-.02.07-.05.07-.1 0-.06-.1-.18-.12-.19-.01 0 .1.04.14-.01.03-.05.04-.09.03-.11-.01-.03-.04-.04-.04-.04s.06.02.13-.02c.07-.03.13-.08.16-.08.04 0-.1.07-.1.11-.01.02.03.05.1.1.03.02.14.02.14.03h-.09c.08.07.17.14.25.24l.04.03h.06l-.07.01.14.2.04.04.05.01c0 .01-.06 0-.05.01l.14.26s-.13-.23-.3-.42c-.16-.18-.2-.2-.2-.19-.02.02.12.18.18.3l.14.25s-.17-.34-.4-.55c-.23-.2-.25-.24-.28-.23-.02 0-.04.16-.03.2.02.02.19.15.33.32s.33.46.33.46-.13-.21-.35-.44c-.22-.24-.3-.29-.32-.29-.02 0-.02.05-.05.08-.02.04-.07.03-.08.05 0 .01.19.18.23.2l.08.03.06.04-.07-.02h-.05l.17.2.08.02.08.05-.1-.04-.04.01.1.16s-.17-.2-.31-.33c-.15-.13-.21-.16-.22-.15 0 0 0 .04-.04.05l-.07.03c0 .02.13.14.23.24l.17.2-.2-.19c-.1-.1-.15-.13-.16-.13-.01 0-.01.06 0 .07l.19.24s-.22-.27-.24-.27l-.04.05c-.01.02-.07.02-.07.04s.3.32.3.33c0 0-.26-.22-.27-.2l.1.22-.16-.22c-.01 0 0 .03-.05.06-.03.04-.08.02-.08.04l.2.25s-.21-.22-.22-.21v.03c.01.06.06.16.05.17l-.08-.14c-.02 0-.02.04-.05.06-.03.02-.06.01-.06.03l.05.07c.02.03.03.1.03.1l-.05-.1c-.03-.04-.06-.06-.08-.06l-.04.02-.02-.05z"/><path fill="#202020" d="M18.47 6.77s.07 0 .08-.02c0-.02-.03 0-.09-.07s-.22-.53-.4-.77c-.28-.38-.55-.55-.55-.55s.32.18.57.54c.25.37.3.65.38.73.07.07.14.09.13.1 0 .03-.01.04-.04.05h-.1l.02-.01zm-2.1-.1h.02c.01 0 .1-.08.1-.1l-.08-.05c-.03-.03-.04-.08-.04-.08l.06.07c.02.01.06.02.07.01.02-.01.14-.1.14-.14 0 0-.04 0-.08-.03s-.04-.08-.04-.08.02.04.06.06c.04.02.07.01.08 0 .01-.01.1-.13.09-.16 0 0-.05 0-.08-.02-.04-.03-.06-.1-.06-.1s.03.06.07.07c.05 0 .1-.02.1-.06 0-.03.03-.16 0-.2 0 0-.07.03-.11 0-.05-.02-.06-.07-.06-.07s.03.05.08.05c.05.01.08-.02.08-.04a.2.2 0 0 0 0-.13c-.02-.04-.05-.04-.05-.1 0 0-.02.03-.08.03-.07 0-.1-.08-.1-.08s.05.05.1.05.07-.05.07-.08c0-.04-.03-.06-.04-.1l-.02-.07c-.01 0-.03.04-.1.03-.06-.01-.07-.06-.07-.06s.05.04.08.03c.04 0 .06-.02.06-.04 0-.03-.01-.07-.1-.14-.08-.08-.15-.12-.15-.12l.18.11c.07.06.11.12.11.12s.08.02.09 0c0-.03 0-.06-.02-.1a.67.67 0 0 0-.09-.12s.07.06.1.12.02.1.02.11c0 .02.15.07.18.05.03-.02.02-.06 0-.1l-.06-.08.06.08c.02.04.04.07.03.1l-.02.03.1.06c.04.02.1.05.1.03a.2.2 0 0 0 .01-.1c0-.04-.03-.11-.03-.11s.04.07.04.12v.1c.02.02.05.02.05.02s-.03.02-.09 0c-.06-.01-.33-.15-.35-.14l.2.16c.06.06.09.12.09.12l-.1-.07a.91.91 0 0 0-.2-.09c-.01.01.05.03.06.04l-.05.07c0 .02.21.17.2.18 0 .02-.05.06-.06.05l-.1-.07c0 .02.05.07.05.08 0 0-.04.03-.03.06 0 .02.11.11.11.14 0 .03-.06.06-.05.08l.07.09-.08-.06-.06-.06-.05.1c0 .03.06.05.06.1v.1c-.01 0-.08-.08-.1-.08 0 0-.02 0-.03.03l-.05.1c0 .01.07.03.07.08 0 .06-.04.1-.04.1l-.1-.1-.1.11c0 .01.07.06.06.08h-.08a.31.31 0 0 1-.08.03l-.02-.02z"/><path fill="#202020" d="M17.51 5.36l.02-.04c.01-.01.07-.07.05-.09l-.14.01c-.04 0-.07 0-.2-.1 0 0-.4-.28-1.03-.32-.2-.01-.29.06-.3.1 0 0 .06-.08.26-.08.08 0 .72.05 1.04.31.02.01.13.12.23.1.1 0 .12-.02.12 0l-.04.07a.4.4 0 0 0-.01.05zM15.82 7.6l.74-.39.35.5-.64.16-.33.03-.17-.12z"/><path fill="#4D2A15" d="M16.8 7.81l.94.8-.11.06-.21-.06-.45-.44L16.8 8z"/><path fill="#4D2A15" d="M18 8.45l-.54-.4-.66-.5.02.24.76.7.25.12.13-.04.06-.07-.03-.05z"/><path fill="#803F1D" d="M16.8 7.88s.27.3.48.46c.2.15.39.32.43.3.04-.03.03-.06.03-.06l-.94-.76v.06z"/><path fill="#4D2A15" d="M17.46 8.65l-.1.07-.1-.04-.56-.58.02-.1h.08z"/><path fill="#202020" d="M18 8.45s-.08.16-.23.12a7.96 7.96 0 0 1-.96-.8v.07s.83.76.98.79c.16.03.3-.1.28-.12l-.08-.06z"/><path fill="#803F1D" d="M16.72 8s.26.34.4.47c.14.12.26.22.31.2.06 0-.03-.07-.03-.07l-.4-.39-.2-.2s-.08-.04-.08 0z"/><path fill="#202020" d="M16.78 8s.67.69.72.7c.11.03.27-.08.27-.08l-.06-.04v.02s-.03.07-.18.04a4.34 4.34 0 0 1-.72-.66l-.03.03z"/><path fill="#202020" d="M17.47 8.67s-.06.08-.14.06c-.08-.01-.12-.07-.12-.07l-.46-.45-.02-.07s.51.53.6.56c.07.02.12-.06.12-.06l.02.03z"/><path fill="#B07229" d="M16.91 7.76l.3.25.12.03c.01.02-.06 0-.06.02-.01 0 .14.13.16.13.02 0 .14 0 .13.02l-.08.01c0 .02.13.12.15.13l.17.01c0 .02-.12 0-.12.03 0 .02.2.15.2.16-.01.02-.24-.15-.25-.14 0 0-.01.06-.03.07v-.1c-.02-.04-.15-.14-.17-.13l-.01.07c-.02 0 0-.07-.01-.1a.63.63 0 0 0-.16-.13c-.02 0 0 .05-.02.06-.01.01 0-.06-.02-.08-.02-.03-.31-.29-.3-.3z"/><path fill="#8B441F" stroke="#5C3A1D" stroke-width=".07" d="M16.34 8.2c0 .02.02.14-.03.15-.06.01-.37-.41-.42-.47 0 0-.2-.12-.2-.15s.21.04.21.04l.42.4.02.03z"/><path fill="#1E2121" d="M15.29 7.02l.46.67.58-.65-.37-.38z"/><path fill="#4D2A15" d="M15.87 6.61l-.02.1.05.18.1.1.1.07.04-.08.02-.1h.03l.07.02.05-.07.08-.13-.02-.05-.02-.04-.12-.2-.03.07-.04.02-.07-.04-.08.11-.1-.04z"/><path fill="#D2A567" d="M16.07 7.83c-.04.02-.12-.02-.17-.07l-.29-.29-.03-.14.1.03.16-.08.03-.05.2-.1.11-.07h.25l.06-.12.1.2c0 .05 0 .23-.02.24-.02.02-.1-.05-.11-.05-.01 0 .06.25 0 .26-.06 0-.16-.1-.16-.1s.04.23 0 .23a.42.42 0 0 1-.23-.11s.06.19 0 .22z"/><path fill="#AB6D29" d="M15.9 7.76c0 .02 0 .03-.05.03a.92.92 0 0 1-.43-.34l-.13-.22.05-.06.42.47.14.12z"/><path fill="#8F4620" d="M15.9 7.76c.01.03-.02.03-.04.03-.03-.01-.13-.05-.3-.24a1.46 1.46 0 0 1-.24-.32v-.08l.05-.02.28.44.25.2z"/><path fill="#D2A567" d="M15.36 6.65l-.05.03-.06.13.02.23.09.13c.04.06.15.19.18.18.03 0 .07-.1.07-.15v-.14l.08.1c.05.06.1.1.12.1.02 0 .09-.14.1-.16l-.18-.44-.08-.04-.29.03z"/><path fill="#DBAD6C" d="M15.2 6.54h.09l.04-.06s-.02.07 0 .11c0 .05.03.05.04.05.01 0 .06 0 .1-.05l.09-.08v.12c.03.05.06.05.1.02l.12-.13.03-.04.05-.04.04-.24-.02-.03-.06.03-.08-.03-.02-.03-.04.07-.04.03h-.03l-.05.01-.02-.04-.01-.04-.03-.01-.1.1h-.07l-.06.1-.04.06-.04.1v.02z"/><path fill="#DBAD6C" d="M15.91 5.92s-.01.28-.1.28c-.07 0-.1-.14-.1-.14s-.01.19-.11.19c-.05 0-.1-.15-.09-.18 0 0-.02.1-.06.14-.1.08-.16.04-.16.03 0-.01.08-.1.09-.2l.04-.03c.02-.03.03-.07.06-.06l.13-.05.06-.07s0 .02.05-.01.06-.07.06-.07l.12.1.01.07zm-.54-.75s.05.08.04.22c-.02.15-.2.27-.2.27l-.29.2h-.12l-.03-.01-.04-.02-.02-.05.04-.05.1-.1.06-.1s.03-.04.03-.1v-.07l.02.04.01.07-.01.09.07-.05.1-.04s.03 0 .04-.06a.68.68 0 0 0 .04-.17v-.08c.01 0 .04.05.04.08l.02.12.04-.05.04-.06.02-.08z"/><path fill="#904720" d="M14.95 5.7h.08a.5.5 0 0 0 .13-.04l.08-.06c.03-.03.14-.1.15-.23 0-.12-.02-.2-.02-.2s.16.17.02.36c-.09.12-.16.16-.16.16s.15-.04.16 0c.01.03 0 .08-.01.1 0 0 .08.01.1.05 0 .03-.1-.03-.18 0a.2.2 0 0 0-.1.06s-.02-.02-.1-.02c-.06 0-.1.03-.13.03-.04 0-.16-.03-.19-.07l.08-.1c.04-.06.1-.04.1-.04z"/><path fill="#F9C83A" stroke="#8F4620" stroke-width=".48" d="M15.27 5.98l-.03-.04s0-.02-.03-.03l-.12-.01-.07.01s-.02.02-.06.01c-.04 0-.12-.04-.12-.04l-.07-.03s-.06-.03-.08-.02a.43.43 0 0 0-.06.06l.01.03h-.03s-.12.07-.14.2c-.02.11.2.3.28.2 0 0-.12-.09-.1-.16.03-.08.09-.12.18-.13.1 0 .1-.02.14-.04.04-.03.12-.05.18 0 .06.07-.22.12-.22.12l.03.05s.34-.12.31-.18z"/></g><path fill="#78732E" fill-rule="nonzero" d="M14.86 6.04a13.41 13.41 0 0 0 .12.11c.04.05.08.12.08.18v.02a.39.39 0 0 1-.11.22c-.09.1-.21.2-.31.28a.8.8 0 0 0-.13.14.27.27 0 0 0-.05.15c0 .06.02.11.05.16a.2.2 0 0 0 .17.08l.24-.02c.07 0 .14.01.2.08.05.06.07.15.07.25a1.06 1.06 0 0 1-.03.24v.02s.04-.12.04-.26c0-.1-.02-.2-.08-.26a.26.26 0 0 0-.2-.09l-.24.03a.18.18 0 0 1-.16-.08.27.27 0 0 1-.05-.14v-.01c0-.07.03-.13.09-.19.08-.09.2-.18.3-.27.1-.1.2-.2.21-.33v-.02c0-.08-.05-.15-.1-.21a.75.75 0 0 0-.1-.1v.02z"/></g></svg>