<svg xmlns="http://www.w3.org/2000/svg" viewBox="0 0 32 16">
  <g fill="none" fill-rule="evenodd">
    <rect width="32" height="16" fill="#FFF" transform="matrix(1 0 0 -1 0 16)"/>
    <rect width="10" height="16" fill="#006847"/>
    <rect width="10" height="16" x="22" fill="#CE1126"/>
    <g transform="translate(13 6)">
      <circle cx="3" cy="3" r="2" fill="#006847"/>
      <path fill="#743D00" fill-rule="nonzero" d="M6,0.75 L3.75,0.75 C3.75,0.335800279 3.41419972,0 3,0 C2.58580028,0 2.25,0.335800279 2.25,0.75 L0,0.75 C0,1.16423341 0.360799155,1.5 0.774965186,1.5 L0.75,1.5 C0.75,1.91423341 1.08576659,2.25 1.5,2.25 C1.5,2.66423341 1.83576659,3 2.25,3 L3.75,3 C4.16423341,3 4.5,2.66423341 4.5,2.25 C4.91423341,2.25 5.25,1.91423341 5.25,1.5 L5.22500112,1.5 C5.63923454,1.5 6,1.16423341 6,0.75 Z"/>
    </g>
  </g>
</svg>
