<svg xmlns="http://www.w3.org/2000/svg" viewBox="0 0 32 16">
  <g fill="none" fill-rule="evenodd">
    <rect width="32" height="16" fill="#FFF"/>
    <rect width="32" height="2" y="1" fill="#CC0001"/>
    <rect width="32" height="2" y="4" fill="#CC0001"/>
    <rect width="32" height="2" y="7" fill="#CC0001"/>
    <rect width="32" height="2" y="10" fill="#CC0001"/>
    <rect width="32" height="2" y="13" fill="#CC0001"/>
    <rect width="16" height="10" fill="#010066"/>
    <path fill="#FC0" fill-rule="nonzero" d="M7.86257875,7.43744946 C6.54200221,7.43744946 5.47147476,6.34611682 5.47147476,4.9999615 C5.47147476,3.65380617 6.54203998,2.56247353 7.86257875,2.56247353 C8.2743288,2.56247353 8.66175382,2.6686304 9,2.85545416 C8.4693822,2.32651804 7.743711,2 6.94291175,2 C5.31763035,2 4,3.34315198 4,5 C4,6.65684802 5.31763035,8 6.94291175,8 C7.743711,8 8.4693822,7.67348196 9,7.14454584 C8.66175382,7.3312926 8.27436657,7.43744946 7.86257875,7.43744946 Z"/>
    <polygon fill="#FC0" fill-rule="nonzero" points="9 3 9.492 4.056 10.604 3.792 10.106 4.845 11 5.572 9.887 5.83 9.89 7 9 6.268 8.11 7 8.113 5.83 7 5.572 7.894 4.845 7.396 3.792 8.508 4.056"/>
  </g>
</svg>
