<svg xmlns="http://www.w3.org/2000/svg" viewBox="0 0 32 16"><g fill="none"><path fill="#CC0001" d="M0 0h32v16H0z"/><path fill="#FFF" d="M0 14.86h32V16H0zm0-2.29h32v1.14H0zm0-2.28h32v1.14H0zM0 8h32v1.14H0zm0-2.29h32v1.14H0zm0-2.28h32v1.14H0zm0-2.29h32v1.14H0z"/><path fill="#010066" d="M0 0h16v9.14H0z"/><path fill="#FC0" d="M6.58 1.14a3.44 3.44 0 1 0 1.86 6.31A3.05 3.05 0 0 1 4.4 4.58a3.05 3.05 0 0 1 4.1-2.85 3.43 3.43 0 0 0-1.92-.59z"/><path fill="#FC0" d="M12.29 6.36l-1.45-.76.43 1.55-.97-1.3-.3 1.58-.3-1.58-.98 1.29.44-1.54-1.45.75 1.07-1.21-1.64.06 1.51-.63-1.51-.64L8.79 4 7.71 2.79l1.45.75L8.73 2l.97 1.29.3-1.58.3 1.58.98-1.29-.44 1.55 1.45-.76L11.22 4l1.64-.06-1.51.63 1.51.64-1.65-.07z"/></g></svg>