<?xml version="1.0" encoding="UTF-8"?>
<svg width="32px" height="16px" viewBox="0 0 32 16" version="1.1" xmlns="http://www.w3.org/2000/svg" xmlns:xlink="http://www.w3.org/1999/xlink">
    <!-- Generator: Sketch 61.2 (89653) - https://sketch.com -->
    <title>NoFlag</title>
    <desc>Created with Sketch.</desc>
    <g id="Page-1" stroke="none" stroke-width="1" fill="none" fill-rule="evenodd">
        <g id="NoFlag" fill="#FFFFFF" fill-rule="nonzero">
            <path d="M31.9787358,13.3648915 L31.9787358,13.4921845 L-0.000350719098,13.4921845 L-0.000350719098,13.3648915 L31.9787358,13.3648915 Z M31.9787358,11.5772336 L31.9787358,11.6774763 L-0.00035113551,11.6774763 L-0.00035113551,11.5772336 L31.9787358,11.5772336 Z M31.9787354,10.3889219 L31.9787354,10.4615508 L-0.00035113551,10.4615508 L-0.00035113551,10.3889219 L31.9787354,10.3889219 Z M31.9787358,9.59689912 L31.9787358,9.64552496 L-0.000350719098,9.64552496 L-0.000350719098,9.59689912 L31.9787358,9.59689912 Z M31.9787358,9.06906003 L31.9787358,9.1014272 L-0.000350719098,9.1014272 L-0.000350719098,9.06906003 L31.9787358,9.06906003 Z M31.9787358,8.71715056 L31.9787358,8.73882754 L-0.000350719098,8.73882754 L-0.000350719098,8.71715056 L31.9787358,8.71715056 Z M31.9787358,8.48267086 L31.9787358,8.49699865 L-0.000350719098,8.49699485 L-0.000350719098,8.48266705 L31.9787358,8.48267086 Z M31.9787358,8.32622218 L31.9787358,8.33587305 L-0.000350719098,8.33587305 L-0.000350719098,8.32622218 L31.9787358,8.32622218 Z M31.9787358,8.22189781 L31.9787358,8.22828236 L-0.000350719098,8.22827685 L-0.000350719098,8.22189239 L31.9787358,8.22189781 Z M31.9787358,8.15248463 L31.9787358,8.15671607 L-0.000350719098,8.15671607 L-0.000350719098,8.15248463 L31.9787358,8.15248463 Z M31.9787358,8.10612819 L31.9787358,8.10880066 L-0.000350719098,8.10880066 L-0.000350719098,8.10612819 L31.9787358,8.10612819 Z M31.9787358,8.07513899 L31.9787358,8.07706926 L-0.000350719098,8.07707197 L-0.000350719098,8.07514159 L31.9787358,8.07513899 Z M31.9787354,8.05424825 L31.9787354,8.05602896 L-0.00035113551,8.05602896 L-0.00035113551,8.05424825 L31.9787354,8.05424825 Z M31.9787354,8.04055363 L31.9787354,8.04233444 L-0.00035113551,8.04233444 L-0.00035113551,8.04055363 L31.9787354,8.04055363 Z M31.9787354,8.03127568 L31.9787354,8.03305639 L-0.00035113551,8.03306591 L-0.00035113551,8.03127568 L31.9787354,8.03127568 Z M31.9787354,8.02479761 L31.9787354,8.02657832 L-0.00035113551,8.02657832 L-0.00035113551,8.02479761 L31.9787354,8.02479761 Z" id="Shape"></path>
            <path d="M0.431963015,15.988843 L0.0159518894,15.988843 L15.9961985,8.00988427 L0.431963015,15.988843 L0.431963015,15.988843 Z M6.32348351,15.9888445 L15.9975161,8.0091986 L15.9973903,8.00978384 L19.3635605,15.9888445 L18.9473832,15.9888445 L15.9972909,8.00968334 L13.047316,15.9888445 L13.047316,15.9888445 L12.6311387,15.9888445 L15.9972909,8.00968334 L15.9971917,8.00948233 L6.73956122,15.9888445 L6.73956122,15.9888445 L6.32348351,15.9888445 Z M25.255138,15.9888445 L15.9971831,8.0091986 L15.9971831,8.0091986 L25.6712157,15.9888445 L25.255138,15.9888445 Z M31.5627264,15.9888445 L15.9971831,8.0091986 L15.9971831,8.0091986 L31.9787358,15.9888445 L31.5627264,15.9888445 Z M31.9787358,13.5061939 L15.9975136,8.00940109 L15.9975136,8.00940109 L31.9787358,13.3786673 L31.9787358,13.5061939 Z M0.0162963847,13.3786673 L15.9975169,8.00940109 L0.0162963847,13.5061939 L0.0162963847,13.5061939 L0.0162963847,13.3786673 Z M15.9949075,8.00958283 L0.0162963847,11.6695235 L0.0162963847,11.5844073 L15.9949075,8.00958283 Z M15.9973487,8.00909515 L15.999873,8.00958283 L31.9787358,11.5844192 L31.9787358,11.6695354 L15.9973487,8.00909515 L15.9973487,8.00909515 Z M0.0162963847,10.4447634 L0.0162963847,10.3883148 L15.9862674,8.01028621 L0.0162963847,10.4447634 L0.0162963847,10.4447634 Z M31.9787358,10.3883148 L31.9787358,10.4447634 L16.0091356,8.01033771 L31.9787358,10.3883148 Z M16.011989,8.01048722 L16.0085131,8.00988427 L16.0291296,8.01125841 L16.0291296,8.01125841 L31.9787358,8.70607868 L31.9787358,8.72293942 L16.0307186,8.01136287 L31.9787358,9.05985181 L31.9787358,9.08501724 L16.0179477,8.01068816 L16.0248994,8.01098967 L16.0085131,8.00988427 L31.9787358,9.59096217 L31.9787358,9.62879153 L16.0155642,8.01058773 L16.011989,8.01048722 Z M15.980534,8.01028559 L0.0162963847,9.62879153 L0.0162963847,9.62879153 L0.0162963847,9.59096217 L15.9667298,8.01119309 C15.9713313,8.01089064 15.9759326,8.01058812 15.980534,8.01028559 Z M0.0162963847,8.70607868 L8.00690774,8.35794641 L15.960374,8.01161103 L15.960374,8.01161103 L0.0162963847,9.08501724 L0.0162963847,9.08501724 L0.0162963847,9.05985181 L15.960374,8.01161103 L15.960374,8.01161103 L0.0162963847,8.72293942 L0.0162963847,8.70607868 Z M31.9787358,8.48059021 L15.9973471,8.00933313 L15.9973471,8.00933313 L31.9787358,8.46944823 L31.9787358,8.48059021 Z M15.9769322,8.00988427 L15.9799115,8.00968334 L15.9858968,8.00993297 L15.9866647,8.00978384 L15.9813018,8.00978384 L0.0162963847,8.48059021 L0.0162963847,8.46944823 L15.9695832,8.00998478 L0.0162963847,8.31950633 L0.0162963847,8.31201429 L15.9684908,8.00998478 L0.0162963847,8.21217561 L0.0162963847,8.20721056 L15.9769322,8.00988427 Z M31.9787358,8.31950633 L16.0454568,8.01028621 L31.9787358,8.20721056 L31.9787358,8.20721056 L31.9787358,8.21217561 L16.0454568,8.01028621 L31.9787358,8.31201429 L31.9787358,8.31950633 Z M31.9787358,8.13628186 L31.9787358,8.13957274 L16.3078988,8.01106043 L31.9787358,8.09047278 L31.9787358,8.09255045 L16.3217403,8.0111906 L31.9787358,8.13628186 L31.9787358,8.13628186 Z M0.0162963847,8.09047278 L15.696577,8.0110901 L0.0162963847,8.13957274 L0.0162963847,8.13628186 L15.6735368,8.0111906 L0.0162963847,8.09255045 L0.0162963847,8.09047278 Z M31.9787358,8.07972306 L16.2060429,8.01437573 L16.0728667,8.01294918 L16.5582,8.01346793 L31.9787358,8.02071518 L31.9787358,8.02250792 L16.6922699,8.01359765 L31.9787358,8.03215819 L31.9787358,8.03395093 L16.6021948,8.01359765 L31.9787358,8.04936084 L31.9787358,8.05111549 L16.4593854,8.01346793 L16.0738598,8.01294918 L16.1995876,8.01424612 L31.9787358,8.07778536 L31.9787358,8.07972306 Z M0.0162963847,8.07956244 L0.0162963847,8.07762475 L15.7893335,8.01421511 L0.0162963847,8.07956244 L0.0162963847,8.07956244 Z M0.0162963847,8.02387772 L15.4365806,8.01663047 L0.0162963847,8.05427803 L0.0162963847,8.05252338 L15.3924864,8.01676019 L0.0162963847,8.03711347 L0.0162963847,8.03532073 L15.3028085,8.01676019 L0.0162963847,8.02567046 L0.0162963847,8.02567046 L0.0162963847,8.02387772 Z" id="Shape"></path>
            <path d="M31.9787814,2.63810802 L31.9787814,2.51081502 L-0.000305156163,2.51081502 L-0.000305156163,2.63810802 L31.9787814,2.63810802 Z M31.9787814,4.44123487 L31.9787814,4.34099215 L-0.000305572575,4.34099215 L-0.000305572575,4.44122963 L31.9787814,4.44123487 Z M31.9787811,5.63665044 L31.9787811,5.56402146 L-0.000305572575,5.56402146 L-0.000305572575,5.63665044 L31.9787811,5.63665044 Z M31.9787814,6.42867321 L31.9787814,6.38004737 L-0.000305156163,6.38004737 L-0.000305156163,6.42867321 L31.9787814,6.42867321 Z M31.9787814,6.95651225 L31.9787814,6.92414507 L-0.000305156163,6.92414507 L-0.000305156163,6.95651225 L31.9787814,6.95651225 Z M31.9787814,7.3084217 L31.9787814,7.28674476 L-0.000305156163,7.28674476 L-0.000305156163,7.3084217 L31.9787814,7.3084217 Z M31.9787814,7.54290141 L31.9787814,7.52857366 L-0.000305156163,7.52857746 L-0.000305156163,7.54290523 L31.9787814,7.54290141 Z M31.9787814,7.69935008 L31.9787814,7.68969923 L-0.000305156163,7.68969923 L-0.000305156163,7.69935008 L31.9787814,7.69935008 Z M31.9787814,7.80367445 L31.9787814,7.7972899 L-0.000305156163,7.79729541 L-0.000305156163,7.80367997 L31.9787814,7.80367445 Z M31.9787814,7.87308765 L31.9787814,7.8688562 L-0.000305156163,7.8688562 L-0.000305156163,7.87308765 L31.9787814,7.87308765 Z M31.9787814,7.91944416 L31.9787814,7.91677169 L-0.000305156163,7.91677169 L-0.000305156163,7.91944416 L31.9787814,7.91944416 Z M31.9787814,7.95043336 L31.9787814,7.94850299 L-0.000305156163,7.94850038 L-0.000305156163,7.95043066 L31.9787814,7.95043336 Z M31.9787811,7.97132411 L31.9787811,7.9695433 L-0.000305572575,7.9695433 L-0.000305572575,7.97132411 L31.9787811,7.97132411 Z M31.9787811,7.98501863 L31.9787811,7.98323792 L-0.000305572575,7.98323792 L-0.000305572575,7.98501863 L31.9787811,7.98501863 Z M31.9787811,7.99429668 L31.9787811,7.99251587 L-0.000305572575,7.99250635 L-0.000305572575,7.99429668 L31.9787811,7.99429668 Z M31.9787811,8.00077476 L31.9787811,7.99899394 L-0.000305572575,7.99899394 L-0.000305572575,8.00077476 L31.9787811,8.00077476 Z" id="Shape"></path>
            <path d="M0.432008577,0.0141564802 L0.0159974523,0.0141564802 L15.9962441,7.99311518 L0.432008577,0.0141564802 L0.432008577,0.0141564802 Z M6.32352907,0.0141550057 L15.9975616,7.99380085 L15.9974358,7.99321569 L19.3636061,0.0141550057 L18.9474289,0.0141550057 L15.9973366,7.99331612 L13.0473616,0.0141550057 L13.0473616,0.0141550057 L12.6311843,0.0141550057 L15.9973366,7.99331612 L15.9972372,7.99351713 L6.73960679,0.0141550057 L6.73960679,0.0141550057 L6.32352907,0.0141550057 Z M25.2551837,0.0141550057 L15.9972287,7.99380085 L15.9972287,7.99380085 L25.6712613,0.0141550057 L25.2551837,0.0141550057 Z M31.5627719,0.0141550057 L15.9972287,7.99380085 L15.9972287,7.99380085 L31.9787814,0.0141550057 L31.5627719,0.0141550057 Z M31.9787814,2.49680562 L15.9975592,7.99359845 L15.9975592,7.99359845 L31.9787814,2.62433214 L31.9787814,2.49680562 Z M0.0163419476,2.62433214 L15.9975625,7.99359845 L0.0163419476,2.49680562 L0.0163419476,2.49680562 L0.0163419476,2.62433214 Z M15.9949531,7.99341662 L0.0163419476,4.33347591 L0.0163419476,4.41859212 L15.9949531,7.99341662 Z M15.9973944,7.99390431 L15.9999186,7.99341662 L31.9787814,4.4185803 L31.9787814,4.3334641 L15.9973944,7.99390431 L15.9973944,7.99390431 Z M0.0163419476,5.55823606 L0.0163419476,5.61468467 L15.986313,7.99271324 L0.0163419476,5.55823606 L0.0163419476,5.55823606 Z M31.9787814,5.61468467 L31.9787814,5.55823606 L16.0091811,7.99266175 L31.9787814,5.61468467 Z M16.0120346,7.99251223 L16.0085587,7.99311518 L16.0291752,7.99174105 L16.0291752,7.99174105 L31.9787814,7.29692078 L31.9787814,7.28006009 L16.0307642,7.99163658 L31.9787814,6.94314769 L31.9787814,6.91798224 L16.0179932,7.9923113 L16.024945,7.99200986 L16.0085587,7.99311518 L31.9787814,6.41203734 L31.9787814,6.37420791 L16.0156098,7.99241181 L16.0120346,7.99251223 Z M15.9805796,7.99271394 L0.0163419476,6.37420791 L0.0163419476,6.37420791 L0.0163419476,6.41203734 L15.9667754,7.99180637 C15.9713768,7.99210889 15.9759782,7.99241142 15.9805796,7.99271394 Z M0.0163419476,7.29692078 L8.0069533,7.64505309 L15.9604196,7.9913885 L15.9604196,7.9913885 L0.0163419476,6.91798224 L0.0163419476,6.91798224 L0.0163419476,6.94314769 L15.9604196,7.9913885 L15.9604196,7.9913885 L0.0163419476,7.28006009 L0.0163419476,7.29692078 Z M31.9787814,7.52240928 L15.9973927,7.99366641 L15.9973927,7.99366641 L31.9787814,7.53355123 L31.9787814,7.52240928 Z M15.9769777,7.99311518 L15.9799571,7.99331612 L15.9859424,7.99306649 L15.9867102,7.99321569 L15.9813475,7.99321569 L0.0163419476,7.52240928 L0.0163419476,7.53355123 L15.9696287,7.99301468 L0.0163419476,7.68349317 L0.0163419476,7.69098518 L15.9685363,7.99301468 L8.0069519,7.89191814 L0.0163419476,7.79082384 L0.0163419476,7.79578897 L15.9769777,7.99311518 Z M31.9787814,7.68349317 L16.0455025,7.99271324 L31.9787814,7.79578897 L31.9787814,7.79578897 L31.9787814,7.79082384 L23.9881715,7.89191814 L16.0455025,7.99271324 L31.9787814,7.69098518 L31.9787814,7.68349317 Z M31.9787814,7.86671767 L31.9787814,7.8634268 L16.3079444,7.99193903 L31.9787814,7.91252668 L31.9787814,7.91044901 L16.3217859,7.99180885 L31.9787814,7.86671767 L31.9787814,7.86671767 Z M0.0163419476,7.91252668 L15.6966226,7.99190936 L0.0163419476,7.8634268 L0.0163419476,7.86671767 L15.6735824,7.99180885 L0.0163419476,7.91044901 L0.0163419476,7.91252668 Z M16.000541,8.01276305 L16.0032952,8.0122066 L16.0021621,8.0122065 L16.0021621,8.0122065 L16.0001437,8.01283944 L16.0001437,8.01283944 L16.5582456,8.01207689 L31.9787814,8.00482964 L31.9787814,8.0030369 L16.6923155,8.01194718 L31.9787814,7.99338664 L31.9787814,7.9915939 L16.6022404,8.01194718 L31.9787814,7.97618398 L31.9787814,7.97442933 L16.4594311,8.01207689 L16.0739054,8.01259565 L16.1996332,8.01129881 L31.9787814,7.94775946 L31.9787814,7.94582177 L16.1847365,8.01129881 L16.0672515,8.01259565 L16.000541,8.01276305 Z M0.0163419476,7.94600983 L0.0163419476,7.94794752 L15.7893791,8.01135716 L0.0163419476,7.94600983 L0.0163419476,7.94600983 Z M0.0163419476,8.00169455 L15.4366261,8.0089418 L0.0163419476,7.97129424 L0.0163419476,7.97304889 L15.392532,8.00881208 L0.0163419476,7.9884588 L0.0163419476,7.99025154 L15.3028541,8.00881208 L0.0163419476,7.99990181 L0.0163419476,7.99990181 L0.0163419476,8.00169455 Z" id="Shape"></path>
        </g>
    </g>
</svg>