<svg xmlns="http://www.w3.org/2000/svg" viewBox="0 0 32 16">
  <g fill="none" fill-rule="evenodd">
    <rect width="32" height="16" fill="#00247D" transform="matrix(1 0 0 -1 0 16)"/>
    <g fill="#CC142B" fill-rule="nonzero" transform="translate(19 2)">
      <polygon points="5.5 9 5.854 10.146 7 10.146 6.073 10.854 6.427 12 5.5 11.292 4.573 12 4.927 10.854 4 10.146 5.146 10.146"/>
      <polygon points="5.5 0 5.854 1.146 7 1.146 6.073 1.854 6.427 3 5.5 2.292 4.573 3 4.927 1.854 4 1.146 5.146 1.146"/>
      <polygon points="1.5 4 1.854 5.146 3 5.146 2.073 5.854 2.427 7 1.5 6.292 .573 7 .927 5.854 0 5.146 1.146 5.146"/>
      <polygon points="8.5 3 8.854 4.146 10 4.146 9.073 4.854 9.427 6 8.5 5.292 7.573 6 7.927 4.854 7 4.146 8.146 4.146"/>
    </g>
    <polygon fill="#FFF" points="16 0 16 1 12.8 2.5 16 2.5 16 5.5 13.334 5.5 16 6.75 16 8 14.934 8 9.6 5.5 9.5 5.5 9.5 8 6.5 8 6.5 5.5 6.4 5.5 1.067 8 0 8 0 6.75 2.667 5.5 0 5.5 0 2.5 3.2 2.5 0 1 0 0 1.6 0 6.5 2.297 6.5 0 9.5 0 9.5 2.297 14.4 0"/>
    <polygon fill="#CC142B" points="9 0 9 3 16 3 16 5 9 5 9 8 7 8 7 5 0 5 0 3 7 3 7 0"/>
    <polygon fill="#CC142B" fill-rule="nonzero" points="5.399 5.5 .087 8 0 8 0 7.489 4.226 5.5"/>
    <polygon fill="#CC142B" fill-rule="nonzero" points="12.274 5.5 16 7.253 16 7.805 11.101 5.5"/>
    <polygon fill="#CC142B" fill-rule="nonzero" points=".086 0 5.4 2.5 4.226 2.5 0 .511 0 0"/>
    <polygon fill="#CC142B" fill-rule="nonzero" points="16 0 16 .276 11.274 2.5 10.1 2.5 15.415 0"/>
  </g>
</svg>
