<svg xmlns="http://www.w3.org/2000/svg" viewBox="0 0 32 16"><g fill="none" fill-rule="evenodd"><path fill="#00247D" d="M0 16h32V0H0z"/><path fill="#CC142B" d="M24.32 12.92l.49-.36h-.61l-.19-.58-.19.58h-.61l.49.36-.18.58.49-.36.49.36z"/><path fill="#FFF" d="M24.01 11.5l-.14.43-.16.48h-.95l.36.27.41.3-.15.47-.15.44.37-.27.41-.3.4.3.38.27-.14-.44-.16-.48.4-.3.38-.26h-.96l-.16-.48-.14-.43zm0 .48l.19.58h.61l-.5.36.2.58-.5-.36-.5.36.2-.58-.5-.36h.61l.19-.58z"/><path fill="#CC142B" d="M24.32 3.32l.49-.36h-.61l-.19-.58-.19.58h-.61l.49.36-.18.58.49-.36.49.36z"/><path fill="#FFF" d="M24.01 1.9l-.14.44-.16.48h-.95l.36.26.41.3-.15.48-.15.43.37-.27.41-.3.4.3.38.27-.14-.43-.16-.48.4-.3.38-.26h-.96l-.16-.48-.14-.44zm0 .48l.19.58h.61l-.5.36.2.58-.5-.36-.5.36.2-.58-.5-.36h.61l.19-.58z"/><path fill="#CC142B" d="M27.53 6.11l.5-.36h-.62l-.18-.58-.19.58h-.61l.49.36-.19.58.5-.36.49.36z"/><path fill="#FFF" d="M27.23 4.7l-.15.43-.15.47h-.96l.37.27.4.3-.15.48-.14.43.37-.27.4-.3.41.3.37.27-.14-.43-.16-.48.41-.3.37-.27h-.95l-.16-.47-.14-.44zm0 .47l.18.58h.62l-.5.36.19.58-.5-.36-.49.36.19-.58-.5-.36h.62l.19-.58z"/><path fill="#CC142B" d="M20.62 7.05l.49-.36h-.61l-.19-.58-.19.58h-.61l.5.36-.19.58.49-.36.5.36z"/><path fill="#FFF" d="M20.31 5.63l-.14.43-.15.48h-.96l.37.27.4.3-.15.48-.14.43.37-.27.4-.3.41.3.37.27-.14-.43-.16-.48.41-.3.37-.27h-.96l-.16-.48-.14-.43zm0 .48l.2.58h.6l-.5.36.2.58-.5-.36-.5.36.2-.58-.5-.36h.61l.2-.58z"/><path fill="#000" d="M8 4.03L16 0 8 4.03zm0 0L0 0l8 4.03zm0 0l8 4.03-8-4.03zM0 8.06l8-4.03-8 4.03z"/><path fill="#FFF" d="M14.02 0L8 3.01 1.98 0H0v1.02l6.02 2.95L0 6.98V8h1.98L8 4.99 14.02 8H16V6.98L9.98 3.97 16 1.02V0z"/><path fill="#000" d="M16 .02l-8 4 8-4zm-8 4zm0 0l-7.99 4 8-4z"/><path fill="#CC142B" d="M14.66 0L8 3.33v.64L0 0v.64l6.66 3.33H8L0 8h1.34L8 4.67v-.7L16 0h-1.34zM8 3.97l8 3.97V7.3L9.34 3.97H8z"/><path fill="#FFF" d="M6.53 0v2.5H0v3h6.53V8h2.94V5.5H16v-3H9.47V0z"/><path fill="#CC142B" d="M7.1 0v3.07H0v1.86h7.1V8h1.8V4.93H16V3.07H8.9V0z"/></g></svg>