<svg xmlns="http://www.w3.org/2000/svg" viewBox="0 0 32 16"><g fill="none" fill-rule="nonzero"><path fill="#0038A8" d="M0 0h32v15.8H0z"/><path fill="#CE1126" d="M0 8h32v8H0z"/><path fill="#FFF" d="M13.83 7.9L0 15.8V0"/><path fill="#FCD116" d="M.84 1.37l.51.39.59-.29-.26.55.49.41-.67-.05-.28.55-.16-.59-.66-.07.57-.31zM11.64 7.02l.02.67.59.21-.59.22-.02.66-.37-.53-.6.2.35-.55-.35-.54.6.19zM1.22 12.88l.28.54.67-.05-.49.41.26.56-.59-.29-.51.39.13-.59-.57-.31.66-.08zM4.94 4.49l-.2.2.1 1.55h-.1l-.2-1.4-.17.16.26 1.26c-.21.04-.4.13-.58.24l-.72-1.07H3.1l.88 1.13a1.6 1.6 0 0 0-.08.06L2.86 5.46h-.3v.29l1.18 1.02-.06.08-1.15-.87v.24l1.09.71c-.12.17-.2.36-.24.57L2.1 7.25l-.17.16 1.43.19v.1l-1.57-.1-.21.2.2.2 1.57-.1.01.11-1.43.19.17.16 1.28-.25c.04.2.12.4.24.57l-1.09.71v.24l1.15-.87.06.08-1.18 1.02v.29h.3l1.03-1.16.08.06-.88 1.13h.24l.72-1.07c.18.11.37.2.58.24l-.26 1.26.17.16.2-1.4h.1l-.1 1.55.2.2.2-.2-.1-1.55h.1l.2 1.4.16-.16-.25-1.26c.2-.04.4-.13.57-.24l.72 1.07h.24l-.87-1.13.08-.06 1.03 1.16h.3v-.29L6.12 8.84l.07-.08 1.14.87v-.24l-1.08-.71c.11-.17.2-.36.24-.57l1.27.25.17-.16L6.52 8v-.1L8.1 8l.2-.2-.2-.2-1.56.1-.01-.11 1.42-.19-.17-.16-1.27.25c-.04-.2-.12-.4-.24-.57l1.08-.71v-.24l-1.14.87a1.58 1.58 0 0 0-.07-.08l1.18-1.02v-.3h-.29L6 6.63a1.6 1.6 0 0 0-.08-.06l.87-1.13h-.24L5.82 6.5a1.6 1.6 0 0 0-.57-.24L5.5 5l-.17-.16-.18 1.4h-.1l.1-1.55-.21-.2z"/></g></svg>