<svg xmlns="http://www.w3.org/2000/svg" viewBox="0 0 32 16"><g fill="none" fill-rule="evenodd"><path fill="red" d="M0 16h32V0H0z"/><path fill="#060" d="M0 16h9.6V0H0z"/><path fill="#FF0" d="M12.73 10.48c-1.2-.03-6.75-3.5-6.79-4.04l.3-.51c.56.8 6.22 4.16 6.78 4.04l-.29.51"/><path fill="#000" d="M5.95 6.44c.03.25 1.27 1.18 2.95 2.2 1.36.83 3.18 1.8 3.82 1.83l.28-.49c-.35.02-1.93-.82-3.38-1.68-1.46-.87-3.06-1.93-3.37-2.35l-.3.49zm6.78 4.05c-.64-.02-2.47-1-3.84-1.83A28.7 28.7 0 0 1 6.84 7.3c-.4-.3-.9-.7-.9-.86v-.01l.3-.51h.02c.28.4 1.9 1.48 3.38 2.36 1.74 1.04 3.13 1.73 3.38 1.68v.01l-.28.52h-.01z"/><path fill="#FF0" d="M12.76 10.5c-.02.03-.06.04-.13.03-.46-.05-1.83-.72-3.45-1.69C7.29 7.71 5.73 6.68 5.9 6.41l.05-.08c-.15.46 3.08 2.3 3.27 2.42 1.87 1.16 3.45 1.84 3.59 1.66l-.05.09zM6.18 5.86c-.1.29 1.45 1.25 3.32 2.39 1.87 1.13 3.48 1.84 3.6 1.74 0-.02.06-.1.06-.1-.03.03-.08.04-.17.01a18.8 18.8 0 0 1-3.45-1.74c-1.63-.99-3.05-1.9-3.27-2.28a.23.23 0 0 1-.03-.12l-.05.08v.02z"/><path fill="#000" d="M6.2 5.86c-.11.3 1.7 1.4 3.3 2.38 1.93 1.17 3.47 1.82 3.6 1.74v-.01l.02-.05a.22.22 0 0 1-.13 0c-.55-.16-1.92-.81-3.46-1.75C6.87 6.56 6.38 6.1 6.26 5.88a.24.24 0 0 1-.03-.09l-.04.07zm6.86 4.15c-.32 0-1.94-.76-3.57-1.75-2-1.23-3.43-2.12-3.32-2.4l.01-.02.05-.08v-.01h.01a.01.01 0 0 1 .01.01c0 .04.01.08.03.1.23.42 1.87 1.45 3.26 2.3 1.54.93 2.9 1.57 3.46 1.73.07.02.13.02.15-.01h.02l-.05.1V10h-.01l-.05.02zM5.94 6.37l-.03.05v.06c.07.3 1.14 1.07 3.28 2.35 1.6.96 2.98 1.64 3.44 1.69.07 0 .1 0 .12-.03l.03-.05c-.33.1-2.09-.77-3.56-1.68l-.13-.07C7 7.46 5.94 6.67 5.94 6.37zm6.74 4.17h-.05c-.47-.05-1.85-.73-3.46-1.7C7.03 7.58 5.95 6.8 5.88 6.5l.01-.09.05-.08h.02a.01.01 0 0 1 0 .02c-.11.35 1.92 1.6 3.14 2.33l.13.07c1.85 1.15 3.43 1.83 3.57 1.66h.02v.02l-.05.08c-.02.03-.05.04-.09.04z"/><path fill="#FF0" d="M9.6 6.77c1.22-.01 2.7-.17 3.57-.5l-.19-.3c-.5.27-2 .46-3.38.48-1.63-.01-2.78-.16-3.36-.55l-.17.32a8.8 8.8 0 0 0 3.54.55"/><path fill="#000" d="M6.08 6.22c1.06.44 2.14.53 3.53.54a10.9 10.9 0 0 0 3.54-.5l-.17-.28c-.4.2-1.62.45-3.38.49-1.75-.02-2.81-.2-3.36-.55l-.16.3zm3.53.56a8.79 8.79 0 0 1-3.55-.56l.17-.32v-.01h.02c.53.36 1.6.54 3.35.55 1.77-.03 3-.28 3.38-.49h.01l.19.3a.01.01 0 0 1 0 .02c-.6.24-1.85.5-3.57.51z"/><path fill="#FF0" d="M13.06 5.96c-.1.08-.55.24-1.36.37a14.55 14.55 0 0 1-4.1.01c-.82-.1-1.26-.3-1.42-.35l.05-.08c.12.06.54.23 1.37.35a14.46 14.46 0 0 0 4.09-.02 3.8 3.8 0 0 0 1.3-.37l.07.1zm.16.3a5.2 5.2 0 0 1-1.42.4 15.62 15.62 0 0 1-4.3.03c-.87-.15-1.32-.34-1.48-.4l.04-.09c.47.2.92.3 1.45.39a15.43 15.43 0 0 0 4.27-.03c.85-.14 1.31-.31 1.38-.4l.06.1z"/><path fill="#000" d="M13.06 5.96zm-6.86.02l.05.02c.2.08.62.24 1.34.33.59.09 1.28.13 2 .13h.02c.72 0 1.4-.05 2.1-.14a4.6 4.6 0 0 0 1.33-.36l-.05-.08c-.09.06-.5.26-1.3.37-.44.06-1.13.14-2.08.14H9.6c-.91 0-1.59-.06-1.99-.12a4.83 4.83 0 0 1-1.36-.35l-.04.06zm3.4.5c-.73 0-1.42-.04-2-.12a5.51 5.51 0 0 1-1.35-.34L6.18 6a.01.01 0 0 1 0-.02 4.11 4.11 0 0 1 .06-.08c.07.03.47.22 1.36.35.4.05 1.08.12 2 .12h.01c.95 0 1.64-.08 2.08-.15A3.66 3.66 0 0 0 13 5.86l.06.1v.01c-.1.07-.55.24-1.37.37-.68.1-1.36.14-2.09.15zm-3.57-.2c.18.07.63.25 1.47.39.65.08 1.35.13 2.09.13h.01c.77 0 1.51-.06 2.2-.16a5.74 5.74 0 0 0 1.4-.37l-.04-.09c-.1.09-.53.25-1.37.39a14.8 14.8 0 0 1-4.28.03c-.55-.08-1-.2-1.45-.38l-.02.04v.02zm3.56.54c-.74 0-1.44-.04-2.1-.13-.83-.13-1.29-.32-1.46-.39h-.02a.01.01 0 0 1 0-.02l.01-.03a2.08 2.08 0 0 1 .04-.06c.46.18.9.3 1.45.39.66.08 1.35.13 2.07.13h.02c.74 0 1.46-.05 2.18-.16a3.59 3.59 0 0 0 1.39-.4l.06.11a.01.01 0 0 1 0 .02 5.2 5.2 0 0 1-1.43.38c-.68.1-1.42.16-2.2.16z"/><path fill="#FF0" d="M5.64 8.23c.74.4 2.4.6 3.95.61 1.43 0 3.28-.22 3.98-.59l-.02-.4c-.22.34-2.2.67-3.97.66-1.76-.02-3.4-.3-3.95-.64v.36"/><path fill="#000" d="M5.65 8.22c.53.28 1.84.6 3.95.61h.02c1.4 0 3.24-.22 3.94-.58l-.02-.36c-.3.33-2.22.64-3.96.63-1.72-.02-3.37-.28-3.94-.63v.33zm3.97.63h-.03c-2.1-.02-3.43-.33-3.96-.61v-.37a.01.01 0 0 1 0-.01c.56.35 2.22.62 3.95.63 1.75.02 3.74-.3 3.96-.64h.01l.03.4v.01c-.7.37-2.56.6-3.96.6z"/><path fill="#FF0" d="M13.6 7.83v.1c-.1.12-.75.3-1.57.44a16.28 16.28 0 0 1-4.78 0 5.8 5.8 0 0 1-1.66-.44v-.11c.36.24 1.34.42 1.67.47.6.1 1.36.16 2.32.16 1 0 1.81-.07 2.43-.17.6-.08 1.43-.3 1.6-.45zm0 .34v.1c-.1.12-.75.3-1.57.44a16.28 16.28 0 0 1-4.78 0 5.8 5.8 0 0 1-1.66-.44v-.11c.36.24 1.34.42 1.67.47a16.2 16.2 0 0 0 4.75 0 5.4 5.4 0 0 0 1.6-.46z"/><path fill="#000" d="M5.6 7.92c.1.06.68.3 1.65.45a16.32 16.32 0 0 0 4.77 0 4.56 4.56 0 0 0 1.57-.45v-.07c-.2.15-1 .36-1.57.44a16.25 16.25 0 0 1-4.76.01 6.2 6.2 0 0 1-1.66-.46v.08zm3.98.63c-.86 0-1.64-.05-2.33-.16a5.85 5.85 0 0 1-1.67-.46v-.12h.01a6.2 6.2 0 0 0 1.68.47 16.24 16.24 0 0 0 4.75 0 5.07 5.07 0 0 0 1.6-.45v.1c-.11.13-.78.32-1.59.45-.73.11-1.55.17-2.45.17zM5.6 8.26c.1.06.68.3 1.65.45a16.33 16.33 0 0 0 4.77 0 4.55 4.55 0 0 0 1.57-.45v-.07c-.2.15-1 .36-1.57.44a16.26 16.26 0 0 1-4.76.01 6.2 6.2 0 0 1-1.66-.46v.08zm3.98.63c-.86 0-1.64-.05-2.33-.16a5.85 5.85 0 0 1-1.67-.46v-.11a.01.01 0 0 1 .01-.01 6.2 6.2 0 0 0 1.68.47 16.25 16.25 0 0 0 4.75 0 5.07 5.07 0 0 0 1.6-.45v.1c-.11.13-.78.32-1.6.45-.72.11-1.54.17-2.44.17z"/><path fill="#FF0" d="M9.6 10.41c-1.72 0-3.19-.46-3.5-.54l.23.35c.55.23 1.98.58 3.28.54a8.38 8.38 0 0 0 3.24-.53l.23-.37c-.55.26-2.4.55-3.49.55"/><path fill="#000" d="M6.34 10.22c.57.23 2 .56 3.27.53a8.52 8.52 0 0 0 3.23-.53l.2-.33a12.7 12.7 0 0 1-3.45.53c-1.5 0-2.83-.36-3.33-.5l-.13-.03.2.33zm3.07.55a9.4 9.4 0 0 1-3.09-.54l-.22-.35a.01.01 0 0 1 0-.02l.17.04c.5.14 1.81.5 3.32.5a12.34 12.34 0 0 0 3.5-.53l-.24.37a8.52 8.52 0 0 1-3.44.53z"/><path fill="#FF0" d="M13.13 9.82l-.07.13c-.2.07-.75.23-1.55.34-.53.08-.85.15-1.9.17a13.02 13.02 0 0 1-3.53-.53l-.04-.09c1.13.3 2.3.5 3.57.53.96-.02 1.37-.1 1.89-.16.93-.15 1.4-.3 1.54-.35l.1-.04zm-.2.33l-.1.15a11.08 11.08 0 0 1-3.23.5 9.64 9.64 0 0 1-3.35-.57l-.04-.08v-.02l.08.04a10.74 10.74 0 0 0 5.28.36 4.8 4.8 0 0 0 1.33-.37l.03-.01z"/><path fill="#000" d="M13.13 9.83l.02-.02-.02.02zm-7.04.09a11.36 11.36 0 0 0 5.2.4l.22-.04a8.6 8.6 0 0 0 1.54-.34l.06-.1-.06.02v.01h-.02c-.16.06-.63.2-1.53.35l-.17.02c-.44.06-.86.12-1.72.14a14.83 14.83 0 0 1-3.55-.52l.03.06zm3.52.55a13.12 13.12 0 0 1-3.54-.54l-.04-.08v-.01c1.3.33 2.44.5 3.58.52.85-.02 1.28-.08 1.72-.14l.17-.03c.9-.13 1.36-.28 1.52-.33v-.01l.1-.04a.01.01 0 0 1 .02 0v.02a9.76 9.76 0 0 1-.08.13 8.67 8.67 0 0 1-1.77.38c-.42.06-.79.11-1.68.13zm-3.35-.25a10.04 10.04 0 0 0 5.34.38c.26-.04.85-.18 1.22-.3l.08-.12c-.09.04-.4.17-1.32.36a10.66 10.66 0 0 1-5.29-.36l-.07-.03.04.07zm3.33.6a9.57 9.57 0 0 1-3.35-.59l-.04-.08v-.02h.02l.08.03a10.64 10.64 0 0 0 5.27.36c.97-.2 1.26-.33 1.33-.37l.03-.01h.01v.01a5.35 5.35 0 0 1-.1.16 11.2 11.2 0 0 1-3.24.5z"/><path fill="#FF0" d="M9.59 4.06A3.97 3.97 0 0 1 13.56 8a3.97 3.97 0 0 1-7.93 0 3.96 3.96 0 0 1 3.96-3.94zm3.56 3.85c0 1.13-.57 2.14-1.03 2.58a3.72 3.72 0 0 1-2.54 1.06 3.77 3.77 0 0 1-2.5-1.05 3.8 3.8 0 0 1-1.03-2.53 3.58 3.58 0 0 1 3.66-3.52c.9.02 1.94.46 2.66 1.33.47.57.68 1.2.78 2.13z"/><path fill="#000" d="M9.63 4.46c-.8 0-1.7.32-2.32.85a3.59 3.59 0 0 0-1.25 2.66 3.8 3.8 0 0 0 1.03 2.52 3.77 3.77 0 0 0 2.49 1.04 3.7 3.7 0 0 0 2.53-1.05 3.79 3.79 0 0 0 1.03-2.57 3.69 3.69 0 0 0-.78-2.12 3.69 3.69 0 0 0-2.73-1.33m-.1 7.1a3.8 3.8 0 0 1-2.45-1.05 3.8 3.8 0 0 1-1.04-2.54A3.6 3.6 0 0 1 7.3 5.3a3.76 3.76 0 0 1 2.4-.85c1 .02 2.01.54 2.68 1.34a3.7 3.7 0 0 1 .78 2.13 3.82 3.82 0 0 1-1.03 2.59 3.72 3.72 0 0 1-2.6 1.06m.06-7.5a3.95 3.95 0 1 0 0 7.9 3.95 3.95 0 0 0 0-7.9m0 7.9a3.97 3.97 0 1 1 0-7.93 3.97 3.97 0 0 1 0 7.93"/><path fill="#FF0" d="M5.72 8a3.89 3.89 0 0 0 3.88 3.88A3.89 3.89 0 0 0 13.47 8 3.89 3.89 0 0 0 9.6 4.13 3.89 3.89 0 0 0 5.72 8zM9.6 4.04a3.97 3.97 0 0 1 0 7.92 3.97 3.97 0 0 1 0-7.92z"/><path fill="#000" d="M9.6 4.14c-1.03 0-2 .4-2.73 1.14a3.83 3.83 0 0 0 0 5.45 3.83 3.83 0 0 0 5.45 0 3.83 3.83 0 0 0 0-5.45A3.83 3.83 0 0 0 9.6 4.14m0 7.75c-1.03 0-2-.4-2.74-1.14a3.86 3.86 0 0 1 0-5.49 3.86 3.86 0 0 1 5.48 0 3.86 3.86 0 0 1 0 5.49 3.86 3.86 0 0 1-2.74 1.14m0-7.84a3.95 3.95 0 1 0 0 7.91 3.95 3.95 0 0 0 0-7.9m0 7.92a3.98 3.98 0 1 1 0-7.96 3.98 3.98 0 0 1 0 7.96"/><path fill="#FF0" d="M6.06 8c0 1.95 1.6 3.54 3.54 3.54s3.54-1.6 3.54-3.54c0-1.95-1.6-3.54-3.54-3.54A3.56 3.56 0 0 0 6.06 8zM9.6 4.37A3.64 3.64 0 0 1 13.23 8c0 2-1.64 3.63-3.63 3.63A3.64 3.64 0 0 1 5.97 8c0-2 1.64-3.63 3.63-3.63z"/><path fill="#000" d="M9.6 4.47a3.5 3.5 0 0 0-2.5 1.04 3.5 3.5 0 0 0 0 4.98 3.5 3.5 0 0 0 4.99 0 3.5 3.5 0 0 0 0-4.98A3.5 3.5 0 0 0 9.6 4.47m0 7.08c-.94 0-1.83-.37-2.5-1.04a3.53 3.53 0 0 1 0-5.02 3.53 3.53 0 0 1 5 0 3.53 3.53 0 0 1 0 5.02 3.53 3.53 0 0 1-2.5 1.04m0-7.17c-.96 0-1.87.38-2.55 1.07a3.59 3.59 0 0 0 0 5.1 3.59 3.59 0 0 0 5.1 0 3.59 3.59 0 0 0 0-5.1A3.59 3.59 0 0 0 9.6 4.38m0 7.26a3.6 3.6 0 0 1-2.57-1.07 3.61 3.61 0 0 1 0-5.14 3.61 3.61 0 0 1 5.14 0 3.61 3.61 0 0 1 0 5.14 3.61 3.61 0 0 1-2.57 1.07"/><path fill="#FF0" d="M13.56 8.16v-.3l-.24-.22-1.36-.36-1.96-.2-2.36.12-1.68.4-.34.25v.3l.86-.39 2.04-.32h1.96l1.44.16 1 .24z"/><path fill="#000" d="M10.48 7.43l1.44.16 1 .24.63.3v-.26l-.24-.22-1.35-.36L10 7.1l-2.36.12-1.68.4-.33.25v.27l.85-.38 2.04-.32h1.96zm3.08.74l-.65-.32-1-.24-1.43-.16H8.52l-2.04.32-.85.39H5.6v-.31l.34-.26 1.69-.4L10 7.07l1.96.2 1.36.36.25.22v.31a.01.01 0 0 1-.01 0z"/><path fill="#FF0" d="M9.6 7.05c.93 0 1.84.09 2.56.23.74.15 1.27.33 1.45.54v.1c-.22-.25-.92-.44-1.47-.55a14.12 14.12 0 0 0-5.14 0c-.54.1-1.33.34-1.41.56v-.11c.05-.15.62-.39 1.4-.54.7-.14 1.62-.23 2.6-.23zm0 .34c.93 0 1.84.09 2.56.23.74.15 1.27.33 1.44.54v.1c-.21-.25-.91-.44-1.46-.55A14.17 14.17 0 0 0 7 7.7c-.56.11-1.3.34-1.4.56v-.11c.05-.15.6-.38 1.4-.54.7-.14 1.62-.23 2.6-.23z"/><path fill="#000" d="M9.63 7.13c.87 0 1.76.08 2.52.23.43.08 1.19.27 1.44.54v-.07c-.17-.2-.66-.39-1.43-.54a14.29 14.29 0 0 0-5.17 0c-.8.16-1.34.4-1.4.53v.06c.17-.21.92-.43 1.41-.52a14.2 14.2 0 0 1 2.6-.23h.03m-4.04.8h-.01v-.11c.05-.17.66-.4 1.4-.55.76-.15 1.69-.23 2.62-.23h.02c.88 0 1.78.08 2.54.23.78.15 1.28.34 1.45.55v.12h-.01c-.23-.28-1.01-.47-1.46-.56a14.17 14.17 0 0 0-5.14 0c-.62.12-1.32.35-1.4.55h-.01m4.03-.46c.88 0 1.77.08 2.53.23.43.08 1.19.27 1.44.54v-.07c-.17-.2-.67-.39-1.43-.54a13.7 13.7 0 0 0-2.54-.23H9.6c-.93 0-1.86.09-2.61.23-.63.13-1.33.36-1.4.53v.06C5.78 8 6.55 7.8 7 7.7c.77-.15 1.69-.23 2.6-.23h.03m-4.03.8h-.01v-.11c.05-.17.64-.4 1.4-.55a14.3 14.3 0 0 1 2.62-.23v.01-.01h.02c.88 0 1.78.08 2.54.23.78.15 1.28.34 1.45.54v.13h-.01c-.23-.28-1.01-.47-1.46-.56a14.2 14.2 0 0 0-5.14 0c-.61.13-1.32.35-1.4.55H5.6"/><path fill="#FF0" d="M9.58 5.32c1.47 0 2.76.2 3.35.5l.21.38a8.6 8.6 0 0 0-3.56-.52c-1.35 0-2.8.15-3.53.53l.26-.42c.6-.31 2-.47 3.27-.47"/><path fill="#000" d="M6.32 5.8l-.24.39c.4-.2 1.35-.51 3.5-.52a8.8 8.8 0 0 1 3.53.5l-.2-.34a8.56 8.56 0 0 0-3.33-.5c-1.18 0-2.64.15-3.26.46m-.27.44V6.2l.25-.43c.63-.33 2.1-.47 3.28-.47a8.57 8.57 0 0 1 3.36.51l.21.37a.01.01 0 0 1-.01.02 8.56 8.56 0 0 0-3.56-.52c-2.22.01-3.16.34-3.52.53"/><path fill="#FF0" d="M9.6 5.29c.8 0 1.6.04 2.22.15.48.1.97.24 1.14.38l.1.14c-.16-.17-.76-.34-1.28-.43a15.44 15.44 0 0 0-4.41.01c-.58.1-.95.24-1.11.34l.08-.12c.22-.12.57-.22 1.01-.31.61-.11 1.4-.16 2.25-.16zm0 .33c.84 0 1.65.05 2.3.17.6.1 1.17.28 1.26.37l.06.1a4.6 4.6 0 0 0-1.33-.39 12.9 12.9 0 0 0-2.3-.15c-.94 0-1.68.04-2.31.15a4.1 4.1 0 0 0-1.25.4l.06-.13c.23-.11.58-.25 1.17-.35.66-.12 1.4-.16 2.34-.17z"/><path fill="#000" d="M9.6 5.36c.9 0 1.62.06 2.18.16.44.07 1 .22 1.23.38l-.05-.08a3.58 3.58 0 0 0-1.15-.37A12.4 12.4 0 0 0 9.6 5.3c-.9 0-1.67.06-2.24.16-.45.09-.8.2-1.01.3l-.05.08c.2-.1.59-.22 1.07-.31.57-.11 1.35-.17 2.23-.17m3.46.61h-.01c-.16-.18-.79-.35-1.27-.43-.56-.1-1.27-.15-2.18-.16-.88 0-1.65.06-2.23.17a3.73 3.73 0 0 0-1.12.34v-.02l.08-.12a3.9 3.9 0 0 1 1.02-.31 14.77 14.77 0 0 1 4.47-.01 3.58 3.58 0 0 1 1.15.38l.1.15a.01.01 0 0 1-.01.01m-3.4-.27c.92 0 1.67.06 2.23.16.61.12 1.08.25 1.3.38l-.04-.08a4.3 4.3 0 0 0-1.25-.36c-.6-.11-1.4-.17-2.3-.16-1.07 0-1.74.05-2.34.16-.48.08-.86.2-1.16.35l-.04.08c.16-.1.6-.25 1.22-.37.63-.11 1.37-.16 2.32-.16h.06m3.56.58c-.2-.13-.69-.27-1.34-.4-.57-.1-1.34-.16-2.28-.15-.95 0-1.69.04-2.32.15a4.07 4.07 0 0 0-1.26.39v-.01l.06-.12c.3-.16.7-.28 1.18-.37.6-.1 1.27-.15 2.34-.16.9 0 1.7.06 2.3.17.61.1 1.18.28 1.26.37l.07.11a.01.01 0 0 1-.01.02"/><path fill="#FF0" d="M11.57 9.65A9.74 9.74 0 0 0 9.6 9.5c-2.46.03-3.25.5-3.35.65l-.18-.3c.62-.45 1.96-.7 3.54-.68.82.01 1.53.07 2.13.18l-.17.3"/><path fill="#000" d="M6.08 9.85l.17.28c.07-.08.3-.23.79-.36a10.7 10.7 0 0 1 2.56-.28c.72 0 1.38.04 1.96.15l.16-.28c-.56-.1-1.25-.17-2.11-.18-1.58-.03-2.9.23-3.53.67m.17.31l-.2-.3.01-.02c.63-.45 1.95-.71 3.55-.68a12.47 12.47 0 0 1 2.14.2l-.17.3h-.02c-.57-.1-1.24-.16-1.96-.15-2.4.03-3.23.49-3.34.65"/><path fill="#FF0" d="M9.61 9.11c.71.02 1.44.05 2.15.2l-.05.08a11.2 11.2 0 0 0-2.1-.19c-.9 0-1.87.07-2.74.33-.29.08-.77.26-.8.4l-.04-.08c.01-.13.44-.3.82-.41A10.1 10.1 0 0 1 9.6 9.1zm-.03.35c.69 0 1.36.04 2 .16l-.04.08a10.8 10.8 0 0 0-1.95-.15c-.91 0-1.83.08-2.63.3-.25.08-.66.24-.7.37l-.05-.07c0-.08.26-.25.73-.38a9.5 9.5 0 0 1 2.64-.31z"/><path fill="#000" d="M6.04 9.84l.04.06c.08-.17.7-.36.78-.38a11.68 11.68 0 0 1 4.85-.14l.04-.07a12.33 12.33 0 0 0-4.9.14c-.48.14-.8.3-.8.4m.03.09h-.01l-.05-.09c.02-.17.63-.37.82-.42a12.3 12.3 0 0 1 4.93-.12l-.05.08c-.69-.13-1.34-.16-2.1-.17-1.13 0-2 .1-2.75.32-.37.1-.77.27-.78.39a.01.01 0 0 1-.01 0m.14.21l.03.06c.08-.13.47-.29.71-.35a9.36 9.36 0 0 1 2.63-.31c.74 0 1.38.04 1.94.15l.04-.06a11.2 11.2 0 0 0-1.99-.16c-.95 0-1.76.06-2.63.31-.47.13-.71.3-.73.36m.03.1v-.01l-.05-.08c.01-.1.28-.26.74-.39a11.99 11.99 0 0 1 4.65-.14l-.04.09h-.01c-.57-.1-1.2-.15-1.95-.15-1 0-1.89.1-2.62.3-.27.08-.67.24-.7.37a.01.01 0 0 1-.02 0"/><path fill="#FF0" d="M13.1 9.9l-.29.45-.85-.75-2.2-1.48-2.48-1.36-1.29-.44.28-.51.09-.05.8.2L9.8 7.32l1.52.96 1.28.92.52.6z"/><path fill="#000" d="M13.1 9.9zM6 6.3l1.28.44L9.77 8.1l2.2 1.48.84.75.28-.45.02-.09-.52-.6-1.28-.91-1.52-.96-2.64-1.36-.79-.2-.08.05-.27.5zm6.8 4.05l-.85-.75-2.2-1.48-2.48-1.36L6 6.33V6.3l.27-.5.1-.06.8.2L9.81 7.3l1.52.96 1.28.92.52.6v.01l-.02.1-.3.46z"/><path fill="#FF0" d="M13.16 9.89c.15-.28-1.4-1.44-3.3-2.57C7.9 6.22 6.5 5.56 6.24 5.75l-.06.1h.02c.05-.05.12-.05.16-.05.44.01 1.7.6 3.48 1.6.78.46 3.28 2.07 3.27 2.52l-.01.07.06-.1zM5.95 6.33c.22-.15 1.88.59 3.62 1.63 1.73 1.06 3.39 2.24 3.24 2.46l-.05.08-.03.02s.03-.03 0-.12c-.07-.24-1.25-1.18-3.2-2.35C7.64 6.9 6.06 6.23 5.9 6.43l.05-.1z"/><path fill="#000" d="M13.16 9.89zm-6.8-4.1c.44 0 1.71.6 3.48 1.6.52.3 3.3 2.04 3.28 2.53v.01l.03-.05c.13-.26-1.32-1.38-3.3-2.55-2.08-1.18-3.36-1.74-3.6-1.57l-.03.05a.3.3 0 0 1 .13-.02zM13.1 10l-.01-.01v-.01l.01-.04v-.01c0-.45-2.54-2.08-3.27-2.5-1.76-1.01-3.03-1.6-3.47-1.6h-.01c-.04 0-.1 0-.14.03l-.01.01-.02.01v-.01l.05-.11c.31-.24 2.15.72 3.63 1.56 1.73 1.02 3.47 2.27 3.31 2.58l-.05.1h-.02zM6 6.4c.44 0 1.91.67 3.54 1.65 1.9 1.15 3.12 2.1 3.2 2.36a.2.2 0 0 1 .02.08l.04-.06v-.05c-.07-.32-1.72-1.48-3.24-2.4C7.87 6.95 6.2 6.2 5.96 6.34l-.03.05H6zm6.73 4.14v-.02s.02-.03 0-.1c-.08-.25-1.33-1.22-3.2-2.35-2-1.2-3.48-1.8-3.62-1.63h-.02l.05-.1c.24-.17 1.9.58 3.63 1.63 1.56.94 3.18 2.07 3.25 2.4.01.03 0 .05 0 .07l-.05.08-.03.02z"/><path fill="#FFF" d="M7.22 8.44c0 .65.27 1.24.7 1.67a2.36 2.36 0 0 0 4.05-1.67V5.27H7.22v3.17z"/><path fill="#000" d="M7.24 8.43v.01c0 .62.24 1.21.7 1.66a2.35 2.35 0 0 0 4.02-1.65V5.28H7.24v3.14zm2.35 2.4c-.62 0-1.22-.25-1.68-.71a2.36 2.36 0 0 1-.7-1.67v-3.2l4.78.01v3.18a2.38 2.38 0 0 1-2.4 2.38z"/><path fill="red" d="M10.95 6.3v2.33c-.04.3-.19.58-.4.79a1.35 1.35 0 0 1-1.92 0c-.25-.26-.4-.61-.4-.97V6.3h2.72zM7.31 8.43a2.28 2.28 0 0 0 4.56 0V5.39H7.32v3.06z"/><path fill="#000" d="M8.25 6.3v2.15c0 .35.14.7.4.95a1.34 1.34 0 0 0 2.3-.94V6.3h-2.7zm1.34 3.52a1.37 1.37 0 0 1-1.36-1.37V6.28h2.73v2.35a1.4 1.4 0 0 1-1.37 1.2zm0 .9A2.28 2.28 0 0 1 7.3 8.46h.02c0 .6.24 1.16.67 1.59a2.26 2.26 0 0 0 3.87-1.58V5.39H7.33v3.05H7.3V5.36h4.58v3.09a2.28 2.28 0 0 1-2.29 2.28z"/><path fill="#FF0" d="M8.04 9.86l.16.2.12-.11c-.15-.15-.06-.29-.06-.3 0 0 .15-.07.3.06l.1-.11-.2-.16-.42.42z"/><path fill="#000" d="M8.37 9.62a.3.3 0 0 1 .18.08l.1-.1-.18-.15-.19.19a.25.25 0 0 1 .09-.02zm-.31.25l.15.18.1-.1c-.08-.09-.09-.16-.08-.21l.01-.06-.18.19zm.14.2l-.17-.2v-.01l.43-.44.22.18-.13.13c-.14-.14-.28-.06-.28-.06s-.09.12.06.27l-.13.14z"/><path fill="#FF0" d="M8.2 10.07l.47-.48h.05v.04l-.48.49H8.2v-.05"/><path fill="#000" d="M8.2 10.08v.02h.03l.48-.47V9.6h-.02l-.49.48zm.02.05l-.03-.01v-.06l.48-.48h.05c.02.02.02.05 0 .06l-.47.48-.03.01z"/><path fill="#FF0" d="M7.95 9.8l.46-.45h.04v.04l-.46.46h-.04V9.8"/><path fill="#000" d="M7.96 9.81v.03h.02l.46-.46v-.02l-.01-.01h-.01l-.46.46zm.01.05h-.02c-.02-.02-.02-.05 0-.06l.45-.46.03-.01.02.01c.02.02.02.04 0 .05L8 9.85l-.03.01z"/><path fill="#000" d="M8.46 9.4h-.01L8 9.84v.03h.02l.44-.44V9.4l-.01-.01m-.43.5L8 9.87c-.02-.01-.02-.04 0-.05l.43-.44h.05l.02.03-.01.02-.44.44-.02.01"/><path fill="#FF0" d="M11.15 9.86l-.16.2-.12-.11c.15-.15.06-.29.06-.3 0 0-.15-.07-.29.06l-.12-.11.2-.16.43.42z"/><path fill="#000" d="M10.54 9.6l.1.1a.27.27 0 0 1 .2-.08l.07.02-.18-.19-.2.15zm.34.35l.1.1.15-.18-.18-.2.02.07c0 .05-.01.12-.09.2zm.1.13l-.12-.13v-.01c.15-.15.06-.27.06-.28 0 0-.13-.07-.27.06h-.01l-.13-.13.22-.17.43.44v.01l-.17.2z"/><path fill="#FF0" d="M11 10.07l-.48-.48h-.04c-.02.02-.02.03 0 .04l.47.49h.04v-.05"/><path fill="#000" d="M10.5 9.6h-.02v.03l.48.48h.02v-.03l-.47-.48h-.01m.47.53h-.03l-.47-.49c-.02-.01-.02-.04 0-.05l.03-.02.02.01.48.48c.02.02.01.04 0 .06l-.03.01"/><path fill="#FF0" d="M11.24 9.8l-.46-.45h-.04v.04l.46.46h.04V9.8"/><path fill="#000" d="M10.77 9.35h-.02v.03l.46.46h.02V9.8l-.45-.46h-.01zm.45.51h-.03l-.45-.47c-.02-.01-.02-.03 0-.05l.03-.01h.02l.46.47v.05l-.03.01z"/><path fill="#000" d="M10.74 9.4h-.02v.02l.44.45h.02v-.03l-.43-.44h-.01m.43.5l-.03-.02-.43-.44-.01-.02V9.4l.03-.01h.03l.44.45v.05l-.03.01"/><path fill="#039" d="M9.3 8.1c0 .08.04.17.1.22.05.06.12.1.2.1a.3.3 0 0 0 .22-.1.33.33 0 0 0 .09-.22v-.43h-.6v.43M9.3 7.06c0 .08.04.16.1.22.05.06.12.1.2.1a.3.3 0 0 0 .22-.1.33.33 0 0 0 .09-.22v-.43h-.6v.43M8.47 8.1c0 .08.04.17.1.22.05.06.12.1.2.1a.3.3 0 0 0 .22-.1.33.33 0 0 0 .08-.22v-.43h-.6v.43m1.67 0c0 .08.03.17.08.22.06.06.13.1.22.1.08 0 .15-.04.2-.1a.33.33 0 0 0 .1-.22v-.43h-.6v.43M9.3 9.13c0 .09.04.17.1.23.05.05.12.09.2.09a.3.3 0 0 0 .22-.1.33.33 0 0 0 .09-.22V8.7h-.6v.43"/></g></svg>