<?xml version="1.0" encoding="UTF-8"?>
<svg width="32px" height="16px" viewBox="0 0 32 16" version="1.1" xmlns="http://www.w3.org/2000/svg" xmlns:xlink="http://www.w3.org/1999/xlink">
    <!-- Generator: Sketch 51.3 (57544) - http://www.bohemiancoding.com/sketch -->
    <title>serbia-small</title>
    <desc>Created with Sketch.</desc>
    <defs></defs>
    <g id="Page-1" stroke="none" stroke-width="1" fill="none" fill-rule="evenodd">
        <g id="serbia-small" fill-rule="nonzero">
            <polygon id="Shape" fill="#C6363C" points="0 16 32 16 32 0 0 0"></polygon>
            <rect id="Rectangle-path" fill="#0C4076" x="0" y="5" width="32" height="11"></rect>
            <rect id="Rectangle-path" fill="#FFFFFF" x="0" y="10.5" width="32" height="5.5"></rect>
            <g id="Group" transform="translate(3.400000, 0.800000)">
                <path d="M3.2,12.45 C2.29,12.45 1.55,12.18 1.01,11.64 C0.08,10.71 0.07,9.33 0.07,9.27 L0.07,4.2 L3.2,4.2 L6.33,4.2 L6.33,9.26 C6.33,9.32 6.32,10.7 5.39,11.63 C4.85,12.18 4.12,12.45 3.2,12.45 Z" id="Shape" fill="#FFFFFF"></path>
                <g transform="translate(0.100000, 0.000000)" id="Shape">
                    <path d="M0.54,1.95 C0.54,1.95 0.46,2.01 0.49,2.09 C0.52,2.17 0.61,2.16 0.61,2.16 C0.61,2.16 0.55,2.24 0.59,2.3 C0.63,2.36 0.71,2.35 0.71,2.35 C0.65,2.4 0.7,2.48 0.7,2.48 C0.7,2.48 0.67,2.51 0.7,2.57 C0.73,2.63 0.85,2.6 0.85,2.6 C0.88,2.73 0.97,2.8 0.97,2.8 C0.96,2.86 1.02,2.89 1.02,2.89 C1.03,2.94 1.08,2.96 1.08,2.96 C1.08,3.03 1.13,3.1 1.18,3.15 C1.23,3.2 1.3,3.35 1.3,3.35 C1.3,3.35 1.23,3.37 1.24,3.43 C1.25,3.49 1.33,3.47 1.33,3.47 L1.34,3.49 C1.3,3.52 1.31,3.58 1.31,3.58 C1.31,3.58 1.25,3.6 1.25,3.7 C1.25,3.8 1.35,3.82 1.35,3.82 C1.36,3.88 1.41,3.89 1.41,3.89 L1.41,3.9 C1.35,3.93 1.33,4.01 1.49,4.03 C1.65,4.05 3.09,4.09 3.09,4.09 C3.09,4.09 4.53,4.05 4.69,4.03 C4.85,4.01 4.84,3.93 4.77,3.9 L4.77,3.89 C4.77,3.89 4.83,3.87 4.83,3.82 C4.83,3.82 4.92,3.8 4.93,3.7 C4.94,3.6 4.9,3.58 4.9,3.58 C4.9,3.58 4.91,3.52 4.87,3.49 L4.88,3.47 C4.88,3.47 4.96,3.49 4.97,3.43 C4.98,3.37 4.91,3.35 4.91,3.35 C4.91,3.35 4.99,3.19 5.03,3.15 C5.07,3.11 5.12,3.04 5.13,2.96 C5.13,2.96 5.17,2.94 5.19,2.89 C5.19,2.89 5.25,2.86 5.24,2.8 C5.24,2.8 5.32,2.73 5.36,2.6 C5.36,2.6 5.48,2.63 5.51,2.57 C5.54,2.51 5.51,2.48 5.51,2.48 C5.51,2.48 5.56,2.4 5.5,2.35 C5.5,2.35 5.58,2.36 5.62,2.3 C5.66,2.24 5.6,2.16 5.6,2.16 C5.6,2.16 5.69,2.17 5.72,2.09 C5.75,2.01 5.67,1.95 5.67,1.95 C5.67,1.95 5.8,1.88 5.74,1.78 C5.68,1.68 5.59,1.73 5.59,1.73 C5.59,1.73 5.65,1.63 5.57,1.57 C5.49,1.51 5.43,1.57 5.43,1.57 C5.43,1.57 5.45,1.48 5.36,1.44 C5.27,1.4 5.22,1.48 5.22,1.48 C5.22,1.48 5.25,1.38 5.15,1.34 C5.05,1.3 5.01,1.38 5.01,1.38 C5.01,1.38 5.02,1.3 4.95,1.26 C4.88,1.22 4.79,1.3 4.79,1.3 C4.79,1.3 4.8,1.22 4.74,1.2 C4.69,1.18 4.63,1.19 4.63,1.19 C4.63,1.19 4.58,1.11 4.47,1.16 C4.47,1.16 4.47,1.1 4.4,1.07 C4.33,1.04 4.26,1.1 4.26,1.1 C4.26,1.1 4.26,1.02 4.18,0.99 C4.09,0.96 4.06,1.03 4.06,1.03 C4.06,1.03 4.03,0.94 3.95,0.95 C3.87,0.96 3.84,1.02 3.84,1.02 C3.84,1.02 3.81,0.93 3.73,0.93 C3.65,0.93 3.62,1.01 3.62,1.01 C3.62,1.01 3.59,0.93 3.5,0.93 C3.41,0.93 3.39,1.02 3.39,1.02 C3.39,1.02 3.5,0.7 3.16,0.6 L3.16,0.48 L3.24,0.48 C3.24,0.48 3.25,0.53 3.3,0.53 C3.35,0.53 3.36,0.48 3.36,0.48 C3.36,0.48 3.42,0.47 3.42,0.42 C3.42,0.36 3.36,0.36 3.36,0.36 C3.36,0.36 3.36,0.31 3.3,0.31 C3.24,0.31 3.24,0.36 3.24,0.36 L3.16,0.36 L3.16,0.27 C3.16,0.27 3.21,0.26 3.21,0.21 C3.21,0.16 3.16,0.15 3.16,0.15 C3.16,0.15 3.16,0.08 3.1,0.08 C3.04,0.08 3.04,0.14 3.04,0.14 C3.04,0.14 2.99,0.15 2.99,0.2 C2.99,0.25 3.04,0.26 3.04,0.26 L3.04,0.35 L2.96,0.35 C2.96,0.35 2.96,0.3 2.9,0.3 C2.84,0.3 2.84,0.35 2.84,0.35 C2.84,0.35 2.78,0.36 2.78,0.41 C2.78,0.47 2.84,0.47 2.84,0.47 C2.84,0.47 2.85,0.52 2.9,0.52 C2.95,0.52 2.96,0.47 2.96,0.47 L3.04,0.47 L3.04,0.6 C2.7,0.7 2.81,1.02 2.81,1.02 C2.81,1.02 2.79,0.93 2.7,0.93 C2.61,0.93 2.58,1.01 2.58,1.01 C2.58,1.01 2.55,0.93 2.47,0.93 C2.39,0.93 2.36,1.02 2.36,1.02 C2.36,1.02 2.34,0.96 2.25,0.95 C2.17,0.94 2.14,1.03 2.14,1.03 C2.14,1.03 2.1,0.96 2.02,0.99 C1.93,1.01 1.94,1.1 1.94,1.1 C1.94,1.1 1.87,1.04 1.8,1.07 C1.73,1.1 1.73,1.16 1.73,1.16 C1.62,1.11 1.57,1.19 1.57,1.19 C1.57,1.19 1.52,1.17 1.46,1.2 C1.41,1.23 1.41,1.3 1.41,1.3 C1.41,1.3 1.34,1.23 1.26,1.26 C1.18,1.29 1.2,1.38 1.2,1.38 C1.2,1.38 1.16,1.3 1.06,1.34 C0.96,1.38 0.99,1.48 0.99,1.48 C0.99,1.48 0.94,1.4 0.85,1.44 C0.76,1.48 0.78,1.57 0.78,1.57 C0.78,1.57 0.72,1.51 0.64,1.57 C0.56,1.63 0.62,1.73 0.62,1.73 C0.62,1.73 0.53,1.69 0.47,1.78 C0.41,1.88 0.54,1.95 0.54,1.95 Z M4.42,2.79 C4.42,2.79 4.49,2.95 4.54,2.94 C4.59,2.93 4.56,2.84 4.64,2.8 C4.72,2.76 4.71,2.67 4.69,2.63 C4.67,2.59 4.74,2.51 4.71,2.48 C4.68,2.46 4.46,2.61 4.46,2.61 L4.45,2.59 C4.45,2.59 4.6,2.52 4.63,2.42 C4.65,2.32 4.6,2.35 4.6,2.35 C4.6,2.35 4.64,2.28 4.73,2.23 L4.92,1.6 C4.92,1.6 5.34,1.74 5.37,1.88 C5.4,2.02 5.16,2.2 5.17,2.27 C5.18,2.34 5.2,2.37 5.18,2.46 C5.18,2.46 5.13,2.46 5.15,2.53 C5.17,2.59 5.19,2.62 5.16,2.69 C5.16,2.69 5.17,2.57 5.11,2.57 C5.05,2.57 5.07,2.66 5.01,2.67 C4.95,2.68 4.91,2.77 4.91,2.82 C4.92,2.87 4.91,2.91 4.89,2.95 C4.87,2.99 4.88,3.01 4.9,3.01 C4.92,3.01 4.96,3.01 5.03,2.92 C5.03,2.92 4.94,3.13 4.88,3.11 C4.82,3.09 4.81,2.92 4.81,2.92 L4.83,2.88 C4.83,2.88 4.86,2.9 4.88,2.86 C4.9,2.82 4.85,2.81 4.85,2.81 C4.85,2.81 5,2.63 4.92,2.52 C4.92,2.52 4.95,2.46 4.89,2.44 C4.83,2.42 4.82,2.49 4.82,2.49 C4.82,2.49 4.7,2.52 4.71,2.77 C4.71,2.77 4.64,2.77 4.65,2.8 C4.65,2.84 4.69,2.84 4.69,2.84 L4.7,2.88 C4.7,2.88 4.54,3.11 4.46,3.05 C4.39,3 4.42,2.79 4.42,2.79 Z M3.25,2.41 C3.29,2.38 3.41,2.26 3.32,2.22 C3.32,2.22 3.38,2.14 3.47,2.11 C3.47,2.11 3.39,1.81 3.4,1.57 C3.41,1.32 3.41,1.24 3.41,1.24 C3.41,1.24 4.29,1.19 4.4,1.46 C4.51,1.74 4.14,2.07 4.15,2.12 C4.16,2.17 4.21,2.19 4.21,2.29 C4.21,2.29 4.13,2.29 4.18,2.39 C4.23,2.49 4.28,2.56 4.27,2.57 L4.25,2.59 C4.25,2.59 4.18,2.5 4.14,2.43 C4.1,2.36 4.05,2.37 4.04,2.4 C4.03,2.43 4.03,2.53 4,2.53 C3.97,2.53 3.91,2.56 3.91,2.64 C3.91,2.72 3.98,2.73 3.98,2.76 C3.98,2.79 3.96,2.86 3.98,2.87 C4,2.89 4.1,2.86 4.15,2.8 C4.2,2.74 4.23,2.75 4.23,2.75 C4.23,2.75 4.07,3.08 3.95,3.02 C3.84,2.96 3.8,2.79 3.8,2.79 C3.8,2.79 3.83,2.76 3.83,2.75 C3.83,2.75 3.87,2.76 3.88,2.72 C3.88,2.68 3.82,2.66 3.82,2.66 C3.82,2.66 3.92,2.47 3.82,2.36 C3.82,2.36 3.83,2.29 3.77,2.29 C3.71,2.29 3.71,2.36 3.71,2.36 C3.71,2.36 3.6,2.43 3.67,2.65 C3.67,2.65 3.58,2.65 3.6,2.7 C3.62,2.75 3.66,2.73 3.66,2.73 C3.66,2.73 3.66,2.77 3.68,2.79 C3.68,2.79 3.56,3.03 3.44,3.02 C3.32,3.01 3.23,2.96 3.23,2.7 C3.23,2.7 3.31,2.75 3.35,2.81 C3.39,2.87 3.48,2.87 3.48,2.82 C3.49,2.77 3.47,2.74 3.49,2.72 C3.51,2.7 3.59,2.68 3.58,2.6 C3.57,2.52 3.47,2.51 3.47,2.47 C3.47,2.43 3.49,2.36 3.45,2.35 C3.41,2.34 3.32,2.38 3.22,2.5 L3.2,2.48 C3.2,2.48 3.21,2.44 3.25,2.41 Z M1.8,1.46 C1.91,1.18 2.79,1.24 2.79,1.24 C2.79,1.24 2.79,1.32 2.8,1.57 C2.81,1.82 2.73,2.11 2.73,2.11 C2.82,2.15 2.88,2.22 2.88,2.22 C2.8,2.27 2.92,2.38 2.95,2.41 C2.98,2.44 3,2.48 3,2.48 L2.98,2.5 C2.88,2.38 2.79,2.34 2.75,2.35 C2.71,2.36 2.73,2.42 2.73,2.47 C2.73,2.52 2.63,2.53 2.62,2.6 C2.61,2.68 2.68,2.7 2.71,2.72 C2.74,2.74 2.72,2.77 2.72,2.82 C2.73,2.87 2.81,2.87 2.85,2.81 C2.89,2.75 2.97,2.7 2.97,2.7 C2.97,2.97 2.88,3.01 2.76,3.02 C2.64,3.03 2.52,2.79 2.52,2.79 C2.54,2.77 2.54,2.73 2.54,2.73 C2.54,2.73 2.58,2.75 2.6,2.7 C2.62,2.65 2.53,2.65 2.53,2.65 C2.6,2.43 2.49,2.36 2.49,2.36 C2.49,2.36 2.49,2.29 2.43,2.29 C2.37,2.29 2.38,2.36 2.38,2.36 C2.28,2.47 2.38,2.66 2.38,2.66 C2.38,2.66 2.32,2.68 2.32,2.72 C2.32,2.76 2.37,2.75 2.37,2.75 C2.37,2.76 2.4,2.79 2.4,2.79 C2.4,2.79 2.36,2.96 2.25,3.02 C2.14,3.08 1.97,2.75 1.97,2.75 C1.97,2.75 1.99,2.73 2.05,2.8 C2.11,2.87 2.2,2.89 2.22,2.87 C2.24,2.85 2.22,2.78 2.22,2.76 C2.22,2.73 2.29,2.72 2.29,2.64 C2.29,2.56 2.23,2.53 2.2,2.53 C2.17,2.53 2.17,2.42 2.16,2.4 C2.15,2.37 2.1,2.36 2.06,2.43 C2.02,2.5 1.95,2.59 1.95,2.59 L1.93,2.57 C1.92,2.55 1.97,2.49 2.02,2.39 C2.07,2.29 1.99,2.29 1.99,2.29 C1.98,2.19 2.04,2.17 2.05,2.12 C2.06,2.07 1.68,1.74 1.8,1.46 Z M1.28,1.6 L1.47,2.23 C1.56,2.28 1.6,2.35 1.6,2.35 C1.6,2.35 1.54,2.32 1.57,2.42 C1.59,2.52 1.75,2.59 1.75,2.59 L1.74,2.61 C1.74,2.61 1.52,2.45 1.49,2.48 C1.46,2.51 1.53,2.58 1.51,2.63 C1.49,2.68 1.48,2.76 1.56,2.8 C1.64,2.84 1.61,2.93 1.66,2.94 C1.71,2.95 1.78,2.79 1.78,2.79 C1.78,2.79 1.81,3 1.73,3.06 C1.66,3.12 1.49,2.89 1.49,2.89 L1.5,2.85 C1.5,2.85 1.53,2.85 1.54,2.81 C1.54,2.77 1.48,2.78 1.48,2.78 C1.49,2.52 1.37,2.5 1.37,2.5 C1.37,2.5 1.36,2.43 1.3,2.45 C1.24,2.47 1.27,2.53 1.27,2.53 C1.19,2.64 1.34,2.82 1.34,2.82 C1.34,2.82 1.28,2.83 1.31,2.87 C1.34,2.91 1.36,2.89 1.36,2.89 L1.38,2.93 C1.38,2.93 1.37,3.1 1.31,3.12 C1.25,3.14 1.16,2.93 1.16,2.93 C1.23,3.02 1.28,3.02 1.29,3.02 C1.3,3.02 1.32,3 1.3,2.96 C1.28,2.92 1.28,2.88 1.28,2.83 C1.29,2.78 1.25,2.69 1.18,2.68 C1.12,2.67 1.14,2.58 1.08,2.58 C1.02,2.58 1.03,2.7 1.03,2.7 C0.99,2.63 1.02,2.61 1.04,2.54 C1.06,2.48 1.01,2.47 1.01,2.47 C0.99,2.38 1.01,2.35 1.02,2.28 C1.03,2.21 0.79,2.04 0.82,1.89 C0.85,1.74 1.28,1.6 1.28,1.6 Z" fill="#FFFFFF"></path>
                    <path d="M1.91,7.71 L2.86,7.71 L2.86,6.54 L1.9,6.54 C1.9,6.54 1.91,6.65 1.91,7.71 Z M2.34,7.42 C2.5,7.42 2.56,7.27 2.51,7.22 C2.46,7.17 2.46,7.12 2.46,7.12 C2.46,7.12 2.46,7.08 2.51,7.02 C2.56,6.96 2.51,6.82 2.34,6.82 C2.21,6.82 2.18,6.92 2.24,6.96 C2.24,6.96 2.24,6.89 2.3,6.9 C2.37,6.91 2.36,6.98 2.35,7 C2.35,7.01 2.32,7.09 2.26,7.09 C2.19,7.09 2.1,7.04 2.1,6.88 C2.1,6.71 2.32,6.7 2.42,6.72 C2.52,6.74 2.65,6.78 2.65,6.78 L2.65,7.13 L2.65,7.48 C2.65,7.48 2.53,7.52 2.42,7.54 C2.32,7.56 2.1,7.54 2.1,7.38 C2.1,7.22 2.19,7.17 2.26,7.17 C2.33,7.17 2.35,7.24 2.35,7.26 C2.35,7.28 2.36,7.35 2.3,7.36 C2.24,7.36 2.24,7.3 2.24,7.3 C2.18,7.32 2.21,7.42 2.34,7.42 Z" fill="#C6363C"></path>
                    <path d="M2.85,9.7 L2.85,8.21 L1.91,8.21 C1.91,9.53 2.85,9.7 2.85,9.7 Z M2.43,8.28 C2.53,8.3 2.66,8.34 2.66,8.34 L2.66,8.69 L2.66,9.04 C2.66,9.04 2.54,9.08 2.43,9.1 C2.33,9.12 2.11,9.1 2.11,8.94 C2.11,8.78 2.2,8.73 2.27,8.73 C2.34,8.73 2.36,8.8 2.36,8.82 C2.36,8.84 2.37,8.91 2.31,8.92 C2.25,8.92 2.25,8.86 2.25,8.86 C2.19,8.9 2.22,9 2.35,9 C2.51,9 2.57,8.85 2.52,8.8 C2.47,8.75 2.47,8.7 2.47,8.7 C2.47,8.7 2.47,8.66 2.52,8.6 C2.57,8.54 2.52,8.4 2.35,8.4 C2.22,8.4 2.19,8.5 2.25,8.54 C2.25,8.54 2.25,8.47 2.31,8.48 C2.38,8.49 2.37,8.56 2.36,8.58 C2.36,8.59 2.33,8.67 2.27,8.67 C2.2,8.67 2.11,8.62 2.11,8.46 C2.11,8.28 2.32,8.26 2.43,8.28 Z" fill="#C6363C"></path>
                    <path d="M3.35,9.7 C3.35,9.7 4.29,9.53 4.29,8.21 L3.35,8.21 L3.35,9.7 Z M3.55,8.69 L3.55,8.34 C3.55,8.34 3.67,8.3 3.78,8.28 C3.88,8.26 4.1,8.28 4.1,8.44 C4.1,8.6 4.01,8.65 3.94,8.65 C3.87,8.65 3.85,8.58 3.85,8.56 C3.85,8.54 3.84,8.47 3.9,8.46 C3.96,8.46 3.96,8.52 3.96,8.52 C4.02,8.48 3.99,8.38 3.86,8.38 C3.7,8.38 3.64,8.53 3.69,8.58 C3.74,8.63 3.74,8.68 3.74,8.68 C3.74,8.68 3.74,8.72 3.69,8.78 C3.64,8.84 3.69,8.98 3.86,8.98 C3.99,8.98 4.02,8.88 3.96,8.84 C3.96,8.84 3.96,8.91 3.9,8.9 C3.83,8.89 3.84,8.82 3.85,8.8 C3.85,8.79 3.88,8.71 3.94,8.71 C4.01,8.71 4.1,8.76 4.1,8.92 C4.1,9.09 3.88,9.1 3.78,9.08 C3.68,9.06 3.55,9.02 3.55,9.02 L3.55,8.69 Z" fill="#C6363C"></path>
                    <path d="M3.35,7.71 L4.3,7.71 C4.3,6.65 4.3,6.54 4.3,6.54 L3.35,6.54 L3.35,7.71 Z M3.55,7.12 L3.55,6.77 C3.55,6.77 3.67,6.73 3.78,6.71 C3.88,6.69 4.1,6.71 4.1,6.87 C4.1,7.03 4.01,7.08 3.94,7.08 C3.87,7.08 3.85,7.01 3.85,6.99 C3.85,6.97 3.84,6.9 3.9,6.89 C3.96,6.89 3.96,6.95 3.96,6.95 C4.02,6.91 3.99,6.81 3.86,6.81 C3.7,6.81 3.64,6.96 3.69,7.01 C3.74,7.06 3.74,7.11 3.74,7.11 C3.74,7.11 3.74,7.15 3.69,7.21 C3.64,7.27 3.69,7.41 3.86,7.41 C3.99,7.41 4.02,7.31 3.96,7.27 C3.96,7.27 3.96,7.34 3.9,7.33 C3.83,7.32 3.84,7.25 3.85,7.23 C3.85,7.22 3.88,7.14 3.94,7.14 C4.01,7.14 4.1,7.19 4.1,7.35 C4.1,7.52 3.88,7.53 3.78,7.51 C3.68,7.49 3.55,7.45 3.55,7.45 L3.55,7.12 Z" fill="#C6363C"></path>
                    <path d="M3.1,4.3 L0.0699995728,4.3 L0.07,9.26 C0.07,9.26 0.06,12.35 3.1,12.35 C6.14,12.35 6.13,9.26 6.13,9.26 L6.13000021,4.3 L3.1,4.3 Z M1.77,11.42 C1.77,11.47 1.72,11.48 1.72,11.48 C1.72,11.48 1.74,11.6 1.88,11.55 C1.88,11.55 1.85,11.7 1.73,11.66 C1.73,11.66 1.75,11.69 1.69,11.73 C1.63,11.77 1.59,11.8 1.59,11.84 C1.59,11.8 1.55,11.77 1.49,11.73 C1.43,11.69 1.45,11.66 1.45,11.66 C1.33,11.7 1.3,11.55 1.3,11.55 C1.45,11.6 1.46,11.48 1.46,11.48 C1.46,11.48 1.41,11.47 1.41,11.42 C1.41,11.37 1.45,11.37 1.45,11.37 C1.23,11.07 1.21,11.35 1.21,11.35 C1.08,11.26 1.06,11.02 1.27,11.01 C1.48,11 1.51,11.25 1.51,11.25 C1.51,11.25 1.52,11.16 1.43,11.04 C1.34,10.92 1.34,10.82 1.43,10.72 C1.52,10.62 1.57,10.52 1.57,10.52 C1.57,10.52 1.62,10.61 1.71,10.72 C1.8,10.82 1.8,10.93 1.71,11.04 C1.62,11.16 1.63,11.25 1.63,11.25 C1.63,11.25 1.66,11 1.87,11.01 C2.08,11.02 2.07,11.26 1.93,11.35 C1.93,11.35 1.91,11.08 1.69,11.37 C1.73,11.37 1.77,11.38 1.77,11.42 Z M4.96,11.35 C4.96,11.35 4.94,11.08 4.72,11.37 C4.72,11.37 4.76,11.38 4.76,11.42 C4.76,11.47 4.71,11.48 4.71,11.48 C4.71,11.48 4.73,11.6 4.87,11.55 C4.87,11.55 4.84,11.7 4.72,11.66 C4.72,11.66 4.74,11.69 4.68,11.73 C4.62,11.77 4.58,11.8 4.58,11.84 C4.58,11.8 4.54,11.77 4.48,11.73 C4.42,11.69 4.44,11.66 4.44,11.66 C4.32,11.7 4.29,11.55 4.29,11.55 C4.44,11.6 4.45,11.48 4.45,11.48 C4.45,11.48 4.4,11.47 4.4,11.42 C4.4,11.37 4.44,11.37 4.44,11.37 C4.22,11.07 4.2,11.35 4.2,11.35 C4.07,11.26 4.05,11.02 4.26,11.01 C4.47,11 4.5,11.25 4.5,11.25 C4.5,11.25 4.51,11.16 4.42,11.04 C4.33,10.92 4.33,10.82 4.42,10.72 C4.51,10.62 4.56,10.52 4.56,10.52 C4.56,10.52 4.61,10.61 4.7,10.72 C4.79,10.82 4.79,10.93 4.7,11.04 C4.61,11.16 4.62,11.25 4.62,11.25 C4.62,11.25 4.65,11 4.86,11.01 C5.11,11.02 5.1,11.26 4.96,11.35 Z M5.95,7.57 C5.95,7.57 5.85,8.46 5.79,9.17 C5.73,9.88 5.84,10.15 5.84,10.15 C5.84,10.15 5.6,10.12 5.48,9.89 C5.48,9.89 5.46,10.03 5.39,10.13 C5.39,10.13 5.18,10 5.14,9.68 C5.14,9.68 5.12,9.75 5.09,9.78 C5.09,9.78 5,9.71 4.96,9.56 C4.96,9.56 4.75,9.51 4.71,8.92 L4.66,9.01 C4.66,9.01 4.5,8.95 4.5,8.54 C4.5,8.54 4.48,8.68 4.41,8.74 L4.7,9.37 L4.65,9.36 C4.65,9.36 4.87,9.72 4.95,9.76 C4.95,9.76 4.87,9.79 4.77,9.77 C4.77,9.77 4.93,10.12 5.05,10.17 C5.16,10.23 5.4,10.19 5.4,10.19 C5.4,10.19 5.49,10.12 5.56,10.17 C5.56,10.17 5.71,10.12 5.73,10.31 C5.73,10.31 5.68,10.25 5.59,10.29 C5.59,10.29 5.55,10.4 5.44,10.35 C5.32,10.3 5.21,10.34 5.21,10.34 C5.21,10.34 5.3,10.39 5.42,10.4 C5.54,10.41 5.58,10.42 5.58,10.51 C5.58,10.51 5.63,10.69 5.52,10.74 C5.52,10.74 5.54,10.68 5.5,10.65 C5.5,10.65 5.44,10.73 5.38,10.66 C5.32,10.6 5.35,10.54 5.13,10.44 L5.3,10.69 C5.3,10.69 5.38,10.75 5.32,10.86 C5.32,10.86 5.32,11.07 5.17,11.07 C5.17,11.07 5.23,10.96 5.16,10.9 C5.16,10.9 5.08,10.91 5.04,10.85 C5,10.79 5.04,10.74 5.04,10.74 C5.04,10.74 5.02,10.45 4.9,10.36 C4.78,10.27 4.65,10.25 4.65,10.25 C4.65,10.25 4.49,10.33 4.46,10.17 C4.46,10.17 4.39,10.12 4.29,10.17 C4.29,10.17 4.33,10.02 4.5,10.03 C4.5,10.03 4.61,9.99 4.67,10.07 L4.75,10.12 L4.55,9.91 L4.54,9.96 C4.54,9.96 4.42,9.94 4.37,9.87 C4.37,9.87 4.36,9.97 4.32,10.05 C4.32,10.05 4.18,10.01 4.12,9.8 C4.12,9.8 4.07,9.92 3.99,9.95 C3.99,9.95 3.96,9.59 3.84,9.47 C3.84,9.47 3.63,9.75 3.62,9.91 C3.62,9.91 3.73,10.14 3.78,10.22 C3.83,10.3 3.88,10.5 3.77,10.52 C3.77,10.52 4.23,11.04 3.97,11.14 C3.97,11.14 4.1,11.5 4.22,11.64 C4.34,11.78 4.24,11.9 4.13,11.92 C4.02,11.94 3.93,11.9 3.93,11.9 C3.93,11.9 3.93,12 3.79,12.03 C3.65,12.05 3.61,11.98 3.61,11.98 C3.61,11.98 3.59,12.07 3.45,12.08 C3.31,12.08 3.28,12.01 3.28,12.01 C3.28,12.01 3.27,12.1 3.12,12.1 C2.96,12.11 2.96,12.01 2.96,12.01 C2.96,12.01 2.9,12.1 2.76,12.1 C2.62,12.1 2.6,12 2.6,12 C2.6,12 2.56,12.07 2.42,12.05 C2.28,12.03 2.27,11.92 2.27,11.92 C2.27,11.92 2.19,11.97 2.07,11.94 C1.95,11.92 1.86,11.8 1.98,11.66 C2.1,11.52 2.23,11.16 2.23,11.16 C1.97,11.06 2.43,10.54 2.43,10.54 C2.32,10.51 2.37,10.32 2.42,10.24 C2.47,10.16 2.58,9.93 2.58,9.93 C2.57,9.77 2.36,9.49 2.36,9.49 C2.24,9.61 2.21,9.97 2.21,9.97 C2.13,9.94 2.08,9.82 2.08,9.82 C2.02,10.03 1.88,10.07 1.88,10.07 C1.83,10 1.83,9.89 1.83,9.89 C1.77,9.97 1.66,9.98 1.66,9.98 L1.65,9.93 L1.45,10.14 L1.53,10.09 C1.59,10.01 1.7,10.05 1.7,10.05 C1.88,10.04 1.91,10.19 1.91,10.19 C1.81,10.14 1.74,10.19 1.74,10.19 C1.71,10.36 1.55,10.27 1.55,10.27 C1.55,10.27 1.42,10.29 1.3,10.38 C1.18,10.47 1.16,10.76 1.16,10.76 C1.16,10.76 1.2,10.81 1.16,10.87 C1.12,10.93 1.04,10.92 1.04,10.92 C0.97,10.98 1.03,11.09 1.03,11.09 C0.88,11.09 0.88,10.88 0.88,10.88 C0.82,10.77 0.9,10.71 0.9,10.71 L1.07,10.46 C0.85,10.55 0.88,10.61 0.82,10.68 C0.76,10.74 0.7,10.67 0.7,10.67 C0.65,10.69 0.68,10.76 0.68,10.76 C0.57,10.71 0.62,10.53 0.62,10.53 C0.62,10.44 0.66,10.43 0.78,10.42 C0.9,10.41 0.99,10.36 0.99,10.36 C0.99,10.36 0.88,10.32 0.76,10.37 C0.64,10.42 0.61,10.31 0.61,10.31 C0.53,10.27 0.47,10.33 0.47,10.33 C0.49,10.14 0.64,10.19 0.64,10.19 C0.71,10.13 0.8,10.21 0.8,10.21 C0.8,10.21 1.03,10.25 1.15,10.19 C1.26,10.13 1.43,9.79 1.43,9.79 C1.33,9.81 1.25,9.78 1.25,9.78 C1.34,9.74 1.55,9.38 1.55,9.38 L1.5,9.39 L1.79,8.76 C1.73,8.69 1.7,8.56 1.7,8.56 C1.7,8.97 1.54,9.03 1.54,9.03 L1.5,8.93 C1.46,9.52 1.25,9.57 1.25,9.57 C1.21,9.72 1.12,9.79 1.12,9.79 C1.09,9.76 1.07,9.69 1.07,9.69 C1.02,10.01 0.82,10.14 0.82,10.14 C0.76,10.03 0.73,9.9 0.73,9.9 C0.62,10.13 0.37,10.16 0.37,10.16 C0.37,10.16 0.47,9.89 0.42,9.18 C0.36,8.47 0.26,7.58 0.26,7.58 C0.19,7.17 0.25,6.46 0.25,6.46 L0.19,6.47 C0.26,5.19 0.77,4.8 0.9,4.71 C1.03,4.63 1.28,4.57 1.32,4.7 C1.36,4.83 1.14,4.95 1.13,5.31 C1.12,5.67 1.93,6.46 1.93,6.46 C2.01,6.46 2.12,6.41 2.12,6.41 C2.08,6.42 2.05,6.38 2.05,6.38 C2.65,6.07 2.41,5.49 2.41,5.49 C2.41,5.49 2.3,5.48 2.13,5.51 C1.96,5.53 1.96,5.42 1.96,5.42 C1.55,5.35 1.6,5.15 1.6,5.15 C1.6,5.15 1.78,5.34 1.92,5.31 C2.06,5.28 2.26,5.24 2.26,5.24 L2.17,5.17 C2,5.19 2.03,5.1 1.96,5.08 C1.89,5.06 1.86,5.13 1.85,5.18 C1.84,5.23 1.8,5.23 1.8,5.23 C1.73,5.25 1.52,4.98 1.52,4.83 C1.52,4.68 1.74,4.68 1.74,4.68 C1.79,4.58 1.9,4.65 1.9,4.65 C1.89,4.51 2.22,4.55 2.45,4.65 C2.68,4.75 2.97,4.82 2.97,4.82 C3.01,5.07 2.85,5.03 2.85,5.03 C3.02,5.18 3.1,5.81 3.1,5.81 C3.1,5.81 3.18,5.18 3.35,5.03 C3.35,5.03 3.19,5.07 3.23,4.82 C3.23,4.82 3.51,4.76 3.75,4.65 C3.98,4.55 4.31,4.51 4.3,4.65 C4.3,4.65 4.41,4.58 4.46,4.68 C4.46,4.68 4.68,4.68 4.68,4.83 C4.68,4.98 4.47,5.25 4.4,5.23 C4.4,5.23 4.37,5.24 4.35,5.18 C4.34,5.13 4.3,5.06 4.24,5.08 C4.18,5.1 4.21,5.19 4.03,5.17 L3.94,5.24 C3.94,5.24 4.14,5.28 4.28,5.31 C4.42,5.34 4.6,5.15 4.6,5.15 C4.6,5.15 4.65,5.36 4.24,5.42 C4.24,5.42 4.24,5.53 4.07,5.51 C3.9,5.49 3.79,5.49 3.79,5.49 C3.79,5.49 3.55,6.07 4.15,6.38 C4.15,6.38 4.12,6.42 4.08,6.41 C4.08,6.41 4.18,6.46 4.27,6.46 C4.27,6.46 5.08,5.67 5.07,5.31 C5.06,4.95 4.83,4.83 4.88,4.7 C4.92,4.57 5.17,4.63 5.3,4.71 C5.43,4.79 5.94,5.19 6.01,6.47 L5.95,6.46 C5.96,6.45 6.03,7.16 5.95,7.57 Z" fill="#C6363C"></path>
                </g>
            </g>
        </g>
    </g>
</svg>