<svg xmlns="http://www.w3.org/2000/svg" viewBox="0 0 32 16">
  <g fill="none" fill-rule="evenodd">
    <rect width="32" height="16" fill="#FFF" transform="matrix(1 0 0 -1 0 16)"/>
    <rect width="32" height="8" fill="#ED2939" transform="matrix(1 0 0 -1 0 8)"/>
    <g fill="#FFF" fill-rule="nonzero" transform="translate(2 1)">
      <path d="M1.27251473,3.02448936 C1.27251473,1.58834905 2.25863276,0.388626284 3.57546318,0.09425949 C3.37307066,0.0490552237 3.16311664,0.0245278662 2.94736923,0.0245278662 C1.32856768,0.0245278662 0.0163268312,1.36764134 0.0163268312,3.02452787 C0.0163268312,4.68141439 1.32856768,6.02452787 2.94736923,6.02452787 C3.1630414,6.02452787 3.37303304,6.00000051 3.57546318,5.95475774 C2.25863276,5.66039094 1.27251473,4.46066818 1.27251473,3.02448936 Z"/>
      <polygon points="5.041 .234 5.249 .874 5.922 .874 5.377 1.269 5.585 1.909 5.041 1.513 4.497 1.909 4.705 1.269 4.16 .874 4.833 .874"/>
      <polygon points="3.409 1.49 3.617 2.13 4.29 2.13 3.746 2.525 3.953 3.165 3.409 2.77 2.865 3.165 3.073 2.525 2.529 2.13 3.201 2.13"/>
      <polygon points="6.673 1.49 6.881 2.13 7.553 2.13 7.009 2.525 7.217 3.165 6.673 2.77 6.129 3.165 6.336 2.525 5.792 2.13 6.465 2.13"/>
      <polygon points="6.045 3.374 6.253 4.014 6.925 4.014 6.381 4.409 6.589 5.049 6.045 4.654 5.501 5.049 5.708 4.409 5.164 4.014 5.837 4.014"/>
      <polygon points="4.037 3.374 4.245 4.014 4.918 4.014 4.374 4.409 4.582 5.049 4.037 4.654 3.493 5.049 3.701 4.409 3.157 4.014 3.829 4.014"/>
    </g>
  </g>
</svg>
