<svg xmlns="http://www.w3.org/2000/svg" viewBox="0 0 32 16"><g fill="none"><path fill="#ED2939" d="M0 0h32v16H0z"/><g fill="#FFF"><path d="M6 6.78a2.94 2.94 0 1 1 .17-5.56A2.78 2.78 0 0 0 6 6.78z"/><path d="M5.46 4.03l-.4-.3-.4.3.16-.49-.4-.3h.49l.15-.49.15.5h.49l-.4.3zm3.12-.01l-.39-.3-.39.31.15-.49-.4-.3h.5l.14-.49.15.5h.5l-.4.3zM7.05 2.87l-.4-.3-.38.31.15-.49-.4-.3h.49l.15-.49.15.49h.49l-.4.3zM6.02 5.88l-.39-.3-.39.3.15-.48-.4-.3h.5l.14-.5.15.5h.5l-.4.3zm1.98 0l-.38-.3-.4.3.16-.48-.4-.3h.49l.15-.5.15.5h.49l-.4.3z"/></g><path fill="#FFF" d="M0 8h32v8H0z"/></g></svg>