<?xml version="1.0" encoding="UTF-8"?>
<svg width="32px" height="16px" viewBox="0 0 32 16" version="1.1" xmlns="http://www.w3.org/2000/svg" xmlns:xlink="http://www.w3.org/1999/xlink">
    <!-- Generator: Sketch 51.3 (57544) - http://www.bohemiancoding.com/sketch -->
    <title>Slovenia Copy 2</title>
    <desc>Created with Sketch.</desc>
    <defs></defs>
    <g id="Page-1" stroke="none" stroke-width="1" fill="none" fill-rule="evenodd">
        <g id="Slovenia-Copy-2" fill-rule="nonzero">
            <rect id="Rectangle-path" fill="#E62319" x="0" y="0" width="32" height="16"></rect>
            <rect id="Rectangle-path" fill="#0F378C" x="0" y="0" width="32" height="10.6688"></rect>
            <rect id="Rectangle-path" fill="#FFFFFF" x="0" y="0" width="32" height="5.3312"></rect>
            <g id="Group" transform="translate(5.929820, 2.631345)">
                <path d="M3.9717625,2.98086893 L4.13984,0.501104768 C2.82999462,-0.119871232 1.30984538,-0.119871232 0,0.501104768 L0.168077504,2.98086893 C0.243422592,4.09531386 1.00101331,5.04582112 2.06992,5.36872864 C3.13965466,5.04582112 3.89641741,4.09448589 3.9717625,2.98086893" id="Shape" fill="#0F378C"></path>
                <path d="M3.11710278,4.33774303 C3.02602025,4.34007073 2.93323454,4.31269255 2.84820992,4.25216372 C2.68675616,4.14101432 2.49218368,4.14101432 2.33072992,4.25216372 C2.16927616,4.36331311 1.97470368,4.36331311 1.81324992,4.25216372 C1.65179616,4.14101432 1.45722368,4.14101432 1.29576992,4.25216372 C1.20904743,4.31213733 1.11425078,4.3388548 1.02142264,4.33532636 C0.931888279,4.22892855 0.851577483,4.11463921 0.78158473,3.99368158 C0.935980231,4.10117573 1.13053144,4.10874883 1.29576992,3.99111593 C1.45722368,3.87996654 1.65179616,3.87996654 1.81324992,3.99111593 C1.97470368,4.10226532 2.16927616,4.10226532 2.33072992,3.99111593 C2.49218368,3.87996654 2.68675616,3.87996654 2.84820992,3.99111593 C3.01180368,4.10425047 3.20412954,4.09904218 3.35777286,3.99569833 C3.28756977,4.1168144 3.20697892,4.23124146 3.11710278,4.33774303 Z M2.97112779,4.49569319 C2.72050228,4.74347941 2.41416276,4.93654993 2.06992,5.05492877 C1.72706314,4.93690201 1.42172608,4.74462721 1.17156113,4.49783343 C1.2140253,4.48367292 1.25575702,4.46252963 1.29576992,4.43404454 C1.45722368,4.32289515 1.65179616,4.32289515 1.81324992,4.43404454 C1.97470368,4.54519393 2.16927616,4.54519393 2.33072992,4.43404454 C2.49218368,4.32289515 2.68675616,4.32289515 2.84820992,4.43404454 C2.88781728,4.46143532 2.92910881,4.48188928 2.97112779,4.49569319 Z M3.53402554,3.61926227 C3.38106649,3.88953267 3.08463371,3.97754468 2.84820992,3.80923511 C2.68675616,3.69808572 2.49218368,3.69808572 2.33072992,3.80923511 C2.16927616,3.9203845 1.97470368,3.9203845 1.81324992,3.80923511 C1.65179616,3.69808572 1.45722368,3.69808572 1.29576992,3.80923511 C1.05359056,3.97671614 0.748444907,3.88484924 0.599041298,3.59919145 C0.566303555,3.50729117 0.538997227,3.41282608 0.51748,3.31619597 L1.29411398,2.28123597 L1.60460198,2.69521997 L2.06992,1.76375597 L2.53606598,2.69604794 L2.84655398,2.28206394 L3.62236,3.31702394 C3.5994219,3.42040394 3.56983063,3.5213143 3.53402554,3.61926227 Z" id="Combined-Shape" fill="#FFFFFF"></path>
                <polygon id="Shape" fill="#FAD214" points="2.05 1.0010101 2.10833333 1.16447164 2.3 1.1260101 2.16388889 1.2510101 2.3 1.3760101 2.10833333 1.33754856 2.05 1.5010101 1.99166667 1.33754856 1.8 1.3760101 1.93611111 1.2510101 1.8 1.1260101 1.99166667 1.16447164"></polygon>
                <polygon id="Shape" fill="#FAD214" points="1.19481511 0.205208333 1.25314844 0.368669872 1.44481511 0.330208333 1.308704 0.455208333 1.44481511 0.580208333 1.25314844 0.541746795 1.19481511 0.705208333 1.13648178 0.541746795 0.944815111 0.580208333 1.08092622 0.455208333 0.944815111 0.330208333 1.13648178 0.368669872"></polygon>
                <polygon id="Shape" fill="#FAD214" points="2.91472433 0.205208333 2.97338355 0.368669872 3.16612098 0.330208333 3.02924947 0.455208333 3.16612098 0.580208333 2.97338355 0.541746795 2.91472433 0.705208333 2.85885841 0.541746795 2.66612098 0.580208333 2.80299249 0.455208333 2.66612098 0.330208333 2.85885841 0.368669872"></polygon>
                <path d="M0.145722368,0.434867328 L0.317111744,2.97010534 C0.387489024,4.00589331 1.08215418,4.89347501 2.06992,5.21141472 C3.05768582,4.89347501 3.75235098,4.00589331 3.82272826,2.97010534 L3.99411763,0.434867328 C4.04213978,0.457222464 4.09098989,0.4795776 4.13901203,0.501104768 L3.9717625,2.98004096 C3.89641741,4.09448589 3.13882669,5.04499315 2.06992,5.36790067 C1.00101331,5.04499315 0.243422592,4.09365792 0.168077504,2.98004096 L0,0.501104768 C0.048850112,0.4795776 0.097700224,0.458050432 0.145722368,0.434867328" id="Shape" fill="#E62319"></path>
            </g>
        </g>
    </g>
</svg>