<svg xmlns="http://www.w3.org/2000/svg" viewBox="0 0 32 16">
  <g fill="none" fill-rule="evenodd">
    <rect width="32" height="16" fill="#0F378C" transform="matrix(1 0 0 -1 0 16)"/>
    <rect width="32" height="5" fill="#FFF"/>
    <rect width="32" height="5" y="11" fill="#E62319"/>
    <g fill-rule="nonzero" transform="translate(6 2)">
      <path fill="#E62319" d="M0,1.5 L0,4.2 C0,6.48431016 3,7 3,7 C3,7 6,6.48431016 6,4.2 L6,1.5 C5.33333333,0.5 4.33333333,0 3,0 C1.66666667,0 0.666666667,0.5 0,1.5 Z"/>
      <path fill="#0F378C" d="M1,2 L1,4 C1,5.63165011 3,6 3,6 C3,6 5,5.63165011 5,4 L5,2 C4.55555556,1.33333333 3.88888889,1 3,1 C2.11111111,1 1.44444444,1.33333333 1,2 Z"/>
      <path fill="#FFF" d="M2.99939007,3 L3.71929498,4.125 L4.43919989,3.75 L4.68075481,4.11350674 C4.79691206,4.28369313 4.88300277,4.40094319 4.93902695,4.46525691 C4.60923949,5.70361841 3,6 3,6 L2.85868433,5.96696842 C2.46049571,5.86211054 1.3402518,5.48242141 1.06277456,4.47779152 C1.17786561,4.37727221 1.34322054,4.13433703 1.55958026,3.75 L2.27948516,4.125 L2.99939007,3 Z"/>
    </g>
  </g>
</svg>
