<svg xmlns="http://www.w3.org/2000/svg" viewBox="0 0 32 16"><g fill="none"><path fill="#EE1C25" d="M0 0h32v16H0z"/><path fill="#0B4EA2" d="M0 0h32v10.97H0z"/><path fill="#FFF" d="M0 0h32v5.03H0z"/><path fill="#FFF" d="M8.74 12.78c-1.47-.7-3.57-2.1-3.57-4.85 0-2.75.13-4 .13-4h6.87s.14 1.25.14 4c0 2.76-2.1 4.15-3.57 4.85z"/><path fill="#EE1C25" d="M8.74 12.41c-1.35-.64-3.27-1.92-3.27-4.44 0-2.52.12-3.67.12-3.67h6.3S12 5.45 12 7.97s-1.92 3.8-3.27 4.44z"/><path fill="#FFF" d="M9.03 7.3c.36.01 1.07.03 1.7-.18l-.01.48c0 .27.02.49.02.49-.59-.2-1.3-.2-1.71-.2v1.4h-.58V7.9c-.41 0-1.13 0-1.7.2v-.98c.63.2 1.34.2 1.7.19v-.88c-.33 0-.81.01-1.35.2 0 0 .02-.23.02-.5 0-.25-.02-.48-.02-.48.54.18 1.02.2 1.35.2a7.72 7.72 0 0 0-.18-1.26l.47.03.47-.03s-.16.7-.18 1.25c.33 0 .8 0 1.35-.19 0 0-.02.23-.02.49s.02.48.02.48a4.07 4.07 0 0 0-1.35-.19v.88z"/><path fill="#0B4EA2" d="M8.74 9.14c-.68 0-1.04.93-1.04.93s-.2-.44-.76-.44c-.37 0-.65.33-.82.64a6.2 6.2 0 0 0 2.62 2.14 6.2 6.2 0 0 0 2.62-2.14c-.17-.3-.45-.64-.82-.64-.56 0-.76.44-.76.44s-.36-.93-1.04-.93z"/></g></svg>