<svg xmlns="http://www.w3.org/2000/svg" viewBox="0 0 32 16">
  <g fill="none" fill-rule="evenodd">
    <rect width="32" height="16" fill="#E70013" transform="matrix(1 0 0 -1 0 16)"/>
    <g fill-rule="nonzero" transform="translate(12 4)">
      <circle cx="4" cy="4" r="4" fill="#FFF"/>
      <path fill="#E70013" d="M4.28,0.96 C2.62314575,0.96 1.28,2.30314575 1.28,3.96 C1.28,5.61685425 2.62314575,6.96 4.28,6.96 C5.23733506,6.95875246 6.13658883,6.50067927 6.7004688,5.7270312 C6.25848389,6.13325859 5.68030871,6.3590987 5.08,6.36 C3.7545166,6.36 2.68,5.2854834 2.68,3.96 C2.68,2.6345166 3.7545166,1.56 5.08,1.56 C5.68030945,1.56108867 6.25841504,1.78711001 6.7002734,2.1934766 C6.13654259,1.41969223 5.23735711,0.961428195 4.28,0.96 Z"/>
      <polygon fill="#E70013" points="4.656 2.368 5.714 5.624 2.944 3.612 6.368 3.612 3.598 5.624" transform="rotate(-90 4.656 3.996)"/>
    </g>
  </g>
</svg>
