<?xml version="1.0" encoding="utf-8"?>
<!-- Generator: Adobe Illustrator 19.2.0, SVG Export Plug-In . SVG Version: 6.00 Build 0)  -->
<svg version="1.1" id="Layer_1" xmlns="http://www.w3.org/2000/svg" xmlns:xlink="http://www.w3.org/1999/xlink" x="0px" y="0px"
	 viewBox="0 0 32 16" style="enable-background:new 0 0 32 16;" xml:space="preserve">
<rect class="st0" width="32" height="16" fill="#E70013"/>
<circle class="st1" cx="16" cy="8" r="4" fill="#ffffff"/>
<path class="st0" d="M16.7,10.2c-1.2,0-2.2-1-2.2-2.2c0-1.2,1-2.2,2.2-2.2c0.6,0,1.2,0.2,1.6,0.6c-0.5-0.7-1.3-1.1-2.2-1.1
	c-1.5,0-2.8,1.2-2.8,2.8c0,1.5,1.2,2.8,2.8,2.8c0.9,0,1.7-0.5,2.2-1.1C17.8,10,17.3,10.2,16.7,10.2z" fill="#E70013"/>
<polygon class="st0" points="16.4,9.7 16.4,8.4 15.2,8 16.4,7.7 16.4,6.3 17.2,7.4 18.5,7 17.7,8.1 18.5,9.1 17.2,8.7 " fill="#E70013"/>
</svg>
