<svg xmlns="http://www.w3.org/2000/svg" viewBox="0 0 32 16"><g fill="none" fill-rule="evenodd"><path fill="#FE0000" d="M0 16h32V0H0z"/><path fill="#000095" d="M0 8h11.97V0H0z"/><g fill="#FFF"><path d="M7.49 1.43l-.98.97c.23.08.44.2.62.36l.36-1.33zM4.73 2.88L3.4 2.52l.97.98c.08-.23.2-.44.36-.62m.74-.48l-.98-.97.36 1.33c.18-.16.39-.28.62-.36M7.6 3.5l.98-.98-1.33.36c.16.18.28.39.36.62m1.38.52l-1.34-.36a1.7 1.7 0 0 1 0 .72l1.34-.36zM6.35 2.36l-.36-1.34-.36 1.34a1.7 1.7 0 0 1 .72 0m.16 3.28l.98.97-.36-1.33a1.7 1.7 0 0 1-.62.36m.74-.48l1.33.36-.97-.98c-.08.23-.2.44-.36.62m-1.62.52L6 7l.36-1.33a1.7 1.7 0 0 1-.72 0M4.3 4.02c0-.12 0-.24.03-.36L3 4.02l1.33.36a1.7 1.7 0 0 1-.04-.36m.08.52l-.97.98 1.33-.36a1.7 1.7 0 0 1-.36-.62m.13 2.07l.97-.97a1.7 1.7 0 0 1-.62-.36L4.5 6.6z"/><path d="M5.99 2.52a1.5 1.5 0 1 0 0 3 1.5 1.5 0 0 0 0-3"/></g></g></svg>