<svg xmlns="http://www.w3.org/2000/svg" viewBox="0 0 32 16"><g fill="none"><path fill="#B22234" d="M0 0h32v16H0z"/><path fill="#FFF" d="M0 1.25h32V2.5H0V1.25zM0 3.7h32v1.25H0V3.71zm0 2.43h32V7.4H0V6.14zM0 8.6h32v1.25H0V8.6zm0 2.5h32v1.24H0V11.1zm0 2.43h32v1.24H0v-1.24z"/><path fill="#3C3B6E" d="M0 0h12.16v8.61H0z"/><path fill="#FFF" d="M4.05 1.21l.3.9-.76-.56h.93l-.75.55.28-.89zm0 1.72l.3.9-.76-.56h.93l-.75.55.28-.89zm0 1.72l.3.9-.76-.56h.93l-.75.55.28-.89zm0 1.72l.3.9-.76-.56h.93l-.75.55.28-.89zM1.02.35l.28.9L.55.68h.93l-.75.55.29-.89zm0 1.72l.28.9-.75-.56h.93l-.75.55.29-.89zm0 1.72l.28.9-.75-.56h.93l-.75.55.29-.89zm0 1.72l.28.9-.75-.56h.93l-.75.55.29-.89zm0 1.72l.28.9-.75-.56h.93l-.75.55.29-.89zm1-6.02l.3.9-.76-.56h.94l-.76.55.29-.89zm0 1.72l.3.9-.76-.56h.94l-.76.55.29-.89zm0 1.72l.3.9-.76-.56h.94l-.76.55.29-.89zm0 1.72l.3.9-.76-.56h.94l-.76.55.29-.89zM3.05.35l.3.9-.77-.56h.94l-.76.55.3-.89zm0 1.72l.3.9-.77-.56h.94l-.76.55.3-.89zm0 1.72l.3.9-.77-.56h.94l-.76.55.3-.89zm0 1.72l.3.9-.77-.56h.94l-.76.55.3-.89zm0 1.72l.3.9-.77-.56h.94l-.76.55.3-.89zM5.07.35l.29.9L4.6.68h.94l-.76.55.29-.89zm0 1.72l.29.9-.76-.56h.94l-.76.55.29-.89zm0 1.72l.29.9-.76-.56h.94l-.76.55.29-.89zm0 1.72l.29.9-.76-.56h.94l-.76.55.29-.89zm0 1.72l.29.9-.76-.56h.94l-.76.55.29-.89zm1.01-6.02l.29.9-.76-.56h.94l-.76.55.29-.89zm0 1.72l.29.9-.76-.56h.94l-.76.55.29-.89zm0 1.72l.29.9-.76-.56h.94l-.76.55.29-.89zm0 1.72l.29.9-.76-.56h.94l-.76.55.29-.89zM7.09.35l.3.9-.77-.56h.94l-.76.55.3-.89zm0 1.72l.3.9-.77-.56h.94l-.76.55.3-.89zm0 1.72l.3.9-.77-.56h.94l-.76.55.3-.89zm0 1.72l.3.9-.77-.56h.94l-.76.55.3-.89zm0 1.72l.3.9-.77-.56h.94l-.76.55.3-.89zm1.02-6.02l.28.9-.75-.56h.93l-.75.55.29-.89zm0 1.72l.28.9-.75-.56h.93l-.75.55.29-.89zm0 1.72l.28.9-.75-.56h.93l-.75.55.29-.89zm0 1.72l.28.9-.75-.56h.93l-.75.55.29-.89zm1-6.02l.3.9-.76-.56h.94l-.76.55.29-.89zm0 1.72l.3.9-.76-.56h.94l-.76.55.29-.89zm0 1.72l.3.9-.76-.56h.94l-.76.55.29-.89zm0 1.72l.3.9-.76-.56h.94l-.76.55.29-.89zm0 1.72l.3.9-.76-.56h.94l-.76.55.29-.89zm1.02-6.02l.3.9-.77-.56h.94l-.76.55.3-.89zm0 1.72l.3.9-.77-.56h.94l-.76.55.3-.89zm0 1.72l.3.9-.77-.56h.94l-.76.55.3-.89zm0 1.72l.3.9-.77-.56h.94l-.76.55.3-.89zM11.14.35l.3.9-.76-.56h.93l-.75.55.28-.89zm0 1.72l.3.9-.76-.56h.93l-.75.55.28-.89zm0 1.72l.3.9-.76-.56h.93l-.75.55.28-.89zm0 1.72l.3.9-.76-.56h.93l-.75.55.28-.89zm0 1.72l.3.9-.76-.56h.93l-.75.55.28-.89z"/></g></svg>