<svg xmlns="http://www.w3.org/2000/svg" viewBox="0 0 32 16">
  <g fill="none" fill-rule="evenodd">
    <rect width="32" height="16" fill="#FFF"/>
    <rect width="32" height="2" fill="#B22234"/>
    <rect width="32" height="2" y="4" fill="#B22234"/>
    <rect width="32" height="2" y="8" fill="#B22234"/>
    <rect width="32" height="2" y="12" fill="#B22234"/>
    <rect width="13" height="10" fill="#3C3B6E"/>
    <polygon fill="#FFF" points="2.382 2.236 2.618 3 2 2.528 1.382 3 1.618 2.236 1 1.764 1.764 1.764 2 1 2.236 1.764 3 1.764"/>
    <polygon fill="#FFF" points="2.382 5.236 2.618 6 2 5.528 1.382 6 1.618 5.236 1 4.764 1.764 4.764 2 4 2.236 4.764 3 4.764"/>
    <polygon fill="#FFF" points="2.382 8.236 2.618 9 2 8.528 1.382 9 1.618 8.236 1 7.764 1.764 7.764 2 7 2.236 7.764 3 7.764"/>
    <polygon fill="#FFF" points="5.382 2.236 5.618 3 5 2.528 4.382 3 4.618 2.236 4 1.764 4.764 1.764 5 1 5.236 1.764 6 1.764"/>
    <polygon fill="#FFF" points="5.382 5.236 5.618 6 5 5.528 4.382 6 4.618 5.236 4 4.764 4.764 4.764 5 4 5.236 4.764 6 4.764"/>
    <polygon fill="#FFF" points="5.382 8.236 5.618 9 5 8.528 4.382 9 4.618 8.236 4 7.764 4.764 7.764 5 7 5.236 7.764 6 7.764"/>
    <polygon fill="#FFF" points="8.382 2.236 8.618 3 8 2.528 7.382 3 7.618 2.236 7 1.764 7.764 1.764 8 1 8.236 1.764 9 1.764"/>
    <polygon fill="#FFF" points="8.382 5.236 8.618 6 8 5.528 7.382 6 7.618 5.236 7 4.764 7.764 4.764 8 4 8.236 4.764 9 4.764"/>
    <polygon fill="#FFF" points="8.382 8.236 8.618 9 8 8.528 7.382 9 7.618 8.236 7 7.764 7.764 7.764 8 7 8.236 7.764 9 7.764"/>
    <polygon fill="#FFF" points="11.382 2.236 11.618 3 11 2.528 10.382 3 10.618 2.236 10 1.764 10.764 1.764 11 1 11.236 1.764 12 1.764"/>
    <polygon fill="#FFF" points="11.382 5.236 11.618 6 11 5.528 10.382 6 10.618 5.236 10 4.764 10.764 4.764 11 4 11.236 4.764 12 4.764"/>
    <polygon fill="#FFF" points="11.382 8.236 11.618 9 11 8.528 10.382 9 10.618 8.236 10 7.764 10.764 7.764 11 7 11.236 7.764 12 7.764"/>
  </g>
</svg>
