<svg xmlns="http://www.w3.org/2000/svg" viewBox="0 0 32 16"><g fill="none" fill-rule="evenodd"><path fill="#002395" d="M0 16h32V0H0z"/><path fill="#DE3831" d="M0 8h32V0H0z"/><path fill="#000" d="M0 0v16l12-8L0 0zm12 8h12-12z"/><path fill="#FFF" d="M0 0v2.57L8.15 8 0 13.43V16h3.85l8.8-5.87 19.35.03V5.89l-19.35-.02L3.85 0z"/><path fill="#000" d="M0 16l12.03-8L0 0z"/><path fill="#FFB612" d="M0 0v2.57L8.17 8 0 13.43V16l12.03-8L0 0z"/><path fill="#007A4D" d="M0 0v1.54L9.69 8 0 14.46V16h2.31l10.08-6.72H32V6.72H12.39L2.31 0z"/></g></svg>